<svg version="1.1" xmlns="http://www.w3.org/2000/svg" xmlns:xlink="http://www.w3.org/1999/xlink" width="41.46369" height="24.87353" viewBox="0,0,41.46369,24.87353"><defs><linearGradient x1="250.36504" y1="183.93705" x2="250.36504" y2="189.26448" gradientUnits="userSpaceOnUse" id="color-1"><stop offset="0" stop-color="#373c42"/><stop offset="1" stop-color="#6c4a4a"/></linearGradient><linearGradient x1="257.55088" y1="184.55652" x2="257.55088" y2="190.50342" gradientUnits="userSpaceOnUse" id="color-2"><stop offset="0" stop-color="#373c42"/><stop offset="1" stop-color="#6c4a4a"/></linearGradient><linearGradient x1="232.80309" y1="185.60961" x2="232.80309" y2="190.56537" gradientUnits="userSpaceOnUse" id="color-3"><stop offset="0" stop-color="#373c42"/><stop offset="1" stop-color="#6c4a4a"/></linearGradient><linearGradient x1="239.46238" y1="183.99899" x2="239.46238" y2="191.74235" gradientUnits="userSpaceOnUse" id="color-4"><stop offset="0" stop-color="#373c42"/><stop offset="1" stop-color="#6c4a4a"/></linearGradient></defs><g transform="translate(-219.26815,-167.43824)"><g data-paper-data="{&quot;isPaintingLayer&quot;:true}" fill-rule="nonzero" stroke-linecap="butt" stroke-linejoin="miter" stroke-miterlimit="10" stroke-dasharray="" stroke-dashoffset="0" style="mix-blend-mode: normal"><path d="M227.48186,185.58933c0,0 -3.70435,-1.82965 -4.44206,-3.18652c-0.67743,-1.24598 -0.73185,-4.80261 -0.73185,-4.80261c0,0 0.61352,-2.15063 2.30844,-4.27074c1.17434,-1.46894 2.36685,-3.08348 3.62242,-3.99995c0.66595,-0.48609 1.67774,-0.66644 1.99278,-0.76491c0.87583,-0.27376 1.908,-0.01164 2.80854,0.01932c1.03186,0.03547 2.23305,-0.5375 3.79333,-0.29648c2.30604,0.35622 1.79939,0.67651 3.5241,1.34114c2.12138,0.81748 4.5437,1.42816 6.3743,1.42816c0.92465,0 2.40126,-0.08178 3.43477,-0.2271c1.66946,-0.23473 2.76527,-0.66495 4.15914,-0.11582c1.19948,0.47255 3.22762,1.6796 4.06584,2.44605c1.48538,1.35821 1.50329,2.46209 1.50329,2.46209c0,0 0.69948,1.78759 0.57173,3.72079c-0.14091,2.13219 -0.57434,4.94744 -0.49412,6.39869c0.11517,2.08347 0.75934,5.02182 0.75934,5.02182c0,0 -0.65944,0.40031 -1.57205,0.47516c-0.59652,0.04892 -1.37218,-0.18313 -1.89651,-0.26487c-0.14704,-0.02292 0.67619,-1.2888 -0.17015,-2.58041c-1.00295,-1.53062 -2.9436,-3.66073 -3.22302,-3.70477c-1.14996,-0.18125 -0.22957,5.34819 -1.95671,5.3059c-0.36218,-0.00887 -2.23553,0.08908 -2.48013,-0.63903c-0.25736,-0.76607 0.79495,-1.04489 0.87133,-2.08664c0.10405,-1.41921 -0.75654,-3.538 -1.38059,-3.61113c-0.48647,-0.05701 -5.58249,-1.1182 -6.46497,-0.20778c-2.24973,2.32095 -1.04072,8.78315 -2.42334,8.80977c-0.39069,0.00752 -2.21596,0.30201 -2.47825,-0.59257c-0.31044,-1.05882 0.84378,-0.88325 0.9323,-2.35076c0.09829,-1.62954 -0.86925,-4.85953 -1.31975,-4.97709c-0.31264,-0.08159 -0.344,1.75464 -1.04045,3.13932c-1.00676,2.00165 -2.74004,3.80591 -3.16374,3.76217c-0.35574,-0.03672 -2.35635,0.17042 -2.41331,-0.70729c-0.06865,-1.05778 1.47771,-0.67066 1.85407,-2.42115c0.93339,-4.34139 1.33273,-11.64121 0.76357,-12.23753c-0.57005,-0.59725 -5.53891,0.08811 -6.60221,1.69923c-1.20819,1.83064 -0.77327,3.34751 0.25413,5.03618c0.22086,0.36301 0.79229,0.88607 1.22867,1.14612c0.64402,0.38378 0.41121,-2.84373 0.14185,-2.49983c-0.05722,0.07305 0.63251,-0.09873 1.32922,0.25293c0.58929,0.29744 1.20523,1.09927 1.15583,1.40487c-0.0768,0.47501 0.07087,1.80337 -0.47821,2.23341c-0.92853,0.7272 -2.71757,0.44192 -2.71757,0.44192z" fill-opacity="0.5" fill="#000000" stroke="none" stroke-width="0"/><path d="M226.88009,185.0495c0,0 -3.70435,-1.82965 -4.44206,-3.18652c-0.67743,-1.24598 -0.73185,-4.80261 -0.73185,-4.80261c0,0 0.61352,-2.15063 2.30844,-4.27074c1.17434,-1.46894 2.36685,-3.08348 3.62242,-3.99995c0.66595,-0.48609 1.67774,-0.66644 1.99278,-0.76491c0.87583,-0.27376 1.908,-0.01164 2.80854,0.01932c1.03186,0.03547 2.23305,-0.5375 3.79333,-0.29648c2.30604,0.35622 1.79939,0.67651 3.5241,1.34114c2.12138,0.81748 4.5437,1.42816 6.3743,1.42816c0.92465,0 2.40126,-0.08178 3.43477,-0.2271c1.66946,-0.23473 2.76527,-0.66495 4.15914,-0.11582c1.19948,0.47255 3.22762,1.6796 4.06584,2.44605c1.48538,1.35821 1.50329,2.46209 1.50329,2.46209c0,0 0.69948,1.78759 0.57173,3.72079c-0.14091,2.13219 -0.57434,4.94744 -0.49412,6.39869c0.11517,2.08347 0.75934,5.02182 0.75934,5.02182c0,0 -0.65944,0.40031 -1.57204,0.47516c-0.59653,0.04892 -1.37218,-0.18313 -1.89652,-0.26487c-0.14704,-0.02292 0.67619,-1.2888 -0.17015,-2.58041c-1.00295,-1.53062 -2.9436,-3.66073 -3.22302,-3.70477c-1.14996,-0.18125 -0.22957,5.34819 -1.95671,5.3059c-0.36218,-0.00887 -2.23553,0.08908 -2.48013,-0.63903c-0.25736,-0.76607 0.79495,-1.04489 0.87133,-2.08664c0.10405,-1.41921 -0.75654,-3.538 -1.38059,-3.61113c-0.48647,-0.05701 -5.58249,-1.1182 -6.46497,-0.20778c-2.24973,2.32095 -1.04072,8.78315 -2.42334,8.80977c-0.39069,0.00752 -2.21596,0.30201 -2.47825,-0.59257c-0.31044,-1.05882 0.84378,-0.88325 0.9323,-2.35076c0.09829,-1.62954 -0.86925,-4.85953 -1.31975,-4.97709c-0.31264,-0.08159 -0.344,1.75464 -1.04045,3.13932c-1.00676,2.00165 -2.74004,3.80591 -3.16374,3.76217c-0.35574,-0.03672 -2.35635,0.17042 -2.41331,-0.70729c-0.06865,-1.05778 1.47771,-0.67066 1.85407,-2.42115c0.93339,-4.34139 1.33273,-11.64121 0.76357,-12.23753c-0.57005,-0.59725 -5.53891,0.08811 -6.60221,1.69923c-1.20819,1.83064 -0.77327,3.34751 0.25413,5.03618c0.22086,0.36301 0.79229,0.88607 1.22867,1.14612c0.64402,0.38378 0.41121,-2.84373 0.14185,-2.49983c-0.05722,0.07305 0.63251,-0.09873 1.32922,0.25293c0.58929,0.29744 1.20523,1.09927 1.15583,1.40487c-0.0768,0.47501 0.07087,1.80337 -0.47821,2.23341c-0.92853,0.7272 -2.71757,0.44192 -2.71757,0.44192z" fill="#5e6669" stroke="#ffffff" stroke-width="0.5"/><path d="M233.20575,176.93704c0,0 4.7636,-1.11817 5.95099,-3.21893c0.82634,-1.46198 0.49149,-4.40054 0.49149,-4.40054l1.85841,0.55752l-0.43363,4.21239c0,0 -6.18727,6.37935 -7.73889,5.70808c-0.77361,-0.33468 -0.12836,-2.85852 -0.12836,-2.85852z" fill="#464d55" stroke="none" stroke-width="0"/><path d="M228.00221,175.38834c0,0 3.79558,-2.72044 5.06938,-4.03855c1.06216,-1.09911 2.48814,-3.45702 2.48814,-3.45702l2.16814,0.43363c0,0 1.32364,2.81054 0.31635,4.45007c-0.92704,1.50891 -4.90042,2.61188 -4.90042,2.61188c0,0 -1.21624,-0.55752 -2.10619,-0.55752c-0.81781,0 -3.0354,0.55752 -3.0354,0.55752z" fill="#464d55" stroke="none" stroke-width="0"/><path d="M223.1084,182.20253c0,0 -0.52468,-0.44005 -0.65474,-0.85624c-0.16924,-0.54157 -0.39835,-3.23226 -0.39835,-3.23226l3.40708,-0.61947c0,0 -0.43772,1.81676 -0.28368,2.60749c0.15568,0.79915 0.71731,2.03853 0.71731,2.03853c0,0 1.06376,0.80117 1.31554,1.39214c0.19603,0.46009 -0.55434,0.86787 -0.75862,0.86301c-0.215,-0.00512 -1.35853,-0.56588 -2.21609,-1.16879c-0.67662,-0.4757 -1.12845,-1.02441 -1.12845,-1.02441z" fill="#464d55" stroke="none" stroke-width="0"/><path d="M249.80752,189.07864c0,0 -0.61652,0.0355 -0.61554,-0.43349c0.00063,-0.30139 0.03739,-0.76362 0.51687,-1.22884c0.45705,-0.44346 0.03071,-1.6699 0.02048,-2.302c-0.01108,-0.68484 -0.11784,-0.52429 -0.25814,-0.85629c-0.04685,-0.11084 -0.16237,-0.25586 -0.28433,-0.47103c-0.07368,-0.13 -0.26771,-0.28561 -0.11469,-0.47475c0.05706,-0.07053 -0.30404,-0.34061 -1.21584,-0.51312c-1.84568,-0.34919 -5.85568,-0.3726 -5.63734,-0.52817c0.368,-0.26221 0.05542,-4.33947 1.15523,-4.75191c0.69007,-0.25878 0.47539,1.78871 1.62951,2.40042c1.23307,0.65355 2.11878,0.18825 3.3991,0.02071c3.32335,-0.43488 6.0276,-2.01925 6.23861,-2.54374c1.09653,-2.72559 0.05987,-6.46823 0.05987,-6.46823c0,0 2.54548,1.28902 3.3565,2.22019c0.85881,0.98604 1.6612,3.54087 1.6612,3.54087c0,0 0.09628,1.71382 -0.05252,3.28408c-0.15112,1.59474 -0.54725,3.05503 -0.53127,4.211c0.03015,2.18087 0.76963,5.9474 0.76963,5.9474c0,0 -0.40717,0.19873 -0.92169,0.29011c-0.23986,0.0426 -0.45457,0.35277 -0.75019,0.08082c-0.38188,-0.35129 -0.87979,0.34172 -1.16249,-0.32483c-0.13053,-0.30776 0.1248,-0.81191 -0.01821,-1.50842c-0.10193,-0.4964 -0.40324,-1.11902 -0.54703,-1.27044c-1.35628,-1.42823 -2.58467,-3.26895 -3.41017,-3.42343c-0.54233,-0.10149 -0.7103,3.71276 -1.40443,4.9223c-0.29124,0.50748 -0.48113,0.15133 -0.76483,0.1999c-0.51603,0.08835 -1.11832,-0.0191 -1.11832,-0.0191z" fill="#464d55" stroke="none" stroke-width="0"/><path d="M248.94026,188.45917c0,0 0.767,-0.69705 1.06036,-1.41077c0.13854,-0.33706 -0.13115,-0.69165 -0.13115,-1.00516c0,-0.24302 -0.01669,-0.4687 -0.12055,-0.82438c-0.20184,-0.69131 -0.37503,-1.40571 -0.37503,-1.40571c0,0 1.15618,-0.57742 1.72805,-0.55663c0.5637,0.0205 1.67903,0.68053 1.67903,0.68053l-0.86726,4.70797c0,0 -0.02437,0.33031 -0.4623,0.46258c-0.46683,0.14099 -1.36138,0.08228 -1.78524,0.00575c-0.5045,-0.09109 -0.72591,-0.65418 -0.72591,-0.65418z" fill="url(#color-1)" stroke="none" stroke-width="0"/><path d="M257.11725,188.45917c0,0 -0.62299,-0.87576 -1.07549,-1.46966c-0.5272,-0.69194 -2.0838,-2.43299 -2.0838,-2.43299c0,0 1.86762,-0.68142 2.7876,-0.68142c0.79674,0 2.41594,0.68142 2.41594,0.68142c0,0 -0.05808,1.32799 0.05575,2.12478c0.14635,1.02445 0.62566,3.3885 0.62566,3.3885c0,0 -0.49826,0.37956 -1.12762,0.46958c-0.60996,0.08724 -1.34682,-0.11252 -1.63966,-0.2617c-0.20481,-0.10433 -0.01349,-0.46394 0.05773,-0.83613c0.09198,-0.48068 -0.01611,-0.98237 -0.01611,-0.98237z" fill="url(#color-2)" stroke="none" stroke-width="0"/><path d="M230.1084,189.76004c0,0 1.03492,-0.35379 1.86311,-2.17736c0.3026,-0.66629 0.3629,-1.74351 0.64007,-2.76633c0.46591,-1.71936 0.38651,-4.94182 0.6139,-5.46262c0.18694,-0.42816 2.33425,-0.49633 2.33425,-0.49633c0,0 1.72029,1.20687 2.5535,2.0304c0.9316,0.92076 2.77393,3.23508 2.77393,3.23508l-1.0531,7c0,0 -1.53172,1.38722 -2.54258,-0.2306c-0.20587,-0.32948 1.26444,-1.81643 1.07582,-2.23436c-0.6825,-1.51222 -0.65206,-4.89743 -1.77609,-5.09091c-0.78453,-0.13504 -0.44995,2.27468 -1.60837,3.99167c-0.63647,0.94336 -1.43554,2.35655 -2.26028,2.82719c-0.72911,0.41607 -1.51889,-0.05337 -1.64626,-0.0797c-0.43718,-0.09037 -0.96789,-0.54614 -0.96789,-0.54614z" fill="#464d55" stroke="none" stroke-width="0"/><path d="M230.04646,189.822c0,0 1.10343,-0.79218 1.6738,-1.67569c0.45776,-0.70907 0.68018,-2.47475 0.68018,-2.47475c0,0 1.03536,-0.44707 1.4873,-0.45544c0.61316,-0.01136 1.85784,0.39349 1.85784,0.39349c0,0 -0.60217,1.80088 -1.21197,2.60708c-0.33946,0.44878 -0.82093,1.15123 -1.28983,1.62984c-0.37158,0.37927 -0.78138,0.59494 -0.78138,0.59494c0,0 -0.54613,0.06576 -1.6184,-0.0546c-0.5237,-0.05879 -0.79753,-0.56487 -0.79753,-0.56487z" fill="url(#color-3)" stroke="none" stroke-width="0"/><path d="M237.17035,190.68926c0,0 0.88488,-0.68332 1.03612,-1.91483c0.13629,-1.10978 -0.85028,-4.09402 -0.85028,-4.09402c0,0 1.17732,-0.50012 1.75319,-0.56294c0.55933,-0.06102 1.65389,0.19126 1.65389,0.19126c0,0 -0.09936,1.17241 -0.21234,1.90675c-0.08867,0.57635 -0.24915,1.84796 -0.32707,2.81269c-0.08258,1.02242 -0.32785,1.78499 -0.32785,1.78499c0,0 -0.11997,0.44061 -0.59962,0.66238c-0.28066,0.12976 -0.61254,0.19744 -0.97325,0.11933c-0.20761,-0.04496 -0.4662,-0.22106 -0.62398,-0.24923c-0.4119,-0.07355 -0.52881,-0.65638 -0.52881,-0.65638z" fill="url(#color-4)" stroke="none" stroke-width="0"/><path d="M219.89906,178.51248c0,0 -0.56216,-0.36489 -0.62382,-0.59935c-0.05836,-0.22192 0.26323,-0.77186 0.26323,-0.77186c0,0 2.71361,-0.52369 3.76581,-0.70273c0.75917,-0.12918 1.96036,-0.27163 1.96036,-0.27163c0,0 0.88727,0.0025 1.02981,0.13292c0.22647,0.20721 0.19803,0.99049 0.19803,0.99049c0,0 -2.00259,0.66945 -3.04419,0.86252c-1.14619,0.21246 -3.54924,0.35963 -3.54924,0.35963z" fill="#ffffff" stroke="none" stroke-width="0"/><path d="M227.01106,183.2648l0.30973,0.30973c0,0 0.64821,-0.2384 0.80831,-0.76141c0.1488,-0.48608 -0.18884,-1.96425 -0.18884,-1.96425c0,0 1.31024,0.28095 1.66627,0.88539c0.25576,0.43421 0.38009,1.78027 0.08597,2.43366c-0.26819,0.59577 -0.94693,0.52166 -0.94693,0.52166c0,0 -0.77008,0.23289 -1.36775,0.18362c-0.46024,-0.03794 -0.7174,-0.34406 -1.06295,-0.43167c-0.42428,-0.10757 0.69619,-1.17674 0.69619,-1.17674z" fill="#373c42" stroke="none" stroke-width="0"/></g></g></svg>