<svg version="1.1" xmlns="http://www.w3.org/2000/svg" xmlns:xlink="http://www.w3.org/1999/xlink" width="28.40319" height="16.0653" viewBox="0,0,28.40319,16.0653"><defs><linearGradient x1="240" y1="180" x2="240" y2="180" gradientUnits="userSpaceOnUse" id="color-1"><stop offset="0" stop-color="#373c42"/><stop offset="1" stop-color="#6c4a4a"/></linearGradient><linearGradient x1="240" y1="180" x2="240" y2="180" gradientUnits="userSpaceOnUse" id="color-2"><stop offset="0" stop-color="#373c42"/><stop offset="1" stop-color="#6c4a4a"/></linearGradient><linearGradient x1="240" y1="180" x2="240" y2="180" gradientUnits="userSpaceOnUse" id="color-3"><stop offset="0" stop-color="#373c42"/><stop offset="1" stop-color="#6c4a4a"/></linearGradient><linearGradient x1="240" y1="180" x2="240" y2="180" gradientUnits="userSpaceOnUse" id="color-4"><stop offset="0" stop-color="#373c42"/><stop offset="1" stop-color="#6c4a4a"/></linearGradient><linearGradient x1="243.40725" y1="172.16808" x2="243.40725" y2="176.47786" gradientUnits="userSpaceOnUse" id="color-5"><stop offset="0" stop-color="#26272b"/><stop offset="1" stop-color="#464e39"/></linearGradient><linearGradient x1="251.20032" y1="175.99484" x2="251.20032" y2="180.34241" gradientUnits="userSpaceOnUse" id="color-6"><stop offset="0" stop-color="#26272b" stop-opacity="0"/><stop offset="1" stop-color="#26272b"/></linearGradient><linearGradient x1="226.11784" y1="183.13307" x2="237.85953" y2="183.13307" gradientUnits="userSpaceOnUse" id="color-7"><stop offset="0" stop-color="#2c3822"/><stop offset="1" stop-color="#464e39"/></linearGradient></defs><g transform="translate(-225.6734,-171.88453)"><g data-paper-data="{&quot;isPaintingLayer&quot;:true}" fill-rule="nonzero" stroke-linecap="butt" stroke-linejoin="miter" stroke-miterlimit="10" stroke-dasharray="" stroke-dashoffset="0" style="mix-blend-mode: normal"><path d="M246.42494,175.47843c0,0 -0.24819,-0.79183 -1.2379,-0.78008c-0.92743,0.011 -1.99653,0.57984 -3.22221,0.71871c-1.6277,0.18441 -3.38964,-0.05835 -4.07859,-0.14335c-1.15239,-0.14218 -1.99227,-1.15811 -1.99227,-1.15811c0,0 2.09527,0.29848 3.83697,0.14379c0.63959,-0.05681 1.9156,-0.14136 3.16691,-0.43708c1.25482,-0.29656 2.48583,-0.80443 3.77286,-0.96212c1.55913,-0.19102 3.07745,-0.06782 3.82512,0.47438c1.26718,0.91895 1.13265,2.57749 1.13265,2.57749c0,0 0.26889,0.74165 0.68289,1.1134c0.62032,0.55702 1.4893,0.90062 1.64993,1.61701c0.54736,2.44124 -1.03194,2.59703 -1.03194,2.59703c0,0 -0.3786,-0.0152 -0.74394,-0.6811c-0.26219,-0.47789 -0.45747,-1.59134 -0.78038,-1.87837c-0.21238,-0.18879 -0.94632,2.34146 -2.11849,3.60571c-0.05861,0.06321 -1.24987,0.59133 -2.43317,1.12409c-0.55052,0.24786 -1.29348,0.30257 -1.56852,0.66326c-0.21478,0.28166 0.61475,0.54543 1.06175,0.96273c0.3326,0.31049 0.34281,0.78894 0.14261,0.98117c-0.86087,0.82662 -2.0268,1.16445 -2.82246,1.58862c-0.29007,0.15464 1.01956,-1.99021 0.70929,-1.85458c-0.49101,0.21464 -1.30472,-0.2585 -1.81144,-0.06461c-1.24011,0.47452 -2.284,0.49083 -3.50368,0.84502c-1.10773,0.32167 -1.83415,0.06043 -2.8548,0.30462c-5.80541,1.38897 -9.28322,1.13292 -9.45105,1.01721c-0.56754,-0.39129 0.30556,-1.1567 2.58275,-2.72426c0.39405,-0.27125 0.52968,-0.68671 1.02938,-0.99951c0.33461,-0.20946 -0.55925,-0.60643 -0.20556,-0.81795c1.48496,-0.88806 5.78564,-2.24321 7.43846,-3.12404c2.53591,-1.35145 6.02713,-2.70911 7.58618,-3.539c1.22199,-0.65048 1.23863,-1.17007 1.23863,-1.17007z" fill-opacity="0.5" fill="#000000" stroke="none" stroke-width="0"/><path d="" fill-opacity="0.5" fill="#000000" stroke="none" stroke-width="0"/><path d="" fill="#5e6669" stroke="#ffffff" stroke-width="0.5"/><path d="" fill="#464d55" stroke="none" stroke-width="0"/><path d="" fill="#464d55" stroke="none" stroke-width="0"/><path d="" fill="#464d55" stroke="none" stroke-width="0"/><path d="" fill="#464d55" stroke="none" stroke-width="0"/><path d="" fill="url(#color-1)" stroke="none" stroke-width="0"/><path d="" fill="url(#color-2)" stroke="none" stroke-width="0"/><path d="" fill="#464d55" stroke="none" stroke-width="0"/><path d="" fill="url(#color-3)" stroke="none" stroke-width="0"/><path d="" fill="url(#color-4)" stroke="none" stroke-width="0"/><path d="" fill="#ffffff" stroke="none" stroke-width="0"/><path d="" fill="#373c42" stroke="none" stroke-width="0"/><path d="M245.76123,174.75277c0,0 -0.24819,-0.79183 -1.2379,-0.78008c-0.92743,0.011 -1.99653,0.57984 -3.22221,0.71871c-1.6277,0.18441 -3.38964,-0.05835 -4.07859,-0.14335c-1.15239,-0.14218 -1.99227,-1.15811 -1.99227,-1.15811c0,0 2.09527,0.29848 3.83697,0.14379c0.63959,-0.05681 1.9156,-0.14136 3.16691,-0.43708c1.25482,-0.29656 2.48583,-0.80443 3.77286,-0.96212c1.55913,-0.19102 3.07745,-0.06782 3.82512,0.47438c1.26718,0.91895 1.13265,2.57749 1.13265,2.57749c0,0 0.26889,0.74165 0.68289,1.1134c0.62032,0.55702 1.4893,0.90062 1.64993,1.61701c0.54736,2.44124 -1.03194,2.59703 -1.03194,2.59703c0,0 -0.3786,-0.0152 -0.74394,-0.6811c-0.26219,-0.47789 -0.45747,-1.59134 -0.78038,-1.87837c-0.21238,-0.18879 -0.94632,2.34146 -2.11849,3.60571c-0.05861,0.06321 -1.24987,0.59133 -2.43317,1.12409c-0.55052,0.24786 -1.29348,0.30257 -1.56852,0.66326c-0.21478,0.28166 0.61475,0.54543 1.06175,0.96273c0.3326,0.31049 0.34281,0.78894 0.14261,0.98117c-0.86087,0.82662 -2.0268,1.16445 -2.82246,1.58862c-0.29007,0.15464 1.01956,-1.99021 0.70929,-1.85458c-0.49101,0.21464 -1.30472,-0.2585 -1.81144,-0.06461c-1.24011,0.47452 -2.284,0.49083 -3.50368,0.84502c-1.10773,0.32167 -1.83415,0.06043 -2.8548,0.30462c-5.80541,1.38897 -9.28322,1.13292 -9.45105,1.01721c-0.56754,-0.39129 0.30556,-1.1567 2.58275,-2.72426c0.39405,-0.27125 0.52968,-0.68671 1.02938,-0.99951c0.33461,-0.20946 -0.55925,-0.60643 -0.20556,-0.81795c1.48496,-0.88806 5.78564,-2.24321 7.43846,-3.12404c2.53591,-1.35145 6.02713,-2.70911 7.58618,-3.539c1.22199,-0.65048 1.23863,-1.17007 1.23863,-1.17007z" fill="#464e39" stroke="#ffffff" stroke-width="0.5"/><path d="M243.40936,186.39456c0,0 0.08026,-0.14624 0.18502,-0.37131c0.12365,-0.26568 0.29352,-0.62125 0.27247,-0.99571c-0.02677,-0.47659 -0.71252,-0.6195 -0.97296,-1.29529c-0.29548,-0.76671 -0.16806,-2.04143 -0.16806,-2.04143c0,0 2.63458,-2.56205 3.62812,-2.10943c0.83839,0.38193 1.71925,1.94776 1.71925,1.94776c0,0 -0.97372,0.52119 -1.91257,0.91875c-0.80687,0.34167 -1.60273,0.64484 -1.77267,0.88761c-0.17636,0.25194 0.27196,0.41209 0.70278,0.73635c0.43536,0.32767 0.79437,0.77825 0.79437,0.77825c0,0 -0.64278,0.68458 -1.00644,0.89904c-0.43036,0.2538 -1.03057,0.48586 -1.03057,0.48586z" fill="#343321" stroke="none" stroke-width="0"/><path d="M244.89398,173.88552c0,0 -4.98465,0.77118 -6.6316,0.714c-1.09152,-0.0379 -2.59849,-0.89984 -2.59849,-0.89984c0,0 3.94555,0.13274 5.98198,-0.1768c1.02116,-0.15522 1.66454,-0.54093 3.18243,-0.89243c1.39165,-0.32227 3.28808,-0.68243 4.38373,-0.29252c1.04261,0.37103 1.31913,1.48565 1.31913,1.48565l0.68142,2.60177c0,0 -1.92102,0.15553 -3.1628,0.03668c-0.39899,-0.03819 -0.76623,0.39727 -1.04012,0.30507c-0.20823,-0.0701 -2.26204,-0.10093 -2.4548,-0.38365c-0.09893,-0.14509 1.5993,-1.22046 1.50039,-1.34007c-0.20373,-0.24637 -0.03869,-0.56294 -0.26028,-0.75331c-0.38231,-0.32845 -0.90097,-0.40454 -0.90097,-0.40454z" fill="url(#color-5)" stroke="none" stroke-width="0"/><path d="M252.22738,180.2427c0,0 -0.14816,-0.03462 -0.29778,-0.20066c-0.09654,-0.10713 -0.1704,-0.28063 -0.28339,-0.49587c-0.2559,-0.48749 -0.3714,-1.29897 -0.64835,-1.64638c-0.31322,-0.39292 -0.54231,-0.03262 -1.05014,-0.45336c-0.34837,-0.28863 -1.07076,-1.45159 -1.07076,-1.45159c0,0 1.28865,-0.20256 1.81577,-0.06346c0.38416,0.10138 1.05602,0.82129 1.05602,0.82129c0,0 1.01438,0.6091 1.22112,1.05345c0.09805,0.21075 0.15426,0.58212 0.16322,0.92015c0.01252,0.47213 -0.02822,0.75858 -0.02822,0.75858c0,0 -0.28976,0.5456 -0.44483,0.6574c-0.12354,0.08907 -0.43266,0.10043 -0.43266,0.10043z" fill="url(#color-6)" stroke="none" stroke-width="0"/><path d="M228.54077,186.97014c0,0 -2.11349,0.17883 -2.38353,-0.14108c-0.3055,-0.36192 1.25163,-1.24495 1.71099,-1.57973c0.52067,-0.37947 1.53009,-1.13104 1.53009,-1.13104c0,0 -0.15727,-0.44782 0.59593,-0.78769c0.22139,-0.0999 -0.61666,-0.55698 -0.22871,-0.72189c1.64919,-0.70106 4.14519,-1.95908 6.53399,-2.66059c0.47475,-0.13942 1.2288,-0.62105 1.49278,-0.69639c0.58055,-0.16569 3.25274,5.68422 3.25274,5.68422c0,0 -0.706,0.34821 -1.49459,0.51075c-0.29906,0.06164 -0.68976,0.09615 -0.97857,0.10933c-0.14698,0.00671 -0.20845,-0.066 -0.33948,0.00836c-0.48697,0.27634 -1.10805,0.18142 -1.39583,0.17325c-0.08775,-0.00249 -0.10833,-0.10545 -0.13053,-0.0498c-0.01813,0.04544 -0.23496,0.05228 -0.28758,0.06662c-0.20932,0.05702 -0.66028,0.09644 -1.10374,0.14925c-0.84512,0.10065 -1.76826,0.42826 -1.76826,0.42826c0,0 -0.34336,0.10971 -1.3201,0.26091c-1.14393,0.17708 -3.6856,0.37727 -3.6856,0.37727z" fill="url(#color-7)" stroke="none" stroke-width="0"/><path d="M229.92042,186.81841l-1.50545,0.14281c0,0 1.32703,-1.06693 2.0407,-1.37843c0.69828,-0.30478 2.25809,-0.59476 2.25809,-0.59476c0,0 0.84019,-0.10562 1.05297,0.0012c0.09105,0.04571 1.01925,-0.08607 1.05958,0.03626c0.05989,0.18166 -0.79295,0.62504 -0.79295,0.62504c0,0 -0.8316,0.71709 -1.09492,0.81087c-0.73024,0.26009 -3.01803,0.35701 -3.01803,0.35701z" fill="#30351d" stroke="none" stroke-width="0"/><path d="M238.4515,185.53153c0,0 -1.11867,-0.68745 -1.41567,-1.18246c-0.32065,-0.53442 -0.44274,-1.91489 -0.44274,-1.91489c0,0 0.17384,-0.37168 0.86726,-0.37168c0.76551,0 3.0354,1.92035 3.0354,1.92035l0.49558,0.9292c0,0 -0.9708,0.38938 -1.43942,0.50368c-0.29726,0.0725 -1.1004,0.11579 -1.1004,0.11579z" fill="#30351d" stroke="none" stroke-width="0"/></g></g></svg>