<svg version="1.1" xmlns="http://www.w3.org/2000/svg" xmlns:xlink="http://www.w3.org/1999/xlink" width="17.19726" height="20.89074" viewBox="0,0,17.19726,20.89074"><defs><linearGradient x1="240" y1="180.00005" x2="240" y2="180.00005" gradientUnits="userSpaceOnUse" id="color-1"><stop offset="0" stop-color="#373c42"/><stop offset="1" stop-color="#6c4a4a"/></linearGradient><linearGradient x1="240" y1="180.00005" x2="240" y2="180.00005" gradientUnits="userSpaceOnUse" id="color-2"><stop offset="0" stop-color="#373c42"/><stop offset="1" stop-color="#6c4a4a"/></linearGradient><linearGradient x1="240" y1="180.00005" x2="240" y2="180.00005" gradientUnits="userSpaceOnUse" id="color-3"><stop offset="0" stop-color="#373c42"/><stop offset="1" stop-color="#6c4a4a"/></linearGradient><linearGradient x1="240" y1="180.00005" x2="240" y2="180.00005" gradientUnits="userSpaceOnUse" id="color-4"><stop offset="0" stop-color="#373c42"/><stop offset="1" stop-color="#6c4a4a"/></linearGradient><linearGradient x1="240" y1="180.00005" x2="240" y2="180.00005" gradientUnits="userSpaceOnUse" id="color-5"><stop offset="0" stop-color="#26272b"/><stop offset="1" stop-color="#464e39"/></linearGradient><linearGradient x1="240" y1="180.00005" x2="240" y2="180.00005" gradientUnits="userSpaceOnUse" id="color-6"><stop offset="0" stop-color="#26272b" stop-opacity="0"/><stop offset="1" stop-color="#26272b"/></linearGradient><linearGradient x1="240" y1="180.00005" x2="240" y2="180.00005" gradientUnits="userSpaceOnUse" id="color-7"><stop offset="0" stop-color="#2c3822"/><stop offset="1" stop-color="#464e39"/></linearGradient><linearGradient x1="242.63887" y1="181.64516" x2="242.63887" y2="188.49617" gradientUnits="userSpaceOnUse" id="color-8"><stop offset="0" stop-color="#483225" stop-opacity="0"/><stop offset="1" stop-color="#483225"/></linearGradient><linearGradient x1="232.61051" y1="182.68769" x2="232.61051" y2="188.24795" gradientUnits="userSpaceOnUse" id="color-9"><stop offset="0" stop-color="#483225" stop-opacity="0"/><stop offset="1" stop-color="#483225"/></linearGradient><linearGradient x1="236.06086" y1="183.1345" x2="236.06086" y2="189.63801" gradientUnits="userSpaceOnUse" id="color-10"><stop offset="0" stop-color="#483225" stop-opacity="0"/><stop offset="1" stop-color="#483225"/></linearGradient></defs><g transform="translate(-231.40131,-169.43062)"><g data-paper-data="{&quot;isPaintingLayer&quot;:true}" fill-rule="nonzero" stroke-linecap="butt" stroke-linejoin="miter" stroke-miterlimit="10" stroke-dasharray="" stroke-dashoffset="0" style="mix-blend-mode: normal"><path d="M235.12823,183.46786c0,0 -0.18999,4.80368 -0.79728,4.77049c-0.19087,-0.01044 -1.96582,0.88771 -2.1438,0.41589c-0.274,-0.72639 1.51244,-0.10492 1.66475,-1.57618c0.17092,-1.65105 -1.27833,-5.40968 -1.42222,-6.31418c-0.51889,-3.26167 -0.52381,-7.14626 -0.25079,-8.59085c0.20689,-1.09467 2.3536,-2.01013 2.3536,-2.01013c0,0 1.49449,-0.05417 2.05316,0.4032c0.57237,0.46859 1.72413,2.04677 2.97155,3.30767c1.92573,1.94654 4.01075,3.68629 4.01075,3.68629c0,0 0.34392,-0.67745 1.03806,-0.99282c0.46714,-0.21224 1.33734,-0.20618 1.44657,0.07589c0.03993,0.10312 0.55011,0.04623 0.69524,0.14579c0.35758,0.24531 0.51288,0.6851 0.64697,1.29921c0.32533,1.48989 0.05563,2.88652 0.21221,3.61705c0.09268,0.43241 0.23277,0.58191 0.37611,0.72249c0.26897,0.26379 0.54937,0.24587 0.54937,0.24587c0,0 -0.70824,0.78352 -1.12889,-0.1826c-0.65533,-1.5051 -0.4844,-5.03925 -0.90981,-4.89051c-0.192,0.06714 -0.94643,0.15701 -1.25682,0.35525c-0.07291,0.04657 0.01524,3.3152 -0.56851,5.86161c-0.64516,2.81428 -1.96811,4.9333 -2.06009,4.9991c-0.23898,0.17094 -0.86857,0.56424 -0.90854,-0.47828c-0.07442,-1.94171 0.54828,-6.04505 0.05257,-5.98499c-0.32325,0.03916 -1.50811,0.03484 -1.85905,0.17312c-0.70656,0.2784 -3.14162,6.8943 -3.79268,7.43093c-0.64494,0.53159 -1.63681,0.50531 -1.58435,-0.23861c0.02455,-0.34824 0.87556,-0.30829 1.15533,-0.8656c0.31489,-0.62727 0.06509,-1.86546 0.14804,-2.47012c0.08608,-0.62749 0.03248,-1.21943 -0.15122,-1.77123c-0.20188,-0.60641 -0.54024,-1.14373 -0.54024,-1.14373z" fill-opacity="0.5" fill="#000000" stroke="none" stroke-width="0"/><path d="" fill-opacity="0.5" fill="#000000" stroke="none" stroke-width="0"/><path d="" fill-opacity="0.5" fill="#000000" stroke="none" stroke-width="0"/><path d="" fill="#5e6669" stroke="#ffffff" stroke-width="0.5"/><path d="" fill="#464d55" stroke="none" stroke-width="0"/><path d="" fill="#464d55" stroke="none" stroke-width="0"/><path d="" fill="#464d55" stroke="none" stroke-width="0"/><path d="" fill="#464d55" stroke="none" stroke-width="0"/><path d="" fill="url(#color-1)" stroke="none" stroke-width="0"/><path d="" fill="url(#color-2)" stroke="none" stroke-width="0"/><path d="" fill="#464d55" stroke="none" stroke-width="0"/><path d="" fill="url(#color-3)" stroke="none" stroke-width="0"/><path d="" fill="url(#color-4)" stroke="none" stroke-width="0"/><path d="" fill="#ffffff" stroke="none" stroke-width="0"/><path d="" fill="#373c42" stroke="none" stroke-width="0"/><path d="" fill="#464e39" stroke="#ffffff" stroke-width="0.5"/><path d="" fill="#343321" stroke="none" stroke-width="0"/><path d="" fill="url(#color-5)" stroke="none" stroke-width="0"/><path d="" fill="url(#color-6)" stroke="none" stroke-width="0"/><path d="" fill="url(#color-7)" stroke="none" stroke-width="0"/><path d="" fill="#30351d" stroke="none" stroke-width="0"/><path d="" fill="#30351d" stroke="none" stroke-width="0"/><path d="M234.59632,182.98559c0,0 -0.18999,4.80368 -0.79729,4.77048c-0.19087,-0.01043 -1.96582,0.88772 -2.1438,0.41589c-0.27399,-0.72639 1.51244,-0.10492 1.66475,-1.57618c0.17092,-1.65105 -1.27833,-5.40968 -1.42222,-6.31418c-0.51889,-3.26167 -0.52381,-7.14626 -0.25079,-8.59085c0.20689,-1.09467 2.3536,-2.01013 2.3536,-2.01013c0,0 1.49449,-0.05417 2.05316,0.4032c0.57237,0.46859 1.72413,2.04677 2.97155,3.30767c1.92573,1.94654 4.01075,3.68629 4.01075,3.68629c0,0 0.34392,-0.67745 1.03806,-0.99282c0.46714,-0.21224 1.33734,-0.20618 1.44657,0.07589c0.03993,0.10311 0.55011,0.04623 0.69524,0.14579c0.35758,0.24531 0.51288,0.6851 0.64698,1.29921c0.32533,1.48989 0.05563,2.88652 0.21221,3.61705c0.09268,0.43241 0.23277,0.58191 0.37612,0.72249c0.26897,0.26379 0.54937,0.24586 0.54937,0.24586c0,0 -0.70824,0.78353 -1.1289,-0.1826c-0.65533,-1.5051 -0.4844,-5.03925 -0.90981,-4.8905c-0.192,0.06713 -0.94643,0.15701 -1.25683,0.35525c-0.07292,0.04657 0.01525,3.3152 -0.5685,5.86161c-0.64516,2.81428 -1.96811,4.9333 -2.06009,4.9991c-0.23898,0.17094 -0.86857,0.56424 -0.90853,-0.47828c-0.07442,-1.94171 0.54828,-6.04505 0.05257,-5.98499c-0.32326,0.03916 -1.5081,0.03484 -1.85905,0.17312c-0.70656,0.2784 -3.14163,6.8943 -3.79268,7.43093c-0.64494,0.53159 -1.6368,0.50531 -1.58435,-0.23862c0.02456,-0.34824 0.87556,-0.30829 1.15533,-0.8656c0.31489,-0.62727 0.06508,-1.86546 0.14803,-2.47012c0.08608,-0.62749 0.03248,-1.21943 -0.15121,-1.77123c-0.20187,-0.60641 -0.54024,-1.14373 -0.54024,-1.14373z" fill="#968780" stroke="#ffffff" stroke-width="0.5"/><path d="M231.81618,177.42525c0,0 -0.03907,-0.97181 -0.05661,-1.54184c-0.01523,-0.49499 -0.04268,-1.63546 -0.04268,-1.63546c0,0 1.44124,2.33333 2.82979,2.33333c1.4547,0 3.77305,-3.37588 3.77305,-3.37588c0,0 1.00218,0.40658 1.15618,1.00204c0.1251,0.48371 -0.41124,1.6698 -1.3483,2.48777c-1.09914,0.95945 -2.63767,1.52438 -2.63767,1.52438z" fill="#695b5a" stroke="none" stroke-width="0"/><path d="M241.54668,188.34725c0,0 -0.18745,-0.51125 -0.16949,-1.28896c0.02671,-1.15686 0.26712,-2.84313 0.3099,-3.82704c0.05798,-1.33355 -0.7858,-3.86981 -0.7858,-3.86981c0,0 1.89258,-0.51071 2.5989,-0.09416c0.53818,0.31739 0.72734,1.98068 0.72734,1.98068c0,0 -0.25299,1.8047 -0.41664,2.40475c-0.18193,0.66708 -0.52663,1.61653 -0.52663,1.61653c0,0 -0.57648,1.76588 -0.86553,2.27792c-0.29014,0.51396 -0.87205,0.80009 -0.87205,0.80009z" fill="url(#color-8)" stroke="none" stroke-width="0"/><path d="M231.86582,188.14865c0,0 0.2627,-0.10792 0.59993,-0.32038c0.14015,-0.0883 0.50276,-0.18912 0.70742,-0.40588c0.29944,-0.31714 0.43068,-0.76921 0.43314,-0.85961c0.03236,-1.18849 -0.64829,-3.67654 -0.64829,-3.67654c0,0 0.30288,-3.63902 0.5322,-3.67177c0.23395,-0.03342 0.85787,3.4732 0.85787,3.4732l-0.34752,4.61702c0,0 -0.50813,0.63322 -0.8951,0.62606c-0.48453,-0.00897 -1.23965,0.21791 -1.23965,0.21791z" fill="url(#color-9)" stroke="none" stroke-width="0"/><path d="M234.7949,189.63801c0,0 -0.51938,-0.06779 -0.5308,-0.29863c-0.00506,-0.10229 0.28911,-0.31639 0.43226,-0.43473c0.38743,-0.32028 0.81645,-0.63569 0.90681,-1.08052c0.042,-0.20676 0.00651,-0.59132 0.00167,-0.91905c-0.01153,-0.78128 -0.01721,-1.62597 -0.11134,-2.37476c-0.08018,-0.63781 -0.25179,-1.24693 -0.25179,-1.24693l3.07801,-0.14894c0,0 -0.81476,1.815 -1.41696,3.18145c-0.32189,0.73039 -0.6185,1.22624 -0.6185,1.48522c0,0.10971 -0.46374,0.9863 -0.83137,1.44971c-0.17819,0.22462 -0.36012,0.33752 -0.36012,0.33752z" fill="url(#color-10)" stroke="none" stroke-width="0"/><path d="M234.64596,175.88628c0,0 -1.0363,-1.12581 -1.37206,-1.9153c-0.25245,-0.5936 -0.46482,-2.40385 -0.46482,-2.40385c0,0 1.19149,0.69504 1.88652,0.69504c0.69504,0 2.13475,-0.49645 2.13475,-0.49645c0,0 -0.17458,1.85182 -0.44845,2.55858c-0.23223,0.59931 -1.09055,1.41305 -1.09055,1.41305z" fill="#5f5353" stroke="none" stroke-width="0"/><path d="M235.93674,174.62035c0,1.22012 0.12232,2.01064 -0.64539,2.01064c-0.35349,0 -0.87475,-0.35864 -1.12004,-0.70404c-0.28743,-0.40474 -0.0218,-0.94616 -0.0218,-1.60447c0,-1.22012 -0.71807,-2.25887 0.04965,-2.25887c0.29898,0 0.77757,-0.09515 1.06864,0.22447c0.45634,0.50108 0.66895,1.58732 0.66895,2.33227z" fill="#443a38" stroke="none" stroke-width="0"/><path d="M234.5892,182.39802l1.26433,-3.49701c0,0 0.37323,-0.2094 0.50645,-0.16638c0.1284,0.04147 0.12999,0.56896 0.12999,0.56896c0,0 -0.44302,0.99953 -0.66792,1.65819c-0.22954,0.67222 -0.59641,2.53385 -0.59641,2.53385z" fill="#725f59" stroke="none" stroke-width="0"/><path d="M237.47441,184.94223c0,0 0.27276,-3.09112 0.33635,-3.79859c0.06231,-0.69321 0.06394,-1.78652 0.06394,-1.78652c0,0 0.21592,-0.48128 0.35008,-0.46696c0.13921,0.01485 0.39506,0.35791 0.39506,0.35791l-0.06806,3.46075z" data-paper-data="{&quot;index&quot;:null}" fill="#725f59" stroke="none" stroke-width="0"/><path d="M239.26299,181.79406c0,0 -0.08316,-0.58103 0.03573,-0.78224c0.0833,-0.14097 0.60966,-0.30996 0.60966,-0.30996l1.78723,-0.04965c0,0 0.70112,0.18995 0.82194,0.61607c0.16005,0.56448 -0.24855,1.43099 -0.24335,1.71667c0.00663,0.36439 -0.52894,0.39775 -0.52894,0.39775c0,0 -0.11779,-0.54122 -0.09457,-0.99521c0.01395,-0.2727 -0.01079,-0.51392 -0.12571,-0.58747c-0.45825,-0.29328 -2.26199,-0.00597 -2.26199,-0.00597z" fill="#725f59" stroke="none" stroke-width="0"/><path d="M246.70979,180.60255c0,0 -0.18642,-3.18526 -0.62749,-3.57519c-0.14844,-0.13123 -0.78539,-0.04258 -1.0059,0.06084c-0.12883,0.06042 -0.6941,0.38323 -0.75652,0.45707c-0.09485,0.11221 0.32154,-0.02549 0.06813,0.03105c-0.11057,0.02467 0.07861,1.92479 -0.13004,2.60804c-0.23696,0.77594 -1.07053,0.39168 -1.16755,0.33666c-0.21007,-0.11913 0.09454,-3.29436 0.09454,-3.29436c0,0 0.63965,-0.75793 1.08184,-0.9539c0.79502,-0.35234 2.14511,0.30851 2.14511,0.30851c0,0 0.27304,1.14799 0.33748,1.74404c0.06778,0.62697 0.05968,1.92972 0.05968,1.92972z" fill="#7c6a66" stroke="none" stroke-width="0"/></g></g></svg>