<svg version="1.1" xmlns="http://www.w3.org/2000/svg" xmlns:xlink="http://www.w3.org/1999/xlink" width="22.9347" height="17.34221" viewBox="0,0,22.9347,17.34221"><defs><linearGradient x1="240.00001" y1="180.00003" x2="240.00001" y2="180.00003" gradientUnits="userSpaceOnUse" id="color-1"><stop offset="0" stop-color="#373c42"/><stop offset="1" stop-color="#6c4a4a"/></linearGradient><linearGradient x1="240.00001" y1="180.00003" x2="240.00001" y2="180.00003" gradientUnits="userSpaceOnUse" id="color-2"><stop offset="0" stop-color="#373c42"/><stop offset="1" stop-color="#6c4a4a"/></linearGradient><linearGradient x1="240.00001" y1="180.00003" x2="240.00001" y2="180.00003" gradientUnits="userSpaceOnUse" id="color-3"><stop offset="0" stop-color="#373c42"/><stop offset="1" stop-color="#6c4a4a"/></linearGradient><linearGradient x1="240.00001" y1="180.00003" x2="240.00001" y2="180.00003" gradientUnits="userSpaceOnUse" id="color-4"><stop offset="0" stop-color="#373c42"/><stop offset="1" stop-color="#6c4a4a"/></linearGradient><linearGradient x1="240.00001" y1="180.00003" x2="240.00001" y2="180.00003" gradientUnits="userSpaceOnUse" id="color-5"><stop offset="0" stop-color="#26272b"/><stop offset="1" stop-color="#464e39"/></linearGradient><linearGradient x1="240.00001" y1="180.00003" x2="240.00001" y2="180.00003" gradientUnits="userSpaceOnUse" id="color-6"><stop offset="0" stop-color="#26272b" stop-opacity="0"/><stop offset="1" stop-color="#26272b"/></linearGradient><linearGradient x1="240.00001" y1="180.00003" x2="240.00001" y2="180.00003" gradientUnits="userSpaceOnUse" id="color-7"><stop offset="0" stop-color="#2c3822"/><stop offset="1" stop-color="#464e39"/></linearGradient><linearGradient x1="240.00001" y1="180.00003" x2="240.00001" y2="180.00003" gradientUnits="userSpaceOnUse" id="color-8"><stop offset="0" stop-color="#483225" stop-opacity="0"/><stop offset="1" stop-color="#483225"/></linearGradient><linearGradient x1="240.00001" y1="180.00003" x2="240.00001" y2="180.00003" gradientUnits="userSpaceOnUse" id="color-9"><stop offset="0" stop-color="#483225" stop-opacity="0"/><stop offset="1" stop-color="#483225"/></linearGradient><linearGradient x1="240.00001" y1="180.00003" x2="240.00001" y2="180.00003" gradientUnits="userSpaceOnUse" id="color-10"><stop offset="0" stop-color="#483225" stop-opacity="0"/><stop offset="1" stop-color="#483225"/></linearGradient><linearGradient x1="234.55739" y1="177.03985" x2="240.15235" y2="177.03985" gradientUnits="userSpaceOnUse" id="color-11"><stop offset="0" stop-color="#4d322b"/><stop offset="1" stop-color="#4d322b" stop-opacity="0"/></linearGradient><linearGradient x1="240.95705" y1="178.40231" x2="240.95705" y2="182.61797" gradientUnits="userSpaceOnUse" id="color-12"><stop offset="0" stop-color="#2d1f12" stop-opacity="0"/><stop offset="1" stop-color="#2d1f12"/></linearGradient></defs><g transform="translate(-228.44663,-171.22957)"><g data-paper-data="{&quot;isPaintingLayer&quot;:true}" fill-rule="nonzero" stroke-linecap="butt" stroke-linejoin="miter" stroke-miterlimit="10" stroke-dasharray="" stroke-dashoffset="0" style="mix-blend-mode: normal"><path d="M230.80484,188.5434c0,0 -1.26941,-0.15088 -1.63345,-1.60232c-0.18676,-0.74464 0.01109,-2.38026 0.43641,-3.37165c0.23881,-0.55665 1.06987,-1.08092 1.4099,-1.6585c0.25464,-0.43255 1.31784,-1.24115 2.23841,-1.61205c0.73915,-0.29781 1.36872,-0.15469 1.54699,-0.50557c0.41201,-0.81094 0.26257,-1.55009 0.3504,-2.41206c0.10555,-1.03584 0.76899,-2.40908 1.05183,-2.87462c0.84057,-1.38352 3.08887,-2.59444 3.08887,-2.59444c0,0 2.90689,-0.22707 3.955,0.27387c1.18552,0.5666 2.79677,2.95309 2.79677,2.95309c0,0 1.62428,-0.20715 2.74812,0.30916c1.09328,0.50227 1.68366,1.72381 1.91279,2.04225c0.50786,0.70584 1.03139,2.25253 0.34761,2.66795c-0.3418,0.20765 -0.58634,0.87576 -1.21605,0.5257c-0.03222,-0.01791 -2.05534,1.28898 -3.69918,1.8752c-1.03602,0.36946 -1.95131,0.12347 -2.0284,0.11561c-0.57673,-0.05885 -0.52755,-0.01934 -1.32908,-0.36594c-1.11457,-0.48196 -1.79572,1.39762 -2.87523,1.01568c-1.83596,-0.64957 -3.53177,-0.95948 -4.78319,-1.0246c-0.32968,-0.01716 -0.7464,1.96366 -1.15713,3.287c-0.32939,1.06126 -1.78799,2.55971 -2.11772,2.75954c-0.55316,0.33523 -1.04368,0.19672 -1.04368,0.19672z" fill-opacity="0.5" fill="#000000" stroke="none" stroke-width="0"/><path d="" fill-opacity="0.5" fill="#000000" stroke="none" stroke-width="0"/><path d="" fill-opacity="0.5" fill="#000000" stroke="none" stroke-width="0"/><path d="" fill-opacity="0.5" fill="#000000" stroke="none" stroke-width="0"/><path d="" fill="#5e6669" stroke="#ffffff" stroke-width="0.5"/><path d="" fill="#464d55" stroke="none" stroke-width="0"/><path d="" fill="#464d55" stroke="none" stroke-width="0"/><path d="" fill="#464d55" stroke="none" stroke-width="0"/><path d="" fill="#464d55" stroke="none" stroke-width="0"/><path d="" fill="url(#color-1)" stroke="none" stroke-width="0"/><path d="" fill="url(#color-2)" stroke="none" stroke-width="0"/><path d="" fill="#464d55" stroke="none" stroke-width="0"/><path d="" fill="url(#color-3)" stroke="none" stroke-width="0"/><path d="" fill="url(#color-4)" stroke="none" stroke-width="0"/><path d="" fill="#ffffff" stroke="none" stroke-width="0"/><path d="" fill="#373c42" stroke="none" stroke-width="0"/><path d="" fill="#464e39" stroke="#ffffff" stroke-width="0.5"/><path d="" fill="#343321" stroke="none" stroke-width="0"/><path d="" fill="url(#color-5)" stroke="none" stroke-width="0"/><path d="" fill="url(#color-6)" stroke="none" stroke-width="0"/><path d="" fill="url(#color-7)" stroke="none" stroke-width="0"/><path d="" fill="#30351d" stroke="none" stroke-width="0"/><path d="" fill="#30351d" stroke="none" stroke-width="0"/><path d="" fill="#968780" stroke="#ffffff" stroke-width="0.5"/><path d="" fill="#695b5a" stroke="none" stroke-width="0"/><path d="" fill="url(#color-8)" stroke="none" stroke-width="0"/><path d="" fill="url(#color-9)" stroke="none" stroke-width="0"/><path d="" fill="url(#color-10)" stroke="none" stroke-width="0"/><path d="" fill="#5f5353" stroke="none" stroke-width="0"/><path d="" fill="#443a38" stroke="none" stroke-width="0"/><path d="" fill="#725f59" stroke="none" stroke-width="0"/><path d="" data-paper-data="{&quot;index&quot;:null}" fill="#725f59" stroke="none" stroke-width="0"/><path d="" fill="#725f59" stroke="none" stroke-width="0"/><path d="" fill="#7c6a66" stroke="none" stroke-width="0"/><path d="M230.32257,188.11078c0,0 -1.26941,-0.15088 -1.63345,-1.60232c-0.18676,-0.74464 0.01108,-2.38026 0.43641,-3.37165c0.23881,-0.55665 1.06987,-1.08092 1.4099,-1.6585c0.25464,-0.43254 1.31784,-1.24115 2.2384,-1.61205c0.73916,-0.29781 1.36872,-0.15468 1.54699,-0.50557c0.41202,-0.81094 0.26257,-1.55009 0.3504,-2.41206c0.10555,-1.03584 0.76899,-2.40908 1.05183,-2.87461c0.84057,-1.38352 3.08887,-2.59445 3.08887,-2.59445c0,0 2.90689,-0.22707 3.955,0.27386c1.18551,0.56661 2.79677,2.95309 2.79677,2.95309c0,0 1.62428,-0.20715 2.74812,0.30916c1.09328,0.50227 1.68366,1.7238 1.91278,2.04225c0.50786,0.70584 1.0314,2.25253 0.34761,2.66795c-0.3418,0.20765 -0.58634,0.87576 -1.21605,0.5257c-0.03222,-0.01791 -2.05533,1.28898 -3.69918,1.87519c-1.03602,0.36946 -1.95132,0.12347 -2.02841,0.11561c-0.57673,-0.05885 -0.52754,-0.01934 -1.32907,-0.36594c-1.11457,-0.48196 -1.79572,1.39762 -2.87523,1.01569c-1.83596,-0.64957 -3.53177,-0.95949 -4.78318,-1.02461c-0.32968,-0.01716 -0.7464,1.96366 -1.15712,3.287c-0.32938,1.06126 -1.78799,2.55971 -2.11772,2.75954c-0.55316,0.33524 -1.04368,0.19672 -1.04368,0.19672z" fill="#61493b" stroke="#ffffff" stroke-width="0.5"/><path d="M247.40058,181.06114c0,0 -2.56287,-2.12352 -3.03017,-3.15892c-0.31543,-0.69889 0.49826,-2.45101 0.49826,-2.45101c0,0 0.1682,-0.30803 0.56072,-0.45827c0.32654,-0.12499 0.86948,-0.09492 1.03531,-0.11096c0.43208,-0.04181 1.67167,0.07079 2.47797,0.76424c1.02029,0.87748 1.58558,2.38655 1.58558,2.38655l0.19858,1.14184c0,0 -0.57853,0.66897 -0.92959,0.86808c-0.24898,0.14122 -0.69532,0.08909 -1.13587,0.27155c-0.63642,0.26357 -1.26078,0.74689 -1.26078,0.74689z" fill="#4d322b" stroke="none" stroke-width="0"/><path d="M234.69135,181.60723c0,0 -0.14647,-0.49287 -0.1331,-1.19119c0.0227,-1.18541 0.22579,-2.96278 0.35269,-3.92606c0.13168,-0.99959 0.9719,-2.32956 0.9719,-2.32956c0,0 0.96272,-1.04254 1.47116,-1.42956c0.58855,-0.448 1.85509,-1.10235 1.85509,-1.10235c0,0 3.97163,3.7501 3.97163,5.51064c0,1.84324 -3.97163,5.31206 -3.97163,5.31206z" fill="url(#color-11)" stroke="none" stroke-width="0"/><path d="M234.88994,181.65688c0,0 -0.34752,-0.7738 -0.34752,-1.19149c0,-0.23042 -0.14748,-0.57001 -0.09165,-0.92653c0.06722,-0.42925 0.33988,-0.8607 0.33988,-0.8607c0,0 3.2646,-3.56007 5.46091,-3.55229c2.44386,0.00867 10.57455,3.75087 10.57455,3.75087c0,0 -0.36914,0.69454 -0.68694,0.96217c-0.32413,0.27295 -1.14693,0.22107 -1.54403,0.50232c-0.22715,0.16088 -0.65614,0.40862 -0.79885,0.46819c-0.41096,0.17155 -1.38862,0.74818 -1.38862,0.74818c0,0 -1.20188,0.55849 -2.23726,0.53417c-0.40612,-0.00954 -0.89583,-0.06684 -1.2495,-0.20707c-0.36413,-0.14437 -0.593,-0.37068 -1.06985,-0.302c-0.80055,0.11529 -1.3647,1.13706 -1.94701,1.13457c-0.58275,-0.00249 -1.65334,-0.45011 -2.46143,-0.63884c-0.39272,-0.09172 -0.67886,-0.11554 -1.03006,-0.17377c-0.89805,-0.14889 -1.52262,-0.24776 -1.52262,-0.24776z" fill="url(#color-12)" stroke="none" stroke-width="0"/><path d="M228.8332,186.52212c0,0 -0.10001,-2.50471 0.48029,-3.55598c0.56088,-1.01608 2.94524,-2.64969 2.94524,-2.64969l2.38298,-0.79433l0.14894,1.98582c0,0 -0.28872,0.09751 -0.57987,0.72542c-0.16585,0.35768 -0.38665,1.00797 -0.57078,1.66894c-0.24278,0.87145 -0.45849,1.76147 -0.76404,2.02391c-0.36521,0.31368 -1.02072,1.66797 -1.65264,1.95995c-1.95122,0.90156 -2.39012,-1.36403 -2.39012,-1.36403z" fill="#32251d" stroke="none" stroke-width="0"/></g></g></svg>