<svg version="1.1" xmlns="http://www.w3.org/2000/svg" xmlns:xlink="http://www.w3.org/1999/xlink" width="27.65009" height="17.48197" viewBox="0,0,27.65009,17.48197"><defs><linearGradient x1="240.00001" y1="180.00001" x2="240.00001" y2="180.00001" gradientUnits="userSpaceOnUse" id="color-1"><stop offset="0" stop-color="#373c42"/><stop offset="1" stop-color="#6c4a4a"/></linearGradient><linearGradient x1="240.00001" y1="180.00001" x2="240.00001" y2="180.00001" gradientUnits="userSpaceOnUse" id="color-2"><stop offset="0" stop-color="#373c42"/><stop offset="1" stop-color="#6c4a4a"/></linearGradient><linearGradient x1="240.00001" y1="180.00001" x2="240.00001" y2="180.00001" gradientUnits="userSpaceOnUse" id="color-3"><stop offset="0" stop-color="#373c42"/><stop offset="1" stop-color="#6c4a4a"/></linearGradient><linearGradient x1="240.00001" y1="180.00001" x2="240.00001" y2="180.00001" gradientUnits="userSpaceOnUse" id="color-4"><stop offset="0" stop-color="#373c42"/><stop offset="1" stop-color="#6c4a4a"/></linearGradient><linearGradient x1="240.00001" y1="180.00001" x2="240.00001" y2="180.00001" gradientUnits="userSpaceOnUse" id="color-5"><stop offset="0" stop-color="#26272b"/><stop offset="1" stop-color="#464e39"/></linearGradient><linearGradient x1="240.00001" y1="180.00001" x2="240.00001" y2="180.00001" gradientUnits="userSpaceOnUse" id="color-6"><stop offset="0" stop-color="#26272b" stop-opacity="0"/><stop offset="1" stop-color="#26272b"/></linearGradient><linearGradient x1="240.00001" y1="180.00001" x2="240.00001" y2="180.00001" gradientUnits="userSpaceOnUse" id="color-7"><stop offset="0" stop-color="#2c3822"/><stop offset="1" stop-color="#464e39"/></linearGradient><linearGradient x1="240.00001" y1="180.00001" x2="240.00001" y2="180.00001" gradientUnits="userSpaceOnUse" id="color-8"><stop offset="0" stop-color="#483225" stop-opacity="0"/><stop offset="1" stop-color="#483225"/></linearGradient><linearGradient x1="240.00001" y1="180.00001" x2="240.00001" y2="180.00001" gradientUnits="userSpaceOnUse" id="color-9"><stop offset="0" stop-color="#483225" stop-opacity="0"/><stop offset="1" stop-color="#483225"/></linearGradient><linearGradient x1="240.00001" y1="180.00001" x2="240.00001" y2="180.00001" gradientUnits="userSpaceOnUse" id="color-10"><stop offset="0" stop-color="#483225" stop-opacity="0"/><stop offset="1" stop-color="#483225"/></linearGradient><linearGradient x1="240.00001" y1="180.00001" x2="240.00001" y2="180.00001" gradientUnits="userSpaceOnUse" id="color-11"><stop offset="0" stop-color="#4d322b"/><stop offset="1" stop-color="#4d322b" stop-opacity="0"/></linearGradient><linearGradient x1="240.00001" y1="180.00001" x2="240.00001" y2="180.00001" gradientUnits="userSpaceOnUse" id="color-12"><stop offset="0" stop-color="#2d1f12" stop-opacity="0"/><stop offset="1" stop-color="#2d1f12"/></linearGradient><linearGradient x1="237.63252" y1="171.4953" x2="237.63252" y2="174.99168" gradientUnits="userSpaceOnUse" id="color-13"><stop offset="0" stop-color="#654a37"/><stop offset="1" stop-color="#654a37" stop-opacity="0"/></linearGradient><linearGradient x1="248.3182" y1="173.69259" x2="253.00808" y2="173.69259" gradientUnits="userSpaceOnUse" id="color-14"><stop offset="0" stop-color="#614832" stop-opacity="0"/><stop offset="1" stop-color="#614832"/></linearGradient><linearGradient x1="243.41673" y1="179.67641" x2="243.41673" y2="187.9508" gradientUnits="userSpaceOnUse" id="color-15"><stop offset="0" stop-color="#4a3516" stop-opacity="0"/><stop offset="1" stop-color="#4a3516"/></linearGradient><linearGradient x1="231.68279" y1="180.36552" x2="231.68279" y2="188.00987" gradientUnits="userSpaceOnUse" id="color-16"><stop offset="0" stop-color="#4a3516" stop-opacity="0"/><stop offset="1" stop-color="#4a3516"/></linearGradient><linearGradient x1="237.86271" y1="178.33484" x2="237.86271" y2="181.43944" gradientUnits="userSpaceOnUse" id="color-17"><stop offset="0" stop-color="#8e6c51" stop-opacity="0"/><stop offset="1" stop-color="#8e6c51"/></linearGradient></defs><g transform="translate(-226.0633,-171.13401)"><g data-paper-data="{&quot;isPaintingLayer&quot;:true}" fill-rule="nonzero" stroke-linecap="butt" stroke-linejoin="miter" stroke-miterlimit="10" stroke-dasharray="" stroke-dashoffset="0" style="mix-blend-mode: normal"><path d="M226.79564,180.89059c0,0 1.0974,-0.42779 2.29135,-0.87306c0.70571,-0.26319 1.21643,-0.96908 1.82063,-2.18426c0.30133,-0.60605 0.11612,-1.91058 1.05496,-2.26005c0.38539,-0.14346 1.10826,-0.74362 1.54982,-1.42491c0.50436,-0.77817 0.73245,-1.64705 1.2457,-1.79976c0.26522,-0.07891 0.77868,-0.14168 1.10958,0.11892c0.58213,0.45845 1.3131,1.64593 1.81106,1.53934c1.19335,-0.25543 1.3715,-1.90085 2.5814,-2.14984c0.36837,-0.07581 1.0493,-0.11402 1.57438,0.54718c0.68819,0.86657 1.05261,2.20856 1.72718,3.16948c0.45696,0.65093 0.82434,1.20351 1.15158,1.16205c1.15491,-0.14632 1.14088,-3.98488 2.121,-4.46389c0.94692,-0.46278 1.12942,-0.41366 1.97902,-0.23966c0.7187,0.14719 1.40433,0.892 2.07627,1.2327c1.48765,0.75431 2.71458,1.27115 2.71458,1.27115c0,0 0.16191,0.41345 0.09149,0.65747c-0.08066,0.27948 -0.40415,0.39861 -0.56892,0.4755c-0.54381,0.25378 -2.50129,0.2571 -2.50129,0.2571c0,0 0.31944,2.06796 -0.13015,3.48116c-0.39312,1.2357 -1.72473,1.91813 -2.17164,2.18217c-0.31042,0.1834 -1.48904,0.07797 -2.36282,-0.48165c-0.62779,-0.40207 -0.18543,-0.35792 -0.67999,-0.14516c-0.35111,0.15104 -1.57975,2.55868 -0.95086,4.44258c0.16851,0.50479 0.84056,0.74138 1.18905,1.0374c0.71506,0.60739 1.18343,0.98687 0.95922,1.09753c-0.12951,0.06391 -0.28902,0.46235 -0.77866,0.28077c-0.27761,-0.10295 -0.79608,-0.62816 -1.14057,-0.9206c-0.9099,-0.77241 -2.00859,-2.42281 -2.22633,-2.34117c-0.3577,0.13411 1.66166,3.69486 1.29377,3.83069c-0.41839,0.15447 -1.74571,0.09707 -2.19104,0.22603c-0.14176,0.04106 0.0136,-6.7701 -0.12957,-6.7313c-0.75322,0.20411 -5.35134,-0.22343 -6.13339,0.08979c-0.7784,0.31176 -1.74476,2.71642 -2.40496,3.12242c-0.26804,0.16484 2.55243,3.20738 2.30511,3.36835c-0.61802,0.40226 -2.05009,-0.18064 -2.68428,0.05776c-0.19032,0.07155 -1.04119,-1.38773 -1.03106,-2.96561c0.01179,-1.83571 1.68492,-3.7823 1.48076,-3.71525c-0.34983,0.11487 -1.28086,-0.4934 -1.60768,0.03281c-0.29932,0.48193 -0.83613,1.10523 -1.00563,1.9267c-0.23828,1.1548 1.20084,2.15865 0.79007,2.83826c-0.04324,0.07153 -0.7267,0.54791 -1.05708,-0.3092c-0.47482,-1.23184 -0.64354,-3.94843 -0.70973,-3.8529c-0.17788,0.25669 0.54094,-1.67072 0.37167,-1.58988c-0.56864,0.27156 -2.24445,0.75603 -2.62185,0.59047c-0.3374,-0.14802 -0.20213,-0.58764 -0.20213,-0.58764z" fill="#000000" stroke="none" stroke-width="0"/><path d="" fill-opacity="0.5" fill="#000000" stroke="none" stroke-width="0"/><path d="" fill-opacity="0.5" fill="#000000" stroke="none" stroke-width="0"/><path d="" fill-opacity="0.5" fill="#000000" stroke="none" stroke-width="0"/><path d="" fill-opacity="0.5" fill="#000000" stroke="none" stroke-width="0"/><path d="" fill="#5e6669" stroke="#ffffff" stroke-width="0.5"/><path d="" fill="#464d55" stroke="none" stroke-width="0"/><path d="" fill="#464d55" stroke="none" stroke-width="0"/><path d="" fill="#464d55" stroke="none" stroke-width="0"/><path d="" fill="#464d55" stroke="none" stroke-width="0"/><path d="" fill="url(#color-1)" stroke="none" stroke-width="0"/><path d="" fill="url(#color-2)" stroke="none" stroke-width="0"/><path d="" fill="#464d55" stroke="none" stroke-width="0"/><path d="" fill="url(#color-3)" stroke="none" stroke-width="0"/><path d="" fill="url(#color-4)" stroke="none" stroke-width="0"/><path d="" fill="#ffffff" stroke="none" stroke-width="0"/><path d="" fill="#373c42" stroke="none" stroke-width="0"/><path d="" fill="#464e39" stroke="#ffffff" stroke-width="0.5"/><path d="" fill="#343321" stroke="none" stroke-width="0"/><path d="" fill="url(#color-5)" stroke="none" stroke-width="0"/><path d="" fill="url(#color-6)" stroke="none" stroke-width="0"/><path d="" fill="url(#color-7)" stroke="none" stroke-width="0"/><path d="" fill="#30351d" stroke="none" stroke-width="0"/><path d="" fill="#30351d" stroke="none" stroke-width="0"/><path d="" fill="#968780" stroke="#ffffff" stroke-width="0.5"/><path d="" fill="#695b5a" stroke="none" stroke-width="0"/><path d="" fill="url(#color-8)" stroke="none" stroke-width="0"/><path d="" fill="url(#color-9)" stroke="none" stroke-width="0"/><path d="" fill="url(#color-10)" stroke="none" stroke-width="0"/><path d="" fill="#5f5353" stroke="none" stroke-width="0"/><path d="" fill="#443a38" stroke="none" stroke-width="0"/><path d="" fill="#725f59" stroke="none" stroke-width="0"/><path d="" data-paper-data="{&quot;index&quot;:null}" fill="#725f59" stroke="none" stroke-width="0"/><path d="" fill="#725f59" stroke="none" stroke-width="0"/><path d="" fill="#7c6a66" stroke="none" stroke-width="0"/><path d="" fill="#61493b" stroke="#ffffff" stroke-width="0.5"/><path d="" fill="#4d322b" stroke="none" stroke-width="0"/><path d="" fill="url(#color-11)" stroke="none" stroke-width="0"/><path d="" fill="url(#color-12)" stroke="none" stroke-width="0"/><path d="" fill="#32251d" stroke="none" stroke-width="0"/><path d="M226.31337,180.40832c0,0 1.0974,-0.37814 2.29135,-0.82341c0.70571,-0.26319 1.21643,-0.96908 1.82063,-2.18426c0.30133,-0.60605 0.11612,-1.91058 1.05496,-2.26005c0.38539,-0.14346 1.10826,-0.74362 1.54982,-1.42491c0.50436,-0.77817 0.73245,-1.64705 1.2457,-1.79976c0.26521,-0.07891 0.77868,-0.14168 1.10958,0.11892c0.58213,0.45845 1.3131,1.64593 1.81105,1.53934c1.19335,-0.25543 1.3715,-1.90085 2.5814,-2.14984c0.36837,-0.07581 1.0493,-0.11402 1.57438,0.54718c0.68819,0.86657 1.05261,2.20856 1.72718,3.16948c0.45696,0.65093 0.82434,1.20351 1.15158,1.16205c1.15491,-0.14632 1.14088,-3.98488 2.121,-4.46389c0.94692,-0.46278 1.12943,-0.41366 1.97902,-0.23967c0.7187,0.14719 1.40432,0.892 2.07627,1.2327c1.48765,0.75431 2.71458,1.27115 2.71458,1.27115c0,0 0.1619,0.41345 0.09149,0.65747c-0.08065,0.27948 -0.40415,0.39861 -0.56891,0.4755c-0.54381,0.25378 -2.5013,0.2571 -2.5013,0.2571c0,0 0.31944,2.06796 -0.13015,3.48116c-0.39312,1.2357 -1.72473,1.91814 -2.17164,2.18217c-0.31042,0.1834 -1.48904,0.07796 -2.36282,-0.48165c-0.62779,-0.40207 -0.18543,-0.35792 -0.67999,-0.14516c-0.35111,0.15104 -1.57975,2.55868 -0.95086,4.44258c0.16851,0.50479 0.84056,0.74138 1.18905,1.0374c0.71505,0.6074 1.18343,0.98687 0.95922,1.09753c-0.12951,0.06391 -0.28903,0.46236 -0.77866,0.28077c-0.27761,-0.10295 -0.79608,-0.62816 -1.14057,-0.9206c-0.9099,-0.77241 -2.00859,-2.42281 -2.22633,-2.34117c-0.3577,0.13411 1.66166,3.69486 1.29377,3.83069c-0.41839,0.15447 -1.74571,0.09707 -2.19104,0.22603c-0.14176,0.04106 0.0136,-6.7701 -0.12957,-6.7313c-0.75322,0.20411 -5.35134,-0.22343 -6.13339,0.08979c-0.7784,0.31176 -1.74476,2.71642 -2.40496,3.12242c-0.26805,0.16484 2.55242,3.20738 2.30511,3.36835c-0.61803,0.40226 -2.05009,-0.18064 -2.68427,0.05776c-0.19033,0.07155 -1.04119,-1.38773 -1.03106,-2.96561c0.01179,-1.83571 1.68492,-3.7823 1.48076,-3.71525c-0.34982,0.11487 -1.28086,-0.4934 -1.60768,0.03281c-0.29932,0.48193 -0.83613,1.10523 -1.00563,1.9267c-0.23828,1.1548 1.20084,2.15865 0.79007,2.83826c-0.04324,0.07154 -0.7267,0.5479 -1.05708,-0.3092c-0.47483,-1.23184 -0.64354,-3.94842 -0.70973,-3.8529c-0.17788,0.2567 0.54094,-1.67072 0.37167,-1.58988c-0.56863,0.27156 -2.24445,0.75603 -2.62184,0.59047c-0.3374,-0.14801 -0.20214,-0.58764 -0.20214,-0.58764z" fill="#b7956f" stroke="#ffffff" stroke-width="0.5"/><path d="M232.71762,174.55015c0,0 1.09954,-1.37713 1.21822,-1.97054c0.03421,-0.17103 0.15336,-0.4062 0.42371,-0.50141c0.29471,-0.10379 0.74105,-0.05997 0.74105,-0.05997c0,0 0.74801,1.04064 1.44242,1.58521c0.2971,0.23299 0.66551,0.29406 0.8283,0.27698c0.18143,-0.01903 0.27193,-0.1082 0.45538,-0.25047c0.14155,-0.10978 0.37862,-0.25117 0.50589,-0.41635c0.38602,-0.50103 0.71232,-1.18396 1.11891,-1.50234c0.19541,-0.15301 0.46347,-0.23087 0.76109,-0.21363c0.39035,0.02262 0.7958,0.17307 0.7958,0.17307l1.53901,3.07801c0,0 0.63548,1.78145 0.03167,2.10075c-1.17176,0.61964 -4.12697,-0.01027 -5.24334,-0.02177c-1.04959,-0.01082 -4.29342,0.30945 -5.30367,-0.35578c-0.42793,-0.28178 0.68556,-1.92178 0.68556,-1.92178z" fill="url(#color-13)" stroke="none" stroke-width="0"/><path d="M244.38429,179.01825c0,0 1.2666,0.1993 1.87967,0.14599c0.50951,-0.0443 1.54586,-0.44386 1.54586,-0.44386c0,0 0.86548,-0.64513 1.21678,-1.07812c0.36007,-0.44381 0.91798,-1.55309 0.91798,-1.55309c0,0 0.24935,0.81275 0.22073,1.29211c-0.03591,0.60145 -0.41932,2.03413 -0.41932,2.03413c0,0 -0.67439,0.9815 -1.6047,1.45596c-0.45521,0.23216 -1.1605,0.26739 -1.51221,0.15316c-0.3487,-0.11325 -1.25943,-0.36086 -1.70737,-0.80377c-0.5098,-0.50409 -0.53742,-1.20251 -0.53742,-1.20251z" fill="#614832" stroke="none" stroke-width="0"/><path d="M226.31337,180.85513l0.16431,-0.25965l2.75335,-1.0222c0,0 0.08787,0.13664 0.08787,0.3041c0,0.24737 -0.17573,0.36268 -0.17573,0.36268c0,0 -1.60573,0.70293 -2.12353,0.70293c-0.29862,0 -0.70625,-0.08787 -0.70625,-0.08787z" fill="#765834" stroke="none" stroke-width="0"/><path d="M249.87318,175.28882c0,0 0.10876,0.37683 0.0552,0.76904c-0.05389,0.3947 -0.6518,1.36146 -0.95366,1.41893c-0.12796,0.02436 0.34901,-0.32017 0.09068,0.06581c-0.42566,0.63599 -1.11493,1.27993 -1.42279,1.11583c-0.48058,-0.25618 -0.43357,-2.9751 -0.5387,-3.05568c-0.3145,-0.24105 -0.84825,-2.15655 -0.92019,-2.37438c-0.06509,-0.19707 -0.04563,-0.78228 0.3033,-1.12197c0.18256,-0.17773 0.49507,-0.29905 0.74655,-0.37375c0.6303,-0.18721 1.58523,0.36371 1.58523,0.36371c0,0 0.68596,0.45539 1.4044,0.89914c0.37482,0.23151 0.7376,0.39408 1.01279,0.48833c0.08898,0.03047 0.14257,0.10625 0.21878,0.10625c0.23157,0 0.49198,0.25129 0.70081,0.35569c0.46679,0.23336 0.73433,0.28866 0.73433,0.28866c0,0 0.23257,0.41806 0.04517,0.65135c-0.13202,0.16435 -0.69355,0.20705 -0.82639,0.27452c-0.12017,0.06104 -0.31372,0.05927 -0.53373,0.07056c-0.31189,0.016 -0.64739,0.02868 -0.64739,0.02868z" fill="url(#color-14)" stroke="none" stroke-width="0"/><path d="M241.05728,187.86344l0.08787,-6.50209c0,0 -0.86741,-2.00575 -0.71842,-2.26416c0.31803,-0.5516 1.85913,0.57602 2.15277,0.57925c0.21051,0.00231 1.52044,-0.20954 1.76606,0.2238c0.28626,0.50506 -0.50585,1.66613 -0.50585,1.66613c0,0 -0.25319,0.62178 -0.36768,1.37855c-0.10157,0.67138 -0.07527,1.46148 0.05412,1.8314c0.09891,0.28277 0.40099,0.75536 0.87645,1.09797c0.2838,0.20451 0.55634,0.23915 0.72406,0.44968c0.08978,0.11269 0.60424,0.38422 0.64465,0.57813c0.04598,0.22063 -0.24589,0.32874 -0.3194,0.32435c-0.20452,-0.01222 -1.12428,-0.80512 -1.95684,-1.68649c-0.41291,-0.43712 -0.78229,-0.98434 -1.07596,-1.29433c-0.27622,-0.29157 -0.51244,-0.42402 -0.51244,-0.42402c0,0 -0.13974,0.03837 -0.23694,0.16664c-0.06798,0.08971 -0.10019,0.26829 -0.11291,0.31752c-0.03276,0.12682 0.27851,0.8376 0.63734,1.53952c0.36371,0.71144 0.83328,1.41618 0.74372,1.85561c-0.07365,0.36138 -0.71263,0.22761 -1.03297,0.21726c-0.48819,-0.01576 -0.84761,-0.05472 -0.84761,-0.05472z" fill="url(#color-15)" stroke="none" stroke-width="0"/><path d="M229.99869,186.10611c0,0 -0.18963,-0.05669 -0.32791,-0.45756c-0.3094,-0.89692 -0.6552,-2.69548 -0.5996,-3.61298c0.01832,-0.30227 0.15098,-0.63508 0.24808,-1.00409c0.09368,-0.356 0.09365,-0.75382 0.09365,-0.75382c0,0 0.208,-0.84898 0.54572,-1.06882c0.61827,-0.40245 1.60246,-0.28037 2.05432,-0.17816c0.58664,0.13269 2.28229,0.4061 2.77401,1.0607c0.25697,0.3421 -0.45355,1.29924 -0.45355,1.29924c0,0 -0.34965,0.46625 -0.72867,1.0275c-0.32545,0.48192 -0.65715,1.0262 -0.98369,1.49346c-0.33866,0.48459 -0.61786,0.5231 -0.61629,0.87646c0.00055,0.1236 0.20673,0.2519 0.30142,0.38529c0.22037,0.31045 0.48362,0.64849 0.77729,1.0192c0.70884,0.8948 1.33781,1.81732 1.33781,1.81732c0,0 -0.84443,0.0807 -1.65831,-0.1811c-0.11672,-0.03754 -0.53188,0.23952 -0.96327,-0.09244c-0.23566,-0.18134 -0.46174,-0.93179 -0.52594,-1.19472c-0.2006,-0.82161 -0.11636,-1.85939 -0.13833,-1.91564c-0.07379,-0.18891 0.29178,-1.06379 0.72212,-1.83817c0.39794,-0.71607 0.86402,-1.33769 0.78737,-1.45276c-0.17804,-0.26729 -1.70513,-0.32604 -1.81412,-0.37295c-0.03212,-0.01382 -0.34562,0.42538 -0.66439,0.88269c-0.21414,0.3072 -0.43066,0.5583 -0.56585,0.92678c-0.21328,0.58134 -0.13109,1.28015 -0.07243,1.43153c0.19156,0.49433 0.73163,1.13315 0.82222,1.54506c0.12569,0.57155 -0.35166,0.35795 -0.35166,0.35795z" fill="url(#color-16)" stroke="none" stroke-width="0"/><path d="M234.65559,181.26371c0,0 -0.54497,0.42962 -0.53979,-0.0877c0.00449,-0.44937 0.56908,-2.84117 0.56908,-2.84117c0,0 2.02585,-1.17155 3.04603,-1.17155c1.09331,0 3.30962,1.17155 3.30962,1.17155c0,0 0.39682,2.06757 0.39148,2.60738c-0.00406,0.41023 -0.42076,0.35078 -0.42076,0.35078z" fill="url(#color-17)" stroke="none" stroke-width="0"/></g></g></svg>