<svg version="1.1" xmlns="http://www.w3.org/2000/svg" xmlns:xlink="http://www.w3.org/1999/xlink" width="39.44555" height="20.99514" viewBox="0,0,39.44555,20.99514"><defs><linearGradient x1="240" y1="180" x2="240" y2="180" gradientUnits="userSpaceOnUse" id="color-1"><stop offset="0" stop-color="#373c42"/><stop offset="1" stop-color="#6c4a4a"/></linearGradient><linearGradient x1="240" y1="180" x2="240" y2="180" gradientUnits="userSpaceOnUse" id="color-2"><stop offset="0" stop-color="#373c42"/><stop offset="1" stop-color="#6c4a4a"/></linearGradient><linearGradient x1="240" y1="180" x2="240" y2="180" gradientUnits="userSpaceOnUse" id="color-3"><stop offset="0" stop-color="#373c42"/><stop offset="1" stop-color="#6c4a4a"/></linearGradient><linearGradient x1="240" y1="180" x2="240" y2="180" gradientUnits="userSpaceOnUse" id="color-4"><stop offset="0" stop-color="#373c42"/><stop offset="1" stop-color="#6c4a4a"/></linearGradient><linearGradient x1="240" y1="180" x2="240" y2="180" gradientUnits="userSpaceOnUse" id="color-5"><stop offset="0" stop-color="#26272b"/><stop offset="1" stop-color="#464e39"/></linearGradient><linearGradient x1="240" y1="180" x2="240" y2="180" gradientUnits="userSpaceOnUse" id="color-6"><stop offset="0" stop-color="#26272b" stop-opacity="0"/><stop offset="1" stop-color="#26272b"/></linearGradient><linearGradient x1="240" y1="180" x2="240" y2="180" gradientUnits="userSpaceOnUse" id="color-7"><stop offset="0" stop-color="#2c3822"/><stop offset="1" stop-color="#464e39"/></linearGradient><linearGradient x1="240" y1="180" x2="240" y2="180" gradientUnits="userSpaceOnUse" id="color-8"><stop offset="0" stop-color="#483225" stop-opacity="0"/><stop offset="1" stop-color="#483225"/></linearGradient><linearGradient x1="240" y1="180" x2="240" y2="180" gradientUnits="userSpaceOnUse" id="color-9"><stop offset="0" stop-color="#483225" stop-opacity="0"/><stop offset="1" stop-color="#483225"/></linearGradient><linearGradient x1="240" y1="180" x2="240" y2="180" gradientUnits="userSpaceOnUse" id="color-10"><stop offset="0" stop-color="#483225" stop-opacity="0"/><stop offset="1" stop-color="#483225"/></linearGradient><linearGradient x1="240" y1="180" x2="240" y2="180" gradientUnits="userSpaceOnUse" id="color-11"><stop offset="0" stop-color="#4d322b"/><stop offset="1" stop-color="#4d322b" stop-opacity="0"/></linearGradient><linearGradient x1="240" y1="180" x2="240" y2="180" gradientUnits="userSpaceOnUse" id="color-12"><stop offset="0" stop-color="#2d1f12" stop-opacity="0"/><stop offset="1" stop-color="#2d1f12"/></linearGradient><linearGradient x1="240" y1="180" x2="240" y2="180" gradientUnits="userSpaceOnUse" id="color-13"><stop offset="0" stop-color="#654a37"/><stop offset="1" stop-color="#654a37" stop-opacity="0"/></linearGradient><linearGradient x1="240" y1="180" x2="240" y2="180" gradientUnits="userSpaceOnUse" id="color-14"><stop offset="0" stop-color="#614832" stop-opacity="0"/><stop offset="1" stop-color="#614832"/></linearGradient><linearGradient x1="240" y1="180" x2="240" y2="180" gradientUnits="userSpaceOnUse" id="color-15"><stop offset="0" stop-color="#4a3516" stop-opacity="0"/><stop offset="1" stop-color="#4a3516"/></linearGradient><linearGradient x1="240" y1="180" x2="240" y2="180" gradientUnits="userSpaceOnUse" id="color-16"><stop offset="0" stop-color="#4a3516" stop-opacity="0"/><stop offset="1" stop-color="#4a3516"/></linearGradient><linearGradient x1="240" y1="180" x2="240" y2="180" gradientUnits="userSpaceOnUse" id="color-17"><stop offset="0" stop-color="#8e6c51" stop-opacity="0"/><stop offset="1" stop-color="#8e6c51"/></linearGradient><linearGradient x1="239.70371" y1="169.62233" x2="239.70371" y2="189.82828" gradientUnits="userSpaceOnUse" id="color-18"><stop offset="0" stop-color="#e6c99f"/><stop offset="1" stop-color="#967b55"/></linearGradient></defs><g transform="translate(-220.15251,-169.38254)"><g data-paper-data="{&quot;isPaintingLayer&quot;:true}" fill-rule="nonzero" stroke-linecap="butt" stroke-linejoin="miter" stroke-miterlimit="10" stroke-dasharray="" stroke-dashoffset="0" style="mix-blend-mode: normal"><path d="M229.67781,180.59866c1.55906,-1.42233 4.41589,-2.94503 5.28564,-3.88453c0.70778,-0.76453 1.09874,-1.82833 1.50838,-2.56264c0.27733,-0.49712 0.70365,-0.84323 0.70365,-0.84323c0,0 0.10877,-0.29462 0.49768,-0.46848c0.76961,-0.34404 2.25822,-0.71916 3.5253,-0.93075c0.6793,-0.11343 3.30236,-0.17109 5.05991,0.49601c1.47433,0.5596 2.04512,1.87249 3.21505,1.72233c0.47904,-0.06149 0.39994,-0.68783 0.70375,-0.99535c0.6106,-0.61805 1.45464,-1.13025 2.29188,-1.45466c0.48329,-0.18727 1.22669,-0.18987 1.70265,-0.35328c0.46037,-0.15806 0.90722,-1.00014 1.33418,-1.14215c0.50909,-0.16933 2.63187,1.82194 3.07358,1.72849c0.4733,-0.10014 0.10725,1.22467 0.26895,1.5625c0.13952,0.29147 0.52713,0.41888 0.63521,0.63016c0.20252,0.39589 0.07458,0.76073 0.07458,0.76073c0,0 -0.65531,0.30621 -1.59979,0.48373c-0.0888,0.01669 -0.18016,0.03224 -0.27377,0.0463c-1.19076,0.17876 -2.69533,0.17397 -2.69144,0.63688c0.00648,0.77049 -1.08431,1.40646 -1.57359,2.2696c-0.42791,0.75487 -0.8361,1.70092 -1.1698,2.35267c-0.48676,0.95067 -0.81507,1.47008 -0.81507,1.47008c0,0 2.6658,2.09959 -0.17415,2.96184c-0.72155,0.21907 -1.60722,0.81824 -2.27904,1.2163c-0.29347,0.17388 -0.86757,0.16368 -1.42274,-0.18052c-0.34674,-0.21497 0.54064,-1.1958 0.33642,-1.10543c-0.25212,0.11156 -0.03992,-0.75867 -0.05521,-1.76729c-0.01702,-1.1234 -0.26425,-2.40808 -0.66843,-2.48294c-0.03226,-0.00597 -0.00464,-0.66646 -0.42973,-0.84332c-0.87941,-0.36588 -2.56258,-0.36261 -2.77532,-0.13208c-0.62811,0.68062 -0.31599,2.52822 -0.27364,3.84741c0.00423,0.13189 0.31457,0.39227 0.769,0.45766c0.87869,0.12644 2.29618,-0.0028 3.08148,0.11836c0.36858,0.05687 0.55881,0.28711 0.53864,0.3514c-0.01518,0.04838 0.30921,0.83973 -0.05158,0.89908c-1.27054,0.20898 -4.63396,-0.28475 -4.65834,-0.26611c-0.51168,0.39119 0.33573,1.35641 -0.00542,1.76173c-0.40565,0.48196 1.91483,1.82448 2.8474,2.58652c0.77571,0.63386 0.36131,0.73297 -0.1939,0.82954c-0.58236,0.10129 -3.81938,-2.96475 -4.43493,-2.99167c-0.79245,-0.03467 -1.31249,-5.47764 -2.15726,-5.52776c-1.50768,-0.08945 -2.95225,-1.92429 -4.54667,-1.83913c-1.48755,0.07945 -3.70526,1.83316 -5.53023,2.82762c-1.86176,1.0145 -3.54316,1.18233 -4.66712,1.12158c-1.24705,-0.06741 -2.69673,-0.66872 -3.29323,-1.41784c-0.12534,-0.15742 -0.40829,-0.47528 -0.39584,-0.81137c0.0134,-0.36158 0.3347,-0.73745 0.55783,-0.75643c0.72577,-0.06172 2.48741,1.0992 3.86392,1.05419c2.23531,-0.0731 4.16239,-1.34566 4.26113,-1.43574z" fill-opacity="0.5" fill="#000000" stroke="none" stroke-width="0"/><path d="" fill="#000000" stroke="none" stroke-width="0"/><path d="" fill-opacity="0.5" fill="#000000" stroke="none" stroke-width="0"/><path d="" fill-opacity="0.5" fill="#000000" stroke="none" stroke-width="0"/><path d="" fill-opacity="0.5" fill="#000000" stroke="none" stroke-width="0"/><path d="" fill-opacity="0.5" fill="#000000" stroke="none" stroke-width="0"/><path d="" fill="#5e6669" stroke="#ffffff" stroke-width="0.5"/><path d="" fill="#464d55" stroke="none" stroke-width="0"/><path d="" fill="#464d55" stroke="none" stroke-width="0"/><path d="" fill="#464d55" stroke="none" stroke-width="0"/><path d="" fill="#464d55" stroke="none" stroke-width="0"/><path d="" fill="url(#color-1)" stroke="none" stroke-width="0"/><path d="" fill="url(#color-2)" stroke="none" stroke-width="0"/><path d="" fill="#464d55" stroke="none" stroke-width="0"/><path d="" fill="url(#color-3)" stroke="none" stroke-width="0"/><path d="" fill="url(#color-4)" stroke="none" stroke-width="0"/><path d="" fill="#ffffff" stroke="none" stroke-width="0"/><path d="" fill="#373c42" stroke="none" stroke-width="0"/><path d="" fill="#464e39" stroke="#ffffff" stroke-width="0.5"/><path d="" fill="#343321" stroke="none" stroke-width="0"/><path d="" fill="url(#color-5)" stroke="none" stroke-width="0"/><path d="" fill="url(#color-6)" stroke="none" stroke-width="0"/><path d="" fill="url(#color-7)" stroke="none" stroke-width="0"/><path d="" fill="#30351d" stroke="none" stroke-width="0"/><path d="" fill="#30351d" stroke="none" stroke-width="0"/><path d="" fill="#968780" stroke="#ffffff" stroke-width="0.5"/><path d="" fill="#695b5a" stroke="none" stroke-width="0"/><path d="" fill="url(#color-8)" stroke="none" stroke-width="0"/><path d="" fill="url(#color-9)" stroke="none" stroke-width="0"/><path d="" fill="url(#color-10)" stroke="none" stroke-width="0"/><path d="" fill="#5f5353" stroke="none" stroke-width="0"/><path d="" fill="#443a38" stroke="none" stroke-width="0"/><path d="" fill="#725f59" stroke="none" stroke-width="0"/><path d="" data-paper-data="{&quot;index&quot;:null}" fill="#725f59" stroke="none" stroke-width="0"/><path d="" fill="#725f59" stroke="none" stroke-width="0"/><path d="" fill="#7c6a66" stroke="none" stroke-width="0"/><path d="" fill="#61493b" stroke="#ffffff" stroke-width="0.5"/><path d="" fill="#4d322b" stroke="none" stroke-width="0"/><path d="" fill="url(#color-11)" stroke="none" stroke-width="0"/><path d="" fill="url(#color-12)" stroke="none" stroke-width="0"/><path d="" fill="#32251d" stroke="none" stroke-width="0"/><path d="" fill="#b7956f" stroke="#ffffff" stroke-width="0.5"/><path d="" fill="url(#color-13)" stroke="none" stroke-width="0"/><path d="" fill="#614832" stroke="none" stroke-width="0"/><path d="" fill="#765834" stroke="none" stroke-width="0"/><path d="" fill="url(#color-14)" stroke="none" stroke-width="0"/><path d="" fill="url(#color-15)" stroke="none" stroke-width="0"/><path d="" fill="url(#color-16)" stroke="none" stroke-width="0"/><path d="" fill="url(#color-17)" stroke="none" stroke-width="0"/><path d="M229.08522,180.04927c1.55906,-1.42233 4.41589,-2.94503 5.28564,-3.88454c0.70778,-0.76453 1.09874,-1.82833 1.50839,-2.56264c0.27733,-0.49712 0.70365,-0.84323 0.70365,-0.84323c0,0 0.10877,-0.29462 0.49768,-0.46848c0.76961,-0.34404 2.25823,-0.71916 3.5253,-0.93075c0.6793,-0.11343 3.30236,-0.17109 5.05991,0.49601c1.47433,0.5596 2.04511,1.87249 3.21505,1.72233c0.47904,-0.06149 0.39994,-0.68782 0.70375,-0.99534c0.6106,-0.61805 1.45464,-1.13025 2.29188,-1.45466c0.48329,-0.18727 1.22669,-0.18988 1.70265,-0.35329c0.46037,-0.15806 0.90722,-1.00014 1.33418,-1.14214c0.50909,-0.16933 2.63187,1.82194 3.07358,1.72849c0.4733,-0.10014 0.10725,1.22467 0.26895,1.5625c0.13952,0.29147 0.52714,0.41888 0.63522,0.63016c0.20252,0.39589 0.07457,0.76073 0.07457,0.76073c0,0 -0.6553,0.30621 -1.59979,0.48373c-0.0888,0.01669 -0.18016,0.03224 -0.27377,0.04629c-1.19076,0.17876 -2.69533,0.17397 -2.69144,0.63688c0.00648,0.77049 -1.08431,1.40646 -1.57359,2.26959c-0.42791,0.75487 -0.8361,1.70092 -1.1698,2.35268c-0.48676,0.95067 -0.81507,1.47008 -0.81507,1.47008c0,0 2.6658,2.09958 -0.17415,2.96184c-0.72155,0.21907 -1.60722,0.81824 -2.27903,1.2163c-0.29347,0.17388 -0.86758,0.16368 -1.42275,-0.18052c-0.34674,-0.21497 0.54064,-1.1958 0.33642,-1.10543c-0.25212,0.11156 -0.03992,-0.75867 -0.05521,-1.76729c-0.01702,-1.1234 -0.26425,-2.40808 -0.66843,-2.48294c-0.03226,-0.00597 -0.00464,-0.66646 -0.42972,-0.84332c-0.87941,-0.36588 -2.56258,-0.3626 -2.77533,-0.13207c-0.62811,0.68062 -0.31599,2.52822 -0.27364,3.8474c0.00423,0.13189 0.31457,0.39228 0.769,0.45767c0.87869,0.12644 2.29618,-0.0028 3.08149,0.11836c0.36858,0.05687 0.55881,0.28711 0.53864,0.3514c-0.01518,0.04838 0.30921,0.83973 -0.05158,0.89907c-1.27054,0.20898 -4.63396,-0.28474 -4.65834,-0.26611c-0.51168,0.39119 0.33572,1.35641 -0.00542,1.76173c-0.40565,0.48196 1.91483,1.82448 2.8474,2.58652c0.77571,0.63386 0.36131,0.73296 -0.1939,0.82953c-0.58236,0.10129 -3.81938,-2.96475 -4.43493,-2.99167c-0.79245,-0.03467 -1.31249,-5.47764 -2.15726,-5.52776c-1.50768,-0.08945 -2.95225,-1.92429 -4.54667,-1.83913c-1.48755,0.07945 -3.70526,1.83316 -5.53023,2.82762c-1.86176,1.0145 -3.54315,1.18233 -4.66711,1.12158c-1.24705,-0.06741 -2.69673,-0.66872 -3.29323,-1.41784c-0.12534,-0.15742 -0.40829,-0.47528 -0.39584,-0.81137c0.0134,-0.36158 0.3347,-0.73745 0.55784,-0.75642c0.72577,-0.06172 2.48741,1.0992 3.86392,1.05419c2.23531,-0.0731 4.16239,-1.34566 4.26113,-1.43574z" fill="url(#color-18)" stroke="#ffffff" stroke-width="0.5"/><path d="M239.04586,174.53047v-0.4753h1.12345v0.4753z" fill="#000000" stroke="none" stroke-width="0"/><path d="M237.14463,176.12923v-0.51851h0.90741v0.51851z" fill="#000000" stroke="none" stroke-width="0"/><path d="M236.62611,177.90084v-0.69135h0.99383v0.69135z" fill="#000000" stroke="none" stroke-width="0"/><path d="M238.09525,177.33912v-0.51852h0.4753v0.51852z" fill="#000000" stroke="none" stroke-width="0"/><path d="M239.13228,177.2527v-1.12346h0.47531v1.12346z" fill="#000000" stroke="none" stroke-width="0"/><path d="M239.30512,177.20228v-0.50412h0.82099v0.50412z" fill="#000000" stroke="none" stroke-width="0"/><path d="M240.12611,176.77739v-0.60494h1.03704v0.60494z" fill="#000000" stroke="none" stroke-width="0"/><path d="M240.65393,177.32111v-0.61214h0.49991v0.61214z" fill="#000000" stroke="none" stroke-width="0"/><path d="M221.11376,181.57368v-0.51851h0.90741v0.51851z" fill="#000000" stroke="none" stroke-width="0"/><path d="M222.07878,182.56751v-0.99383h0.57614v0.99383z" fill="#000000" stroke="none" stroke-width="0"/><path d="M232.17549,178.93788v-0.56173h0.34568v0.56173z" fill="#000000" stroke="none" stroke-width="0"/><path d="M232.60759,178.33294v-0.4321h0.34568v0.4321z" fill="#000000" stroke="none" stroke-width="0"/><path d="M233.0829,178.85146v-0.47531h0.38889v0.47531z" fill="#000000" stroke="none" stroke-width="0"/><path d="M248.11994,179.93171v-0.56173h1.51234v0.56173z" fill="#000000" stroke="none" stroke-width="0"/><path d="M251.61994,177.85763v-0.60494h0.56173v0.60494z" fill="#000000" stroke="none" stroke-width="0"/><path d="M250.53969,176.21566v-0.56173h0.47531v0.56173z" fill="#000000" stroke="none" stroke-width="0"/><path d="M250.5829,175.22183v-0.64815h0.47531v0.64815z" fill="#000000" stroke="none" stroke-width="0"/><path d="M246.60759,174.44405v-0.38888h0.9074v0.38888z" fill="#000000" stroke="none" stroke-width="0"/><path d="M247.60142,176.17245v-0.60494h0.4321v0.60494z" fill="#000000" stroke="none" stroke-width="0"/><path d="M247.64463,175.17862v-0.64815h0.90741v0.64815z" fill="#000000" stroke="none" stroke-width="0"/><path d="M257.45327,173.92554v-1.08025h0.64814v1.08025z" fill="#000000" stroke="none" stroke-width="0"/><path d="M256.11376,172.93171v-0.56173h1.33951v0.56173z" fill="#000000" stroke="none" stroke-width="0"/><path d="M223.23105,182.9564v-0.82099h0.34568v0.82099z" fill="#000000" stroke="none" stroke-width="0"/><path d="M224.09525,183.12923v-0.38888h0.38888v0.38888z" fill="#000000" stroke="none" stroke-width="0"/><path d="M225.13228,183.12923v-0.95061h0.4321v0.95061z" fill="#000000" stroke="none" stroke-width="0"/><path d="M226.64463,182.61072v-0.4321h0.82099v0.4321z" fill="#000000" stroke="none" stroke-width="0"/><path d="M227.11994,182.13541v-0.77778h0.38889v0.77778z" fill="#000000" stroke="none" stroke-width="0"/><path d="M228.11376,182.00578v-0.38889h0.47531v0.38889z" fill="#000000" stroke="none" stroke-width="0"/><path d="M227.63846,181.44405v-0.30247h0.38888v0.30247z" fill="#000000" stroke="none" stroke-width="0"/><path d="M228.7187,181.18479v-0.60494h0.77778v0.60494z" fill="#000000" stroke="none" stroke-width="0"/><path d="M229.79895,180.10455v-0.34568h0.60494v0.34568z" fill="#000000" stroke="none" stroke-width="0"/><path d="M233.47179,177.81442v-0.60494h0.51852v0.60494z" fill="#000000" stroke="none" stroke-width="0"/><path d="M234.59525,178.07368v-0.95062h0.43209v0.95062z" fill="#000000" stroke="none" stroke-width="0"/><path d="M235.15697,176.99344v-1.29629h0.47531v1.29629z" fill="#000000" stroke="none" stroke-width="0"/><path d="M235.67549,175.35146v-0.77778h0.4321v0.77778z" fill="#000000" stroke="none" stroke-width="0"/><path d="M236.49648,175.04899v-1.03704h0.56172v1.03704z" fill="#000000" stroke="none" stroke-width="0"/><path d="M237.10142,173.36381v-0.56173h1.51234v0.56173z" fill="#000000" stroke="none" stroke-width="0"/><path d="M238.57055,172.8885v-0.73457h0.4321v0.73457z" fill="#000000" stroke="none" stroke-width="0"/><path d="M239.13228,172.36998v-0.4753h1.38272v0.4753z" fill="#000000" stroke="none" stroke-width="0"/><path d="M240.73105,172.84529v-0.4321h0.69136v0.4321z" fill="#000000" stroke="none" stroke-width="0"/><path d="M242.67549,174.05517v-0.64815h0.4321v0.64815z" fill="#000000" stroke="none" stroke-width="0"/><path d="M241.94092,175.5243v-0.51852h0.69136v0.51852z" fill="#000000" stroke="none" stroke-width="0"/><path d="M240.68784,175.13541v-0.73457h0.8642v0.73457z" fill="#000000" stroke="none" stroke-width="0"/><path d="M242.15697,175.13541v-0.73457h0.99383v0.73457z" fill="#000000" stroke="none" stroke-width="0"/><path d="M231.18167,180.01812v-1.12345h0.4753v1.12345z" fill="#000000" stroke="none" stroke-width="0"/><path d="M231.52734,180.01812v-0.56173h0.51852v0.56173z" fill="#000000" stroke="none" stroke-width="0"/><path d="M233.34216,178.89467v-0.56173h0.69136v0.56173z" fill="#000000" stroke="none" stroke-width="0"/><path d="M237.10142,179.0243v-0.64815h0.56173v0.64815z" fill="#000000" stroke="none" stroke-width="0"/><path d="M235.58907,177.81442v-0.69136h0.4321v0.69136z" fill="#000000" stroke="none" stroke-width="0"/><path d="M236.10759,176.73417v-0.47531h0.38889v0.47531z" fill="#000000" stroke="none" stroke-width="0"/><path d="M237.70636,174.87615v-1.42592h0.34568v1.42592z" fill="#000000" stroke="none" stroke-width="0"/><path d="M239.13228,175.56751v-0.47531h0.95062v0.47531z" fill="#000000" stroke="none" stroke-width="0"/><path d="M239.60759,173.36381v-0.38889h1.42593v0.38889z" fill="#000000" stroke="none" stroke-width="0"/><path d="M240.64463,174.09837v-0.4321h0.34568v0.4321z" fill="#000000" stroke="none" stroke-width="0"/><path d="M243.19401,172.71566v-0.4321h0.34568v0.4321z" fill="#000000" stroke="none" stroke-width="0"/><path d="M243.66931,172.28356v-0.38889h0.56173v0.38889z" fill="#000000" stroke="none" stroke-width="0"/><path d="M244.14463,173.40701v-0.4321h1.85802v0.4321z" fill="#000000" stroke="none" stroke-width="0"/><path d="M244.23105,172.80207v-0.4321h0.4321v0.4321z" fill="#000000" stroke="none" stroke-width="0"/><path d="M242.11376,172.36998v-0.64814h0.56173v0.64814z" fill="#000000" stroke="none" stroke-width="0"/><path d="M241.59525,173.45023v-0.51852h0.4753v0.51852z" fill="#000000" stroke="none" stroke-width="0"/><path d="M240.60142,180.01812v-0.60494h0.4321v0.60494z" fill="#000000" stroke="none" stroke-width="0"/><path d="M239.78043,179.32677v-1.29629h0.64814v1.29629z" fill="#000000" stroke="none" stroke-width="0"/><path d="M240.68784,178.46257v-0.60494h0.30247v0.60494z" fill="#000000" stroke="none" stroke-width="0"/><path d="M238.09525,179.28356v-0.30247h0.56172v0.30247z" fill="#000000" stroke="none" stroke-width="0"/><path d="M238.61376,179.93171v-0.34568h0.4321v0.34568z" fill="#000000" stroke="none" stroke-width="0"/><path d="M239.04586,178.80825v-0.82099h0.51852v0.82099z" fill="#000000" stroke="none" stroke-width="0"/><path d="M251.05821,173.40701v-0.56173h1.08025v0.56173z" fill="#000000" stroke="none" stroke-width="0"/><path d="M250.5829,172.71566v-0.51851h1.38272v0.51851z" fill="#000000" stroke="none" stroke-width="0"/><path d="M252.18167,172.15393v-0.73457h0.4321v0.73457z" fill="#000000" stroke="none" stroke-width="0"/><path d="M253.60759,171.63541v-0.4321h0.69135v0.4321z" fill="#000000" stroke="none" stroke-width="0"/><path d="M254.47179,171.28973v-0.77778h1.12346v0.77778z" fill="#000000" stroke="none" stroke-width="0"/><path d="M253.17549,175.56751v-0.90741h0.34568v0.90741z" fill="#000000" stroke="none" stroke-width="0"/><path d="M253.73722,175.39467v-0.47531h0.30247v0.47531z" fill="#000000" stroke="none" stroke-width="0"/><path d="M252.48413,174.48726v-0.30247h1.16667v0.30247z" fill="#000000" stroke="none" stroke-width="0"/><path d="M251.49031,175.13541v-0.47531h0.86419v0.47531z" fill="#000000" stroke="none" stroke-width="0"/><path d="M248.07673,178.80825v-0.51852h1.16667v0.51852z" fill="#000000" stroke="none" stroke-width="0"/><path d="M248.46562,178.24652v-0.60494h0.73456v0.60494z" fill="#000000" stroke="none" stroke-width="0"/><path d="M244.14463,177.728v-0.56172h0.56173v0.56172z" fill="#000000" stroke="none" stroke-width="0"/><path d="M244.36068,176.25887v-0.64814h0.60494v0.64814z" fill="#000000" stroke="none" stroke-width="0"/><path d="M245.52734,175.48109v-0.34568h0.64815v0.34568z" fill="#000000" stroke="none" stroke-width="0"/><path d="M246.69401,176.08603v-0.95061h0.4321v0.95061z" fill="#000000" stroke="none" stroke-width="0"/><path d="M245.57055,176.77739v-0.56173h1.03704v0.56173z" fill="#000000" stroke="none" stroke-width="0"/><path d="M249.24339,177.29591v-0.47531h0.4321v0.47531z" fill="#000000" stroke="none" stroke-width="0"/><path d="M249.54586,176.64776v-0.47531h0.47531v0.47531z" fill="#000000" stroke="none" stroke-width="0"/><path d="M248.50883,176.17245v-0.90741h0.60494v0.90741z" fill="#000000" stroke="none" stroke-width="0"/><path d="M249.07055,175.04899v-0.60494h0.95062v0.60494z" fill="#000000" stroke="none" stroke-width="0"/><path d="M250.28043,175.5243v-0.38889h0.17284v0.38889z" fill="#000000" stroke="none" stroke-width="0"/><path d="M244.66314,174.44405v-0.30247h1.46913v0.30247z" fill="#000000" stroke="none" stroke-width="0"/><path d="M244.57673,175.39467v-0.60494h0.47531v0.60494z" fill="#000000" stroke="none" stroke-width="0"/><path d="M243.75574,176.17245v-1.08024h0.38889v1.08024z" fill="#000000" stroke="none" stroke-width="0"/><path d="M243.62611,174.83294v-0.47531h0.60494v0.47531z" fill="#000000" stroke="none" stroke-width="0"/><path d="M243.5829,173.27739v-0.25926h0.25926v0.25926z" fill="#000000" stroke="none" stroke-width="0"/><path d="M241.68167,182.43788v-0.38889h0.38889v0.38889z" fill="#000000" stroke="none" stroke-width="0"/><path d="M240.47179,184.77121v-0.34567h0.60494v0.34567z" fill="#000000" stroke="none" stroke-width="0"/><path d="M241.16314,184.2527v-0.47531h0.47531v0.47531z" fill="#000000" stroke="none" stroke-width="0"/><path d="M240.73105,183.64776v-0.9074h0.25926v0.9074z" fill="#000000" stroke="none" stroke-width="0"/><path d="M240.12611,182.61072v-0.8642h0.38889v0.8642z" fill="#000000" stroke="none" stroke-width="0"/><path d="M240.64463,181.70331v-0.69136h0.90741v0.69136z" fill="#000000" stroke="none" stroke-width="0"/><path d="M241.11994,180.88233v-0.51852h0.38889v0.51852z" fill="#000000" stroke="none" stroke-width="0"/><path d="M241.16314,180.06134v-0.64815h0.82099v0.64815z" fill="#000000" stroke="none" stroke-width="0"/><path d="M242.11376,181.31442v-0.21605h0.38889v0.21605z" fill="#000000" stroke="none" stroke-width="0"/><path d="M242.15697,180.40701v-0.34568h0.47531v0.34568z" fill="#000000" stroke="none" stroke-width="0"/><path d="M242.2866,181.96257v-0.4321h0.17284v0.4321z" fill="#000000" stroke="none" stroke-width="0"/><path d="M248.94092,183.69097v-0.47531h1.12346v0.47531z" fill="#000000" stroke="none" stroke-width="0"/><path d="M250.41006,183.73417v-0.51852h1.20988v0.51852z" fill="#000000" stroke="none" stroke-width="0"/><path d="M250.49648,183.12923v-0.43209h0.56172v0.43209z" fill="#000000" stroke="none" stroke-width="0"/><path d="M249.58907,182.61072v-0.38889h0.99383v0.38889z" fill="#000000" stroke="none" stroke-width="0"/><path d="M247.86068,182.04899v-0.99382h0.60494v0.99382z" fill="#000000" stroke="none" stroke-width="0"/><path d="M247.25574,181.05517v-0.47531h0.82099v0.47531z" fill="#000000" stroke="none" stroke-width="0"/><path d="M246.60759,179.4564v-0.47531h0.4321v0.47531z" fill="#000000" stroke="none" stroke-width="0"/><path d="M246.13228,178.80825v-0.47531h0.51852v0.47531z" fill="#000000" stroke="none" stroke-width="0"/><path d="M246.91006,178.46257v-0.60494h0.51852v0.60494z" fill="#000000" stroke="none" stroke-width="0"/><path d="M245.18167,178.07368v-0.69135h0.4321v0.69135z" fill="#000000" stroke="none" stroke-width="0"/><path d="M243.19401,177.64158v-0.30246h0.30247v0.30246z" fill="#000000" stroke="none" stroke-width="0"/><path d="M244.18784,177.16628v-0.56173h0.38889v0.56173z" fill="#000000" stroke="none" stroke-width="0"/><path d="M244.70636,176.73417v-0.34568h0.34568v0.34568z" fill="#000000" stroke="none" stroke-width="0"/><path d="M242.50265,176.64776v-0.47531h0.60494v0.47531z" fill="#000000" stroke="none" stroke-width="0"/><path d="M242.07055,177.2527v-0.34568h0.25926v0.34568z" fill="#000000" stroke="none" stroke-width="0"/><path d="M242.15697,178.50578v-0.4321h0.4321v0.4321z" fill="#000000" stroke="none" stroke-width="0"/><path d="M242.76191,177.77121v-0.43209h0.25926v0.43209z" fill="#000000" stroke="none" stroke-width="0"/><path d="M251.4471,175.99961v-0.4321h0.60494v0.4321z" fill="#000000" stroke="none" stroke-width="0"/><path d="M252.18167,176.73417v-0.4321h0.51851v0.4321z" fill="#000000" stroke="none" stroke-width="0"/><path d="M245.00883,172.4564v-0.34568h0.60494v0.34568z" fill="#000000" stroke="none" stroke-width="0"/><path d="M246.39154,173.66628v-0.56173h0.73456v0.56173z" fill="#000000" stroke="none" stroke-width="0"/><path d="M241.20636,172.0243v-0.38889h0.47531v0.38889z" fill="#000000" stroke="none" stroke-width="0"/><path d="M248.03352,183.56134v-0.51852h0.4321v0.51852z" fill="#000000" stroke="none" stroke-width="0"/><path d="M247.90389,184.64158v-0.77778h0.25926v0.77778z" fill="#000000" stroke="none" stroke-width="0"/><path d="M243.06438,184.29591v-0.4321h1.59876v0.4321z" fill="#000000" stroke="none" stroke-width="0"/><path d="M242.07055,183.99344v-0.69136h0.51852v0.69136z" fill="#000000" stroke="none" stroke-width="0"/><path d="M242.37302,182.9564v-0.69136h0.34568v0.69136z" fill="#000000" stroke="none" stroke-width="0"/><path d="M241.29278,178.11689v-0.64814h0.30247v0.64814z" fill="#000000" stroke="none" stroke-width="0"/><path d="M237.14463,175.35146v-0.25926h0.21605v0.25926z" fill="#000000" stroke="none" stroke-width="0"/><path d="M237.10142,176.8206v-0.47531h0.60494v0.47531z" fill="#000000" stroke="none" stroke-width="0"/><path d="M236.1508,175.5243v-0.47531h0.34568v0.47531z" fill="#000000" stroke="none" stroke-width="0"/><path d="M236.5829,179.4564v-0.51852h0.47531v0.51852z" fill="#000000" stroke="none" stroke-width="0"/><path d="M241.98413,184.90084v-0.60494h0.38889v0.60494z" fill="#000000" stroke="none" stroke-width="0"/><path d="M248.98413,184.29591v-0.30247h0.47531v0.30247z" fill="#000000" stroke="none" stroke-width="0"/><path d="M250.41006,184.20949v-0.21605h0.30247v0.21605z" fill="#000000" stroke="none" stroke-width="0"/><path d="M250.66932,180.70949v-1.42593h0.4321v1.42593z" fill="#000000" stroke="none" stroke-width="0"/><path d="M249.76191,179.36998v-0.4321h0.47531v0.4321z" fill="#000000" stroke="none" stroke-width="0"/><path d="M249.45944,178.28973v-0.60494h0.60494v0.60494z" fill="#000000" stroke="none" stroke-width="0"/><path d="M250.62611,177.38233v-0.56173h0.60494v0.56173z" fill="#000000" stroke="none" stroke-width="0"/><path d="M251.4471,178.89467v-0.47531h0.4321v0.47531z" fill="#000000" stroke="none" stroke-width="0"/><path d="M254.29895,173.01812v-0.73456h0.69136v0.73456z" fill="#000000" stroke="none" stroke-width="0"/><path d="M253.13228,172.97492v-0.60494h0.34568v0.60494z" fill="#000000" stroke="none" stroke-width="0"/><path d="M252.52734,173.3206v-0.4321h0.56173v0.4321z" fill="#000000" stroke="none" stroke-width="0"/><path d="M230.0582,180.92554v-0.4321h0.4321v0.4321z" fill="#000000" stroke="none" stroke-width="0"/><path d="M226.21253,182.04899v-0.30247h0.34568v0.30247z" fill="#000000" stroke="none" stroke-width="0"/><path d="M225.82364,182.78356v-0.34568h0.25925v0.34568z" fill="#000000" stroke="none" stroke-width="0"/><path d="M223.74957,182.65393v-0.64815h0.38889v0.64815z" fill="#000000" stroke="none" stroke-width="0"/><path d="M241.03352,186.19714v-0.8642h0.69136v0.8642z" fill="#000000" stroke="none" stroke-width="0"/></g></g></svg>