<svg version="1.1" xmlns="http://www.w3.org/2000/svg" xmlns:xlink="http://www.w3.org/1999/xlink" width="17.31231" height="20.66892" viewBox="0,0,17.31231,20.66892"><defs><linearGradient x1="240" y1="180" x2="240" y2="180" gradientUnits="userSpaceOnUse" id="color-1"><stop offset="0" stop-color="#373c42"/><stop offset="1" stop-color="#6c4a4a"/></linearGradient><linearGradient x1="240" y1="180" x2="240" y2="180" gradientUnits="userSpaceOnUse" id="color-2"><stop offset="0" stop-color="#373c42"/><stop offset="1" stop-color="#6c4a4a"/></linearGradient><linearGradient x1="240" y1="180" x2="240" y2="180" gradientUnits="userSpaceOnUse" id="color-3"><stop offset="0" stop-color="#373c42"/><stop offset="1" stop-color="#6c4a4a"/></linearGradient><linearGradient x1="240" y1="180" x2="240" y2="180" gradientUnits="userSpaceOnUse" id="color-4"><stop offset="0" stop-color="#373c42"/><stop offset="1" stop-color="#6c4a4a"/></linearGradient><linearGradient x1="240" y1="180" x2="240" y2="180" gradientUnits="userSpaceOnUse" id="color-5"><stop offset="0" stop-color="#26272b"/><stop offset="1" stop-color="#464e39"/></linearGradient><linearGradient x1="240" y1="180" x2="240" y2="180" gradientUnits="userSpaceOnUse" id="color-6"><stop offset="0" stop-color="#26272b" stop-opacity="0"/><stop offset="1" stop-color="#26272b"/></linearGradient><linearGradient x1="240" y1="180" x2="240" y2="180" gradientUnits="userSpaceOnUse" id="color-7"><stop offset="0" stop-color="#2c3822"/><stop offset="1" stop-color="#464e39"/></linearGradient><linearGradient x1="240" y1="180" x2="240" y2="180" gradientUnits="userSpaceOnUse" id="color-8"><stop offset="0" stop-color="#483225" stop-opacity="0"/><stop offset="1" stop-color="#483225"/></linearGradient><linearGradient x1="240" y1="180" x2="240" y2="180" gradientUnits="userSpaceOnUse" id="color-9"><stop offset="0" stop-color="#483225" stop-opacity="0"/><stop offset="1" stop-color="#483225"/></linearGradient><linearGradient x1="240" y1="180" x2="240" y2="180" gradientUnits="userSpaceOnUse" id="color-10"><stop offset="0" stop-color="#483225" stop-opacity="0"/><stop offset="1" stop-color="#483225"/></linearGradient><linearGradient x1="240" y1="180" x2="240" y2="180" gradientUnits="userSpaceOnUse" id="color-11"><stop offset="0" stop-color="#4d322b"/><stop offset="1" stop-color="#4d322b" stop-opacity="0"/></linearGradient><linearGradient x1="240" y1="180" x2="240" y2="180" gradientUnits="userSpaceOnUse" id="color-12"><stop offset="0" stop-color="#2d1f12" stop-opacity="0"/><stop offset="1" stop-color="#2d1f12"/></linearGradient><linearGradient x1="240" y1="180" x2="240" y2="180" gradientUnits="userSpaceOnUse" id="color-13"><stop offset="0" stop-color="#654a37"/><stop offset="1" stop-color="#654a37" stop-opacity="0"/></linearGradient><linearGradient x1="240" y1="180" x2="240" y2="180" gradientUnits="userSpaceOnUse" id="color-14"><stop offset="0" stop-color="#614832" stop-opacity="0"/><stop offset="1" stop-color="#614832"/></linearGradient><linearGradient x1="240" y1="180" x2="240" y2="180" gradientUnits="userSpaceOnUse" id="color-15"><stop offset="0" stop-color="#4a3516" stop-opacity="0"/><stop offset="1" stop-color="#4a3516"/></linearGradient><linearGradient x1="240" y1="180" x2="240" y2="180" gradientUnits="userSpaceOnUse" id="color-16"><stop offset="0" stop-color="#4a3516" stop-opacity="0"/><stop offset="1" stop-color="#4a3516"/></linearGradient><linearGradient x1="240" y1="180" x2="240" y2="180" gradientUnits="userSpaceOnUse" id="color-17"><stop offset="0" stop-color="#8e6c51" stop-opacity="0"/><stop offset="1" stop-color="#8e6c51"/></linearGradient><radialGradient cx="241.66989" cy="181.16609" r="6.30678" gradientUnits="userSpaceOnUse" id="color-18"><stop offset="0" stop-color="#2c1e1d"/><stop offset="1" stop-color="#2c1e1d" stop-opacity="0"/></radialGradient><linearGradient x1="232.0523" y1="186.69987" x2="243.35635" y2="186.69987" gradientUnits="userSpaceOnUse" id="color-19"><stop offset="0" stop-color="#2c1e1d"/><stop offset="1" stop-color="#2c1e1d" stop-opacity="0"/></linearGradient></defs><g transform="translate(-231.23323,-169.54108)"><g data-paper-data="{&quot;isPaintingLayer&quot;:true}" fill-rule="nonzero" stroke-linecap="butt" stroke-linejoin="miter" stroke-miterlimit="10" stroke-dasharray="" stroke-dashoffset="0" style="mix-blend-mode: normal"><path d="M235.44419,189.64244c0,0 -1.46611,0.37913 -2.55406,0.37923c-0.38953,0.00004 -0.82397,-0.25468 -0.90014,-0.30428c-0.34175,-0.2225 2.4731,-0.57529 2.55575,-0.64228c0.26793,-0.21718 0.65085,-1.50998 1.10527,-1.97061c0.82153,-0.83275 1.01705,-0.85575 1.56457,-1.4151c0.08156,-0.08332 0.53068,-0.55745 1.02217,-0.59935c0.57258,-0.04881 1.20266,0.32008 1.3761,-0.03358c0.48122,-0.98125 1.44169,-4.19241 1.72914,-4.93369c0.08363,-0.21567 -0.70702,3.06429 -1.67916,4.43238c-0.47978,0.67519 -1.13694,0.40469 -1.57016,0.55204c-0.31296,0.10645 -0.62832,0.34657 -0.64126,0.29783c-0.0863,-0.32505 2.81296,-6.52205 2.60371,-6.88399c-0.46697,-0.80773 -1.33032,-1.58273 -1.5511,-2.08928c-0.67004,-1.53728 -0.58377,-3.69909 -0.35008,-4.22986c0.5024,-1.1411 1.82979,-1.95136 1.82979,-1.95136c0,0 2.46511,-0.06856 3.22039,0.88549c0.23266,0.29388 0.88371,1.0521 1.69096,2.11126c0.56473,0.74095 1.25421,1.65332 1.72471,2.5542c0.50361,0.96427 1.13779,1.81791 1.43775,2.68364c0.49456,1.42735 0.48699,2.64379 0.48699,2.64379c0,0 -0.56366,3.93848 -1.12058,5.53443c-0.49108,1.40729 -2.04834,3.54665 -2.04834,3.54665c0,0 -1.14625,-0.37441 -2.22066,-0.45607c-0.9498,-0.07219 -1.7918,0.16707 -2.48419,-0.10086c-0.77784,-0.301 0.16116,-1.37938 -0.35734,-1.3708c-2.61263,0.04326 -4.63376,1.36017 -4.63376,1.36017z" fill="#000000" stroke="none" stroke-width="0"/><path d="M234.93743,189.18298c0,0 -1.46611,0.37913 -2.55406,0.37923c-0.38953,0.00004 -0.82397,-0.25468 -0.90014,-0.30428c-0.34175,-0.2225 2.4731,-0.57529 2.55575,-0.64228c0.26793,-0.21718 0.65085,-1.50998 1.10527,-1.97061c0.82153,-0.83275 1.01705,-0.85575 1.56457,-1.4151c0.08156,-0.08332 0.53068,-0.55745 1.02217,-0.59935c0.57258,-0.04881 1.20266,0.32008 1.3761,-0.03358c0.48122,-0.98125 1.44169,-4.19241 1.72914,-4.93369c0.08363,-0.21567 -0.70702,3.06429 -1.67916,4.43238c-0.47978,0.67519 -1.13694,0.40469 -1.57016,0.55204c-0.31296,0.10645 -0.62832,0.34657 -0.64126,0.29783c-0.0863,-0.32505 2.81296,-6.52205 2.60371,-6.88399c-0.46697,-0.80773 -1.33032,-1.58273 -1.5511,-2.08928c-0.67004,-1.53728 -0.58377,-3.69909 -0.35008,-4.22986c0.5024,-1.1411 1.82979,-1.95136 1.82979,-1.95136c0,0 2.46511,-0.06856 3.22039,0.88549c0.23266,0.29388 0.88371,1.0521 1.69096,2.11126c0.56473,0.74095 1.25421,1.65332 1.72471,2.5542c0.50361,0.96427 1.13779,1.81791 1.43775,2.68364c0.49456,1.42735 0.48699,2.64379 0.48699,2.64379c0,0 -0.56366,3.93848 -1.12058,5.53443c-0.49108,1.40729 -2.04834,3.54665 -2.04834,3.54665c0,0 -1.14625,-0.37441 -2.22066,-0.45607c-0.9498,-0.07219 -1.7918,0.16707 -2.48419,-0.10086c-0.77784,-0.301 0.16116,-1.37938 -0.35734,-1.3708c-2.61263,0.04326 -4.63376,1.36017 -4.63376,1.36017z" fill="#34353a" stroke="#ffffff" stroke-width="0.5"/><path d="" fill="#000000" stroke="none" stroke-width="0"/><path d="" fill-opacity="0.5" fill="#000000" stroke="none" stroke-width="0"/><path d="" fill-opacity="0.5" fill="#000000" stroke="none" stroke-width="0"/><path d="" fill-opacity="0.5" fill="#000000" stroke="none" stroke-width="0"/><path d="" fill-opacity="0.5" fill="#000000" stroke="none" stroke-width="0"/><path d="" fill="#5e6669" stroke="#ffffff" stroke-width="0.5"/><path d="" fill="#464d55" stroke="none" stroke-width="0"/><path d="" fill="#464d55" stroke="none" stroke-width="0"/><path d="" fill="#464d55" stroke="none" stroke-width="0"/><path d="" fill="#464d55" stroke="none" stroke-width="0"/><path d="" fill="url(#color-1)" stroke="none" stroke-width="0"/><path d="" fill="url(#color-2)" stroke="none" stroke-width="0"/><path d="" fill="#464d55" stroke="none" stroke-width="0"/><path d="" fill="url(#color-3)" stroke="none" stroke-width="0"/><path d="" fill="url(#color-4)" stroke="none" stroke-width="0"/><path d="" fill="#ffffff" stroke="none" stroke-width="0"/><path d="" fill="#373c42" stroke="none" stroke-width="0"/><path d="" fill="#464e39" stroke="#ffffff" stroke-width="0.5"/><path d="" fill="#343321" stroke="none" stroke-width="0"/><path d="" fill="url(#color-5)" stroke="none" stroke-width="0"/><path d="" fill="url(#color-6)" stroke="none" stroke-width="0"/><path d="" fill="url(#color-7)" stroke="none" stroke-width="0"/><path d="" fill="#30351d" stroke="none" stroke-width="0"/><path d="" fill="#30351d" stroke="none" stroke-width="0"/><path d="" fill="#968780" stroke="#ffffff" stroke-width="0.5"/><path d="" fill="#695b5a" stroke="none" stroke-width="0"/><path d="" fill="url(#color-8)" stroke="none" stroke-width="0"/><path d="" fill="url(#color-9)" stroke="none" stroke-width="0"/><path d="" fill="url(#color-10)" stroke="none" stroke-width="0"/><path d="" fill="#5f5353" stroke="none" stroke-width="0"/><path d="" fill="#443a38" stroke="none" stroke-width="0"/><path d="" fill="#725f59" stroke="none" stroke-width="0"/><path d="" data-paper-data="{&quot;index&quot;:null}" fill="#725f59" stroke="none" stroke-width="0"/><path d="" fill="#725f59" stroke="none" stroke-width="0"/><path d="" fill="#7c6a66" stroke="none" stroke-width="0"/><path d="" fill="#61493b" stroke="#ffffff" stroke-width="0.5"/><path d="" fill="#4d322b" stroke="none" stroke-width="0"/><path d="" fill="url(#color-11)" stroke="none" stroke-width="0"/><path d="" fill="url(#color-12)" stroke="none" stroke-width="0"/><path d="" fill="#32251d" stroke="none" stroke-width="0"/><path d="" fill="#b7956f" stroke="#ffffff" stroke-width="0.5"/><path d="" fill="url(#color-13)" stroke="none" stroke-width="0"/><path d="" fill="#614832" stroke="none" stroke-width="0"/><path d="" fill="#765834" stroke="none" stroke-width="0"/><path d="" fill="url(#color-14)" stroke="none" stroke-width="0"/><path d="" fill="url(#color-15)" stroke="none" stroke-width="0"/><path d="" fill="url(#color-16)" stroke="none" stroke-width="0"/><path d="" fill="url(#color-17)" stroke="none" stroke-width="0"/><path d="M237.39689,184.35866l2.50676,-6.29054c0,0 -1.24848,-1.43547 -1.21211,-1.94469c0.03446,-0.48246 -1.26543,-2.78504 -0.47692,-2.78504c0.48563,0 3.46482,0.96974 4.05516,1.0811c2.13363,0.40249 4.61905,2.74998 4.61905,2.74998c0,0 0.70741,1.3393 0.85384,2.619c0.1995,1.74349 -1.18492,6.88776 -1.18492,6.88776c0,0 -6.76118,1.08531 -9.10571,-0.36178c-0.12012,-0.07414 -0.57232,-0.90565 -0.12468,-1.15382c0.12288,-0.06812 0.28052,-0.24547 0.45494,-0.2645c0.27926,-0.03047 0.60154,0.12303 0.89307,0.11001c0.51013,-0.02277 0.92609,-0.1058 0.85251,-0.18089c-0.25247,-0.25766 0.0525,-0.4679 0.18301,-0.89755c0.1136,-0.37399 0.45192,-1.1378 0.62281,-1.6181c0.46314,-1.30169 0.87837,-2.81312 0.51023,-2.89013c-0.38972,-0.08152 -0.82177,1.44468 -1.20413,2.72715c-0.14229,0.47726 -0.15546,0.96151 -0.33317,1.25786c-0.8759,1.46067 -1.90975,0.95417 -1.90975,0.95417z" fill="url(#color-18)" stroke="none" stroke-width="0"/><path d="M239.33608,177.35865c0,0 -0.80136,-0.86292 -1.04052,-1.28352c-0.21559,-0.37914 -0.42569,-1.17593 -0.42569,-1.17593c0,0 0.08036,-2.43123 0.56948,-2.82382c0.31536,-0.25312 3.02883,0.14116 3.45423,0.81761c0.46242,0.73532 -0.23993,2.28999 -0.23993,2.28999l-0.42568,1.37162z" fill="#c2a78a" stroke="none" stroke-width="0"/><path d="M239.90365,173.81136l0.23649,-0.66216c0,0 0.48373,-0.0473 0.61486,-0.0473c0.19196,0 0.75676,0.09459 0.75676,0.09459l-0.18919,0.70946c0,0 -0.45919,0.11759 -0.66907,0.10359c-0.25446,-0.01696 -0.74985,-0.19819 -0.74985,-0.19819z" fill="#523726" stroke="none" stroke-width="0"/><path d="M238.09284,173.79785l0.23649,-0.66216c0,0 0.48373,-0.0473 0.61486,-0.0473c0.19197,0 0.75675,0.0946 0.75675,0.0946l-0.18919,0.70946c0,0 -0.45919,0.11758 -0.66907,0.10359c-0.25446,-0.01697 -0.74985,-0.19819 -0.74985,-0.19819z" fill="#523726" stroke="none" stroke-width="0"/><path d="M238.86311,176.41271l-0.47297,-0.66216c0,0 1.00473,-0.09459 1.27703,-0.09459c0.31929,0 1.13514,0.09459 1.13514,0.09459c0,0 0.23649,0.30449 0.23649,0.42568c0,0.09033 -0.37838,0.23649 -0.37838,0.23649c0,0 -0.6464,0.14189 -0.94595,0.14189c-0.29955,0 -0.85135,-0.14189 -0.85135,-0.14189z" fill="#523726" stroke="none" stroke-width="0"/><path d="M231.86311,189.23028c0,0 1.76886,-0.05311 2.45997,-0.66158c0.32239,-0.28385 0.41846,-0.98591 0.80181,-1.53415c0.51307,-0.73376 1.46795,-1.30427 1.46795,-1.30427c0,0 0.76054,-0.74041 1.06133,-0.82226c0.31609,-0.08601 0.58182,0.16178 1.37644,0.02388c0.50462,-0.08757 1.424,-3.62555 2.00121,-3.76851c1.35853,-0.33646 2.32453,2.675 2.32453,2.675v5.2027c0,0 -0.74225,-0.08825 -1.56318,-0.04512c-0.57158,0.03003 -1.134,0.26996 -1.55789,0.03478c-0.45472,-0.25228 0.36424,-1.48099 -0.28444,-1.49968c-0.40184,-0.01158 -1.42176,0.06089 -2.58601,0.4098c-0.92005,0.27572 -1.74105,0.90748 -2.60758,1.09463c-1.79392,0.38745 -2.89415,0.19477 -2.89415,0.19477z" fill="url(#color-19)" stroke="none" stroke-width="0"/><path d="M237.82257,174.66271c0,0 -0.33244,-2.2189 -0.14662,-2.77635c0.21871,-0.65612 1.84932,-1.95338 1.84932,-1.95338l2.36486,0.23649c0,0 0.38782,0.35157 0.81875,0.87804c0.44189,0.53986 0.934,1.26364 1.4978,1.98083c0.57665,0.73353 1.554,1.53283 1.32589,2.12576c-0.42744,1.11104 -3.10079,2.06418 -4.8455,2.37106c-0.2535,0.04459 -0.60866,0.37927 -0.78432,0.36453c-0.36982,-0.03104 -0.43103,-0.47445 -0.49177,-0.45675c-0.2342,0.06823 1.07171,-0.4023 1.80668,-1.28071c0.24412,-0.29176 0.39361,-0.9495 0.4761,-1.17353c0.2453,-0.66618 0.51058,-1.36783 0.23402,-1.91908c-0.22911,-0.45667 -0.83186,-0.62713 -1.39557,-0.77877c-1.04629,-0.28146 -2.18938,-0.26678 -2.18938,-0.26678z" fill="#1c1c20" stroke="none" stroke-width="0"/></g></g></svg>