<svg version="1.1" xmlns="http://www.w3.org/2000/svg" xmlns:xlink="http://www.w3.org/1999/xlink" width="24.26023" height="23.52679" viewBox="0,0,24.26023,23.52679"><defs><linearGradient x1="237.54819" y1="174.3433" x2="237.54819" y2="185.60957" gradientUnits="userSpaceOnUse" id="color-1"><stop offset="0" stop-color="#94b5e0"/><stop offset="1" stop-color="#839dbe"/></linearGradient><linearGradient x1="240.00001" y1="180.00001" x2="240.00001" y2="180.00001" gradientUnits="userSpaceOnUse" id="color-2"><stop offset="0" stop-color="#373c42"/><stop offset="1" stop-color="#6c4a4a"/></linearGradient><linearGradient x1="240.00001" y1="180.00001" x2="240.00001" y2="180.00001" gradientUnits="userSpaceOnUse" id="color-3"><stop offset="0" stop-color="#373c42"/><stop offset="1" stop-color="#6c4a4a"/></linearGradient><linearGradient x1="240.00001" y1="180.00001" x2="240.00001" y2="180.00001" gradientUnits="userSpaceOnUse" id="color-4"><stop offset="0" stop-color="#373c42"/><stop offset="1" stop-color="#6c4a4a"/></linearGradient><linearGradient x1="240.00001" y1="180.00001" x2="240.00001" y2="180.00001" gradientUnits="userSpaceOnUse" id="color-5"><stop offset="0" stop-color="#373c42"/><stop offset="1" stop-color="#6c4a4a"/></linearGradient><linearGradient x1="240.00001" y1="180.00001" x2="240.00001" y2="180.00001" gradientUnits="userSpaceOnUse" id="color-6"><stop offset="0" stop-color="#26272b"/><stop offset="1" stop-color="#464e39"/></linearGradient><linearGradient x1="240.00001" y1="180.00001" x2="240.00001" y2="180.00001" gradientUnits="userSpaceOnUse" id="color-7"><stop offset="0" stop-color="#26272b" stop-opacity="0"/><stop offset="1" stop-color="#26272b"/></linearGradient><linearGradient x1="240.00001" y1="180.00001" x2="240.00001" y2="180.00001" gradientUnits="userSpaceOnUse" id="color-8"><stop offset="0" stop-color="#2c3822"/><stop offset="1" stop-color="#464e39"/></linearGradient><linearGradient x1="240.00001" y1="180.00001" x2="240.00001" y2="180.00001" gradientUnits="userSpaceOnUse" id="color-9"><stop offset="0" stop-color="#483225" stop-opacity="0"/><stop offset="1" stop-color="#483225"/></linearGradient><linearGradient x1="240.00001" y1="180.00001" x2="240.00001" y2="180.00001" gradientUnits="userSpaceOnUse" id="color-10"><stop offset="0" stop-color="#483225" stop-opacity="0"/><stop offset="1" stop-color="#483225"/></linearGradient><linearGradient x1="240.00001" y1="180.00001" x2="240.00001" y2="180.00001" gradientUnits="userSpaceOnUse" id="color-11"><stop offset="0" stop-color="#483225" stop-opacity="0"/><stop offset="1" stop-color="#483225"/></linearGradient><linearGradient x1="240.00001" y1="180.00001" x2="240.00001" y2="180.00001" gradientUnits="userSpaceOnUse" id="color-12"><stop offset="0" stop-color="#4d322b"/><stop offset="1" stop-color="#4d322b" stop-opacity="0"/></linearGradient><linearGradient x1="240.00001" y1="180.00001" x2="240.00001" y2="180.00001" gradientUnits="userSpaceOnUse" id="color-13"><stop offset="0" stop-color="#2d1f12" stop-opacity="0"/><stop offset="1" stop-color="#2d1f12"/></linearGradient><linearGradient x1="240.00001" y1="180.00001" x2="240.00001" y2="180.00001" gradientUnits="userSpaceOnUse" id="color-14"><stop offset="0" stop-color="#654a37"/><stop offset="1" stop-color="#654a37" stop-opacity="0"/></linearGradient><linearGradient x1="240.00001" y1="180.00001" x2="240.00001" y2="180.00001" gradientUnits="userSpaceOnUse" id="color-15"><stop offset="0" stop-color="#614832" stop-opacity="0"/><stop offset="1" stop-color="#614832"/></linearGradient><linearGradient x1="240.00001" y1="180.00001" x2="240.00001" y2="180.00001" gradientUnits="userSpaceOnUse" id="color-16"><stop offset="0" stop-color="#4a3516" stop-opacity="0"/><stop offset="1" stop-color="#4a3516"/></linearGradient><linearGradient x1="240.00001" y1="180.00001" x2="240.00001" y2="180.00001" gradientUnits="userSpaceOnUse" id="color-17"><stop offset="0" stop-color="#4a3516" stop-opacity="0"/><stop offset="1" stop-color="#4a3516"/></linearGradient><linearGradient x1="240.00001" y1="180.00001" x2="240.00001" y2="180.00001" gradientUnits="userSpaceOnUse" id="color-18"><stop offset="0" stop-color="#8e6c51" stop-opacity="0"/><stop offset="1" stop-color="#8e6c51"/></linearGradient><linearGradient x1="243.9476" y1="167.92318" x2="243.9476" y2="182.58591" gradientUnits="userSpaceOnUse" id="color-19"><stop offset="0" stop-color="#798696" stop-opacity="0"/><stop offset="1" stop-color="#798696"/></linearGradient></defs><g transform="translate(-227.46969,-168.11098)"><g data-paper-data="{&quot;isPaintingLayer&quot;:true}" fill-rule="nonzero" stroke-linecap="butt" stroke-linejoin="miter" stroke-miterlimit="10" stroke-dasharray="" stroke-dashoffset="0" style="mix-blend-mode: normal"><path d="M231.25233,185.60957c0,0 -0.48325,-0.47059 -0.59928,-0.7797c-0.61262,-1.63204 -2.24498,-5.97536 -2.22942,-7.09029c0.00609,-0.43625 -0.15355,-1.03533 -0.15355,-1.03533c0,0 0.39047,-0.73825 1.05203,-0.82186c0.79616,-0.10062 2.84865,-0.40435 5.24037,-0.96205c1.49807,-0.34932 3.07888,-0.99963 4.72346,-1.13787c3.84524,-0.32323 7.6646,0.56083 7.6646,0.56083l1.32544,6.33728c0,0 -3.62825,2.53813 -6.37563,3.24272c-3.9809,1.02094 -9.02771,1.86538 -10.0742,1.90702c-0.38262,0.01522 -0.57383,-0.22075 -0.57383,-0.22075z" fill="url(#color-1)" stroke="#516a91" stroke-width="1.5"/><path d="M245.75532,177.98127c0,0 -1.70776,-1.02217 -2.02419,-0.79258c-0.44687,0.32423 -0.67606,1.99212 -1.41682,1.25859c-0.22598,-0.22377 0.33533,-3.60361 0.04691,-3.83598c-1.06784,-0.86034 -5.04353,-1.27322 -4.77051,-2.50179c0.10662,-0.47978 0.86049,-0.70398 1.56397,-1.28132c0.45946,-0.37707 0.76362,-1.17238 1.3148,-1.36214c1.05551,-0.36339 1.9025,-0.70145 1.9025,-0.70145c0,0 1.36823,0.03579 3.79691,1.09634c0.47079,0.20558 1.24863,1.2999 2.02115,1.90964c0.47425,0.37432 1.0192,0.34791 1.27525,0.465c0.7971,0.36451 1.71257,0.0559 2.1514,0.46031c0.42948,0.3958 -0.49748,0.74303 -0.54921,1.1442c-0.33779,2.61978 -0.35106,5.65859 -0.59805,7.3326c-0.40834,2.76765 -1.27244,5.20857 -1.27244,5.20857c0,0 1.63855,5.86059 0.88574,5.2054c-0.80149,-0.69756 -1.40047,-2.04805 -2.38419,-2.96492c-1.10503,-1.02993 -3.6273,-0.01105 -4.06236,-0.86055c-0.20007,-0.39065 3.06757,-1.3479 4.21378,-1.6354c0.25848,-0.06483 0.09053,-1.47865 0.03944,-2.55171c-0.0614,-1.28986 -0.10291,-2.39855 -0.33278,-2.94008c-0.49913,-1.17584 -1.8013,-2.65275 -1.8013,-2.65275z" fill-opacity="0.5" fill="#000000" stroke="none" stroke-width="0"/><path d="" fill="#000000" stroke="none" stroke-width="0"/><path d="" fill-opacity="0.5" fill="#000000" stroke="none" stroke-width="0"/><path d="" fill-opacity="0.5" fill="#000000" stroke="none" stroke-width="0"/><path d="" fill-opacity="0.5" fill="#000000" stroke="none" stroke-width="0"/><path d="" fill-opacity="0.5" fill="#000000" stroke="none" stroke-width="0"/><path d="" fill="#5e6669" stroke="#ffffff" stroke-width="0.5"/><path d="" fill="#464d55" stroke="none" stroke-width="0"/><path d="" fill="#464d55" stroke="none" stroke-width="0"/><path d="" fill="#464d55" stroke="none" stroke-width="0"/><path d="" fill="#464d55" stroke="none" stroke-width="0"/><path d="" fill="url(#color-2)" stroke="none" stroke-width="0"/><path d="" fill="url(#color-3)" stroke="none" stroke-width="0"/><path d="" fill="#464d55" stroke="none" stroke-width="0"/><path d="" fill="url(#color-4)" stroke="none" stroke-width="0"/><path d="" fill="url(#color-5)" stroke="none" stroke-width="0"/><path d="" fill="#ffffff" stroke="none" stroke-width="0"/><path d="" fill="#373c42" stroke="none" stroke-width="0"/><path d="" fill="#464e39" stroke="#ffffff" stroke-width="0.5"/><path d="" fill="#343321" stroke="none" stroke-width="0"/><path d="" fill="url(#color-6)" stroke="none" stroke-width="0"/><path d="" fill="url(#color-7)" stroke="none" stroke-width="0"/><path d="" fill="url(#color-8)" stroke="none" stroke-width="0"/><path d="" fill="#30351d" stroke="none" stroke-width="0"/><path d="" fill="#30351d" stroke="none" stroke-width="0"/><path d="" fill="#968780" stroke="#ffffff" stroke-width="0.5"/><path d="" fill="#695b5a" stroke="none" stroke-width="0"/><path d="" fill="url(#color-9)" stroke="none" stroke-width="0"/><path d="" fill="url(#color-10)" stroke="none" stroke-width="0"/><path d="" fill="url(#color-11)" stroke="none" stroke-width="0"/><path d="" fill="#5f5353" stroke="none" stroke-width="0"/><path d="" fill="#443a38" stroke="none" stroke-width="0"/><path d="" fill="#725f59" stroke="none" stroke-width="0"/><path d="" data-paper-data="{&quot;index&quot;:null}" fill="#725f59" stroke="none" stroke-width="0"/><path d="" fill="#725f59" stroke="none" stroke-width="0"/><path d="" fill="#7c6a66" stroke="none" stroke-width="0"/><path d="" fill="#61493b" stroke="#ffffff" stroke-width="0.5"/><path d="" fill="#4d322b" stroke="none" stroke-width="0"/><path d="" fill="url(#color-12)" stroke="none" stroke-width="0"/><path d="" fill="url(#color-13)" stroke="none" stroke-width="0"/><path d="" fill="#32251d" stroke="none" stroke-width="0"/><path d="" fill="#b7956f" stroke="#ffffff" stroke-width="0.5"/><path d="" fill="url(#color-14)" stroke="none" stroke-width="0"/><path d="" fill="#614832" stroke="none" stroke-width="0"/><path d="" fill="#765834" stroke="none" stroke-width="0"/><path d="" fill="url(#color-15)" stroke="none" stroke-width="0"/><path d="" fill="url(#color-16)" stroke="none" stroke-width="0"/><path d="" fill="url(#color-17)" stroke="none" stroke-width="0"/><path d="" fill="url(#color-18)" stroke="none" stroke-width="0"/><path d="M245.35296,177.57891c0,0 -1.70776,-1.02217 -2.02419,-0.79258c-0.44687,0.32423 -0.67606,1.99212 -1.41682,1.25859c-0.22598,-0.22377 0.33533,-3.60361 0.04691,-3.83598c-1.06784,-0.86034 -5.04353,-1.27322 -4.77051,-2.50179c0.10662,-0.47978 0.86049,-0.70398 1.56397,-1.28132c0.45946,-0.37707 0.76362,-1.17238 1.3148,-1.36214c1.05551,-0.36339 1.9025,-0.70145 1.9025,-0.70145c0,0 1.36823,0.03579 3.79691,1.09634c0.47079,0.20558 1.24863,1.2999 2.02115,1.90964c0.47425,0.37432 1.0192,0.34791 1.27525,0.465c0.7971,0.36451 1.71257,0.0559 2.1514,0.46031c0.42948,0.3958 -0.49748,0.74303 -0.54921,1.1442c-0.33779,2.61978 -0.35106,5.65859 -0.59805,7.3326c-0.40834,2.76765 -1.27244,5.20857 -1.27244,5.20857c0,0 1.63855,5.86059 0.88574,5.2054c-0.80149,-0.69756 -1.40047,-2.04805 -2.38419,-2.96492c-1.10503,-1.02993 -3.6273,-0.01105 -4.06236,-0.86055c-0.20007,-0.39065 3.06757,-1.3479 4.21378,-1.6354c0.25848,-0.06483 0.09053,-1.47865 0.03944,-2.55171c-0.0614,-1.28986 -0.10291,-2.39855 -0.33278,-2.94008c-0.49913,-1.17584 -1.8013,-2.65275 -1.8013,-2.65275z" fill="#c2d4e8" stroke="#ffffff" stroke-width="0.5"/><path d="M242.31962,174.13724c0,0 -3.57032,-1.32822 -4.52135,-1.87319c-0.55305,-0.31691 -0.21297,-0.86847 -0.21297,-0.86847c0,0 2.51242,0.16201 4.57518,1.46713c0.74201,0.46947 1.03653,1.35144 1.5808,1.9615c0.83858,0.93994 1.78916,1.55497 2.14162,1.51533c1.96706,-0.22124 3.67005,6.13937 3.67005,6.13937c0,0 -0.00305,0.78102 -0.21194,1.6098c-0.18983,0.75316 -0.59029,1.51528 -0.53668,2.34874c0.0997,1.54989 0.86529,4.38313 0.86529,4.38313c0,0 -0.46288,-0.66091 -1.00665,-1.31016c-0.41312,-0.49327 -0.74061,-1.30516 -1.4351,-1.60853c-1.15668,-0.50527 -3.34004,0.37977 -3.61792,-0.69978c-0.03114,-0.12097 4.08017,-1.35252 4.05074,-1.47791c-0.37143,-1.58241 0.20679,-3.1854 -0.19903,-4.91158c-0.09406,-0.40011 -0.6096,-1.55039 -0.65707,-1.62739c-0.29677,-0.48135 -0.98398,-1.18241 -1.44553,-1.567c-0.17729,-0.14772 -1.02689,-1.09464 -1.62245,-0.91597c-0.77132,0.2314 -1.48908,1.65841 -1.64149,1.31362c-0.35462,-0.80226 0.22448,-3.87863 0.22448,-3.87863z" fill="#465163" stroke="none" stroke-width="0"/><path d="M248.61962,171.97132c0,0 1.46623,0.15751 1.93527,0.24279c0.26791,0.04871 0.6314,0.34813 0.6314,0.34813c0,0 -0.83553,0.76509 -0.84878,1.05649c-0.02149,0.47285 -0.06764,1.56851 -0.06764,1.56851z" fill="#92a7b8" stroke="none" stroke-width="0"/><path d="M237.54819,171.40248c0,0 0.49379,-0.15305 0.86246,-0.40599c0.23461,-0.16097 0.41959,-0.32096 0.66784,-0.54913c0.39229,-0.36054 0.75687,-0.95817 1.04532,-1.14567c0.20034,-0.13022 0.58969,-0.12847 0.8486,-0.23242c0.47273,-0.18979 0.80064,-0.44196 0.80064,-0.44196c0,0 0.3057,-0.03761 0.74541,0.04223c0.80984,0.14703 2.07422,0.49429 2.72043,0.80969c0.31007,0.15135 0.8433,0.45642 1.18799,0.84826c0.2425,0.27567 0.36993,0.55328 0.6317,0.75183c0.28465,0.2159 0.29459,0.34964 0.51394,0.48777c0.45754,0.28814 1.03484,0.37382 1.03484,0.37382c0,0 0.7092,1.24213 0.75205,1.32197c0.07002,0.13047 0.13416,0.26706 0.19492,0.40154c0.10508,0.23257 0.20007,0.45882 0.29792,0.63618c0.14551,0.26375 0.30201,0.40544 0.36,0.74149c0.04162,0.24121 -0.01293,0.92725 -0.0483,1.27928c-0.05135,0.51101 -0.10817,0.97946 -0.1539,1.5521c-0.17737,2.22092 -0.45002,4.75384 -0.45002,4.75384c0,0 -0.23565,-0.92578 -0.64418,-2.1045c-0.12054,-0.34779 -0.33898,-0.71399 -0.488,-1.0792c-0.23235,-0.56937 -0.40213,-1.01205 -0.70579,-1.503c-0.31832,-0.51467 -0.77146,-1.07009 -1.05089,-1.33302c-0.07121,-0.067 -0.58646,-0.22185 -0.72001,-0.24383c-0.23205,-0.03818 -0.76768,-0.23387 -0.90537,-0.32458c-0.37021,-0.24388 -1.10773,-0.89417 -1.6405,-1.59436c-0.45015,-0.59162 -0.69488,-1.24257 -1.05315,-1.47217c-2.53816,-1.62661 -4.80394,-1.57019 -4.80394,-1.57019z" fill="url(#color-19)" stroke="none" stroke-width="0"/></g></g></svg>