<svg version="1.1" xmlns="http://www.w3.org/2000/svg" xmlns:xlink="http://www.w3.org/1999/xlink" width="18.49734" height="28.15478" viewBox="0,0,18.49734,28.15478"><defs><linearGradient x1="240.00002" y1="180" x2="240.00002" y2="180" gradientUnits="userSpaceOnUse" id="color-1"><stop offset="0" stop-color="#373c42"/><stop offset="1" stop-color="#6c4a4a"/></linearGradient><linearGradient x1="240.00002" y1="180" x2="240.00002" y2="180" gradientUnits="userSpaceOnUse" id="color-2"><stop offset="0" stop-color="#373c42"/><stop offset="1" stop-color="#6c4a4a"/></linearGradient><linearGradient x1="240.00002" y1="180" x2="240.00002" y2="180" gradientUnits="userSpaceOnUse" id="color-3"><stop offset="0" stop-color="#373c42"/><stop offset="1" stop-color="#6c4a4a"/></linearGradient><linearGradient x1="240.00002" y1="180" x2="240.00002" y2="180" gradientUnits="userSpaceOnUse" id="color-4"><stop offset="0" stop-color="#373c42"/><stop offset="1" stop-color="#6c4a4a"/></linearGradient><linearGradient x1="240.00002" y1="180" x2="240.00002" y2="180" gradientUnits="userSpaceOnUse" id="color-5"><stop offset="0" stop-color="#26272b"/><stop offset="1" stop-color="#464e39"/></linearGradient><linearGradient x1="240.00002" y1="180" x2="240.00002" y2="180" gradientUnits="userSpaceOnUse" id="color-6"><stop offset="0" stop-color="#26272b" stop-opacity="0"/><stop offset="1" stop-color="#26272b"/></linearGradient><linearGradient x1="240.00002" y1="180" x2="240.00002" y2="180" gradientUnits="userSpaceOnUse" id="color-7"><stop offset="0" stop-color="#2c3822"/><stop offset="1" stop-color="#464e39"/></linearGradient><linearGradient x1="240.00002" y1="180" x2="240.00002" y2="180" gradientUnits="userSpaceOnUse" id="color-8"><stop offset="0" stop-color="#483225" stop-opacity="0"/><stop offset="1" stop-color="#483225"/></linearGradient><linearGradient x1="240.00002" y1="180" x2="240.00002" y2="180" gradientUnits="userSpaceOnUse" id="color-9"><stop offset="0" stop-color="#483225" stop-opacity="0"/><stop offset="1" stop-color="#483225"/></linearGradient><linearGradient x1="240.00002" y1="180" x2="240.00002" y2="180" gradientUnits="userSpaceOnUse" id="color-10"><stop offset="0" stop-color="#483225" stop-opacity="0"/><stop offset="1" stop-color="#483225"/></linearGradient><linearGradient x1="240.00002" y1="180" x2="240.00002" y2="180" gradientUnits="userSpaceOnUse" id="color-11"><stop offset="0" stop-color="#4d322b"/><stop offset="1" stop-color="#4d322b" stop-opacity="0"/></linearGradient><linearGradient x1="240.00002" y1="180" x2="240.00002" y2="180" gradientUnits="userSpaceOnUse" id="color-12"><stop offset="0" stop-color="#2d1f12" stop-opacity="0"/><stop offset="1" stop-color="#2d1f12"/></linearGradient><linearGradient x1="240.00002" y1="180" x2="240.00002" y2="180" gradientUnits="userSpaceOnUse" id="color-13"><stop offset="0" stop-color="#654a37"/><stop offset="1" stop-color="#654a37" stop-opacity="0"/></linearGradient><linearGradient x1="240.00002" y1="180" x2="240.00002" y2="180" gradientUnits="userSpaceOnUse" id="color-14"><stop offset="0" stop-color="#614832" stop-opacity="0"/><stop offset="1" stop-color="#614832"/></linearGradient><linearGradient x1="240.00002" y1="180" x2="240.00002" y2="180" gradientUnits="userSpaceOnUse" id="color-15"><stop offset="0" stop-color="#4a3516" stop-opacity="0"/><stop offset="1" stop-color="#4a3516"/></linearGradient><linearGradient x1="240.00002" y1="180" x2="240.00002" y2="180" gradientUnits="userSpaceOnUse" id="color-16"><stop offset="0" stop-color="#4a3516" stop-opacity="0"/><stop offset="1" stop-color="#4a3516"/></linearGradient><linearGradient x1="240.00002" y1="180" x2="240.00002" y2="180" gradientUnits="userSpaceOnUse" id="color-17"><stop offset="0" stop-color="#8e6c51" stop-opacity="0"/><stop offset="1" stop-color="#8e6c51"/></linearGradient><linearGradient x1="232.45508" y1="177.2478" x2="244.46828" y2="177.2478" gradientUnits="userSpaceOnUse" id="color-18"><stop offset="0" stop-color="#877569"/><stop offset="1" stop-color="#877569" stop-opacity="0"/></linearGradient><linearGradient x1="243.62591" y1="176.66447" x2="243.62591" y2="181.0978" gradientUnits="userSpaceOnUse" id="color-19"><stop offset="0" stop-color="#877569"/><stop offset="1" stop-color="#877569" stop-opacity="0"/></linearGradient></defs><g transform="translate(-230.68275,-165.79781)"><g data-paper-data="{&quot;isPaintingLayer&quot;:true}" fill-rule="nonzero" stroke-linecap="butt" stroke-linejoin="miter" stroke-miterlimit="10" stroke-dasharray="" stroke-dashoffset="0" style="mix-blend-mode: normal"><path d="M239.79185,184.47133c0,0 -3.27713,-2.33961 -4.93773,-2.13993c-1.20808,0.14527 -2.62219,1.45817 -3.03903,1.49641c-0.29698,0.02725 -0.00666,-0.83581 0.85754,-2.12672c0.52408,-0.78285 1.89595,-2.84363 3.47359,-4.17363c1.36971,-1.1547 2.93508,-1.63691 3.731,-1.76706c1.92291,-0.31444 4.23593,0.05031 4.6789,-0.80236c0.66927,-1.28825 0.56342,-5.02475 0.73305,-6.95185c0.06991,-0.79424 0.5968,-1.07605 0.5968,-1.07605c0,0 1.48147,-0.02992 1.95835,0.43294c0.45548,0.44208 1.33577,2.53178 1.33577,2.53178c0,0 -1.04739,0.13871 -1.11518,0.65781c-0.11533,0.88309 0.23846,2.30801 0.32188,4.00737c0.08756,1.78376 0.97798,3.7328 0.41146,5.55969c-0.14806,0.47747 -1.31428,1.4307 -2.54815,1.90868c-1.2614,0.48864 -2.59351,0.49917 -2.98077,0.71892c-0.66008,0.37456 -0.78093,1.31934 -0.96974,1.85064c-0.72765,2.04755 0.20989,2.55796 -0.15026,3.51961c-0.59652,1.59277 -1.45159,2.85964 -1.45159,2.85964c0,0 0.48754,1.01378 1.1821,1.60026c0.48529,0.40977 1.24024,0.35804 1.28563,0.67858c0.12286,0.8678 -2.04649,0.98087 -3.06261,0.01905c-0.8722,-0.8256 -0.39626,-3.17731 -0.22991,-5.30942c0.1406,-1.8021 -0.08109,-3.49435 -0.08109,-3.49435z" fill-opacity="0.5" fill="#000000" stroke="none" stroke-width="0"/><path d="" fill="#000000" stroke="none" stroke-width="0"/><path d="" fill-opacity="0.5" fill="#000000" stroke="none" stroke-width="0"/><path d="" fill-opacity="0.5" fill="#000000" stroke="none" stroke-width="0"/><path d="" fill-opacity="0.5" fill="#000000" stroke="none" stroke-width="0"/><path d="" fill-opacity="0.5" fill="#000000" stroke="none" stroke-width="0"/><path d="" fill="#5e6669" stroke="#ffffff" stroke-width="0.5"/><path d="" fill="#464d55" stroke="none" stroke-width="0"/><path d="" fill="#464d55" stroke="none" stroke-width="0"/><path d="" fill="#464d55" stroke="none" stroke-width="0"/><path d="" fill="#464d55" stroke="none" stroke-width="0"/><path d="" fill="url(#color-1)" stroke="none" stroke-width="0"/><path d="" fill="url(#color-2)" stroke="none" stroke-width="0"/><path d="" fill="#464d55" stroke="none" stroke-width="0"/><path d="" fill="url(#color-3)" stroke="none" stroke-width="0"/><path d="" fill="url(#color-4)" stroke="none" stroke-width="0"/><path d="" fill="#ffffff" stroke="none" stroke-width="0"/><path d="" fill="#373c42" stroke="none" stroke-width="0"/><path d="" fill="#464e39" stroke="#ffffff" stroke-width="0.5"/><path d="" fill="#343321" stroke="none" stroke-width="0"/><path d="" fill="url(#color-5)" stroke="none" stroke-width="0"/><path d="" fill="url(#color-6)" stroke="none" stroke-width="0"/><path d="" fill="url(#color-7)" stroke="none" stroke-width="0"/><path d="" fill="#30351d" stroke="none" stroke-width="0"/><path d="" fill="#30351d" stroke="none" stroke-width="0"/><path d="" fill="#968780" stroke="#ffffff" stroke-width="0.5"/><path d="" fill="#695b5a" stroke="none" stroke-width="0"/><path d="" fill="url(#color-8)" stroke="none" stroke-width="0"/><path d="" fill="url(#color-9)" stroke="none" stroke-width="0"/><path d="" fill="url(#color-10)" stroke="none" stroke-width="0"/><path d="" fill="#5f5353" stroke="none" stroke-width="0"/><path d="" fill="#443a38" stroke="none" stroke-width="0"/><path d="" fill="#725f59" stroke="none" stroke-width="0"/><path d="" data-paper-data="{&quot;index&quot;:null}" fill="#725f59" stroke="none" stroke-width="0"/><path d="" fill="#725f59" stroke="none" stroke-width="0"/><path d="" fill="#7c6a66" stroke="none" stroke-width="0"/><path d="" fill="#61493b" stroke="#ffffff" stroke-width="0.5"/><path d="" fill="#4d322b" stroke="none" stroke-width="0"/><path d="" fill="url(#color-11)" stroke="none" stroke-width="0"/><path d="" fill="url(#color-12)" stroke="none" stroke-width="0"/><path d="" fill="#32251d" stroke="none" stroke-width="0"/><path d="" fill="#b7956f" stroke="#ffffff" stroke-width="0.5"/><path d="" fill="url(#color-13)" stroke="none" stroke-width="0"/><path d="" fill="#614832" stroke="none" stroke-width="0"/><path d="" fill="#765834" stroke="none" stroke-width="0"/><path d="" fill="url(#color-14)" stroke="none" stroke-width="0"/><path d="" fill="url(#color-15)" stroke="none" stroke-width="0"/><path d="" fill="url(#color-16)" stroke="none" stroke-width="0"/><path d="" fill="url(#color-17)" stroke="none" stroke-width="0"/><path d="M238.9095,183.58898c0,0 -3.27712,-2.3396 -4.93772,-2.13992c-1.20808,0.14527 -2.62219,1.45817 -3.03903,1.49641c-0.29698,0.02724 -0.00666,-0.83581 0.85754,-2.12672c0.52408,-0.78286 1.89595,-2.84362 3.47359,-4.17362c1.36971,-1.1547 2.93508,-1.63691 3.731,-1.76706c1.92292,-0.31444 4.23592,0.05031 4.6789,-0.80236c0.66927,-1.28825 0.56342,-5.02475 0.73304,-6.95185c0.06991,-0.79425 0.5968,-1.07605 0.5968,-1.07605c0,0 1.48147,-0.02992 1.95835,0.43293c0.45548,0.44208 1.33577,2.53178 1.33577,2.53178c0,0 -1.04739,0.13872 -1.11518,0.65781c-0.11533,0.88309 0.23846,2.30801 0.32187,4.00737c0.08756,1.78376 0.97798,3.7328 0.41147,5.55969c-0.14806,0.47747 -1.31428,1.4307 -2.54816,1.90868c-1.2614,0.48864 -2.59351,0.49917 -2.98076,0.71892c-0.66008,0.37455 -0.78093,1.31935 -0.96974,1.85064c-0.72766,2.04755 0.2099,2.55796 -0.15026,3.51961c-0.59652,1.59277 -1.45159,2.85964 -1.45159,2.85964c0,0 0.48754,1.01378 1.1821,1.60025c0.48529,0.40977 1.24024,0.35804 1.28563,0.67858c0.12287,0.8678 -2.04649,0.98086 -3.06261,0.01905c-0.8722,-0.8256 -0.39626,-3.17731 -0.22991,-5.30942c0.1406,-1.8021 -0.08109,-3.49435 -0.08109,-3.49435z" fill="#ac9d98" stroke="#ffffff" stroke-width="0.5"/><path d="M231.23008,182.53212c0,0 0.65255,-1.36351 1.62958,-2.71545c0.83951,-1.16166 1.97965,-2.41618 2.44956,-2.84858c0.86365,-0.79471 3.32919,-1.79626 3.32919,-1.79626c0,0 2.56535,-0.24022 3.76068,-0.27061c1.08923,-0.02769 1.54765,-0.72105 1.54765,-0.72105c0,0 0.93175,2.90702 0.30442,3.91051c-0.31588,0.50529 -5.08775,5.31645 -5.08775,5.31645c0,0 -3.91437,-2.56953 -5.58696,-2.11922c-1.20364,0.32406 -2.34637,1.24422 -2.34637,1.24422z" fill="url(#color-18)" stroke="none" stroke-width="0"/><path d="M240.82591,181.85613c0,0 1.93074,-2.32444 2.9146,-3.19557c0.86834,-0.76884 0.2354,-2.46277 0.2354,-2.46277c0,0 1.88555,-0.36019 2.37866,-0.27485c0.51688,0.08946 1.35467,0.74151 1.35467,0.74151c0,0 0.29437,2.00417 -0.15616,2.73116c-0.39867,0.64331 -2.17717,1.41051 -2.17717,1.41051c0,0 -1.63215,0.47985 -2.4015,0.6574c-0.74663,0.1723 -2.1485,0.3926 -2.1485,0.3926z" fill="url(#color-19)" stroke="none" stroke-width="0"/><path d="M244.44258,170.48113c0,0 0.02926,-1.40136 0.06988,-1.97001c0.03678,-0.51489 0.10512,-1.47166 0.10512,-1.47166l2.625,0.05833l0.75833,1.69167c0,0 -0.56958,0.27591 -0.85922,0.58634c-0.29785,0.31923 0.14687,0.67496 -0.13656,0.80467c-0.58683,0.26855 -2.56255,0.30066 -2.56255,0.30066z" fill="#ffffff" stroke="none" stroke-width="0"/><path d="M244.55924,167.15613l0.40833,-0.93333l1.75,0.11667l0.525,0.875z" fill="#000000" stroke="none" stroke-width="0"/><path d="M246.89258,168.8478v-0.7h0.875v0.7z" fill="#000000" stroke="none" stroke-width="0"/><path d="M246.25091,167.7978v-0.75833h0.525v0.75833z" fill="#000000" stroke="none" stroke-width="0"/><path d="M246.89258,168.20613v-0.58333h0.40833v0.58333z" fill="#000000" stroke="none" stroke-width="0"/><path d="M245.31758,168.20613v-0.46667h0.46667v0.46667z" fill="#000000" stroke="none" stroke-width="0"/><path d="M244.85091,171.06447v-1.10833h0.46667v1.10833z" fill="#000000" stroke="none" stroke-width="0"/><path d="M245.25924,170.9478v-0.525h0.64167v0.525z" fill="#000000" stroke="none" stroke-width="0"/><path d="M246.01758,170.13113v-0.875h0.93333v0.875z" fill="#8a8a8a" stroke="none" stroke-width="0"/><path d="M245.43424,170.48113v-0.58333h0.525v0.58333z" fill="#8a8a8a" stroke="none" stroke-width="0"/><path d="M244.55924,169.95613v-2.8h0.35v2.8z" fill="#8a8a8a" stroke="none" stroke-width="0"/></g></g></svg>