<svg version="1.1" xmlns="http://www.w3.org/2000/svg" xmlns:xlink="http://www.w3.org/1999/xlink" width="13.51817" height="28.72053" viewBox="0,0,13.51817,28.72053"><defs><linearGradient x1="240.00003" y1="180" x2="240.00003" y2="180" gradientUnits="userSpaceOnUse" id="color-1"><stop offset="0" stop-color="#373c42"/><stop offset="1" stop-color="#6c4a4a"/></linearGradient><linearGradient x1="240.00003" y1="180" x2="240.00003" y2="180" gradientUnits="userSpaceOnUse" id="color-2"><stop offset="0" stop-color="#373c42"/><stop offset="1" stop-color="#6c4a4a"/></linearGradient><linearGradient x1="240.00003" y1="180" x2="240.00003" y2="180" gradientUnits="userSpaceOnUse" id="color-3"><stop offset="0" stop-color="#373c42"/><stop offset="1" stop-color="#6c4a4a"/></linearGradient><linearGradient x1="240.00003" y1="180" x2="240.00003" y2="180" gradientUnits="userSpaceOnUse" id="color-4"><stop offset="0" stop-color="#373c42"/><stop offset="1" stop-color="#6c4a4a"/></linearGradient><linearGradient x1="240.00003" y1="180" x2="240.00003" y2="180" gradientUnits="userSpaceOnUse" id="color-5"><stop offset="0" stop-color="#26272b"/><stop offset="1" stop-color="#464e39"/></linearGradient><linearGradient x1="240.00003" y1="180" x2="240.00003" y2="180" gradientUnits="userSpaceOnUse" id="color-6"><stop offset="0" stop-color="#26272b" stop-opacity="0"/><stop offset="1" stop-color="#26272b"/></linearGradient><linearGradient x1="240.00003" y1="180" x2="240.00003" y2="180" gradientUnits="userSpaceOnUse" id="color-7"><stop offset="0" stop-color="#2c3822"/><stop offset="1" stop-color="#464e39"/></linearGradient><linearGradient x1="240.00003" y1="180" x2="240.00003" y2="180" gradientUnits="userSpaceOnUse" id="color-8"><stop offset="0" stop-color="#483225" stop-opacity="0"/><stop offset="1" stop-color="#483225"/></linearGradient><linearGradient x1="240.00003" y1="180" x2="240.00003" y2="180" gradientUnits="userSpaceOnUse" id="color-9"><stop offset="0" stop-color="#483225" stop-opacity="0"/><stop offset="1" stop-color="#483225"/></linearGradient><linearGradient x1="240.00003" y1="180" x2="240.00003" y2="180" gradientUnits="userSpaceOnUse" id="color-10"><stop offset="0" stop-color="#483225" stop-opacity="0"/><stop offset="1" stop-color="#483225"/></linearGradient><linearGradient x1="240.00003" y1="180" x2="240.00003" y2="180" gradientUnits="userSpaceOnUse" id="color-11"><stop offset="0" stop-color="#4d322b"/><stop offset="1" stop-color="#4d322b" stop-opacity="0"/></linearGradient><linearGradient x1="240.00003" y1="180" x2="240.00003" y2="180" gradientUnits="userSpaceOnUse" id="color-12"><stop offset="0" stop-color="#2d1f12" stop-opacity="0"/><stop offset="1" stop-color="#2d1f12"/></linearGradient><linearGradient x1="240.00003" y1="180" x2="240.00003" y2="180" gradientUnits="userSpaceOnUse" id="color-13"><stop offset="0" stop-color="#654a37"/><stop offset="1" stop-color="#654a37" stop-opacity="0"/></linearGradient><linearGradient x1="240.00003" y1="180" x2="240.00003" y2="180" gradientUnits="userSpaceOnUse" id="color-14"><stop offset="0" stop-color="#614832" stop-opacity="0"/><stop offset="1" stop-color="#614832"/></linearGradient><linearGradient x1="240.00003" y1="180" x2="240.00003" y2="180" gradientUnits="userSpaceOnUse" id="color-15"><stop offset="0" stop-color="#4a3516" stop-opacity="0"/><stop offset="1" stop-color="#4a3516"/></linearGradient><linearGradient x1="240.00003" y1="180" x2="240.00003" y2="180" gradientUnits="userSpaceOnUse" id="color-16"><stop offset="0" stop-color="#4a3516" stop-opacity="0"/><stop offset="1" stop-color="#4a3516"/></linearGradient><linearGradient x1="240.00003" y1="180" x2="240.00003" y2="180" gradientUnits="userSpaceOnUse" id="color-17"><stop offset="0" stop-color="#8e6c51" stop-opacity="0"/><stop offset="1" stop-color="#8e6c51"/></linearGradient><linearGradient x1="239.68421" y1="165.76624" x2="239.68421" y2="193.54955" gradientUnits="userSpaceOnUse" id="color-18"><stop offset="0" stop-color="#fad398"/><stop offset="1" stop-color="#b1956c"/></linearGradient></defs><g transform="translate(-233.11592,-165.51323)"><g data-paper-data="{&quot;isPaintingLayer&quot;:true}" fill-rule="nonzero" stroke-linecap="butt" stroke-linejoin="miter" stroke-miterlimit="10" stroke-dasharray="" stroke-dashoffset="0" style="mix-blend-mode: normal"><path d="M239.14769,182.85531c0,0 -2.74858,-0.62571 -4.17612,-2.40122c-1.21112,-1.50633 -1.22069,-3.95824 -0.42581,-6.31943c0.39175,-1.16368 1.45986,-2.97578 2.99076,-4.29654c2.34382,-2.0221 5.34801,-3.38766 5.34801,-3.38766l1.90284,0.10527c0,0 2.66034,3.21608 1.59491,5.62623c-0.66268,1.49907 -2.83894,0.36519 -3.03321,1.79209c-0.12669,0.9305 1.13791,0.25849 1.79355,0.62199c0.43502,0.24119 0.4189,1.19909 0.35017,1.88917c-0.0856,0.85947 -0.41944,1.72469 -0.46903,2.57904c-0.03772,0.64995 -0.69461,1.45863 -0.45711,2.22099c0.16596,0.53272 0.69043,0.37483 1.11129,0.86874c0.57038,0.66939 0.61747,1.96348 0.56764,2.44916c-0.16617,1.6197 -1.55063,0.43819 -1.59538,1.40905c-0.05081,1.10233 0.98542,2.27536 1.23082,3.39623c0.34876,1.59297 -0.04102,2.97322 -0.04102,2.97322c0,0 -2.89518,2.73329 -3.99283,1.55901c-0.71383,-0.76367 0.86276,-1.44449 1.09414,-2.6737c0.16482,-0.87563 -0.97516,-2.36655 -1.2946,-2.83784c-1.07849,-1.59111 -2.49902,-5.57379 -2.49902,-5.57379z" fill-opacity="0.5" fill="#000000" stroke="none" stroke-width="0"/><path d="" fill="#000000" stroke="none" stroke-width="0"/><path d="" fill-opacity="0.5" fill="#000000" stroke="none" stroke-width="0"/><path d="" fill-opacity="0.5" fill="#000000" stroke="none" stroke-width="0"/><path d="" fill-opacity="0.5" fill="#000000" stroke="none" stroke-width="0"/><path d="" fill-opacity="0.5" fill="#000000" stroke="none" stroke-width="0"/><path d="" fill="#5e6669" stroke="#ffffff" stroke-width="0.5"/><path d="" fill="#464d55" stroke="none" stroke-width="0"/><path d="" fill="#464d55" stroke="none" stroke-width="0"/><path d="" fill="#464d55" stroke="none" stroke-width="0"/><path d="" fill="#464d55" stroke="none" stroke-width="0"/><path d="" fill="url(#color-1)" stroke="none" stroke-width="0"/><path d="" fill="url(#color-2)" stroke="none" stroke-width="0"/><path d="" fill="#464d55" stroke="none" stroke-width="0"/><path d="" fill="url(#color-3)" stroke="none" stroke-width="0"/><path d="" fill="url(#color-4)" stroke="none" stroke-width="0"/><path d="" fill="#ffffff" stroke="none" stroke-width="0"/><path d="" fill="#373c42" stroke="none" stroke-width="0"/><path d="" fill="#464e39" stroke="#ffffff" stroke-width="0.5"/><path d="" fill="#343321" stroke="none" stroke-width="0"/><path d="" fill="url(#color-5)" stroke="none" stroke-width="0"/><path d="" fill="url(#color-6)" stroke="none" stroke-width="0"/><path d="" fill="url(#color-7)" stroke="none" stroke-width="0"/><path d="" fill="#30351d" stroke="none" stroke-width="0"/><path d="" fill="#30351d" stroke="none" stroke-width="0"/><path d="" fill="#968780" stroke="#ffffff" stroke-width="0.5"/><path d="" fill="#695b5a" stroke="none" stroke-width="0"/><path d="" fill="url(#color-8)" stroke="none" stroke-width="0"/><path d="" fill="url(#color-9)" stroke="none" stroke-width="0"/><path d="" fill="url(#color-10)" stroke="none" stroke-width="0"/><path d="" fill="#5f5353" stroke="none" stroke-width="0"/><path d="" fill="#443a38" stroke="none" stroke-width="0"/><path d="" fill="#725f59" stroke="none" stroke-width="0"/><path d="" data-paper-data="{&quot;index&quot;:null}" fill="#725f59" stroke="none" stroke-width="0"/><path d="" fill="#725f59" stroke="none" stroke-width="0"/><path d="" fill="#7c6a66" stroke="none" stroke-width="0"/><path d="" fill="#61493b" stroke="#ffffff" stroke-width="0.5"/><path d="" fill="#4d322b" stroke="none" stroke-width="0"/><path d="" fill="url(#color-11)" stroke="none" stroke-width="0"/><path d="" fill="url(#color-12)" stroke="none" stroke-width="0"/><path d="" fill="#32251d" stroke="none" stroke-width="0"/><path d="" fill="#b7956f" stroke="#ffffff" stroke-width="0.5"/><path d="" fill="url(#color-13)" stroke="none" stroke-width="0"/><path d="" fill="#614832" stroke="none" stroke-width="0"/><path d="" fill="#765834" stroke="none" stroke-width="0"/><path d="" fill="url(#color-14)" stroke="none" stroke-width="0"/><path d="" fill="url(#color-15)" stroke="none" stroke-width="0"/><path d="" fill="url(#color-16)" stroke="none" stroke-width="0"/><path d="" fill="url(#color-17)" stroke="none" stroke-width="0"/><path d="M238.51611,182.1711c0,0 -2.74858,-0.62571 -4.17612,-2.40122c-1.21112,-1.50633 -1.22069,-3.95824 -0.42581,-6.31943c0.39175,-1.16368 1.45986,-2.97579 2.99077,-4.29655c2.34383,-2.0221 5.34801,-3.38766 5.34801,-3.38766l1.90284,0.10527c0,0 2.66034,3.21608 1.59491,5.62623c-0.66268,1.49907 -2.83894,0.36519 -3.03321,1.79209c-0.12669,0.9305 1.13791,0.25849 1.79355,0.62199c0.43502,0.24119 0.4189,1.19909 0.35017,1.88917c-0.0856,0.85947 -0.41944,1.72469 -0.46903,2.57904c-0.03772,0.64995 -0.69461,1.45863 -0.45711,2.22099c0.16596,0.53272 0.69043,0.37483 1.11129,0.86874c0.57038,0.66939 0.61747,1.96348 0.56764,2.44916c-0.16617,1.6197 -1.55063,0.43819 -1.59538,1.40905c-0.05081,1.10233 0.98542,2.27536 1.23082,3.39623c0.34876,1.59297 -0.04102,2.97323 -0.04102,2.97323c0,0 -2.89518,2.73329 -3.99283,1.55901c-0.71383,-0.76367 0.86276,-1.4445 1.09414,-2.67371c0.16482,-0.87563 -0.97516,-2.36654 -1.2946,-2.83783c-1.07849,-1.59111 -2.49902,-5.57379 -2.49902,-5.57379z" fill="url(#color-18)" stroke="#ffffff" stroke-width="0.5"/><path d="M242.88068,167.31135v-1.1h1.16667v1.1z" fill="#000000" stroke="none" stroke-width="0"/><path d="M241.11401,169.37802v-1.06667h1.3v1.06667z" fill="#000000" stroke="none" stroke-width="0"/><path d="M243.01401,169.44468v-0.93333h1.03333v0.93333z" fill="#000000" stroke="none" stroke-width="0"/><path d="M241.98068,171.57802c0,0 -0.4,-0.21017 -0.4,-0.43333c0,-0.08578 0,-0.16855 0,-0.23333c0,-0.10197 -0.09028,-0.48182 -0.00427,-0.61449c0.11081,-0.17092 0.40427,-0.08551 0.40427,-0.08551c0,0 -0.09659,0 0.1,0c0.1534,0 0.21914,0.01964 0.39957,0.0376c0.15198,0.01513 0.23376,0.02906 0.23376,0.02906c0,0 0.2549,0.15842 0.30717,0.3461c0.0475,0.17054 0.09283,0.36525 0.09283,0.48723c0,0.07879 0,0.17768 0,0.26667c0,0.1267 -0.13333,0.2 -0.13333,0.2c0,0 -0.0185,0 -0.2,0c-0.16052,0 -0.34424,0.03333 -0.46667,0.03333c-0.09149,0 -0.21436,0 -0.33333,0c-0.20582,0 0,-0.03333 0,-0.03333z" fill="#384040" stroke="none" stroke-width="0"/><path d="M241.31402,192.94469c0,0 -0.13777,-0.02268 0.13871,-0.47641c0.04852,-0.07963 0.39954,-0.53202 0.45243,-0.62351c0.27772,-0.48048 2.43794,-1.0459 2.3636,-1.65304c-0.16044,-1.31024 -1.1077,-4.26814 -2.02161,-7.59338c-0.34871,-1.26877 -0.74618,-2.96484 -0.76118,-4.50992c-0.00563,-0.58009 0.18201,-1.29617 0.04852,-1.77723c-0.27659,-0.99678 -0.3808,-2.29138 -0.68843,-3.1348c-0.23011,-0.63087 -0.47026,-1.19958 -0.70706,-1.70557c-0.93875,-2.00586 -1.82496,-3.02614 -1.82496,-3.02614l0.8,-0.7c0,0 1.78018,2.41093 2.31592,4.51817c0.38541,1.51595 0.72423,4.79261 1.3561,7.97627c0.38152,1.92226 0.75548,4.10521 1.24569,5.90275c0.31394,1.15119 0.77387,2.00667 0.99141,2.98597c0.53844,2.42392 -0.20912,2.71684 -0.20912,2.71684c0,0 -2.32361,1.58403 -3.04662,1.52238c-0.30605,-0.02609 -0.45338,-0.42238 -0.45338,-0.42238z" fill="#b88951" stroke="none" stroke-width="0"/><path d="M235.18068,180.40024c0,0 2.16932,-1.31459 2.65561,-2.42357c0.29427,-0.67108 0.5084,-2.18884 0.43489,-3.08114c-0.02958,-0.35909 -0.35716,-0.72862 -0.35716,-0.72862c0,0 0.21986,-0.23333 0.36666,-0.23333c0.1798,0 0.63334,0.23333 0.63334,0.23333c0,0 -0.23333,0.35357 -0.23333,0.63333c0,0.53637 0.06295,2.58232 0.12345,4.29682c0.05599,1.5864 0.00988,2.90318 0.00988,2.90318c0,0 -1.28696,-0.40673 -1.91741,-0.67129c-0.61354,-0.25747 -1.71593,-0.92871 -1.71593,-0.92871z" fill="#c99564" stroke="none" stroke-width="0"/></g></g></svg>