<svg version="1.1" xmlns="http://www.w3.org/2000/svg" xmlns:xlink="http://www.w3.org/1999/xlink" width="23.95763" height="33.87891" viewBox="0,0,23.95763,33.87891"><defs><linearGradient x1="245.8473" y1="191.27277" x2="245.8473" y2="194.87251" gradientUnits="userSpaceOnUse" id="color-1"><stop offset="0" stop-color="#efe4cf"/><stop offset="1" stop-color="#efe4cf" stop-opacity="0"/></linearGradient><linearGradient x1="245.81281" y1="192.58975" x2="245.81281" y2="188.99002" gradientUnits="userSpaceOnUse" id="color-2"><stop offset="0" stop-color="#efe4cf"/><stop offset="1" stop-color="#efe4cf" stop-opacity="0"/></linearGradient></defs><g transform="translate(-227.89619,-162.93555)"><g data-paper-data="{&quot;isPaintingLayer&quot;:true}" fill-rule="nonzero" stroke-linejoin="miter" stroke-miterlimit="10" stroke-dasharray="" stroke-dashoffset="0" style="mix-blend-mode: normal"><path d="M228.86072,168.61188c0,0 0.92902,-0.77007 1.73573,-1.90317c0.88061,-1.23689 1.65139,-2.84648 1.80761,-2.8613c0.36363,-0.03451 0.78875,1.62796 1.26373,1.61114c0.1994,-0.00706 0.72008,-1.63974 0.9362,-1.64799c0.19287,-0.00736 0.50671,3.23239 1.52183,6.19257c0.66545,1.9405 1.84609,3.58264 2.74415,4.73403c2.09207,2.68221 5.71818,3.98865 6.41474,3.897c1.72441,-0.22689 2.1581,3.32293 3.1472,5.55014c0.34368,0.7739 2.66637,0.97069 2.96709,1.81124c1.82079,5.08925 -2.41328,2.92884 -2.41328,2.92884c0,0 0.9189,6.94168 0.37628,7.16971c-0.18376,0.07722 -1.14943,0.15081 -1.50641,0.22085c-0.20049,0.03934 -0.17435,-6.98494 -0.41893,-6.94781c-0.15181,0.02305 -0.31183,7.23971 -0.47943,7.27462c-0.16995,0.03539 -0.51227,0.0694 -0.83745,0.10205c-0.24158,0.02426 -0.47368,0.04778 -0.61859,0.07057c-0.12736,0.02004 0.46335,-3.50787 -0.10187,-6.01636c-0.6516,-2.89191 -2.90681,-4.81974 -3.06451,-4.79932c-0.3575,0.04628 -0.53439,-0.5586 -0.90355,-0.4442c-0.23399,0.07252 -1.22845,1.01458 -1.39908,2.71618c-0.27795,2.77185 0.28665,6.83573 -0.10714,7.05887c-0.19033,0.10785 -1.00659,-0.22676 -1.19848,-0.12862c-0.27663,0.14148 -1.42775,0.83686 -1.70261,0.96165c-0.03461,0.01572 -0.44382,0.45512 -0.4076,-0.06677c0.03975,-0.57268 0.78246,-1.48134 0.89831,-2.63313c0.05838,-0.58047 -0.41545,-1.40921 -0.46373,-1.9103c-0.31984,-3.31955 -1.23841,-7.0986 -1.36208,-7.04809c-1.24483,0.50842 -1.67932,-8.08254 -2.04379,-9.43925c-0.37463,-1.39453 -0.35619,-3.42409 -0.62127,-4.41743c-0.17386,-0.65148 -0.52814,-0.27303 -1.0253,-0.25219c-0.8549,0.03584 -2.00995,0.11504 -2.51362,0.02769c-1.06235,-0.18423 -0.62413,-1.81123 -0.62413,-1.81123z" fill-opacity="0.5" fill="#000000" stroke="none" stroke-width="0" stroke-linecap="butt"/><path d="M228.33917,167.91791c0,0 0.82557,-0.7011 1.63228,-1.8342c0.88061,-1.23689 1.65139,-2.84648 1.80761,-2.8613c0.36363,-0.03451 0.78875,1.62796 1.26373,1.61114c0.1994,-0.00706 0.72008,-1.63974 0.9362,-1.64799c0.19287,-0.00736 0.50671,3.23239 1.52183,6.19257c0.66545,1.9405 1.84609,3.58264 2.74415,4.73403c2.09207,2.68221 5.71818,3.98865 6.41474,3.897c1.72441,-0.22689 2.1581,3.32293 3.1472,5.55014c0.34368,0.7739 2.66637,0.97069 2.96709,1.81124c1.82079,5.08925 -2.41328,2.92884 -2.41328,2.92884c0,0 0.9189,6.94168 0.37628,7.16971c-0.18376,0.07722 -1.14943,0.15081 -1.50641,0.22085c-0.20049,0.03934 -0.17435,-6.98494 -0.41893,-6.94781c-0.15181,0.02305 -0.31183,7.23971 -0.47943,7.27462c-0.16995,0.03539 -0.51227,0.0694 -0.83745,0.10205c-0.24158,0.02426 -0.47368,0.04778 -0.61859,0.07057c-0.12736,0.02004 0.46335,-3.50787 -0.10187,-6.01636c-0.6516,-2.89191 -2.90681,-4.81974 -3.06451,-4.79932c-0.3575,0.04628 -0.53439,-0.5586 -0.90355,-0.4442c-0.23399,0.07252 -1.22845,1.01458 -1.39908,2.71618c-0.27795,2.77185 0.28665,6.83573 -0.10714,7.05887c-0.19033,0.10785 -1.00659,-0.22676 -1.19848,-0.12862c-0.27663,0.14148 -1.42775,0.83686 -1.70261,0.96165c-0.03461,0.01572 -0.44382,0.45512 -0.4076,-0.06677c0.03975,-0.57268 0.78246,-1.48134 0.89831,-2.63313c0.05838,-0.58047 -0.41545,-1.40921 -0.46373,-1.9103c-0.31984,-3.31955 -1.23841,-7.0986 -1.36208,-7.04809c-1.24483,0.50842 -1.67932,-8.08254 -2.04379,-9.43925c-0.37463,-1.39453 -0.35619,-3.42409 -0.62127,-4.41743c-0.17386,-0.65148 -0.52814,-0.27303 -1.0253,-0.25219c-0.8549,0.03584 -2.00995,0.11504 -2.51362,0.02769c-1.06235,-0.18423 -0.62413,-1.81123 -0.62413,-1.81123z" fill="#c29c6a" stroke="#ffffff" stroke-width="0.5" stroke-linecap="butt"/><path d="M234.48572,183.21605c0,0 -0.35463,-0.81486 -0.52295,-2.04707c-0.42453,-3.10778 -1.00425,-8.87036 -1.58245,-10.91057c-0.3592,-1.26747 -1.7105,-0.41315 -2.49952,-0.65069c-0.34505,-0.10388 0.22993,-1.82916 0.22993,-1.82916c0,0 1.16032,-0.83342 1.79508,-0.92864c0.9221,-0.13831 1.72478,1.60282 1.43205,3.45573c-0.20284,1.28396 0.37428,3.05876 0.37029,4.1184c-0.01095,2.91421 1.34007,9.41701 1.34007,9.41701z" fill="#efe4cf" stroke="none" stroke-width="0" stroke-linecap="butt"/><path d="M236.42322,195.40355c0,0 -0.20073,-0.21481 -0.07085,-0.6067c0.15155,-0.45726 0.64025,-1.13299 0.69232,-1.64366c0.07223,-0.70844 -0.26018,-0.97089 -0.3318,-1.69108c-0.20127,-2.02384 -1.41467,-7.37106 -1.41467,-7.37106c0,0 2.98191,-2.625 3.375,-2.625c0.56725,0 2.42675,0.62899 3.09097,1.54179c0.5536,0.76078 -1.96597,2.70821 -1.96597,2.70821c0,0 -0.62799,1.81202 -0.70602,3.06911c-0.10264,1.65364 0.39352,5.93089 0.39352,5.93089c0,0 -0.93145,-0.37854 -1.38552,-0.21709c-0.48179,0.1713 -1.67698,0.90459 -1.67698,0.90459z" fill="#efe4cf" stroke="none" stroke-width="0" stroke-linecap="butt"/><path d="M237.42322,194.77855c0,0 0.4375,-3.43163 0.4375,-5.3125c0,-2.24265 -0.625,-7.375 -0.625,-7.375c0,0 0.45335,-0.375 0.6875,-0.375c0.24456,0 0.3125,-0.25 0.3125,-0.25c0,0 0.0625,5.52791 0.0625,7.75c0,1.9216 0.25,5.25 0.25,5.25z" fill="#8f6f46" stroke="none" stroke-width="0" stroke-linecap="butt"/><path d="M245.24508,194.05172v-2.04024c0,0 0.3591,-0.73871 0.5505,-0.73871c0.2086,0 0.58497,0.73871 0.58497,0.73871l-0.13793,2.14369c0,0 0.03311,1.04713 -0.20034,1.47271c-0.2325,0.42386 -0.73136,0.22617 -0.83292,0.22617c-0.19779,0 0.03572,-1.80233 0.03572,-1.80233z" fill="url(#color-1)" stroke="none" stroke-width="0" stroke-linecap="butt"/><path d="M245.17488,188.00847c0.10156,0 1.04869,0.25059 1.28119,0.67445c0.23344,0.42558 -0.00656,1.02444 -0.00656,1.02444l-0.10345,2.3161c0,0 -0.27293,-0.70957 -0.48153,-0.70957c-0.19139,0 -0.61946,0.81302 -0.61946,0.81302l-0.24138,-2.17818c0,0 -0.36897,-0.78762 -0.3878,-1.31733c-0.01099,-0.30917 0.48608,-0.62293 0.55898,-0.62293z" data-paper-data="{&quot;index&quot;:null}" fill="url(#color-2)" stroke="none" stroke-width="0" stroke-linecap="butt"/><path d="M247.21059,194.43103l0.03448,-2.10921c0,0 0.40829,-1.46876 0.65451,-2.58979c0.14122,-0.643 0.13657,-1.21788 0.20633,-1.21788c0.2086,0 0.48153,3.73871 0.48153,3.73871l0.27587,1.66093c0,0 -0.07035,0.94368 -0.30379,1.36926c-0.2325,0.42386 -1.17963,0.26066 -1.28119,0.26066c-0.02433,0 -0.06773,-1.11267 -0.06773,-1.11267z" fill="#efe4cf" stroke="none" stroke-width="0" stroke-linecap="butt"/><path d="M248.1404,187.9772c0,0 -0.5443,-1.30059 -0.57713,-1.90268c-0.03586,-0.65741 0.54265,-1.99387 0.54265,-1.99387l2.44827,0.93104c0,0 0.62392,2.15677 0.52847,2.75491c-0.06076,0.38077 -0.4595,0.58992 -0.4595,0.58992c0,0 -0.5661,0.44517 -1.0384,0.36917c-0.52259,-0.08409 -1.44436,-0.74848 -1.44436,-0.74848z" fill="#382a21" stroke="none" stroke-width="0" stroke-linecap="butt"/><path d="M248.48523,186.56341c0,0 -1.66466,-0.90782 -2.10232,-1.31422c-0.23855,-0.22151 -0.31148,-0.92716 -0.31148,-0.92716l0.62069,0.10345c0,0 0.53749,-0.30915 0.65912,-0.24017c0.35288,0.20014 1.65122,1.55051 1.65122,1.55051z" fill="#382a21" stroke="none" stroke-width="0" stroke-linecap="butt"/><path d="M238.58867,180.52893v-0.48275h0.93104v0.48275z" fill="#382a21" stroke="none" stroke-width="0" stroke-linecap="butt"/><path d="M238.9335,181.01169v-0.37931h0.51724v0.37931z" fill="#382a21" stroke="none" stroke-width="0" stroke-linecap="butt"/><path d="M237.10591,187.11514v-1.27586h0.41379v1.27586z" fill="#382a21" stroke="none" stroke-width="0" stroke-linecap="butt"/><path d="M238.58867,186.80479v-1.34482h0.41379v1.34482z" fill="#382a21" stroke="none" stroke-width="0" stroke-linecap="butt"/><path d="M238.62316,185.04617v-0.48276h0.44827v0.48276z" fill="#382a21" stroke="none" stroke-width="0" stroke-linecap="butt"/><path d="M231.03695,166.87415v-0.66706h0.58621v0.66706z" fill="#382a21" stroke="none" stroke-width="0" stroke-linecap="butt"/><path d="M229.79557,169.72433c0,0 -1.29415,-0.20371 -1.43207,-0.41298c-0.18267,-0.27715 0.08724,-1.17323 0.08724,-1.17323c0,0 1.63832,-1.97412 2.34526,-2.95016c0.31594,-0.43621 0.65248,-1.61778 0.96492,-1.62914c0.19733,-0.00718 0.81798,1.32977 1.2072,1.32284c0.60846,-0.01085 0.99985,-1.36422 0.99985,-1.36422c0,0 0.18207,0.80397 0.04593,1.24577c-0.16522,0.53613 -1.2711,1.02579 -1.71771,0.06638c-0.56598,-1.2158 -0.62651,-0.66659 -1.00091,0.1672c-0.30642,0.68241 -0.77558,1.79651 -0.77558,1.79651c0,0 -1.58063,1.05595 -1.66236,1.59661c-0.03414,0.22587 0.49094,0.50024 0.7551,0.79631c0.21896,0.24541 0.18313,0.53811 0.18313,0.53811z" fill="#382a21" stroke="none" stroke-width="0" stroke-linecap="butt"/><path d="M230.89902,169.14962c0,0 -0.52913,0.29359 -0.8693,0.37296c-0.34925,0.08149 -1.19967,-0.06261 -1.19967,-0.06261" fill="none" stroke="#8b6841" stroke-width="0.5" stroke-linecap="round"/><path d="M237.45074,180.88525v-0.55172h0.58621v0.55172z" fill="#382a21" stroke="none" stroke-width="0" stroke-linecap="butt"/><path d="M235.48523,181.50594v-1.51725h0.7931v1.51725z" fill="#382a21" stroke="none" stroke-width="0" stroke-linecap="butt"/><path d="M236.65764,181.09215v-0.44828h0.31034v0.44828z" fill="#382a21" stroke="none" stroke-width="0" stroke-linecap="butt"/><path d="M235.03695,180.09215v-0.48276h0.24138v0.48276z" fill="#382a21" stroke="none" stroke-width="0" stroke-linecap="butt"/><path d="M234.62316,181.33353v-1.10345h0.34482v1.10345z" fill="#382a21" stroke="none" stroke-width="0" stroke-linecap="butt"/><path d="M234.9335,182.54042v-0.44827h0.44827v0.44827z" fill="#382a21" stroke="none" stroke-width="0" stroke-linecap="butt"/><path d="M243.1404,183.95421v-0.58621h1.17242v0.58621z" fill="#382a21" stroke="none" stroke-width="0" stroke-linecap="butt"/><path d="M245.07143,179.43698v-0.51725h0.44827v0.51725z" fill="#382a21" stroke="none" stroke-width="0" stroke-linecap="butt"/><path d="M245.45074,184.05766v-1.06897h0.51724v1.06897z" fill="#382a21" stroke="none" stroke-width="0" stroke-linecap="butt"/><path d="M246.62316,183.33353v-0.62069h0.31034v0.62069z" fill="#382a21" stroke="none" stroke-width="0" stroke-linecap="butt"/><path d="M237.55419,178.85077v-0.34483h0.72414v0.34483z" fill="#382a21" stroke="none" stroke-width="0" stroke-linecap="butt"/><path d="M237.17488,177.88525v-0.31034h0.82758v0.31034z" fill="#382a21" stroke="none" stroke-width="0" stroke-linecap="butt"/><path d="M236.24385,176.88525v-0.62069h0.62069v0.62069z" fill="#382a21" stroke="none" stroke-width="0" stroke-linecap="butt"/><path d="M235.65764,175.16111v-0.41379h0.7931v0.41379z" fill="#382a21" stroke="none" stroke-width="0" stroke-linecap="butt"/><path d="M236.03695,174.43698v-0.86207h0.86207v0.86207z" fill="#382a21" stroke="none" stroke-width="0" stroke-linecap="butt"/><path d="M234.96798,173.47146v-1.06896h1.06897v1.06896z" fill="#382a21" stroke="none" stroke-width="0" stroke-linecap="butt"/><path d="M234.00247,174.7818v-1.13793h0.68966v1.13793z" fill="#382a21" stroke="none" stroke-width="0" stroke-linecap="butt"/><path d="M234.10591,172.43698v-0.86207h0.37931v0.86207z" fill="#382a21" stroke="none" stroke-width="0" stroke-linecap="butt"/><path d="M235.1404,171.9887v-1h0.41379v1z" fill="#382a21" stroke="none" stroke-width="0" stroke-linecap="butt"/><path d="M234.00247,170.95421v-0.65517h0.93104v0.65517z" fill="#382a21" stroke="none" stroke-width="0" stroke-linecap="butt"/><path d="M233.9335,169.82778v-1.13794h0.75862v1.13794z" fill="#382a21" stroke="none" stroke-width="0" stroke-linecap="butt"/><path d="M233.1404,166.10364v-0.48276h0.31035v0.48276z" fill="#382a21" stroke="none" stroke-width="0" stroke-linecap="butt"/><path d="M233.69212,166.44847v-0.31034h0.24138v0.31034z" fill="#382a21" stroke="none" stroke-width="0" stroke-linecap="butt"/><path d="M234.1404,167.34502v-0.65517h0.10345v0.65517z" fill="#382a21" stroke="none" stroke-width="0" stroke-linecap="butt"/><path d="M233.45074,167.82778v-0.13794h0.51724v0.13794z" fill="#382a21" stroke="none" stroke-width="0" stroke-linecap="butt"/><path d="M233.51971,168.86226v-0.82758h0.13793v0.82758z" fill="#382a21" stroke="none" stroke-width="0" stroke-linecap="butt"/><path d="M234.72661,177.34502v-0.82758h0.48275v0.82758z" fill="#382a21" stroke="none" stroke-width="0" stroke-linecap="butt"/><path d="M232.48523,166.48295v-0.44828h0.37931v0.44828z" fill="#382a21" stroke="none" stroke-width="0" stroke-linecap="butt"/><path d="M235.58867,178.5864v-0.55172h0.48276v0.55172z" fill="#382a21" stroke="none" stroke-width="0" stroke-linecap="butt"/><path d="M236.31281,177.96571v-0.34483h0.27586v0.34483z" fill="#382a21" stroke="none" stroke-width="0" stroke-linecap="butt"/><path d="M236.72661,179.48295v-0.48276h0.51724v0.48276z" fill="#382a21" stroke="none" stroke-width="0" stroke-linecap="butt"/><path d="M242.00246,180.20709v-1.27586h0.51724v1.27586z" fill="#382a21" stroke="none" stroke-width="0" stroke-linecap="butt"/><path d="M242.58867,178.48295v-0.48276h0.24138v0.48276z" fill="#382a21" stroke="none" stroke-width="0" stroke-linecap="butt"/><path d="M242.89902,179.96571v-1.03448h0.51725v1.03448z" fill="#382a21" stroke="none" stroke-width="0" stroke-linecap="butt"/><path d="M244.03695,179.5864v-0.55172h0.31034v0.55172z" fill="#382a21" stroke="none" stroke-width="0" stroke-linecap="butt"/><path d="M246.03695,181.20709v-0.58621h0.41379v0.58621z" fill="#382a21" stroke="none" stroke-width="0" stroke-linecap="butt"/><path d="M245.55419,180.5864v-0.82759h0.37931v0.82759z" fill="#382a21" stroke="none" stroke-width="0" stroke-linecap="butt"/><path d="M245.1404,181.34502v-0.55172h0.44827v0.55172z" fill="#382a21" stroke="none" stroke-width="0" stroke-linecap="butt"/><path d="M244.45074,181.7933v-0.51724h0.68965v0.51724z" fill="#382a21" stroke="none" stroke-width="0" stroke-linecap="butt"/><path d="M242.03695,181.20709v-0.41379h0.58621v0.41379z" fill="#382a21" stroke="none" stroke-width="0" stroke-linecap="butt"/><path d="M242.83005,181.20709v-0.72414h0.55172v0.72414z" fill="#382a21" stroke="none" stroke-width="0" stroke-linecap="butt"/><path d="M241.96798,184.13812v-1.34483h0.7931v1.34483z" fill="#382a21" stroke="none" stroke-width="0" stroke-linecap="butt"/><path d="M244.1404,185.60939v-0.72414h0.41379v0.72414z" fill="#382a21" stroke="none" stroke-width="0" stroke-linecap="butt"/><path d="M244.10591,184.50594v-0.37931h1.06897v0.37931z" fill="#382a21" stroke="none" stroke-width="0" stroke-linecap="butt"/><path d="M244.20936,182.60939v-0.17241h0.68966v0.17241z" fill="#382a21" stroke="none" stroke-width="0" stroke-linecap="butt"/><path d="M243.38178,183.26456v-0.44828h0.62069v0.44828z" fill="#382a21" stroke="none" stroke-width="0" stroke-linecap="butt"/><path d="M243.07143,182.74732v-0.24138h0.41379v0.24138z" fill="#382a21" stroke="none" stroke-width="0" stroke-linecap="butt"/><path d="M242.65764,182.26456v-0.44828h0.51724v0.44828z" fill="#382a21" stroke="none" stroke-width="0" stroke-linecap="butt"/><path d="M241.41626,182.36801v-0.65517h0.7931v0.65517z" fill="#382a21" stroke="none" stroke-width="0" stroke-linecap="butt"/><path d="M240.00247,181.50594v-0.93103h0.58621v0.93103z" fill="#382a21" stroke="none" stroke-width="0" stroke-linecap="butt"/><path d="M238.96798,183.43697v-1.75862h0.44828v1.75862z" fill="#382a21" stroke="none" stroke-width="0" stroke-linecap="butt"/><path d="M239.62315,182.85077v-0.58621h0.17241v0.58621z" fill="#382a21" stroke="none" stroke-width="0" stroke-linecap="butt"/><path d="M235.58867,185.16111v-1.34483h0.51724v1.34483z" fill="#382a21" stroke="none" stroke-width="0" stroke-linecap="butt"/><path d="M239.62315,185.35651v-0.58621h0.37931v0.58621z" fill="#382a21" stroke="none" stroke-width="0" stroke-linecap="butt"/><path d="M240.38178,184.63237v-0.41379h0.34483v0.41379z" fill="#382a21" stroke="none" stroke-width="0" stroke-linecap="butt"/><path d="M240.1404,183.90824v-0.34483h0.31034v0.34483z" fill="#382a21" stroke="none" stroke-width="0" stroke-linecap="butt"/><path d="M240.34729,183.1841v-0.62069h0.44828v0.62069z" fill="#382a21" stroke="none" stroke-width="0" stroke-linecap="butt"/><path d="M241.00247,183.83927v-0.89655h0.48276v0.89655z" fill="#382a21" stroke="none" stroke-width="0" stroke-linecap="butt"/><path d="M240.62315,180.49444v-0.82759h0.82759v0.82759z" fill="#382a21" stroke="none" stroke-width="0" stroke-linecap="butt"/><path d="M240.7266,179.35651v-0.51724h0.62069v0.51724z" fill="#382a21" stroke="none" stroke-width="0" stroke-linecap="butt"/><path d="M240.96798,178.49444v-0.55172h0.41379v0.55172z" fill="#382a21" stroke="none" stroke-width="0" stroke-linecap="butt"/><path d="M240.69212,177.83927v-0.41379h0.68966v0.41379z" fill="#382a21" stroke="none" stroke-width="0" stroke-linecap="butt"/><path d="M239.00247,179.1841v-1.2069h0.86207v1.2069z" fill="#382a21" stroke="none" stroke-width="0" stroke-linecap="butt"/><path d="M239.7266,177.52893v-0.68966h0.65517v0.68966z" fill="#382a21" stroke="none" stroke-width="0" stroke-linecap="butt"/><path d="M239.58867,176.63237v-0.2069h0.37931v0.2069z" fill="#382a21" stroke="none" stroke-width="0" stroke-linecap="butt"/><path d="M238.58867,177.25306v-0.7931h0.44828v0.7931z" fill="#382a21" stroke="none" stroke-width="0" stroke-linecap="butt"/><path d="M237.65764,177.32203v-0.41379h0.37931v0.41379z" fill="#382a21" stroke="none" stroke-width="0" stroke-linecap="butt"/><path d="M237.27833,176.73582v-0.44828h0.34483v0.44828z" fill="#382a21" stroke="none" stroke-width="0" stroke-linecap="butt"/><path d="M237.58867,176.11513v-0.31034h0.34483v0.31034z" fill="#382a21" stroke="none" stroke-width="0" stroke-linecap="butt"/><path d="M234.69212,176.32203v-0.51724h0.68966v0.51724z" fill="#382a21" stroke="none" stroke-width="0" stroke-linecap="butt"/><path d="M234.62315,179.56341v-1.68966h0.55172v1.68966z" fill="#382a21" stroke="none" stroke-width="0" stroke-linecap="butt"/><path d="M236.20936,182.42548v-0.55172h0.65517v0.55172z" fill="#382a21" stroke="none" stroke-width="0" stroke-linecap="butt"/><path d="M244.17488,187.1841v-0.96552h0.72414v0.96552z" fill="#382a21" stroke="none" stroke-width="0" stroke-linecap="butt"/><path d="M242.65764,185.49444v-1.03448h0.68966v1.03448z" fill="#382a21" stroke="none" stroke-width="0" stroke-linecap="butt"/><path d="M246.07143,187.90824v-1h0.58621v1z" fill="#382a21" stroke="none" stroke-width="0" stroke-linecap="butt"/><path d="M245.79557,192.391v-1.34483h0.34483v1.34483z" fill="#382a21" stroke="none" stroke-width="0" stroke-linecap="butt"/><path d="M245.34729,190.52893v-0.82759h0.65517v0.82759z" fill="#382a21" stroke="none" stroke-width="0" stroke-linecap="butt"/><path d="M245.41626,188.94272v-0.48276h0.2069v0.48276z" fill="#382a21" stroke="none" stroke-width="0" stroke-linecap="butt"/><path d="M244.76109,188.08065v-0.34483h0.27586v0.34483z" fill="#382a21" stroke="none" stroke-width="0" stroke-linecap="butt"/><path d="M245.89902,189.11513v-0.75862h0.44828v0.75862z" fill="#382a21" stroke="none" stroke-width="0" stroke-linecap="butt"/><path d="M247.62315,190.25306v-0.75862h0.48276v0.75862z" fill="#382a21" stroke="none" stroke-width="0" stroke-linecap="butt"/><path d="M247.34729,189.14962v-0.44828h0.55172v0.44828z" fill="#382a21" stroke="none" stroke-width="0" stroke-linecap="butt"/><path d="M246.96798,188.1841v-0.96552h0.72414v0.96552z" fill="#382a21" stroke="none" stroke-width="0" stroke-linecap="butt"/><path d="M247.51971,191.391v-0.44828h0.44828v0.44828z" fill="#382a21" stroke="none" stroke-width="0" stroke-linecap="butt"/><path d="M245.48522,185.73582v-0.7931h0.58621v0.7931z" fill="#382a21" stroke="none" stroke-width="0" stroke-linecap="butt"/><path d="M245.76109,182.70134v-0.68966h0.41379v0.68966z" fill="#382a21" stroke="none" stroke-width="0" stroke-linecap="butt"/><path d="M237.07143,175.12663v-0.44828h0.37931v0.44828z" fill="#382a21" stroke="none" stroke-width="0" stroke-linecap="butt"/><path d="M238.34729,175.71283v-0.2069h0.37931v0.2069z" fill="#382a21" stroke="none" stroke-width="0" stroke-linecap="butt"/><path d="M237.86453,175.29904v-0.44828h0.13793v0.44828z" fill="#382a21" stroke="none" stroke-width="0" stroke-linecap="butt"/><path d="M235.86453,176.12663v-0.31034h0.37931v0.31034z" fill="#382a21" stroke="none" stroke-width="0" stroke-linecap="butt"/><path d="M233.1404,167.27605v-0.41379h0.27586v0.41379z" fill="#382a21" stroke="none" stroke-width="0" stroke-linecap="butt"/><path d="M237.9335,183.83927v-0.44828h0.34483v0.44828z" fill="#382a21" stroke="none" stroke-width="0" stroke-linecap="butt"/><path d="M237.62315,182.77031v-0.51724h0.7931v0.51724z" fill="#382a21" stroke="none" stroke-width="0" stroke-linecap="butt"/><path d="M238.17488,182.14962v-0.48276h0.37931v0.48276z" fill="#382a21" stroke="none" stroke-width="0" stroke-linecap="butt"/><path d="M238.58867,181.59789v-0.48276h0.34483v0.48276z" fill="#382a21" stroke="none" stroke-width="0" stroke-linecap="butt"/><path d="M236.27833,179.21858v-0.55172h0.27586v0.55172z" fill="#382a21" stroke="none" stroke-width="0" stroke-linecap="butt"/><path d="M244.00247,180.94272v-0.65517h0.24138v0.65517z" fill="#382a21" stroke="none" stroke-width="0" stroke-linecap="butt"/><path d="M243.51971,182.28755v-1.10345h0.34483v1.10345z" fill="#382a21" stroke="none" stroke-width="0" stroke-linecap="butt"/><path d="M243.24384,186.21858v-0.51724h0.68966v0.51724z" fill="#382a21" stroke="none" stroke-width="0" stroke-linecap="butt"/><path d="M241.9335,184.77031v-0.27586h0.31034v0.27586z" fill="#382a21" stroke="none" stroke-width="0" stroke-linecap="butt"/><path d="M236.17488,186.73582v-0.65517h0.34483v0.65517z" fill="#382a21" stroke="none" stroke-width="0" stroke-linecap="butt"/><path d="M236.76109,183.77031v-0.55172h0.13793v0.55172z" fill="#382a21" stroke="none" stroke-width="0" stroke-linecap="butt"/><path d="M239.34729,184.32203v-0.48276h0.48276v0.48276z" fill="#382a21" stroke="none" stroke-width="0" stroke-linecap="butt"/><path d="M236.27833,185.59789v-0.65517h0.62069v0.65517z" fill="#382a21" stroke="none" stroke-width="0" stroke-linecap="butt"/><path d="M237.17488,185.56341v-0.51724h0.34483v0.51724z" fill="#382a21" stroke="none" stroke-width="0" stroke-linecap="butt"/><path d="M237.10591,184.70134v-0.62069h0.34483v0.62069z" fill="#382a21" stroke="none" stroke-width="0" stroke-linecap="butt"/></g></g></svg>