<svg version="1.1" xmlns="http://www.w3.org/2000/svg" xmlns:xlink="http://www.w3.org/1999/xlink" width="24.8576" height="22.93988" viewBox="0,0,24.8576,22.93988"><defs><linearGradient x1="341.773" y1="338.20618" x2="341.773" y2="343.53361" gradientUnits="userSpaceOnUse" id="color-1"><stop offset="0" stop-color="#373c42"/><stop offset="1" stop-color="#6c4a4a"/></linearGradient><linearGradient x1="348.95884" y1="338.82565" x2="348.95884" y2="344.77255" gradientUnits="userSpaceOnUse" id="color-2"><stop offset="0" stop-color="#373c42"/><stop offset="1" stop-color="#6c4a4a"/></linearGradient><linearGradient x1="324.21105" y1="339.87874" x2="324.21105" y2="344.8345" gradientUnits="userSpaceOnUse" id="color-3"><stop offset="0" stop-color="#373c42"/><stop offset="1" stop-color="#6c4a4a"/></linearGradient><linearGradient x1="330.87034" y1="338.26812" x2="330.87034" y2="346.01148" gradientUnits="userSpaceOnUse" id="color-4"><stop offset="0" stop-color="#373c42"/><stop offset="1" stop-color="#6c4a4a"/></linearGradient><linearGradient x1="239.71667" y1="168.65506" x2="239.71667" y2="190.67831" gradientUnits="userSpaceOnUse" id="color-5"><stop offset="0" stop-color="#663d29"/><stop offset="1" stop-color="#301f17"/></linearGradient></defs><g transform="translate(-227.44843,-168.40506)"><g data-paper-data="{&quot;isPaintingLayer&quot;:true}" fill-rule="nonzero" stroke-linecap="butt" stroke-linejoin="miter" stroke-miterlimit="10" stroke-dasharray="" stroke-dashoffset="0" style="mix-blend-mode: normal"><path d="M237.36741,190.90991c0,0 -2.2029,-0.93846 -4.48174,-2.28099c-0.41788,-0.24618 -1.48083,-0.16812 -2.55297,-0.32571c-0.96223,-0.14144 -1.9578,-0.51158 -2.0676,-0.82605c-0.06952,-0.19912 0.68296,-0.5419 1.55082,-1.05175c0.64746,-0.38037 1.34434,-0.95719 1.89159,-1.07975c1.36603,-0.30594 3.27222,0.17896 3.10314,-0.29031c-0.74469,-2.06679 -2.6204,-3.37222 -4.00726,-4.88375c-1.1431,-1.24586 -1.93407,-3.03252 -1.66081,-2.00181c0.09767,0.3684 0.45014,-5.75369 0.55643,-5.37279c0.18684,0.66953 0.44422,4.11034 0.63994,4.32619c0.20406,0.22504 -0.36942,-8.12577 -0.08965,-7.79172c0.17324,0.20685 1.16559,5.38126 1.35155,5.51412c0.3481,0.24871 0.95961,-5.45755 1.32826,-5.11062c0.17945,0.16887 -0.13669,5.13676 0.05124,5.27574c0.2416,0.17867 0.61397,-3.8247 0.86624,-3.63555c0.09546,0.07158 0.3871,-0.37584 0.56329,-0.39543c0.22923,-0.02549 0.34963,0.37014 0.47547,0.47006c0.19031,0.15112 -0.42855,3.484 -0.23182,3.62255c0.20288,0.14286 0.65829,-1.46627 0.8659,-1.32804c0.21703,0.1445 0.1872,1.15851 0.41022,1.291c0.92898,0.5519 2.44379,0.39478 3.38643,0.71686c0.44387,0.15166 0.01669,-6.24582 0.46601,-6.06628c0.07062,0.02822 0.92824,1.01539 1.04437,2.14646c0.18579,1.80943 -0.35661,4.08454 -0.24374,4.1251c0.10356,0.03721 0.6532,-0.43521 0.86425,-1.21347c0.35666,-1.31517 0.44231,-3.38775 0.8396,-4.50589c0.19456,-0.54756 0.60026,-0.76806 0.68289,-0.73241c0.26578,0.11465 -0.65802,6.03706 -0.39709,6.14159c0.1183,0.04739 0.55001,0.2544 1.07155,-0.62058c0.70707,-1.18622 1.07925,-3.30204 1.55946,-4.22964c0.06626,-0.12798 0.51043,-0.5988 0.70659,-0.55678c0.28844,0.06179 0.34568,0.69005 0.37576,0.70452c0.29395,0.14142 -1.42052,4.4663 -1.14488,4.59891c0.28832,0.13871 2.06238,-2.97034 2.32015,-2.82727c0.03363,0.01866 0.42102,-0.40658 0.52799,-0.3606c0.10967,0.04715 -0.06178,0.56746 -0.08972,0.74653c-0.17971,1.15183 -1.25312,3.71283 -1.05895,3.82403c0.29543,0.16918 1.56148,-1.7288 1.79385,-1.57003c0.38484,0.26296 0.6773,1.1302 0.85785,1.34595c0.26643,0.31836 0.55642,4.95283 -0.39931,7.57933c-1.06846,2.9363 -3.72532,3.19075 -3.72532,3.19075c0,0 0.89335,0.86579 2.52158,1.28422c1.03235,0.2653 1.98338,0.41842 2.41666,0.64623c0.3629,0.1908 1.95875,0.3929 1.99992,0.94929c0.03668,0.49565 -2.06316,0.86192 -2.06316,0.86192c0,0 -4.97941,0.1204 -7.41653,0.13072c-2.47884,0.0105 -5.45846,-0.43488 -5.45846,-0.43488z" fill-opacity="0.5" fill="#000000" stroke="none" stroke-width="0"/><path d="" fill-opacity="0.5" fill="#000000" stroke="none" stroke-width="0"/><path d="" fill="#5e6669" stroke="#ffffff" stroke-width="0.5"/><path d="" fill="#464d55" stroke="none" stroke-width="0"/><path d="" fill="#464d55" stroke="none" stroke-width="0"/><path d="" fill="#464d55" stroke="none" stroke-width="0"/><path d="" fill="#464d55" stroke="none" stroke-width="0"/><path d="" fill="url(#color-1)" stroke="none" stroke-width="0"/><path d="" fill="url(#color-2)" stroke="none" stroke-width="0"/><path d="" fill="#464d55" stroke="none" stroke-width="0"/><path d="" fill="url(#color-3)" stroke="none" stroke-width="0"/><path d="" fill="url(#color-4)" stroke="none" stroke-width="0"/><path d="" fill="#ffffff" stroke="none" stroke-width="0"/><path d="" fill="#373c42" stroke="none" stroke-width="0"/><path d="M236.80074,190.24325c0,0 -2.2029,-0.93846 -4.48174,-2.28099c-0.41788,-0.24618 -1.48083,-0.16812 -2.55297,-0.32571c-0.96223,-0.14144 -1.9578,-0.51159 -2.0676,-0.82605c-0.06952,-0.19912 0.68296,-0.54189 1.55082,-1.05174c0.64746,-0.38037 1.34434,-0.95719 1.89159,-1.07976c1.36603,-0.30594 3.27222,0.17896 3.10314,-0.2903c-0.74469,-2.06679 -2.6204,-3.37222 -4.00726,-4.88375c-1.1431,-1.24586 -1.93407,-3.03253 -1.66081,-2.00181c0.09767,0.3684 0.45014,-5.75368 0.55643,-5.37278c0.18684,0.66953 0.44422,4.11034 0.63994,4.32619c0.20406,0.22504 -0.36942,-8.12577 -0.08965,-7.79172c0.17324,0.20685 1.16559,5.38127 1.35155,5.51413c0.3481,0.24871 0.95961,-5.45755 1.32826,-5.11062c0.17945,0.16887 -0.13669,5.13676 0.05124,5.27574c0.2416,0.17867 0.61397,-3.82471 0.86624,-3.63556c0.09546,0.07158 0.3871,-0.37583 0.56329,-0.39542c0.22923,-0.02549 0.34963,0.37013 0.47547,0.47006c0.19031,0.15112 -0.42855,3.484 -0.23182,3.62255c0.20288,0.14286 0.65829,-1.46627 0.8659,-1.32804c0.21703,0.1445 0.1872,1.15851 0.41022,1.291c0.92898,0.5519 2.44379,0.39478 3.38643,0.71686c0.44387,0.15166 0.01669,-6.24582 0.46601,-6.06628c0.07062,0.02822 0.92824,1.01539 1.04437,2.14646c0.18579,1.80943 -0.35661,4.08454 -0.24374,4.1251c0.10356,0.03721 0.6532,-0.43521 0.86425,-1.21347c0.35666,-1.31517 0.44231,-3.38775 0.8396,-4.50589c0.19456,-0.54756 0.60026,-0.76806 0.68289,-0.73241c0.26578,0.11465 -0.65802,6.03706 -0.39709,6.14159c0.1183,0.04739 0.55001,0.2544 1.07155,-0.62058c0.70707,-1.18622 1.07925,-3.30204 1.55946,-4.22964c0.06626,-0.12798 0.51043,-0.5988 0.70659,-0.55678c0.28844,0.06179 0.34568,0.69005 0.37576,0.70453c0.29395,0.14142 -1.42052,4.4663 -1.14488,4.59891c0.28832,0.13871 2.06238,-2.97034 2.32015,-2.82727c0.03363,0.01866 0.42102,-0.40658 0.52799,-0.3606c0.10967,0.04715 -0.06178,0.56746 -0.08972,0.74653c-0.17971,1.15183 -1.25312,3.71283 -1.05895,3.82403c0.29543,0.16918 1.56148,-1.7288 1.79385,-1.57003c0.38484,0.26296 0.6773,1.1302 0.85785,1.34595c0.26643,0.31836 0.55642,4.95283 -0.39931,7.57932c-1.06846,2.9363 -3.72531,3.19076 -3.72531,3.19076c0,0 0.89334,0.86579 2.52158,1.28422c1.03235,0.2653 1.98338,0.41842 2.41666,0.64623c0.3629,0.1908 1.95875,0.3929 1.99992,0.94929c0.03668,0.49565 -2.06316,0.86192 -2.06316,0.86192c0,0 -4.97941,0.1204 -7.41653,0.13072c-2.47884,0.0105 -5.45846,-0.43488 -5.45846,-0.43488z" fill="url(#color-5)" stroke="#ffffff" stroke-width="0.5"/><path d="M227.84866,186.8613l0.9,-0.63334l1.23334,-0.76667c0,0 -0.48702,0.91677 -0.25483,1.20297c0.2449,0.30186 1.42149,0.93036 1.42149,0.93036c0,0 -1.36548,-0.11845 -1.9646,-0.22629c-0.48981,-0.08817 -1.3354,-0.50704 -1.3354,-0.50704z" fill="#fbe1bb" stroke="none" stroke-width="0"/><path d="M231.44866,185.99463c0,0.25773 -0.20147,0.46667 -0.45,0.46667c-0.24853,0 -0.45,-0.20893 -0.45,-0.46667c0,-0.25773 0.20147,-0.46667 0.45,-0.46667c0.24853,0 0.45,0.20893 0.45,0.46667z" fill="#5f4330" stroke="none" stroke-width="0"/><path d="M245.84866,188.6613l-0.16667,-1l2.4,0.83333c0,0 1.61535,0.40102 2.5818,0.75918c0.71573,0.26524 1.0315,0.37365 1.00674,0.41158c-0.2103,0.32216 -2.08853,0.72924 -2.08853,0.72924c0,0 -1.54784,-0.59006 -2.21735,-0.88039c-0.56993,-0.24714 -1.51598,-0.85295 -1.51598,-0.85295z" fill="#f2d5b3" stroke="none" stroke-width="0"/><path d="M241.78199,179.01686l-0.76667,-0.43333c0,0 1.54911,-0.82095 2.36479,-1.13816c0.78298,-0.30449 2.16854,-0.49517 2.16854,-0.49517c0,0 0.19977,0.23837 0.54098,0.4546c0.35664,0.22601 1.12213,0.20067 1.12534,0.37874c0.00534,0.29655 -1.39836,0.20577 -1.18354,0.45786c0.2765,0.32446 1.36772,0.19579 1.38202,0.44975c0.02854,0.50659 -1.48456,0.40874 -1.38454,0.62128c0.11369,0.24158 1.11974,0.23777 1.11974,0.23777c0,0 -0.02447,0.54351 -0.95566,0.32068c-0.24052,-0.05755 -0.20595,1.25381 -0.49311,1.20574c-0.21935,-0.03671 -0.67733,0.35922 -0.90356,0.32182c-0.26199,-0.04332 -0.78783,-0.05987 -1.03685,-0.11733c-0.30369,-0.07008 -0.10597,-0.47562 -0.39806,-0.54875c-0.20431,-0.05116 -0.66768,-0.00375 -0.85323,-0.05756c-0.28373,-0.08229 0.07985,-0.49439 -0.16666,-0.56712c-0.72166,-0.2129 -0.80717,-0.19919 -1.06867,-0.31307c-0.38141,-0.1661 0.50913,-0.77775 0.50913,-0.77775z" fill="#c49e89" stroke="none" stroke-width="0"/><path d="M242.71532,184.41686v-1.16667h1.2v1.16667z" fill="#c49e89" stroke="none" stroke-width="0"/><path d="M231.61532,176.21686v-0.43333h1.43333v0.43333z" fill="#c49e89" stroke="none" stroke-width="0"/><path d="M231.78199,176.78352v-0.36667h1.93333v0.36667z" fill="#c49e89" stroke="none" stroke-width="0"/><path d="M234.14866,176.85019v-0.56667h1.26667v0.56667z" fill="#c49e89" stroke="none" stroke-width="0"/><path d="M234.61532,176.25019v-0.7h2.7v0.7z" fill="#c49e89" stroke="none" stroke-width="0"/><path d="M233.11532,175.65019v-0.5h1.23333v0.5z" fill="#c49e89" stroke="none" stroke-width="0"/><path d="M229.98199,178.21686v-1.36667h1.4v1.36667z" fill="#c49e89" stroke="none" stroke-width="0"/><path d="M233.98199,179.90574v-2.33333h1.96667v2.33333z" fill="#c49e89" stroke="none" stroke-width="0"/><path d="M245.91532,183.21686v-1.16667h1.2v1.16667z" fill="#c49e89" stroke="none" stroke-width="0"/><path d="M241.24866,182.48352v-1.16666h1.2v1.16666z" fill="#c49e89" stroke="none" stroke-width="0"/></g></g></svg>