<svg version="1.1" xmlns="http://www.w3.org/2000/svg" xmlns:xlink="http://www.w3.org/1999/xlink" width="24.74401" height="26.05624" viewBox="0,0,24.74401,26.05624"><defs><linearGradient x1="240" y1="180.00001" x2="240" y2="180.00001" gradientUnits="userSpaceOnUse" id="color-1"><stop offset="0" stop-color="#373c42"/><stop offset="1" stop-color="#6c4a4a"/></linearGradient><linearGradient x1="240" y1="180.00001" x2="240" y2="180.00001" gradientUnits="userSpaceOnUse" id="color-2"><stop offset="0" stop-color="#373c42"/><stop offset="1" stop-color="#6c4a4a"/></linearGradient><linearGradient x1="240" y1="180.00001" x2="240" y2="180.00001" gradientUnits="userSpaceOnUse" id="color-3"><stop offset="0" stop-color="#373c42"/><stop offset="1" stop-color="#6c4a4a"/></linearGradient><linearGradient x1="240" y1="180.00001" x2="240" y2="180.00001" gradientUnits="userSpaceOnUse" id="color-4"><stop offset="0" stop-color="#373c42"/><stop offset="1" stop-color="#6c4a4a"/></linearGradient><linearGradient x1="238.53564" y1="167.01141" x2="238.53564" y2="191.92389" gradientUnits="userSpaceOnUse" id="color-5"><stop offset="0" stop-color="#747275"/><stop offset="1" stop-color="#303741"/></linearGradient><linearGradient x1="238.94708" y1="178.20715" x2="238.94708" y2="192.16301" gradientUnits="userSpaceOnUse" id="color-6"><stop offset="0" stop-color="#151a1f" stop-opacity="0"/><stop offset="1" stop-color="#151a1f"/></linearGradient><linearGradient x1="238.76807" y1="178.9907" x2="251.42787" y2="178.9907" gradientUnits="userSpaceOnUse" id="color-7"><stop offset="0" stop-color="#171516" stop-opacity="0"/><stop offset="1" stop-color="#171516"/></linearGradient><linearGradient x1="249.38537" y1="171.40462" x2="249.38537" y2="173.07129" gradientUnits="userSpaceOnUse" id="color-8"><stop offset="0" stop-color="#747275"/><stop offset="1" stop-color="#747275" stop-opacity="0"/></linearGradient><linearGradient x1="233.76367" y1="175.53696" x2="233.76367" y2="188.96446" gradientUnits="userSpaceOnUse" id="color-9"><stop offset="0" stop-color="#171516"/><stop offset="1" stop-color="#171516" stop-opacity="0"/></linearGradient></defs><g transform="translate(-227.503,-166.84688)"><g data-paper-data="{&quot;isPaintingLayer&quot;:true}" fill-rule="nonzero" stroke-linejoin="miter" stroke-miterlimit="10" stroke-dasharray="" stroke-dashoffset="0" style="mix-blend-mode: normal"><path d="M231.23961,192.67835c0,0 -0.36166,-3.04521 -0.57983,-4.00086c-0.18248,-0.79933 -1.36449,-1.02488 -1.84006,-2.9836c-0.76851,-3.16529 -0.02698,-5.7629 1.22891,-7.32985c1.25903,-1.57086 3.03338,-2.1071 3.03338,-2.1071c0,0 2.84423,0.33338 4.81877,-0.50718c1.30723,-0.5565 6.44871,-5.91878 8.90159,-7.22054c1.45997,-0.77481 3.11256,-1.03401 3.91866,0.02549c1.5874,2.08641 1.50593,6.98129 1.50593,6.98129c0,0 0.14531,1.15589 -0.34652,1.4827c-0.72936,0.48466 -1.70685,-0.26195 -1.66655,0.6005c0.05752,1.23108 0.54931,3.86492 0.06883,6.45421c-0.45768,2.46637 -1.38029,4.93024 -1.95684,6.32496c-0.29881,0.72285 -1.38582,1.15851 -1.38582,1.15851c0,0 0.43759,0.0068 -0.08306,0.01763c-0.22481,0.00468 -0.47619,0.01011 -0.71513,0.01608c-0.37313,0.00931 0.00505,0.01993 -0.15868,0.031c-0.09494,0.00642 -0.73851,-0.52928 -0.6369,-1.18489c0.16001,-1.03239 0.38014,-2.3621 0.08229,-2.3404c-0.23996,0.01748 -1.05998,2.46324 -1.65606,3.83184c-0.22429,0.51497 -1.29802,0.87743 -1.41607,0.90062c-0.10948,0.02151 0.47348,0.00187 0.09434,-0.03584c-0.55459,-0.05516 -1.28236,-0.14896 -1.84598,-0.20909c-0.38713,-0.0413 -0.13608,-0.06672 -0.25901,-0.05283c-0.12953,0.01464 -0.3216,-0.27979 0.10044,-0.83747c0.28891,-0.38178 0.60285,-0.88693 0.7991,-1.50077c0.62851,-1.96579 0.60577,-4.71284 0.37841,-4.67853c-0.3984,0.06012 -2.51076,1.54933 -2.96154,1.72917c-0.17273,0.06891 -0.47037,1.36475 -0.73582,2.35834c-0.15898,0.59506 -1.02736,1.16181 -1.12951,1.21158c-0.10586,0.05157 0.32051,-0.01817 -0.02913,-0.02085c-0.22965,-0.00176 -0.48306,-0.00915 -0.72236,-0.0142c-0.42924,-0.00904 0.06807,-0.01052 -0.05176,0.04162c-0.10111,0.04399 -0.98903,-0.30338 -0.99978,-0.62445c-0.00934,-0.27878 -0.02168,-0.53772 -0.1014,-0.50341c-0.14077,0.06059 -0.7576,1.6453 -0.88931,1.70974c-0.16829,0.08235 1.28924,0.1699 1.94022,0.44786c0.45285,0.19335 0.18467,0.60288 0.08978,0.64848c-1.64483,0.79049 -4.79354,0.18021 -4.79354,0.18021z" fill-opacity="0.5" fill="#000000" stroke="none" stroke-width="0" stroke-linecap="butt"/><path d="" fill-opacity="0.5" fill="#000000" stroke="none" stroke-width="0" stroke-linecap="butt"/><path d="" fill="#5e6669" stroke="#ffffff" stroke-width="0.5" stroke-linecap="butt"/><path d="" fill="#464d55" stroke="none" stroke-width="0" stroke-linecap="butt"/><path d="" fill="#464d55" stroke="none" stroke-width="0" stroke-linecap="butt"/><path d="" fill="#464d55" stroke="none" stroke-width="0" stroke-linecap="butt"/><path d="" fill="#464d55" stroke="none" stroke-width="0" stroke-linecap="butt"/><path d="" fill="url(#color-1)" stroke="none" stroke-width="0" stroke-linecap="butt"/><path d="" fill="url(#color-2)" stroke="none" stroke-width="0" stroke-linecap="butt"/><path d="" fill="#464d55" stroke="none" stroke-width="0" stroke-linecap="butt"/><path d="" fill="url(#color-3)" stroke="none" stroke-width="0" stroke-linecap="butt"/><path d="" fill="url(#color-4)" stroke="none" stroke-width="0" stroke-linecap="butt"/><path d="" fill="#ffffff" stroke="none" stroke-width="0" stroke-linecap="butt"/><path d="" fill="#373c42" stroke="none" stroke-width="0" stroke-linecap="butt"/><path d="M230.48515,191.92389c0,0 -0.36166,-3.04522 -0.57983,-4.00086c-0.18248,-0.79933 -1.3645,-1.02488 -1.84007,-2.9836c-0.76852,-3.16528 -0.02698,-5.7629 1.22891,-7.32984c1.25903,-1.57086 3.03338,-2.1071 3.03338,-2.1071c0,0 2.84423,0.33339 4.81877,-0.50718c1.30723,-0.55649 6.44871,-5.91879 8.90159,-7.22054c1.45997,-0.77481 3.11256,-1.03402 3.91866,0.02549c1.58739,2.0864 1.50593,6.98129 1.50593,6.98129c0,0 0.1453,1.15588 -0.34652,1.4827c-0.72936,0.48466 -1.70685,-0.26195 -1.66655,0.60051c0.05753,1.23108 0.54932,3.86493 0.06883,6.45421c-0.45768,2.46637 -1.38029,4.93024 -1.95684,6.32496c-0.29881,0.72285 -1.38581,1.15852 -1.38581,1.15852c0,0 0.43758,0.00679 -0.08307,0.01763c-0.22481,0.00468 -0.4762,0.01011 -0.71513,0.01608c-0.37313,0.00932 0.00505,0.01993 -0.15867,0.03101c-0.09493,0.00642 -0.73851,-0.52928 -0.6369,-1.18489c0.16001,-1.03239 0.38014,-2.36209 0.08229,-2.3404c-0.23996,0.01748 -1.05997,2.46324 -1.65606,3.83183c-0.22429,0.51497 -1.29803,0.87743 -1.41607,0.90063c-0.10948,0.02151 0.47347,0.00187 0.09434,-0.03584c-0.55459,-0.05516 -1.28236,-0.14896 -1.84598,-0.2091c-0.38712,-0.0413 -0.13608,-0.06672 -0.25901,-0.05283c-0.12953,0.01464 -0.32161,-0.27978 0.10043,-0.83747c0.28892,-0.38178 0.60285,-0.88693 0.79911,-1.50077c0.6285,-1.9658 0.60578,-4.71284 0.37841,-4.67852c-0.3984,0.06012 -2.51076,1.54933 -2.96154,1.72917c-0.17273,0.06891 -0.47037,1.36475 -0.73582,2.35834c-0.15898,0.59506 -1.02736,1.16182 -1.12951,1.21158c-0.10586,0.05157 0.32051,-0.01817 -0.02912,-0.02085c-0.22965,-0.00176 -0.48306,-0.00915 -0.72236,-0.01419c-0.42924,-0.00904 0.06807,-0.01052 -0.05175,0.04161c-0.10111,0.04399 -0.98903,-0.30338 -0.99979,-0.62445c-0.00934,-0.27878 -0.02168,-0.53772 -0.10139,-0.50341c-0.14077,0.06059 -0.7576,1.6453 -0.88931,1.70975c-0.16829,0.08235 1.28924,0.1699 1.94022,0.44785c0.45285,0.19336 0.18467,0.60288 0.08978,0.64848c-1.64483,0.7905 -4.79354,0.18021 -4.79354,0.18021z" fill="url(#color-5)" stroke="#ffffff" stroke-width="0.5" stroke-linecap="butt"/><path d="M230.82523,191.76263c0,0 -0.18522,-0.62362 -0.32923,-1.59508c-0.12684,-0.85561 -0.19605,-2.01953 -0.43803,-2.7257c-0.23763,-0.69348 -1.19436,-0.88035 -1.45869,-1.48316c-0.70549,-1.60889 -0.6815,-3.37881 -0.563,-4.53543c0.14198,-1.38575 1.01587,-3.2161 1.01587,-3.2161h20.24742c0,0 0.28847,1.4239 0.22618,2.91689c-0.06123,1.46767 -0.47104,2.99633 -0.72135,3.96815c-0.46389,1.801 -1.44949,4.43978 -1.44949,4.43978c0,0 -0.19993,0.73069 -0.91634,0.96873c-0.34996,0.11628 -0.77962,0.33274 -1.45361,-0.13185c-0.39073,-0.26934 -0.16864,-1.39357 -0.0588,-2.25558c0.07995,-0.62741 0.10043,-1.08901 -0.21811,-1.11256c-0.33376,-0.02468 -1.91737,4.52793 -2.22839,4.50709c-0.3135,-0.021 -0.33855,0.23227 -0.55375,0.27707c-0.80866,0.16835 -1.3005,0.39479 -2.13404,-0.19852c-0.44261,-0.31504 0.47465,-1.06024 0.90983,-2.2897c0.37753,-1.06659 0.49686,-2.23259 0.54109,-3.19345c0.03475,-0.75501 0.08877,-1.42714 -0.25878,-1.52885c-0.36161,-0.10583 -1.85986,0.89383 -2.68755,1.46339c-0.33295,0.22911 -0.41357,0.38863 -0.48974,0.37859c-0.3087,-0.04068 -0.58949,1.95319 -1.0453,2.80463c-0.52254,0.9761 -1.39274,0.65663 -1.7129,0.61966c-0.66897,-0.07723 -0.38668,-1.15719 -0.96615,-1.1736c-0.18683,-0.00529 -0.72901,0.91857 -0.82381,1.54736c-0.01629,0.10807 -0.19582,0.33663 -0.02394,0.45074c0.54532,0.36205 2.03519,0.60915 2.0671,0.77357c0.0661,0.34058 -1.99492,0.60968 -2.41841,0.60097c-1.14048,-0.02348 -2.05807,-0.27704 -2.05807,-0.27704z" fill="url(#color-6)" stroke="none" stroke-width="0" stroke-linecap="butt"/><path d="M239.5796,191.27179c0,0 0.70973,-0.78213 1.11834,-2.04411c0.35903,-1.10884 0.64032,-2.55392 0.63339,-3.25699c-0.00213,-0.21599 0.10561,-0.8274 -0.09565,-1.31299c-0.03043,-0.07341 -0.27759,-0.09025 -0.55729,0.00752c-0.90242,0.31544 -3.13945,2.01815 -3.29255,1.90825c-1.42208,-1.02083 -1.06456,-3.85778 -1.51218,-5.60184c-0.73556,-2.86593 2.73211,-6.74188 2.73211,-6.74188c0,0 2.49556,-2.36551 4.82152,-4.35648c1.09078,-0.93368 2.67338,-1.85751 3.37973,-2.239c1.15413,-0.62332 2.47007,-0.48877 3.16306,0.2674c0.53726,0.58624 0.59217,1.78354 0.59217,1.78354c0,0 -3.54061,0.69388 -3.50995,1.73105c0.01896,0.64158 0.50222,2.38223 1.07583,3.54331c0.40245,0.81462 0.79528,1.06841 1.15754,1.8203c0.18358,0.38104 0.07828,0.67477 0.14022,1.09082c0.16071,1.0795 0.261,2.30823 0.16731,3.45996c-0.36801,4.52399 -2.60167,9.0755 -2.60167,9.0755c0,0 -0.89837,0.23172 -1.34977,0.24657c-0.05368,0.00177 -0.65251,0.03535 -0.78496,-0.5406c-0.23007,-1.00042 0.07297,-2.91181 -0.0836,-2.90968c-0.6261,0.00852 -1.66909,3.914 -2.56748,4.43067c-1.81786,1.04547 -2.62613,-0.36133 -2.62613,-0.36133z" fill="url(#color-7)" stroke="none" stroke-width="0" stroke-linecap="butt"/><path d="M249.12798,176.68193c0,0 -1.24946,-1.61129 -1.60171,-2.53828c-0.37123,-0.97693 -0.57174,-3.18133 -0.57174,-3.18133c0,0 1.22018,-0.81981 1.83028,-1.02953c0.61009,-0.20972 1.83028,-0.22878 1.83028,-0.22878c0,0 0.64954,2.35306 0.73895,3.47566c0.08143,1.0224 -0.22418,2.9875 -0.22418,2.9875c0,0 -0.96051,0.09401 -1.21298,0.12206c-0.46611,0.05179 -0.78889,0.3927 -0.78889,0.3927z" fill="#31363b" stroke="none" stroke-width="0" stroke-linecap="butt"/><path d="M248.32724,172.15478c0,0 0.71068,-0.5471 1.08349,-0.64786c0.32643,-0.08822 1.26155,0.26656 1.26155,0.26656" fill="none" stroke="url(#color-8)" stroke-width="0.5" stroke-linecap="round"/><path d="M248.32724,173.70773c0,0 -0.12663,-0.21575 -0.12663,-0.33828c0,-0.12526 0.12663,-0.40527 0.12663,-0.40527c0,0 0.24838,-0.17729 0.38316,-0.17729c0.13208,0 0.41758,0.17729 0.41758,0.17729c0,0 0.10131,0.27628 0.10131,0.40527c0,0.11785 -0.10131,0.33828 -0.10131,0.33828c0,0 -0.35081,0.17729 -0.49356,0.17729c-0.1203,0 -0.30718,-0.17729 -0.30718,-0.17729z" fill="#1a1d20" stroke="none" stroke-width="0" stroke-linecap="butt"/><path d="M250.03474,173.51571c0,0 -0.12663,-0.21574 -0.12663,-0.33828c0,-0.12526 0.12663,-0.40527 0.12663,-0.40527c0,0 0.24838,-0.17729 0.38316,-0.17729c0.13208,0 0.41758,0.17729 0.41758,0.17729c0,0 0.10131,0.27628 0.10131,0.40527c0,0.11785 -0.10131,0.33828 -0.10131,0.33828c0,0 -0.35081,0.17728 -0.49356,0.17728c-0.1203,0 -0.30718,-0.17728 -0.30718,-0.17728z" fill="#1a1d20" stroke="none" stroke-width="0" stroke-linecap="butt"/><path d="M250.68589,175.0157c0,0 -0.56152,0.07598 -0.86111,0.07598c-0.30802,0 -0.96242,-0.07598 -0.96242,-0.07598" fill="none" stroke="#1a1d20" stroke-width="0.5" stroke-linecap="round"/><path d="M234.43994,188.13389c0,0 -0.56104,-2.7797 -0.73672,-5.40687c-0.08508,-1.2723 -0.75102,-2.1303 -0.77383,-2.90163c-0.04546,-1.53684 0.21211,-4.01157 0.21211,-4.01157l1.24434,-0.06922c0,0 -0.54102,2.08305 -0.54102,3.59912c0,0.83986 0.21636,2.28025 0.43067,3.72494c0.41667,2.80893 0.59726,4.58073 0.59726,4.58073z" fill="url(#color-9)" stroke="none" stroke-width="0" stroke-linecap="butt"/></g></g></svg>