<svg version="1.1" xmlns="http://www.w3.org/2000/svg" xmlns:xlink="http://www.w3.org/1999/xlink" width="26.12595" height="19.66622" viewBox="0,0,26.12595,19.66622"><defs><linearGradient x1="240" y1="180" x2="240" y2="180" gradientUnits="userSpaceOnUse" id="color-1"><stop offset="0" stop-color="#373c42"/><stop offset="1" stop-color="#6c4a4a"/></linearGradient><linearGradient x1="240" y1="180" x2="240" y2="180" gradientUnits="userSpaceOnUse" id="color-2"><stop offset="0" stop-color="#373c42"/><stop offset="1" stop-color="#6c4a4a"/></linearGradient><linearGradient x1="240" y1="180" x2="240" y2="180" gradientUnits="userSpaceOnUse" id="color-3"><stop offset="0" stop-color="#373c42"/><stop offset="1" stop-color="#6c4a4a"/></linearGradient><linearGradient x1="240" y1="180" x2="240" y2="180" gradientUnits="userSpaceOnUse" id="color-4"><stop offset="0" stop-color="#373c42"/><stop offset="1" stop-color="#6c4a4a"/></linearGradient><linearGradient x1="243.94867" y1="173.45517" x2="243.94867" y2="182.62247" gradientUnits="userSpaceOnUse" id="color-5"><stop offset="0" stop-color="#736d73"/><stop offset="1" stop-color="#736d73" stop-opacity="0"/></linearGradient><linearGradient x1="246.25224" y1="182.91945" x2="246.25224" y2="188.02659" gradientUnits="userSpaceOnUse" id="color-6"><stop offset="0" stop-color="#716968" stop-opacity="0"/><stop offset="1" stop-color="#716968"/></linearGradient><linearGradient x1="235.85939" y1="181.38374" x2="235.85939" y2="188.77659" gradientUnits="userSpaceOnUse" id="color-7"><stop offset="0" stop-color="#716968" stop-opacity="0"/><stop offset="1" stop-color="#716968"/></linearGradient></defs><g transform="translate(-226.81203,-170.04293)"><g data-paper-data="{&quot;isPaintingLayer&quot;:true}" fill-rule="nonzero" stroke-linejoin="miter" stroke-miterlimit="10" stroke-dasharray="" stroke-dashoffset="0" style="mix-blend-mode: normal"><path d="M229.48796,177.37422c0,0 -2.25883,0.98174 -1.92869,-2.17687c0.09743,-0.93218 0.91802,-1.2882 1.46195,-1.96672c0.39111,-0.48787 0.56674,-1.45641 0.56674,-1.45641c0,0 0.33649,-0.96736 1.23746,-0.52656c0.63599,0.31116 -0.12116,1.02656 0.56255,1.02656c0.1696,0 0.83659,-1.28907 1.0023,-1.26883c0.51121,0.06242 0.71252,1.08757 1.17232,1.45094c1.02789,0.81233 2.34823,1.31553 4.22526,1.61863c2.5839,0.41725 6.62307,-0.06781 8.31231,0.77482c0.77901,0.38859 4.28781,5.02443 4.28781,5.02443c0,0 0.9171,-0.04365 1.33528,0.08754c0.43141,0.13535 1.21472,0.71246 1.21472,0.71246c0,0 -0.25175,0.67337 -0.2565,0.71518c-0.03629,0.31945 -0.2477,1.71535 -1.19202,1.9899c-1.20261,0.34964 -3.41958,-0.77078 -4.64645,-1.58772c-0.44781,-0.29819 1.44735,2.31895 0.99953,2.18782c-0.19949,-0.05841 -0.3251,1.7224 -0.32309,3.10686c0.00119,0.8183 0.16315,1.47489 0.06611,1.59433c-0.35014,0.43094 -1.4106,0.18976 -1.56076,0.13761c-0.15028,-0.05219 -1.51757,-0.12399 -1.59499,-0.51759c-0.03206,-0.163 0.51648,-0.47801 0.78301,-1.37575c0.35411,-1.19271 0.42906,-3.03145 0.11348,-3.18132c-0.67311,-0.31967 -0.54565,-0.27893 -1.19569,-0.44577c-0.19358,-0.04968 0.58292,1.92598 0.3556,3.26206c-0.17725,1.04176 -1.3288,1.47065 -1.65287,1.70804c-0.73532,0.53862 -1.26264,0.26788 -1.54642,0.16772c-0.41871,-0.14778 1.91125,-2.10008 1.49273,-2.25655c-0.52006,-0.19443 -0.74066,-1.73237 -1.25691,-1.91066c-0.56462,-0.195 -0.38119,-1.76514 -0.9447,-1.90368c-0.62505,-0.15368 -1.59294,-0.26851 -2.19616,-0.33531c-0.14929,-0.01653 -0.57855,1.29345 -0.68148,2.77239c-0.12531,1.80054 0.07807,3.83429 -0.09872,3.81213c-0.3333,-0.04178 -0.40827,0.63047 -0.88503,0.95272c-0.31689,0.2142 -1.06248,0.13421 -1.26633,0.09442c-0.6344,-0.12381 -0.43637,-1.11493 -0.99437,-1.27549c-0.37081,-0.1067 -0.72222,-0.62071 -1.05081,-0.7425c-0.1349,-0.05 -0.20352,-0.42026 0.00305,-0.76645c0.17673,-0.29618 0.6353,-0.57475 0.53078,-0.62004c-0.41224,-0.17863 -0.18595,-0.9972 -0.24254,-2.08539c-0.06905,-1.3277 -0.38818,-2.95907 -0.65952,-3.09502c-1.20057,-0.60153 -3.54892,-3.70194 -3.54892,-3.70194z" fill-opacity="0.5" fill="#000000" stroke="none" stroke-width="0" stroke-linecap="butt"/><path d="" fill-opacity="0.5" fill="#000000" stroke="none" stroke-width="0" stroke-linecap="butt"/><path d="" fill="#5e6669" stroke="#ffffff" stroke-width="0.5" stroke-linecap="butt"/><path d="" fill="#464d55" stroke="none" stroke-width="0" stroke-linecap="butt"/><path d="" fill="#464d55" stroke="none" stroke-width="0" stroke-linecap="butt"/><path d="" fill="#464d55" stroke="none" stroke-width="0" stroke-linecap="butt"/><path d="" fill="#464d55" stroke="none" stroke-width="0" stroke-linecap="butt"/><path d="" fill="url(#color-1)" stroke="none" stroke-width="0" stroke-linecap="butt"/><path d="" fill="url(#color-2)" stroke="none" stroke-width="0" stroke-linecap="butt"/><path d="" fill="#464d55" stroke="none" stroke-width="0" stroke-linecap="butt"/><path d="" fill="url(#color-3)" stroke="none" stroke-width="0" stroke-linecap="butt"/><path d="" fill="url(#color-4)" stroke="none" stroke-width="0" stroke-linecap="butt"/><path d="" fill="#ffffff" stroke="none" stroke-width="0" stroke-linecap="butt"/><path d="" fill="#373c42" stroke="none" stroke-width="0" stroke-linecap="butt"/><path d="M229.02367,176.65993c0,0 -2.25882,0.98174 -1.92869,-2.17687c0.09743,-0.93218 0.91801,-1.2882 1.46195,-1.96672c0.39111,-0.48787 0.56674,-1.45641 0.56674,-1.45641c0,0 0.33649,-0.96737 1.23746,-0.52656c0.63599,0.31116 -0.12116,1.02656 0.56255,1.02656c0.1696,0 0.83659,-1.28907 1.0023,-1.26884c0.51121,0.06242 0.71252,1.08757 1.17232,1.45094c1.02789,0.81233 2.34823,1.31554 4.22526,1.61864c2.5839,0.41725 6.62306,-0.06781 8.3123,0.77482c0.77901,0.38859 4.28782,5.02443 4.28782,5.02443c0,0 0.9171,-0.04365 1.33528,0.08754c0.43141,0.13535 1.21472,0.71246 1.21472,0.71246c0,0 -0.25175,0.67337 -0.2565,0.71518c-0.03629,0.31945 -0.2477,1.71535 -1.19202,1.9899c-1.20261,0.34964 -3.41958,-0.77078 -4.64645,-1.58773c-0.44781,-0.29819 1.44735,2.31895 0.99953,2.18782c-0.19949,-0.05841 -0.3251,1.7224 -0.32309,3.10686c0.00119,0.8183 0.16315,1.47489 0.06611,1.59433c-0.35014,0.43094 -1.41059,0.18976 -1.56076,0.13761c-0.15028,-0.05219 -1.51757,-0.12399 -1.595,-0.51759c-0.03206,-0.163 0.51648,-0.47801 0.78301,-1.37575c0.35411,-1.19271 0.42906,-3.03145 0.11348,-3.18132c-0.67311,-0.31967 -0.54565,-0.27893 -1.19569,-0.44577c-0.19358,-0.04968 0.58292,1.92598 0.3556,3.26206c-0.17725,1.04176 -1.3288,1.47066 -1.65287,1.70804c-0.73532,0.53862 -1.26264,0.26788 -1.54642,0.16772c-0.41871,-0.14778 1.91126,-2.10008 1.49274,-2.25655c-0.52006,-0.19443 -0.74066,-1.73237 -1.25691,-1.91067c-0.56462,-0.195 -0.38119,-1.76514 -0.9447,-1.90368c-0.62505,-0.15368 -1.59294,-0.26851 -2.19616,-0.33531c-0.14929,-0.01653 -0.57855,1.29345 -0.68148,2.77239c-0.12531,1.80054 0.07807,3.83429 -0.09872,3.81213c-0.3333,-0.04178 -0.40827,0.63047 -0.88503,0.95272c-0.31689,0.2142 -1.06248,0.13421 -1.26633,0.09443c-0.6344,-0.12381 -0.43637,-1.11493 -0.99437,-1.27549c-0.37081,-0.1067 -0.72222,-0.6207 -1.05081,-0.7425c-0.1349,-0.05 -0.20352,-0.42027 0.00305,-0.76645c0.17673,-0.29618 0.6353,-0.57475 0.53078,-0.62004c-0.41224,-0.17863 -0.18595,-0.9972 -0.24254,-2.08539c-0.06905,-1.3277 -0.38818,-2.95906 -0.65952,-3.09501c-1.20057,-0.60153 -3.54892,-3.70195 -3.54892,-3.70195z" fill="#9e948e" stroke="#ffffff" stroke-width="0.5" stroke-linecap="butt"/><path d="M227.6451,174.00279c0,0 -0.06512,-0.20294 0.13432,-0.44157c0.28503,-0.34104 0.88702,-0.79221 1.08875,-1.14524c0.13801,-0.24153 0.27242,-0.80808 0.41182,-1.21275c0.08893,-0.25816 0.22224,-0.45044 0.22224,-0.45044c0,0 0.47435,-0.26656 0.84086,0.02078c0.2039,0.15986 0.2018,0.9597 0.47955,0.94998c0.12916,-0.00452 0.39889,-0.17962 0.6196,-0.46181c0.20661,-0.26416 0.29001,-0.77827 0.49757,-0.81448c0.37323,-0.0651 0.44833,0.25637 0.60923,0.56701c0.18635,0.35977 0.52262,0.88442 0.91518,1.21811c0.92318,0.78474 2.71659,1.12756 2.71659,1.12756c0,0 -0.86076,1.49166 -1.19332,2.07854c-0.25184,0.44443 -0.77097,1.10003 -0.77097,1.10003z" fill="#9d9593" stroke="none" stroke-width="0" stroke-linecap="butt"/><path d="M231.82367,179.66945c0,0 -0.73396,-0.90949 -1.54969,-1.83628c-0.38873,-0.44165 -0.76842,-0.94245 -1.14766,-1.24752c-0.27024,-0.21739 -0.8046,0.08155 -0.98131,0.08197c-0.34115,0.00081 -0.40449,-0.27992 -0.62759,-0.56576c-0.30679,-0.39308 -0.38005,-0.99541 -0.2758,-1.49864c0.06912,-0.33364 0.29633,-0.68377 0.29633,-0.68377c0,0 1.46958,-0.05595 2.30754,0.26432c1.25937,0.48133 4.40675,2.44996 4.40675,2.44996c0,0 -0.46754,0.69187 -0.52748,1.24703c-0.12047,1.11595 -0.22252,5.21725 -0.22252,5.21725c0,0 -0.30836,-2.02675 -0.60861,-2.58437c-0.28193,-0.52357 -1.06995,-0.8442 -1.06995,-0.8442z" fill="#cdc8c2" stroke="none" stroke-width="0" stroke-linecap="butt"/><path d="M227.28796,175.47473c0,0 -0.17857,-0.24829 -0.17857,-0.3767c0,-0.13436 0.17857,-0.41242 0.17857,-0.41242c0,0 0.24187,-0.14796 0.3699,-0.14796c0.16049,0 0.51785,0.14796 0.51785,0.14796c0,0 0.14796,0.3052 0.14796,0.44387c0,0.1223 -0.14796,0.34524 -0.14796,0.34524c0,0 -0.31023,0.1233 -0.44387,0.1233c-0.15814,0 -0.44388,-0.1233 -0.44388,-0.1233z" fill="#444446" stroke="none" stroke-width="0" stroke-linecap="butt"/><path d="M230.03796,173.43731c0,0.12821 -0.11992,0.23214 -0.26785,0.23214c-0.14794,0 -0.26786,-0.10393 -0.26786,-0.23214c0,-0.12821 0.11993,-0.23214 0.26786,-0.23214c0.14794,0 0.26785,0.10393 0.26785,0.23214z" fill="#444446" stroke="none" stroke-width="0" stroke-linecap="butt"/><path d="M246.43081,180.91945c0,0 -0.16612,-0.55018 0.08854,-1.46944c0.23115,-0.83441 1.66146,-2.10199 1.66146,-2.10199l1.64286,1.85714c0,0 1.47986,0.17114 1.92765,0.35934c0.34848,0.14646 0.53664,0.67637 0.53664,0.67637c0,0 -0.30817,1.4985 -1.0187,2.13796c-0.52658,0.47392 -1.40294,0.17014 -1.86338,0.03859c-0.8734,-0.24954 -2.97507,-1.49798 -2.97507,-1.49798z" fill="#726862" stroke="none" stroke-width="0" stroke-linecap="butt"/><path d="M229.78796,174.99089c0,0 -0.69715,0.69613 -1.08888,0.84777c-0.33858,0.13106 -1.08969,0.25937 -1.08969,0.25937" fill="none" stroke="#444446" stroke-width="0.15" stroke-linecap="round"/><path d="M233.64509,177.5266c0,0 1.18117,-1.5144 1.58442,-2.27678c0.35154,-0.66463 0.91558,-1.97322 0.91558,-1.97322c0,0 0.4541,0.26607 1.14161,0.3341c1.44957,0.14343 3.93676,0.14476 5.39315,0.09935c2.94299,-0.09177 4.14382,1.88798 4.14382,1.88798c0,0 1.55162,2.02119 2.53316,3.18073c0.22154,0.26172 0.5321,0.30278 0.69792,0.44802c0.20283,0.17765 0.35926,0.0354 0.73478,0.06669c0.4075,0.03395 0.95717,0.26992 0.99219,0.29078c0.32817,0.19544 0.47052,0.76378 0.47052,0.76378c0,0 -0.03609,0.24464 -0.18159,0.74458c-0.15907,0.5466 -0.59178,1.14921 -1.10821,1.42638c-0.76828,0.41233 -2.12834,-0.2705 -2.75898,-0.57223c-0.11683,-0.0559 -0.47651,-0.32741 -0.8409,-0.53294c-0.53187,-0.3 -1.18561,-0.7902 -1.37147,-0.68209c-0.12345,0.0718 0.27271,0.82777 0.64836,1.44865c0.26148,0.43219 0.56826,0.65165 0.45158,1.14621c-0.15517,0.65771 -0.23176,1.4341 -0.26047,1.95627c-0.0303,0.55101 -1.46696,0.05356 -1.55418,0.1868c-0.10023,0.15313 0.22264,-1.47269 -0.03315,-2.32246c-0.18727,-0.62211 -0.79041,-0.53257 -0.9964,-0.64652c-0.02066,-0.01143 -0.68992,-0.35155 -0.76677,-0.08245c-0.16042,0.56169 0.22208,1.97933 0.17609,1.96717c-0.25878,-0.06839 -2.3489,-1.06481 -2.5647,-1.13102c-0.27087,-0.08311 -0.26259,-1.39301 -0.49316,-1.60023c-0.39042,-0.35089 -1.03479,-0.41819 -1.51525,-0.48281c-0.41724,-0.05612 -0.65819,-0.12777 -1.15842,-0.16253c-0.48991,-0.03404 -0.63913,1.39366 -0.81283,2.13181c-0.15855,0.67373 -0.06317,1.79136 -0.52859,2.17569c-0.41331,0.34129 -1.38211,0.00614 -1.65518,-0.25101c-0.69458,-0.65408 -1.28292,-7.53869 -1.28292,-7.53869z" fill="url(#color-5)" stroke="none" stroke-width="0" stroke-linecap="butt"/><path d="M232.8951,186.59803c0,0 0.14682,-0.14441 0.30471,-0.55014c0.08948,-0.22992 0.30242,-0.45826 0.30242,-1.05701c0,-2.70908 -0.25,-7.60714 -0.25,-7.60714c0,0 0.84826,-0.62607 1.4687,-1.64016c0.75502,-1.23407 1.18437,-3.03243 1.43588,-2.40725c0.1781,0.44271 -0.6577,1.84202 -1.31949,2.83046c-0.59428,0.88762 -0.94223,1.46695 -0.94223,1.46695c0,0 0.9834,3.66527 1.03827,4.71788c0.07159,1.3731 -0.39541,5.49641 -0.39541,5.49641c0,0 -0.41258,-0.39163 -0.70937,-0.48067c-0.29843,-0.08953 -0.93348,-0.76933 -0.93348,-0.76933z" fill="#5e5e67" stroke="none" stroke-width="0" stroke-linecap="butt"/><path d="M240.96653,183.20517l-0.46429,-1.60714c0,0 1.51755,0.27649 1.9067,-0.03601c0.39643,-0.31835 0.45045,-1.85685 0.45045,-1.85685l1.07143,5.78571c0,0 0.02564,0.34553 -0.11237,0.69827c-0.14341,0.36651 -0.45214,0.74079 -0.53233,0.74332c-0.6639,0.02093 -1.76836,1.48681 -2.2967,0.56043c-0.12408,-0.21756 1.78338,-1.75812 1.65384,-1.9716c-0.08474,-0.13965 -0.31822,-0.27688 -0.41059,-0.40966c-0.36463,-0.52416 -0.61345,-0.979 -0.77603,-1.23984c-0.36545,-0.58632 -0.49012,-0.66663 -0.49012,-0.66663z" fill="#635758" stroke="none" stroke-width="0" stroke-linecap="butt"/><path d="M244.21653,187.63374c0,0 0.37222,-0.43766 0.64925,-1.03535c0.1499,-0.3234 0.24668,-0.76943 0.29903,-1.04587c0.06887,-0.36366 0.24051,-0.99212 0.21327,-1.52321c-0.0315,-0.61397 -0.2687,-1.10985 -0.2687,-1.10985c0,0 0.56716,-0.87852 0.92883,-0.87218c0.30836,0.00541 1.10688,0.90789 1.10688,0.90789c0,0 -0.34157,1.57503 -0.37055,2.39238c-0.03046,0.85914 0.19198,2.64333 0.19198,2.64333c0,0 -0.77174,0.00367 -1.11573,-0.041c-0.50748,-0.06591 -1.63427,-0.31614 -1.63427,-0.31614z" fill="url(#color-6)" stroke="none" stroke-width="0" stroke-linecap="butt"/><path d="M234.71653,188.77659c0,0 -0.1664,-0.08239 -0.17723,-0.92904c-0.00266,-0.20856 0.03766,-0.56415 0.05328,-0.85945c0.06739,-1.27371 0.3107,-3.79324 0.31927,-4.39035c0.00864,-0.60173 -0.08817,-1.28544 -0.08817,-1.28544l2.75,0.25c0,0 -0.21347,0.37545 -0.30767,0.75355c-0.18654,0.74877 -0.3227,1.92532 -0.32889,3.13898c-0.00498,0.9762 0.07984,1.73093 0.02311,2.187c-0.02825,0.22709 -0.2959,0.30555 -0.44333,0.49532c-0.09812,0.12629 -0.10943,0.3612 -0.21862,0.47111c-0.17822,0.1794 -0.43889,0.20405 -0.43889,0.20405z" fill="url(#color-7)" stroke="none" stroke-width="0" stroke-linecap="butt"/><path d="M237.8951,181.02659c0,0 -0.1762,-0.33326 -0.14423,-0.49313c0.02652,-0.13263 0.3228,-0.39973 0.3228,-0.39973c0,0 1.51286,-0.10102 2.25022,-0.07851c0.81448,0.02487 2.42835,0.22137 2.42835,0.22137c0,0 0.09168,0.83973 -0.03623,1.08946c-0.12179,0.23778 -0.71377,0.37483 -0.71377,0.37483c0,0 -0.93859,-0.01839 -1.44855,-0.0849c-0.89963,-0.11735 -2.65859,-0.62938 -2.65859,-0.62938z" fill="#c4bfb9" stroke="none" stroke-width="0" stroke-linecap="butt"/></g></g></svg>