<svg version="1.1" xmlns="http://www.w3.org/2000/svg" xmlns:xlink="http://www.w3.org/1999/xlink" width="30.43478" height="22.03291" viewBox="0,0,30.43478,22.03291"><defs><linearGradient x1="242.67125" y1="175.01696" x2="254.38522" y2="175.01696" gradientUnits="userSpaceOnUse" id="color-1"><stop offset="0" stop-color="#3d2e29" stop-opacity="0"/><stop offset="1" stop-color="#3d2e29"/></linearGradient><linearGradient x1="341.773" y1="338.20618" x2="341.773" y2="343.53361" gradientUnits="userSpaceOnUse" id="color-2"><stop offset="0" stop-color="#373c42"/><stop offset="1" stop-color="#6c4a4a"/></linearGradient><linearGradient x1="348.95884" y1="338.82565" x2="348.95884" y2="344.77255" gradientUnits="userSpaceOnUse" id="color-3"><stop offset="0" stop-color="#373c42"/><stop offset="1" stop-color="#6c4a4a"/></linearGradient><linearGradient x1="324.21103" y1="339.87874" x2="324.21103" y2="344.8345" gradientUnits="userSpaceOnUse" id="color-4"><stop offset="0" stop-color="#373c42"/><stop offset="1" stop-color="#6c4a4a"/></linearGradient><linearGradient x1="330.87032" y1="338.26812" x2="330.87032" y2="346.01148" gradientUnits="userSpaceOnUse" id="color-5"><stop offset="0" stop-color="#373c42"/><stop offset="1" stop-color="#6c4a4a"/></linearGradient><linearGradient x1="225.93302" y1="172.9521" x2="233.36275" y2="172.9521" gradientUnits="userSpaceOnUse" id="color-6"><stop offset="0" stop-color="#3d2e29"/><stop offset="1" stop-color="#3d2e29" stop-opacity="0"/></linearGradient><linearGradient x1="241.30486" y1="184.13992" x2="241.30486" y2="189.94706" gradientUnits="userSpaceOnUse" id="color-7"><stop offset="0" stop-color="#291b1a" stop-opacity="0"/><stop offset="1" stop-color="#291b1a"/></linearGradient><linearGradient x1="234.13134" y1="183.92643" x2="234.13134" y2="185.8479" gradientUnits="userSpaceOnUse" id="color-8"><stop offset="0" stop-color="#291b1a" stop-opacity="0"/><stop offset="1" stop-color="#291b1a"/></linearGradient><linearGradient x1="250.63471" y1="184.52422" x2="250.63471" y2="189.86166" gradientUnits="userSpaceOnUse" id="color-9"><stop offset="0" stop-color="#291b1a" stop-opacity="0"/><stop offset="1" stop-color="#291b1a"/></linearGradient><linearGradient x1="227.53427" y1="181.83415" x2="227.53427" y2="187.81208" gradientUnits="userSpaceOnUse" id="color-10"><stop offset="0" stop-color="#291b1a" stop-opacity="0"/><stop offset="1" stop-color="#291b1a"/></linearGradient></defs><g transform="translate(-224.65761,-168.85741)"><g data-paper-data="{&quot;isPaintingLayer&quot;:true}" fill-rule="nonzero" stroke-linecap="butt" stroke-linejoin="miter" stroke-miterlimit="10" stroke-dasharray="" stroke-dashoffset="0" style="mix-blend-mode: normal"><path d="M227.47438,188.28593c0,0 -2.5816,-4.56582 -1.8897,-9.58289c0.20479,-1.48498 1.19781,-2.5326 1.54624,-3.41788c0.33157,-0.84246 1.05089,-2.58004 2.27979,-3.50405c1.94868,-1.46521 4.59669,-1.98408 4.59669,-1.98408c0,0 3.7769,0.35155 5.19191,0.6189c1.64021,0.3099 4.07389,1.13178 4.07389,1.13178c0,0 2.72472,-1.46728 4.0147,-1.02206c1.60187,0.55286 2.49871,1.99228 3.98816,3.4946c1.76526,1.7805 3.98281,3.73574 3.80644,5.63236c-0.05708,0.61378 -0.45744,1.34677 -0.5174,1.93039c-0.0849,0.82641 0.4933,1.90133 0.36395,2.58933c-0.33024,1.75658 -2.46258,0.32494 -2.54379,1.32181c-0.17216,2.11326 1.43471,5.14026 1.43471,5.14026c0,0 -1.31112,0.4029 -2.77468,-0.3931c-0.91214,-0.4961 -3.68707,-5.35919 -4.71706,-5.64162c-0.43395,-0.11899 -0.96131,-0.04353 -1.40962,-0.11045c-0.28493,-0.04253 -1.24657,1.90283 -1.45476,3.69936c-0.16081,1.38771 0.43794,2.73829 0.20976,2.69271c-0.60909,-0.12166 -1.35641,0.11671 -1.98241,-0.05692c-0.15674,-0.04347 -1.64954,-0.48624 -2.12993,-1.52602c-0.73028,-1.58066 -0.39227,-4.62171 -0.62709,-4.68257c-0.66298,-0.17183 -2.03745,0.13554 -2.66418,-0.01436c-0.27605,-0.06603 0.0066,2.17419 -0.26164,2.10922c-0.77161,-0.18689 -1.38157,-0.19975 -2.07223,-0.37779c-1.17225,-0.30218 -1.54026,-3.75972 -2.40736,-3.8484c-0.77477,-0.07924 -1.02352,5.9628 -1.47111,5.91872c-1.45485,-0.14328 -2.71141,-0.11726 -2.71141,-0.11726z" fill-opacity="0.50252" fill="#000000" stroke="none" stroke-width="0"/><path d="M226.91512,187.59857c0,0 -2.5816,-4.56582 -1.8897,-9.58289c0.20479,-1.48498 1.19781,-2.5326 1.54624,-3.41788c0.33157,-0.84246 1.05089,-2.58004 2.27979,-3.50405c1.94868,-1.46521 4.59669,-1.98408 4.59669,-1.98408c0,0 3.7769,0.35155 5.19191,0.6189c1.64021,0.3099 4.07389,1.13178 4.07389,1.13178c0,0 2.72472,-1.46728 4.0147,-1.02206c1.60187,0.55286 2.49871,1.99228 3.98816,3.4946c1.76526,1.7805 3.98281,3.73574 3.80644,5.63236c-0.05708,0.61378 -0.45744,1.34677 -0.5174,1.93039c-0.0849,0.82641 0.4933,1.90133 0.36395,2.58933c-0.33024,1.75658 -2.46258,0.32494 -2.54379,1.32181c-0.17216,2.11326 1.43471,5.14026 1.43471,5.14026c0,0 -1.31112,0.4029 -2.77468,-0.3931c-0.91214,-0.4961 -3.68707,-5.35919 -4.71706,-5.64162c-0.43395,-0.11899 -0.96131,-0.04353 -1.40962,-0.11045c-0.28493,-0.04253 -1.24657,1.90283 -1.45476,3.69936c-0.16081,1.38771 0.43794,2.73829 0.20976,2.69271c-0.60909,-0.12166 -1.35641,0.11671 -1.98241,-0.05692c-0.15674,-0.04347 -1.64954,-0.48624 -2.12993,-1.52602c-0.73028,-1.58066 -0.39227,-4.62171 -0.62709,-4.68257c-0.66298,-0.17183 -2.03745,0.13554 -2.66418,-0.01436c-0.27605,-0.06603 0.0066,2.17419 -0.26164,2.10922c-0.77161,-0.18689 -1.38157,-0.19975 -2.07223,-0.37779c-1.17225,-0.30218 -1.54026,-3.75972 -2.40736,-3.8484c-0.77477,-0.07924 -1.02352,5.9628 -1.47111,5.91872c-1.45485,-0.14328 -2.71141,-0.11726 -2.71141,-0.11726z" fill="#58463a" stroke="#ffffff" stroke-width="0.5"/><path d="M253.94392,180.1404c0,0 -0.2921,0.30355 -0.22849,1.32196c0.026,0.4162 0.44953,1.0529 0.54005,1.6223c0.05415,0.34058 -0.14797,0.6845 -0.24429,0.8665c-0.16701,0.31554 -0.67817,0.19823 -1.17618,0.21073c-0.52767,0.01324 -1.04057,0.14604 -1.1137,0.13275c-0.75573,-0.13734 -16.67028,-2.48077 -18.18009,-3.18848c-4.65726,-2.18307 3.03645,-4.43662 1.76381,-5.45377c-1.84557,-1.47506 7.36622,-4.52158 7.36622,-4.52158c0,0 2.39919,-1.03226 3.27303,-1.14241c1.79368,-0.2261 4.75447,3.74708 4.75447,3.74708l2.64737,2.56197c0,0 0.92238,1.49496 1.02849,2.1771c0.09073,0.58331 -0.43071,1.66586 -0.43071,1.66586z" fill="url(#color-1)" stroke="none" stroke-width="0"/><path d="" fill-opacity="0.5" fill="#000000" stroke="none" stroke-width="0"/><path d="" fill="#5e6669" stroke="#ffffff" stroke-width="0.5"/><path d="" fill="#464d55" stroke="none" stroke-width="0"/><path d="" fill="#464d55" stroke="none" stroke-width="0"/><path d="" fill="#464d55" stroke="none" stroke-width="0"/><path d="" fill="#464d55" stroke="none" stroke-width="0"/><path d="" fill="url(#color-2)" stroke="none" stroke-width="0"/><path d="" fill="url(#color-3)" stroke="none" stroke-width="0"/><path d="" fill="#464d55" stroke="none" stroke-width="0"/><path d="" fill="url(#color-4)" stroke="none" stroke-width="0"/><path d="" fill="url(#color-5)" stroke="none" stroke-width="0"/><path d="" fill="#ffffff" stroke="none" stroke-width="0"/><path d="" fill="#373c42" stroke="none" stroke-width="0"/><path d="M253.08993,183.96912c0,0 -0.2562,-0.26774 -0.2562,-0.427c0,-0.20223 0.2562,-0.68853 0.2562,-0.68853c0,0 0.46318,-0.2135 0.64049,-0.2135c0.1631,0 0.3843,0.2135 0.3843,0.2135c0,0 0.11799,0.47298 0.09041,0.65314c-0.02925,0.19105 -0.26121,0.46239 -0.26121,0.46239c0,0 -0.25893,0.2135 -0.3843,0.2135c-0.15354,0 -0.46969,-0.2135 -0.46969,-0.2135z" fill="#291b1a" stroke="none" stroke-width="0"/><path d="M251.0445,181.49671c0,0 -0.25619,-0.26775 -0.25619,-0.427c0,-0.20222 0.25619,-0.68853 0.25619,-0.68853c0,0 0.42049,-0.0427 0.5978,-0.0427c0.1631,0 0.42699,0.0427 0.42699,0.0427c0,0 0.11799,0.47299 0.09041,0.65313c-0.02925,0.19105 -0.26121,0.46239 -0.26121,0.46239c0,0 -0.25892,0.21349 -0.3843,0.21349c-0.15355,0 -0.4697,-0.21349 -0.4697,-0.21349z" fill="#291b1a" stroke="none" stroke-width="0"/><path d="M225.93303,176.34014c0,0 1.20249,-2.68797 1.80895,-3.67248c0.41597,-0.67527 1.60701,-1.70766 1.60701,-1.70766c0,0 0.21916,-0.19128 0.47301,-0.33577c0.39049,-0.22227 0.92142,-0.45051 1.31753,-0.61064c0.68301,-0.27611 2.22322,-0.67616 2.22322,-0.67616c0,0 -4.78235,4.26915 -4.78235,5.42284c0,0.48441 0.28196,0.69375 0.4573,0.93649c0.14117,0.19543 0.09779,0.558 0.09779,0.558c0,0 -0.23343,0.3049 -0.38381,0.31099c-0.46565,0.01888 -2.81866,-0.2256 -2.81866,-0.2256z" fill="url(#color-6)" stroke="none" stroke-width="0"/><path d="M241.04867,190.07516c0,0 -0.41098,-0.07784 -0.92375,-0.40855c-0.30866,-0.19908 -0.70867,-0.46254 -0.92453,-0.93262c-0.62975,-1.37141 -0.56548,-3.96552 -0.57202,-5.23462c-0.00753,-1.46232 0.28533,-2.79161 0.28533,-3.15969c0,-0.19062 -0.0854,0 -0.0854,0c0,0 0.61387,-1.20726 0.83138,-1.39288c0.42992,-0.36688 0.80477,-0.74209 1.2609,-0.74209c0.75789,0 2.39118,1.23829 2.39118,1.23829c0,0 1.29045,2.76001 1.25751,3.21012c-0.03996,0.54622 -0.71064,1.2841 -1.08388,2.31461c-0.53286,1.47127 -0.81413,3.22867 -0.81413,3.22867c0,0 0.10577,0.43932 0.21742,0.87488c0.09339,0.36433 0.21655,0.72602 0.04028,0.82581c-0.36619,0.20728 -1.88028,0.1781 -1.88028,0.1781z" fill="#3c2f27" stroke="none" stroke-width="0"/><path d="M240.83517,189.98976c0,0 -1.4821,-0.87098 -1.73781,-1.55787c-0.40185,-1.07948 -0.43986,-4.29197 -0.43986,-4.29197l5.03854,-0.0427c0,0 -0.39576,1.01485 -0.69539,2.07036c-0.18254,0.643 -0.3294,1.32794 -0.3294,1.7299c0,0.79684 0.34159,2.00688 0.34159,2.00688z" fill="url(#color-7)" stroke="none" stroke-width="0"/><path d="M233.32005,185.42091c0,0 -0.87793,-1.2485 -1.10805,-1.83913c-0.18854,-0.48392 -0.17293,-1.44874 -0.17293,-1.44874c0,0 0.43758,-1.36504 0.78323,-2.01928c0.31876,-0.60333 0.79,-1.14049 1.09555,-1.14049c0.62978,0 1.96417,1.45179 1.96417,1.45179c0,0 0.09269,1.35341 0.04135,1.71387c-0.10513,0.73809 -0.40519,0.85756 -0.47682,1.49721c-0.0897,0.80084 -0.16232,2.12636 -0.16232,2.12636z" fill="#3c2f27" stroke="none" stroke-width="0"/><path d="M233.32005,185.42091c0,0 -0.4204,-0.52527 -0.54948,-0.8138c-0.10973,-0.24527 -0.30451,-0.72338 -0.30451,-0.72338l2.90357,0.0427l-0.0427,1.83608z" fill="url(#color-8)" stroke="none" stroke-width="0"/><path d="M250.44256,189.47736c0,0 -1.93976,-2.41711 -2.72526,-3.49524c-0.63321,-0.86911 -1.63009,-2.48269 -1.63009,-2.48269c0,0 1.88084,-1.19942 2.4415,-1.12478c1.35251,0.18005 3.19484,1.89338 3.19484,1.89338c0,0 0.30426,2.52506 0.52307,3.43557c0.22237,0.92533 0.80062,2.07266 0.80062,2.07266c0,0 -0.37982,0.21575 -1.28547,0.13699c-0.62246,-0.05412 -1.3192,-0.43589 -1.3192,-0.43589z" fill="#3c2f27" stroke="none" stroke-width="0"/><path d="M250.52796,189.42496c0,0 -1.43182,-1.51057 -2.01051,-2.31238c-0.62722,-0.86905 -1.74705,-2.71646 -1.74705,-2.71646l4.99585,0.1281c0,0 0.17347,2.5894 0.53651,3.5348c0.31258,0.81401 0.70178,1.71724 0.70178,1.71724c0,0 -0.8785,0.09239 -1.43544,0.01217c-0.40278,-0.05802 -1.04113,-0.36347 -1.04113,-0.36347z" fill="url(#color-9)" stroke="none" stroke-width="0"/><path d="M226.82972,187.34239c0,0 -0.82689,-2.36691 -1.12027,-3.43237c-0.23386,-0.84928 -0.50231,-2.46017 -0.50231,-2.46017c0,0 0.11845,-1.55003 0.88018,-2.57546c0.59806,-0.8051 1.82196,-1.1394 2.15149,-1.1394c0.79899,0 1.75068,1.19559 1.75068,1.19559c0,0 0.3934,1.70778 0.40078,2.43457c0.01509,1.48627 -0.91317,6.27613 -0.91317,6.27613z" fill="#3c2f27" stroke="none" stroke-width="0"/><path d="M226.91513,187.29968c0,0 -0.81972,-2.01697 -1.1239,-2.99795c-0.25724,-0.82961 -0.54139,-2.51028 -0.54139,-2.51028l5.29474,0.0427c0,0 -0.1723,0.35885 -0.25194,0.72681c-0.20201,0.93346 -0.85825,4.99492 -0.85825,4.99492z" fill="url(#color-10)" stroke="none" stroke-width="0"/></g></g></svg>