<svg version="1.1" xmlns="http://www.w3.org/2000/svg" xmlns:xlink="http://www.w3.org/1999/xlink" width="35.20271" height="20.21819" viewBox="0,0,35.20271,20.21819"><defs><linearGradient x1="240" y1="180" x2="240" y2="180" gradientUnits="userSpaceOnUse" id="color-1"><stop offset="0" stop-color="#373c42"/><stop offset="1" stop-color="#6c4a4a"/></linearGradient><linearGradient x1="240" y1="180" x2="240" y2="180" gradientUnits="userSpaceOnUse" id="color-2"><stop offset="0" stop-color="#373c42"/><stop offset="1" stop-color="#6c4a4a"/></linearGradient><linearGradient x1="240" y1="180" x2="240" y2="180" gradientUnits="userSpaceOnUse" id="color-3"><stop offset="0" stop-color="#373c42"/><stop offset="1" stop-color="#6c4a4a"/></linearGradient><linearGradient x1="240" y1="180" x2="240" y2="180" gradientUnits="userSpaceOnUse" id="color-4"><stop offset="0" stop-color="#373c42"/><stop offset="1" stop-color="#6c4a4a"/></linearGradient></defs><g transform="translate(-222.27364,-169.76591)"><g data-paper-data="{&quot;isPaintingLayer&quot;:true}" fill-rule="nonzero" stroke-linecap="butt" stroke-linejoin="miter" stroke-miterlimit="10" stroke-dasharray="" stroke-dashoffset="0" style="mix-blend-mode: normal"><path d="M227.38818,177.61877c0,0 2.91701,-3.87272 5.88258,-5.21249c2.5881,-1.16924 6.58678,-2.02706 7.34221,-2.02136c1.71756,0.01296 7.13153,0.52875 10.58846,1.88028c3.75835,1.46937 5.50347,3.78373 5.50347,3.78373c0,0 0.64199,1.4752 0.74828,2.66499c0.05296,0.5928 0.05473,2.29331 -0.4394,3.33723c-0.42609,0.90019 -1.33164,1.11087 -1.58475,2.07721c-0.24719,0.94374 0.08318,1.8988 0.05238,2.67055c-0.04991,1.25045 -0.34634,2.08344 -0.34634,2.08344c0,0 -2.17219,0.05259 -2.51122,0.06081c-0.15774,0.00382 0.01175,-1.87554 -0.19591,-1.87051c-0.23297,0.00564 -0.73215,1.34954 -1.02369,1.36263c-0.26427,0.01187 -1.59186,0.07075 -1.99588,0.08851c-0.31326,0.01377 0.06567,-2.71909 -0.27457,-2.70421c-0.31872,0.01394 -6.26174,0.34598 -6.60339,0.36789c-0.0932,0.00597 0.04924,0.8352 -0.21766,1.40497c-0.3306,0.70572 -1.07955,1.1811 -1.196,1.18986c-0.67419,0.0507 -0.84227,0.09879 -1.52008,0.14441c-0.31556,0.02124 -0.27855,-4.51059 -0.5949,-4.49042c-0.10324,0.00658 -0.28505,4.76264 -0.38842,4.77064c-0.13101,0.01013 -0.57606,0.68724 -0.70716,0.69696c-0.19552,0.0145 -1.72526,0.06734 -1.92039,0.0801c-0.15728,0.01028 -0.47077,-0.76493 -0.6265,-0.75578c-0.1574,0.00925 -0.03921,-5.20139 -0.19481,-5.19252c-0.14502,0.00826 -2.64411,-1.08029 -2.78773,-1.068c-0.17118,0.01466 -1.3995,1.05319 -1.56569,1.07465c-0.20855,0.02693 -0.09811,3.70787 -0.29672,3.74279c-0.11908,0.02094 -0.46258,0.46151 -0.87908,0.69108c-0.54464,0.3002 -1.18622,0.40677 -1.33216,0.43361c-0.77668,0.14284 -2.07358,-0.05387 -2.64972,0.04224c-0.08784,0.01466 -1.07277,-0.1966 -1.77684,-0.84445c-0.68183,-0.62739 -1.08805,-1.67889 -0.89774,-2.44719c0.31325,-1.26459 1.28229,-1.86854 2.09501,-3.26578c0.47104,-0.80982 0.06238,-1.79071 0.44226,-2.59115c0.59674,-1.25741 1.87211,-2.1847 1.87211,-2.1847z" fill-opacity="0.5" fill="#000000" stroke="none" stroke-width="0"/><path d="" fill-opacity="0.5" fill="#000000" stroke="none" stroke-width="0"/><path d="" fill="#5e6669" stroke="#ffffff" stroke-width="0.5"/><path d="" fill="#464d55" stroke="none" stroke-width="0"/><path d="" fill="#464d55" stroke="none" stroke-width="0"/><path d="" fill="#464d55" stroke="none" stroke-width="0"/><path d="" fill="#464d55" stroke="none" stroke-width="0"/><path d="" fill="url(#color-1)" stroke="none" stroke-width="0"/><path d="" fill="url(#color-2)" stroke="none" stroke-width="0"/><path d="" fill="#464d55" stroke="none" stroke-width="0"/><path d="" fill="url(#color-3)" stroke="none" stroke-width="0"/><path d="" fill="url(#color-4)" stroke="none" stroke-width="0"/><path d="" fill="#ffffff" stroke="none" stroke-width="0"/><path d="" fill="#373c42" stroke="none" stroke-width="0"/><path d="M226.97996,177.24978c0,0 2.91702,-3.87272 5.88259,-5.21249c2.5881,-1.16923 6.58678,-2.02706 7.3422,-2.02136c1.71757,0.01296 7.13153,0.52875 10.58845,1.88028c3.75835,1.46937 5.50347,3.78373 5.50347,3.78373c0,0 0.64199,1.4752 0.74828,2.66498c0.05296,0.5928 0.05473,2.29332 -0.4394,3.33724c-0.4261,0.90018 -1.33164,1.11087 -1.58475,2.0772c-0.24719,0.94374 0.08318,1.8988 0.05238,2.67056c-0.0499,1.25045 -0.34635,2.08344 -0.34635,2.08344c0,0 -2.17219,0.0526 -2.51122,0.0608c-0.15774,0.00382 0.01176,-1.87554 -0.19591,-1.87051c-0.23297,0.00564 -0.73215,1.34953 -1.02369,1.36262c-0.26427,0.01187 -1.59186,0.07076 -1.99588,0.08852c-0.31325,0.01377 0.06567,-2.71909 -0.27457,-2.70422c-0.31872,0.01393 -6.26174,0.34598 -6.60339,0.36789c-0.0932,0.00598 0.04924,0.83521 -0.21767,1.40497c-0.33059,0.70572 -1.07954,1.18109 -1.196,1.18985c-0.6742,0.05069 -0.84227,0.0988 -1.52008,0.14442c-0.31556,0.02124 -0.27855,-4.51059 -0.5949,-4.49042c-0.10324,0.00658 -0.28505,4.76264 -0.38842,4.77064c-0.13101,0.01013 -0.57606,0.68724 -0.70716,0.69696c-0.19552,0.01449 -1.72527,0.06734 -1.92039,0.0801c-0.15727,0.01028 -0.47077,-0.76493 -0.6265,-0.75578c-0.15741,0.00926 -0.03921,-5.20139 -0.19481,-5.19252c-0.14502,0.00827 -2.64411,-1.08029 -2.78772,-1.068c-0.17118,0.01466 -1.3995,1.0532 -1.56569,1.07466c-0.20855,0.02693 -0.09811,3.70787 -0.29672,3.74279c-0.11908,0.02094 -0.46259,0.46151 -0.87908,0.69108c-0.54464,0.3002 -1.18622,0.40677 -1.33216,0.43361c-0.77668,0.14284 -2.07358,-0.05387 -2.64972,0.04224c-0.08784,0.01465 -1.07277,-0.19659 -1.77684,-0.84445c-0.68183,-0.6274 -1.08805,-1.6789 -0.89774,-2.44719c0.31325,-1.26459 1.28229,-1.86854 2.09501,-3.26578c0.47104,-0.80981 0.06238,-1.79071 0.44226,-2.59115c0.59674,-1.2574 1.87211,-2.1847 1.87211,-2.1847z" fill="#b9b2b7" stroke="#ffffff" stroke-width="0.5"/><path d="M232.63137,182.58724l0.29812,-3.4144c0,0 0.76626,-0.39327 0.96733,-0.37381c0.20442,0.01978 0.78363,0.49155 0.78363,0.49155l-0.75397,3.80686z" fill="#79727c" stroke="none" stroke-width="0"/><path d="M233.80875,183.05292l1.25587,-6.2401l0.47095,0.03925l-0.90266,6.51483z" fill="#605964" stroke="none" stroke-width="0"/><path d="M230.19812,183.60236c0,0 2.00154,-2.54832 2.00154,-3.4144c0,-0.89877 -2.78646,-2.57439 -2.78646,-2.57439c0,0 0.41795,-0.25257 0.7431,-0.22301c0.621,0.05645 2.74979,1.14907 2.74979,1.14907c0,0 0.1755,0.70579 0.18863,1.17868c0.02166,0.77989 -0.0709,3.05988 -0.0709,3.05988c0,0 -0.57348,-0.39246 -0.90266,-0.39246c-0.64523,0 -1.92305,1.21662 -1.92305,1.21662z" fill="#605964" stroke="none" stroke-width="0"/><path d="M253.91739,188.30751c0,0 -0.25224,-3.62792 -0.25426,-3.99935c-0.00383,-0.70469 1.82723,-2.95242 1.81811,-4.63066c-0.00195,-0.35882 -0.12144,-1.03405 -0.12285,-1.29402c-0.00224,-0.41187 -0.4774,-0.7415 -0.26487,-0.96701c0.26519,-0.28139 0.26802,-0.61618 0.52879,-0.69948c0.47214,-0.15082 0.90418,0.21356 0.90418,0.21356c0,0 0.43851,0.88953 0.45994,1.92421c0.02264,1.09292 -0.45139,2.3478 -0.72116,2.88734c-0.08647,0.17295 -0.89271,0.9035 -0.99927,1.08561c-0.55187,0.9431 -0.57842,1.36334 -0.57842,1.36334c0,0 0.15661,1.37165 0.16058,2.07817c0.00497,0.88341 -0.33569,2.0464 -0.33569,2.0464z" fill="#68616b" stroke="none" stroke-width="0"/><path d="M225.24231,188.31701c0,0 -0.50004,-0.10826 -0.73105,-0.23265c-0.31898,-0.17176 -1.00557,-0.70245 -1.00557,-0.70245c0,0 2.25575,-0.0972 3.28859,-0.26332c1.08694,-0.17482 2.36657,-1.11707 2.36657,-1.11707c0,0 0.67186,0.41256 0.80151,0.80152c0.06338,0.19015 -0.03766,0.59015 -0.4927,0.93126c-0.42255,0.31675 -1.24392,0.58272 -1.24392,0.58272z" fill="#9f8c89" stroke="none" stroke-width="0"/><path d="M243.00929,185.46718c0,0 -0.95115,-0.20356 -1.33673,-0.53333c-0.20793,-0.17783 -1.0194,-0.13344 -1.35582,-0.47014c-0.67254,-0.67311 -0.69164,-1.8909 -0.69164,-1.8909c0,0 4.10444,1.24681 6.14497,1.24681c1.91449,0 6.67932,-0.89058 6.67932,-0.89058l-0.66794,2.27097z" fill="#8c7978" stroke="none" stroke-width="0"/><path d="M229.96265,186.78655c0,0 -2.94345,-2.28183 -2.94345,-3.25741c0,-0.67697 -0.00158,-1.89857 0.46428,-2.97381c0.68707,-1.58579 1.96897,-2.99157 1.96897,-2.99157l2.19777,1.49135c0,0 0.53505,0.45812 0.63582,1.01898c0.08234,0.45826 -0.22961,0.97205 -0.49412,1.46882c-0.44225,0.83056 -1.55455,2.18247 -1.55455,2.18247z" fill="#8a848e" stroke="none" stroke-width="0"/><path d="M228.13668,180.41316c0,0.28281 -0.25917,0.51208 -0.57887,0.51208c-0.3197,0 -0.57887,-0.22927 -0.57887,-0.51208c0,-0.28281 0.21464,-0.33397 0.53435,-0.33397c0.3197,0 0.6234,0.05115 0.6234,0.33397z" fill="#4d4751" stroke="none" stroke-width="0"/><path d="M248.99693,187.88543v-2.62948c0,0 1.80711,-0.11547 2.70927,-0.06056c0.18532,0.01128 0.72491,-3.34541 0.81035,-3.31727c0.17953,0.05911 -0.30145,4.43748 -0.30145,4.43748l-1.13813,1.56984z" fill="#68616b" stroke="none" stroke-width="0"/><path d="M239.34243,188.35639c0,0 -0.22419,-1.57692 -0.31223,-2.36373c-0.11433,-1.0218 -0.08023,-5.36772 -0.08023,-5.36772c0,0 1.20955,3.88535 1.8838,3.88535c0.6155,0 2.15853,0.9419 2.15853,0.9419c0,0 -1.00617,-0.00428 -1.08439,0.28905c-0.05835,0.2188 0.03913,0.8731 -0.10352,1.29147c-0.20575,0.60344 -0.81363,1.04895 -0.81363,1.04895z" fill="#68616b" stroke="none" stroke-width="0"/><path d="M256.5097,177.46473c-1.13897,1.10158 -6.56096,1.47264 -8.74902,1.47264c-3.5005,0 -6.33822,-1.85374 -6.33822,-4.14045c0,-2.28671 2.0528,-3.70874 5.5533,-3.70874c1.82803,0 3.96409,1.05499 5.32542,1.75122c0.69174,0.35378 2.47724,1.41979 3.49705,2.51565c0.81637,0.87725 1.01521,1.81591 0.71147,2.10968z" fill="#9b8b8e" stroke="none" stroke-width="0"/></g></g></svg>