<svg version="1.1" xmlns="http://www.w3.org/2000/svg" xmlns:xlink="http://www.w3.org/1999/xlink" width="24.84533" height="21.3173" viewBox="0,0,24.84533,21.3173"><defs><linearGradient x1="239.7381" y1="169.46745" x2="239.7381" y2="190.15167" gradientUnits="userSpaceOnUse" id="color-1"><stop offset="0" stop-color="#9f8f74"/><stop offset="1" stop-color="#615747"/></linearGradient><linearGradient x1="240.23612" y1="169.56313" x2="240.23612" y2="174.13056" gradientUnits="userSpaceOnUse" id="color-2"><stop offset="0" stop-color="#c4ac6c"/><stop offset="1" stop-color="#c4ac6c" stop-opacity="0"/></linearGradient><linearGradient x1="246.64039" y1="178.06751" x2="249.72585" y2="178.06751" gradientUnits="userSpaceOnUse" id="color-3"><stop offset="0" stop-color="#404246"/><stop offset="1" stop-color="#2e2a2d"/></linearGradient><linearGradient x1="239.56052" y1="181.43276" x2="239.56052" y2="183.59468" gradientUnits="userSpaceOnUse" id="color-4"><stop offset="0" stop-color="#2d231c" stop-opacity="0"/><stop offset="1" stop-color="#2d231c"/></linearGradient><linearGradient x1="232.17813" y1="185.63958" x2="232.17813" y2="186.69185" gradientUnits="userSpaceOnUse" id="color-5"><stop offset="0" stop-color="#2d231c" stop-opacity="0"/><stop offset="1" stop-color="#2d231c"/></linearGradient></defs><g transform="translate(-227.45234,-169.21524)"><g data-paper-data="{&quot;isPaintingLayer&quot;:true}" fill-rule="nonzero" stroke-linecap="butt" stroke-linejoin="miter" stroke-miterlimit="10" stroke-dasharray="" stroke-dashoffset="0" style="mix-blend-mode: normal"><path d="M228.67812,190.41983c0,0 -0.62,-1.93559 -0.40768,-4.33149c0.05696,-0.64273 0.00263,-1.02947 0.20829,-1.78797c0.2575,-0.9497 0.78743,-2.29299 0.90763,-3.28681c0.1334,-1.10289 -0.38695,-2.18592 -0.07839,-3.14472c0.2128,-0.66125 1.18926,-0.77586 1.39553,-1.37632c0.18,-0.52397 1.11506,-1.48315 1.27819,-1.91168c0.21244,-0.55805 1.60237,-1.35369 1.78277,-1.68961c0.59273,-1.10371 5.96128,-3.04284 5.96128,-3.04284c0,0 3.12757,0.15712 4.56206,0.68011c1.59589,0.58184 4.5808,2.65322 4.5808,2.65322c0,0 2.20169,-2.20343 2.4504,-0.81831c0.05782,0.32201 0.92019,0.78361 0.96845,1.35105c0.02285,0.2687 0.04023,0.95003 -0.33303,1.43771c-0.51657,0.67494 -1.47622,1.19689 -1.46606,1.69717c0.11122,5.47293 -2.90548,2.80857 -2.90548,2.80857c0,0 -0.48738,-2.47714 -0.81298,-2.29179c-0.08856,0.05041 -1.53552,0.13659 -2.34575,0.69744c-0.47004,0.32537 -0.44145,1.2212 -0.54918,1.29335c-0.07937,0.05316 -0.02372,1.64639 -0.5724,2.80008c-0.42649,0.89676 -1.482,1.41488 -1.55424,1.46443c-0.12829,0.08799 0.18851,0.22353 0.43723,0.57198c0.29782,0.41722 0.53934,1.05706 0.3611,1.16845c-0.13941,0.08712 -0.06121,0.64918 -0.29299,1.10814c-0.43835,0.86802 -1.24921,1.85809 -1.56455,2.01789c-0.18885,0.0957 0.85611,1.04397 0.65933,1.13073c-0.45672,0.20138 -0.89718,0.46633 -1.40618,0.60867c-0.23309,0.06518 -1.28021,-0.30419 -1.5213,-0.25053c-0.13697,0.03048 0.00786,-1.34036 0.30277,-2.78572c0.3055,-1.49728 0.76162,-3.07104 0.61859,-3.04519c-0.10386,0.01878 -0.81495,-0.31602 -1.47985,-0.83927c-0.28394,-0.22345 -0.81916,-1.52012 -1.23888,-1.7301c-0.56486,-0.28258 -1.52161,0.07702 -1.58348,0.09354c-0.13484,0.036 0.33568,0.50201 -0.07262,1.17001c-0.49313,0.80678 -1.87502,1.84268 -2.02602,1.9169c-0.2346,0.11532 0.71843,2.32144 1.73108,3.33535c0.82082,0.82184 1.07947,0.86569 0.9247,0.97824c-0.31139,0.22645 -0.0328,0.80463 -0.39148,0.97637c-0.26313,0.12598 -0.67903,0.15144 -1.10163,0.16913c-0.38542,0.01612 -0.77641,0.0498 -1.06213,-0.33105c-0.86086,-1.14749 -1.2735,-3.69582 -1.986,-3.71206c-0.63416,-0.01445 0.12925,2.69161 -0.26272,3.56785c-0.21861,0.48871 -0.65733,0.69208 -1.04426,0.76143c-0.56367,0.10102 -1.07092,-0.08237 -1.07092,-0.08237z" fill-opacity="0.5" fill="#000000" stroke="none" stroke-width="0"/><path d="M228.15431,190.03888c0,0 -0.62001,-1.93558 -0.40768,-4.33148c0.05696,-0.64274 0.00263,-1.02947 0.20829,-1.78797c0.2575,-0.94971 0.78743,-2.29299 0.90763,-3.28681c0.1334,-1.10289 -0.38694,-2.18592 -0.07838,-3.14472c0.2128,-0.66124 1.18926,-0.77586 1.39554,-1.37632c0.18,-0.52397 1.11506,-1.48316 1.27818,-1.91168c0.21243,-0.55805 1.60237,-1.35369 1.78277,-1.68961c0.59273,-1.10371 5.96128,-3.04284 5.96128,-3.04284c0,0 3.12757,0.15712 4.56206,0.68012c1.59589,0.58183 4.5808,2.65322 4.5808,2.65322c0,0 2.2017,-2.20342 2.45041,-0.81831c0.05782,0.32201 0.92018,0.78361 0.96845,1.35105c0.02285,0.26869 0.04023,0.95003 -0.33303,1.43772c-0.51658,0.67494 -1.47623,1.19689 -1.46606,1.69717c0.11122,5.47292 -2.90548,2.80857 -2.90548,2.80857c0,0 -0.48738,-2.47713 -0.81298,-2.29178c-0.08856,0.05042 -1.53552,0.13659 -2.34574,0.69744c-0.47004,0.32537 -0.44145,1.2212 -0.54919,1.29336c-0.07937,0.05316 -0.02371,1.64639 -0.5724,2.80008c-0.4265,0.89677 -1.482,1.41488 -1.55424,1.46443c-0.12829,0.08799 0.18851,0.22354 0.43723,0.57198c0.29782,0.41722 0.53934,1.05707 0.3611,1.16845c-0.13941,0.08712 -0.06121,0.64918 -0.29299,1.10814c-0.43835,0.86802 -1.2492,1.85809 -1.56455,2.01789c-0.18885,0.0957 0.85611,1.04397 0.65933,1.13073c-0.45672,0.20137 -0.89719,0.46634 -1.40618,0.60867c-0.23309,0.06518 -1.28021,-0.30418 -1.52129,-0.25053c-0.13697,0.03049 0.00786,-1.34036 0.30277,-2.78573c0.3055,-1.49728 0.76162,-3.07105 0.61859,-3.04519c-0.10386,0.01878 -0.81495,-0.31601 -1.47986,-0.83927c-0.28394,-0.22345 -0.81915,-1.52011 -1.23888,-1.73009c-0.56485,-0.28258 -1.52161,0.07702 -1.58348,0.09354c-0.13484,0.036 0.33568,0.50202 -0.07261,1.17002c-0.49313,0.80678 -1.87502,1.84268 -2.02602,1.9169c-0.2346,0.11531 0.71843,2.32144 1.73108,3.33535c0.82082,0.82184 1.07947,0.86569 0.9247,0.97824c-0.31139,0.22645 -0.0328,0.80463 -0.39148,0.97637c-0.26313,0.12599 -0.67903,0.15144 -1.10163,0.16913c-0.38542,0.01613 -0.77641,0.04981 -1.06213,-0.33104c-0.86086,-1.14749 -1.2735,-3.69582 -1.986,-3.71206c-0.63415,-0.01445 0.12924,2.69161 -0.26273,3.56785c-0.21862,0.48871 -0.65732,0.69208 -1.04425,0.76143c-0.56368,0.10102 -1.07092,-0.08238 -1.07092,-0.08238z" fill="url(#color-1)" stroke="#ffffff" stroke-width="0.5"/><path d="M239.386,173.66836c0,0 -0.85454,-0.09623 -1.22861,-0.31996c-0.72456,-0.43338 -2.73864,-2.0226 -2.73864,-2.0226c0,0 0.95722,-0.41385 1.86483,-0.85755c0.77704,-0.37987 1.47735,-0.79172 1.96107,-0.87158c0.84823,-0.14004 2.99676,0.3665 4.37922,0.78967c1.01959,0.3121 1.5052,0.71276 1.5052,0.71276c0,0 -0.07239,0.34155 -0.37187,0.42454c-0.53891,0.14934 -1.47491,0.1379 -1.64577,0.59596c-0.137,0.36727 -0.10149,0.72749 -0.53195,1.01817c-0.56574,0.38202 -1.60657,0.64395 -1.60657,0.64395c0,0 -0.62353,0.36838 -0.90827,0.34804c-0.23435,-0.01674 -0.67863,-0.46139 -0.67863,-0.46139z" fill="url(#color-2)" stroke="none" stroke-width="NaN"/><path d="M242.02816,174.55056c0.54993,-0.44681 1.9674,0.08757 1.9674,0.08757c0,0 0.46248,0.81182 0.85105,1.18722c0.35058,0.3387 1.37816,0.96643 1.37816,0.96643c0,0 -2.13061,0.44943 -2.75356,0.91302c-0.3573,0.2659 -1.86823,-2.80879 -1.44306,-3.15424z" fill="#6e5644" stroke="none" stroke-width="0"/><path d="M234.17189,181.19983c0,0 -1.11966,-1.15879 -1.46808,-1.83472c-0.21884,-0.42455 -0.45887,-2.62371 -0.45887,-2.62371c0,0 0.2281,0.55174 0.69453,0.62175c0.63881,0.09588 1.62541,-0.2817 2.17701,-0.2817c0.65616,0 1.87799,0.54802 2.59601,0.36992c0.40888,-0.10142 0.57779,-0.97446 0.57779,-0.97446c0,0 -0.13317,2.74536 -0.41812,3.39478c-0.25275,0.57602 -1.24435,1.36592 -1.24435,1.36592c0,0 -0.7265,-0.32713 -1.46785,-0.29968c-0.40846,0.01513 -0.98806,0.2619 -0.98806,0.2619z" fill="#6e5644" stroke="none" stroke-width="0"/><path d="M228.92002,178.66835c0,0 -0.06268,-0.5838 -0.02801,-0.81258c0.02534,-0.16725 0.21693,-0.43427 0.21693,-0.43427l3.70276,2.00252c0,0 -0.7244,1.33954 -0.85609,2.3772c-0.15713,1.23811 0.27344,2.25457 0.26617,2.91222c-0.00654,0.59193 0.90611,2.06519 0.90611,2.06519c0,0 -0.61452,-0.11702 -0.85289,-0.05354c-0.29789,0.07933 -0.30457,0.30404 -0.68371,0.07805c-0.0329,-0.01961 -0.89498,-1.55112 -1.06873,-1.98945c-0.31288,-0.78936 0.32752,-2.36881 0.32107,-3.46269c-0.00333,-0.56348 -0.33714,0.0252 -0.53929,-0.4197c-0.19268,-0.42407 -0.21413,-1.47526 -0.30372,-1.64748c-0.17096,-0.32864 -0.62167,-0.07277 -0.82137,-0.14813c-0.26423,-0.09972 -0.25923,-0.46732 -0.25923,-0.46732z" fill="#6e5644" stroke="none" stroke-width="0"/><path d="M247.26511,179.25114c-0.1643,-0.43814 -0.62472,-2.24526 -0.62472,-2.24526c0,0 0.83692,-0.55174 1.29167,-0.64623c0.50891,-0.10575 1.76878,0.53288 1.76878,0.53288c0,0 0.05202,0.87318 0.00601,1.26101c-0.04173,0.35171 -0.27049,0.96821 -0.27049,0.96821c0,0 -0.18323,0.30271 -0.50741,0.4906c-0.25878,0.14999 -0.64851,0.19939 -0.80563,0.16382c-0.17329,-0.03923 -0.76898,-0.28709 -0.85821,-0.52502z" fill="url(#color-3)" stroke="none" stroke-width="0"/><path d="M247.28271,176.04241c0,0.19824 -0.13138,0.20781 -0.34005,0.20781c-0.20867,0 -0.26448,-0.04735 -0.26448,-0.24559c0,-0.19824 0.05581,-0.2078 0.26448,-0.2078c0.20867,0 0.34005,0.04735 0.34005,0.24559z" fill="#232023" stroke="none" stroke-width="0"/><path d="M249.24001,175.91786c0,0.19824 -0.13138,0.20781 -0.34005,0.20781c-0.20867,0 -0.26448,-0.04735 -0.26448,-0.24559c0,-0.19824 0.05581,-0.2078 0.26448,-0.2078c0.20867,0 0.34005,0.04735 0.34005,0.24559z" fill="#232023" stroke="none" stroke-width="0"/><path d="M244.79183,174.71569c0,0 -0.45373,-0.54533 -0.45373,-0.93417c0,-0.46822 0.18683,-1.68149 0.18683,-1.68149c0,0 0.20202,-0.10676 0.37366,-0.10676c0.19819,0 0.26691,0.29359 0.26691,0.29359c0,0 0.67039,0.66383 0.74507,1.04138c0.08429,0.42615 -0.26465,1.38745 -0.26465,1.38745c0,0 -0.33033,0.16014 -0.48043,0.16014c-0.13237,0 -0.37367,-0.16014 -0.37367,-0.16014z" fill="#232023" stroke="none" stroke-width="0"/><path d="M249.32919,174.90252c0,0 -0.13345,-0.59657 -0.13345,-0.90747c0,-0.32868 0.13345,-1.01424 0.13345,-1.01424c0,0 0.54242,-0.3285 0.8264,-0.3328c0.30209,-0.00457 0.93516,0.30611 0.93516,0.30611c0,0 -0.02538,0.64416 -0.10519,0.96783c-0.08033,0.32579 -0.37523,0.98057 -0.37523,0.98057c0,0 -0.44202,0.18684 -0.64057,0.18684c-0.22514,0 -0.64057,-0.18684 -0.64057,-0.18684z" fill="#232023" stroke="none" stroke-width="0"/><path d="M241.80251,178.90607c0,0 0.08857,-1.38789 1.12099,-1.38789c0.19311,0 0.55561,0.04617 0.62919,0.1177c0.25261,0.24554 -0.3089,0.78977 -0.3089,0.78977c0,0 -0.23025,2.32274 -0.6379,3.1812c-0.33366,0.70265 -1.63079,1.59637 -1.63079,1.59637c0,0 -0.60512,0.20023 -0.71326,-0.17118c-0.08051,-0.27653 0.31668,-1.09596 0.36444,-1.344c0.15163,-0.78753 1.17622,-2.78197 1.17622,-2.78197z" fill="#503f30" stroke="none" stroke-width="0"/><path d="M237.46674,182.75858l-0.72215,-1.32582l5.9207,0.02063c0,0 -0.10297,0.25778 -0.2013,0.41666c-0.09749,0.15752 -0.19007,0.2157 -0.25434,0.31585c-0.21262,0.3313 -1.21562,1.04722 -1.21562,1.04722c0,0 -0.6199,0.03143 -1.47839,0.03143c-0.86739,0 -2.04892,-0.50598 -2.04892,-0.50598z" fill="url(#color-4)" stroke="none" stroke-width="0"/><path d="M238.11623,189.40849c0,0 0.12488,-1.62106 0.41767,-3.18807c0.168,-0.89915 0.59889,-1.86353 0.56486,-2.28232c-0.01907,-0.2347 -0.47989,-0.39927 -0.80543,-0.60251c-0.4151,-0.25916 -0.71356,-0.52957 -0.71356,-0.52957c0,0 1.3265,0.45392 2.022,0.45392c0.79139,0 1.46492,-0.10317 1.46492,-0.10317c0,0 -0.10782,0.17004 -0.08711,0.31017c0.0217,0.14687 0.78143,0.57038 0.86153,1.05992c0.14202,0.86802 -0.31839,1.68482 -0.73642,2.29495c-0.58845,0.85887 -1.23469,1.34872 -1.23469,1.34872c0,0 0.65638,0.58703 0.64195,0.90886c-0.01041,0.23226 -1.04806,0.48588 -1.10897,0.5286c-0.25284,0.17737 -1.28676,-0.1995 -1.28676,-0.1995z" fill="#2d231c" stroke="none" stroke-width="0"/><path d="M231.51788,186.71248l-0.51582,-0.96974c0,0 0.3873,-0.65663 0.60865,-0.67816c0.26569,-0.02583 0.87691,0.53373 0.87691,0.53373c0,0 0.14411,0.31694 0.24444,0.48846c0.11166,0.1909 0.33327,0.54317 0.33327,0.54317z" fill="url(#color-5)" stroke="none" stroke-width="0"/><path d="M232.54952,189.436l-1.0729,-2.84731c0,0 0.19471,0.0862 0.41494,0.06482c0.37459,-0.03635 0.73607,-0.06482 1.07061,-0.06482c0.13741,0 0.21386,0.26029 0.35523,0.47783c0.17976,0.27661 0.40565,0.40331 0.59936,0.67636c0.3564,0.50237 0.96426,0.86782 0.96426,0.86782c0,0 -0.19172,0.21415 -0.2341,0.36603c-0.04001,0.14336 -0.01349,0.52117 -0.01349,0.52117c0,0 -0.59324,0.18102 -0.99169,0.20477c-0.57432,0.03423 -1.09221,-0.26667 -1.09221,-0.26667z" fill="#2d231c" stroke="none" stroke-width="0"/><path d="M228.23728,189.93118c0,0 -0.45988,-2.91343 -0.26584,-4.74527c0.09989,-0.94302 0.65772,-2.57143 0.86938,-3.82687c0.23419,-1.38908 0.09797,-2.50763 0.09797,-2.50763c0,0 0.59231,0.26123 0.96144,0.17959c0.21747,-0.04809 0.23669,1.26004 0.43426,1.86588c0.06146,0.18847 0.15885,0.15133 0.27497,0.15261c0.10179,0.00112 0.22754,0.05088 0.22754,0.05088c0,0 0.1851,0.54061 0.0884,1.2113c-0.09322,0.64652 -0.46874,1.411 -0.4496,2.08218c0.01937,0.67899 0.55121,0.81606 0.49404,1.31131c-0.014,0.12124 -0.27066,-0.06104 -0.42471,-0.12736c-0.15825,-0.06812 -0.21392,-0.02071 -0.22272,0.08098c-0.1095,1.26573 -0.18692,3.55024 -0.18692,3.55024c0,0 -0.31859,0.73817 -0.57849,0.83704c-0.3472,0.13209 -1.31972,-0.11489 -1.31972,-0.11489z" fill="#2d231c" stroke="none" stroke-width="0"/><path d="M239.13135,176.98071v-0.68088h0.57772v0.68088z" fill="#615646" stroke="none" stroke-width="0"/><path d="M233.12723,175.88718v-0.55708h0.76341v0.55708z" fill="#615646" stroke="none" stroke-width="0"/><path d="M234.65405,175.18566v-0.35076h0.49519v0.35076z" fill="#615646" stroke="none" stroke-width="0"/><path d="M238.18225,176.11414v-0.76341h0.26823v0.76341z" fill="#615646" stroke="none" stroke-width="0"/><path d="M237.35694,177.00134v-0.41265h0.70151v0.41265z" fill="#615646" stroke="none" stroke-width="0"/><path d="M236.73796,175.88718v-0.68088h0.30949v0.68088z" fill="#615646" stroke="none" stroke-width="0"/><path d="M235.85075,178.09488v-0.63961h0.84594v0.63961z" fill="#615646" stroke="none" stroke-width="0"/><path d="M237.68706,179.29158v-1.89821h0.59835v1.89821z" fill="#615646" stroke="none" stroke-width="0"/><path d="M239.77097,179.82803v-0.68088h0.51582v0.68088z" fill="#615646" stroke="none" stroke-width="0"/><path d="M240.76134,178.07425v-0.57772h0.41265v0.57772z" fill="#615646" stroke="none" stroke-width="0"/><path d="M241.21526,176.44426v-0.47455h0.45392v0.47455z" fill="#615646" stroke="none" stroke-width="0"/><path d="M234.20013,174.32597v-0.59835h0.59835v0.59835z" fill="#615646" stroke="none" stroke-width="0"/><path d="M236.18087,174.2847v-0.49519h0.66025v0.49519z" fill="#615646" stroke="none" stroke-width="0"/><path d="M237.29504,173.12927v-0.43329h1.75378v0.43329z" fill="#615646" stroke="none" stroke-width="0"/><path d="M240.76134,173.93395v-0.74278h0.66025v0.74278z" fill="#615646" stroke="none" stroke-width="0"/><path d="M241.68981,173.10864v-0.45392h0.30949v0.45392z" fill="#615646" stroke="none" stroke-width="0"/><path d="M243.2579,173.10864v-0.41265h0.49519v0.41265z" fill="#615646" stroke="none" stroke-width="0"/><path d="M240.26615,170.99035v-0.43329h0.43329v0.43329z" fill="#615646" stroke="none" stroke-width="0"/><path d="M236.3253,172.08388v-0.37139h0.92847v0.37139z" fill="#615646" stroke="none" stroke-width="0"/><path d="M237.27441,172.5378v-0.26823h0.39202v0.26823z" fill="#615646" stroke="none" stroke-width="0"/><path d="M237.7077,172.08388v-0.33012h0.35076v0.33012z" fill="#615646" stroke="none" stroke-width="0"/><path d="M238.07908,171.56806v-0.53645h0.47455v0.53645z" fill="#615646" stroke="none" stroke-width="0"/><path d="M233.97317,173.65197v-0.43329h0.30949v0.43329z" fill="#615646" stroke="none" stroke-width="0"/><path d="M238.16162,174.14715v-0.45392h0.49519v0.45392z" fill="#615646" stroke="none" stroke-width="0"/><path d="M233.12723,174.8074v-0.55708h0.61898v0.55708z" fill="#615646" stroke="none" stroke-width="0"/><path d="M231.33219,177.03573v-0.55708h0.43329v0.55708z" fill="#615646" stroke="none" stroke-width="0"/><path d="M230.25928,176.97383v-0.39202h0.45392v0.39202z" fill="#615646" stroke="none" stroke-width="0"/><path d="M240.8026,174.72487v-0.43329h0.59835v0.43329z" fill="#615646" stroke="none" stroke-width="0"/><path d="M242.30879,172.5997v-0.39202h0.49519v0.39202z" fill="#615646" stroke="none" stroke-width="0"/><path d="M242.68018,171.62996v-0.61898h0.61898v0.61898z" fill="#615646" stroke="none" stroke-width="0"/><path d="M240.76134,172.414v-0.24759h0.18569v0.24759z" fill="#615646" stroke="none" stroke-width="0"/></g></g></svg>