<svg version="1.1" xmlns="http://www.w3.org/2000/svg" xmlns:xlink="http://www.w3.org/1999/xlink" width="23.74575" height="30.93406" viewBox="0,0,23.74575,30.93406"><defs><linearGradient x1="341.77302" y1="338.2062" x2="341.77302" y2="343.53364" gradientUnits="userSpaceOnUse" id="color-1"><stop offset="0" stop-color="#373c42"/><stop offset="1" stop-color="#6c4a4a"/></linearGradient><linearGradient x1="348.95888" y1="338.82567" x2="348.95888" y2="344.77257" gradientUnits="userSpaceOnUse" id="color-2"><stop offset="0" stop-color="#373c42"/><stop offset="1" stop-color="#6c4a4a"/></linearGradient><linearGradient x1="324.21106" y1="339.87876" x2="324.21106" y2="344.83453" gradientUnits="userSpaceOnUse" id="color-3"><stop offset="0" stop-color="#373c42"/><stop offset="1" stop-color="#6c4a4a"/></linearGradient><linearGradient x1="330.87037" y1="338.26815" x2="330.87037" y2="346.0115" gradientUnits="userSpaceOnUse" id="color-4"><stop offset="0" stop-color="#373c42"/><stop offset="1" stop-color="#6c4a4a"/></linearGradient><linearGradient x1="235.83413" y1="188.55214" x2="235.83413" y2="193.81277" gradientUnits="userSpaceOnUse" id="color-5"><stop offset="0" stop-color="#391f00" stop-opacity="0"/><stop offset="1" stop-color="#391f00"/></linearGradient><linearGradient x1="237.53801" y1="188.57504" x2="237.53801" y2="194.37545" gradientUnits="userSpaceOnUse" id="color-6"><stop offset="0" stop-color="#391f00" stop-opacity="0"/><stop offset="1" stop-color="#391f00"/></linearGradient><linearGradient x1="244.97703" y1="187.73398" x2="244.97703" y2="194.37545" gradientUnits="userSpaceOnUse" id="color-7"><stop offset="0" stop-color="#391f00" stop-opacity="0"/><stop offset="1" stop-color="#391f00"/></linearGradient><linearGradient x1="249.25483" y1="187.53097" x2="249.25483" y2="194.63647" gradientUnits="userSpaceOnUse" id="color-8"><stop offset="0" stop-color="#391f00" stop-opacity="0"/><stop offset="1" stop-color="#391f00"/></linearGradient></defs><g transform="translate(-228.00444,-164.40854)"><g data-paper-data="{&quot;isPaintingLayer&quot;:true}" fill-rule="nonzero" stroke-linecap="butt" stroke-linejoin="miter" stroke-miterlimit="10" stroke-dasharray="" stroke-dashoffset="0" style="mix-blend-mode: normal"><path d="M228.9909,175.33498c0.09305,-1.1036 1.66752,-1.67644 2.15062,-2.78287c0.34942,-0.80027 -0.04008,-1.52943 -0.01011,-2.32368c0.03051,-0.80859 0.47797,-1.67817 0.55668,-2.02224c0.05461,-0.23872 2.54114,-0.04298 3.3395,-0.45704c1.18468,-0.61442 1.32694,-1.85251 1.32694,-1.85251c0,0 1.09708,-0.25293 1.2003,0.09805c0.12378,0.42092 -0.62589,1.54621 -0.22447,1.52983c0.40801,-0.01665 0.55984,-2.27406 1.48077,-2.39597c0.15145,-0.02005 0.71435,0.22452 0.98778,0.7053c0.1725,0.30333 0.22978,0.78087 -0.00418,1.09213c-0.45983,0.61176 -2.68585,1.5083 -3.62726,2.90392c-0.86407,1.28097 -0.47798,3.09436 -0.26289,3.08578c1.40197,-0.0559 0.95025,4.10179 3.02006,4.95655c1.50878,0.62308 4.71063,0.04727 6.47051,0.24634c3.49108,0.3949 5.34883,1.10164 5.34883,1.10164c0,0 0.6163,1.33929 0.43134,3.00378c-0.15688,1.41177 -1.12696,3.06996 -1.0578,4.21277c0.04151,0.68583 1.41033,1.43561 1.57303,2.36694c0.46319,2.6513 -1.92363,6.49361 -1.92363,6.49361c0,0 -0.9805,0.22505 -0.99226,-0.3282c-0.04293,-2.01859 0.78032,-7.28958 0.27808,-7.30633c-0.1266,-0.00422 -1.44353,-0.25702 -1.63749,-0.22725c-0.32644,0.05011 -0.73369,7.43149 -1.20485,7.56818c-0.15127,0.04388 -1.64425,0.17652 -1.6252,-1.09843c0.02122,-1.42032 1.55495,-4.3306 1.35129,-5.72057c-0.2238,-1.52747 -1.25353,-2.06338 -1.48495,-2.03298c-1.32245,0.17372 -3.62832,-0.60897 -5.2173,0.18993c-0.39209,0.19713 -0.0253,8.41159 -0.40775,8.65015c-0.10116,0.06309 -1.13507,0.55873 -1.23639,-0.01866c-0.35323,-2.013 0.22556,-7.65572 -0.12647,-7.52448c-1.03829,0.38708 0.20435,6.03974 -0.73894,6.83009c-0.09879,0.08278 -0.72666,0.36162 -0.82007,-0.08694c-0.20243,-0.97211 0.12468,-3.25768 -0.05405,-5.28061c-0.12318,-1.39416 -0.74311,-2.71022 -0.90182,-3.19648c-0.45071,-1.38087 -1.70708,-2.95792 -1.73638,-4.82186c-0.02586,-1.64493 0.39157,-5.14186 -0.29642,-4.98034c-0.80322,0.18857 -1.63934,0.17436 -2.51989,0.12698c-0.61602,-0.03314 -1.48054,0.1896 -1.40515,-0.70453z" fill-opacity="0.5" fill="#000000" stroke="none" stroke-width="0"/><path d="" fill-opacity="0.5" fill="#000000" stroke="none" stroke-width="0"/><path d="" fill="#5e6669" stroke="#ffffff" stroke-width="0.5"/><path d="" fill="#464d55" stroke="none" stroke-width="0"/><path d="" fill="#464d55" stroke="none" stroke-width="0"/><path d="" fill="#464d55" stroke="none" stroke-width="0"/><path d="" fill="#464d55" stroke="none" stroke-width="0"/><path d="" fill="url(#color-1)" stroke="none" stroke-width="0"/><path d="" fill="url(#color-2)" stroke="none" stroke-width="0"/><path d="" fill="#464d55" stroke="none" stroke-width="0"/><path d="" fill="url(#color-3)" stroke="none" stroke-width="0"/><path d="" fill="url(#color-4)" stroke="none" stroke-width="0"/><path d="" fill="#ffffff" stroke="none" stroke-width="0"/><path d="" fill="#373c42" stroke="none" stroke-width="0"/><path d="M228.25444,174.86498c0.09305,-1.1036 1.66752,-1.67644 2.15062,-2.78287c0.34942,-0.80027 -0.04008,-1.52943 -0.01011,-2.32368c0.03051,-0.80859 0.47797,-1.67817 0.55668,-2.02224c0.05461,-0.23872 2.54114,-0.04298 3.3395,-0.45704c1.18468,-0.61442 1.32694,-1.85251 1.32694,-1.85251c0,0 1.09707,-0.25293 1.20029,0.09805c0.12378,0.42092 -0.62589,1.54621 -0.22446,1.52982c0.40801,-0.01665 0.55984,-2.27406 1.48077,-2.39597c0.15145,-0.02005 0.71435,0.22452 0.98778,0.7053c0.1725,0.30333 0.22978,0.78087 -0.00418,1.09212c-0.45983,0.61176 -2.68586,1.5083 -3.62726,2.90392c-0.86407,1.28097 -0.47798,3.09436 -0.26289,3.08578c1.40197,-0.0559 0.95025,4.10179 3.02006,4.95655c1.50878,0.62308 4.71063,0.04727 6.47051,0.24634c3.49108,0.3949 5.34882,1.10163 5.34882,1.10163c0,0 0.6163,1.33929 0.43134,3.00379c-0.15688,1.41178 -1.12696,3.06996 -1.0578,4.21277c0.04151,0.68583 1.41033,1.43561 1.57303,2.36694c0.46319,2.6513 -1.92363,6.49361 -1.92363,6.49361c0,0 -0.9805,0.22505 -0.99227,-0.3282c-0.04293,-2.01859 0.78032,-7.28958 0.27808,-7.30633c-0.1266,-0.00422 -1.44352,-0.25702 -1.63749,-0.22725c-0.32644,0.05011 -0.73369,7.43149 -1.20485,7.56818c-0.15127,0.04388 -1.64425,0.17652 -1.6252,-1.09843c0.02122,-1.42032 1.55495,-4.3306 1.35129,-5.72057c-0.2238,-1.52747 -1.25353,-2.06338 -1.48495,-2.03298c-1.32245,0.17372 -3.62832,-0.60897 -5.2173,0.18993c-0.39209,0.19713 -0.0253,8.41159 -0.40775,8.65015c-0.10116,0.06309 -1.13507,0.55873 -1.23639,-0.01866c-0.35323,-2.013 0.22555,-7.65572 -0.12648,-7.52448c-0.34394,0.12822 -0.43759,0.83426 -0.44332,1.74996c-0.01156,1.84857 0.3352,4.55159 -0.29562,5.08013c-0.09879,0.08278 -0.72666,0.36161 -0.82007,-0.08694c-0.20243,-0.97211 0.12468,-3.25767 -0.05405,-5.28061c-0.12318,-1.39416 -0.74311,-2.71022 -0.90182,-3.19648c-0.45071,-1.38086 -1.70708,-2.95792 -1.73638,-4.82186c-0.02586,-1.64493 0.39157,-5.14186 -0.29642,-4.98034c-0.80322,0.18857 -1.63934,0.17436 -2.51989,0.12698c-0.61602,-0.03314 -1.48054,0.1896 -1.40515,-0.70453z" fill="#bfab89" stroke="#ffffff" stroke-width="0.5"/><path d="M230.99254,171.82369c0,0 -0.41899,-0.95036 -0.41899,-1.67595c0,-1.24538 0.55865,-2.28115 0.55865,-2.28115c0,0 1.92489,-0.08186 2.94178,-0.44042c0.36249,-0.12781 0.80289,-0.43883 1.1849,-0.95631c0.18103,-0.24522 0.20454,-0.78951 0.46809,-0.91423c1.4598,-0.69078 0.66585,1.51953 0.66585,1.51953c0,0 0.26877,0.37774 0.601,-0.12654c0.2551,-0.38721 0.26829,-1.05353 0.50528,-1.53228c0.19421,-0.39231 0.63045,-0.65867 0.69891,-0.54227c0.09704,0.16495 0.75216,0.20038 0.84466,0.67586c0.06271,0.32236 -0.17866,0.94141 -0.93554,1.52817c-1.12895,0.8752 -2.94862,1.79259 -2.94386,2.46457c0.00269,0.37905 -0.28896,0.75098 -0.30953,1.02731c-0.06883,0.92468 -0.09032,1.20715 -0.09032,1.20715c0,0 -1.70274,0.04655 -2.42082,0.04655c-0.52142,0 -1.35007,0 -1.35007,0z" fill="#3a2a13" stroke="none" stroke-width="0"/><path d="M228.57171,174.98936v-0.37243l0.83798,-0.09311l0.46554,0.5121z" fill="#433409" stroke="none" stroke-width="0"/><path d="M231.17874,173.45307l-0.32588,-0.5121l1.6294,-0.04655l0.13966,0.46554z" fill="#433409" stroke="none" stroke-width="0"/><path d="M236.95488,178.67975c-0.66677,-0.72836 -1.18318,-1.49857 -1.54173,-2.27122c-0.55439,-1.19467 -2.04637,-4.67796 -2.04637,-4.67796c0,0 0.70169,-0.35003 1.44072,0.08355c0.28261,0.1658 0.80915,0.96289 0.9526,1.17658c0.81936,1.22051 0.90108,4.03696 2.59499,4.68034c0.99252,0.37698 3.86043,0.01499 5.90795,0.17071c2.9368,0.22336 5.07182,0.87195 5.07182,0.87195l0.65176,0.37243c0,0 -7.00474,-0.02862 -8.79107,0.07984c-0.51081,0.03101 -3.88966,-0.10279 -4.24068,-0.48622z" fill="#796143" stroke="none" stroke-width="0"/><path d="M238.2084,185.77441c0,0 -0.63504,-1.188 -0.67359,-1.90505c-0.03903,-0.72603 0.44082,-2.42449 0.44082,-2.42449c0,0 2.26909,1.7225 3.3519,1.7225c1.21428,0 3.58467,-1.7225 3.58467,-1.7225c0,0 0.55865,1.80097 0.55865,2.56048c0,0.65152 -0.69831,1.90872 -0.69831,1.90872c0,0 -2.7374,-0.6052 -3.53812,-0.6052c-0.17778,0 -3.02602,0.46554 -3.02602,0.46554z" fill="#efdfc8" stroke="none" stroke-width="0"/><path d="M234.01853,184.00535c0,0 -1.0154,-1.61978 -1.19619,-2.51679c-0.21628,-1.07309 -0.01422,-3.4887 -0.01422,-3.4887h0.88453c0,0 2.18684,3.30941 2.633,4.45912c0.27667,0.71295 -1.32948,1.82569 -1.32948,1.82569z" fill="#efdfc8" stroke="none" stroke-width="0"/><path d="M235.32814,193.75476l0.08701,-5.20262l0.55865,-0.09311l0.18622,5.26062z" fill="url(#color-5)" stroke="none" stroke-width="0"/><path d="M237.08848,194.52046c0,0 -0.07034,-1.26453 -0.07809,-2.05895c-0.01065,-1.09144 0.02009,-3.88647 0.02009,-3.88647h1.01507v5.80041z" fill="url(#color-6)" stroke="none" stroke-width="0"/><path d="M244.60001,194.25944c0,0 -0.26272,-0.07947 -0.39194,-0.35654c-0.1488,-0.31905 -0.1584,-0.87175 -0.0101,-1.39878c0.38915,-1.38305 1.03602,-3.07247 1.19951,-3.75854c0.12654,-0.53101 0.0726,-1.1856 0.0726,-1.1856l0.78305,0.058c0,0 -0.38327,3.63315 -0.55431,4.86787c-0.10606,0.76564 -0.28675,1.8896 -0.28675,1.8896z" fill="url(#color-7)" stroke="none" stroke-width="0"/><path d="M248.28327,194.57846c0,0 -0.02259,-0.12777 -0.01436,-0.25442c0.04407,-0.67871 0.5074,-6.56106 0.5074,-6.56106l1.53711,-0.11601c0,0 0.41222,0.45704 0.46855,0.95981c0.05106,0.45571 -0.03711,1.69662 -0.37797,2.76286c-0.54081,1.69173 -1.54069,3.23781 -1.54069,3.23781c0,0 -0.1527,0.02016 -0.25255,0.00439c-0.0788,-0.01244 -0.32749,-0.03339 -0.32749,-0.03339z" fill="url(#color-8)" stroke="none" stroke-width="0"/></g></g></svg>