<svg version="1.1" xmlns="http://www.w3.org/2000/svg" xmlns:xlink="http://www.w3.org/1999/xlink" width="32.07438" height="27.67604" viewBox="0,0,32.07438,27.67604"><defs><linearGradient x1="240.00001" y1="180.00001" x2="240.00001" y2="180.00001" gradientUnits="userSpaceOnUse" id="color-1"><stop offset="0" stop-color="#373c42"/><stop offset="1" stop-color="#6c4a4a"/></linearGradient><linearGradient x1="240.00001" y1="180.00001" x2="240.00001" y2="180.00001" gradientUnits="userSpaceOnUse" id="color-2"><stop offset="0" stop-color="#373c42"/><stop offset="1" stop-color="#6c4a4a"/></linearGradient><linearGradient x1="240.00001" y1="180.00001" x2="240.00001" y2="180.00001" gradientUnits="userSpaceOnUse" id="color-3"><stop offset="0" stop-color="#373c42"/><stop offset="1" stop-color="#6c4a4a"/></linearGradient><linearGradient x1="240.00001" y1="180.00001" x2="240.00001" y2="180.00001" gradientUnits="userSpaceOnUse" id="color-4"><stop offset="0" stop-color="#373c42"/><stop offset="1" stop-color="#6c4a4a"/></linearGradient><linearGradient x1="239.76136" y1="166.28699" x2="239.76136" y2="193.08156" gradientUnits="userSpaceOnUse" id="color-5"><stop offset="0" stop-color="#c2a6a3"/><stop offset="1" stop-color="#a88f8c"/></linearGradient></defs><g transform="translate(-223.83781,-166.03698)"><g data-paper-data="{&quot;isPaintingLayer&quot;:true}" fill-rule="nonzero" stroke-linecap="butt" stroke-linejoin="miter" stroke-miterlimit="10" stroke-dasharray="" stroke-dashoffset="0" style="mix-blend-mode: normal"><path d="M225.48938,187.23799c0,0 -1.19767,-2.84784 -0.86631,-5.64719c0.18788,-1.58727 -0.08435,-4.48546 0.58261,-7.27116c0.83229,-3.47626 2.61163,-6.74869 2.61163,-6.74869c0,0 2.85856,-0.68234 5.61476,-0.65146c2.16308,0.02424 5.90443,0.92074 10.27308,1.11505c6.07824,0.27035 11.72628,6.11884 11.72628,6.11884c0,0 0.40452,1.52723 0.47824,2.87689c0.08064,1.47628 -1.79993,5.51644 -1.68716,8.92615c0.07065,2.13635 0.68587,4.46602 0.34682,5.5736c-0.29481,0.96307 -1.5461,0.84548 -1.5461,0.84548c0,0 -0.53939,-0.30424 -1.20043,-0.28358c-0.29116,0.0091 -0.27953,0.98983 -0.8927,1.01401c-0.4854,0.01914 -1.18087,0.34455 -1.88115,0.3597c-0.39364,0.00852 -0.75365,-0.29192 -1.16462,-0.28456c-0.13149,0.00235 -0.75359,-0.57658 -0.50897,-1.25295c0.4112,-1.137 1.86404,-2.83087 1.94016,-4.55643c0.10228,-2.31868 -1.33661,-4.40128 -1.51536,-4.38973c-0.27513,0.01778 -1.4703,0.30138 -2.96655,0.35507c-1.92583,0.06912 -3.44226,-0.40557 -3.82914,-0.33023c-0.32362,0.06303 1.00371,4.18879 1.32461,6.74161c0.16974,1.35029 -0.46244,1.91361 -0.63103,1.96179c-0.65337,0.18675 -2.67808,0.27301 -3.33935,0.42139c-0.14502,0.03254 -0.55074,-0.66663 -0.33643,-1.37239c0.07809,-0.25716 0.79428,-0.83371 0.80748,-1.59571c0.02361,-1.36247 -0.73235,-3.09205 -0.95923,-3.04252c-0.12485,0.02725 -0.17483,2.83815 -0.50448,4.84977c-0.23495,1.43372 -0.76995,2.26395 -0.85868,2.28687c-0.75229,0.19439 -2.13165,0.34324 -2.84694,0.45455c-0.19849,0.03089 -1.10862,-0.77026 -0.94293,-1.36686c0.19586,-0.70522 1.48662,-1.22671 1.37333,-1.21514c-0.28615,0.02922 0.54875,-12.13776 0.25865,-12.09859c-0.21168,0.02858 -1.22971,-1.11218 -1.44766,-1.01772c-0.30821,0.13358 -2.4348,0.41454 -3.85721,1.69529c-0.77774,0.70029 -1.17613,2.65615 -1.34319,2.83147c-0.4437,0.46563 -0.64639,2.92006 -0.09893,4.20463c0.3818,0.89587 1.58199,0.68676 1.40821,1.09632c-0.08615,0.20305 0.57043,-1.4959 1.07155,-1.6805c0.51496,-0.1897 0.87475,1.13434 0.77417,1.31883c-0.23368,0.42863 -0.213,1.25994 -0.5549,1.68118c-1.93938,2.38945 -4.81215,-1.9231 -4.81215,-1.9231z" fill-opacity="0.5" fill="#000000" stroke="none" stroke-width="0"/><path d="" fill-opacity="0.5" fill="#000000" stroke="none" stroke-width="0"/><path d="" fill="#5e6669" stroke="#ffffff" stroke-width="0.5"/><path d="" fill="#464d55" stroke="none" stroke-width="0"/><path d="" fill="#464d55" stroke="none" stroke-width="0"/><path d="" fill="#464d55" stroke="none" stroke-width="0"/><path d="" fill="#464d55" stroke="none" stroke-width="0"/><path d="" fill="url(#color-1)" stroke="none" stroke-width="0"/><path d="" fill="url(#color-2)" stroke="none" stroke-width="0"/><path d="" fill="#464d55" stroke="none" stroke-width="0"/><path d="" fill="url(#color-3)" stroke="none" stroke-width="0"/><path d="" fill="url(#color-4)" stroke="none" stroke-width="0"/><path d="" fill="#ffffff" stroke="none" stroke-width="0"/><path d="" fill="#373c42" stroke="none" stroke-width="0"/><path d="M225.01208,186.6065c0,0 -1.19766,-2.84783 -0.86631,-5.64719c0.18788,-1.58727 -0.08435,-4.48546 0.58261,-7.27116c0.83229,-3.47625 2.61164,-6.74869 2.61164,-6.74869c0,0 2.85856,-0.68234 5.61476,-0.65146c2.16308,0.02424 5.90443,0.92074 10.27308,1.11505c6.07824,0.27035 11.72629,6.11884 11.72629,6.11884c0,0 0.40451,1.52723 0.47823,2.87689c0.08064,1.47628 -1.79993,5.51644 -1.68717,8.92615c0.07065,2.13634 0.68588,4.46602 0.34683,5.57359c-0.29481,0.96306 -1.5461,0.84549 -1.5461,0.84549c0,0 -0.53938,-0.30424 -1.20042,-0.28358c-0.29116,0.0091 -0.27953,0.98983 -0.89271,1.01401c-0.48541,0.01914 -1.18087,0.34454 -1.88115,0.3597c-0.39364,0.00852 -0.75365,-0.29192 -1.16462,-0.28456c-0.13149,0.00236 -0.75359,-0.57657 -0.50897,-1.25294c0.41121,-1.137 1.86403,-2.83087 1.94016,-4.55643c0.10229,-2.31868 -1.33661,-4.40129 -1.51536,-4.38973c-0.27513,0.01778 -1.47031,0.30138 -2.96655,0.35508c-1.92583,0.06912 -3.44225,-0.40557 -3.82913,-0.33023c-0.32362,0.06302 1.00371,4.1888 1.32461,6.74162c0.16974,1.35029 -0.46244,1.91361 -0.63103,1.96179c-0.65337,0.18675 -2.67808,0.27301 -3.33935,0.42139c-0.14502,0.03254 -0.55074,-0.66663 -0.33643,-1.37239c0.07809,-0.25716 0.79428,-0.8337 0.80748,-1.59571c0.02361,-1.36247 -0.73235,-3.09204 -0.95923,-3.04252c-0.12486,0.02725 -0.17483,2.83815 -0.50448,4.84976c-0.23495,1.43372 -0.76995,2.26394 -0.85867,2.28687c-0.75229,0.19439 -2.13165,0.34324 -2.84694,0.45455c-0.19849,0.03089 -1.10862,-0.77026 -0.94293,-1.36686c0.19587,-0.70522 1.48661,-1.2267 1.37332,-1.21514c-0.28615,0.02922 0.54875,-12.13776 0.25865,-12.0986c-0.21168,0.02858 -1.22971,-1.11218 -1.44766,-1.01772c-0.30821,0.13357 -2.4348,0.41453 -3.85721,1.69529c-0.77774,0.70029 -1.17613,2.65615 -1.34319,2.83147c-0.4437,0.46564 -0.64639,2.92006 -0.09893,4.20464c0.3818,0.89587 1.58199,0.68676 1.40821,1.09631c-0.08615,0.20305 0.57043,-1.4959 1.07155,-1.6805c0.51496,-0.1897 0.87475,1.13433 0.77416,1.31883c-0.23368,0.42863 -0.213,1.25994 -0.5549,1.68118c-1.93938,2.38946 -4.81215,-1.9231 -4.81215,-1.9231z" fill="url(#color-5)" stroke="#ffffff" stroke-width="0.5"/><path d="M240.32575,182.24362c0,0 -0.59547,-0.63621 -0.82237,-1.29086c-0.18408,-0.53111 -0.00862,-1.07436 -0.00862,-1.29989c0,-0.22518 0.53771,-0.24441 0.53771,-0.24441c0,0 -0.30837,-0.17958 0.04688,-0.08982c0.79892,0.20185 2.23461,0.52976 3.13046,0.52976c1.02076,0 2.86748,-0.3361 3.88118,-0.53722c0.43279,-0.08587 0.17603,-0.04937 0.17603,-0.04937c0,0 0.6886,0.15171 0.83733,0.46239c0.14451,0.30187 0.28696,0.66153 0.28696,0.90631c0,0.4804 -0.87988,1.61311 -0.87988,1.61311c0,0 -3.10133,0.34217 -3.95945,0.34217c-0.16413,0 -3.22622,-0.34217 -3.22622,-0.34217z" fill="#776d69" stroke="none" stroke-width="0"/><path d="M251.32422,191.14015c0,0 -0.24225,0.93663 -1.24134,1.30279c-0.88133,0.323 -2.7098,0.11533 -2.97448,-0.33854c-0.441,-0.75623 0.92483,-2.17096 1.44919,-3.89118c0.16129,-0.52914 0.39589,-0.76873 0.52074,-1.31012c0.16083,-0.69745 -0.18705,-1.6212 -0.03936,-1.98582c0.94639,-2.33641 6.04917,-7.26857 6.04917,-7.26857c0,0 -1.2823,6.06354 -1.5025,6.82545c-0.03545,0.12264 0.4271,5.10178 0.4271,5.10178c0,0 -0.06535,0.95418 -0.19064,1.27158c-0.11877,0.3009 -0.5426,0.58594 -0.5426,0.58594c0,0 -0.46347,0.29098 -0.72772,0.25398c-0.44843,-0.06278 -1.22756,-0.54728 -1.22756,-0.54728z" fill="#78675f" stroke="none" stroke-width="0"/><path d="M250.83538,191.87339c0,0 0.1021,-2.77175 0.12734,-4.10923c0.02353,-1.24693 0.01931,-3.66303 0.01931,-3.66303c0,0 0.45216,-0.40572 0.67504,-0.35223c0.16994,0.04078 0.54702,0.64552 0.54702,0.64552c0,0 -0.37314,2.25994 -0.38909,3.42445c-0.01661,1.21248 0.29132,3.71233 0.29132,3.71233c0,0 -0.59777,-0.30507 -0.78925,-0.2055c-0.21347,0.11101 -0.48168,0.54768 -0.48168,0.54768z" fill="#524742" stroke="none" stroke-width="0"/><path d="M236.46405,191.09127c0,0 -1.59422,-1.26807 -1.93135,-2.1778c-0.56572,-1.52654 2.12688,-5.64334 2.12688,-5.64334c0,0 1.31764,-0.72864 1.91145,-0.75208c0.64094,-0.0253 1.80359,0.60544 1.80359,0.60544l1.17317,5.47479c0,0 -0.63239,0.57214 -1.41314,0.5896c-0.42899,0.00959 -1.03468,-0.19716 -1.42722,-0.70942c-0.30913,-0.40341 -0.35837,-1.02226 -0.49062,-1.42611c-0.3632,-1.10908 -0.3931,-1.87582 -0.82399,-1.87582c-0.3723,0 -0.41153,2.10766 -0.62664,3.77138c-0.15848,1.22567 -0.30212,2.14335 -0.30212,2.14335z" fill="#786860" stroke="none" stroke-width="0"/><path d="M227.37452,172.77368c0,0 -0.2383,-0.35081 -0.23092,-0.51321c0.00667,-0.14675 0.14617,-0.16478 0.14617,-0.16478c0,0 0.06187,-0.19377 0.18961,-0.15289c0.19559,0.06259 0.70026,0.23764 0.70026,0.23764c0,0 0.11518,0.16715 0.10863,0.25898c-0.00745,0.10432 -0.151,0.33426 -0.151,0.33426c0,0 -0.25425,0.12712 -0.38137,0.12712c-0.12712,0 -0.38137,-0.12712 -0.38137,-0.12712z" fill="#412e26" stroke="none" stroke-width="0"/><path d="M230.17124,177.81626l-0.04237,-3.81372c0,0 0.7683,-1.94154 1.8662,-1.54112c0.49607,0.18092 0.08305,1.03263 0.42203,1.03263c0.34623,0 0.68774,-0.82774 1.1171,-1.1017c0.60312,-0.38483 1.25588,-0.25429 1.25588,-0.25429l-0.63562,6.1867c0,0 -0.40573,-0.1014 -0.76613,-0.41323c-0.2956,-0.25576 -0.50523,-0.72243 -0.90604,-0.80259c-0.25551,-0.0511 -0.60099,0.28442 -0.90217,0.36517c-0.73128,0.19605 -1.40887,0.34216 -1.40887,0.34216z" fill="#7a6660" stroke="none" stroke-width="0"/><path d="M224.40829,183.21197c0,0 0.71634,-1.04615 1.64423,-2.40757c0.76278,-1.11916 1.78812,-4.49949 1.78812,-4.49949c0,0 0.94953,-0.57598 1.47999,-0.58941c0.58083,-0.0147 1.8676,0.50466 1.8676,0.50466c0,0 0.25518,0.63613 -0.12582,1.14509c-0.40669,0.54327 -1.58071,0.62024 -2.24523,1.27299c-0.38913,0.38224 -0.73141,0.69851 -1.02337,1.30552c-0.26544,0.55186 -0.57404,1.69944 -0.7537,1.93008c-0.95486,1.22575 -1.8267,2.01613 -1.8267,2.01613c0,0 -0.40027,0.38137 -0.55087,0.38137c-0.21881,0 -0.25425,-1.05937 -0.25425,-1.05937z" fill="#fbe4de" stroke="none" stroke-width="0"/><path d="M233.79806,172.34994c0,0 -0.13733,-1.55719 -0.00138,-2.42474c0.15749,-1.00492 0.89124,-3.25346 0.89124,-3.25346l2.16111,0.21187c0,0 -0.58158,2.00622 -0.96136,2.93706c-0.33494,0.82093 -1.15737,2.44452 -1.15737,2.44452z" fill="#7c6868" stroke="none" stroke-width="0"/></g></g></svg>