<svg version="1.1" xmlns="http://www.w3.org/2000/svg" xmlns:xlink="http://www.w3.org/1999/xlink" width="33.24615" height="19.93443" viewBox="0,0,33.24615,19.93443"><defs><linearGradient x1="249.19431" y1="178.28314" x2="249.19431" y2="187.26581" gradientUnits="userSpaceOnUse" id="color-1"><stop offset="0" stop-color="#dab698"/><stop offset="1" stop-color="#7e6957"/></linearGradient><linearGradient x1="237.34746" y1="177.29083" x2="237.34746" y2="188.32865" gradientUnits="userSpaceOnUse" id="color-2"><stop offset="0" stop-color="#c5a487"/><stop offset="1" stop-color="#7e6957"/></linearGradient><linearGradient x1="226.4972" y1="182.33874" x2="239.01572" y2="182.33874" gradientUnits="userSpaceOnUse" id="color-3"><stop offset="0" stop-color="#d3b357"/><stop offset="1" stop-color="#9a712d"/></linearGradient></defs><g transform="translate(-223.2487,-169.90779)"><g data-paper-data="{&quot;isPaintingLayer&quot;:true}" fill-rule="nonzero" stroke-linecap="butt" stroke-linejoin="miter" stroke-miterlimit="10" stroke-dasharray="" stroke-dashoffset="0" style="mix-blend-mode: normal"><path d="M224.17182,176.80613l0.05556,-2.17929c0,0 1.31342,-2.50806 3.11248,-2.67624c0.95105,-0.08891 3.02175,-0.77596 4.7645,-0.67077c1.68973,0.10199 3.02786,0.99537 5.45593,0.97404c1.34767,-0.01184 2.64419,-0.20319 4.05627,-0.23621c3.06392,-0.07166 6.11263,0.95479 7.90503,2.80304c2.44118,2.51724 3.07447,6.08392 3.07447,6.08392c0,0 0.33623,0.89393 1.12142,1.07345c0.41023,0.0938 0.9651,-0.48492 1.42671,-0.52101c0.64944,-0.05077 1.16866,0.42845 1.31561,0.61623c0.29949,0.38272 -1.41929,1.95505 -1.41929,1.95505c0,0 -1.03116,0.1307 -1.65938,-0.09437c-0.88817,-0.31821 -1.52584,-1.01458 -2.11133,-0.91324c-0.10915,0.01889 0.3307,1.41804 0.27713,2.16223c-0.1044,1.4503 -0.68382,2.74471 -1.05221,2.82206c-0.23991,0.05037 -0.68037,0.46478 -1.03448,0.48642c-0.42444,0.02594 -0.77334,-0.34258 -1.15759,-0.29164c-0.24854,0.03295 0.63453,-0.94875 0.73705,-2.22952c0.10582,-1.32193 -0.5691,-2.94435 -0.86131,-2.91408c-0.24662,0.02555 0.33962,1.60985 -0.50967,3.01374c-0.98332,1.62545 -3.41805,3.10364 -3.73582,3.1531c-0.44361,0.06904 -1.02502,0.50154 -1.63897,0.54168c-0.44864,0.02934 -0.94054,-0.33208 -1.28016,-0.29787c-0.07139,0.00719 0.18678,-0.87229 0.75408,-1.41913c0.84503,-0.81456 2.17281,-1.56817 2.48084,-3.0144c0.45055,-2.11543 -1.47028,-4.65414 -1.62669,-4.64117c-0.90017,0.07471 -3.80169,-0.00168 -4.45581,1.44889c-0.2675,0.59321 -0.06333,1.50384 -0.06726,2.2748c-0.00952,1.86787 0.11219,3.72756 -0.84589,4.15255c-0.44103,0.19564 -0.9433,0.86838 -1.39247,1.02056c-0.90823,0.3077 -1.77096,0.03127 -2.67259,0.18982c-0.13923,0.02448 -0.30375,-0.31774 0.18626,-0.98881c0.3039,-0.41619 1.23563,-1.02725 1.44355,-1.54889c0.42735,-1.07217 0.12467,-2.36303 -0.04882,-2.34251c-0.29095,0.0344 -0.00928,0.6046 -0.50645,1.2227c-1.04027,1.29331 -3.05066,3.17168 -3.73504,3.42368c-0.1088,0.04006 -0.19777,0.27244 -0.65597,0.38897c-1.11037,0.28239 -3.0356,0.42585 -2.85086,-0.57033c0.19695,-1.06202 1.59704,-0.25496 2.68917,-2.03567c1.14203,-1.86208 1.97327,-6.30973 1.95665,-7.24559c-0.01679,-0.94542 -1.6017,-1.06888 -1.82494,-1.06502c-0.78807,0.01365 -2.75928,0.61719 -3.80917,0.21968c-1.42838,-0.54081 -1.86055,-2.13084 -1.86055,-2.13084z" fill-opacity="0.5" fill="#000000" stroke="none" stroke-width="0"/><path d="M223.50515,175.69501l0.05556,-2.17929c0,0 1.31342,-2.50806 3.11248,-2.67624c0.95105,-0.08891 3.02175,-0.77596 4.7645,-0.67077c1.68973,0.10199 3.02786,0.99537 5.45593,0.97404c1.34767,-0.01184 2.64419,-0.20319 4.05627,-0.23621c3.06392,-0.07166 6.11263,0.95479 7.90503,2.80304c2.44118,2.51724 3.07447,6.08393 3.07447,6.08393c0,0 0.33623,0.89393 1.12142,1.07345c0.41023,0.0938 0.9651,-0.48492 1.42671,-0.52101c0.64944,-0.05077 1.16866,0.42845 1.31561,0.61623c0.29949,0.38272 -1.41929,1.95505 -1.41929,1.95505c0,0 -1.03116,0.1307 -1.65938,-0.09437c-0.88817,-0.31821 -1.52584,-1.01458 -2.11133,-0.91324c-0.10915,0.01889 0.3307,1.41804 0.27713,2.16223c-0.1044,1.4503 -0.68382,2.74471 -1.05221,2.82206c-0.23991,0.05037 -0.68037,0.46478 -1.03448,0.48642c-0.42444,0.02594 -0.77334,-0.34258 -1.15759,-0.29164c-0.24854,0.03295 0.63453,-0.94875 0.73705,-2.22952c0.10582,-1.32193 -0.5691,-2.94435 -0.86131,-2.91408c-0.24662,0.02555 0.33962,1.60985 -0.50967,3.01374c-0.98332,1.62545 -3.41805,3.10364 -3.73582,3.1531c-0.44361,0.06904 -1.02502,0.50154 -1.63897,0.54168c-0.44864,0.02934 -0.94054,-0.33208 -1.28016,-0.29787c-0.07139,0.00719 0.18678,-0.87229 0.75408,-1.41913c0.84503,-0.81456 2.17281,-1.56817 2.48084,-3.0144c0.45055,-2.11543 -1.47028,-4.65414 -1.62669,-4.64117c-0.90017,0.07471 -3.80169,-0.00168 -4.45581,1.44889c-0.2675,0.59321 -0.06333,1.50384 -0.06726,2.2748c-0.00952,1.86787 0.11219,3.72756 -0.84589,4.15255c-0.44103,0.19564 -0.9433,0.86838 -1.39247,1.02056c-0.90823,0.3077 -1.77096,0.03127 -2.67259,0.18982c-0.13923,0.02448 -0.30375,-0.31774 0.18626,-0.98881c0.3039,-0.41619 1.23563,-1.02725 1.44355,-1.54889c0.42735,-1.07217 0.12467,-2.36303 -0.04882,-2.34251c-0.29095,0.0344 -0.00928,0.6046 -0.50645,1.2227c-1.04027,1.29331 -3.05066,3.17168 -3.73504,3.42368c-0.1088,0.04006 -0.19777,0.27244 -0.65597,0.38896c-1.11037,0.28239 -3.03559,0.42586 -2.85085,-0.57033c0.19695,-1.06201 1.59704,-0.25496 2.68917,-2.03567c1.14203,-1.86208 1.97327,-6.30974 1.95665,-7.2456c-0.01679,-0.94542 -1.6017,-1.06889 -1.82494,-1.06502c-0.78806,0.01365 -2.75929,0.61719 -3.80917,0.21968c-1.42839,-0.54081 -1.86054,-2.13084 -1.86054,-2.13084z" fill="#d69245" stroke="#ffffff" stroke-width="0.5"/><path d="M240.54686,188.09627c0,0 0.0521,-0.58668 0.65514,-1.20655c0.74838,-0.76925 2.1243,-1.6878 2.69929,-2.75642c1.08098,-2.00902 0.84947,-4.26765 1.11098,-6.08093c0.11933,-0.82737 0.98914,-1.56202 0.98914,-2.13793c0,-1.51766 -0.95455,-4.27272 -0.95455,-4.27272c0,0 2.70229,1.10129 3.79511,2.11903c0.79731,0.74254 2.06752,3.56278 2.06752,3.56278c0,0 -1.50528,0.46001 -2.54654,1.92668c-0.35848,0.50494 -0.3467,1.65008 -0.64487,2.22767c-0.55773,1.08039 -0.4373,2.87293 -0.74338,3.39171c-0.45758,0.77557 -1.47328,1.54486 -1.47328,1.54486c0,0 -0.92557,0.82913 -1.8681,1.34729c-0.65278,0.35887 -1.31369,0.49334 -1.68091,0.618c-0.70948,0.24083 -1.40554,-0.28347 -1.40554,-0.28347z" fill="#9a712d" stroke="none" stroke-width="0"/><path d="M247.75646,187.13501c0,0 0.77778,-1.63987 0.77778,-2.81482c0,-1.38343 -0.96296,-2.70371 -0.96296,-2.70371c0,0 0.35498,-1.96627 0.65587,-2.52702c0.19795,-0.36891 1.04783,-0.80631 1.04783,-0.80631c0,0 0.83454,2.43116 1.07801,3.75365c0.09256,0.50279 0.43144,1.19466 0.46215,1.94766c0.02947,0.72252 -0.24244,1.50428 -0.46847,2.09271c-0.27938,0.72731 -1.36798,1.16894 -1.36798,1.16894c0,0 -0.5268,0.03291 -0.73861,0.01366c-0.19403,-0.01764 -0.48361,-0.12477 -0.48361,-0.12477z" fill="url(#color-1)" stroke="none" stroke-width="0"/><path d="M233.38609,188.28314c0,0 -0.97908,0.20377 -0.79491,-0.2512c0.06817,-0.16841 0.09663,-0.45762 0.35407,-0.73916c0.4722,-0.51639 1.27696,-1.09452 1.41656,-1.47274c0.12527,-0.33938 0.24677,-0.70915 0.19,-1.21388c-0.06421,-0.5709 -0.30475,-1.29377 -0.06781,-1.95736c0.17944,-0.50259 -0.04179,-0.99393 0.12619,-1.42455c0.33056,-0.84739 0.99811,-1.45962 0.99811,-1.45962c0,0 2.86143,-2.17362 3.92346,-2.45379c0.93376,-0.24633 2.59506,1.8612 2.59506,1.8612c0,0 -3.67845,-0.14595 -4.44791,1.03321c-0.51701,0.7923 -0.37873,2.45065 -0.4438,3.88755c-0.06655,1.46937 -0.33051,2.70887 -0.33051,2.70887c0,0 -0.45106,0.16592 -0.84748,0.52336c-0.33832,0.30505 -0.55633,0.80997 -1.30066,0.80997c-0.7695,0 -1.37037,0.14814 -1.37037,0.14814z" fill="url(#color-2)" stroke="none" stroke-width="0"/><path d="M225.46015,177.7276c0,0 -1.06587,-0.57317 -1.33051,-0.92803c-0.27792,-0.37266 -0.29913,-1.25716 -0.29913,-1.25716c0,0 0.92267,-0.54026 2.17467,-0.68413c0.39176,-0.04502 1.2501,0.18266 1.56438,0.17731c0.70517,-0.01201 1.91086,-0.23475 2.89299,-0.15119c1.17136,0.09967 2.07166,0.50987 2.07166,0.50987c0,0 0.48062,0.65675 0.47654,1.22245c-0.00313,0.4333 -0.47431,0.76725 -0.55899,0.98794c-0.21094,0.54974 -1.13976,0.9748 -1.13976,0.9748c0,0 -0.7743,-1.06377 -1.57773,-1.16052c-0.57029,-0.06867 -1.60805,0.20408 -2.42831,0.28264c-1.05426,0.10097 -1.84581,0.02602 -1.84581,0.02602z" fill="#d6b99f" stroke="none" stroke-width="0"/><path d="M223.7935,176.0239c0,0 -0.19026,-2.01704 0.06426,-2.61299c0.25162,-0.58916 1.6024,-1.79442 1.6024,-1.79442l0.85186,0.48148c0,0 0.68032,0.96343 0.63119,1.41164c-0.04964,0.45297 -0.92749,1.29207 -0.92749,1.29207z" fill="#9d6c48" stroke="none" stroke-width="0"/><path d="M226.4972,187.94983c0,0 0.18502,-0.27255 0.46914,-0.39826c0.57123,-0.25274 1.54304,-0.58793 2.21717,-1.65356c0.7837,-1.23882 1.11488,-2.90845 1.44323,-4.32557c0.2398,-1.03498 0.59908,-1.95256 0.53247,-2.38362c-0.15751,-1.01936 1.44911,-1.90565 1.44911,-1.90565c0,0 0.77209,-1.25925 2.14815,-1.25925c1.41309,0 4.25926,1.51851 4.25926,1.51851c0,0 -2.99329,1.70472 -3.83963,2.77953c-0.31751,0.40321 -0.50957,2.23828 -0.75187,2.92456c-0.21808,0.61766 -0.49093,0.07962 -0.69049,0.60299c-0.34631,0.90822 -0.75504,1.35959 -0.75504,1.35959c0,0 -2.79722,2.74684 -3.99167,3.25193c-0.63299,0.26766 -1.59443,0.2403 -2.09009,0.01644c-0.15631,-0.07059 -0.39972,-0.52762 -0.39972,-0.52762z" fill="url(#color-3)" stroke="none" stroke-width="0"/><path d="M243.64535,184.61649c0,0 0.30513,-0.94799 0.21693,-1.92878c-0.0681,-0.75722 -0.49033,-1.48909 -0.72283,-2.09895c-0.18108,-0.47499 -0.45036,-0.96334 -0.72463,-1.14493c-0.19865,-0.13153 -0.43514,0.05635 -0.47339,-0.23472c-0.13648,-1.03849 -0.49303,-2.56749 -0.43541,-4.11219c0.07226,-1.93694 0.65783,-3.92487 0.65783,-3.92487c0,0 1.15963,-0.09498 1.68556,-0.01801c0.48269,0.07063 1.3737,0.55134 1.3737,0.55134c0,0 0.87292,3.17414 0.79065,4.28133c-0.04622,0.62214 -0.94964,2.48545 -1.1573,3.45018c-0.08633,0.40108 0.02614,1.19288 -0.03509,1.55469c-0.29907,1.76718 -0.50937,2.58788 -0.50937,2.58788z" fill="#d3b357" stroke="none" stroke-width="0"/><path d="M230.83053,175.0239l0.18519,-2.37037c0,0 -0.16973,-2.25926 0.62963,-2.25926c0.79319,0 1.77778,2 1.77778,2l1.31852,3.66667c0,0 -1.49644,0.90048 -1.86947,0.7923c-0.26831,-0.07781 -0.02416,-0.87166 -0.36415,-1.21044c-0.51344,-0.51162 -1.67749,-0.6189 -1.67749,-0.6189z" fill="#9e7331" stroke="none" stroke-width="0"/><path d="M238.83053,177.51773l-2.66667,-1.18519l5.37037,-0.51852l0.44444,3.25926z" fill="#9e7331" stroke="none" stroke-width="0"/><path d="M225.59535,173.68315v-1.1h0.4v1.1z" fill="#452e15" stroke="none" stroke-width="0"/><path d="M225.09535,172.48315v-0.6h0.3v0.6z" fill="#452e15" stroke="none" stroke-width="0"/><path d="M228.06202,172.71648v-1.23333h0.36666v1.23333z" fill="#452e15" stroke="none" stroke-width="0"/><path d="M227.59535,171.44982v-0.43333h0.43333v0.43333z" fill="#452e15" stroke="none" stroke-width="0"/><path d="M230.16202,172.44982v-0.5h0.26666v0.5z" fill="#452e15" stroke="none" stroke-width="0"/><path d="M229.49534,171.64982v-0.26667h0.3v0.26667z" fill="#452e15" stroke="none" stroke-width="0"/><path d="M230.09535,174.51648v-0.56667h0.96667v0.56667z" fill="#452e15" stroke="none" stroke-width="0"/><path d="M230.42868,176.18315v-0.56667h0.6v0.56667z" fill="#452e15" stroke="none" stroke-width="0"/><path d="M230.46202,175.34982v-0.66667h0.9v0.66667z" fill="#452e15" stroke="none" stroke-width="0"/><path d="M231.52868,174.51648v-0.56667h0.33333v0.56667z" fill="#452e15" stroke="none" stroke-width="0"/><path d="M231.92868,174.98315v-0.23333h0.5v0.23333z" fill="#452e15" stroke="none" stroke-width="0"/><path d="M232.42868,175.71648v-0.43333h0.36667v0.43333z" fill="#452e15" stroke="none" stroke-width="0"/><path d="M233.12868,174.78315v-0.63333h0.3v0.63333z" fill="#452e15" stroke="none" stroke-width="0"/><path d="M234.09535,174.01648v-0.4h0.8v0.4z" fill="#452e15" stroke="none" stroke-width="0"/><path d="M234.99534,173.61648v-0.6h0.56667v0.6z" fill="#452e15" stroke="none" stroke-width="0"/><path d="M233.99534,173.58315v-0.96666h0.36667v0.96666z" fill="#452e15" stroke="none" stroke-width="0"/><path d="M232.52868,173.04982v-1h0.43333v1z" fill="#452e15" stroke="none" stroke-width="0"/><path d="M231.52868,173.48315v-0.93333h0.53334v0.93333z" fill="#452e15" stroke="none" stroke-width="0"/><path d="M230.46202,171.34982v-0.63334h0.86667v0.63334z" fill="#452e15" stroke="none" stroke-width="0"/><path d="M232.26202,171.28315v-0.43333h0.5v0.43333z" fill="#452e15" stroke="none" stroke-width="0"/><path d="M241.09535,171.91648v-0.36666h0.4v0.36666z" fill="#452e15" stroke="none" stroke-width="0"/><path d="M240.52868,172.54982v-0.63334h0.33333v0.63334z" fill="#452e15" stroke="none" stroke-width="0"/><path d="M253.86201,181.68313v-0.4h0.53333v0.4z" fill="#452e15" stroke="none" stroke-width="0"/><path d="M253.32868,182.0498v-0.23333h1.33333v0.23333z" fill="#452e15" stroke="none" stroke-width="0"/><path d="M254.69535,181.38315v-0.46667h0.46667v0.46667z" fill="#452e15" stroke="none" stroke-width="0"/><path d="M252.59535,182.34982v-0.73334h0.5v0.73334z" fill="#452e15" stroke="none" stroke-width="0"/><path d="M252.06202,181.71648v-0.5h0.4v0.5z" fill="#452e15" stroke="none" stroke-width="0"/><path d="M250.26202,181.11648v-0.53333h1.8v0.53333z" fill="#452e15" stroke="none" stroke-width="0"/><path d="M251.06202,180.41647v-0.73334h0.33333v0.73334z" fill="#452e15" stroke="none" stroke-width="0"/><path d="M250.49534,179.78314v-0.8h0.36667v0.8z" fill="#452e15" stroke="none" stroke-width="0"/><path d="M250.06202,179.01648v-1.73333h0.36666v1.73333z" fill="#452e15" stroke="none" stroke-width="0"/><path d="M249.49534,177.44982v-1.6h0.4v1.6z" fill="#452e15" stroke="none" stroke-width="0"/><path d="M249.09535,176.24982v-1.26667h0.3v1.26667z" fill="#452e15" stroke="none" stroke-width="0"/><path d="M248.52868,175.21648v-0.4h0.46666v0.4z" fill="#452e15" stroke="none" stroke-width="0"/><path d="M247.52868,174.84982v-1.16667h0.46666v1.16667z" fill="#452e15" stroke="none" stroke-width="0"/><path d="M246.92868,175.61648v-0.26667h0.36667v0.26667z" fill="#452e15" stroke="none" stroke-width="0"/><path d="M247.42868,176.14982v-0.36667h0.56667v0.36667z" fill="#452e15" stroke="none" stroke-width="0"/><path d="M247.96202,177.5498v-1.33333h0.5v1.33333z" fill="#452e15" stroke="none" stroke-width="0"/><path d="M247.69535,180.0498v-1.56667h0.23333v1.56667z" fill="#452e15" stroke="none" stroke-width="0"/><path d="M248.09535,178.84982v-0.93333h0.26667v0.93333z" fill="#452e15" stroke="none" stroke-width="0"/><path d="M246.19535,178.44982v-0.53333h0.36667v0.53333z" fill="#452e15" stroke="none" stroke-width="0"/><path d="M246.52868,177.78314v-0.46667h0.43333v0.46667z" fill="#452e15" stroke="none" stroke-width="0"/><path d="M245.56202,179.28314v-0.63333h0.4v0.63333z" fill="#452e15" stroke="none" stroke-width="0"/><path d="M244.99534,179.51648v-0.53333h0.33334v0.53333z" fill="#452e15" stroke="none" stroke-width="0"/><path d="M244.59535,178.98315v-0.53333h0.33333v0.53333z" fill="#452e15" stroke="none" stroke-width="0"/><path d="M243.02868,179.0498v-0.63333h0.96666v0.63333z" fill="#452e15" stroke="none" stroke-width="0"/><path d="M244.19535,177.98315v-0.6h0.16667v0.6z" fill="#452e15" stroke="none" stroke-width="0"/><path d="M244.56202,177.31648v-0.33334h0.4v0.33334z" fill="#452e15" stroke="none" stroke-width="0"/><path d="M244.92868,177.91647v-0.5h0.4v0.5z" fill="#452e15" stroke="none" stroke-width="0"/><path d="M244.06202,175.61648v-0.5h0.93333v0.5z" fill="#452e15" stroke="none" stroke-width="0"/><path d="M243.49534,175.08315v-0.5h0.5v0.5z" fill="#452e15" stroke="none" stroke-width="0"/><path d="M244.02868,174.68315v-0.56667h0.4v0.56667z" fill="#452e15" stroke="none" stroke-width="0"/><path d="M243.96202,173.48315v-0.53333h0.36667v0.53333z" fill="#452e15" stroke="none" stroke-width="0"/><path d="M245.16202,173.48315v-0.53333h0.86667v0.53333z" fill="#452e15" stroke="none" stroke-width="0"/><path d="M246.49534,173.98315v-0.3h0.46667v0.3z" fill="#452e15" stroke="none" stroke-width="0"/><path d="M246.49534,173.11648v-0.36666h0.46667v0.36666z" fill="#452e15" stroke="none" stroke-width="0"/><path d="M245.92868,172.84982v-0.3h0.4v0.3z" fill="#452e15" stroke="none" stroke-width="0"/><path d="M244.29535,172.48315v-0.6h0.56667v0.6z" fill="#452e15" stroke="none" stroke-width="0"/><path d="M243.82868,171.71648v-0.26667h0.5v0.26667z" fill="#452e15" stroke="none" stroke-width="0"/><path d="M242.42868,171.91648v-0.5h1.16667v0.5z" fill="#452e15" stroke="none" stroke-width="0"/><path d="M241.89535,172.38315v-0.5h0.43333v0.5z" fill="#452e15" stroke="none" stroke-width="0"/><path d="M242.96202,172.98315v-0.36666h0.43333v0.36666z" fill="#452e15" stroke="none" stroke-width="0"/><path d="M223.99534,174.44982v-0.73333h1.36667v0.73333z" fill="#452e15" stroke="none" stroke-width="0"/><path d="M224.69535,173.51648v-0.83333h0.43333v0.83333z" fill="#452e15" stroke="none" stroke-width="0"/><path d="M227.12868,175.01648v-0.46666h0.46666v0.46666z" fill="#452e15" stroke="none" stroke-width="0"/><path d="M238.52868,174.58315v-1.13333h0.4v1.13333z" fill="#452e15" stroke="none" stroke-width="0"/><path d="M239.26202,173.68315v-0.56667h0.76666v0.56667z" fill="#452e15" stroke="none" stroke-width="0"/><path d="M239.42868,171.98315v-0.53333h0.56667v0.53333z" fill="#452e15" stroke="none" stroke-width="0"/><path d="M237.49534,171.88315v-0.46667h1v0.46667z" fill="#452e15" stroke="none" stroke-width="0"/><path d="M238.02868,172.58315v-0.7h0.43333v0.7z" fill="#452e15" stroke="none" stroke-width="0"/><path d="M237.56202,174.68315v-1.1h0.46666v1.1z" fill="#452e15" stroke="none" stroke-width="0"/><path d="M237.36201,173.41648v-0.56667h1.06667v0.56667z" fill="#452e15" stroke="none" stroke-width="0"/><path d="M235.12868,171.78315v-0.36666h2.03333v0.36666z" fill="#452e15" stroke="none" stroke-width="0"/><path d="M233.99534,171.91648v-0.46667h0.46667v0.46667z" fill="#452e15" stroke="none" stroke-width="0"/><path d="M235.59535,174.98315v-0.26667h0.43333v0.26667z" fill="#452e15" stroke="none" stroke-width="0"/><path d="M236.32868,174.58315v-1.03333h0.8v1.03333z" fill="#452e15" stroke="none" stroke-width="0"/><path d="M235.42868,174.24982v-0.26667h0.33334v0.26667z" fill="#452e15" stroke="none" stroke-width="0"/><path d="M234.59535,178.84982v-0.43333h1.33333v0.43333z" fill="#452e15" stroke="none" stroke-width="0"/><path d="M235.96202,178.28314v-0.33333h1.6v0.33333z" fill="#452e15" stroke="none" stroke-width="0"/><path d="M235.62868,177.84982v-0.5h0.3v0.5z" fill="#452e15" stroke="none" stroke-width="0"/><path d="M234.89535,177.41647v-0.63334h0.4v0.63334z" fill="#452e15" stroke="none" stroke-width="0"/><path d="M235.49534,176.98315v-0.53333h0.43333v0.53333z" fill="#452e15" stroke="none" stroke-width="0"/><path d="M235.89535,174.04982v-0.36667h0.23334v0.36667z" fill="#452e15" stroke="none" stroke-width="0"/><path d="M236.06202,172.71648v-0.7h0.43333v0.7z" fill="#452e15" stroke="none" stroke-width="0"/><path d="M241.56202,174.81648v-0.73334h0.33333v0.73334z" fill="#452e15" stroke="none" stroke-width="0"/><path d="M240.52868,174.68315v-1.66667h0.4v1.66667z" fill="#452e15" stroke="none" stroke-width="0"/><path d="M241.12868,173.04982v-0.53334h0.96666v0.53334z" fill="#452e15" stroke="none" stroke-width="0"/><path d="M242.79535,173.54982v-0.36667h0.53334v0.36667z" fill="#452e15" stroke="none" stroke-width="0"/><path d="M243.46202,180.64981v-0.6h0.9v0.6z" fill="#452e15" stroke="none" stroke-width="0"/><path d="M244.32868,181.5498v-0.7h0.36667v0.7z" fill="#452e15" stroke="none" stroke-width="0"/><path d="M245.36201,181.64981v-0.56667h0.46667v0.56667z" fill="#452e15" stroke="none" stroke-width="0"/><path d="M246.19535,181.31648v-0.9h1.1v0.9z" fill="#452e15" stroke="none" stroke-width="0"/><path d="M246.42868,180.0498v-0.63333h0.96667v0.63333z" fill="#452e15" stroke="none" stroke-width="0"/><path d="M246.26202,179.28314v-0.53333h0.4v0.53333z" fill="#452e15" stroke="none" stroke-width="0"/><path d="M245.12868,176.14982v-0.4h0.56667v0.4z" fill="#452e15" stroke="none" stroke-width="0"/><path d="M244.62868,176.88315v-0.46667h0.3v0.46667z" fill="#452e15" stroke="none" stroke-width="0"/><path d="M243.56202,176.88315v-0.5h0.43333v0.5z" fill="#452e15" stroke="none" stroke-width="0"/><path d="M243.12868,177.41647v-0.66666h0.36666v0.66666z" fill="#452e15" stroke="none" stroke-width="0"/><path d="M242.49534,176.38315v-0.5h0.56667v0.5z" fill="#452e15" stroke="none" stroke-width="0"/><path d="M242.56202,175.38315v-0.56667h0.53333v0.56667z" fill="#452e15" stroke="none" stroke-width="0"/><path d="M241.99534,175.58315v-0.36666h0.3v0.36666z" fill="#452e15" stroke="none" stroke-width="0"/><path d="M242.02868,176.81648v-0.6h0.2v0.6z" fill="#452e15" stroke="none" stroke-width="0"/><path d="M241.06202,176.14982v-0.33333h0.83333v0.33333z" fill="#452e15" stroke="none" stroke-width="0"/><path d="M240.96202,177.24982v-0.4h1v0.4z" fill="#452e15" stroke="none" stroke-width="0"/><path d="M242.04096,173.86561v-0.5h0.36842v0.5z" fill="#452e15" stroke="none" stroke-width="0"/><path d="M248.48833,181.56735v-1h0.55263v1z" fill="#452e15" stroke="none" stroke-width="0"/><path d="M248.11991,182.09367v-0.44737h0.31579v0.44737z" fill="#452e15" stroke="none" stroke-width="0"/><path d="M247.75149,181.25157v-0.65789h0.44737v0.65789z" fill="#452e15" stroke="none" stroke-width="0"/><path d="M248.17254,180.30419v-0.34211h0.42105v0.34211z" fill="#452e15" stroke="none" stroke-width="0"/><path d="M249.4357,180.51473v-1.55263h0.42105v1.55263z" fill="#452e15" stroke="none" stroke-width="0"/><path d="M250.06728,180.40947v-0.34211h0.47368v0.34211z" fill="#452e15" stroke="none" stroke-width="0"/><path d="M249.25149,183.98841v-0.47369h0.39474v0.47369z" fill="#452e15" stroke="none" stroke-width="0"/><path d="M248.67254,182.69894v-0.52632h0.92105v0.52632z" fill="#452e15" stroke="none" stroke-width="0"/><path d="M248.64623,186.43578v-0.47368h0.63158v0.47368z" fill="#452e15" stroke="none" stroke-width="0"/><path d="M235.5936,183.4621v-0.86842h0.81579v0.86842z" fill="#452e15" stroke="none" stroke-width="0"/><path d="M235.80412,181.64631v-0.65789h0.52632v0.65789z" fill="#452e15" stroke="none" stroke-width="0"/><path d="M236.77781,181.11999v-1.10527h0.42105v1.10527z" fill="#452e15" stroke="none" stroke-width="0"/><path d="M235.61991,179.9621v-0.5h1.28947v0.5z" fill="#452e15" stroke="none" stroke-width="0"/><path d="M235.54096,180.54103v-0.44736h0.39474v0.44736z" fill="#452e15" stroke="none" stroke-width="0"/><path d="M232.96202,182.06735v-0.39474h0.31579v0.39474z" fill="#452e15" stroke="none" stroke-width="0"/><path d="M232.56728,181.56735v-0.39474h0.34211v0.39474z" fill="#452e15" stroke="none" stroke-width="0"/><path d="M232.06728,181.17262v-0.92105h0.39474v0.92105z" fill="#452e15" stroke="none" stroke-width="0"/><path d="M232.46202,179.9621v-0.52632h0.39474v0.52632z" fill="#452e15" stroke="none" stroke-width="0"/><path d="M233.33044,180.35683v-0.26315h0.68421v0.26315z" fill="#452e15" stroke="none" stroke-width="0"/><path d="M234.51465,180.11999v-0.52631h0.39473v0.52631z" fill="#452e15" stroke="none" stroke-width="0"/><path d="M234.04096,181.43578v-0.28947h0.71053v0.28947z" fill="#452e15" stroke="none" stroke-width="0"/><path d="M237.9357,178.98841v-0.63158h0.52632v0.63158z" fill="#452e15" stroke="none" stroke-width="0"/><path d="M237.64623,177.48841v-0.6579h1.34211v0.6579z" fill="#452e15" stroke="none" stroke-width="0"/><path d="M236.48833,177.33052v-0.42105h0.5v0.42105z" fill="#452e15" stroke="none" stroke-width="0"/><path d="M236.04096,176.17262v-0.36842h0.55264v0.36842z" fill="#452e15" stroke="none" stroke-width="0"/><path d="M237.06728,176.09368v-0.94737h0.60527v0.94737z" fill="#452e15" stroke="none" stroke-width="0"/><path d="M237.90938,176.09368v-0.36843h0.44737v0.36843z" fill="#452e15" stroke="none" stroke-width="0"/><path d="M239.19886,176.3042v-1.63158h0.3421v1.63158z" fill="#452e15" stroke="none" stroke-width="0"/><path d="M238.64623,175.64631v-0.5h1.52632v0.5z" fill="#452e15" stroke="none" stroke-width="0"/><path d="M240.06728,176.88315v-0.73684h0.5v0.73684z" fill="#452e15" stroke="none" stroke-width="0"/><path d="M240.0936,177.80419v-0.5h0.44736v0.5z" fill="#452e15" stroke="none" stroke-width="0"/><path d="M240.06728,178.27789v-0.34211h1.07895v0.34211z" fill="#452e15" stroke="none" stroke-width="0"/><path d="M232.01465,183.51473v-1.28947h0.44737v1.28947z" fill="#452e15" stroke="none" stroke-width="0"/><path d="M231.40938,184.17262v-0.94737h0.21053v0.94737z" fill="#452e15" stroke="none" stroke-width="0"/><path d="M231.83044,185.22525v-1.34211h0.36842v1.34211z" fill="#452e15" stroke="none" stroke-width="0"/><path d="M249.77781,185.06735v-0.86842h0.34211v0.86842z" fill="#452e15" stroke="none" stroke-width="0"/><path d="M249.9357,183.06735v-0.44737h0.07895v0.44737z" fill="#452e15" stroke="none" stroke-width="0"/><path d="M248.88306,185.48841v-0.71053h0.34211v0.71053z" fill="#452e15" stroke="none" stroke-width="0"/><path d="M245.27781,185.01473v-0.60526h0.52632v0.60526z" fill="#452e15" stroke="none" stroke-width="0"/><path d="M246.0936,184.27789v-0.47368h0.28947v0.47368z" fill="#452e15" stroke="none" stroke-width="0"/><path d="M246.5936,183.72525v-0.42105h0.36842v0.42105z" fill="#452e15" stroke="none" stroke-width="0"/><path d="M246.14623,182.85683v-0.65789h0.89473v0.65789z" fill="#452e15" stroke="none" stroke-width="0"/><path d="M245.40938,183.22525v-0.44737h0.47368v0.44737z" fill="#452e15" stroke="none" stroke-width="0"/><path d="M245.04096,183.93578v-0.55263h0.31579v0.55263z" fill="#452e15" stroke="none" stroke-width="0"/><path d="M244.11991,183.19894v-1.02632h0.76315v1.02632z" fill="#452e15" stroke="none" stroke-width="0"/><path d="M242.5936,179.4621v-0.52632h0.23684v0.52632z" fill="#452e15" stroke="none" stroke-width="0"/><path d="M241.64623,178.75157v-1.13158h0.65789v1.13158z" fill="#452e15" stroke="none" stroke-width="0"/><path d="M244.04096,179.59367v-0.42106h0.31579v0.42106z" fill="#452e15" stroke="none" stroke-width="0"/><path d="M235.46202,186.19894v-0.5h0.28947v0.5z" fill="#452e15" stroke="none" stroke-width="0"/><path d="M234.01465,187.59367v-0.26316h1.23684v0.26316z" fill="#452e15" stroke="none" stroke-width="0"/><path d="M235.54096,187.11999v-0.55263h0.28948v0.55263z" fill="#452e15" stroke="none" stroke-width="0"/><path d="M236.11991,186.43578v-0.44737h0.28947v0.44737z" fill="#452e15" stroke="none" stroke-width="0"/><path d="M233.04096,188.06735v-0.34211h0.34211v0.34211z" fill="#452e15" stroke="none" stroke-width="0"/><path d="M235.61991,184.69894v-1.02632h0.5v1.02632z" fill="#452e15" stroke="none" stroke-width="0"/><path d="M234.56728,183.35683v-0.55263h0.42106v0.55263z" fill="#452e15" stroke="none" stroke-width="0"/><path d="M235.01465,182.64631v-0.44737h0.28947v0.44737z" fill="#452e15" stroke="none" stroke-width="0"/><path d="M233.96202,182.54103v-0.34211h0.34211v0.34211z" fill="#452e15" stroke="none" stroke-width="0"/><path d="M233.11991,183.38315v-0.57895h0.81579v0.57895z" fill="#452e15" stroke="none" stroke-width="0"/><path d="M232.75149,184.25157v-0.57895h0.44737v0.57895z" fill="#452e15" stroke="none" stroke-width="0"/><path d="M229.64623,186.59367v-0.60527h0.65789v0.60527z" fill="#452e15" stroke="none" stroke-width="0"/><path d="M231.14623,186.01473v-0.36842h0.57894v0.36842z" fill="#452e15" stroke="none" stroke-width="0"/><path d="M230.19886,185.54103v-0.47368h0.8421v0.47368z" fill="#452e15" stroke="none" stroke-width="0"/><path d="M230.80412,184.85683v-0.44736h0.52632v0.44736z" fill="#452e15" stroke="none" stroke-width="0"/><path d="M230.67254,183.64631v-0.94737h0.28947v0.94737z" fill="#452e15" stroke="none" stroke-width="0"/><path d="M231.01465,182.4621v-0.86842h0.31579v0.86842z" fill="#452e15" stroke="none" stroke-width="0"/><path d="M227.14623,188.09367v-0.36843h1.47368v0.36843z" fill="#452e15" stroke="none" stroke-width="0"/><path d="M228.64623,187.48841v-0.36842h0.36842v0.36842z" fill="#452e15" stroke="none" stroke-width="0"/><path d="M229.04096,186.90947v-0.44737h0.36842v0.44737z" fill="#452e15" stroke="none" stroke-width="0"/><path d="M230.11991,187.04103v-0.34211h0.34211v0.34211z" fill="#452e15" stroke="none" stroke-width="0"/><path d="M232.04096,178.33051v-0.44737h0.39474v0.44737z" fill="#452e15" stroke="none" stroke-width="0"/><path d="M231.56728,176.88315v-0.76316h1v0.76316z" fill="#452e15" stroke="none" stroke-width="0"/><path d="M232.22517,173.9621v-0.42105h0.42106v0.42105z" fill="#452e15" stroke="none" stroke-width="0"/><path d="M228.88306,176.75157v-0.5h0.55264v0.5z" fill="#452e15" stroke="none" stroke-width="0"/><path d="M230.04096,176.90947v-0.57895h0.73685v0.57895z" fill="#452e15" stroke="none" stroke-width="0"/><path d="M230.72517,177.59367v-0.47369h0.42106v0.47369z" fill="#452e15" stroke="none" stroke-width="0"/><path d="M228.9357,175.72525v-0.57894h0.68421v0.57894z" fill="#452e15" stroke="none" stroke-width="0"/><path d="M227.85675,175.59368v-0.60527h0.47368v0.60527z" fill="#452e15" stroke="none" stroke-width="0"/><path d="M228.01465,176.69894v-0.5h0.55263v0.5z" fill="#452e15" stroke="none" stroke-width="0"/><path d="M233.01465,178.43578v-0.60526h0.5v0.60526z" fill="#452e15" stroke="none" stroke-width="0"/><path d="M232.48833,177.75157v-0.52632h0.31579v0.52632z" fill="#452e15" stroke="none" stroke-width="0"/><path d="M233.4357,177.90947v-1.1579h0.57895v1.1579z" fill="#452e15" stroke="none" stroke-width="0"/><path d="M234.11991,176.72525v-0.47368h0.23684v0.47368z" fill="#452e15" stroke="none" stroke-width="0"/><path d="M233.61991,176.22525v-0.39473h0.36842v0.39473z" fill="#452e15" stroke="none" stroke-width="0"/><path d="M228.67254,173.0849v-0.5h0.76316v0.5z" fill="#452e15" stroke="none" stroke-width="0"/><path d="M228.77781,172.40069v-0.5h0.21053v0.5z" fill="#452e15" stroke="none" stroke-width="0"/><path d="M231.51465,171.82175v-0.28947h0.81579v0.28947z" fill="#452e15" stroke="none" stroke-width="0"/><path d="M230.75149,173.32175v-0.81579h0.34211v0.81579z" fill="#452e15" stroke="none" stroke-width="0"/><path d="M229.17254,174.16385v-0.78948h0.55263v0.78948z" fill="#452e15" stroke="none" stroke-width="0"/><path d="M226.90938,173.97964c0,0 -0.08889,-0.60545 -0.08889,-0.89532c0,-0.32001 0.08889,-0.94328 0.08889,-0.94328c0,0 0.20878,-0.2 0.29854,-0.2c0.07374,0 0.20146,0.2 0.20146,0.2c0,0 0.13333,0.56382 0.13333,0.85439c0,0.31954 -0.13333,0.98421 -0.13333,0.98421c0,0 -0.1055,0.15556 -0.17924,0.15556c-0.08976,0 -0.32076,-0.15556 -0.32076,-0.15556z" fill="#332617" stroke="none" stroke-width="0"/><path d="M224.04096,176.05859v-0.26315h0.31579v0.26315z" fill="#452e15" stroke="none" stroke-width="0"/><path d="M223.9357,175.53227v-0.39473h0.42105v0.39473z" fill="#452e15" stroke="none" stroke-width="0"/><path d="M224.5857,176.59543c0,0 0.24444,-0.27297 0.24444,-0.4c0,-0.08766 -0.24444,-0.28889 -0.24444,-0.28889c0,0 0.85114,0.13333 1.31111,0.13333c0.49326,0 1.55556,-0.13333 1.55556,-0.13333c0,0 -0.17778,0.26487 -0.17778,0.37778c0,0.11661 0.17778,0.31111 0.17778,0.31111c0,0 -1.03398,-0.08889 -1.53333,-0.08889c-0.45133,0 -1.33333,0.08889 -1.33333,0.08889z" fill="#332617" stroke="none" stroke-width="0"/></g></g></svg>