<svg version="1.1" xmlns="http://www.w3.org/2000/svg" xmlns:xlink="http://www.w3.org/1999/xlink" width="29.49176" height="24.4433" viewBox="0,0,29.49176,24.4433"><defs><linearGradient x1="240.18008" y1="179.13844" x2="240.18008" y2="192.27879" gradientUnits="userSpaceOnUse" id="color-1"><stop offset="0" stop-color="#94b5e0"/><stop offset="1" stop-color="#839dbe"/></linearGradient><linearGradient x1="240.00002" y1="180.00001" x2="240.00002" y2="180.00001" gradientUnits="userSpaceOnUse" id="color-2"><stop offset="0" stop-color="#373c42"/><stop offset="1" stop-color="#6c4a4a"/></linearGradient><linearGradient x1="240.00002" y1="180.00001" x2="240.00002" y2="180.00001" gradientUnits="userSpaceOnUse" id="color-3"><stop offset="0" stop-color="#373c42"/><stop offset="1" stop-color="#6c4a4a"/></linearGradient><linearGradient x1="240.00002" y1="180.00001" x2="240.00002" y2="180.00001" gradientUnits="userSpaceOnUse" id="color-4"><stop offset="0" stop-color="#373c42"/><stop offset="1" stop-color="#6c4a4a"/></linearGradient><linearGradient x1="240.00002" y1="180.00001" x2="240.00002" y2="180.00001" gradientUnits="userSpaceOnUse" id="color-5"><stop offset="0" stop-color="#373c42"/><stop offset="1" stop-color="#6c4a4a"/></linearGradient><linearGradient x1="240.00002" y1="180.00001" x2="240.00002" y2="180.00001" gradientUnits="userSpaceOnUse" id="color-6"><stop offset="0" stop-color="#26272b"/><stop offset="1" stop-color="#464e39"/></linearGradient><linearGradient x1="240.00002" y1="180.00001" x2="240.00002" y2="180.00001" gradientUnits="userSpaceOnUse" id="color-7"><stop offset="0" stop-color="#26272b" stop-opacity="0"/><stop offset="1" stop-color="#26272b"/></linearGradient><linearGradient x1="240.00002" y1="180.00001" x2="240.00002" y2="180.00001" gradientUnits="userSpaceOnUse" id="color-8"><stop offset="0" stop-color="#2c3822"/><stop offset="1" stop-color="#464e39"/></linearGradient><linearGradient x1="240.00002" y1="180.00001" x2="240.00002" y2="180.00001" gradientUnits="userSpaceOnUse" id="color-9"><stop offset="0" stop-color="#483225" stop-opacity="0"/><stop offset="1" stop-color="#483225"/></linearGradient><linearGradient x1="240.00002" y1="180.00001" x2="240.00002" y2="180.00001" gradientUnits="userSpaceOnUse" id="color-10"><stop offset="0" stop-color="#483225" stop-opacity="0"/><stop offset="1" stop-color="#483225"/></linearGradient><linearGradient x1="240.00002" y1="180.00001" x2="240.00002" y2="180.00001" gradientUnits="userSpaceOnUse" id="color-11"><stop offset="0" stop-color="#483225" stop-opacity="0"/><stop offset="1" stop-color="#483225"/></linearGradient><linearGradient x1="240.00002" y1="180.00001" x2="240.00002" y2="180.00001" gradientUnits="userSpaceOnUse" id="color-12"><stop offset="0" stop-color="#4d322b"/><stop offset="1" stop-color="#4d322b" stop-opacity="0"/></linearGradient><linearGradient x1="240.00002" y1="180.00001" x2="240.00002" y2="180.00001" gradientUnits="userSpaceOnUse" id="color-13"><stop offset="0" stop-color="#2d1f12" stop-opacity="0"/><stop offset="1" stop-color="#2d1f12"/></linearGradient><linearGradient x1="240.00002" y1="180.00001" x2="240.00002" y2="180.00001" gradientUnits="userSpaceOnUse" id="color-14"><stop offset="0" stop-color="#654a37"/><stop offset="1" stop-color="#654a37" stop-opacity="0"/></linearGradient><linearGradient x1="240.00002" y1="180.00001" x2="240.00002" y2="180.00001" gradientUnits="userSpaceOnUse" id="color-15"><stop offset="0" stop-color="#614832" stop-opacity="0"/><stop offset="1" stop-color="#614832"/></linearGradient><linearGradient x1="240.00002" y1="180.00001" x2="240.00002" y2="180.00001" gradientUnits="userSpaceOnUse" id="color-16"><stop offset="0" stop-color="#4a3516" stop-opacity="0"/><stop offset="1" stop-color="#4a3516"/></linearGradient><linearGradient x1="240.00002" y1="180.00001" x2="240.00002" y2="180.00001" gradientUnits="userSpaceOnUse" id="color-17"><stop offset="0" stop-color="#4a3516" stop-opacity="0"/><stop offset="1" stop-color="#4a3516"/></linearGradient><linearGradient x1="240.00002" y1="180.00001" x2="240.00002" y2="180.00001" gradientUnits="userSpaceOnUse" id="color-18"><stop offset="0" stop-color="#8e6c51" stop-opacity="0"/><stop offset="1" stop-color="#8e6c51"/></linearGradient><linearGradient x1="234.73876" y1="175.23347" x2="234.73876" y2="179.64291" gradientUnits="userSpaceOnUse" id="color-19"><stop offset="0" stop-color="#d8ddd9"/><stop offset="1" stop-color="#bbbdbc"/></linearGradient><linearGradient x1="230.77025" y1="185.32008" x2="230.77025" y2="191.21772" gradientUnits="userSpaceOnUse" id="color-20"><stop offset="0" stop-color="#d8ddd9"/><stop offset="1" stop-color="#bbbdbc"/></linearGradient><linearGradient x1="242.6482" y1="169.81352" x2="242.6482" y2="171.63242" gradientUnits="userSpaceOnUse" id="color-21"><stop offset="0" stop-color="#d8ddd9"/><stop offset="1" stop-color="#bbbdbc"/></linearGradient><linearGradient x1="244.77025" y1="171.52218" x2="244.77025" y2="178.35683" gradientUnits="userSpaceOnUse" id="color-22"><stop offset="0" stop-color="#d8ddd9"/><stop offset="1" stop-color="#bbbdbc"/></linearGradient></defs><g transform="translate(-225.25412,-168.36764)"><g data-paper-data="{&quot;isPaintingLayer&quot;:true}" fill-rule="nonzero" stroke-linecap="butt" stroke-linejoin="miter" stroke-miterlimit="10" stroke-dasharray="" stroke-dashoffset="0" style="mix-blend-mode: normal"><path d="M232.25903,186.75247c0,0 -6.37723,-5.758 -6.25312,-8.4676c0.05276,-1.15184 1.09523,-2.0938 1.09523,-2.0938c0,0 2.62398,-0.4476 4.09745,-0.28612c1.1666,0.12785 4.08259,2.64833 6.79226,3.02834c4.55089,0.63822 9.49833,0.40704 12.72051,0.25534c1.70806,-0.08041 2.30206,-0.05019 2.30206,-0.05019c0,0 0.98246,0.8935 0.98246,1.7193c0,0.85231 -0.28256,3.15242 -1.65218,4.86782c-2.0506,2.5683 -5.47063,4.58832 -5.47063,4.58832c0,0 -3.36585,0.18276 -6.1444,0.44896c-3.75765,0.36001 -8.46964,-4.01037 -8.46964,-4.01037z" fill="url(#color-1)" stroke="#516a91" stroke-width="1.5"/><path d="M229.03952,192.76709c0,0 -0.49125,-2.33046 0.50606,-6.0398c0.54656,-2.03285 0.83264,-5.49749 1.28423,-6.7555c0.90228,-2.51349 3.44204,-6.43702 3.44204,-6.43702c0,0 -3.82898,-2.05132 -1.8069,-3.04718c0.62704,-0.30881 2.44344,0.66823 4.91778,0.66528c1.53536,-0.00183 3.39966,-0.91904 3.72647,-0.98159c2.35889,-0.45146 8.43538,0.4645 8.43538,0.4645c0,0 0.31956,2.18869 -1.31493,4.92428c-0.49463,0.82785 -1.95143,0.69647 -2.51271,1.52839c-0.28676,0.42503 -0.99797,2.51618 -1.28115,2.8662c-0.4299,0.53137 -0.78219,-2.55154 -1.18493,-2.05305c-0.83359,1.03179 -0.86669,1.37406 -1.57308,2.18393c-0.96432,1.10557 -1.86223,1.38344 -2.19487,1.70278c-0.3949,0.37911 0.02125,-2.17273 0.02125,-2.17273c0,0 -1.77516,-0.07374 -4.39325,1.71593c-0.60648,0.41458 -2.37695,0.78047 -3.01897,2.00424c-0.16924,0.3226 -0.58669,1.77586 -0.04202,2.70291c0.89136,1.51715 2.97193,2.64251 2.6454,2.64142c-0.65974,-0.00222 -2.20431,0.40384 -3.07725,1.31863c-0.71707,0.75146 -1.04143,1.80633 -1.61522,2.35165c-0.69458,0.66011 -0.96334,0.41674 -0.96334,0.41674z" fill-opacity="0.50252" fill="#000000" stroke="none" stroke-width="0"/><path d="" fill="#000000" stroke="none" stroke-width="0"/><path d="" fill-opacity="0.5" fill="#000000" stroke="none" stroke-width="0"/><path d="" fill-opacity="0.5" fill="#000000" stroke="none" stroke-width="0"/><path d="" fill-opacity="0.5" fill="#000000" stroke="none" stroke-width="0"/><path d="" fill-opacity="0.5" fill="#000000" stroke="none" stroke-width="0"/><path d="" fill="#5e6669" stroke="#ffffff" stroke-width="0.5"/><path d="" fill="#464d55" stroke="none" stroke-width="0"/><path d="" fill="#464d55" stroke="none" stroke-width="0"/><path d="" fill="#464d55" stroke="none" stroke-width="0"/><path d="" fill="#464d55" stroke="none" stroke-width="0"/><path d="" fill="url(#color-2)" stroke="none" stroke-width="0"/><path d="" fill="url(#color-3)" stroke="none" stroke-width="0"/><path d="" fill="#464d55" stroke="none" stroke-width="0"/><path d="" fill="url(#color-4)" stroke="none" stroke-width="0"/><path d="" fill="url(#color-5)" stroke="none" stroke-width="0"/><path d="" fill="#ffffff" stroke="none" stroke-width="0"/><path d="" fill="#373c42" stroke="none" stroke-width="0"/><path d="" fill="#464e39" stroke="#ffffff" stroke-width="0.5"/><path d="" fill="#343321" stroke="none" stroke-width="0"/><path d="" fill="url(#color-6)" stroke="none" stroke-width="0"/><path d="" fill="url(#color-7)" stroke="none" stroke-width="0"/><path d="" fill="url(#color-8)" stroke="none" stroke-width="0"/><path d="" fill="#30351d" stroke="none" stroke-width="0"/><path d="" fill="#30351d" stroke="none" stroke-width="0"/><path d="" fill="#968780" stroke="#ffffff" stroke-width="0.5"/><path d="" fill="#695b5a" stroke="none" stroke-width="0"/><path d="" fill="url(#color-9)" stroke="none" stroke-width="0"/><path d="" fill="url(#color-10)" stroke="none" stroke-width="0"/><path d="" fill="url(#color-11)" stroke="none" stroke-width="0"/><path d="" fill="#5f5353" stroke="none" stroke-width="0"/><path d="" fill="#443a38" stroke="none" stroke-width="0"/><path d="" fill="#725f59" stroke="none" stroke-width="0"/><path d="" data-paper-data="{&quot;index&quot;:null}" fill="#725f59" stroke="none" stroke-width="0"/><path d="" fill="#725f59" stroke="none" stroke-width="0"/><path d="" fill="#7c6a66" stroke="none" stroke-width="0"/><path d="" fill="#61493b" stroke="#ffffff" stroke-width="0.5"/><path d="" fill="#4d322b" stroke="none" stroke-width="0"/><path d="" fill="url(#color-12)" stroke="none" stroke-width="0"/><path d="" fill="url(#color-13)" stroke="none" stroke-width="0"/><path d="" fill="#32251d" stroke="none" stroke-width="0"/><path d="" fill="#b7956f" stroke="#ffffff" stroke-width="0.5"/><path d="" fill="url(#color-14)" stroke="none" stroke-width="0"/><path d="" fill="#614832" stroke="none" stroke-width="0"/><path d="" fill="#765834" stroke="none" stroke-width="0"/><path d="" fill="url(#color-15)" stroke="none" stroke-width="0"/><path d="" fill="url(#color-16)" stroke="none" stroke-width="0"/><path d="" fill="url(#color-17)" stroke="none" stroke-width="0"/><path d="" fill="url(#color-18)" stroke="none" stroke-width="0"/><path d="M227.61095,191.33851c0,0 -0.49125,-2.33046 0.50606,-6.0398c0.54656,-2.03285 0.83264,-5.49749 1.28423,-6.7555c0.90228,-2.51349 3.44204,-6.43702 3.44204,-6.43702c0,0 -3.82898,-2.05132 -1.8069,-3.04718c0.62704,-0.30881 2.44344,0.66823 4.91778,0.66528c1.53536,-0.00183 3.39966,-0.91904 3.72647,-0.98159c2.35889,-0.45146 8.43538,0.4645 8.43538,0.4645c0,0 0.31956,2.18869 -1.31493,4.92428c-0.49463,0.82785 -1.95143,0.69647 -2.51271,1.52839c-0.28676,0.42503 -0.99797,2.51618 -1.28115,2.8662c-0.4299,0.53137 -0.78219,-2.55154 -1.18493,-2.05305c-0.83359,1.03179 -0.86669,1.37406 -1.57308,2.18393c-0.96432,1.10557 -1.86223,1.38344 -2.19487,1.70278c-0.3949,0.37911 0.02125,-2.17273 0.02125,-2.17273c0,0 -1.77516,-0.07374 -4.39325,1.71593c-0.60648,0.41458 -2.37695,0.78047 -3.01897,2.00424c-0.16924,0.3226 -0.58669,1.77586 -0.04202,2.70291c0.89136,1.51715 2.97193,2.64251 2.6454,2.64142c-0.65974,-0.00222 -2.20431,0.40384 -3.07725,1.31863c-0.71707,0.75146 -1.04143,1.80633 -1.61522,2.35165c-0.69458,0.66011 -0.96334,0.41674 -0.96334,0.41674z" fill="#191b1a" stroke="#ffffff" stroke-width="0.5"/><path d="M233.11277,177.49331c0,0 -1.68605,1.78294 -2.0451,1.82469c-0.42105,0.04896 -0.32498,-1.5491 -0.32498,-1.5491c0,0 2.00745,-2.92126 3.14174,-2.92126c1.45099,0 2.03937,1.98426 2.03937,1.98426c0,0 1.91711,0.20082 2.32656,0.47696c0.37807,0.25498 0.20888,0.6254 0.20888,0.6254c0,0 -0.86506,0.03658 -1.75072,0.299c-0.43676,0.12941 -0.57311,0.30184 -1.15878,0.36364c-0.33977,0.03585 -0.95889,0.48256 -1.40324,0.73377c-0.67167,0.37972 -1.21161,0.87161 -1.41414,0.79418c-0.47348,-0.18104 0.76063,-1.5206 1.00302,-2.25845c0.08456,-0.25742 -0.6226,-0.37308 -0.6226,-0.37308z" fill="url(#color-19)" stroke="none" stroke-width="0"/><path d="M228.09703,191.21772c0,0 -0.30883,-2.71805 0.0846,-3.85036c0.35613,-1.02497 2.17524,-2.76382 2.17524,-2.76382l2.59055,2.4252c0,0 -1.94387,0.58257 -2.7912,1.58573c-0.73508,0.87027 -2.05918,2.60324 -2.05918,2.60324z" fill="url(#color-20)" stroke="none" stroke-width="0"/><path d="M240.88442,171.63242c0,0 -0.30697,-0.39676 -0.297,-0.65588c0.00794,-0.20653 0.35212,-0.77719 0.35212,-0.77719c0,0 1.05229,-0.29452 1.63203,-0.35894c0.31074,-0.03453 0.85881,-0.11804 1.24806,-0.08596c0.33445,0.02756 0.59235,0.16931 0.59235,0.16931c0,0 -0.05512,0.53957 -0.05512,0.77165c0,0.31294 -0.33071,0.44094 -0.33071,0.44094z" fill="url(#color-21)" stroke="none" stroke-width="0"/><path d="M242.97891,178.24659c0,0 -0.10284,-0.43301 -0.27801,-1.00818c-0.09162,-0.30083 -0.05275,-0.73571 -0.22551,-1.02677c-0.22296,-0.37563 -0.72378,-0.24158 -0.75041,-0.66323c-0.01417,-0.22434 -0.24411,-0.7283 -0.31727,-0.94866c-0.09684,-0.29169 -0.37404,-0.34887 -0.40381,-0.5845c-0.04433,-0.35091 0.15517,-0.5932 0.20899,-0.81207c0.12779,-0.51968 1.87625,-1.57077 1.87625,-1.57077c0,0 1.47822,-0.14908 2.2566,-0.34368c0.83451,-0.20863 2.59379,-0.86892 2.59379,-0.86892c0,0 -0.59461,2.72566 -1.15313,3.54821c-0.39083,0.57559 -3.42168,1.68801 -3.42168,1.68801z" fill="url(#color-22)" stroke="none" stroke-width="0"/></g></g></svg>