<svg version="1.1" xmlns="http://www.w3.org/2000/svg" xmlns:xlink="http://www.w3.org/1999/xlink" width="19.16007" height="20.94753" viewBox="0,0,19.16007,20.94753"><defs><linearGradient x1="238.13268" y1="180.10289" x2="238.13268" y2="189.20903" gradientUnits="userSpaceOnUse" id="color-1"><stop offset="0" stop-color="#4d4548" stop-opacity="0"/><stop offset="1" stop-color="#4d4548"/></linearGradient></defs><g transform="translate(-230.29496,-169.40148)"><g data-paper-data="{&quot;isPaintingLayer&quot;:true}" fill-rule="nonzero" stroke-linecap="butt" stroke-linejoin="miter" stroke-miterlimit="10" stroke-dasharray="" stroke-dashoffset="0" style="mix-blend-mode: normal"><path d="M232.68515,190.29105c0,0 -1.62349,-1.51495 -1.614,-3.79649c0.00779,-1.87275 1.27126,-4.2228 2.69765,-6.16121c1.47879,-2.00963 6.20351,-3.72742 6.62431,-4.3313c0.32195,-0.46203 0.11187,-0.97472 0.11187,-0.97472c0,0 -1.57524,-1.86934 -1.24699,-3.15c0.14661,-0.57197 0.28165,-1.29737 1.7796,-1.22024c0.94012,0.04841 1.30441,0.69213 2.07715,0.94172c0.7352,0.23747 1.89,0.08253 2.35283,0.08253c1.12407,0 1.34856,-0.58672 1.73675,-0.90192c0.25371,-0.206 0.85732,-0.18834 0.85732,-0.18834c0,0 1.1552,0.66395 1.18554,1.35912c0.01226,0.28102 0.32209,1.38939 0.16206,2.34931c-0.19253,1.15479 -0.86329,2.22925 -0.87521,3.17321c-0.00757,0.59973 -0.75392,1.18763 -0.98526,1.77063c-0.73682,1.8568 -1.7498,3.66399 -2.60338,5.64619c-0.81696,1.89714 -0.23093,4.36052 -0.97524,5.18935c-0.48627,0.54149 -2.14933,-0.42696 -2.14933,-0.42696c0,0 -0.88145,-1.10427 -2.74519,-1.08441c-0.35818,0.00382 -0.31816,1.20777 -0.78934,1.2045c-0.37799,-0.00262 -1.85719,0.29944 -2.24404,0.36672c-2.0461,0.35586 -3.35709,0.15231 -3.35709,0.15231z" fill-opacity="0.5" fill="#000000" stroke="none" stroke-width="0"/><path d="" fill="#75747a" stroke="none" stroke-width="0"/><path d="" fill="#75747a" stroke="#ffffff" stroke-width="0.5"/><path d="" fill="#75747a" stroke="none" stroke-width="0"/><path d="" fill="#75747a" stroke="none" stroke-width="0"/><path d="" fill="#75747a" stroke="none" stroke-width="0"/><path d="" fill="#75747a" stroke="none" stroke-width="0"/><path d="" fill="#75747a" stroke="none" stroke-width="0"/><path d="" fill="#75747a" stroke="none" stroke-width="0"/><path d="" fill="#75747a" stroke="none" stroke-width="0"/><path d="" fill="#75747a" stroke="none" stroke-width="0"/><path d="" fill="#75747a" stroke="none" stroke-width="0"/><path d="" fill="#75747a" stroke="none" stroke-width="0"/><path d="" fill="#75747a" stroke="none" stroke-width="0"/><path d="M232.159,189.35134c0,0 -1.62349,-1.51495 -1.614,-3.79649c0.00779,-1.87275 1.27126,-4.2228 2.69765,-6.16121c1.47879,-2.00963 6.20351,-3.72742 6.62431,-4.3313c0.32195,-0.46203 0.11187,-0.97472 0.11187,-0.97472c0,0 -1.57524,-1.86934 -1.24699,-3.15c0.14661,-0.57197 0.28165,-1.29737 1.7796,-1.22024c0.94012,0.04841 1.30441,0.69213 2.07715,0.94172c0.7352,0.23747 1.89,0.08253 2.35283,0.08253c1.12407,0 1.34856,-0.58672 1.73675,-0.90192c0.25371,-0.206 0.85732,-0.18834 0.85732,-0.18834c0,0 1.1552,0.66395 1.18554,1.35912c0.01226,0.28102 0.32209,1.38939 0.16206,2.34931c-0.19253,1.15479 -0.86329,2.22925 -0.87521,3.17321c-0.00757,0.59973 -0.75392,1.18763 -0.98526,1.77063c-0.73682,1.8568 -1.7498,3.66399 -2.60338,5.64619c-0.81696,1.89714 -0.23093,4.36052 -0.97524,5.18935c-0.48627,0.54149 -2.14933,-0.42696 -2.14933,-0.42696c0,0 -0.88145,-1.10427 -2.7452,-1.08441c-0.35818,0.00382 -0.31816,1.20777 -0.78935,1.2045c-0.37799,-0.00262 -1.85719,0.29944 -2.24404,0.36672c-2.0461,0.35586 -3.35709,0.15231 -3.35709,0.15231z" fill="#75747a" stroke="#ffffff" stroke-width="0.5"/><path d="M245.43015,175.66664c0,0.25139 0.12295,0.51532 -0.04087,0.67332c-0.14739,0.14214 -0.5699,0.19138 -0.78623,0.19138c-0.10334,0 -0.39023,-0.05741 -0.48143,-0.0936c-0.31194,-0.12378 -0.34566,-0.40157 -0.34566,-0.77109c0,-0.28161 0.27915,-0.56937 0.47849,-0.72725c0.1387,-0.10985 0.16118,-0.13744 0.34861,-0.13744c0.25336,0 0.36732,-0.06889 0.51905,0.11868c0.12182,0.1506 0.30805,0.53333 0.30805,0.74601z" fill="#2c3134" stroke="none" stroke-width="0"/><path d="M242.61051,174.83954c0,0 -0.37595,-0.23798 -0.37595,-0.37596c0,-0.16899 0.07519,-0.41355 0.07519,-0.41355c0,0 0.2005,-0.15038 0.33835,-0.15038c0.13785,0 0.11279,0 0.11279,0c0,0 0.30076,0.18183 0.30076,0.30076c0,0.17337 -0.26317,0.63913 -0.26317,0.63913c0,0 0.01824,0 -0.11279,0c-0.14353,0 -0.07519,0 -0.07519,0z" fill="#2c3134" stroke="none" stroke-width="0"/><path d="M245.9939,174.76417c-0.13102,0 -0.11279,0 -0.11279,0c0,0 -0.26316,-0.46576 -0.26316,-0.63912c0,-0.11893 0.30076,-0.30076 0.30076,-0.30076c0,0 -0.02506,0 0.11279,0c0.13785,0 0.33836,0.15038 0.33836,0.15038c0,0 0.07519,0.24456 0.07519,0.41355c0,0.13798 -0.37595,0.37596 -0.37595,0.37596c0,0 0.06834,0 -0.07519,0z" data-paper-data="{&quot;index&quot;:null}" fill="#2c3134" stroke="none" stroke-width="0"/><path d="M242.7609,177.20805c0,0 0.11279,-0.20051 0.11279,-0.30076c0,-0.10026 -0.11279,-0.30076 -0.11279,-0.30076c0,0 1.11253,0.15038 1.65419,0.15038c0.52287,0 1.54141,-0.15038 1.54141,-0.15038c0,0 -0.18798,0.16994 -0.18798,0.26317c0,0.10571 0.18798,0.33836 0.18798,0.33836c0,0 -1.00572,-0.18798 -1.54141,-0.18798c-0.52943,0 -1.65419,0.18798 -1.65419,0.18798z" fill="#2c3134" stroke="none" stroke-width="0"/><path d="M240.20441,175.32828c0,0 0.40703,-0.71791 0.29182,-1.13156c-0.15384,-0.55238 -0.99779,-1.49606 -1.27181,-2.13817c-0.34226,-0.80202 0.09782,-1.28097 0.29569,-1.63867c0.18423,-0.33303 0.7219,-0.31736 0.7219,-0.31736c0,0 0.20144,-0.00914 0.49811,0.13047c0.1607,0.07562 0.36917,0.18251 0.6615,0.50986c0.32115,0.35963 0.68256,0.52514 0.68256,0.52514c0,0 0.16777,-0.16739 -0.10177,0.26995c-0.42886,0.69588 -1.27618,1.38464 -1.42401,1.84046c-0.15129,0.46648 0.17692,1.0248 0.16971,1.53471c-0.00859,0.60686 0.11543,1.0919 0.11543,1.0919z" fill="#bab9af" stroke="none" stroke-width="0"/><path d="M247.19715,176.45614c0,0 -0.31087,-0.23305 -0.21969,-0.6378c0.12077,-0.53611 0.32443,-1.42958 0.23111,-2.06523c-0.06427,-0.4378 -0.42751,-0.65449 -0.41578,-0.94787c0.02678,-0.66947 0.25398,-1.95081 0.25398,-1.95081c0,0 0.34155,-0.41899 0.50746,-0.47642c0.15967,-0.05527 0.47002,0.13806 0.47002,0.13806c0,0 0.54179,2.00011 0.40386,2.92539c-0.06749,0.45277 -0.3368,1.07896 -0.49501,1.60762c-0.21602,0.72181 -0.32239,1.29427 -0.32239,1.29427c0,0 -0.26101,0.04972 -0.39216,0.0747c-0.13201,0.02515 -0.02139,0.03809 -0.02139,0.03809z" fill="#bab9af" stroke="none" stroke-width="0"/><path d="M232.0838,189.12578c0,0 -0.55466,-0.64651 -0.92812,-1.59154c-0.23399,-0.59212 -0.35117,-1.32427 -0.3579,-2.01718c-0.00912,-0.93854 0.33654,-1.92897 0.49429,-2.19781c0.14854,-0.25315 1.64812,-3.74125 2.23621,-3.52206c0.23587,0.08791 1.68773,0.30571 3.06697,0.30571c2.33888,0 8.8725,1.20305 8.8725,1.20305c0,0 -1.0729,1.63438 -1.4553,2.96235c-0.50598,1.75714 -0.36754,3.40122 -0.48714,4.1769c-0.07893,0.51193 -0.53885,0.71818 -0.53885,0.71818c0,0 -0.23472,-0.02172 -1.51191,-0.54415c-0.34367,-0.14058 -0.49319,-0.57735 -0.79629,-0.69612c-0.95476,-0.37416 -1.02679,-0.41085 -1.87178,-0.49567c-0.74315,-0.0746 -0.8596,0.67333 -1.13128,1.07757c-0.13741,0.20445 -0.37048,0.20908 -0.63055,0.20268c-0.63245,-0.01557 -1.6824,0.37857 -2.51045,0.45404c-1.3653,0.12444 -2.4504,-0.03594 -2.4504,-0.03594z" fill="url(#color-1)" stroke="none" stroke-width="0"/><path d="M237.23438,188.71223c0,0 -0.52311,-3.77005 -0.82092,-4.89894c-0.20872,-0.79121 -0.79568,-1.2291 -0.79568,-1.2291c0,0 0.64211,-0.25299 0.84158,-0.62619c0.18839,-0.35246 0.32388,-1.55434 0.32388,-1.55434c0,0 0.36925,2.75055 0.83688,3.89231c0.25029,0.6111 0.9605,1.18916 1.41624,1.83508c0.44681,0.63328 0.60413,1.52851 0.60413,1.52851c0,0 -0.99774,-0.30689 -1.27563,-0.15298c-0.19278,0.10677 -0.27735,0.86948 -0.48301,1.1049c-0.27465,0.31439 -0.64746,0.10075 -0.64746,0.10075z" fill="#9c958c" stroke="none" stroke-width="0"/><path d="M242.15937,183.41128c0,0 -0.12896,-1.08144 -0.72631,-2.20955c-0.43028,-0.8126 -1.33876,-1.61322 -1.50947,-2.22174c-0.36437,-1.29881 -0.01994,-3.53891 -0.01994,-3.53891c0,0 1.65672,1.96408 2.26277,2.13552c0.43321,0.12256 1.33793,-0.17414 2.24941,-0.16738c1.28988,0.00956 2.78132,0.28757 2.78132,0.28757l-1.84218,3.72194z" fill="#9c958c" stroke="none" stroke-width="0"/></g></g></svg>