<svg version="1.1" xmlns="http://www.w3.org/2000/svg" xmlns:xlink="http://www.w3.org/1999/xlink" width="21.38296" height="22.99766" viewBox="0,0,21.38296,22.99766"><defs><linearGradient x1="243.38182" y1="171.30937" x2="243.38182" y2="181.30092" gradientUnits="userSpaceOnUse" id="color-1"><stop offset="0" stop-color="#94b5e0"/><stop offset="1" stop-color="#839dbe"/></linearGradient><linearGradient x1="240.00001" y1="180.00001" x2="240.00001" y2="180.00001" gradientUnits="userSpaceOnUse" id="color-2"><stop offset="0" stop-color="#373c42"/><stop offset="1" stop-color="#6c4a4a"/></linearGradient><linearGradient x1="240.00001" y1="180.00001" x2="240.00001" y2="180.00001" gradientUnits="userSpaceOnUse" id="color-3"><stop offset="0" stop-color="#373c42"/><stop offset="1" stop-color="#6c4a4a"/></linearGradient><linearGradient x1="240.00001" y1="180.00001" x2="240.00001" y2="180.00001" gradientUnits="userSpaceOnUse" id="color-4"><stop offset="0" stop-color="#373c42"/><stop offset="1" stop-color="#6c4a4a"/></linearGradient><linearGradient x1="240.00001" y1="180.00001" x2="240.00001" y2="180.00001" gradientUnits="userSpaceOnUse" id="color-5"><stop offset="0" stop-color="#373c42"/><stop offset="1" stop-color="#6c4a4a"/></linearGradient><linearGradient x1="240.00001" y1="180.00001" x2="240.00001" y2="180.00001" gradientUnits="userSpaceOnUse" id="color-6"><stop offset="0" stop-color="#26272b"/><stop offset="1" stop-color="#464e39"/></linearGradient><linearGradient x1="240.00001" y1="180.00001" x2="240.00001" y2="180.00001" gradientUnits="userSpaceOnUse" id="color-7"><stop offset="0" stop-color="#26272b" stop-opacity="0"/><stop offset="1" stop-color="#26272b"/></linearGradient><linearGradient x1="240.00001" y1="180.00001" x2="240.00001" y2="180.00001" gradientUnits="userSpaceOnUse" id="color-8"><stop offset="0" stop-color="#2c3822"/><stop offset="1" stop-color="#464e39"/></linearGradient><linearGradient x1="240.00001" y1="180.00001" x2="240.00001" y2="180.00001" gradientUnits="userSpaceOnUse" id="color-9"><stop offset="0" stop-color="#483225" stop-opacity="0"/><stop offset="1" stop-color="#483225"/></linearGradient><linearGradient x1="240.00001" y1="180.00001" x2="240.00001" y2="180.00001" gradientUnits="userSpaceOnUse" id="color-10"><stop offset="0" stop-color="#483225" stop-opacity="0"/><stop offset="1" stop-color="#483225"/></linearGradient><linearGradient x1="240.00001" y1="180.00001" x2="240.00001" y2="180.00001" gradientUnits="userSpaceOnUse" id="color-11"><stop offset="0" stop-color="#483225" stop-opacity="0"/><stop offset="1" stop-color="#483225"/></linearGradient><linearGradient x1="240.00001" y1="180.00001" x2="240.00001" y2="180.00001" gradientUnits="userSpaceOnUse" id="color-12"><stop offset="0" stop-color="#4d322b"/><stop offset="1" stop-color="#4d322b" stop-opacity="0"/></linearGradient><linearGradient x1="240.00001" y1="180.00001" x2="240.00001" y2="180.00001" gradientUnits="userSpaceOnUse" id="color-13"><stop offset="0" stop-color="#2d1f12" stop-opacity="0"/><stop offset="1" stop-color="#2d1f12"/></linearGradient><linearGradient x1="240.00001" y1="180.00001" x2="240.00001" y2="180.00001" gradientUnits="userSpaceOnUse" id="color-14"><stop offset="0" stop-color="#654a37"/><stop offset="1" stop-color="#654a37" stop-opacity="0"/></linearGradient><linearGradient x1="240.00001" y1="180.00001" x2="240.00001" y2="180.00001" gradientUnits="userSpaceOnUse" id="color-15"><stop offset="0" stop-color="#614832" stop-opacity="0"/><stop offset="1" stop-color="#614832"/></linearGradient><linearGradient x1="240.00001" y1="180.00001" x2="240.00001" y2="180.00001" gradientUnits="userSpaceOnUse" id="color-16"><stop offset="0" stop-color="#4a3516" stop-opacity="0"/><stop offset="1" stop-color="#4a3516"/></linearGradient><linearGradient x1="240.00001" y1="180.00001" x2="240.00001" y2="180.00001" gradientUnits="userSpaceOnUse" id="color-17"><stop offset="0" stop-color="#4a3516" stop-opacity="0"/><stop offset="1" stop-color="#4a3516"/></linearGradient><linearGradient x1="240.00001" y1="180.00001" x2="240.00001" y2="180.00001" gradientUnits="userSpaceOnUse" id="color-18"><stop offset="0" stop-color="#8e6c51" stop-opacity="0"/><stop offset="1" stop-color="#8e6c51"/></linearGradient><linearGradient x1="241.2033" y1="168.65243" x2="241.2033" y2="185.84553" gradientUnits="userSpaceOnUse" id="color-19"><stop offset="0" stop-color="#fafa82"/><stop offset="1" stop-color="#fad082"/></linearGradient></defs><g transform="translate(-229.54926,-168.59991)"><g data-paper-data="{&quot;isPaintingLayer&quot;:true}" fill-rule="nonzero" stroke-linecap="butt" stroke-linejoin="miter" stroke-miterlimit="10" stroke-dasharray="" stroke-dashoffset="0" style="mix-blend-mode: normal"><path d="M238.74471,181.65959c0,0 -1.11483,-1.07692 -1.23349,-1.89529c-0.16065,-1.10794 -0.59747,-4.12049 -0.90368,-6.2323c-0.18497,-1.27565 0.70249,-2.01768 0.70249,-2.01768c0,0 -0.4419,-0.16575 0.13811,-0.12673c1.31664,0.08856 6.61338,0.44485 9.03915,0.60801c0.74892,0.05038 0.25065,0.03111 0.25065,0.03111c0,0 1.13763,0.59821 1.38251,1.41447c0.62006,2.06686 1.75809,5.86031 2.06177,6.87257c0.14666,0.48886 -0.62615,0.98717 -0.62615,0.98717c0,0 0.45569,0.05547 -0.26394,0.13309c-1.6763,0.1808 -4.72553,0.48178 -6.44833,0.48178c-1.22352,0 -2.61686,-0.10612 -3.63326,-0.20292c-0.85217,-0.08115 -0.46583,-0.05328 -0.46583,-0.05328z" fill="url(#color-1)" stroke="#516a91" stroke-width="1.5"/><path d="" fill="#000000" stroke="none" stroke-width="0"/><path d="" fill-opacity="0.5" fill="#000000" stroke="none" stroke-width="0"/><path d="" fill-opacity="0.5" fill="#000000" stroke="none" stroke-width="0"/><path d="" fill-opacity="0.5" fill="#000000" stroke="none" stroke-width="0"/><path d="" fill-opacity="0.5" fill="#000000" stroke="none" stroke-width="0"/><path d="" fill="#5e6669" stroke="#ffffff" stroke-width="0.5"/><path d="" fill="#464d55" stroke="none" stroke-width="0"/><path d="" fill="#464d55" stroke="none" stroke-width="0"/><path d="" fill="#464d55" stroke="none" stroke-width="0"/><path d="" fill="#464d55" stroke="none" stroke-width="0"/><path d="" fill="url(#color-2)" stroke="none" stroke-width="0"/><path d="" fill="url(#color-3)" stroke="none" stroke-width="0"/><path d="" fill="#464d55" stroke="none" stroke-width="0"/><path d="" fill="url(#color-4)" stroke="none" stroke-width="0"/><path d="" fill="url(#color-5)" stroke="none" stroke-width="0"/><path d="" fill="#ffffff" stroke="none" stroke-width="0"/><path d="" fill="#373c42" stroke="none" stroke-width="0"/><path d="" fill="#464e39" stroke="#ffffff" stroke-width="0.5"/><path d="" fill="#343321" stroke="none" stroke-width="0"/><path d="" fill="url(#color-6)" stroke="none" stroke-width="0"/><path d="" fill="url(#color-7)" stroke="none" stroke-width="0"/><path d="" fill="url(#color-8)" stroke="none" stroke-width="0"/><path d="" fill="#30351d" stroke="none" stroke-width="0"/><path d="" fill="#30351d" stroke="none" stroke-width="0"/><path d="" fill="#968780" stroke="#ffffff" stroke-width="0.5"/><path d="" fill="#695b5a" stroke="none" stroke-width="0"/><path d="" fill="url(#color-9)" stroke="none" stroke-width="0"/><path d="" fill="url(#color-10)" stroke="none" stroke-width="0"/><path d="" fill="url(#color-11)" stroke="none" stroke-width="0"/><path d="" fill="#5f5353" stroke="none" stroke-width="0"/><path d="" fill="#443a38" stroke="none" stroke-width="0"/><path d="" fill="#725f59" stroke="none" stroke-width="0"/><path d="" data-paper-data="{&quot;index&quot;:null}" fill="#725f59" stroke="none" stroke-width="0"/><path d="" fill="#725f59" stroke="none" stroke-width="0"/><path d="" fill="#7c6a66" stroke="none" stroke-width="0"/><path d="" fill="#61493b" stroke="#ffffff" stroke-width="0.5"/><path d="" fill="#4d322b" stroke="none" stroke-width="0"/><path d="" fill="url(#color-12)" stroke="none" stroke-width="0"/><path d="" fill="url(#color-13)" stroke="none" stroke-width="0"/><path d="" fill="#32251d" stroke="none" stroke-width="0"/><path d="" fill="#b7956f" stroke="#ffffff" stroke-width="0.5"/><path d="" fill="url(#color-14)" stroke="none" stroke-width="0"/><path d="" fill="#614832" stroke="none" stroke-width="0"/><path d="" fill="#765834" stroke="none" stroke-width="0"/><path d="" fill="url(#color-15)" stroke="none" stroke-width="0"/><path d="" fill="url(#color-16)" stroke="none" stroke-width="0"/><path d="" fill="url(#color-17)" stroke="none" stroke-width="0"/><path d="" fill="url(#color-18)" stroke="none" stroke-width="0"/><path d="M235.10677,179.20013c0,0 0.37568,-2.54905 1.08695,-3.68036c1.19522,-1.90106 5.42036,-6.66986 5.42036,-6.66986c0,0 1.39312,-0.27185 2.03553,-0.17763c0.63854,0.09365 1.80737,0.74126 1.80737,0.74126c0,0 0.91946,0.53176 1.19928,0.88894c0.1062,0.13556 1.64961,0.1166 1.82546,0.39905c0.11341,0.18215 -1.15002,0.63931 -1.03356,0.84393c0.41132,0.72268 0.77835,1.49109 0.65358,1.63826c-0.11251,0.1327 -1.48692,-1.06868 -2.31781,-1.337c-1.337,-0.43176 -2.32527,-0.0762 -2.32527,-0.0762c0,0 1.45983,2.00064 1.44017,3.72458c-0.01896,1.66275 -2.99307,4.82928 -3.53272,5.61938c-0.65369,0.95706 -2.48526,-0.5432 -3.92874,-0.19009c-1.20704,0.29527 -2.53182,5.39811 -3.33311,4.88491c-0.74986,-0.48027 1.00249,-6.60917 1.00249,-6.60917z" fill="url(#color-19)" stroke="#ffffff" stroke-width="0.5"/><path d="M241.46037,190.55804l-2.61317,-9.42792l2.04955,0.40991l2.76689,8.8643c0,0 -0.77517,0.95235 -1.13304,0.94317c-0.2967,-0.00761 -1.07022,-0.78945 -1.07022,-0.78945z" fill="#8bb796" stroke="#ffffff" stroke-width="0.5"/><path d="M244.29928,188.93712l-2.67839,-7.78313l0.95802,-1.24091l4.0392,8.7928c0,0 -0.64606,1.04425 -1.00213,1.08124c-0.29521,0.03067 -1.16299,-0.64505 -1.16299,-0.64505z" fill="#8bb796" stroke="#ffffff" stroke-width="0.5"/><path d="M247.89333,185.12711l-3.85107,-7.31568l0.75985,-1.37124c0,0 2.43555,2.76847 3.34971,4.15752c0.85504,1.2992 1.96977,3.92528 1.96977,3.92528c0,0 -0.48113,1.12977 -0.82755,1.22005c-0.28721,0.07485 -1.24699,-0.46222 -1.24699,-0.46222z" fill="#8bb796" stroke="#ffffff" stroke-width="0.5"/><path d="M234.85057,179.33677l-4.40653,-1.69088c0,0 -1.19417,-1.6818 -0.3322,-2.18083c0.74279,-0.43004 5.81474,0.48996 5.81474,0.48996l-0.51239,1.79335z" fill="#8bb796" stroke="#ffffff" stroke-width="0.5"/><path d="M233.36465,174.72528c0,0 -0.30743,-1.13296 -0.30743,-1.53716c0,-0.29585 0.61486,-0.56363 0.61486,-0.56363l3.33052,1.17849l-0.87106,1.5884z" fill="#8bb796" stroke="#ffffff" stroke-width="0.5"/><path d="M234.4919,172.06087c0,0 -0.4111,-0.90484 -0.26504,-1.11269c0.24476,-0.34831 1.59724,-0.78314 1.59724,-0.78314c0,0 2.48026,-0.6913 3.11452,-0.52217c0.64648,0.17239 0.72838,1.54694 0.72838,1.54694l-1.99831,1.89583z" fill="#8bb796" stroke="#ffffff" stroke-width="0.5"/><path d="M247.40406,175.69882l-1.74212,-3.53547c0,0 1.3967,0.71734 1.89583,0.71734c0.29905,0 0.6661,0.40991 0.6661,0.40991l0.15372,2.35698c0,0 -0.15744,0.52876 -0.31692,0.53716c-0.16486,0.00868 -0.65662,-0.48592 -0.65662,-0.48592z" fill="#8bb796" stroke="#ffffff" stroke-width="0.5"/></g></g></svg>