<svg version="1.1" xmlns="http://www.w3.org/2000/svg" xmlns:xlink="http://www.w3.org/1999/xlink" width="27.04041" height="24.84376" viewBox="0,0,27.04041,24.84376"><defs><linearGradient x1="240" y1="180" x2="240" y2="180" gradientUnits="userSpaceOnUse" id="color-1"><stop offset="0" stop-color="#373c42"/><stop offset="1" stop-color="#6c4a4a"/></linearGradient><linearGradient x1="240" y1="180" x2="240" y2="180" gradientUnits="userSpaceOnUse" id="color-2"><stop offset="0" stop-color="#373c42"/><stop offset="1" stop-color="#6c4a4a"/></linearGradient><linearGradient x1="240" y1="180" x2="240" y2="180" gradientUnits="userSpaceOnUse" id="color-3"><stop offset="0" stop-color="#373c42"/><stop offset="1" stop-color="#6c4a4a"/></linearGradient><linearGradient x1="240" y1="180" x2="240" y2="180" gradientUnits="userSpaceOnUse" id="color-4"><stop offset="0" stop-color="#373c42"/><stop offset="1" stop-color="#6c4a4a"/></linearGradient></defs><g transform="translate(-226.35885,-167.51653)"><g data-paper-data="{&quot;isPaintingLayer&quot;:true}" fill-rule="nonzero" stroke-linecap="butt" stroke-linejoin="miter" stroke-miterlimit="10" stroke-dasharray="" stroke-dashoffset="0" style="mix-blend-mode: normal"><path d="" fill-opacity="0.5" fill="#000000" stroke="none" stroke-width="0"/><path d="" fill-opacity="0.5" fill="#000000" stroke="none" stroke-width="0"/><path d="" fill-opacity="0.5" fill="#000000" stroke="none" stroke-width="0"/><path d="" fill-opacity="0.5" fill="#000000" stroke="none" stroke-width="0"/><path d="" fill-opacity="0.5" fill="#000000" stroke="none" stroke-width="0"/><path d="" fill-opacity="0.5" fill="#000000" stroke="none" stroke-width="0"/><path d="" fill-opacity="0.5" fill="#000000" stroke="none" stroke-width="0"/><path d="" fill-opacity="0.5" fill="#000000" stroke="none" stroke-width="0"/><path d="" fill-opacity="0.5" fill="#000000" stroke="none" stroke-width="0"/><path d="" fill-opacity="0.5" fill="#000000" stroke="none" stroke-width="0"/><path d="" fill-opacity="0.5" fill="#000000" stroke="none" stroke-width="0"/><path d="" fill-opacity="0.5" fill="#000000" stroke="none" stroke-width="0"/><path d="" fill-opacity="0.5" fill="#000000" stroke="none" stroke-width="0"/><path d="" fill-opacity="0.5" fill="#000000" stroke="none" stroke-width="0"/><path d="" fill="#5e6669" stroke="#ffffff" stroke-width="0.5"/><path d="" fill="#464d55" stroke="none" stroke-width="0"/><path d="" fill="#464d55" stroke="none" stroke-width="0"/><path d="" fill="#464d55" stroke="none" stroke-width="0"/><path d="" fill="#464d55" stroke="none" stroke-width="0"/><path d="" fill="url(#color-1)" stroke="none" stroke-width="0"/><path d="" fill="url(#color-2)" stroke="none" stroke-width="0"/><path d="" fill="#464d55" stroke="none" stroke-width="0"/><path d="" fill="url(#color-3)" stroke="none" stroke-width="0"/><path d="" fill="url(#color-4)" stroke="none" stroke-width="0"/><path d="" fill="#ffffff" stroke="none" stroke-width="0"/><path d="" fill="#373c42" stroke="none" stroke-width="0"/><path d="M227.62906,171.4973c0,0 0.02171,-0.57402 0.37574,-0.8559c0.4067,-0.32382 1.1704,-0.34366 1.4782,-0.03015c0.75279,0.76675 0.59917,1.03911 1.76869,1.03911c0.82466,0 1.9328,0.1149 3.34476,-1.2049c0.31357,-0.29311 1.56763,-0.21602 1.47921,0.85005c-0.05948,0.71715 -0.70986,1.54194 -1.0241,2.32394c-0.11861,0.29514 -0.06477,0.64319 0.05863,0.96607c0.16084,0.42086 0.43988,0.79895 0.60928,0.96141c0.6774,0.64963 1.71389,1.67818 3.02095,2.18359c1.45765,0.56365 3.01233,2.74824 3.7902,5.07586c0.7624,2.28134 0.40532,4.81417 0.40532,4.81417c0,0 0.57433,0.20449 1.1052,0.54228c0.36286,0.23089 0.59668,0.57843 1.04271,0.75062c0.59984,0.23156 2.66215,-0.69778 3.67045,-2.30533c0.15634,-0.24926 0.76824,-2.27327 0.39229,-3.61847c-0.51385,-1.83857 -2.25013,-3.7745 -3.11674,-5.59157c-0.54106,-1.13446 -1.60917,-4.01439 -0.72007,-5.93563c0.36369,-0.78589 1.09063,-1.64355 1.86812,-2.24566c0.62529,-0.48424 1.35535,-0.80319 1.40706,-0.7866c0.11563,0.03711 1.2491,-0.24044 2.18084,-0.07356c1.04279,0.18676 1.89734,0.83999 2.07952,1.30813c0.28235,0.72555 0.92673,3.40928 0.26578,4.3203c-0.67627,0.93213 -2.66163,0.08497 -2.66963,0.22546c-0.00534,0.09385 -0.41006,-0.29988 -0.52552,-0.75856c-0.12018,-0.47745 0.04323,-1.02953 -0.25308,-1.39672c-0.40715,-0.50455 -1.54864,-0.22614 -1.48054,-0.00993c0.05789,0.18382 -0.97859,1.63089 -0.86984,1.88408c1.06054,2.46938 4.53712,7.75383 4.90091,8.59975c1.97724,4.59767 -3.35879,9.27528 -3.35879,9.27528c0,0 -2.08811,0.90517 -4.31725,0.40535c-1.48313,-0.33254 -1.71883,-1.22172 -2.97904,-1.22172c-0.42289,0 -0.8719,0.41786 -1.42728,0.43509c-0.28837,0.00894 -2.74595,-0.16487 -4.6241,-0.882c-2.06824,-0.78972 -6.17706,-1.46649 -6.54967,-1.45522c-0.86433,0.02616 -1.59134,-0.42915 -0.95144,-1.10377c0.33456,-0.35271 2.42885,-0.14866 2.6245,-0.88113c0.06189,-0.23172 0.44878,-1.9938 0.09722,-3.87332c-0.32569,-1.74126 -1.30609,-3.43082 -1.82882,-5.36796c-0.20411,-0.75637 0.99489,-1.05192 0.84114,-1.76344c-0.19231,-0.88995 -1.26727,-1.16906 -1.63673,-1.92692c-0.58319,-1.19626 -0.47409,-2.67208 -0.47409,-2.67208z" fill-opacity="0.5" fill="#000000" stroke="none" stroke-width="0"/><path d="M226.60885,170.83425c0,0 0.02171,-0.57402 0.37574,-0.8559c0.4067,-0.32382 1.1704,-0.34366 1.4782,-0.03015c0.75279,0.76675 0.59917,1.03911 1.76869,1.03911c0.82466,0 1.9328,0.1149 3.34476,-1.2049c0.31357,-0.29311 1.56763,-0.21602 1.47922,0.85005c-0.05948,0.71715 -0.70986,1.54194 -1.02411,2.32394c-0.11861,0.29514 -0.06477,0.64319 0.05863,0.96607c0.16084,0.42086 0.43988,0.79895 0.60928,0.96141c0.6774,0.64963 1.71389,1.67818 3.02095,2.18359c1.45765,0.56365 3.01233,2.74824 3.79019,5.07586c0.7624,2.28134 0.40532,4.81417 0.40532,4.81417c0,0 0.57432,0.20449 1.10519,0.54228c0.36286,0.23089 0.59668,0.57843 1.04271,0.75062c0.59984,0.23156 2.66215,-0.69778 3.67046,-2.30533c0.15634,-0.24926 0.76824,-2.27327 0.39229,-3.61847c-0.51385,-1.83857 -2.25013,-3.7745 -3.11675,-5.59157c-0.54106,-1.13446 -1.60917,-4.01439 -0.72007,-5.93563c0.36369,-0.78589 1.09063,-1.64355 1.86812,-2.24566c0.62529,-0.48424 1.35535,-0.80319 1.40706,-0.7866c0.11563,0.03711 1.2491,-0.24044 2.18084,-0.07356c1.04279,0.18676 1.89735,0.83999 2.07953,1.30813c0.28235,0.72555 0.92672,3.40928 0.26577,4.3203c-0.67627,0.93213 -2.66163,0.08497 -2.66963,0.22546c-0.00534,0.09385 -0.41006,-0.29988 -0.52551,-0.75856c-0.12018,-0.47745 0.04323,-1.02953 -0.25308,-1.39672c-0.40715,-0.50455 -1.39826,-0.30133 -1.33016,-0.08512c0.05789,0.18382 -1.12896,1.70608 -1.02022,1.95927c1.06054,2.46938 4.53712,7.75383 4.90091,8.59975c1.97724,4.59767 -3.35879,9.27528 -3.35879,9.27528c0,0 -2.08811,0.90517 -4.31725,0.40535c-1.48313,-0.33254 -1.71883,-1.22172 -2.97904,-1.22172c-0.42289,0 -0.8719,0.41786 -1.42728,0.43509c-0.28837,0.00894 -2.74595,-0.16487 -4.62409,-0.882c-2.06824,-0.78972 -6.17706,-1.46649 -6.54967,-1.45522c-0.86433,0.02616 -1.59134,-0.42915 -0.95144,-1.10377c0.33456,-0.35271 2.42885,-0.14866 2.6245,-0.88113c0.06189,-0.23172 0.44878,-1.9938 0.09722,-3.87332c-0.32569,-1.74126 -1.30609,-3.43082 -1.82882,-5.36796c-0.20411,-0.75637 0.99489,-1.05192 0.84114,-1.76344c-0.19231,-0.88995 -1.26727,-1.16906 -1.63674,-1.92692c-0.58319,-1.19626 -0.47409,-2.67208 -0.47409,-2.67208z" fill="#a8a7b5" stroke="#ffffff" stroke-width="0.5"/><path d="M228.72919,175.67608c0,0 0.33334,-0.38669 -0.026,-0.76702c-0.39459,-0.41764 -1.30492,-0.85084 -1.49469,-1.30336c-0.32612,-0.77768 -0.48271,-2.35664 -0.40716,-3.11131c0.02586,-0.25829 0.31125,-0.42003 0.31125,-0.42003c0,0 0.53547,-0.35319 1.0864,-0.14038c0.44437,0.17165 0.61714,0.71888 1.01014,0.95768c0.38387,0.23326 0.98822,0.16018 1.39983,0.16018c1.4118,0 3.2708,-1.31584 3.2708,-1.31584c0,0 0.8572,-0.03098 0.92129,0.36683c0.01786,0.1109 0.06261,0.56429 -0.09131,0.95836c-0.34508,0.88349 -0.85764,2.07431 -0.84033,2.73439c0.01119,0.42657 0.235,0.57277 0.34206,0.89279c0.36827,1.10077 -3.22655,1.47643 -3.22655,1.47643c0,0 -0.61228,0.5792 -0.74606,0.94561c-0.4269,1.16923 -0.81466,3.27868 -0.97803,3.25888c-0.10377,-0.01258 -1.19415,-2.01056 -1.20657,-3.22664c-0.00507,-0.49604 0.17082,-0.53461 0.40666,-0.75767c0.28679,-0.27126 0.26828,-0.70891 0.26828,-0.70891z" fill="#f2f0ef" stroke="none" stroke-width="0"/><path d="M229.92534,173.20681c0,0.46495 -0.185,0.53574 -0.79086,0.53574c-0.60586,0 -0.68881,0.1333 -0.68881,-0.33165c0,-0.24797 -0.11541,-0.98113 0.10688,-1.1352c0.19451,-0.13482 0.45226,0.19128 0.735,0.19128c0.60586,0 0.63779,0.27488 0.63779,0.73983z" fill="#221e1d" stroke="none" stroke-width="0"/><path d="M231.70645,172.46674c0.28274,0 0.54049,-0.3261 0.735,-0.19128c0.22229,0.15407 0.10688,0.88723 0.10688,1.1352c0,0.46495 -0.08295,0.33165 -0.68881,0.33165c-0.60586,0 -0.79085,-0.07079 -0.79085,-0.53574c0,-0.46495 0.03193,-0.73983 0.63778,-0.73983z" data-paper-data="{&quot;index&quot;:null}" fill="#221e1d" stroke="none" stroke-width="0"/><path d="M231.55808,174.66097c0,0.47904 -0.42261,0.86739 -0.94392,0.86739c-0.26602,0 -0.40429,0.10297 -0.57587,-0.05973c-0.16466,-0.15614 -0.36806,-0.57307 -0.36806,-0.80766c0,-0.47904 0.21852,-1.1225 0.73983,-1.1225c0.52132,0 1.14802,0.64346 1.14802,1.1225z" fill="#28272a" stroke="none" stroke-width="0"/><path d="M230.53761,174.48239c0,0.15499 -0.13706,0.28063 -0.30614,0.28063c-0.16908,0 -0.30613,-0.12564 -0.30613,-0.28063c0,-0.15499 0.13706,-0.28062 0.30613,-0.28062c0.16908,0 0.30614,0.12564 0.30614,0.28062z" fill="#1a1b1d" stroke="none" stroke-width="0"/><path d="M231.35374,174.48214c0,0.15499 -0.13706,0.28062 -0.30614,0.28062c-0.16908,0 -0.30614,-0.12564 -0.30614,-0.28062c0,-0.15499 0.13706,-0.28062 0.30614,-0.28062c0.16908,0 0.30614,0.12564 0.30614,0.28062z" fill="#1a1b1d" stroke="none" stroke-width="0"/><path d="M229.57126,173.19341c0,0.26168 -0.10412,0.30152 -0.44511,0.30152c-0.34099,0 -0.38768,0.07503 -0.38768,-0.18665c0,-0.13957 -0.06496,-0.5522 0.06015,-0.63892c0.10947,-0.07587 0.25454,0.10766 0.41367,0.10766c0.34099,0 0.35896,0.15471 0.35896,0.41639z" fill="#7e523e" stroke="none" stroke-width="0"/><path d="M231.78454,172.77677c0.15913,0 0.30419,-0.18354 0.41367,-0.10766c0.12511,0.08672 0.06016,0.49936 0.06016,0.63892c0,0.26168 -0.04669,0.18665 -0.38768,0.18665c-0.34099,0 -0.44511,-0.03984 -0.44511,-0.30152c0,-0.26168 0.01797,-0.41639 0.35896,-0.41639z" data-paper-data="{&quot;index&quot;:null}" fill="#7e523e" stroke="none" stroke-width="0"/><path d="M229.3665,173.17707c0,0.14236 -0.05665,0.16404 -0.24215,0.16404c-0.1855,0 -0.2109,0.04082 -0.2109,-0.10154c0,-0.07592 -0.03534,-0.30041 0.03272,-0.34759c0.05955,-0.04128 0.13848,0.05857 0.22505,0.05857c0.1855,0 0.19528,0.08416 0.19528,0.22652z" fill="#221e1d" stroke="none" stroke-width="0"/><path d="M231.84384,172.95036c0.08657,0 0.16549,-0.09985 0.22504,-0.05857c0.06806,0.04717 0.03273,0.27166 0.03273,0.34759c0,0.14236 -0.0254,0.10154 -0.21091,0.10154c-0.1855,0 -0.24215,-0.02167 -0.24215,-0.16404c0,-0.14236 0.00978,-0.22652 0.19529,-0.22652z" data-paper-data="{&quot;index&quot;:null}" fill="#221e1d" stroke="none" stroke-width="0"/><path d="M240.27095,190.06256l2.66927,-2.29332c0,0 0.96522,0.60411 1.33368,0.65188c0.28852,0.0374 0.73407,-0.12554 0.73407,-0.12554l-0.0376,2.18053c0,0 -1.65312,0.42507 -2.43863,0.35595c-0.34003,-0.02992 -0.66414,-0.29246 -1.04908,-0.45201c-0.49914,-0.20689 -1.21171,-0.31748 -1.21171,-0.31748z" fill="#cacbd4" stroke="none" stroke-width="0"/><path d="M245.08316,191.32828l0.22557,-3.08282c0,0 0.62354,-0.25676 0.90588,-0.44703c0.29368,-0.19791 0.82351,-0.71843 0.82351,-0.71843l1.6542,2.85725c0,0 -0.31548,0.54929 -0.75559,0.91093c-0.18721,0.15384 -0.52015,0.24292 -0.6602,0.29151c-0.67934,0.23569 -2.19336,0.1886 -2.19336,0.1886z" fill="#cacbd4" stroke="none" stroke-width="0"/><path d="M242.41389,190.77688c0,0 -0.03041,-0.6934 0.32705,-1.30674c0.27744,-0.47604 0.90812,-0.87395 1.20484,-1.05279c0.0892,-0.05376 0.35689,0.02862 0.42308,0.02862c0.58259,0 0.97748,-0.33835 0.97748,-0.33835c0,0 0.82005,0.97956 1.08897,1.48683c0.28188,0.53172 0.56523,1.63358 0.56523,1.63358c0,0 -2.52112,0.30841 -3.22154,0.21413c-0.58006,-0.07808 -1.36509,-0.66527 -1.36509,-0.66527z" fill="#1d1d26" stroke="none" stroke-width="0"/><path d="M247.79002,188.47103c0,0 -0.19798,-1.35641 -0.13553,-1.91147c0.02037,-0.18103 0.10606,-0.31289 0.22177,-0.54564c0.11073,-0.22274 0.25212,-0.55052 0.25212,-0.55052l3.15801,0.30076c0,0 -0.38777,0.92144 -0.643,1.40869c-0.29137,0.55626 -1.01119,1.74932 -1.01119,1.74932z" fill="#cacbd4" stroke="none" stroke-width="0"/><path d="M248.69232,189.94978c0,0 -0.77812,-0.73607 -1.07988,-1.19834c-0.28643,-0.4388 -0.6871,-1.50852 -0.6871,-1.50852c0,0 0.40268,-0.42578 0.53469,-0.55119c0.11675,-0.11091 0.25482,-0.42629 0.25482,-0.42629c0,0 0.854,0.87777 1.21869,1.44279c0.48841,0.75669 0.77386,1.11369 0.77386,1.11369z" fill="#1d1d26" stroke="none" stroke-width="0"/><path d="M248.31636,185.50099c0,0 0.04627,-0.82178 0.08049,-1.15724c0.02634,-0.25808 0.10748,-0.68493 0.10748,-0.68493h2.93244c0,0 -0.00624,0.76689 -0.04875,1.08879c-0.04506,0.34117 -0.21441,0.90377 -0.21441,0.90377z" fill="#cacbd4" stroke="none" stroke-width="0"/><path d="M248.35396,186.19024c0,0 -0.22557,-0.64233 -0.22557,-0.90229c0,-0.25369 0.22557,-0.86469 0.22557,-0.86469l2.70687,0.30076c0,0 0.26027,0.70407 0.20331,0.99519c-0.05581,0.28522 -0.54166,0.7342 -0.54166,0.7342z" fill="#1d1d26" stroke="none" stroke-width="0"/><path d="M248.27876,181.85424l-0.71431,-1.46621l2.3685,-0.18798c0,0 0.41481,0.2778 0.52745,0.46552c0.14315,0.23858 0.26206,0.85032 0.26206,0.85032z" fill="#cacbd4" stroke="none" stroke-width="0"/><path d="M248.42915,183.82174c0,0 0.0202,-0.93678 -0.05809,-1.37389c-0.07147,-0.39905 -0.39305,-1.145 -0.39305,-1.145c0,0 0.90868,-0.3655 1.32956,-0.41961c0.45385,-0.05836 1.30211,0.08125 1.30211,0.08125c0,0 0.56668,1.23449 0.70954,1.75149c0.1135,0.41078 0.07997,1.10577 0.07997,1.10577c0,0 -0.88226,0.15038 -1.35343,0.15038c-0.51495,0 -1.6166,-0.15038 -1.6166,-0.15038z" fill="#1d1d26" stroke="none" stroke-width="0"/><path d="M247.1885,179.61106c0,0 -0.55888,-0.44669 -0.73063,-0.73499c-0.0679,-0.11397 -0.16825,-0.29016 -0.21999,-0.46489c-0.08454,-0.2855 -0.10205,-0.56711 -0.10205,-0.56711l2.06775,-0.30076c0,0 0.42893,0.29879 0.55363,0.49528c0.22553,0.35539 0.68702,1.45968 0.68702,1.45968z" fill="#cacbd4" stroke="none" stroke-width="0"/><path d="M247.71484,180.77651l-0.97748,-1.54141c0,0 1.21877,-0.71431 1.6542,-0.71431c0.42917,0 0.82709,0.22557 0.82709,0.22557l0.8271,1.6166c0,0 -1.09558,0.22557 -1.50382,0.22557c-0.45199,0 -0.8271,0.18798 -0.8271,0.18798z" fill="#1d1d26" stroke="none" stroke-width="0"/><path d="M245.5343,176.94178c0,0 -0.35403,-0.4073 -0.4737,-0.64664c-0.11842,-0.23684 -0.24061,-0.78198 -0.24061,-0.78198l2.48129,0.0376l0.67672,1.24064z" fill="#cacbd4" stroke="none" stroke-width="0"/><path d="M246.13583,178.45813l-0.97748,-1.95496c0,0 0.96813,-0.48874 1.39103,-0.48874c0.41663,0 1.16546,0.26317 1.16546,0.26317l0.7895,1.50381z" fill="#1d1d26" stroke="none" stroke-width="0"/><path d="M244.51923,173.77124c0,0 -0.1245,0.34443 -0.22099,-0.08468c-0.11001,-0.48924 -0.18363,-1.79235 0.00517,-2.39355c0.10041,-0.31975 0.36947,-0.56743 0.4122,-0.67649c0.05433,-0.1387 0.25477,0.18469 0.25477,0.18469l1.76698,0.75191c0,0 -0.01286,0.55825 -0.3453,1.14c-0.08118,0.14207 -0.1984,0.31143 -0.2187,0.47183c-0.03798,0.30003 0.07526,0.56869 0.07526,0.56869z" fill="#cacbd4" stroke="none" stroke-width="0"/><path d="M244.82,175.63848c0,0 -0.33371,-0.74709 -0.43765,-1.16935c-0.09593,-0.38968 -0.16388,-1.27434 -0.16388,-1.27434c0,0 0.59133,0.45114 1.16546,0.45114c0.52411,0 0.71431,-0.15038 0.71431,-0.15038c0,0 0.53827,0.76796 0.70573,1.13508c0.1578,0.34593 0.49732,1.00786 0.49732,1.00786c0,0 -1.17343,0.15038 -1.579,0.15038c-0.33114,0 -0.90229,-0.15038 -0.90229,-0.15038z" fill="#1d1d26" stroke="none" stroke-width="0"/><path d="M246.62457,172.11705l-1.31584,-2.29332c0,0 0.08979,-0.34501 0.24305,-0.52069c0.27975,-0.32069 1.44874,-1.13351 1.44874,-1.13351l0.33835,2.81966z" fill="#cacbd4" stroke="none" stroke-width="0"/><path d="M246.28621,172.63085c0,0 -1.80682,-1.40175 -1.70702,-1.92739c0.08616,-0.45376 0.84233,-1.08024 0.84233,-1.08024c0,0 1.1375,1.91271 1.4276,1.96106c0.17309,0.02885 -0.56291,1.04657 -0.56291,1.04657z" fill="#1d1d26" stroke="none" stroke-width="0"/><path d="M249.03068,171.17716c0,0 -0.68982,-0.11226 -1.07322,-0.36429c-0.14041,-0.09229 -0.20717,-0.301 -0.23023,-0.3908c-0.13189,-0.51365 0.40116,-1.95177 0.40116,-1.95177c0,0 1.20947,-0.33836 1.87977,-0.33836c0.3048,0 1.09708,0.2614 1.39274,0.52441c0.42125,0.37472 0.29904,0.79144 0.29904,0.79144l0.22557,1.12786z" fill="#cacbd4" stroke="none" stroke-width="0"/><path d="M247.03812,171.3902c0,0 -0.18602,-1.25314 -0.21912,-1.8027c-0.02901,-0.48156 0.10634,-1.4305 0.10634,-1.4305c0,0 1.7097,-0.37596 2.29332,-0.37596c0.49033,0 0.97748,0.37596 0.97748,0.37596c0,0 -0.3657,0.93648 -0.67505,1.35467c-0.35974,0.48631 -1.3551,1.38979 -1.3551,1.38979c0,0 -0.38337,-0.12894 -0.5391,-0.07332c-0.18876,0.06741 -0.58876,0.56206 -0.58876,0.56206z" fill="#1d1d26" stroke="none" stroke-width="0"/><path d="M249.51942,172.34262c0,0 -0.37188,-0.14555 -0.49478,-0.41075c-0.11463,-0.24736 -0.33232,-0.90508 -0.33232,-0.90508c0,0 1.38636,-0.44287 1.99571,-0.45612c0.53344,-0.01159 1.46306,0.38092 1.46306,0.38092c0,0 0.17084,0.60198 0.15007,0.83049c-0.0146,0.16059 -0.26286,0.41016 -0.26286,0.41016z" fill="#cacbd4" stroke="none" stroke-width="0"/><path d="M249.70739,173.49554c0,0 -0.35987,-0.19959 -0.51491,-0.42153c-0.1004,-0.14373 -0.00575,-0.29682 -0.04076,-0.41117c-0.09805,-0.32031 -0.08345,-1.00947 -0.08345,-1.00947c0,0 1.03794,-0.30077 1.54141,-0.30077c0.53478,0 1.6542,0.26317 1.6542,0.26317c0,0 -0.09198,1.19344 -0.29413,1.53035c-0.16708,0.27848 -0.83373,0.38701 -0.83373,0.38701z" fill="#1d1d26" stroke="none" stroke-width="0"/><path d="M248.88029,171.46539l-0.48874,-0.52633c0,0 1.58632,-1.08218 2.22406,-1.33866c0.39859,-0.1603 1.19711,-0.16516 1.19711,-0.16516l0.37595,1.6918c0,0 -1.06185,-0.30879 -1.59645,-0.25412c-0.56636,0.05793 -1.71194,0.59247 -1.71194,0.59247z" fill="#1d1d26" stroke="none" stroke-width="0"/><path d="M236.58661,177.51825c0,0 -4.48795,-2.00155 -4.19236,-2.66984c0.1306,-0.29525 1.74865,-0.37538 1.74865,-0.37538l2.03015,1.99255c0,0 1.98111,0.96248 2.49325,1.31544c0.36231,0.2497 0.2888,0.60192 0.2888,0.60192z" fill="#6b6063" stroke="none" stroke-width="0"/><path d="M230.04502,172.10452c0,0 -0.57915,-0.24088 -0.7193,-0.44777c-0.11982,-0.17687 -0.0702,-0.71769 -0.0702,-0.71769c0,0 0.65873,0.15038 1.12786,0.15038c0.26122,0 0.59176,-0.00378 0.99761,-0.13092c0.48683,-0.15251 1.03253,-0.43302 1.03253,-0.43302c0,0 -0.26767,1.07538 -0.53135,1.30437c-0.17768,0.15431 -0.85968,0.34983 -0.85968,0.34983z" fill="#a5a3a7" stroke="none" stroke-width="0"/><path d="M233.01505,172.2549c0,0 0.15453,-0.57947 0.313,-0.84156c0.16692,-0.27605 0.66448,-0.77504 0.66448,-0.77504h0.30076c0,0 0.07485,0.69334 0.00808,1.00049c-0.05699,0.26216 -0.38403,0.7289 -0.38403,0.7289c0,0 -0.40136,0.07202 -0.55641,0.05264c-0.14504,-0.01813 -0.34588,-0.16542 -0.34588,-0.16542z" fill="#494746" stroke="none" stroke-width="0"/><path d="M227.93017,172.30735c-0.15506,0.01938 -0.55641,-0.05264 -0.55641,-0.05264c0,0 -0.32704,-0.46674 -0.38403,-0.7289c-0.06677,-0.30714 0.00808,-1.00049 0.00808,-1.00049h0.30076c0,0 0.49757,0.49899 0.66448,0.77505c0.15847,0.26209 0.313,0.84155 0.313,0.84155c0,0 -0.20084,0.14729 -0.34588,0.16542z" data-paper-data="{&quot;index&quot;:null}" fill="#494746" stroke="none" stroke-width="0"/><path d="M229.51868,188.40837c0,0 1.02554,-0.71403 1.37286,-1.07421c0.32833,-0.34049 0.73248,-1.2191 0.73248,-1.2191c0,0 2.56891,1.53362 3.88479,1.82311c1.17433,0.25835 3.70948,-0.09372 3.70948,-0.09372c0,0 0.19228,0.21764 0.16514,0.45708c-0.01563,0.13789 -0.17942,0.23277 -0.30136,0.42631c-0.43077,0.68376 -1.66836,1.5979 -1.66836,1.5979c0,0 -0.81337,-0.08727 -1.8072,-0.3275c-0.34271,-0.08284 -0.54125,-0.31636 -0.96104,-0.39017c-0.66768,-0.11739 -1.40908,-0.35408 -2.26152,-0.5567c-1.41136,-0.33547 -2.86526,-0.643 -2.86526,-0.643z" fill="#50505c" stroke="none" stroke-width="0"/><path d="M239.29348,188.52115c0,0 0.04239,-1.1511 -0.64359,-2.28262c-1.14281,-1.88506 -3.37269,-4.44614 -4.3335,-4.70392c-0.90019,-0.24151 -1.67482,3.34336 -2.6041,4.62068c-0.3273,0.44988 -0.9372,1.94804 -1.96984,2.2083c-1.06828,0.26924 -2.62987,-0.36878 -2.62987,-0.36878c0,0 -0.2394,-0.16944 -0.12868,-0.3367c0.17038,-0.25737 0.62554,-0.36574 1.15595,-0.43637c0.48867,-0.06507 1.0412,-0.07538 1.49375,-0.65389c0.46201,-0.59061 0.13715,-1.19402 0.48879,-2.03714c0.59618,-1.42945 1.98597,-3.27554 2.53418,-3.69371c1.06206,-0.81013 3.26368,0.25628 3.49183,0.45636c1.2072,1.0587 2.83961,3.61675 3.59242,3.58937c0.86674,-0.03152 0.7933,-4.55738 0.7933,-4.55738c0,0 0.28443,0.42461 0.52549,1.01542c0.2967,0.72717 0.49122,1.94994 0.55354,2.44477c0.09796,0.77795 0.12403,2.36709 0.12403,2.36709z" fill="#666675" stroke="none" stroke-width="0"/><path d="M237.30092,190.32573c0,0 1.11255,-0.613 1.84393,-1.71596c0.33477,-0.50485 2.38817,-2.31435 2.51184,-2.46157c0.16226,-0.19316 -0.0323,0.83155 -0.0323,0.83155l1.35343,0.71431c0,0 -1.49754,2.1886 -2.4578,2.36838c-0.69723,0.13054 -0.90201,0.55325 -1.34861,0.58536c-0.71515,0.05142 -1.87049,-0.32207 -1.87049,-0.32207z" fill="#1d1d26" stroke="none" stroke-width="0"/></g></g></svg>