<svg version="1.1" xmlns="http://www.w3.org/2000/svg" xmlns:xlink="http://www.w3.org/1999/xlink" width="27.92526" height="16.48959" viewBox="0,0,27.92526,16.48959"><defs><linearGradient x1="341.773" y1="338.20618" x2="341.773" y2="343.53361" gradientUnits="userSpaceOnUse" id="color-1"><stop offset="0" stop-color="#373c42"/><stop offset="1" stop-color="#6c4a4a"/></linearGradient><linearGradient x1="348.95884" y1="338.82565" x2="348.95884" y2="344.77255" gradientUnits="userSpaceOnUse" id="color-2"><stop offset="0" stop-color="#373c42"/><stop offset="1" stop-color="#6c4a4a"/></linearGradient><linearGradient x1="324.21105" y1="339.87874" x2="324.21105" y2="344.8345" gradientUnits="userSpaceOnUse" id="color-3"><stop offset="0" stop-color="#373c42"/><stop offset="1" stop-color="#6c4a4a"/></linearGradient><linearGradient x1="330.87034" y1="338.26812" x2="330.87034" y2="346.01148" gradientUnits="userSpaceOnUse" id="color-4"><stop offset="0" stop-color="#373c42"/><stop offset="1" stop-color="#6c4a4a"/></linearGradient><linearGradient x1="240.46327" y1="170.69132" x2="240.46327" y2="187.29847" gradientUnits="userSpaceOnUse" id="color-5"><stop offset="0" stop-color="#edddaa"/><stop offset="1" stop-color="#b79c69"/></linearGradient></defs><g transform="translate(-225.95031,-171.63021)"><g data-paper-data="{&quot;isPaintingLayer&quot;:true}" fill-rule="nonzero" stroke-linecap="butt" stroke-linejoin="miter" stroke-miterlimit="10" stroke-dasharray="" stroke-dashoffset="0" style="mix-blend-mode: normal"><path d="M230.51684,182.65561c0,0 -3.24084,1.96768 -3.70304,-0.25234c-0.15143,-0.72736 -0.05606,-1.4886 -0.01002,-1.75365c0.02019,-0.11622 0.64824,-0.16912 1.01492,0.09031c0.27745,0.1963 0.2526,0.69356 0.57259,0.78066c0.7014,0.19093 1.33983,-0.29356 1.33983,-0.29356c0,0 0.31063,-1.22482 0.77034,-2.72989c0.3026,-0.9907 0.54836,-2.10282 1.242,-3.06699c0.53172,-0.73909 1.55097,-1.09046 2.39067,-1.53692c0.73244,-0.38943 1.24286,-0.92808 2.27687,-0.86687c2.85829,0.16919 11.27712,-0.52743 12.53561,-0.42066c1.6594,0.14079 3.17737,0.79989 3.17737,0.79989c0,0 2.60992,2.90051 1.45808,4.29293c-0.29904,0.36149 -1.66078,0.78828 -2.45461,0.68131c-0.66514,-0.08963 -0.72941,-0.70297 -1.38904,-0.60414c-1.20499,0.18052 -2.07761,1.37544 -2.20057,1.86729c-0.39198,1.5679 1.44328,6.33404 1.44328,6.33404c0,0 1.39902,0.69899 1.97159,1.30813c0.44423,0.4726 0.24881,0.90534 -0.57779,0.82496c-0.68175,-0.06629 -1.49974,-0.03762 -2.26932,-0.32277c-0.66349,-0.24584 -1.37995,-1.5172 -2.08961,-2.36253c-0.51006,-0.60759 -1.03388,-0.87424 -1.45127,-0.94663c-0.14261,-0.02473 -0.47472,1.02104 -0.13136,1.75944c0.18334,0.39427 1.04901,0.44074 1.33462,0.68032c0.33234,0.27879 0.06891,0.71791 -0.01981,0.69787c-0.15171,-0.03428 -0.31742,0.21986 -0.48726,0.24002c-0.31444,0.03732 -0.64302,-0.12046 -0.92305,-0.11556c-0.43628,0.00764 -0.75723,-0.19248 -1.16188,-0.41127c-0.73451,-0.39714 -1.28738,-1.60392 -1.37411,-3.17926c-0.05394,-0.97973 0.21427,-2.32101 0.00684,-3.03166c-0.27916,-0.95641 -1.24504,-0.60512 -1.85488,-0.78726c-0.76718,-0.22913 -1.23138,-0.64119 -1.94765,-0.71577c-0.16312,-0.01699 -1.05991,2.80907 -0.72408,4.73974c0.18411,1.05847 1.29556,1.74489 1.72349,2.3012c0.41267,0.53647 0.14718,0.96196 0.06214,0.95144c-0.2547,-0.03149 -0.50012,0.15262 -0.78384,0.22608c-0.27563,0.07137 -0.58941,0.0323 -0.84803,-0.00558c-0.12147,-0.01779 -1.04357,-0.45206 -1.85841,-1.13727c-0.54129,-0.45518 -0.97538,-1.10091 -1.31323,-1.51922c-0.63466,-0.78579 -1.00428,-1.7207 -1.36994,-1.75815c-0.19112,-0.01958 -0.26105,1.00296 -0.05714,1.84103c0.18586,0.76388 0.64758,1.35033 0.49661,1.33254c-0.31901,-0.03759 -0.42417,0.19474 -0.71503,0.21849c-0.36454,0.02977 -0.89845,-0.14576 -1.11596,-0.19626c-1.19955,-0.27854 -0.98591,-3.9535 -0.98591,-3.9535z" fill-opacity="0.5" fill="#000000" stroke="none" stroke-width="0"/><path d="" fill-opacity="0.5" fill="#000000" stroke="none" stroke-width="0"/><path d="" fill="#5e6669" stroke="#ffffff" stroke-width="0.5"/><path d="" fill="#464d55" stroke="none" stroke-width="0"/><path d="" fill="#464d55" stroke="none" stroke-width="0"/><path d="" fill="#464d55" stroke="none" stroke-width="0"/><path d="" fill="#464d55" stroke="none" stroke-width="0"/><path d="" fill="url(#color-1)" stroke="none" stroke-width="0"/><path d="" fill="url(#color-2)" stroke="none" stroke-width="0"/><path d="" fill="#464d55" stroke="none" stroke-width="0"/><path d="" fill="url(#color-3)" stroke="none" stroke-width="0"/><path d="" fill="url(#color-4)" stroke="none" stroke-width="0"/><path d="" fill="#ffffff" stroke="none" stroke-width="0"/><path d="" fill="#373c42" stroke="none" stroke-width="0"/><path d="M229.90969,181.94132c0,0 -3.24084,1.96768 -3.70304,-0.25234c-0.15143,-0.72736 -0.05606,-1.4886 -0.01002,-1.75365c0.02019,-0.11622 0.64824,-0.16912 1.01492,0.09031c0.27745,0.1963 0.2526,0.69356 0.57259,0.78066c0.7014,0.19093 1.33983,-0.29356 1.33983,-0.29356c0,0 0.31063,-1.22482 0.77034,-2.72989c0.3026,-0.9907 0.54836,-2.10282 1.242,-3.06699c0.53172,-0.7391 1.55097,-1.09046 2.39067,-1.53692c0.73244,-0.38943 1.24287,-0.92808 2.27687,-0.86688c2.85829,0.16919 11.27712,-0.52743 12.53561,-0.42066c1.6594,0.14079 3.17737,0.79989 3.17737,0.79989c0,0 2.60992,2.90051 1.45808,4.29293c-0.29904,0.36149 -1.66078,0.78828 -2.45461,0.68131c-0.66514,-0.08963 -0.72941,-0.70297 -1.38904,-0.60414c-1.20499,0.18052 -2.07761,1.37544 -2.20057,1.86729c-0.39198,1.5679 1.44328,6.33404 1.44328,6.33404c0,0 1.39902,0.69899 1.97159,1.30813c0.44423,0.4726 0.24881,0.90534 -0.57779,0.82496c-0.68175,-0.06629 -1.49974,-0.03762 -2.26932,-0.32277c-0.66349,-0.24584 -1.37995,-1.5172 -2.08961,-2.36253c-0.51006,-0.60759 -1.03388,-0.87424 -1.45127,-0.94663c-0.14261,-0.02473 -0.47472,1.02104 -0.13136,1.75944c0.18334,0.39427 1.04901,0.44074 1.33462,0.68032c0.33234,0.27879 0.06891,0.71791 -0.01981,0.69787c-0.15171,-0.03428 -0.31742,0.21986 -0.48726,0.24002c-0.31444,0.03732 -0.64302,-0.12046 -0.92305,-0.11556c-0.43628,0.00764 -0.75723,-0.19248 -1.16188,-0.41127c-0.73451,-0.39714 -1.28738,-1.60392 -1.37411,-3.17926c-0.05394,-0.97973 0.21427,-2.32101 0.00684,-3.03166c-0.27916,-0.95641 -1.24504,-0.60512 -1.85488,-0.78726c-0.76718,-0.22913 -1.23138,-0.64119 -1.94765,-0.71577c-0.16312,-0.01699 -1.05991,2.80907 -0.72408,4.73974c0.18411,1.05847 1.29556,1.74489 1.72349,2.3012c0.41267,0.53647 0.14718,0.96196 0.06214,0.95144c-0.25469,-0.03149 -0.50012,0.15262 -0.78384,0.22608c-0.27563,0.07137 -0.58941,0.03229 -0.84803,-0.00558c-0.12147,-0.01779 -1.04357,-0.45206 -1.85841,-1.13727c-0.54129,-0.45518 -0.97538,-1.10091 -1.31323,-1.51922c-0.63466,-0.78579 -1.00428,-1.7207 -1.36994,-1.75815c-0.19112,-0.01957 -0.26106,1.00297 -0.05714,1.84103c0.18586,0.76388 0.64758,1.35033 0.49661,1.33254c-0.31901,-0.03759 -0.42417,0.19474 -0.71503,0.21849c-0.36454,0.02977 -0.89845,-0.14576 -1.11596,-0.19626c-1.19955,-0.27854 -0.98591,-3.9535 -0.98591,-3.9535z" fill="url(#color-5)" stroke="#ffffff" stroke-width="0.5"/><path d="M242.26683,186.19132c0,0 -0.64676,-1.27336 -0.75922,-2.0801c-0.15025,-1.07788 -0.20507,-3.59847 -0.20507,-3.59847c0,0 0.31605,-0.47426 -0.61465,-0.85999c-0.33923,-0.14059 -0.7803,-0.13904 -1.24183,-0.24993c-0.14067,-0.0338 -0.31563,-0.14284 -0.44914,-0.18743c-0.94383,-0.31521 -1.7597,-0.62519 -1.63376,-0.68977c0.58317,-0.29907 2.97358,-0.21903 4.12136,-0.1268c0.30667,0.02464 1.24658,0.29251 1.24658,0.29251c0,0 0.26387,0.42303 0.34527,0.54192c0.31087,0.45406 0.55009,1.07414 0.79955,2.3575c0.22094,1.13663 -0.35084,2.35352 -0.38412,2.96027c-0.01598,0.29135 0.16663,1.4004 0.67295,1.52536c0.79246,0.19557 1.10206,0.36495 1.10206,0.36495c0,0 -0.45781,0.51622 -0.96285,0.58243c-0.36505,0.04786 -0.86192,-0.14843 -1.12129,-0.22845c-0.37865,-0.11682 -0.91587,-0.60398 -0.91587,-0.60398z" fill="#b8a792" stroke="none" stroke-width="0"/><path d="M230.83826,185.65561c0,0 -0.47664,-0.54746 -0.54729,-1.03918c-0.06496,-0.4521 -0.12142,-1.96043 -0.26079,-2.77844c-0.09846,-0.57785 -0.29197,-0.47125 -0.32294,-0.9001c-0.02945,-0.40783 0.20245,-0.74657 0.20245,-0.74657c0,0 0.9805,-0.5948 1.29561,-0.56329c0.46121,0.04612 1.20439,0.81329 1.20439,0.81329c0,0 0.07946,0.5144 -0.03348,1.02836c-0.13914,0.63316 -0.47786,1.33961 -0.49957,1.97661c-0.02861,0.83905 0.56876,2.28075 0.56876,2.28075c0,0 -0.36344,0.23067 -0.60739,0.21983c-0.28528,-0.01268 -0.99975,-0.29126 -0.99975,-0.29126z" fill="#7c6e5d" stroke="none" stroke-width="0"/><path d="M227.08826,182.40561c0,0 -0.67727,-0.39398 -0.75107,-0.66869c-0.05646,-0.21014 -0.17743,-0.61133 -0.13902,-0.97387c0.04221,-0.3985 0.24723,-0.7503 0.24723,-0.7503c0,0 0.28918,-0.0323 0.59571,0.17639c0.18648,0.12696 0.28405,0.55769 0.49121,0.71753c0.25057,0.19333 0.61187,0.10608 0.84165,0.10608c0.23665,0 0.64808,-0.10246 1.04399,-1.04721c0.52431,-1.25109 0.97691,-3.46787 1.2961,-3.85954c0.34747,-0.42639 0.19562,2.54961 0.19562,2.54961l-0.92858,2.92857c0,0 -0.93137,0.69347 -1.34022,0.80957c-0.52573,0.14928 -1.55263,0.01186 -1.55263,0.01186z" fill="#be9b6d" stroke="none" stroke-width="0"/><path d="M232.02431,182.48626c0,0 0.56924,-1.34895 0.0605,-2.17111c-0.20606,-0.33301 -1.67341,0.34254 -1.67341,-0.18373c0,-1.09052 0.32258,-2.74194 0.32258,-2.74194c0,0 -0.23089,-0.93548 0.22581,-0.93548c0.5953,0 1.26427,1.94502 2.51078,2.76557c1.3694,0.90144 3.29567,0.68604 3.29567,0.68604c0,0 -0.37009,1.4361 -0.42219,3.0977c-0.01195,0.38092 0.38001,1.18033 0.90606,1.85962c0.40026,0.51685 0.91889,0.92342 1.15826,1.26124c0.15877,0.22407 -0.02922,0.52338 -0.02922,0.52338c0,0 -0.59155,0.64739 -1.63948,0.21212c-0.6332,-0.26301 -1.28608,-0.73542 -1.95819,-1.26377c-0.7114,-0.55924 -1.67052,-2.67324 -1.9692,-2.89072c-0.38434,-0.27986 -0.78797,-0.21892 -0.78797,-0.21892z" fill="#b79c6a" stroke="none" stroke-width="0"/><path d="M247.37915,186.93787c0,0 -1.4232,-1.99999 -2.51994,-3.00193c-0.56145,-0.51292 -0.98975,-0.09776 -1.19649,-0.40111c-0.29986,-0.43997 0.26482,-1.66148 0.26482,-1.66148c0,0 0.84375,0.36109 1.38668,0.36631c1.16743,0.01123 1.74236,-0.30179 1.74236,-0.30179c0,0 0.54949,2.4457 1.08781,3.19106c0.35184,0.48716 1.12984,0.74649 1.67742,1.1656c0.2569,0.19663 0.75461,0.58146 0.57344,0.75674c-0.18378,0.17781 -1.04835,0.14466 -1.04835,0.14466z" fill="#b79c6a" stroke="none" stroke-width="0"/><path d="M234.73399,177.71206v-0.54839h0.41935v0.54839z" fill="#373228" stroke="none" stroke-width="0"/><path d="M250.54044,174.51851v-0.74194h0.67742v0.74194z" fill="#373228" stroke="none" stroke-width="0"/><path d="M248.70173,173.38948v-0.54839h0.93548v0.54839z" fill="#373228" stroke="none" stroke-width="0"/><path d="M248.21786,174.42174v-1.03226h0.41935v1.03226z" fill="#373228" stroke="none" stroke-width="0"/><path d="M247.76625,173.38948v-0.58065h0.41935v0.58065z" fill="#373228" stroke="none" stroke-width="0"/><path d="M246.76625,173.87335v-0.45161h0.83871v0.45161z" fill="#373228" stroke="none" stroke-width="0"/><path d="M246.79851,172.74432v-0.32258h0.3871v0.32258z" fill="#373228" stroke="none" stroke-width="0"/><path d="M245.63722,172.71206v-0.45161h0.48387v0.45161z" fill="#373228" stroke="none" stroke-width="0"/><path d="M244.73399,173.77658v-0.48387h0.35484v0.48387z" fill="#373228" stroke="none" stroke-width="0"/><path d="M244.12109,173.19593v-0.35484h0.3871v0.35484z" fill="#373228" stroke="none" stroke-width="0"/><path d="M245.28238,173.35722v-0.45161h0.35484v0.45161z" fill="#373228" stroke="none" stroke-width="0"/><path d="M244.60496,172.64754v-0.22581h0.51613v0.22581z" fill="#373228" stroke="none" stroke-width="0"/><path d="M243.37915,174.55077v-1.03226h0.25806v1.03226z" fill="#373228" stroke="none" stroke-width="0"/><path d="M243.76625,175.13141v-1.29032h0.51613v1.29032z" fill="#373228" stroke="none" stroke-width="0"/><path d="M244.21786,175.55077v-0.29032h0.32258v0.29032z" fill="#373228" stroke="none" stroke-width="0"/><path d="M244.70173,175.00238v-0.41935h0.35484v0.41935z" fill="#373228" stroke="none" stroke-width="0"/><path d="M245.83077,175.51851v-1.06452h0.32258v1.06452z" fill="#373228" stroke="none" stroke-width="0"/><path d="M246.05657,176.61528v-0.67742h0.64516v0.67742z" fill="#373228" stroke="none" stroke-width="0"/><path d="M250.70173,177.19593v-0.48387h1.32258v0.48387z" fill="#373228" stroke="none" stroke-width="0"/><path d="M252.12109,176.51851v-0.45161h0.48387v0.45161z" fill="#373228" stroke="none" stroke-width="0"/><path d="M244.34689,183.09916v-0.48387h2.45161v0.48387z" fill="#373228" stroke="none" stroke-width="0"/><path d="M245.70173,183.61528v-1.58065h0.35484v1.58065z" fill="#373228" stroke="none" stroke-width="0"/><path d="M245.21786,182.77658v-0.74194h0.6129v0.74194z" fill="#373228" stroke="none" stroke-width="0"/><path d="M243.83077,181.35722v-1.74194h0.25806v1.74194z" fill="#373228" stroke="none" stroke-width="0"/><path d="M244.83077,181.55077v-0.64516h0.45161v0.64516z" fill="#373228" stroke="none" stroke-width="0"/><path d="M244.86302,180.55077v-0.70968h0.58065v0.70968z" fill="#373228" stroke="none" stroke-width="0"/><path d="M244.31464,179.84109v-0.3871h0.29032v0.3871z" fill="#373228" stroke="none" stroke-width="0"/><path d="M245.21786,179.84109v-0.45161h0.93548v0.45161z" fill="#373228" stroke="none" stroke-width="0"/><path d="M245.70173,179.32496v-0.58065h0.25806v0.58065z" fill="#373228" stroke="none" stroke-width="0"/><path d="M245.79851,177.71206v-0.41935h1.03226v0.41935z" fill="#373228" stroke="none" stroke-width="0"/><path d="M247.73399,177.13141v-0.96774h0.35484v0.96774z" fill="#373228" stroke="none" stroke-width="0"/><path d="M248.60496,176.58303v-0.41935h0.51613v0.41935z" fill="#373228" stroke="none" stroke-width="0"/><path d="M248.86302,175.0669v-0.67742h0.67742v0.67742z" fill="#373228" stroke="none" stroke-width="0"/><path d="M250.08883,174.93787v-1.51613h0.22581v1.51613z" fill="#373228" stroke="none" stroke-width="0"/><path d="M243.76625,176.51851v-0.35484h1.09677v0.35484z" fill="#373228" stroke="none" stroke-width="0"/><path d="M245.34689,176.0669v-0.51613h0.6129v0.51613z" fill="#373228" stroke="none" stroke-width="0"/><path d="M247.44367,175.93787v-0.3871h0.96774v0.3871z" fill="#373228" stroke="none" stroke-width="0"/><path d="M246.47593,175.35722v-0.29032h0.51613v0.29032z" fill="#373228" stroke="none" stroke-width="0"/><path d="M226.30217,181.44312v-0.93182h0.36364v0.93182z" fill="#373228" stroke="none" stroke-width="0"/><path d="M226.77945,180.92039v-0.43182h0.27273v0.43182z" fill="#373228" stroke="none" stroke-width="0"/><path d="M227.16581,181.94312v-0.88636h0.40909v0.88636z" fill="#373228" stroke="none" stroke-width="0"/><path d="M226.68854,182.14766v-0.20455h0.38636v0.20455z" fill="#373228" stroke="none" stroke-width="0"/><path d="M228.0749,182.23857v-0.75h0.45455v0.75z" fill="#373228" stroke="none" stroke-width="0"/><path d="M228.77945,182.12494v-0.22727h0.18182v0.22727z" fill="#373228" stroke="none" stroke-width="0"/><path d="M228.73399,181.5113v-0.54545h0.45455v0.54545z" fill="#373228" stroke="none" stroke-width="0"/><path d="M229.30217,180.92039v-0.40909h0.20455v0.40909z" fill="#373228" stroke="none" stroke-width="0"/><path d="M229.71126,181.48857v-0.47727h0.25v0.47727z" fill="#373228" stroke="none" stroke-width="0"/><path d="M229.73399,180.44312v-0.61364h0.38636v0.61364z" fill="#373228" stroke="none" stroke-width="0"/><path d="M230.62036,180.12494v-0.70455h0.38636v0.70455z" fill="#373228" stroke="none" stroke-width="0"/><path d="M230.23399,179.2613v-1h0.34091v1z" fill="#373228" stroke="none" stroke-width="0"/><path d="M230.68854,178.21585v-1.70455h0.38636v1.70455z" fill="#373228" stroke="none" stroke-width="0"/><path d="M234.73399,182.5113v-0.61364h0.63636v0.61364z" fill="#373228" stroke="none" stroke-width="0"/><path d="M235.96126,183.60221v-2.09091h0.27273v2.09091z" fill="#373228" stroke="none" stroke-width="0"/><path d="M236.27945,184.73857v-0.45455h0.5v0.45455z" fill="#373228" stroke="none" stroke-width="0"/><path d="M237.02945,185.17039v-0.15909h0.25v0.15909z" fill="#373228" stroke="none" stroke-width="0"/><path d="M234.66581,185.46585v-0.45455h0.47727v0.45455z" fill="#373228" stroke="none" stroke-width="0"/><path d="M235.25672,185.92039v-0.27273h0.27273v0.27273z" fill="#373228" stroke="none" stroke-width="0"/><path d="M235.73399,186.21585v-0.29545h0.15909v0.29545z" fill="#373228" stroke="none" stroke-width="0"/><path d="M236.12036,186.37494v-0.31818h0.22727v0.31818z" fill="#373228" stroke="none" stroke-width="0"/><path d="M237.73399,186.19312v-0.5h0.22727v0.5z" fill="#373228" stroke="none" stroke-width="0"/><path d="M233.55217,183.55676v-1.13636h0.38636v1.13636z" fill="#373228" stroke="none" stroke-width="0"/><path d="M234.66581,183.35221v-0.29545h0.40909v0.29545z" fill="#373228" stroke="none" stroke-width="0"/><path d="M234.09763,181.37494v-0.61364h0.54545v0.61364z" fill="#373228" stroke="none" stroke-width="0"/><path d="M233.50672,180.82948v-0.56818h0.36364v0.56818z" fill="#373228" stroke="none" stroke-width="0"/><path d="M234.02945,180.35221v-0.5h0.52273v0.5z" fill="#373228" stroke="none" stroke-width="0"/><path d="M234.77945,179.89766v-0.52273h0.27273v0.52273z" fill="#373228" stroke="none" stroke-width="0"/><path d="M235.14308,181.46585v-1.47727h0.5v1.47727z" fill="#373228" stroke="none" stroke-width="0"/><path d="M236.05217,181.10221v-1.11364h0.38636v1.11364z" fill="#373228" stroke="none" stroke-width="0"/><path d="M235.5749,179.67039v-0.86364h0.40909v0.86364z" fill="#373228" stroke="none" stroke-width="0"/><path d="M236.3249,179.39766v-0.56818h0.27273v0.56818z" fill="#373228" stroke="none" stroke-width="0"/><path d="M238.25672,178.92039v-0.56818h0.34091v0.56818z" fill="#373228" stroke="none" stroke-width="0"/><path d="M237.80217,178.39766v-0.52273h0.31818v0.52273z" fill="#373228" stroke="none" stroke-width="0"/><path d="M237.0749,177.55676v-0.5h0.56818v0.5z" fill="#373228" stroke="none" stroke-width="0"/><path d="M238.62036,177.78403v-0.54545h1.04545v0.54545z" fill="#373228" stroke="none" stroke-width="0"/><path d="M239.62036,176.5113v-0.43182h0.43182v0.43182z" fill="#373228" stroke="none" stroke-width="0"/><path d="M240.68854,177.64766v-0.47727h0.47727v0.47727z" fill="#373228" stroke="none" stroke-width="0"/><path d="M240.25672,177.07948v-0.34091h2.15909v0.34091z" fill="#373228" stroke="none" stroke-width="0"/><path d="M241.98399,177.73857v-0.43182h0.65909v0.43182z" fill="#373228" stroke="none" stroke-width="0"/><path d="M243.73399,177.64766v-0.38636h0.72727v0.38636z" fill="#373228" stroke="none" stroke-width="0"/><path d="M244.71126,178.28403v-0.54545h0.29545v0.54545z" fill="#373228" stroke="none" stroke-width="0"/><path d="M245.21126,178.69312v-0.29545h0.36364v0.29545z" fill="#373228" stroke="none" stroke-width="0"/><path d="M243.8249,178.69312v-0.34091h0.79545v0.34091z" fill="#373228" stroke="none" stroke-width="0"/><path d="M242.68854,179.37494v-0.45455h1.02273v0.45455z" fill="#373228" stroke="none" stroke-width="0"/><path d="M241.30217,178.7613v-0.45455h1.25v0.45455z" fill="#373228" stroke="none" stroke-width="0"/><path d="M240.18854,179.28403v-0.47727h0.56818v0.47727z" fill="#373228" stroke="none" stroke-width="0"/><path d="M240.18854,178.37494v-0.63636h0.45455v0.63636z" fill="#373228" stroke="none" stroke-width="0"/><path d="M240.80217,176.35221v-0.81818h0.25v0.81818z" fill="#373228" stroke="none" stroke-width="0"/><path d="M243.12036,176.12778v-0.46023h0.5v0.46023z" fill="#373228" stroke="none" stroke-width="0"/><path d="M242.23399,176.52645v-0.36364h0.77273v0.36364z" fill="#373228" stroke="none" stroke-width="0"/><path d="M242.16581,175.59464v-0.47727h0.47727v0.47727z" fill="#373228" stroke="none" stroke-width="0"/><path d="M241.73399,175.09464v-0.47727h0.27273v0.47727z" fill="#373228" stroke="none" stroke-width="0"/><path d="M242.3249,174.481v-0.52273h0.34091v0.52273z" fill="#373228" stroke="none" stroke-width="0"/><path d="M242.05217,173.36736v-0.68182h0.40909v0.68182z" fill="#373228" stroke="none" stroke-width="0"/><path d="M240.59763,173.52645v-0.72727h0.68182v0.72727z" fill="#373228" stroke="none" stroke-width="0"/><path d="M240.0749,174.02645v-0.54545h0.43182v0.54545z" fill="#373228" stroke="none" stroke-width="0"/><path d="M240.73399,174.41282v-0.5h0.75v0.5z" fill="#373228" stroke="none" stroke-width="0"/><path d="M239.18854,175.07191v-2.27273h0.40909v2.27273z" fill="#373228" stroke="none" stroke-width="0"/><path d="M238.02945,175.68554v-1.02273h0.52273v1.02273z" fill="#373228" stroke="none" stroke-width="0"/><path d="M238.0749,173.79918v-0.47727h0.54545v0.47727z" fill="#373228" stroke="none" stroke-width="0"/><path d="M237.16581,174.481v-1.04545h0.54545v1.04545z" fill="#373228" stroke="none" stroke-width="0"/><path d="M237.12036,175.57191v-0.40909h0.5v0.40909z" fill="#373228" stroke="none" stroke-width="0"/><path d="M235.71126,176.14009v-0.63636h0.45455v0.63636z" fill="#373228" stroke="none" stroke-width="0"/><path d="M235.25672,176.59464v-0.38636h0.40909v0.38636z" fill="#373228" stroke="none" stroke-width="0"/><path d="M237.12036,177.00373v-0.38636h0.93182v0.38636z" fill="#373228" stroke="none" stroke-width="0"/><path d="M238.77945,177.16282v-0.97727h0.40909v0.97727z" fill="#373228" stroke="none" stroke-width="0"/><path d="M239.16581,176.00373v-0.38636h0.22727v0.38636z" fill="#373228" stroke="none" stroke-width="0"/><path d="M239.75672,175.43554v-0.29545h0.22727v0.29545z" fill="#373228" stroke="none" stroke-width="0"/><path d="M240.12036,175.16282v-0.61364h1.18182v0.61364z" fill="#373228" stroke="none" stroke-width="0"/><path d="M235.25672,173.27645v-0.5h0.43182v0.5z" fill="#373228" stroke="none" stroke-width="0"/><path d="M236.18854,173.27645v-0.43182h0.88636v0.43182z" fill="#373228" stroke="none" stroke-width="0"/><path d="M236.14308,174.43554v-0.59091h0.47727v0.59091z" fill="#373228" stroke="none" stroke-width="0"/><path d="M234.14308,175.14009v-1.27273h0.56818v1.27273z" fill="#373228" stroke="none" stroke-width="0"/><path d="M233.14308,174.34464v-0.52273h0.45455v0.52273z" fill="#373228" stroke="none" stroke-width="0"/><path d="M233.68854,173.75373v-0.29545h0.31818v0.29545z" fill="#373228" stroke="none" stroke-width="0"/><path d="M234.68854,173.731v-0.43182h0.36364v0.43182z" fill="#373228" stroke="none" stroke-width="0"/><path d="M235.21126,174.89009v-1.02273h0.36364v1.02273z" fill="#373228" stroke="none" stroke-width="0"/><path d="M235.71126,174.95827v-0.38636h0.29545v0.38636z" fill="#373228" stroke="none" stroke-width="0"/><path d="M233.25672,176.04918v-0.52273h0.79545v0.52273z" fill="#373228" stroke="none" stroke-width="0"/><path d="M232.41581,175.36736v-0.84091h0.68182v0.84091z" fill="#373228" stroke="none" stroke-width="0"/><path d="M231.23399,176.54918v-0.90909h0.47727v0.90909z" fill="#373228" stroke="none" stroke-width="0"/><path d="M231.8249,176.07191v-0.5h0.36364v0.5z" fill="#373228" stroke="none" stroke-width="0"/><path d="M231.64308,178.75373v-1.61364h0.38636v1.61364z" fill="#373228" stroke="none" stroke-width="0"/><path d="M232.23399,178.25373v-1.72727h0.45455v1.72727z" fill="#373228" stroke="none" stroke-width="0"/><path d="M233.3249,179.75373v-2.54545h0.18182v2.54545z" fill="#373228" stroke="none" stroke-width="0"/><path d="M233.68854,177.61736v-0.36364h0.29545v0.36364z" fill="#373228" stroke="none" stroke-width="0"/><path d="M235.23399,178.16282v-0.45455h0.43182v0.45455z" fill="#373228" stroke="none" stroke-width="0"/><path d="M235.84763,177.77645v-0.5h0.34091v0.5z" fill="#373228" stroke="none" stroke-width="0"/><path d="M236.48399,176.481v-0.72727h0.56818v0.72727z" fill="#373228" stroke="none" stroke-width="0"/><path d="M236.87036,178.39009v-0.47727h0.72727v0.47727z" fill="#373228" stroke="none" stroke-width="0"/><path d="M241.77945,181.481v-0.59091h0.36364v0.59091z" fill="#373228" stroke="none" stroke-width="0"/><path d="M243.16581,180.43554v-0.61364h0.38636v0.61364z" fill="#373228" stroke="none" stroke-width="0"/><path d="M242.23399,180.43554v-0.95455h0.38636v0.95455z" fill="#373228" stroke="none" stroke-width="0"/><path d="M241.18854,179.34464v-0.43182h0.25v0.43182z" fill="#373228" stroke="none" stroke-width="0"/><path d="M238.84763,178.731v-0.72727h0.36364v0.72727z" fill="#373228" stroke="none" stroke-width="0"/><path d="M233.91581,179.18554v-0.36364h0.95455v0.36364z" fill="#373228" stroke="none" stroke-width="0"/><path d="M233.75672,178.59464v-0.31818h0.29545v0.31818z" fill="#373228" stroke="none" stroke-width="0"/><path d="M234.30217,178.20827v-0.34091h0.5v0.34091z" fill="#373228" stroke="none" stroke-width="0"/><path d="M236.16581,178.231v-0.18182h0.34091v0.18182z" fill="#373228" stroke="none" stroke-width="0"/><path d="M233.37036,176.57191v-0.38636h0.61364v0.38636z" fill="#373228" stroke="none" stroke-width="0"/><path d="M234.21126,176.981v-0.40909h0.38636v0.40909z" fill="#373228" stroke="none" stroke-width="0"/><path d="M238.30217,172.91282v-0.18182h0.38636v0.18182z" fill="#373228" stroke="none" stroke-width="0"/><path d="M245.91581,174.29918v-0.45455h0.54545v0.45455z" fill="#373228" stroke="none" stroke-width="0"/><path d="M246.50672,178.60979v-0.36364h0.20455v0.36364z" fill="#373228" stroke="none" stroke-width="0"/><path d="M232.16581,182.10221v-0.5h0.5v0.5z" fill="#373228" stroke="none" stroke-width="0"/><path d="M230.91581,182.64766v-0.52273h0.72727v0.52273z" fill="#373228" stroke="none" stroke-width="0"/><path d="M231.14308,183.03403v-0.25h0.38636v0.25z" fill="#373228" stroke="none" stroke-width="0"/><path d="M231.66581,180.94312v-0.77273h1.04545v0.77273z" fill="#373228" stroke="none" stroke-width="0"/><path d="M231.80217,181.44312v-0.36364h0.29545v0.36364z" fill="#373228" stroke="none" stroke-width="0"/><path d="M230.0749,180.89766v-0.45455h0.43182v0.45455z" fill="#373228" stroke="none" stroke-width="0"/><path d="M230.8249,185.10221v-1.75h0.45455v1.75z" fill="#373228" stroke="none" stroke-width="0"/><path d="M231.71126,185.87494v-0.54545h0.43182v0.54545z" fill="#373228" stroke="none" stroke-width="0"/><path d="M234.8249,184.62494v-0.88636h0.29545v0.88636z" fill="#373228" stroke="none" stroke-width="0"/><path d="M235.34763,183.53403v-0.84091h0.27273v0.84091z" fill="#373228" stroke="none" stroke-width="0"/><path d="M232.98399,181.39766v-0.38636h0.63636v0.38636z" fill="#373228" stroke="none" stroke-width="0"/><path d="M231.8249,179.87494v-0.47727h0.79545v0.47727z" fill="#373228" stroke="none" stroke-width="0"/><path d="M236.46126,175.5416v-0.38636h0.34091v0.38636z" fill="#373228" stroke="none" stroke-width="0"/><path d="M231.55217,175.22342v-0.34091h0.36364v0.34091z" fill="#373228" stroke="none" stroke-width="0"/><path d="M229.84763,179.51888v-0.18182h0.25v0.18182z" fill="#373228" stroke="none" stroke-width="0"/><path d="M231.8249,179.22342v-0.20455h0.36364v0.20455z" fill="#373228" stroke="none" stroke-width="0"/><path d="M232.80217,178.72342v-0.27273h0.27273v0.27273z" fill="#373228" stroke="none" stroke-width="0"/><path d="M242.71126,186.17039v-0.43182h0.40909v0.43182z" fill="#373228" stroke="none" stroke-width="0"/><path d="M243.84763,186.92039v-0.18182h0.61364v0.18182z" fill="#373228" stroke="none" stroke-width="0"/><path d="M242.12036,183.71585v-1.75h0.45455v1.75z" fill="#373228" stroke="none" stroke-width="0"/><path d="M241.71126,183.0113v-0.29545h1.22727v0.29545z" fill="#373228" stroke="none" stroke-width="0"/><path d="M248.50672,186.19312v-0.5h0.31818v0.5z" fill="#373228" stroke="none" stroke-width="0"/><path d="M245.84763,184.85221v-0.56818h0.95455v0.56818z" fill="#373228" stroke="none" stroke-width="0"/><path d="M245.30217,184.03403v-0.31818h0.22727v0.31818z" fill="#373228" stroke="none" stroke-width="0"/><path d="M246.30217,184.39766v-0.59091h0.56818v0.59091z" fill="#373228" stroke="none" stroke-width="0"/><path d="M246.05217,181.14766v-0.45455h0.38636v0.45455z" fill="#373228" stroke="none" stroke-width="0"/><path d="M242.14308,184.86736v-0.90909h0.54545v0.90909z" fill="#373228" stroke="none" stroke-width="0"/><path d="M242.80217,181.64009v-0.72727h0.52273v0.72727z" fill="#373228" stroke="none" stroke-width="0"/><path d="M247.30217,185.79918v-0.36364h0.38636v0.36364z" fill="#373228" stroke="none" stroke-width="0"/><path d="M249.02945,186.93554v-0.45455h0.65909v0.45455z" fill="#373228" stroke="none" stroke-width="0"/><path d="M247.50672,186.52645v-0.22727h0.47727v0.22727z" fill="#373228" stroke="none" stroke-width="0"/><path d="M249.64308,176.0416v-0.5h0.40909v0.5z" fill="#373228" stroke="none" stroke-width="0"/><path d="M236.16581,185.55676v-0.34091h0.40909v0.34091z" fill="#373228" stroke="none" stroke-width="0"/><path d="M237.18854,186.67039v-0.29545h0.5v0.29545z" fill="#373228" stroke="none" stroke-width="0"/><path d="M236.93854,186.14766v-0.5h0.38636v0.5z" fill="#373228" stroke="none" stroke-width="0"/></g></g></svg>