<svg version="1.1" xmlns="http://www.w3.org/2000/svg" xmlns:xlink="http://www.w3.org/1999/xlink" width="33.2673" height="29.57415" viewBox="0,0,33.2673,29.57415"><defs><linearGradient x1="240" y1="180" x2="240" y2="180" gradientUnits="userSpaceOnUse" id="color-1"><stop offset="0" stop-color="#373c42"/><stop offset="1" stop-color="#6c4a4a"/></linearGradient><linearGradient x1="240" y1="180" x2="240" y2="180" gradientUnits="userSpaceOnUse" id="color-2"><stop offset="0" stop-color="#373c42"/><stop offset="1" stop-color="#6c4a4a"/></linearGradient><linearGradient x1="240" y1="180" x2="240" y2="180" gradientUnits="userSpaceOnUse" id="color-3"><stop offset="0" stop-color="#373c42"/><stop offset="1" stop-color="#6c4a4a"/></linearGradient><linearGradient x1="240" y1="180" x2="240" y2="180" gradientUnits="userSpaceOnUse" id="color-4"><stop offset="0" stop-color="#373c42"/><stop offset="1" stop-color="#6c4a4a"/></linearGradient></defs><g transform="translate(-223.24135,-165.22096)"><g data-paper-data="{&quot;isPaintingLayer&quot;:true}" fill-rule="nonzero" stroke-linecap="butt" stroke-linejoin="miter" stroke-miterlimit="10" stroke-dasharray="" stroke-dashoffset="0" style="mix-blend-mode: normal"><path d="M232.51766,186.88429c0,0 -2.15877,0.99584 -4.56501,0.54112c-1.20688,-0.22807 -4.13617,-0.17318 -3.55063,-2.09369c0.09879,-0.32404 3.64804,-2.12749 5.93559,-2.75893c0.98363,-0.27151 1.91037,0.46744 1.93837,0.32516c0.10101,-0.51321 -1.51957,-2.17238 -1.86016,-3.27362c-0.94,-3.03938 -0.7821,-7.81726 -0.32935,-9.20464c0.37025,-1.13456 1.20641,-2.34512 2.19308,-3.0427c0.92976,-0.65734 2.02346,-0.83494 2.02346,-0.83494c0,0 0.88304,-0.29633 1.46226,-0.28634c0.37254,0.00643 1.67563,0.34045 1.67563,0.34045c0,0 2.73394,1.40005 3.9487,2.92898c0.44981,0.56613 1.14778,2.39902 1.1967,3.95468c0.04397,1.39844 -0.6464,2.16517 0.18737,3.32227c1.01398,1.40719 6.89075,1.48426 8.18205,2.85736c1.27977,1.36084 1.55687,3.61095 2.305,4.97534c0.65307,1.19099 2.34785,1.52681 2.80012,2.37832c0.86752,1.63333 0.20745,3.2796 0.20745,3.2796c0,0 -5.05594,1.81423 -11.41907,1.22957c-1.4395,-0.13226 -3.97554,3.59535 -5.11159,3.25025c-1.95844,-0.59492 0.86578,-3.21467 0.88011,-4.75098c0.0076,-0.81468 -2.54859,-1.24522 -3.06505,-1.40614c-2.24734,-0.70022 -5.03504,-1.73112 -5.03504,-1.73112z" fill-opacity="0.5" fill="#000000" stroke="none" stroke-width="0"/><path d="" fill-opacity="0.5" fill="#000000" stroke="none" stroke-width="0"/><path d="" fill="#5e6669" stroke="#ffffff" stroke-width="0.5"/><path d="" fill="#464d55" stroke="none" stroke-width="0"/><path d="" fill="#464d55" stroke="none" stroke-width="0"/><path d="" fill="#464d55" stroke="none" stroke-width="0"/><path d="" fill="#464d55" stroke="none" stroke-width="0"/><path d="" fill="url(#color-1)" stroke="none" stroke-width="0"/><path d="" fill="url(#color-2)" stroke="none" stroke-width="0"/><path d="" fill="#464d55" stroke="none" stroke-width="0"/><path d="" fill="url(#color-3)" stroke="none" stroke-width="0"/><path d="" fill="url(#color-4)" stroke="none" stroke-width="0"/><path d="" fill="#ffffff" stroke="none" stroke-width="0"/><path d="" fill="#373c42" stroke="none" stroke-width="0"/><path d="M231.6835,185.83372c0,0 -2.15877,0.99584 -4.56501,0.54112c-1.20687,-0.22807 -4.13617,-0.17318 -3.55063,-2.09369c0.0988,-0.32404 3.64804,-2.1275 5.93559,-2.75894c0.98363,-0.27151 1.91037,0.46744 1.93837,0.32517c0.10101,-0.51321 -1.51957,-2.17237 -1.86016,-3.27361c-0.94,-3.03937 -0.7821,-7.81727 -0.32935,-9.20465c0.37025,-1.13456 1.20641,-2.34511 2.19308,-3.0427c0.92976,-0.65735 2.02346,-0.83494 2.02346,-0.83494c0,0 0.88304,-0.29633 1.46226,-0.28634c0.37254,0.00642 1.67564,0.34044 1.67564,0.34044c0,0 2.73394,1.40005 3.9487,2.92898c0.4498,0.56613 1.14778,2.39903 1.1967,3.95469c0.04397,1.39844 -0.6464,2.16517 0.18737,3.32227c1.01398,1.40719 6.89074,1.48426 8.18205,2.85735c1.27977,1.36083 1.55687,3.61096 2.305,4.97534c0.65306,1.191 2.34786,1.52682 2.80012,2.37832c0.86752,1.63333 0.20745,3.2796 0.20745,3.2796c0,0 -5.05594,1.81424 -11.41907,1.22957c-1.4395,-0.13227 -3.97554,3.59535 -5.11159,3.25025c-1.95845,-0.59492 0.86577,-3.21466 0.8801,-4.75097c0.0076,-0.81468 -2.54859,-1.24522 -3.06505,-1.40614c-2.24734,-0.70022 -5.03503,-1.73112 -5.03503,-1.73112z" fill="#ceb573" stroke="#ffffff" stroke-width="0.5"/><path d="M229.08662,173.60673c0,-0.89177 -0.01063,-2.47801 0.39135,-3.96067c0.24412,-0.90041 0.7087,-1.76262 1.22367,-2.4079c1.31421,-1.64674 4.11977,-2.0172 4.11977,-2.0172c0,0 0.71275,0.15137 1.39246,0.38407c0.37207,0.12738 0.69636,0.31702 0.97648,0.43148c0.87664,0.3582 2.2838,1.45673 2.2838,1.45673c0,0 1.60361,1.76839 1.92497,3.22727c0.21105,0.95809 -0.08842,2.16685 0.13762,4.04967c0.05021,0.41826 -4.46475,4.0736 -5.95571,5.1877c-0.87187,0.65149 -0.43501,3.11665 -0.43501,3.11665c0,0 -2.80784,-0.55863 -4.39512,-2.69551c-1.43468,-1.93145 -1.66427,-5.38003 -1.66427,-6.77228z" fill="#4a382e" stroke="none" stroke-width="0"/><path d="M229.84405,170.63114c0,0 -0.09452,-0.75904 0.00411,-1.06315c0.11519,-0.35518 0.64511,-0.93861 0.64511,-0.93861c0,0 0.32586,-0.46881 0.48841,-0.45978c0.16205,0.009 0.48542,0.51388 0.48542,0.51388c0,0 0.32461,0.39568 0.32461,0.64922c0,0.35855 -0.32461,1.29844 -0.32461,1.29844c0,0 -0.79022,0.37871 -1.08203,0.37871c-0.23827,0 -0.54102,-0.37871 -0.54102,-0.37871z" fill="#ceb573" stroke="none" stroke-width="0"/><path d="M237.17042,169.40944c0,0 -0.41913,-0.43443 -0.3205,-0.73854c0.1152,-0.35518 0.15819,-0.99271 0.15819,-0.99271c0,0 0.86688,-0.1442 1.02943,-0.13517c0.16206,0.00901 0.81003,0.13517 0.81003,0.13517c0,0 0.32461,0.50389 0.32461,0.75742c0,0.35855 0.1082,0.91973 0.1082,0.91973c0,0 -0.84432,0.43281 -1.13614,0.43281c-0.23827,0 -0.97383,-0.37871 -0.97383,-0.37871z" fill="#ceb573" stroke="none" stroke-width="0"/><path d="M230.81788,175.57243c0,0 -0.45268,-0.74384 -0.48911,-1.19006c-0.03569,-0.43726 0.2727,-1.46093 0.2727,-1.46093c0,0 2.80955,-4.97736 4.21993,-4.97736c1.53639,0 2.59688,2.65098 2.59688,2.65098c0,0 1.8916,1.76259 2.13466,2.34775c0.24385,0.58705 -0.187,1.16887 -0.187,1.16887c0,0 -1.34595,0.29955 -2.64838,0.45465c-0.8876,0.1057 -1.66806,0.08636 -2.32897,0.08636c-0.32705,0 -0.69482,0.23365 -1.13332,0.33661c-1.13586,0.26668 -2.43739,0.58312 -2.43739,0.58312z" fill="#ceb573" stroke="none" stroke-width="0"/><path d="M232.87374,172.00171v-0.64922h0.48692v0.64922z" fill="#453003" stroke="none" stroke-width="0"/><path d="M235.90344,171.94761v-0.64922h0.86563v0.64922z" fill="#453003" stroke="none" stroke-width="0"/><path d="M234.55089,177.19548c0,0 -1.2147,-0.61246 -1.43606,-1.06947c-0.30834,-0.63656 -0.24109,-2.39303 -0.24109,-2.39303c0,0 1.36755,0.75742 2.10997,0.75742c0.65262,0 2.10997,-0.75742 2.10997,-0.75742c0,0 0.31486,1.71733 0.09413,2.3603c-0.18917,0.55106 -1.33847,1.26451 -1.33847,1.26451z" fill="#fffdf1" stroke="none" stroke-width="0"/><path d="M234.00987,176.32985c0,0 -0.32461,-0.3584 -0.32461,-0.54102c0,-0.15573 0.32461,-0.48692 0.32461,-0.48692c0,0 0.66893,-0.27051 1.02793,-0.27051c0.39498,0 1.24434,0.27051 1.24434,0.27051c0,0 0.32461,0.27708 0.32461,0.43281c0,0.18261 -0.32461,0.59512 -0.32461,0.59512c0,0 -0.71276,-0.59512 -1.08203,-0.59512c-0.38729,0 -1.19024,0.59512 -1.19024,0.59512z" fill="#baaeb2" stroke="none" stroke-width="0"/><path d="M249.53707,179.88253l-6.92502,-3.2461c0,0 2.09152,0.32633 3.82764,0.71059c1.0003,0.22139 1.73805,0.49815 2.26084,0.65004c0.72806,0.21153 1.70216,0.91164 1.70216,0.91164c0,0 0.93312,2.90572 2.23504,5.00811c0.75167,1.21382 2.1673,1.36638 2.54421,2.24111c0.84512,1.96132 0.0358,2.8678 0.0358,2.8678c0,0 -0.68787,0.39512 -1.64874,0.58025c-0.47492,0.09151 -1.30274,0.48645 -1.58446,0.00729c-0.34704,-0.59026 1.93932,-1.12317 1.82326,-1.76743c-0.34956,-1.94036 -2.40534,-4.0174 -2.78695,-4.71097c-0.719,-1.30675 -1.48378,-3.25232 -1.48378,-3.25232z" fill="#7a5d33" stroke="none" stroke-width="0"/><path d="M243.60811,189.11573l0.40843,-0.77603l8.53629,-1.51121c0,0 0.89488,0.3584 1.0394,0.71969c0.1249,0.31226 -1.40699,1.2408 -1.40699,1.2408c0,0 -6.0838,0.69434 -7.71942,0.69434c-0.6597,0 -0.85771,-0.36759 -0.85771,-0.36759z" fill="#574223" stroke="none" stroke-width="0"/><path d="M243.26127,189.62084c0,0 0.97448,-0.56442 0.62513,-0.75188c-0.38631,-0.20729 -1.5316,-0.01774 -1.5316,-0.01774l10.04966,-2.04368c0,0 1.43628,0.52941 1.3303,0.90513c-0.03413,0.12101 -0.42951,0.43269 -0.77212,0.63832c-0.55739,0.33452 -1.1533,0.56652 -1.1533,0.56652z" fill="none" stroke="#ffffff" stroke-width="0.5"/><path d="M223.83986,185.31728c0,0 -0.66998,-0.81685 -0.06644,-1.29824c0.29009,-0.23138 1.39968,-0.69162 2.78973,-1.24656c1.15292,-0.46027 2.49877,-1.04942 3.72998,-1.04942c0.18875,0 1.09739,0.25505 1.43559,0.14044c0.2518,-0.08533 -0.53049,-0.82088 -0.10075,-0.70494c1.12233,0.30279 3.27962,1.74431 4.04045,2.34122c1.11731,0.87658 3.0793,4.43149 3.0793,4.43149l-1.51121,-0.44928c0,0 -4.21157,-1.53936 -5.63753,-1.56164c-0.61367,-0.00959 -1.80822,0.29327 -2.72555,0.38939c-3.26999,0.34264 -5.03359,-0.99246 -5.03359,-0.99246z" fill="#a48545" stroke="none" stroke-width="0"/><path d="M224.69758,185.76656l-0.44928,-0.24506l1.2253,-1.2253v1.10277z" fill="#6e531a" stroke="none" stroke-width="0"/><path d="M226.00185,186.16214l-0.50648,-0.07337l0.72222,-1.57516l0.38382,1.03382z" fill="#6e531a" stroke="none" stroke-width="0"/><path d="M227.45392,186.3583l-0.44508,-0.04365l-0.05733,-1.73189l0.80515,0.75356z" fill="#6e531a" stroke="none" stroke-width="0"/><path d="M238.62521,187.89042c0,0 0.1885,-0.12656 1.1333,-0.74947c0.13531,-0.08921 0.73898,-0.55553 0.67381,-1.058c-0.1501,-1.15737 -1.21094,-2.85821 -0.88058,-3.09568c0.36788,-0.26444 0.85499,1.64031 1.57488,2.22681c0.62869,0.5122 1.51246,-0.28149 1.63816,-0.48496c0.74714,-1.20936 0.23068,-4.31306 0.23068,-4.31306c0,0 0.26478,-0.26368 0.49324,-0.24706c0.40907,0.02975 0.24194,0.57381 0.24194,0.57381c0,0 -0.09323,2.73021 0.16874,4.0259c0.09235,0.45676 0.8028,-0.19299 1.03883,0.39234c0.37686,0.93457 -2.35119,0.85056 -2.35119,0.85056c0,0 -0.52483,-0.08255 -0.94674,0.1619c-0.42856,0.24831 -0.75613,0.82623 -0.994,1.1592c-0.4921,0.68884 -0.19742,1.62678 -0.44452,1.75033c-0.32537,0.16268 -0.58163,-0.59693 -0.86963,-0.83115c-0.42942,-0.34923 -0.70693,-0.36148 -0.70693,-0.36148z" fill="#987648" stroke="none" stroke-width="0"/><path d="M238.44622,193.51616c0,0 -0.06898,-0.35941 -0.07169,-0.59616c-0.00261,-0.22819 0.06019,-0.33091 0.10442,-0.49176c0.20358,-0.74031 1.42802,-3.34843 1.42802,-3.34843c0,0 1.24357,-0.59512 2.21817,-0.59512c0.75289,0 1.94766,0.37871 1.94766,0.37871c0,0 -1.20889,1.66441 -1.95884,2.47838c-0.72819,0.79035 -2.4775,2.33667 -2.4775,2.33667z" fill="#4a382e" stroke="none" stroke-width="0"/><path d="M223.79604,184.77974l-0.29622,-0.41733l1.63865,-0.56352l-0.48381,0.99097z" fill="#6e531a" stroke="none" stroke-width="0"/></g></g></svg>