<svg version="1.1" xmlns="http://www.w3.org/2000/svg" xmlns:xlink="http://www.w3.org/1999/xlink" width="21.54345" height="18.06119" viewBox="0,0,21.54345,18.06119"><defs><linearGradient x1="240.00001" y1="180" x2="240.00001" y2="180" gradientUnits="userSpaceOnUse" id="color-1"><stop offset="0" stop-color="#373c42"/><stop offset="1" stop-color="#6c4a4a"/></linearGradient><linearGradient x1="240.00001" y1="180" x2="240.00001" y2="180" gradientUnits="userSpaceOnUse" id="color-2"><stop offset="0" stop-color="#373c42"/><stop offset="1" stop-color="#6c4a4a"/></linearGradient><linearGradient x1="240.00001" y1="180" x2="240.00001" y2="180" gradientUnits="userSpaceOnUse" id="color-3"><stop offset="0" stop-color="#373c42"/><stop offset="1" stop-color="#6c4a4a"/></linearGradient><linearGradient x1="240.00001" y1="180" x2="240.00001" y2="180" gradientUnits="userSpaceOnUse" id="color-4"><stop offset="0" stop-color="#373c42"/><stop offset="1" stop-color="#6c4a4a"/></linearGradient><linearGradient x1="239.67874" y1="170.95383" x2="239.67874" y2="188.37367" gradientUnits="userSpaceOnUse" id="color-5"><stop offset="0" stop-color="#c4beb1"/><stop offset="1" stop-color="#aca598"/></linearGradient><linearGradient x1="538.24001" y1="-125.28" x2="538.24001" y2="-125.28" gradientUnits="userSpaceOnUse" id="color-6"><stop offset="0" stop-color="#373c42"/><stop offset="1" stop-color="#6c4a4a"/></linearGradient><linearGradient x1="538.24001" y1="-125.28" x2="538.24001" y2="-125.28" gradientUnits="userSpaceOnUse" id="color-7"><stop offset="0" stop-color="#373c42"/><stop offset="1" stop-color="#6c4a4a"/></linearGradient><linearGradient x1="538.24001" y1="-125.28" x2="538.24001" y2="-125.28" gradientUnits="userSpaceOnUse" id="color-8"><stop offset="0" stop-color="#373c42"/><stop offset="1" stop-color="#6c4a4a"/></linearGradient><linearGradient x1="538.24001" y1="-125.28" x2="538.24001" y2="-125.28" gradientUnits="userSpaceOnUse" id="color-9"><stop offset="0" stop-color="#373c42"/><stop offset="1" stop-color="#6c4a4a"/></linearGradient></defs><g transform="translate(-229.10327,-170.98498)"><g data-paper-data="{&quot;isPaintingLayer&quot;:true}" fill-rule="nonzero" stroke-linecap="butt" stroke-linejoin="miter" stroke-miterlimit="10" stroke-dasharray="" stroke-dashoffset="0" style="mix-blend-mode: normal"><path d="M234.5189,182.4971c0,0 -2.38207,0.14413 -3.13515,-0.46115c-0.66174,-0.53187 -1.14485,-2.97885 -1.14485,-2.97885c0,0 -0.55987,-5.17551 0.01958,-6.87233c0.14517,-0.42509 1.1866,-0.25697 1.36336,-0.17212c0.77767,0.37329 0.91862,1.48445 1.85707,1.48445c0.50774,0 1.78161,-1.70897 2.56771,-1.75912c0.26858,-0.01714 0.93788,-0.27964 1.14922,0.0655c0.7083,1.15675 0.77486,4.22732 1.88273,4.22386c1.60937,-0.00503 3.15383,-0.81236 4.7603,-0.81987c3.16839,-0.01483 6.00005,0.76963 6.00005,0.76963c0,0 0.63562,0.51564 0.78878,1.05456c0.0987,0.3473 -0.21345,0.68086 -0.32299,0.97033c-0.11971,0.31634 -1.42599,0.19636 -1.59963,0.92223c-0.50483,2.11035 -0.67777,1.98371 -0.75445,3.10054c-0.08447,1.23032 1.32829,3.27233 1.32829,3.27233c0,0 -1.30196,2.9417 -3.26663,2.31788c-0.37068,-0.11769 -0.0764,-0.60569 -0.46965,-0.64858c-0.33085,-0.03608 -1.34346,1.56838 -1.6724,1.53417c-1.2597,-0.13102 -2.1131,0.32346 -2.8659,-0.05517c-0.28318,-0.14243 -0.25921,-1.23563 0.46136,-1.57628c0.71169,-0.33646 1.51958,-0.16017 1.32856,-0.33454c-1.27632,-1.16511 1.35417,-3.58145 -0.63542,-3.67573c-1.08958,-0.05163 -4.59269,3.73551 -6.52792,5.2886c-1.8404,1.47698 -2.13278,0.72697 -2.51223,0.56242c-1.16853,-0.50676 1.40023,-6.21276 1.40023,-6.21276z" fill-opacity="0.49194" fill="#000000" stroke="none" stroke-width="0"/><path d="" fill-opacity="0.5" fill="#000000" stroke="none" stroke-width="0"/><path d="" fill="#5e6669" stroke="#ffffff" stroke-width="0.5"/><path d="" fill="#464d55" stroke="none" stroke-width="0"/><path d="" fill="#464d55" stroke="none" stroke-width="0"/><path d="" fill="#464d55" stroke="none" stroke-width="0"/><path d="" fill="#464d55" stroke="none" stroke-width="0"/><path d="" fill="url(#color-1)" stroke="none" stroke-width="0"/><path d="" fill="url(#color-2)" stroke="none" stroke-width="0"/><path d="" fill="#464d55" stroke="none" stroke-width="0"/><path d="" fill="url(#color-3)" stroke="none" stroke-width="0"/><path d="" fill="url(#color-4)" stroke="none" stroke-width="0"/><path d="" fill="#ffffff" stroke="none" stroke-width="0"/><path d="" fill="#373c42" stroke="none" stroke-width="0"/><path d="M233.79947,181.78614c0,0 -2.30514,0.18259 -3.05822,-0.42269c-0.66175,-0.53187 -1.14485,-2.97885 -1.14485,-2.97885c0,0 -0.55987,-5.17551 0.01958,-6.87233c0.14517,-0.42509 1.1866,-0.25697 1.36336,-0.17212c0.77767,0.37329 0.91862,1.48445 1.85707,1.48445c0.50774,0 1.78161,-1.70897 2.56771,-1.75912c0.26858,-0.01714 0.93788,-0.27964 1.14921,0.0655c0.7083,1.15676 0.77486,4.22732 1.88273,4.22386c1.60937,-0.00502 3.15382,-0.81235 4.7603,-0.81987c3.16839,-0.01482 6.00005,0.76963 6.00005,0.76963c0,0 0.63562,0.51565 0.78878,1.05456c0.0987,0.34729 -0.21345,0.68086 -0.32299,0.97034c-0.11971,0.31634 -1.42599,0.19636 -1.59963,0.92223c-0.50483,2.11035 -0.67777,1.98371 -0.75445,3.10055c-0.08447,1.23032 1.32829,3.27233 1.32829,3.27233c0,0 -1.30196,2.9417 -3.26663,2.31788c-0.37068,-0.1177 -0.0764,-0.60569 -0.46966,-0.64858c-0.33085,-0.03608 -1.34345,1.56838 -1.6724,1.53416c-1.25971,-0.13102 -2.1131,0.32345 -2.86591,-0.05517c-0.28318,-0.14242 -0.25921,-1.23562 0.46136,-1.57628c0.71169,-0.33645 1.51957,-0.16018 1.32856,-0.33455c-1.27632,-1.16511 1.35417,-3.58146 -0.63542,-3.67573c-1.08957,-0.05163 -4.59269,3.73552 -6.52792,5.2886c-1.8404,1.47697 -2.13278,0.72697 -2.51222,0.56241c-1.16853,-0.50676 1.40023,-6.21276 1.40023,-6.21276z" fill="url(#color-5)" stroke="#ffffff" stroke-width="0.5"/><path d="" fill-opacity="0.5" fill="#000000" stroke="none" stroke-width="0"/><path d="" fill="#5e6669" stroke="#ffffff" stroke-width="0.5"/><path d="" fill="#464d55" stroke="none" stroke-width="0"/><path d="" fill="#464d55" stroke="none" stroke-width="0"/><path d="" fill="#464d55" stroke="none" stroke-width="0"/><path d="" fill="#464d55" stroke="none" stroke-width="0"/><path d="" fill="url(#color-6)" stroke="none" stroke-width="0"/><path d="" fill="url(#color-7)" stroke="none" stroke-width="0"/><path d="" fill="#464d55" stroke="none" stroke-width="0"/><path d="" fill="url(#color-8)" stroke="none" stroke-width="0"/><path d="" fill="url(#color-9)" stroke="none" stroke-width="0"/><path d="" fill="#ffffff" stroke="none" stroke-width="0"/><path d="" fill="#373c42" stroke="none" stroke-width="0"/><path d="M232.22672,187.57348l0.23077,-1.11539l2.11539,-2.11538c0,0 2.08867,-0.18831 2.52388,0.09978c0.10663,0.07059 0.19973,0.52535 -0.02811,0.82983c-0.78073,1.04338 -3.07175,2.91655 -3.765,2.91655c-0.40584,0 -1.07692,-0.61538 -1.07692,-0.61538z" fill="#a39b96" stroke="none" stroke-width="0"/><path d="M245.76518,186.84271c0,0 -0.37338,0.01644 -0.45463,-0.32749c-0.02317,-0.0981 -0.16397,-0.6395 -0.13281,-1.1686c0.0263,-0.44665 0.24148,-0.88453 0.08054,-1.03958c-0.4081,-0.39318 -0.38299,-1.2088 -0.28437,-1.54053c0.33936,-1.14149 2.40666,-3.00072 2.40666,-3.00072v0.11539c0,0 -0.26134,1.58568 -0.11419,2.34592c0.15954,0.82431 1.03726,2.42331 1.03726,2.42331c0,0 -0.53036,1.31643 -0.92521,1.65744c-0.44524,0.38452 -1.61325,0.53487 -1.61325,0.53487z" fill="#a39b96" stroke="none" stroke-width="0"/><path d="M243.41902,187.4581c0,0 0.89122,-2.04126 1.00429,-4.00197c0.07779,-1.34908 0.97317,-2.00413 1.30723,-2.70875c0.4216,-0.88926 2.2654,-2.94312 2.2654,-2.94312l-0.65385,2.07692c0,0 -1.72828,1.97893 -2.13084,3.00899c-0.20363,0.52105 0.02881,0.87133 0.0942,1.48673c0.08272,0.77852 0.03664,1.69659 0.03664,1.69659c0,0 -0.57586,0.12231 -0.82354,0.30064c-0.35433,0.25512 -1.09954,1.08397 -1.09954,1.08397z" fill="#b79776" stroke="none" stroke-width="0"/><path d="M230.15202,173.87327l-0.18605,-1.97674c0,0 0.12795,0.04722 0.18551,0.02204c0.06546,-0.02864 0.18658,-0.18483 0.18658,-0.18483l1.16279,1.4186c0,0 -0.53986,-0.03102 -0.74786,0.08015c-0.23765,0.12702 -0.60098,0.64078 -0.60098,0.64078z" fill="#47392c" stroke="none" stroke-width="0"/><path d="M235.19854,173.33839c0,0 0.18605,-0.60725 0.18605,-0.90698c0,-0.28037 -0.18605,-0.83721 -0.18605,-0.83721c0,0 0.34923,0.2093 0.51163,0.2093c0.1171,0 0.37209,-0.2093 0.37209,-0.2093c0,0 -0.13953,0.58076 -0.13953,0.88372c0,0.27589 0.13953,0.86047 0.13953,0.86047c0,0 -0.22577,-0.23256 -0.34884,-0.23256c-0.16113,0 -0.53488,0.23256 -0.53488,0.23256z" fill="#47392c" stroke="none" stroke-width="0"/><path d="M229.84971,178.52444l-0.30232,-4.27907c0,0 1.08531,0.44789 1.40869,0.8225c0.42921,0.49719 0.98665,1.89842 0.98665,1.89842l0.69768,1.44187c0,0 -0.94292,0.1294 -1.39595,0.14828c-0.47607,0.01984 -1.39475,-0.032 -1.39475,-0.032z" fill="#e7e3e0" stroke="none" stroke-width="0"/><path d="M231.49595,176.18887v-0.57693h0.73077v0.57693z" fill="#47392c" stroke="none" stroke-width="0"/><path d="M233.53441,176.15041v-0.57693h0.73077v0.57693z" fill="#47392c" stroke="none" stroke-width="0"/><path d="M233.59389,179.03606c0,0 0.29299,-1.01942 0.46326,-1.59836c0.20924,-0.71141 0.69953,-2.35513 0.69953,-2.35513c0,0 0.43787,-0.40749 0.69263,-0.46081c0.36877,-0.07718 1.16784,0.62361 1.16784,0.62361c0,0 -0.12887,1.55316 -0.10395,2.23039c0.02085,0.56644 0.24348,1.56031 0.24348,1.56031c0,0 -1.10875,0.25581 -1.62791,0.25581c-0.53465,0 -1.53488,-0.25581 -1.53488,-0.25581z" fill="#e7e3e0" stroke="none" stroke-width="0"/><path d="M232.54738,178.31513v-1.72093h0.5814v1.72093z" fill="#47392c" stroke="none" stroke-width="0"/><path d="M232.12877,177.8035v-0.5814h1.4186v0.5814z" fill="#47392c" stroke="none" stroke-width="0"/><path d="M231.50087,180.95854v-0.95349h0.60465v0.95349z" fill="#8e8f7f" stroke="none" stroke-width="0"/><path d="M233.4311,180.60971v-0.5814h0.65116v0.5814z" fill="#8e8f7f" stroke="none" stroke-width="0"/><path d="M234.47761,182.16785v-0.67442h0.69767v0.67442z" fill="#8e8f7f" stroke="none" stroke-width="0"/><path d="M241.15203,179.95854v-0.62791h1.04651v0.62791z" fill="#8e8f7f" stroke="none" stroke-width="0"/><path d="M243.59389,179.44692v-0.44186h0.53488v0.44186z" fill="#8e8f7f" stroke="none" stroke-width="0"/><path d="M248.12877,177.23761v-1.55814h0.76869v1.55814z" fill="#8e8f7f" stroke="none" stroke-width="0"/><path d="M238.08225,176.81901v-0.93023h1.5814v0.93023z" fill="#8e8f7f" stroke="none" stroke-width="0"/><path d="M244.59389,178.84226v-0.51163h0.83721v0.51163z" fill="#8e8f7f" stroke="none" stroke-width="0"/><path d="M247.10552,176.58645v-0.44186h0.46512v0.44186z" fill="#8e8f7f" stroke="none" stroke-width="0"/><path d="M239.0125,180.95854v-0.46512h0.4186v0.46512z" fill="#8e8f7f" stroke="none" stroke-width="0"/><path d="M237.0125,182.33064v-0.7907h0.4186v0.7907z" fill="#8e8f7f" stroke="none" stroke-width="0"/><path d="M238.61715,178.33064v-0.48837h0.4186v0.48837z" fill="#8e8f7f" stroke="none" stroke-width="0"/><path d="M239.15203,177.74924v-0.60465h0.55814v0.60465z" fill="#8e8f7f" stroke="none" stroke-width="0"/><path d="M240.57063,178.37715v-0.55814h0.7907v0.55814z" fill="#8e8f7f" stroke="none" stroke-width="0"/><path d="M242.10552,178.37715v-0.53488h0.44186v0.53488z" fill="#8e8f7f" stroke="none" stroke-width="0"/><path d="M237.54737,184.09033v-0.5814h0.46512v0.5814z" fill="#8e8f7f" stroke="none" stroke-width="0"/><path d="M238.38459,183.53218v-0.65116h0.34884v0.65116z" fill="#8e8f7f" stroke="none" stroke-width="0"/><path d="M238.75667,182.11358v-0.32558h1.11628v0.32558z" fill="#8e8f7f" stroke="none" stroke-width="0"/><path d="M236.54737,183.90428v-0.44186h0.39535v0.44186z" fill="#8e8f7f" stroke="none" stroke-width="0"/><path d="M243.68691,182.71823v-1.13953h0.55814v1.13953z" fill="#8e8f7f" stroke="none" stroke-width="0"/><path d="M236.61715,180.51668v-0.48837h0.4186v0.48837z" fill="#8e8f7f" stroke="none" stroke-width="0"/><path d="M236.10552,179.86552v-0.5814h0.30233v0.5814z" fill="#8e8f7f" stroke="none" stroke-width="0"/><path d="M235.57063,181.07482v-0.69767h0.51163v0.69767z" fill="#8e8f7f" stroke="none" stroke-width="0"/><path d="M244.26831,177.74924v-0.48837h0.72093v0.48837z" fill="#8e8f7f" stroke="none" stroke-width="0"/><path d="M245.59389,177.12133v-0.60465h0.44186v0.60465z" fill="#8e8f7f" stroke="none" stroke-width="0"/><path d="M244.50087,176.44692v-0.32558h0.23256v0.32558z" fill="#8e8f7f" stroke="none" stroke-width="0"/><path d="M242.68691,176.21436v-0.67442h0.93023v0.67442z" fill="#8e8f7f" stroke="none" stroke-width="0"/><path d="M240.26831,176.05157v-0.39535h0.72093v0.39535z" fill="#8e8f7f" stroke="none" stroke-width="0"/><path d="M234.75668,183.91203v-0.69767h0.90698v0.69767z" fill="#8e8f7f" stroke="none" stroke-width="0"/><path d="M238.47761,180.02831v-0.69767h1.06977v0.69767z" fill="#8e8f7f" stroke="none" stroke-width="0"/><path d="M237.19854,178.14459v-0.95349h0.74419v0.95349z" fill="#8e8f7f" stroke="none" stroke-width="0"/><path d="M240.73343,181.60971v-0.83721h0.86047v0.83721z" fill="#8e8f7f" stroke="none" stroke-width="0"/><path d="M243.15203,180.81901v-0.46512h1.23256v0.46512z" fill="#8e8f7f" stroke="none" stroke-width="0"/><path d="M246.38459,178.21436v-0.67442h0.39535v0.67442z" fill="#8e8f7f" stroke="none" stroke-width="0"/><path d="M242.80319,184.22172v-0.57326h0.39535v0.57326z" fill="#8e8f7f" stroke="none" stroke-width="0"/><path d="M243.12877,185.64847v-0.60465h0.39535v0.60465z" fill="#8e8f7f" stroke="none" stroke-width="0"/><path d="M241.59389,187.11358v-0.39535h0.88372v0.39535z" fill="#8e8f7f" stroke="none" stroke-width="0"/></g></g></svg>