<svg version="1.1" xmlns="http://www.w3.org/2000/svg" xmlns:xlink="http://www.w3.org/1999/xlink" width="23.40384" height="27.62387" viewBox="0,0,23.40384,27.62387"><defs><linearGradient x1="236.2841" y1="166.75456" x2="236.2841" y2="189.81199" gradientUnits="userSpaceOnUse" id="color-1"><stop offset="0" stop-color="#94b5e0"/><stop offset="1" stop-color="#839dbe"/></linearGradient><linearGradient x1="240.00002" y1="180.00001" x2="240.00002" y2="180.00001" gradientUnits="userSpaceOnUse" id="color-2"><stop offset="0" stop-color="#373c42"/><stop offset="1" stop-color="#6c4a4a"/></linearGradient><linearGradient x1="240.00002" y1="180.00001" x2="240.00002" y2="180.00001" gradientUnits="userSpaceOnUse" id="color-3"><stop offset="0" stop-color="#373c42"/><stop offset="1" stop-color="#6c4a4a"/></linearGradient><linearGradient x1="240.00002" y1="180.00001" x2="240.00002" y2="180.00001" gradientUnits="userSpaceOnUse" id="color-4"><stop offset="0" stop-color="#373c42"/><stop offset="1" stop-color="#6c4a4a"/></linearGradient><linearGradient x1="240.00002" y1="180.00001" x2="240.00002" y2="180.00001" gradientUnits="userSpaceOnUse" id="color-5"><stop offset="0" stop-color="#373c42"/><stop offset="1" stop-color="#6c4a4a"/></linearGradient><linearGradient x1="240.00002" y1="180.00001" x2="240.00002" y2="180.00001" gradientUnits="userSpaceOnUse" id="color-6"><stop offset="0" stop-color="#26272b"/><stop offset="1" stop-color="#464e39"/></linearGradient><linearGradient x1="240.00002" y1="180.00001" x2="240.00002" y2="180.00001" gradientUnits="userSpaceOnUse" id="color-7"><stop offset="0" stop-color="#26272b" stop-opacity="0"/><stop offset="1" stop-color="#26272b"/></linearGradient><linearGradient x1="240.00002" y1="180.00001" x2="240.00002" y2="180.00001" gradientUnits="userSpaceOnUse" id="color-8"><stop offset="0" stop-color="#2c3822"/><stop offset="1" stop-color="#464e39"/></linearGradient><linearGradient x1="240.00002" y1="180.00001" x2="240.00002" y2="180.00001" gradientUnits="userSpaceOnUse" id="color-9"><stop offset="0" stop-color="#483225" stop-opacity="0"/><stop offset="1" stop-color="#483225"/></linearGradient><linearGradient x1="240.00002" y1="180.00001" x2="240.00002" y2="180.00001" gradientUnits="userSpaceOnUse" id="color-10"><stop offset="0" stop-color="#483225" stop-opacity="0"/><stop offset="1" stop-color="#483225"/></linearGradient><linearGradient x1="240.00002" y1="180.00001" x2="240.00002" y2="180.00001" gradientUnits="userSpaceOnUse" id="color-11"><stop offset="0" stop-color="#483225" stop-opacity="0"/><stop offset="1" stop-color="#483225"/></linearGradient><linearGradient x1="240.00002" y1="180.00001" x2="240.00002" y2="180.00001" gradientUnits="userSpaceOnUse" id="color-12"><stop offset="0" stop-color="#4d322b"/><stop offset="1" stop-color="#4d322b" stop-opacity="0"/></linearGradient><linearGradient x1="240.00002" y1="180.00001" x2="240.00002" y2="180.00001" gradientUnits="userSpaceOnUse" id="color-13"><stop offset="0" stop-color="#2d1f12" stop-opacity="0"/><stop offset="1" stop-color="#2d1f12"/></linearGradient><linearGradient x1="240.00002" y1="180.00001" x2="240.00002" y2="180.00001" gradientUnits="userSpaceOnUse" id="color-14"><stop offset="0" stop-color="#654a37"/><stop offset="1" stop-color="#654a37" stop-opacity="0"/></linearGradient><linearGradient x1="240.00002" y1="180.00001" x2="240.00002" y2="180.00001" gradientUnits="userSpaceOnUse" id="color-15"><stop offset="0" stop-color="#614832" stop-opacity="0"/><stop offset="1" stop-color="#614832"/></linearGradient><linearGradient x1="240.00002" y1="180.00001" x2="240.00002" y2="180.00001" gradientUnits="userSpaceOnUse" id="color-16"><stop offset="0" stop-color="#4a3516" stop-opacity="0"/><stop offset="1" stop-color="#4a3516"/></linearGradient><linearGradient x1="240.00002" y1="180.00001" x2="240.00002" y2="180.00001" gradientUnits="userSpaceOnUse" id="color-17"><stop offset="0" stop-color="#4a3516" stop-opacity="0"/><stop offset="1" stop-color="#4a3516"/></linearGradient><linearGradient x1="240.00002" y1="180.00001" x2="240.00002" y2="180.00001" gradientUnits="userSpaceOnUse" id="color-18"><stop offset="0" stop-color="#8e6c51" stop-opacity="0"/><stop offset="1" stop-color="#8e6c51"/></linearGradient><linearGradient x1="238.34053" y1="168.49668" x2="238.34053" y2="176.13688" gradientUnits="userSpaceOnUse" id="color-19"><stop offset="0" stop-color="#89bbbd"/><stop offset="1" stop-color="#637d7e"/></linearGradient></defs><g transform="translate(-227.92308,-165.77528)"><g data-paper-data="{&quot;isPaintingLayer&quot;:true}" fill-rule="nonzero" stroke-linecap="butt" stroke-linejoin="miter" stroke-miterlimit="10" stroke-dasharray="" stroke-dashoffset="0" style="mix-blend-mode: normal"><path d="M235.78389,191.0268c-0.69053,-0.74249 -2.82614,-1.09773 -3.24601,-2.77619c-0.48878,-1.95394 0.74701,-5.33711 -0.02289,-7.56503c-1.51091,-4.37223 -4.06431,-8.29473 -3.82639,-9.73179c0.30908,-1.86688 4.21374,-4.35294 4.21374,-4.35294c0,0 3.24035,1.09663 4.37208,2.08883c1.3298,1.16585 3.10877,4.46972 3.10877,4.46972c0,0 3.34708,7.47589 3.91994,10.52795c0.42258,2.25144 0.84526,4.68995 0.84526,4.68995c0,0 -8.00967,4.10628 -9.3645,2.6495z" fill="url(#color-1)" stroke="#516a91" stroke-width="1.5"/><path d="M235.80157,183.89814c0,0 -2.86179,2.44002 -1.88324,-2.54843c0.26222,-1.33672 0.7111,-2.2468 1.36776,-2.84049c0.35435,-0.32037 1.09607,-0.1491 1.16124,-0.80791c0.10534,-1.06497 -1.50324,-0.8234 -1.89619,-1.6802c-0.42171,-0.91952 0.37009,-2.91746 0.49706,-3.46689c0.42055,-1.81981 3.8277,-3.56655 3.8277,-3.56655c0,0 2.54404,-0.03814 3.48062,0.17c0.6186,0.13746 1.59202,0.95726 1.59202,0.95726c0,0 3.72904,3.41773 5.56563,5.75398c0.26536,0.33756 0.76677,3.33888 1.0866,6.24249c0.47001,4.26698 0.72615,8.85769 0.72615,8.85769c0,0 -0.83605,1.7823 -2.45776,2.30606c-1.26584,0.40883 -3.19054,-0.24946 -4.38921,-1.15281c-0.399,-0.30069 -0.30749,-1.11375 -0.63073,-1.52541c-0.66562,-0.84769 0.74075,-2.69672 1.00477,-4.51288c0.18991,-1.30643 -0.65634,-2.69476 -1.20399,-3.21755c-1.40649,-1.34265 -5.21233,-2.81986 -5.7549,-3.14158c-0.60944,-0.36137 -2.0935,4.17321 -2.0935,4.17321z" fill-opacity="0.5" fill="#000000" stroke="none" stroke-width="0"/><path d="" fill="#000000" stroke="none" stroke-width="0"/><path d="" fill-opacity="0.5" fill="#000000" stroke="none" stroke-width="0"/><path d="" fill-opacity="0.5" fill="#000000" stroke="none" stroke-width="0"/><path d="" fill-opacity="0.5" fill="#000000" stroke="none" stroke-width="0"/><path d="" fill-opacity="0.5" fill="#000000" stroke="none" stroke-width="0"/><path d="" fill="#5e6669" stroke="#ffffff" stroke-width="0.5"/><path d="" fill="#464d55" stroke="none" stroke-width="0"/><path d="" fill="#464d55" stroke="none" stroke-width="0"/><path d="" fill="#464d55" stroke="none" stroke-width="0"/><path d="" fill="#464d55" stroke="none" stroke-width="0"/><path d="" fill="url(#color-2)" stroke="none" stroke-width="0"/><path d="" fill="url(#color-3)" stroke="none" stroke-width="0"/><path d="" fill="#464d55" stroke="none" stroke-width="0"/><path d="" fill="url(#color-4)" stroke="none" stroke-width="0"/><path d="" fill="url(#color-5)" stroke="none" stroke-width="0"/><path d="" fill="#ffffff" stroke="none" stroke-width="0"/><path d="" fill="#373c42" stroke="none" stroke-width="0"/><path d="" fill="#464e39" stroke="#ffffff" stroke-width="0.5"/><path d="" fill="#343321" stroke="none" stroke-width="0"/><path d="" fill="url(#color-6)" stroke="none" stroke-width="0"/><path d="" fill="url(#color-7)" stroke="none" stroke-width="0"/><path d="" fill="url(#color-8)" stroke="none" stroke-width="0"/><path d="" fill="#30351d" stroke="none" stroke-width="0"/><path d="" fill="#30351d" stroke="none" stroke-width="0"/><path d="" fill="#968780" stroke="#ffffff" stroke-width="0.5"/><path d="" fill="#695b5a" stroke="none" stroke-width="0"/><path d="" fill="url(#color-9)" stroke="none" stroke-width="0"/><path d="" fill="url(#color-10)" stroke="none" stroke-width="0"/><path d="" fill="url(#color-11)" stroke="none" stroke-width="0"/><path d="" fill="#5f5353" stroke="none" stroke-width="0"/><path d="" fill="#443a38" stroke="none" stroke-width="0"/><path d="" fill="#725f59" stroke="none" stroke-width="0"/><path d="" data-paper-data="{&quot;index&quot;:null}" fill="#725f59" stroke="none" stroke-width="0"/><path d="" fill="#725f59" stroke="none" stroke-width="0"/><path d="" fill="#7c6a66" stroke="none" stroke-width="0"/><path d="" fill="#61493b" stroke="#ffffff" stroke-width="0.5"/><path d="" fill="#4d322b" stroke="none" stroke-width="0"/><path d="" fill="url(#color-12)" stroke="none" stroke-width="0"/><path d="" fill="url(#color-13)" stroke="none" stroke-width="0"/><path d="" fill="#32251d" stroke="none" stroke-width="0"/><path d="" fill="#b7956f" stroke="#ffffff" stroke-width="0.5"/><path d="" fill="url(#color-14)" stroke="none" stroke-width="0"/><path d="" fill="#614832" stroke="none" stroke-width="0"/><path d="" fill="#765834" stroke="none" stroke-width="0"/><path d="" fill="url(#color-15)" stroke="none" stroke-width="0"/><path d="" fill="url(#color-16)" stroke="none" stroke-width="0"/><path d="" fill="url(#color-17)" stroke="none" stroke-width="0"/><path d="" fill="url(#color-18)" stroke="none" stroke-width="0"/><path d="M235.2081,183.20218c0,0 -2.86179,2.44001 -1.88324,-2.54843c0.26222,-1.33672 0.71111,-2.2468 1.36776,-2.84049c0.35435,-0.32037 1.09607,-0.1491 1.16123,-0.80791c0.10534,-1.06496 -1.50325,-0.8234 -1.89619,-1.6802c-0.42171,-0.91952 0.37009,-2.91746 0.49706,-3.4669c0.42054,-1.81981 3.82769,-3.56654 3.82769,-3.56654c0,0 2.54404,-0.03814 3.48062,0.16999c0.6186,0.13747 1.59202,0.95726 1.59202,0.95726c0,0 3.72904,3.41774 5.56562,5.75398c0.26536,0.33755 0.76677,3.33887 1.0866,6.24249c0.47001,4.26698 0.72615,8.85768 0.72615,8.85768c0,0 -0.83605,1.78231 -2.45776,2.30607c-1.26584,0.40882 -3.19054,-0.24946 -4.38921,-1.15281c-0.39899,-0.30069 -0.30749,-1.11375 -0.63073,-1.52541c-0.66561,-0.8477 0.74075,-2.69672 1.00477,-4.51288c0.18991,-1.30643 -0.65633,-2.69476 -1.20399,-3.21755c-1.40649,-1.34265 -5.21233,-2.81986 -5.7549,-3.14158c-0.60945,-0.36137 -2.0935,4.17322 -2.0935,4.17322z" fill="#5a6f72" stroke="#ffffff" stroke-width="0.5"/><path d="M246.01945,189.45331c0,0 -0.05024,-5.42442 -1.28858,-7.70051c-0.78937,-1.4509 -3.65193,-3.11145 -5.40574,-4.2631c-0.87806,-0.57658 -1.4014,-1.25597 -1.4014,-1.25597c0,0 0.3454,-1.54241 0.94207,-1.8923c0.45342,-0.26588 2.06083,-0.01127 2.34656,-0.09509c0.61596,-0.18068 1.68153,-0.01092 1.68153,-0.01092c0,0 1.97594,2.13266 3.5283,4.03486c0.94253,1.15494 1.25973,2.68347 1.65647,3.62529c0.88589,2.10303 0.40026,7.04535 0.40026,7.04535c0,0 -0.92956,1.16719 -1.35863,1.25658c-0.38623,0.08046 -1.10082,-0.7442 -1.10082,-0.7442z" fill="#304a4b" stroke="none" stroke-width="0"/><path d="M244.73849,180.12786c0,0 -0.56593,-0.21302 -0.88392,-0.81585c-0.17447,-0.33075 -0.09523,-0.9221 -0.22487,-1.32564c-0.66142,-2.05878 -2.27296,-9.38722 -2.27296,-9.38722c0,0 0.25439,-0.13677 0.50843,-0.04078c0.31507,0.11906 0.65718,0.48586 0.83833,0.6135c0.40682,0.28662 1.21517,1.01568 1.21517,1.01568c0,0 1.54917,1.45618 2.88654,2.85292c0.76196,0.79578 1.57428,1.58756 1.92528,2.27331c0.86644,1.69277 -3.27466,-0.25856 -3.27466,-0.25856c0,0 -0.11324,3.5384 -0.24351,4.45956c-0.07159,0.50625 -0.47383,0.61307 -0.47383,0.61307z" fill="#a8cac9" stroke="none" stroke-width="0"/><path d="M237.92374,176.08001c0,0 -3.80952,0.37894 -3.73663,-0.81959c0.01425,-0.23429 -0.24082,-0.57633 -0.18768,-1.17227c0.07818,-0.87675 0.52512,-2.12406 1.03585,-2.92089c1.09485,-1.70818 3.34961,-2.67057 3.34961,-2.67057l2.97185,0.05124l1.33221,5.6875c0,0 -2.10374,0.11277 -3.17191,0.00344c-0.50513,-0.0517 -0.30736,-0.01016 -0.59115,0.07342c-0.00847,0.0025 -0.20805,0.75236 -0.45661,1.19393c-0.24827,0.44106 -0.54553,0.57381 -0.54553,0.57381z" fill="url(#color-19)" stroke="none" stroke-width="0"/><path d="M235.15685,173.05693v-1.02477h1.02477v1.02477z" fill="#4a5863" stroke="none" stroke-width="0"/><path d="M237.97498,172.74949v-0.87106h1.17849v0.87106z" fill="#4a5863" stroke="none" stroke-width="0"/><path d="M235.77171,174.49161v-0.40991h0.35867v0.40991z" fill="#4a5863" stroke="none" stroke-width="0"/><path d="M236.64277,174.54285v-0.30743h0.56363v0.30743z" fill="#4a5863" stroke="none" stroke-width="0"/><path d="M236.07914,175.82382v-0.46115h1.63964v0.46115z" fill="#4a5863" stroke="none" stroke-width="0"/></g></g></svg>