<svg version="1.1" xmlns="http://www.w3.org/2000/svg" xmlns:xlink="http://www.w3.org/1999/xlink" width="11.80556" height="26.32846" viewBox="0,0,11.80556,26.32846"><defs><linearGradient x1="238.99615" y1="177.12387" x2="244.90694" y2="177.12387" gradientUnits="userSpaceOnUse" id="color-1"><stop offset="0" stop-color="#d6b49e"/><stop offset="1" stop-color="#fbf0d2"/></linearGradient><linearGradient x1="239.19579" y1="167.28312" x2="239.19579" y2="174.17619" gradientUnits="userSpaceOnUse" id="color-2"><stop offset="0" stop-color="#8b6e4c"/><stop offset="1" stop-color="#8b6e4c" stop-opacity="0"/></linearGradient><linearGradient x1="241.61887" y1="187.35172" x2="241.61887" y2="191.12095" gradientUnits="userSpaceOnUse" id="color-3"><stop offset="0" stop-color="#614737"/><stop offset="1" stop-color="#3a2a20"/></linearGradient></defs><g transform="translate(-233.97222,-166.71077)"><g data-paper-data="{&quot;isPaintingLayer&quot;:true}" fill-rule="nonzero" stroke-linecap="butt" stroke-linejoin="miter" stroke-miterlimit="10" stroke-dasharray="" stroke-dashoffset="0" style="mix-blend-mode: normal"><path d="M239.56758,188.24659c0,0 -1.66428,2.21895 -2.97308,2.67097c-1.21753,0.4205 -1.90051,0.18116 -1.54494,-0.76539c0.26743,-0.71188 0.91498,-1.24508 1.68363,-1.75719c0.84503,-0.56299 1.6086,-2.16716 1.72558,-2.88855c0.33905,-2.09085 -0.02454,-9.12651 -0.02454,-9.12651c0,0 -0.28118,-4.90027 0.75495,-7.62365c0.49127,-1.29127 2.05389,-1.04301 2.64505,-1.04301c1.44372,0 1.46667,0.2 1.46667,0.2c0,0 3.04721,2.08357 2.38187,3.45789c-0.33537,0.69273 -2.13104,-0.18822 -2.16151,1.0093c-0.05656,2.22284 2.03445,6.67204 1.82963,8.55278c-0.2285,2.09823 -1.17532,1.77463 -1.31916,2.85524c-0.31929,2.39875 -0.86417,3.45812 -0.86417,3.45812c0,0 0.71969,1.93983 0.40276,3.4006c-0.079,0.36408 -0.97269,0.4483 -1.0835,0.7568c-0.50317,1.40081 -1.43102,1.76032 -1.61531,1.59981c-0.83455,-0.72687 -1.30394,-4.7572 -1.30394,-4.7572z" fill-opacity="0.5" fill="#000000" stroke="none" stroke-width="0"/><path d="" fill="#bf9f7f" stroke="none" stroke-width="0"/><path d="" fill="#bf9f7f" stroke="#ffffff" stroke-width="0.5"/><path d="" fill="#bf9f7f" stroke="none" stroke-width="0"/><path d="" fill="#bf9f7f" stroke="none" stroke-width="0"/><path d="" fill="#bf9f7f" stroke="none" stroke-width="0"/><path d="" fill="#bf9f7f" stroke="none" stroke-width="0"/><path d="" fill="#bf9f7f" stroke="none" stroke-width="0"/><path d="" fill="#bf9f7f" stroke="none" stroke-width="0"/><path d="" fill="#bf9f7f" stroke="none" stroke-width="0"/><path d="" fill="#bf9f7f" stroke="none" stroke-width="0"/><path d="" fill="#bf9f7f" stroke="none" stroke-width="0"/><path d="" fill="#bf9f7f" stroke="none" stroke-width="0"/><path d="" fill="#bf9f7f" stroke="none" stroke-width="0"/><path d="M238.83425,187.51326c0,0 -1.66428,2.21895 -2.97308,2.67097c-1.21754,0.4205 -1.90052,0.18116 -1.54494,-0.76539c0.26742,-0.71188 0.91498,-1.24508 1.68363,-1.75719c0.84503,-0.56299 1.6086,-2.16716 1.72558,-2.88856c0.33906,-2.09085 -0.02453,-9.1265 -0.02453,-9.1265c0,0 -0.28118,-4.90027 0.75496,-7.62365c0.49128,-1.29126 2.05389,-1.04302 2.64504,-1.04302c1.44372,0 1.46667,0.2 1.46667,0.2c0,0 3.04721,2.08357 2.38186,3.45789c-0.33537,0.69273 -2.13104,-0.18822 -2.16151,1.0093c-0.05656,2.22284 2.03444,6.67204 1.82963,8.55278c-0.22849,2.09823 -1.17532,1.77463 -1.31916,2.85524c-0.31929,2.39875 -0.86416,3.45813 -0.86416,3.45813c0,0 0.71969,1.93983 0.40276,3.4006c-0.07899,0.36408 -0.97268,0.4483 -1.0835,0.7568c-0.50317,1.40082 -1.43102,1.76031 -1.61532,1.5998c-0.83455,-0.72687 -1.30394,-4.7572 -1.30394,-4.7572z" fill="#bf9f7f" stroke="#ffffff" stroke-width="0.5"/><path d="M238.99615,187.36088c0,0 2.61905,-3.45128 2.61905,-6.66667c0,-3.71281 -2.19048,-9.19048 -2.19048,-9.19048c0,0 -0.18253,-3.18146 0.11575,-3.43118c0.19551,-0.16368 1.08965,-0.36949 1.52018,-0.37743c0.67308,-0.01241 1.72143,0.06137 2.43445,0.48733c0.95803,0.57233 1.07247,1.08318 1.07247,1.08318c0,0 0.30741,0.53543 0.33337,1.00526c0.00837,0.1515 0.04621,0.24412 -0.25844,0.32987c-0.92372,0.26001 -2.09288,0.314 -2.03044,1.89745c0.02423,0.61457 0.4064,1.27185 0.60929,1.96168c0.44797,1.52313 0.94457,3.20498 1.30913,4.93635c0.32553,1.54605 -0.60915,1.99838 -1.06366,3.14311c-0.3578,0.90114 -0.45645,1.27566 -0.70719,2.2505c-0.26205,1.01882 -0.57301,1.71388 -0.57301,1.71388z" fill="url(#color-1)" stroke="none" stroke-width="0"/><path d="M241.3703,169.63639c0,0 -0.18367,-0.18367 -0.18367,-0.27551c0,-0.09184 0.18367,-0.27551 0.18367,-0.27551c0,0 0.297,-0.15306 0.39796,-0.15306c0.16357,0 0.4898,0.15306 0.4898,0.15306c0,0 0.21429,0.18367 0.21429,0.27551c0,0.09184 -0.21429,0.27551 -0.21429,0.27551c0,0 -0.28904,0.15306 -0.42857,0.15306c-0.1548,0 -0.45918,-0.15306 -0.45918,-0.15306z" fill="#433326" stroke="none" stroke-width="0"/><path d="M238.1381,183.44146v-1.88462v-0.11538l2.69231,1.38462z" fill="#7c5c40" stroke="none" stroke-width="0"/><path d="M238.06117,180.28762v-1.88461v-0.11539l2.69231,1.38461z" fill="#7c5c40" stroke="none" stroke-width="0"/><path d="M237.90732,176.67224v-1.88461v-0.11539l2.69231,1.38461z" fill="#7c5c40" stroke="none" stroke-width="0"/><path d="M237.98425,173.53121c0,0 0.05071,-2.64133 0.21381,-3.83268c0.11279,-0.82386 0.55542,-1.85963 0.55542,-1.85963c0,0 0.36124,-0.37187 0.56786,-0.48457c0.14196,-0.07743 1.94456,-0.35353 3.16414,-0.05898c0.63647,0.15372 1.11416,0.96661 1.11416,0.96661c0,0 -2.45846,-0.78993 -3.4801,-0.24241c-0.45453,0.2436 -0.50567,0.76196 -0.58781,1.2823c-0.11472,0.72673 -0.14367,1.49387 -0.1244,1.84471c0.0641,1.16667 1,3 1,3c0,0 -1.12618,0.09027 -1.48322,-0.04447c-0.31789,-0.11996 -0.93986,-0.57092 -0.93986,-0.57092z" fill="url(#color-2)" stroke="none" stroke-width="0"/><path d="M238.80568,169.59897v-0.7619h0.61905v0.7619z" fill="#433326" stroke="none" stroke-width="0"/><path d="M239.94579,191.85172c0,0 -0.37995,-1.22705 -0.51315,-1.88194c-0.16685,-0.82034 -0.40993,-2.65652 -0.40993,-2.65652l3.15385,-0.80769c0,0 0.40266,0.68554 0.50686,1.22092c0.1661,0.8534 0.01373,1.35495 0.11439,2.19686c0.02071,0.1732 -1.04433,0.35145 -1.04433,0.35145c0,0 -0.54935,1.38377 -0.9167,1.64764c-0.50085,0.35977 -0.89099,-0.07072 -0.89099,-0.07072z" fill="#9b735c" stroke="none" stroke-width="0"/><path d="M241.36887,191.12095c0,0 0.01521,-1.05905 -0.05837,-1.64161c-0.07976,-0.63144 -0.40316,-2.01223 -0.40316,-2.01223c0,0 0.24801,-0.11538 0.38462,-0.11538c0.15575,0 0.5,0.11538 0.5,0.11538c0,0 -0.25933,1.04615 -0.173,1.4963c0.0927,0.48339 0.71146,1.3114 0.71146,1.3114c0,0 -0.35951,-0.02055 -0.51131,0.11303c-0.16722,0.14716 -0.45023,0.73313 -0.45023,0.73313z" fill="url(#color-3)" stroke="none" stroke-width="0"/><path d="M244.09964,170.32608v-0.23077h0.76923v0.23077z" fill="#433326" stroke="none" stroke-width="0"/><path d="M242.75348,171.03762v-0.23076h0.69231v0.23076z" fill="#433326" stroke="none" stroke-width="0"/><path d="M241.67656,181.74916l-0.76923,-3.53846l0.11538,-0.57692c0,0 1.24094,1.36366 1.57849,2.07252c0.29871,0.6273 0.34459,1.96595 0.34459,1.96595c0,0 -0.4859,0.71289 -0.76265,0.59935c-0.17534,-0.07194 -0.50658,-0.52242 -0.50658,-0.52242z" fill="#bf9f7f" stroke="none" stroke-width="0"/><path d="M243.1381,181.32608c0,0 0.09176,-1.1249 0.24392,-1.72745c0.16698,-0.66122 0.71762,-2.08024 0.71762,-2.08024l0.23077,0.80769c0,0 0.34615,0.74424 0.34615,1.23077c0,0.51215 -0.34615,1.76923 -0.34615,1.76923c0,0 -0.41241,0.56171 -0.88435,0.53395c-0.25114,-0.01477 -0.30796,-0.53395 -0.30796,-0.53395z" fill="#bf9f7f" stroke="none" stroke-width="0"/></g></g></svg>