<svg version="1.1" xmlns="http://www.w3.org/2000/svg" xmlns:xlink="http://www.w3.org/1999/xlink" width="26.62118" height="28.23512" viewBox="0,0,26.62118,28.23512"><defs><linearGradient x1="248.37869" y1="176.3469" x2="248.37869" y2="182.9395" gradientUnits="userSpaceOnUse" id="color-1"><stop offset="0" stop-color="#2b1d14" stop-opacity="0"/><stop offset="1" stop-color="#2b1d14"/></linearGradient><linearGradient x1="248.00203" y1="166.22482" x2="248.00203" y2="178.09972" gradientUnits="userSpaceOnUse" id="color-2"><stop offset="0" stop-color="#8f6d48"/><stop offset="1" stop-color="#664f36"/></linearGradient><linearGradient x1="229.38897" y1="185.34109" x2="229.38897" y2="192.54698" gradientUnits="userSpaceOnUse" id="color-3"><stop offset="0" stop-color="#2b1d14" stop-opacity="0"/><stop offset="1" stop-color="#2b1d14"/></linearGradient><linearGradient x1="234.9478" y1="185.63521" x2="234.9478" y2="193.37051" gradientUnits="userSpaceOnUse" id="color-4"><stop offset="0" stop-color="#2b1d14" stop-opacity="0"/><stop offset="1" stop-color="#2b1d14"/></linearGradient><linearGradient x1="240.35956" y1="185.19403" x2="240.35956" y2="192.22345" gradientUnits="userSpaceOnUse" id="color-5"><stop offset="0" stop-color="#2b1d14" stop-opacity="0"/><stop offset="1" stop-color="#2b1d14"/></linearGradient><linearGradient x1="243.65368" y1="185.39992" x2="243.65368" y2="192.01756" gradientUnits="userSpaceOnUse" id="color-6"><stop offset="0" stop-color="#2b1d14" stop-opacity="0"/><stop offset="1" stop-color="#2b1d14"/></linearGradient></defs><g transform="translate(-226.56441,-165.75744)"><g data-paper-data="{&quot;isPaintingLayer&quot;:true}" fill-rule="nonzero" stroke-linecap="butt" stroke-linejoin="miter" stroke-miterlimit="10" stroke-dasharray="" stroke-dashoffset="0" style="mix-blend-mode: normal"><path d="M227.5869,193.22942c0,0 -0.60783,-0.45729 -0.39329,-1.69234c0.30166,-1.73652 1.67415,-4.11354 2.40774,-6.64492c0.16491,-0.56907 0.66019,-0.91082 1.13356,-1.62084c0.35635,-0.5345 0.72093,-1.46339 0.8076,-1.81797c0.14222,-0.58182 -0.04,-1.48874 0.11559,-2.2138c0.4289,-1.99863 6.02403,-1.42772 6.02403,-1.42772c0,0 1.60394,-1.03558 3.47585,-2.38124c0.95339,-0.68536 4.92804,2.69417 6.71972,1.38984c1.80188,-1.31175 -4.92307,-4.35101 -4.53134,-6.38738c0.14213,-0.73882 0.44282,-3.3775 1.6189,-3.83872c2.43715,-0.95576 6.11796,9.26512 6.11796,9.26512c0,0 1.97482,0.76448 2.09707,1.55862c0.04557,0.29601 -0.19973,1.26129 -0.84346,1.3746c-0.67433,0.1187 -1.74879,-0.6048 -1.70924,0.17516c0.0526,1.03742 1.36726,1.29127 1.60601,2.62533c0.0564,0.31513 0.35592,0.66628 0.35809,0.93525c0.00272,0.33574 -0.2984,0.56999 -0.2717,0.75331c0.01512,0.10376 -0.50771,0.07798 -0.86243,-0.20653c-0.14431,-0.11574 -0.59987,0.28914 -0.75368,0.1879c-0.45194,-0.29748 -0.50793,-1.38397 -0.65472,-0.89758c-0.4121,1.36547 -2.17841,1.08309 -2.14653,1.30241c0.0114,0.07844 -0.31017,-0.42681 -0.28885,-0.92715c0.01924,-0.4514 0.38846,-0.89879 0.28257,-0.90997c-0.41659,-0.04399 -2.26419,0.61125 -2.98668,1.82329c-0.62251,1.04429 -0.16442,2.62461 -0.11388,3.08831c0.33489,3.0731 0.62076,5.62988 0.62076,5.62988c0,0 -0.75431,0.99039 -1.25389,-0.22082c-0.85331,-2.06882 -1.6939,-6.81709 -2.05213,-6.78816c-0.42982,0.03472 -0.46206,6.89044 -1.46492,7.40423c-0.06845,0.03507 -1.17824,0.64181 -1.17832,-0.66751c-0.00014,-2.34295 1.1413,-7.25603 1.00788,-7.20164c-0.33463,0.13639 -3.59698,0.01794 -3.97208,0.21057c-0.40656,0.20878 0.76091,1.8306 0.36234,2.09616c-0.10676,0.07113 0.25825,0.65385 -0.17639,1.41032c-0.2732,0.4755 -1.26477,0.67114 -1.68994,1.10057c-0.19868,0.20067 0.15966,0.9911 0.1902,1.81622c0.0387,1.04548 -0.21824,2.14665 -0.25895,2.17433c-0.14194,0.09653 -0.62626,0.30605 -1.02825,0.28446c-0.31959,-0.01716 -0.56963,-0.268 -0.6798,-0.20995c-0.06387,0.03365 -0.42909,-0.9204 -0.35315,-2.07387c0.09193,-1.39626 0.63088,-3.0404 0.5564,-3.00588c-0.11743,0.05442 0.61827,-0.71471 0.63741,-1.46054c0.01819,-0.70889 -0.67997,-1.39673 -0.78708,-1.33636c-0.44434,0.25043 -1.78542,0.69981 -2.20604,1.12074c-0.80142,0.802 -0.9664,2.78797 -1.46412,3.80508c-0.54808,1.12004 -0.32572,1.68126 -0.94355,2.16662c-0.48161,0.37835 -1.07528,0.23258 -1.07528,0.23258z" fill-opacity="0.5" fill="#000000" stroke="none" stroke-width="0"/><path d="M227.25356,192.70561c0,0 -0.60783,-0.45729 -0.39329,-1.69234c0.30166,-1.73652 1.67415,-4.11354 2.40774,-6.64492c0.16491,-0.56907 0.66019,-0.91082 1.13356,-1.62084c0.35635,-0.5345 0.72093,-1.46339 0.8076,-1.81797c0.14222,-0.58182 -0.04,-1.48874 0.11559,-2.2138c0.4289,-1.99863 6.02403,-1.42772 6.02403,-1.42772c0,0 1.60394,-1.03558 3.47585,-2.38124c0.95339,-0.68536 4.92804,2.69417 6.71972,1.38984c1.80188,-1.31175 -4.92307,-4.35101 -4.53134,-6.38738c0.14213,-0.73882 0.44282,-3.3775 1.6189,-3.83872c2.43715,-0.95576 6.11796,9.26512 6.11796,9.26512c0,0 1.97482,0.76448 2.09707,1.55862c0.04557,0.29601 -0.19973,1.26129 -0.84346,1.3746c-0.67433,0.1187 -1.74879,-0.6048 -1.70924,0.17516c0.0526,1.03742 1.36726,1.29127 1.60601,2.62533c0.0564,0.31513 0.35592,0.66628 0.35809,0.93525c0.00272,0.33574 -0.2984,0.56999 -0.2717,0.75331c0.01512,0.10376 -0.50771,0.07798 -0.86243,-0.20653c-0.14431,-0.11574 -0.59987,0.28914 -0.75368,0.1879c-0.45194,-0.29748 -0.50793,-1.38397 -0.65472,-0.89758c-0.4121,1.36547 -2.17841,1.08309 -2.14653,1.30241c0.0114,0.07844 -0.31017,-0.42681 -0.28885,-0.92715c0.01924,-0.4514 0.38846,-0.89879 0.28257,-0.90997c-0.41659,-0.04399 -2.26419,0.61125 -2.98668,1.82329c-0.62251,1.04429 -0.16442,2.62461 -0.11388,3.08831c0.33489,3.0731 0.62076,5.62988 0.62076,5.62988c0,0 -0.75431,0.99039 -1.25389,-0.22082c-0.85331,-2.06882 -1.6939,-6.81709 -2.05213,-6.78816c-0.42982,0.03472 -0.46206,6.89044 -1.46492,7.40423c-0.06845,0.03507 -1.17824,0.64181 -1.17832,-0.66751c-0.00014,-2.34295 1.1413,-7.25603 1.00788,-7.20164c-0.33463,0.13639 -3.59698,0.01794 -3.97208,0.21057c-0.40656,0.20878 0.76091,1.8306 0.36234,2.09616c-0.10676,0.07113 0.25825,0.65385 -0.17639,1.41032c-0.2732,0.4755 -1.26477,0.67114 -1.68994,1.10057c-0.19868,0.20067 0.15966,0.9911 0.1902,1.81622c0.0387,1.04548 -0.21824,2.14665 -0.25895,2.17433c-0.14194,0.09653 -0.62626,0.30605 -1.02825,0.28446c-0.31959,-0.01716 -0.56963,-0.268 -0.6798,-0.20995c-0.06387,0.03365 -0.42909,-0.9204 -0.35315,-2.07387c0.09193,-1.39626 0.63088,-3.0404 0.5564,-3.00588c-0.11743,0.05442 0.61827,-0.71471 0.63741,-1.46054c0.01819,-0.70889 -0.67997,-1.39673 -0.78708,-1.33636c-0.44434,0.25043 -1.78542,0.69981 -2.20604,1.12074c-0.80142,0.802 -0.9664,2.78797 -1.46412,3.80508c-0.54808,1.12004 -0.32572,1.68126 -0.94355,2.16662c-0.48161,0.37835 -1.07528,0.23258 -1.07528,0.23258z" fill="#5e4d37" stroke="#ffffff" stroke-width="0.5"/><path d="M249.81125,179.54444c0,0.18409 -0.17056,0.33333 -0.38096,0.33333c-0.2104,0 -0.38095,-0.14924 -0.38095,-0.33333c0,-0.18409 0.17055,-0.33334 0.38095,-0.33334c0.2104,0 0.38096,0.14924 0.38096,0.33334z" fill="#2b1d14" stroke="none" stroke-width="0"/><path d="M244.45935,182.9395c0,0 -1.57247,-2.41942 -1.63295,-3.11198c-0.12723,-1.45706 1.41073,-3.48061 1.41073,-3.48061c0,0 0.73515,0.25751 1.43669,0.40649c0.45002,0.09556 0.88622,0.10287 1.10565,0.11256c0.55753,0.0246 0.96299,-0.44497 0.96299,-0.44497c0,0 -0.25973,0.70113 0.16758,1.12866c0.22516,0.22528 0.4253,0.41108 0.86885,0.41996c0.43245,0.00866 0.9591,-0.19702 1.26869,0.04327c0.17577,0.13643 -0.00957,0.29658 -0.07566,0.47523c-0.05079,0.13729 0.16248,0.28551 0.23847,0.44224c0.31584,0.6514 1.147,1.40335 1.20663,1.4999c0.1085,0.17566 0.19415,0.49356 0.30399,0.77247c0.17523,0.44495 0.35477,0.84789 0.35477,0.84789c0,0 -0.0834,0.38091 -0.2981,0.48213c-0.12786,0.06028 -0.30229,-0.09813 -0.53341,-0.16617c-0.23215,-0.06834 -0.49026,0.17907 -0.76117,0.07202c-0.21778,-0.08606 -0.40858,-0.92618 -0.64039,-0.95028c-0.07481,-0.00777 -0.23116,0.1275 -0.31435,0.32233c-0.10591,0.24801 -0.13926,0.56954 -0.23474,0.56549c-0.60642,-0.02574 -1.23006,0.60678 -1.67628,0.4569c-0.47451,-0.15938 0.34672,-1.74538 0.014,-1.74538c-0.27089,0 -1.31153,0.19263 -1.85518,0.52361c-0.88889,0.54117 -1.31682,1.32824 -1.31682,1.32824z" fill="url(#color-1)" stroke="none" stroke-width="0"/><path d="M248.1922,175.59205c0,0 -3.5082,-3.39607 -4.38925,-4.33423c-0.39173,-0.41712 -0.51551,-1.14196 -0.51551,-1.14196c0,0 0.40797,-3.40921 1.15245,-3.79083c0.34848,-0.17863 1.16462,-0.20425 1.90657,0.66496c1.47724,1.73061 3.08385,5.17349 3.08385,5.17349c0,0 0.28172,1.99967 1.14401,3.19727c0.35647,0.49509 1.01175,0.53211 1.4472,0.76055c0.41442,0.2174 0.61627,0.63064 0.69055,0.9129c0.05059,0.19226 -0.32911,0.74988 -0.61124,0.99094c-0.1606,0.13722 -0.28957,0.0431 -0.28957,0.0431c0,0 -0.55128,-0.18555 -1.33352,-0.14652c-0.73057,0.03646 -1.68085,0.30532 -2.07148,0.10378c-1.37181,-0.70775 -0.21404,-2.43345 -0.21404,-2.43345z" fill="url(#color-2)" stroke="none" stroke-width="0"/><path d="M227.03876,191.779c0,0 -0.11359,-1.17455 0.14402,-1.91605c0.49266,-1.41807 2.59672,-5.97284 2.59672,-5.97284c0,0 0.81615,-0.96322 1.15673,-1.73269c0.32538,-0.73513 0.62105,-3.41545 0.62105,-3.41545c0,0 1.09385,1.35993 1.17208,2.52437c0.01681,0.2502 0.47827,3.25309 0.28163,3.70191c-0.3279,0.74846 -1.25072,0.71795 -1.73613,0.88752c-0.24097,0.08418 -1.01275,1.11566 -1.2083,1.46219c-0.32637,0.57836 -0.21248,1.29321 -0.48219,1.86374c-0.3558,0.75266 -0.51028,1.68043 -0.73913,2.23869c-0.29996,0.73176 -0.6213,0.98823 -0.6213,0.98823c0,0 -0.77439,0.23065 -0.94395,0.13981c-0.17589,-0.09422 -0.24124,-0.76944 -0.24124,-0.76944z" fill="#3a291d" stroke="none" stroke-width="0"/><path d="M233.00172,193.03826c0,0 -0.25382,-1.08668 -0.18506,-2.1898c0.0396,-0.63541 0.10825,-1.13597 0.29587,-1.93014c0.04554,-0.19277 0.23751,-0.40284 0.27666,-0.63635c0.04737,-0.28247 0.45384,-0.841 0.5663,-1.36187c0.09528,-0.44133 -0.08319,-0.85563 -0.21792,-1.05205c-0.25561,-0.37269 -0.76783,-0.49617 -0.76224,-0.82962c0.02695,-1.60519 -1.45509,-6.44463 -1.45509,-6.44463c0,0 0.18366,-0.3539 0.40274,-0.5326c0.19751,-0.1611 0.42381,-0.14513 0.57029,-0.20617c0.28097,-0.11707 0.84177,-0.18716 0.84177,-0.18716c0,0 0.9172,6.11195 1.18796,8.92922c0.08978,0.93416 -0.61468,2.15695 -0.55781,3.33181c0.09846,2.03393 -0.07459,3.22046 -0.07459,3.22046c0,0 -0.20157,0.11369 -0.3453,0.09573c-0.15208,-0.01901 -0.54359,-0.20683 -0.54359,-0.20683z" fill="#412e20" stroke="none" stroke-width="0"/><path d="M242.52024,176.48271c0,0 0.72178,1.46863 0.92079,2.15552c0.18223,0.62899 0.22736,1.80745 0.22736,1.80745c0,0 1.95829,-0.65279 2.60922,-0.54323c0.58998,0.09931 1.13152,1.17285 1.13152,1.17285c0,0 -0.54314,0.15466 -0.9572,0.31151c-0.41406,0.15684 -1.30391,0.63088 -1.89449,1.52063c-0.25617,0.10074 -0.54237,1.58276 -0.76839,0.94457c-0.32068,-0.9055 -0.93289,-2.98012 -1.18494,-4.72504c-0.2049,-1.41851 -0.08387,-2.64426 -0.08387,-2.64426z" fill="#443221" stroke="none" stroke-width="0"/><path d="M235.89061,184.40863c0,0 0.00503,-0.93887 0.22521,-1.22887c0.27409,-0.361 1.2933,-0.77113 1.2933,-0.77113c0,0 0.96956,-0.19553 1.44336,-0.20123c0.54176,-0.00652 1.63072,0.1642 1.63072,0.1642c0,0 1.75677,1.2797 2.63073,3.36991c1.07321,2.56675 1.30432,6.0547 1.29777,6.21523c-0.00269,0.06592 -0.25347,0.02953 -0.50324,-0.59222c-0.24585,-0.61199 -0.48842,-1.8015 -0.77962,-2.7268c-0.34421,-1.09377 -0.45843,-2.35703 -0.89573,-3.23356c-0.03213,-0.06441 -0.12884,-0.64956 -0.30482,-0.70143c-0.39837,-0.1174 -1.05021,0.35944 -1.19251,0.59069c-0.28872,0.46918 -0.27746,1.57303 -0.44705,2.17064c-0.61617,2.1713 -0.63179,4.47429 -0.83555,4.43046c-0.06325,-0.0136 -0.11712,-0.89894 0.03348,-2.10116c0.28576,-2.28117 0.92246,-5.60695 0.92246,-5.60695z" fill="#443221" stroke="none" stroke-width="0"/><path d="M227.18309,192.57639c0,0 -0.3476,-1.07483 -0.10253,-2.30284c0.12331,-0.61787 0.3899,-1.19187 0.64796,-1.80345c0.39029,-0.92497 0.79892,-1.82233 0.96301,-2.18697c0.17028,-0.37839 0.40332,-0.79498 0.40332,-0.79498l3.7647,-0.14706c0,0 -0.0962,0.15255 -0.55152,0.32344c-0.25151,0.0944 -0.73523,0.13309 -1.08303,0.29966c-0.57783,0.27674 -1.11063,1.22242 -1.3456,1.58392c-0.16447,0.25303 -0.06126,1.06253 -0.21467,1.4442c-0.35932,0.89392 -0.55374,1.87079 -0.83275,2.54851c-0.2126,0.51639 -0.56066,0.8591 -0.56066,0.8591c0,0 -0.37085,0.14837 -0.5538,0.17804c-0.17973,0.02914 -0.53443,-0.00157 -0.53443,-0.00157z" fill="url(#color-3)" stroke="none" stroke-width="0"/><path d="M233.06544,193.1058c0,0 -0.26705,-0.86406 -0.27806,-1.94104c-0.00745,-0.72888 0.16615,-1.52339 0.37471,-2.33581c0.0972,-0.37864 0.33873,-0.88925 0.50861,-1.20049c0.18376,-0.33667 0.29371,-0.70037 0.32305,-0.86752c0.06558,-0.37353 -0.36948,-1.0963 -0.36948,-1.0963l2.41177,0.02941c0,0 0.29743,0.19979 0.35426,0.67278c0.01466,0.12199 -0.06123,0.39943 -0.05336,0.53442c0.02164,0.37106 0.05236,0.7769 -0.27238,1.13889c-0.33243,0.37057 -0.95799,0.53254 -1.28125,0.74505c-0.19665,0.12928 -0.2988,0.29579 -0.38274,0.4858c-0.17829,0.40359 0.25299,1.24912 0.26666,1.95221c0.01846,0.94919 -0.27827,1.73556 -0.27827,1.73556c0,0 0.12274,0.32269 -0.65293,0.27765c-0.33853,-0.01966 -0.6706,-0.13059 -0.6706,-0.13059z" fill="url(#color-4)" stroke="none" stroke-width="0"/><path d="M239.30074,192.22345c0,0 0.10454,-2.10986 0.25158,-3.22929c0.15631,-1.18999 0.66018,-3.71188 0.66018,-3.71188l1.14706,-0.08824c0,0 -0.37406,3.72028 -0.55297,4.96721c-0.11122,0.77521 -0.3588,1.7975 -0.3588,1.7975c0,0 -0.26172,0.32353 -0.64706,0.32353c-0.21423,0 -0.5,-0.05882 -0.5,-0.05882z" fill="url(#color-5)" stroke="none" stroke-width="0"/><path d="M244.33015,191.98815c0,0 -0.52941,-0.58948 -0.52941,-0.70588c0,-0.34418 -0.42579,-1.77034 -0.79849,-3.17348c-0.33067,-1.24491 -0.6721,-2.503 -0.6721,-2.503l1.79412,-0.20588l0.7647,6.38235c0,0 -0.26006,0.16237 -0.35595,0.1977c-0.09,0.03316 -0.20287,0.00818 -0.20287,0.00818z" fill="url(#color-6)" stroke="none" stroke-width="0"/></g></g></svg>