<svg version="1.1" xmlns="http://www.w3.org/2000/svg" xmlns:xlink="http://www.w3.org/1999/xlink" width="17.2095" height="22.96994" viewBox="0,0,17.2095,22.96994"><defs><linearGradient x1="341.77302" y1="338.20618" x2="341.77302" y2="343.53361" gradientUnits="userSpaceOnUse" id="color-1"><stop offset="0" stop-color="#373c42"/><stop offset="1" stop-color="#6c4a4a"/></linearGradient><linearGradient x1="348.95886" y1="338.82565" x2="348.95886" y2="344.77255" gradientUnits="userSpaceOnUse" id="color-2"><stop offset="0" stop-color="#373c42"/><stop offset="1" stop-color="#6c4a4a"/></linearGradient><linearGradient x1="324.21107" y1="339.87874" x2="324.21107" y2="344.8345" gradientUnits="userSpaceOnUse" id="color-3"><stop offset="0" stop-color="#373c42"/><stop offset="1" stop-color="#6c4a4a"/></linearGradient><linearGradient x1="330.87036" y1="338.26812" x2="330.87036" y2="346.01148" gradientUnits="userSpaceOnUse" id="color-4"><stop offset="0" stop-color="#373c42"/><stop offset="1" stop-color="#6c4a4a"/></linearGradient><linearGradient x1="235.02326" y1="177.39019" x2="235.02326" y2="181.1565" gradientUnits="userSpaceOnUse" id="color-5"><stop offset="0" stop-color="#724730"/><stop offset="1" stop-color="#724730" stop-opacity="0"/></linearGradient><linearGradient x1="241.7302" y1="176.73349" x2="241.7302" y2="179.77552" gradientUnits="userSpaceOnUse" id="color-6"><stop offset="0" stop-color="#724730"/><stop offset="1" stop-color="#724730" stop-opacity="0"/></linearGradient><linearGradient x1="234.84942" y1="176.57898" x2="234.84942" y2="186.3714" gradientUnits="userSpaceOnUse" id="color-7"><stop offset="0" stop-color="#46291a"/><stop offset="1" stop-color="#724730"/></linearGradient><linearGradient x1="241.18212" y1="176.8566" x2="241.18212" y2="186.64902" gradientUnits="userSpaceOnUse" id="color-8"><stop offset="0" stop-color="#46291a"/><stop offset="1" stop-color="#724730"/></linearGradient></defs><g transform="translate(-231.27025,-168.39075)"><g data-paper-data="{&quot;isPaintingLayer&quot;:true}" fill-rule="nonzero" stroke-linecap="butt" stroke-linejoin="miter" stroke-miterlimit="10" stroke-dasharray="" stroke-dashoffset="0" style="mix-blend-mode: normal"><path d="M236.90693,189.42226c0,0 -0.93827,0.01193 -1.7263,0.11778c-0.98182,0.13188 -1.87195,0.29635 -2.06851,-0.55074c-0.25821,-1.11273 -1.43898,-5.88307 -1.00662,-7.78063c0.35815,-1.57184 1.06975,-2.98878 1.88971,-3.63495c0.58711,-0.46266 1.04718,-0.2581 1.20463,-1.05671c0.3379,-1.71377 -0.01552,-3.12556 0.217,-3.97667c0.40568,-1.48494 2.30991,-3.40861 2.30991,-3.40861c0,0 2.08393,-0.05515 2.76386,0.51599c0.58749,0.49349 1.07904,2.71204 1.07904,2.71204c0,0 3.2174,1.43584 3.81848,3.14943c0.51755,1.47546 2.03435,5.06239 2.40353,7.99241c0.17784,1.41144 1.40923,3.81207 0.07375,4.94834c-1.59942,1.36084 -7.0131,1.38222 -7.0131,1.38222c0,0 -0.2114,1.46229 -1.36568,1.3517c-0.5089,-0.04875 -2.21293,0.37172 -3.24464,0.06208c-1.01501,-0.30463 0.66494,-1.82369 0.66494,-1.82369z" fill-opacity="0.5" fill="#000000" stroke="none" stroke-width="0"/><path d="" fill-opacity="0.5" fill="#000000" stroke="none" stroke-width="0"/><path d="" fill="#5e6669" stroke="#ffffff" stroke-width="0.5"/><path d="" fill="#464d55" stroke="none" stroke-width="0"/><path d="" fill="#464d55" stroke="none" stroke-width="0"/><path d="" fill="#464d55" stroke="none" stroke-width="0"/><path d="" fill="#464d55" stroke="none" stroke-width="0"/><path d="" fill="url(#color-1)" stroke="none" stroke-width="0"/><path d="" fill="url(#color-2)" stroke="none" stroke-width="0"/><path d="" fill="#464d55" stroke="none" stroke-width="0"/><path d="" fill="url(#color-3)" stroke="none" stroke-width="0"/><path d="" fill="url(#color-4)" stroke="none" stroke-width="0"/><path d="" fill="#ffffff" stroke="none" stroke-width="0"/><path d="" fill="#373c42" stroke="none" stroke-width="0"/><path d="M236.41594,188.93127c0,0 -0.93826,0.01193 -1.7263,0.11778c-0.98183,0.13188 -1.87194,0.29634 -2.06851,-0.55074c-0.25821,-1.11273 -1.43899,-5.88307 -1.00663,-7.78062c0.35815,-1.57185 1.06975,-2.98879 1.88972,-3.63495c0.5871,-0.46266 1.04717,-0.2581 1.20463,-1.05671c0.3379,-1.71377 -0.01552,-3.12555 0.217,-3.97667c0.40568,-1.48494 2.30991,-3.40861 2.30991,-3.40861c0,0 2.08394,-0.05514 2.76386,0.51599c0.58749,0.49349 1.07904,2.71205 1.07904,2.71205c0,0 3.21741,1.43584 3.81848,3.14942c0.51754,1.47546 2.03435,5.06239 2.40353,7.99242c0.17784,1.41143 1.40923,3.81208 0.07375,4.94834c-1.59942,1.36084 -7.0131,1.38222 -7.0131,1.38222c0,0 -0.2114,1.46229 -1.36568,1.3517c-0.5089,-0.04876 -2.21293,0.37172 -3.24464,0.06208c-1.015,-0.30463 0.66493,-1.82369 0.66493,-1.82369z" fill="#855b3e" stroke="#ffffff" stroke-width="0.5"/><path d="M237.48011,184.93465c0,0 -3.22804,-2.02322 -3.22804,-3.27928c0,-0.77979 1.07601,-1.94707 1.07601,-1.94707c0,0 1.67838,-0.87106 2.71565,-0.87106c1.06289,0 2.71565,0.87106 2.71565,0.87106c0,0 0.72691,1.48244 0.8351,2.32883c0.16078,1.25787 -4.11437,2.89752 -4.11437,2.89752z" fill="#5a504d" stroke="none" stroke-width="0"/><path d="M236.91649,177.09513c0,0 -0.56363,-0.35035 -0.56363,-0.87106c0,-0.62644 -0.30743,-1.49947 -0.30743,-2.30574c0,-0.76337 0.30743,-1.46689 0.30743,-1.84459c0,-0.54842 0.56363,-1.22973 0.56363,-1.22973c0,0 -0.19357,-0.05124 0.10247,-0.05124c0.35553,0 1.24475,0.01848 1.89856,0.03324c0.43505,0.00983 -0.00272,0.018 -0.00272,0.018c0,0 0.76858,0.45697 0.76858,0.87106c0,0.38557 0.40991,1.39112 0.40991,2.30574c0,0.79171 -0.40991,1.47674 -0.40991,2.10079c0,0.57925 -0.71735,0.97354 -0.71735,0.97354c0,0 0.36164,0 -0.10247,0c-0.70483,0 -1.65967,0 -1.99831,0c-0.23948,0 0.05124,0 0.05124,0z" fill="#5a504d" stroke="none" stroke-width="0"/><path d="M236.66029,172.94479c0,0 -0.23177,-0.22526 -0.23177,-0.32527c0,-0.08561 0.23177,-0.23835 0.23177,-0.23835c0,0 0.26801,-0.14486 0.37651,-0.14486c0.11333,0 0.2896,0.14486 0.2896,0.14486c0,0 0.23177,0.15274 0.23177,0.23835c0,0.10001 -0.23177,0.32527 -0.23177,0.32527c0,0 -0.28325,0.23177 -0.40548,0.23177c-0.08926,0 -0.26062,-0.23177 -0.26062,-0.23177z" fill="#3a2e29" stroke="none" stroke-width="0"/><path d="M236.76947,175.56443c0,0 -0.25344,-0.30903 -0.26352,-0.45269c-0.00915,-0.1305 0.20557,-0.37359 0.20557,-0.37359c0,0 0.81569,0.89812 1.19442,0.89812c0.44685,0 1.31628,-0.89812 1.31628,-0.89812c0,0 0.25879,0.27341 0.24394,0.4047c-0.01408,0.12445 -0.33085,0.36363 -0.33085,0.36363c0,0 -0.91679,0.53327 -1.35484,0.42461c-0.36682,-0.09099 -1.01099,-0.36666 -1.01099,-0.36666z" fill="#3a2e29" stroke="none" stroke-width="0"/><path d="M238.38649,172.93269c0,0 -0.08691,-0.21461 -0.08691,-0.31317c0,-0.08814 0.08691,-0.25045 0.08691,-0.25045c0,0 0.27352,-0.08691 0.38861,-0.08691c0.10624,0 0.2775,0.08691 0.2775,0.08691c0,0 0.11589,0.18589 0.11589,0.27942c0,0.09433 -0.11589,0.2842 -0.11589,0.2842c0,0 -0.27423,0.17383 -0.39339,0.17383c-0.09921,0 -0.27272,-0.17383 -0.27272,-0.17383z" fill="#3a2e29" stroke="none" stroke-width="0"/><path d="M231.85087,181.21445c0,0 0.04658,-0.46509 0.19749,-1.03088c0.09815,-0.36801 0.324,-0.81205 0.324,-1.08405c0,-0.40257 1.07195,-1.70933 1.07195,-1.70933l1.39064,-0.81121c0,0 1.34332,0.16953 1.55021,0.70541c0.04589,0.11885 0.55445,1.4398 0.49894,1.63059c-0.06187,0.21265 -0.3235,0.29877 -0.54795,0.38654c-0.43756,0.17111 -0.97722,0.26735 -1.32517,0.75106c-0.45141,0.62754 -0.78443,1.10392 -0.78443,1.10392z" fill="url(#color-5)" stroke="none" stroke-width="0"/><path d="M241.0059,179.97832c0,0 -0.18767,-0.17783 -0.48559,-0.35135c-0.39884,-0.2323 -1.0363,-0.32896 -1.15887,-0.59454c-0.07495,-0.1624 0.25383,-2.06715 0.25383,-2.06715c0,0 0.79281,-0.44234 1.27115,-0.7075c0.39344,-0.2181 2.08956,-2.9719 2.08956,-2.9719c0,0 1.40934,0.90906 1.64708,1.66189c0.12255,0.38807 0.73562,1.93731 1.1093,3.18384c0.17416,0.58096 0.45507,0.98279 0.32217,1.37632c-0.22779,0.6745 -2.64397,0.2676 -2.64397,0.2676z" fill="url(#color-6)" stroke="none" stroke-width="0"/><path d="M240.16572,189.21062c0,0 0.21808,0.65327 -0.75394,1.21565c-0.41354,0.23926 -2.13005,0.32381 -3.13002,0.26067c-0.47359,-0.02991 -0.51678,-0.22778 -0.68422,-0.20827c-0.3894,0.04537 1.02724,-1.46903 0.71276,-1.59726c-0.90115,-0.36744 -2.98295,0.20127 -3.35164,-0.04308c-0.12973,-0.08597 -0.99193,-5.07438 -0.99193,-5.07438c0,0 2.92522,1.71337 5.91145,1.81957c2.48375,0.08834 4.9095,-1.53541 5.46252,-1.83665c1.15434,-0.62878 2.99597,-3.74923 2.99597,-3.74923c0,0 1.44277,5.06745 1.52168,6.51937c0.02195,0.404 -0.35011,0.93738 -0.57968,1.22243c-0.22362,0.27767 -0.50743,0.25437 -0.50743,0.25437c0,0 -0.73315,0.44099 -1.74452,0.657c-1.42774,0.30494 -3.3524,0.42041 -4.05219,0.4614c-0.54335,0.03183 -0.80883,0.09841 -0.80883,0.09841z" fill="#724730" stroke="none" stroke-width="0"/><path d="M235.61717,190.34052c0,0 -0.03564,-0.28979 0.15944,-0.63305c0.14548,-0.25597 0.535,-0.54168 0.54129,-0.75911c0.02637,-0.91252 -0.43998,-3.67788 -0.43998,-3.67788c0,0 1.4031,0.34766 2.17287,0.34766c0.74564,0 1.91213,-0.34766 1.91213,-0.34766c0,0 0.34578,3.28526 0.33132,4.1142c-0.00596,0.34179 -0.41823,0.86893 -0.41823,0.86893c0,0 -0.31373,0.24286 -0.9163,0.36987c-0.5851,0.12333 -1.45411,0.13082 -1.80731,0.13802c-0.35696,0.00728 -0.89249,-0.04363 -1.1904,-0.15246c-0.28826,-0.1053 -0.34482,-0.26852 -0.34482,-0.26852z" fill="#553625" stroke="none" stroke-width="0"/><path d="M238.03869,190.84991c0,0 -0.50687,-0.70806 -0.55484,-1.12269c-0.03412,-0.295 0.20481,-0.58811 0.23012,-0.72733c0.02892,-0.15903 0.49855,-0.35183 0.49855,-0.35183c0,0 0.96148,0 1.27475,0c0.18292,0 0.08692,0 0.08692,0c0,0 0.34766,0.32612 0.34766,0.55046c0,0.13929 0.20468,0.52116 0.17189,0.75702c-0.05027,0.36161 -0.14292,0.45979 -0.14292,0.45979z" fill="#5a504d" stroke="none" stroke-width="0"/><path d="M235.9938,190.80406c0,0 -0.51138,-0.19824 -0.6218,-0.42814c-0.06317,-0.13153 0.25825,-0.25394 0.24079,-0.40483c-0.03413,-0.29499 0.20481,-0.5881 0.23013,-0.72733c0.02892,-0.15904 0.49854,-0.35183 0.49854,-0.35183c0,0 0.96147,0 1.27475,0c0.18292,0 0.08691,0 0.08691,0c0,0 0.34766,0.32612 0.34766,0.55046c0,0.13929 0.20468,0.52116 0.17189,0.75702c-0.05027,0.36161 -0.34572,0.57567 -0.34572,0.57567z" fill="#5a504d" stroke="none" stroke-width="0"/><path d="M236.22557,188.9209c0,0 -1.63925,-1.27429 -2.90122,-3.06815c-0.95426,-1.35647 -1.61836,-3.22092 -1.61836,-3.85608c0,-0.84536 0.42978,-2.26058 0.91828,-3.31092c0.36112,-0.77647 0.82002,-1.35352 0.82002,-1.35352c0,0 0.8644,-0.75326 1.27475,-0.75326c0.14808,0 0.34913,0.03233 0.63999,0.10548c0.43009,0.10815 0.8955,0.38704 0.8955,0.38704c0,0 -3.09997,3.62482 -3.09997,5.07004c0,1.49832 4.66444,6.80834 4.66444,6.80834c0,0 -0.75656,-0.10577 -1.10487,-0.0574c-0.347,0.04819 -0.48857,0.02842 -0.48857,0.02842z" fill="url(#color-7)" stroke="none" stroke-width="0"/><path d="M237.80692,188.90881c0,0 2.6654,-5.21732 2.6654,-6.69245c0,-1.4703 2.54951,-8.86532 2.54951,-8.86532c0,0 0.50094,0.19843 0.69542,0.36809c0.24682,0.21531 0.66625,0.81975 0.66625,0.81975c0,0 -2.28876,6.4061 -2.28876,7.85132c0,1.49831 -2.28876,6.43171 -2.28876,6.43171c0,0 -0.55375,-0.10577 -0.90207,-0.0574c-0.347,0.04819 -1.09698,0.14431 -1.09698,0.14431z" fill="url(#color-8)" stroke="none" stroke-width="0"/></g></g></svg>