<svg version="1.1" xmlns="http://www.w3.org/2000/svg" xmlns:xlink="http://www.w3.org/1999/xlink" width="18.32534" height="28.71113" viewBox="0,0,18.32534,28.71113"><defs><linearGradient x1="341.77299" y1="338.20618" x2="341.77299" y2="343.53361" gradientUnits="userSpaceOnUse" id="color-1"><stop offset="0" stop-color="#373c42"/><stop offset="1" stop-color="#6c4a4a"/></linearGradient><linearGradient x1="348.95883" y1="338.82565" x2="348.95883" y2="344.77255" gradientUnits="userSpaceOnUse" id="color-2"><stop offset="0" stop-color="#373c42"/><stop offset="1" stop-color="#6c4a4a"/></linearGradient><linearGradient x1="324.21104" y1="339.87874" x2="324.21104" y2="344.8345" gradientUnits="userSpaceOnUse" id="color-3"><stop offset="0" stop-color="#373c42"/><stop offset="1" stop-color="#6c4a4a"/></linearGradient><linearGradient x1="330.87033" y1="338.26812" x2="330.87033" y2="346.01148" gradientUnits="userSpaceOnUse" id="color-4"><stop offset="0" stop-color="#373c42"/><stop offset="1" stop-color="#6c4a4a"/></linearGradient><linearGradient x1="235.81623" y1="187.44418" x2="239.57196" y2="187.44418" gradientUnits="userSpaceOnUse" id="color-5"><stop offset="0" stop-color="#d4998c"/><stop offset="1" stop-color="#d48ca1"/></linearGradient></defs><g transform="translate(-230.71233,-165.51944)"><g data-paper-data="{&quot;isPaintingLayer&quot;:true}" fill-rule="nonzero" stroke-linecap="butt" stroke-linejoin="miter" stroke-miterlimit="10" stroke-dasharray="" stroke-dashoffset="0" style="mix-blend-mode: normal"><path d="M236.72472,194.15967c0,0 -1.01689,-0.9789 -0.53071,-1.89836c0.3129,-0.59175 1.58494,-0.12291 2.17788,-0.76638c0.47083,-0.51095 0.33149,-2.1193 0.23995,-2.69565c-0.20583,-1.29588 0.07861,-6.14812 -1.7985,-7.83974c-0.36323,-0.32734 -0.5197,0.69651 -1.28391,0.98315c-1.28301,0.48121 -3.27796,0.41246 -3.52866,-0.45674c-1.75469,-6.08366 1.18941,-6.53449 1.18941,-6.53449c0,0 0.68333,-0.98668 0.63407,-2.17153c-0.03062,-0.73626 0.07578,-1.92439 -0.35474,-2.88751c-0.30937,-0.6921 -1.13419,-1.23998 -1.37396,-1.55135c-0.42798,-0.55578 0.25625,-1.77873 0.614,-1.88045c0.60535,-0.17212 2.10168,-0.63548 2.51517,1.18191c0.15312,0.67296 -0.01917,1.61673 0.02079,2.52868c0.09429,2.15234 -0.06509,4.13161 0.78551,4.12032c0.32141,-0.00427 0.54514,-0.71407 1.08428,-0.84866c0.64645,-0.16138 1.61957,0.23791 2.05319,0.09126c0.76414,-0.25843 1.61726,0.00335 2.36622,0.04241c4.04641,0.21106 7.50296,3.72162 7.50296,3.72162l-0.75326,7.27188c0,0 -0.80643,0.79904 -1.69042,0.9098c-0.29076,0.03644 -0.64876,-4.53902 -1.05426,-4.30798c-0.2402,0.13685 -0.33123,0.92569 -0.75666,1.18399c-0.21179,0.12859 -0.95341,0.55709 -1.58228,0.25109c-0.68734,-0.33445 -1.26254,-1.40537 -1.42097,-1.22338c-0.53013,0.60897 0.82783,8.56628 0.36934,9.42863c-2.23253,4.19906 -5.42445,3.34746 -5.42445,3.34746z" fill="#000000" stroke="none" stroke-width="0"/><path d="" fill-opacity="0.5" fill="#000000" stroke="none" stroke-width="0"/><path d="" fill="#5e6669" stroke="#ffffff" stroke-width="0.5"/><path d="" fill="#464d55" stroke="none" stroke-width="0"/><path d="" fill="#464d55" stroke="none" stroke-width="0"/><path d="" fill="#464d55" stroke="none" stroke-width="0"/><path d="" fill="#464d55" stroke="none" stroke-width="0"/><path d="" fill="url(#color-1)" stroke="none" stroke-width="0"/><path d="" fill="url(#color-2)" stroke="none" stroke-width="0"/><path d="" fill="#464d55" stroke="none" stroke-width="0"/><path d="" fill="url(#color-3)" stroke="none" stroke-width="0"/><path d="" fill="url(#color-4)" stroke="none" stroke-width="0"/><path d="" fill="#ffffff" stroke="none" stroke-width="0"/><path d="" fill="#373c42" stroke="none" stroke-width="0"/><path d="M236.24431,193.65028c0,0 -1.01689,-0.9789 -0.53071,-1.89836c0.3129,-0.59175 1.58494,-0.12291 2.17788,-0.76637c0.47083,-0.51095 0.33149,-2.11931 0.23995,-2.69566c-0.20583,-1.29588 0.07861,-6.14812 -1.7985,-7.83974c-0.36323,-0.32734 -0.5197,0.69651 -1.28391,0.98314c-1.28301,0.48121 -3.27796,0.41246 -3.52866,-0.45674c-1.75469,-6.08366 1.18941,-6.53449 1.18941,-6.53449c0,0 0.68333,-0.98668 0.63407,-2.17153c-0.03062,-0.73626 0.07578,-1.92439 -0.35474,-2.88751c-0.30937,-0.6921 -1.13419,-1.23998 -1.37396,-1.55135c-0.42798,-0.55578 0.25625,-1.77874 0.614,-1.88046c0.60535,-0.17212 2.10168,-0.63548 2.51517,1.18191c0.15312,0.67296 -0.01917,1.61673 0.02078,2.52868c0.09429,2.15234 -0.06509,4.13161 0.78552,4.12032c0.32141,-0.00427 0.54514,-0.71407 1.08428,-0.84866c0.64645,-0.16138 1.61956,0.23792 2.05318,0.09127c0.76414,-0.25843 1.61726,0.00334 2.36622,0.04241c4.04641,0.21106 7.50297,3.72162 7.50297,3.72162l-0.75326,7.27188c0,0 -0.80643,0.79904 -1.69041,0.90981c-0.29076,0.03644 -0.64876,-4.53902 -1.05426,-4.30798c-0.2402,0.13685 -0.33123,0.9257 -0.75666,1.18399c-0.21179,0.12859 -0.95342,0.55709 -1.58228,0.25109c-0.68734,-0.33445 -1.26253,-1.40537 -1.42096,-1.22338c-0.53013,0.60897 0.82783,8.56628 0.36934,9.42862c-2.23253,4.19906 -5.42445,3.34746 -5.42445,3.34746z" fill="#332515" stroke="#ffffff" stroke-width="0.5"/><path d="M232.7677,174.67384c0,0 0.91871,-2.3368 0.58211,-4.33153c-0.20341,-1.20542 -1.34854,-2.05975 -1.68826,-2.69015c-0.083,-0.15401 0.07278,-0.43088 0.08128,-0.53849c0.03425,-0.43333 0.50338,-0.92852 0.50338,-0.92852l1.07195,-0.23177c0,0 1.00281,-0.0272 1.19529,0.87986c0.40062,1.88787 0.21589,5.68951 0.45148,6.55127c0.12911,0.47227 0.7289,0.65196 0.7289,0.65196c0,0 -1.08578,1.0953 -1.56499,1.1056c-0.40709,0.00876 -1.36115,-0.46823 -1.36115,-0.46823z" fill="#e3a89e" stroke="none" stroke-width="0"/><path d="M242.82087,182.0423c0,0 -0.30639,-0.2215 -0.60917,-0.5304c-0.21565,-0.22001 -0.38664,-0.5129 -0.63761,-0.67247c-0.64128,-0.40774 -0.60741,0.65201 -0.60741,0.30474c0,-0.29902 -0.28539,-0.99126 -0.17044,-1.63526c0.19571,-1.09639 0.83678,-2.21797 0.83678,-2.21797c0,0 0.97123,-0.26074 1.56447,-0.26074c0.62219,0 1.07195,0.46355 1.07195,0.46355l0.69532,2.89717c0,0 -0.4568,1.03838 -0.80079,1.3166c-0.30893,0.24987 -1.34311,0.33478 -1.34311,0.33478z" fill="#f9f8f6" stroke="none" stroke-width="0"/><path d="M241.80686,180.18811c0,0 -0.14825,-0.18981 -0.11377,-0.4422c0.0259,-0.18964 0.20168,-0.4146 0.23055,-0.62092c0.02988,-0.21358 -0.08729,-0.40719 -0.06966,-0.52098c0.03008,-0.19412 0.30054,-0.47288 0.30054,-0.47288c0,0 -0.00799,0 0.14486,0c0.09267,0 0.22616,0.11588 0.40561,0.11588c0.19576,0 0.44072,-0.11588 0.60841,-0.11588c0.16954,0 0,0 0,0c0,0 0.28971,0.30184 0.28971,0.52149c0,0.12285 -0.17383,0.32872 -0.17383,0.55046c0,0.24199 0.17383,0.50287 0.17383,0.69532c0,0.17227 -0.37663,0.28972 -0.37663,0.28972c0,0 0.11186,0 -0.08691,0c-0.13495,0 -0.35294,-0.05794 -0.60841,-0.05794c-0.2446,0 -0.52597,0.05794 -0.69532,0.05794c-0.12347,0 -0.02898,0 -0.02898,0z" fill="#cbb7ba" stroke="none" stroke-width="0"/><path d="M233.37611,167.05429c0,0 -0.32189,-0.14261 -0.33695,-0.22292c-0.0138,-0.07362 0.25003,-0.24063 0.25003,-0.24063c0,0 0.31072,-0.14486 0.43457,-0.14486c0.10468,0 0.26074,0.14486 0.26074,0.14486c0,0 0.16708,0.17859 0.15154,0.25629c-0.01296,0.06481 -0.23846,0.17829 -0.23846,0.17829c0,0 -0.19496,0.18466 -0.28562,0.1897c-0.08238,0.00458 -0.23587,-0.16073 -0.23587,-0.16073z" fill="#34211d" stroke="none" stroke-width="0"/><path d="M231.81164,167.8655c0,0 -0.28972,-0.2814 -0.28972,-0.4056c0,-0.14342 0.28972,-0.4056 0.28972,-0.4056c0,0 0.18596,-0.16709 0.26323,-0.16303c0.10019,0.00527 0.28724,0.192 0.28724,0.192c0,0 0.34131,0.51604 0.25714,0.70653c-0.09738,0.22039 -0.43097,0.62617 -0.43097,0.62617z" fill="#817569" stroke="none" stroke-width="0"/><path d="M236.33122,193.47644c0,0 -0.29015,-0.34132 -0.4423,-0.63447c-0.12171,-0.2345 -0.05543,-0.47526 -0.0483,-0.58221c0.01078,-0.16176 0.08499,-0.52162 0.08499,-0.52162c0,0 0.75943,-0.16058 1.16191,-0.18985c0.58788,-0.04275 1.09787,-0.56341 1.09787,-0.56341c0,0 0.32483,-2.59002 -0.04514,-4.93178c-0.23411,-1.48182 -0.35412,-3.11895 -0.70053,-4.20723c-0.36641,-1.1511 0.5839,-0.09642 1.38859,0.07367c0.31357,0.06628 0.06564,3.06507 0.42251,4.7789c0.70121,3.36745 0.0355,6.14063 0.0355,6.14063c0,0 -0.31933,0.24162 -0.77029,0.40885c-0.48356,0.17932 -1.10981,0.28611 -1.38855,0.3189c-0.30275,0.03562 -0.79628,-0.09038 -0.79628,-0.09038z" fill="url(#color-5)" stroke="none" stroke-width="0"/><path d="M239.19941,192.86804c0,0 0.31869,-2.53108 0.31869,-4.37472c0,-0.66055 -0.34115,-1.05335 -0.4461,-2.11665c-0.19718,-1.99767 -0.22024,-4.373 -0.22024,-4.373l2.1439,-0.78223c0,0 0.2424,2.78966 0.32267,4.22964c0.03404,0.6107 0.14528,1.40901 0.23096,2.17598c0.12515,1.12036 0.05478,2.22793 0.05478,2.22793c0,0 -0.57702,1.29568 -0.92612,1.73322c-0.37354,0.46817 -1.47853,1.27983 -1.47853,1.27983z" fill="#6a463e" stroke="none" stroke-width="0"/><path d="M246.18158,184.83323l-0.81121,-4.14295c0,0 0.95527,0.28972 1.30372,0.28972c0.42025,0 1.44858,-1.70933 1.44858,-1.70933l-0.46355,4.86724z" fill="#c4b1b3" stroke="none" stroke-width="0"/></g></g></svg>