<svg version="1.1" xmlns="http://www.w3.org/2000/svg" xmlns:xlink="http://www.w3.org/1999/xlink" width="29.46272" height="19.49096" viewBox="0,0,29.46272,19.49096"><defs><linearGradient x1="240" y1="180" x2="240" y2="180" gradientUnits="userSpaceOnUse" id="color-1"><stop offset="0" stop-color="#373c42"/><stop offset="1" stop-color="#6c4a4a"/></linearGradient><linearGradient x1="240" y1="180" x2="240" y2="180" gradientUnits="userSpaceOnUse" id="color-2"><stop offset="0" stop-color="#373c42"/><stop offset="1" stop-color="#6c4a4a"/></linearGradient><linearGradient x1="240" y1="180" x2="240" y2="180" gradientUnits="userSpaceOnUse" id="color-3"><stop offset="0" stop-color="#373c42"/><stop offset="1" stop-color="#6c4a4a"/></linearGradient><linearGradient x1="240" y1="180" x2="240" y2="180" gradientUnits="userSpaceOnUse" id="color-4"><stop offset="0" stop-color="#373c42"/><stop offset="1" stop-color="#6c4a4a"/></linearGradient><linearGradient x1="240" y1="180" x2="240" y2="180" gradientUnits="userSpaceOnUse" id="color-5"><stop offset="0" stop-color="#26272b"/><stop offset="1" stop-color="#464e39"/></linearGradient><linearGradient x1="240" y1="180" x2="240" y2="180" gradientUnits="userSpaceOnUse" id="color-6"><stop offset="0" stop-color="#26272b" stop-opacity="0"/><stop offset="1" stop-color="#26272b"/></linearGradient><linearGradient x1="240" y1="180" x2="240" y2="180" gradientUnits="userSpaceOnUse" id="color-7"><stop offset="0" stop-color="#2c3822"/><stop offset="1" stop-color="#464e39"/></linearGradient><linearGradient x1="240" y1="180" x2="240" y2="180" gradientUnits="userSpaceOnUse" id="color-8"><stop offset="0" stop-color="#483225" stop-opacity="0"/><stop offset="1" stop-color="#483225"/></linearGradient><linearGradient x1="240" y1="180" x2="240" y2="180" gradientUnits="userSpaceOnUse" id="color-9"><stop offset="0" stop-color="#483225" stop-opacity="0"/><stop offset="1" stop-color="#483225"/></linearGradient><linearGradient x1="240" y1="180" x2="240" y2="180" gradientUnits="userSpaceOnUse" id="color-10"><stop offset="0" stop-color="#483225" stop-opacity="0"/><stop offset="1" stop-color="#483225"/></linearGradient><linearGradient x1="240" y1="180" x2="240" y2="180" gradientUnits="userSpaceOnUse" id="color-11"><stop offset="0" stop-color="#4d322b"/><stop offset="1" stop-color="#4d322b" stop-opacity="0"/></linearGradient><linearGradient x1="240" y1="180" x2="240" y2="180" gradientUnits="userSpaceOnUse" id="color-12"><stop offset="0" stop-color="#2d1f12" stop-opacity="0"/><stop offset="1" stop-color="#2d1f12"/></linearGradient><linearGradient x1="240" y1="180" x2="240" y2="180" gradientUnits="userSpaceOnUse" id="color-13"><stop offset="0" stop-color="#654a37"/><stop offset="1" stop-color="#654a37" stop-opacity="0"/></linearGradient><linearGradient x1="240" y1="180" x2="240" y2="180" gradientUnits="userSpaceOnUse" id="color-14"><stop offset="0" stop-color="#614832" stop-opacity="0"/><stop offset="1" stop-color="#614832"/></linearGradient><linearGradient x1="240" y1="180" x2="240" y2="180" gradientUnits="userSpaceOnUse" id="color-15"><stop offset="0" stop-color="#4a3516" stop-opacity="0"/><stop offset="1" stop-color="#4a3516"/></linearGradient><linearGradient x1="240" y1="180" x2="240" y2="180" gradientUnits="userSpaceOnUse" id="color-16"><stop offset="0" stop-color="#4a3516" stop-opacity="0"/><stop offset="1" stop-color="#4a3516"/></linearGradient><linearGradient x1="240" y1="180" x2="240" y2="180" gradientUnits="userSpaceOnUse" id="color-17"><stop offset="0" stop-color="#8e6c51" stop-opacity="0"/><stop offset="1" stop-color="#8e6c51"/></linearGradient></defs><g transform="translate(-225.14364,-170.21991)"><g data-paper-data="{&quot;isPaintingLayer&quot;:true}" fill-rule="nonzero" stroke-linecap="butt" stroke-linejoin="miter" stroke-miterlimit="10" stroke-dasharray="" stroke-dashoffset="0" style="mix-blend-mode: normal"><path d="M230.25537,181.97143c0,0 -2.84107,0.48332 -3.99089,-1.00431c-0.53705,-0.69482 -0.42873,-2.70412 0.00762,-3.78478c0.15375,-0.38079 0.70808,-0.67361 0.94964,-1.36361c0.1278,-0.36507 -0.23925,-1.0959 0.09204,-1.45253c0.32569,-0.35061 1.09917,-0.22962 1.70753,-0.5141c0.4852,-0.2269 0.81391,-0.86609 1.10152,-1.08362c1.64482,-1.24403 3.24365,-1.61523 3.24365,-1.61523c0,0 3.45401,-0.28665 7.14697,-0.13805c2.73494,0.11005 5.66478,0.49074 7.08592,1.23644c1.16124,0.60932 2.75862,2.18854 3.48038,3.88685c0.98012,2.30621 0.88269,4.77233 0.88269,4.77233c0,0 0.37093,1.5761 1.16768,2.36789c0.37444,0.3721 0.68672,0.30399 0.92768,0.95736c0.06503,0.17634 0.58377,-0.18477 0.54666,0.23726c-0.16309,1.8548 -0.70194,1.89287 -0.90514,3.00765c-0.07105,0.38979 -0.71209,0.5559 -0.85908,-0.01994c-0.14262,-0.55872 0.20887,-1.85734 0.13228,-1.66344c-0.62425,1.58038 -3.55554,-0.99788 -3.55554,-0.99788c0,0 0.49583,2.15274 -0.07493,3.3819c-0.57652,1.24153 -2.22834,1.55655 -3.9813,0.93345c-0.91586,-0.32555 1.57047,-1.07826 0.73858,-1.56726c-1.15894,-0.68125 -2.02235,-2.39531 -2.74173,-3.81876c-0.30274,-0.59904 -0.11451,-1.72846 -0.66222,-1.77006c-0.96913,-0.07361 -2.00695,4.05018 -3.13757,6.14153c-0.99771,1.84548 -2.09899,1.70147 -2.84325,1.49037c-1.62956,-0.4622 -0.21643,-7.08267 -1.58086,-7.18946c-0.89466,-0.07002 -1.65814,3.27885 -2.44765,4.70729c-0.96463,1.7453 -2.18123,1.63428 -2.5721,1.5092c-0.92258,-0.29523 0.14141,-6.64646 0.14141,-6.64646z" fill-opacity="0.5" fill="#161616" stroke="none" stroke-width="0"/><path d="" fill="#000000" stroke="none" stroke-width="0"/><path d="" fill-opacity="0.5" fill="#000000" stroke="none" stroke-width="0"/><path d="" fill-opacity="0.5" fill="#000000" stroke="none" stroke-width="0"/><path d="" fill-opacity="0.5" fill="#000000" stroke="none" stroke-width="0"/><path d="" fill-opacity="0.5" fill="#000000" stroke="none" stroke-width="0"/><path d="" fill="#5e6669" stroke="#ffffff" stroke-width="0.5"/><path d="" fill="#464d55" stroke="none" stroke-width="0"/><path d="" fill="#464d55" stroke="none" stroke-width="0"/><path d="" fill="#464d55" stroke="none" stroke-width="0"/><path d="" fill="#464d55" stroke="none" stroke-width="0"/><path d="" fill="url(#color-1)" stroke="none" stroke-width="0"/><path d="" fill="url(#color-2)" stroke="none" stroke-width="0"/><path d="" fill="#464d55" stroke="none" stroke-width="0"/><path d="" fill="url(#color-3)" stroke="none" stroke-width="0"/><path d="" fill="url(#color-4)" stroke="none" stroke-width="0"/><path d="" fill="#ffffff" stroke="none" stroke-width="0"/><path d="" fill="#373c42" stroke="none" stroke-width="0"/><path d="" fill="#464e39" stroke="#ffffff" stroke-width="0.5"/><path d="" fill="#343321" stroke="none" stroke-width="0"/><path d="" fill="url(#color-5)" stroke="none" stroke-width="0"/><path d="" fill="url(#color-6)" stroke="none" stroke-width="0"/><path d="" fill="url(#color-7)" stroke="none" stroke-width="0"/><path d="" fill="#30351d" stroke="none" stroke-width="0"/><path d="" fill="#30351d" stroke="none" stroke-width="0"/><path d="" fill="#968780" stroke="#ffffff" stroke-width="0.5"/><path d="" fill="#695b5a" stroke="none" stroke-width="0"/><path d="" fill="url(#color-8)" stroke="none" stroke-width="0"/><path d="" fill="url(#color-9)" stroke="none" stroke-width="0"/><path d="" fill="url(#color-10)" stroke="none" stroke-width="0"/><path d="" fill="#5f5353" stroke="none" stroke-width="0"/><path d="" fill="#443a38" stroke="none" stroke-width="0"/><path d="" fill="#725f59" stroke="none" stroke-width="0"/><path d="" data-paper-data="{&quot;index&quot;:null}" fill="#725f59" stroke="none" stroke-width="0"/><path d="" fill="#725f59" stroke="none" stroke-width="0"/><path d="" fill="#7c6a66" stroke="none" stroke-width="0"/><path d="" fill="#61493b" stroke="#ffffff" stroke-width="0.5"/><path d="" fill="#4d322b" stroke="none" stroke-width="0"/><path d="" fill="url(#color-11)" stroke="none" stroke-width="0"/><path d="" fill="url(#color-12)" stroke="none" stroke-width="0"/><path d="" fill="#32251d" stroke="none" stroke-width="0"/><path d="" fill="#b7956f" stroke="#ffffff" stroke-width="0.5"/><path d="" fill="url(#color-13)" stroke="none" stroke-width="0"/><path d="" fill="#614832" stroke="none" stroke-width="0"/><path d="" fill="#765834" stroke="none" stroke-width="0"/><path d="" fill="url(#color-14)" stroke="none" stroke-width="0"/><path d="" fill="url(#color-15)" stroke="none" stroke-width="0"/><path d="" fill="url(#color-16)" stroke="none" stroke-width="0"/><path d="" fill="url(#color-17)" stroke="none" stroke-width="0"/><path d="M229.74703,181.28809c0,0 -2.84106,0.48331 -3.99089,-1.00431c-0.53704,-0.69482 -0.42873,-2.70411 0.00761,-3.78478c0.15375,-0.38079 0.70808,-0.67361 0.94964,-1.36361c0.12781,-0.36507 -0.23925,-1.09589 0.09204,-1.45253c0.3257,-0.35061 1.09917,-0.22962 1.70753,-0.5141c0.4852,-0.22689 0.81392,-0.86609 1.10153,-1.08362c1.64483,-1.24403 3.24364,-1.61523 3.24364,-1.61523c0,0 3.45401,-0.28665 7.14697,-0.13805c2.73494,0.11005 5.66478,0.49074 7.08592,1.23644c1.16124,0.60932 2.75862,2.18854 3.48039,3.88685c0.98012,2.30621 0.88268,4.77233 0.88268,4.77233c0,0 0.37093,1.57611 1.16768,2.36789c0.37443,0.3721 0.68672,0.30399 0.92768,0.95735c0.06503,0.17634 0.58377,-0.18477 0.54666,0.23725c-0.16309,1.85481 -0.70194,1.89287 -0.90513,3.00765c-0.07105,0.38979 -0.71209,0.55591 -0.85908,-0.01994c-0.14262,-0.55872 0.20887,-1.85734 0.13228,-1.66345c-0.62425,1.58038 -3.55554,-0.99787 -3.55554,-0.99787c0,0 0.49584,2.15274 -0.07493,3.3819c-0.57651,1.24154 -2.22834,1.55655 -3.98129,0.93345c-0.91586,-0.32555 1.57047,-1.07826 0.73857,-1.56726c-1.15894,-0.68125 -2.02235,-2.39531 -2.74173,-3.81875c-0.30275,-0.59904 -0.11451,-1.72846 -0.66222,-1.77006c-0.96913,-0.07361 -2.00694,4.05018 -3.13757,6.14153c-0.99771,1.84548 -2.09899,1.70146 -2.84325,1.49037c-1.62956,-0.4622 -0.21643,-7.08266 -1.58086,-7.18946c-0.89466,-0.07003 -1.65815,3.27885 -2.44765,4.70728c-0.96464,1.7453 -2.18123,1.63428 -2.5721,1.5092c-0.92257,-0.29522 0.14141,-6.64646 0.14141,-6.64646z" fill="#161616" stroke="#ffffff" stroke-width="0.5"/><path d="M227.29438,181.09895c0,0 -0.7607,-0.23554 -1.24874,-0.73674c-0.24297,-0.24952 -0.33061,-0.69652 -0.39755,-0.95152c-0.10237,-0.38997 -0.11682,-1.12367 0.01251,-1.76525c0.13194,-0.65451 0.40878,-1.21315 0.40878,-1.21315c0,0 0.0998,-0.59715 0.60342,-0.89992c0.24637,-0.14812 -0.10525,-1.60477 0.40178,-1.88815c0.27251,-0.1523 1.17068,-0.13254 1.51567,-0.28833c0.40178,-0.18143 0.53004,-0.46309 0.8136,-0.7691c0.48193,-0.52009 1.08195,-1.11055 1.83701,-1.399c0.57524,-0.21975 1.26399,-0.48316 1.86934,-0.58075c1.48411,-0.23926 2.75917,-0.06643 2.75917,-0.06643c0,0 0.7029,4.54587 -0.20669,6.20886c-1.00573,1.83876 -5.68498,4.5828 -5.68498,4.5828z" fill="#f0eeef" stroke="none" stroke-width="0"/><path d="M241.41105,181.27395c0,0 -1.49229,-3.39004 -2.08178,-5.13947c-0.61499,-1.82513 -1.47655,-5.65219 -1.47655,-5.65219c0,0 3.7847,-0.08789 5.43446,0.17365c0.8701,0.13794 2.20352,0.47609 3.09131,0.79247c0.67342,0.23998 1.0409,0.49221 1.0409,0.49221c0,0 0.8851,0.68086 1.61017,1.47446c0.45322,0.49605 1.00616,1.15282 1.22723,1.59822c0.19999,0.40292 0.45288,0.9152 0.62944,1.52841c0.45567,1.58258 0.49981,3.39059 0.49981,3.39059c0,0 -2.2201,1.64388 -3.91486,0.94925c-1.14431,-0.46902 -1.79006,-2.20228 -2.50126,-2.19807c-0.33277,0.00197 -1.11217,0.31455 -1.58501,0.83184c-0.37952,0.4152 -0.45778,1.37455 -0.73025,1.59228c-0.18726,0.14964 -0.46768,0.00998 -0.60948,0.0647c-0.52716,0.20342 -0.63414,0.10167 -0.63414,0.10167z" fill="#f0eeef" stroke="none" stroke-width="0"/><path d="M227.41105,179.11562c0,0 -0.55838,-0.38841 -0.71016,-0.65151c-0.1387,-0.24041 -0.16484,-0.86516 -0.16484,-0.86516c0,0 0.64366,-0.29167 0.99167,-0.29167c0.38678,0 0.64167,0.46667 0.64167,0.46667c0,0 0.35,0.44254 0.35,0.7c0,0.26718 -0.05833,0.7 -0.05833,0.7z" fill="#161616" stroke="none" stroke-width="0"/><path d="M226.82772,174.79895v-0.99167h1.16667l-0.64167,0.99167z" fill="#161616" stroke="none" stroke-width="0"/><path d="M227.79935,181.39658c0,0 -0.45341,-0.08879 -0.54025,-0.1991c-0.09562,-0.12146 -0.00968,-0.49946 -0.00968,-0.49946c0,0 0.2874,-0.45959 0.45356,-0.59039c0.20269,-0.15956 0.67489,-0.29796 0.67489,-0.29796c0,0 0.33745,0.08969 0.42447,0.20023c0.0955,0.12131 0.12546,0.49834 0.12546,0.49834c0,0 -0.24745,0.47406 -0.41886,0.609c-0.20024,0.15764 -0.70959,0.27936 -0.70959,0.27936z" fill="#161616" stroke="none" stroke-width="0"/><path d="M232.31105,179.75728c0,0 -0.58058,-1.3927 -0.6478,-2.28334c-0.08439,-1.11823 0.18113,-3.89999 0.18113,-3.89999c0,0 0.9859,0.14422 1.39652,0.47104c0.5173,0.41173 1.46181,1.80396 1.46181,1.80396l0.35,1.575c0,0 -0.46607,0.77023 -0.8701,1.11409c-0.4923,0.41898 -1.87157,1.21924 -1.87157,1.21924z" fill="#c5bfc9" stroke="none" stroke-width="0"/><path d="M231.02772,175.96562c0,0 -0.87908,-1.00095 -1.06134,-1.56916c-0.13125,-0.4092 0.06967,-1.5225 0.06967,-1.5225c0,0 0.14415,-0.1973 0.45294,-0.1201c0.31336,0.07834 1.41373,0.58676 1.41373,0.58676v2.625z" fill="#161616" stroke="none" stroke-width="0"/><path d="M241.35272,181.62395c0,0 -1.42857,-3.87701 -1.98554,-5.36584c-0.40461,-1.08154 -0.81446,-2.85916 -0.81446,-2.85916c0,0 2.73508,2.14031 3.54169,3.20503c0.55817,0.73679 1.06664,2.33663 1.06664,2.33663c0,0 0.37525,0.0479 0.34741,0.2845c-0.06064,0.5154 -0.69741,2.6905 -0.69741,2.6905c0,0 -0.41176,-0.90166 -0.64235,-0.88392c-0.26902,0.02069 -0.81598,0.59225 -0.81598,0.59225z" fill="#c5bfc9" stroke="none" stroke-width="0"/><path d="M247.47772,180.92395c0,0 1.80833,-1.81672 1.80833,-3.03333c0,-1.75272 -3.675,-6.475 -3.675,-6.475l1.4,0.29167c0,0 1.25256,0.74725 2.16613,1.73826c0.59925,0.65005 1.00313,1.35478 1.27711,1.90624c0.33611,0.67653 0.89298,2.41879 0.85992,3.70815c-0.00958,0.37366 0.03816,0.60241 -0.11551,0.88831c-0.58943,1.09657 -2.84597,1.09238 -2.84597,1.09238z" fill="#c5bfc9" stroke="none" stroke-width="0"/></g></g></svg>