<svg version="1.1" xmlns="http://www.w3.org/2000/svg" xmlns:xlink="http://www.w3.org/1999/xlink" width="17" height="27.16023" viewBox="0,0,17,27.16023"><defs><linearGradient x1="240" y1="175.47553" x2="240" y2="193.12553" gradientUnits="userSpaceOnUse" id="color-1"><stop offset="0" stop-color="#94b5e0"/><stop offset="1" stop-color="#839dbe"/></linearGradient><linearGradient x1="240" y1="180" x2="240" y2="180" gradientUnits="userSpaceOnUse" id="color-2"><stop offset="0" stop-color="#373c42"/><stop offset="1" stop-color="#6c4a4a"/></linearGradient><linearGradient x1="240" y1="180" x2="240" y2="180" gradientUnits="userSpaceOnUse" id="color-3"><stop offset="0" stop-color="#373c42"/><stop offset="1" stop-color="#6c4a4a"/></linearGradient><linearGradient x1="240" y1="180" x2="240" y2="180" gradientUnits="userSpaceOnUse" id="color-4"><stop offset="0" stop-color="#373c42"/><stop offset="1" stop-color="#6c4a4a"/></linearGradient><linearGradient x1="240" y1="180" x2="240" y2="180" gradientUnits="userSpaceOnUse" id="color-5"><stop offset="0" stop-color="#373c42"/><stop offset="1" stop-color="#6c4a4a"/></linearGradient><linearGradient x1="240" y1="180" x2="240" y2="180" gradientUnits="userSpaceOnUse" id="color-6"><stop offset="0" stop-color="#26272b"/><stop offset="1" stop-color="#464e39"/></linearGradient><linearGradient x1="240" y1="180" x2="240" y2="180" gradientUnits="userSpaceOnUse" id="color-7"><stop offset="0" stop-color="#26272b" stop-opacity="0"/><stop offset="1" stop-color="#26272b"/></linearGradient><linearGradient x1="240" y1="180" x2="240" y2="180" gradientUnits="userSpaceOnUse" id="color-8"><stop offset="0" stop-color="#2c3822"/><stop offset="1" stop-color="#464e39"/></linearGradient><linearGradient x1="240" y1="180" x2="240" y2="180" gradientUnits="userSpaceOnUse" id="color-9"><stop offset="0" stop-color="#483225" stop-opacity="0"/><stop offset="1" stop-color="#483225"/></linearGradient><linearGradient x1="240" y1="180" x2="240" y2="180" gradientUnits="userSpaceOnUse" id="color-10"><stop offset="0" stop-color="#483225" stop-opacity="0"/><stop offset="1" stop-color="#483225"/></linearGradient><linearGradient x1="240" y1="180" x2="240" y2="180" gradientUnits="userSpaceOnUse" id="color-11"><stop offset="0" stop-color="#483225" stop-opacity="0"/><stop offset="1" stop-color="#483225"/></linearGradient><linearGradient x1="240" y1="180" x2="240" y2="180" gradientUnits="userSpaceOnUse" id="color-12"><stop offset="0" stop-color="#4d322b"/><stop offset="1" stop-color="#4d322b" stop-opacity="0"/></linearGradient><linearGradient x1="240" y1="180" x2="240" y2="180" gradientUnits="userSpaceOnUse" id="color-13"><stop offset="0" stop-color="#2d1f12" stop-opacity="0"/><stop offset="1" stop-color="#2d1f12"/></linearGradient><linearGradient x1="240" y1="180" x2="240" y2="180" gradientUnits="userSpaceOnUse" id="color-14"><stop offset="0" stop-color="#654a37"/><stop offset="1" stop-color="#654a37" stop-opacity="0"/></linearGradient><linearGradient x1="240" y1="180" x2="240" y2="180" gradientUnits="userSpaceOnUse" id="color-15"><stop offset="0" stop-color="#614832" stop-opacity="0"/><stop offset="1" stop-color="#614832"/></linearGradient><linearGradient x1="240" y1="180" x2="240" y2="180" gradientUnits="userSpaceOnUse" id="color-16"><stop offset="0" stop-color="#4a3516" stop-opacity="0"/><stop offset="1" stop-color="#4a3516"/></linearGradient><linearGradient x1="240" y1="180" x2="240" y2="180" gradientUnits="userSpaceOnUse" id="color-17"><stop offset="0" stop-color="#4a3516" stop-opacity="0"/><stop offset="1" stop-color="#4a3516"/></linearGradient><linearGradient x1="240" y1="180" x2="240" y2="180" gradientUnits="userSpaceOnUse" id="color-18"><stop offset="0" stop-color="#8e6c51" stop-opacity="0"/><stop offset="1" stop-color="#8e6c51"/></linearGradient><linearGradient x1="241.40192" y1="166.73453" x2="241.40192" y2="188.58068" gradientUnits="userSpaceOnUse" id="color-19"><stop offset="0" stop-color="#dde0d9"/><stop offset="1" stop-color="#e0dfda"/></linearGradient><radialGradient cx="242.65" cy="172.93388" r="1.8" gradientUnits="userSpaceOnUse" id="color-20"><stop offset="0" stop-color="#f5dc8c"/><stop offset="1" stop-color="#f5dc8c" stop-opacity="0"/></radialGradient></defs><g transform="translate(-231.5,-166.7153)"><g data-paper-data="{&quot;isPaintingLayer&quot;:true}" fill-rule="nonzero" stroke-linecap="butt" stroke-linejoin="miter" stroke-miterlimit="10" stroke-dasharray="" stroke-dashoffset="0" style="mix-blend-mode: normal"><path d="M247.75,184.30053c0,4.87391 -3.46979,8.825 -7.75,8.825c-4.28021,0 -7.75,-3.95109 -7.75,-8.825c0,-4.87391 3.46979,-8.825 7.75,-8.825c4.28021,0 7.75,3.95109 7.75,8.825z" fill="url(#color-1)" stroke="#516a91" stroke-width="1.5"/><path d="M238.67115,189.3576c0,0 -2.16357,0.2149 -2.66245,-2.0834c-0.5517,-2.54163 0.57228,-7.71088 0.9492,-9.78763c0.53631,-2.95495 3.25171,-9.82127 3.25171,-9.82127c0,0 2.3108,-0.26504 3.45051,0.1104c0.35974,0.1185 0.38416,0.71188 0.86401,1.03326c0.89177,0.59728 2.22394,1.01019 2.22394,1.01019c0,0 -2.05547,0.45965 -2.14851,1.84133c-0.05078,0.75404 1.13286,1.61153 1.38168,2.58006c0.46123,1.79532 0.14646,3.78482 -0.02212,4.88327c-0.35605,2.32005 -1.59567,6.2338 -1.59567,6.2338c0,0 -0.74208,3.40711 -1.472,3.92003c-1.04915,0.73724 -4.22031,0.07997 -4.22031,0.07997z" fill-opacity="0.5" fill="#000000" stroke="none" stroke-width="0"/><path d="" fill="#000000" stroke="none" stroke-width="0"/><path d="" fill-opacity="0.5" fill="#000000" stroke="none" stroke-width="0"/><path d="" fill-opacity="0.5" fill="#000000" stroke="none" stroke-width="0"/><path d="" fill-opacity="0.5" fill="#000000" stroke="none" stroke-width="0"/><path d="" fill-opacity="0.5" fill="#000000" stroke="none" stroke-width="0"/><path d="" fill="#5e6669" stroke="#ffffff" stroke-width="0.5"/><path d="" fill="#464d55" stroke="none" stroke-width="0"/><path d="" fill="#464d55" stroke="none" stroke-width="0"/><path d="" fill="#464d55" stroke="none" stroke-width="0"/><path d="" fill="#464d55" stroke="none" stroke-width="0"/><path d="" fill="url(#color-2)" stroke="none" stroke-width="0"/><path d="" fill="url(#color-3)" stroke="none" stroke-width="0"/><path d="" fill="#464d55" stroke="none" stroke-width="0"/><path d="" fill="url(#color-4)" stroke="none" stroke-width="0"/><path d="" fill="url(#color-5)" stroke="none" stroke-width="0"/><path d="" fill="#ffffff" stroke="none" stroke-width="0"/><path d="" fill="#373c42" stroke="none" stroke-width="0"/><path d="" fill="#464e39" stroke="#ffffff" stroke-width="0.5"/><path d="" fill="#343321" stroke="none" stroke-width="0"/><path d="" fill="url(#color-6)" stroke="none" stroke-width="0"/><path d="" fill="url(#color-7)" stroke="none" stroke-width="0"/><path d="" fill="url(#color-8)" stroke="none" stroke-width="0"/><path d="" fill="#30351d" stroke="none" stroke-width="0"/><path d="" fill="#30351d" stroke="none" stroke-width="0"/><path d="" fill="#968780" stroke="#ffffff" stroke-width="0.5"/><path d="" fill="#695b5a" stroke="none" stroke-width="0"/><path d="" fill="url(#color-9)" stroke="none" stroke-width="0"/><path d="" fill="url(#color-10)" stroke="none" stroke-width="0"/><path d="" fill="url(#color-11)" stroke="none" stroke-width="0"/><path d="" fill="#5f5353" stroke="none" stroke-width="0"/><path d="" fill="#443a38" stroke="none" stroke-width="0"/><path d="" fill="#725f59" stroke="none" stroke-width="0"/><path d="" data-paper-data="{&quot;index&quot;:null}" fill="#725f59" stroke="none" stroke-width="0"/><path d="" fill="#725f59" stroke="none" stroke-width="0"/><path d="" fill="#7c6a66" stroke="none" stroke-width="0"/><path d="" fill="#61493b" stroke="#ffffff" stroke-width="0.5"/><path d="" fill="#4d322b" stroke="none" stroke-width="0"/><path d="" fill="url(#color-12)" stroke="none" stroke-width="0"/><path d="" fill="url(#color-13)" stroke="none" stroke-width="0"/><path d="" fill="#32251d" stroke="none" stroke-width="0"/><path d="" fill="#b7956f" stroke="#ffffff" stroke-width="0.5"/><path d="" fill="url(#color-14)" stroke="none" stroke-width="0"/><path d="" fill="#614832" stroke="none" stroke-width="0"/><path d="" fill="#765834" stroke="none" stroke-width="0"/><path d="" fill="url(#color-15)" stroke="none" stroke-width="0"/><path d="" fill="url(#color-16)" stroke="none" stroke-width="0"/><path d="" fill="url(#color-17)" stroke="none" stroke-width="0"/><path d="" fill="url(#color-18)" stroke="none" stroke-width="0"/><path d="M238.17115,188.6576c0,0 -2.16357,0.2149 -2.66245,-2.0834c-0.5517,-2.54163 0.57228,-7.71088 0.9492,-9.78763c0.53631,-2.95495 3.25171,-9.82127 3.25171,-9.82127c0,0 2.3108,-0.26504 3.45051,0.1104c0.35974,0.1185 0.38416,0.71188 0.86401,1.03326c0.89177,0.59728 2.22394,1.01019 2.22394,1.01019c0,0 -2.05547,0.45965 -2.14851,1.84133c-0.05078,0.75404 1.13286,1.61153 1.38168,2.58006c0.46123,1.79532 0.14646,3.78482 -0.02212,4.88327c-0.35605,2.32005 -1.59567,6.2338 -1.59567,6.2338c0,0 -0.74208,3.40711 -1.472,3.92003c-1.04915,0.73724 -4.22031,0.07997 -4.22031,0.07997z" fill="url(#color-19)" stroke="#ffffff" stroke-width="0.5"/><path d="M241.2,170.60888c0,0 -0.61053,-0.39279 -0.92718,-0.98548c-0.33257,-0.62251 -0.32282,-2.56452 -0.32282,-2.56452c0,0 0.72242,-0.15 1.75,-0.15c0.82984,0 1.6,0.4 1.6,0.4c0,0 0.83902,0.95677 1.26615,1.16297c0.52083,0.25143 1.73385,0.53703 1.73385,0.53703c0,0 -0.8309,0.29255 -1.50444,0.72153c-0.52043,0.33146 -0.90662,0.82497 -0.99495,0.82398c-0.64531,-0.00725 -2.60061,0.05449 -2.60061,0.05449z" fill="#1d1c17" stroke="none" stroke-width="0"/><path d="M235.85,187.05888c0,0 0.50015,-0.9347 0.2642,-2.3778c-0.1332,-0.81469 -0.55794,-2.17061 -0.38283,-3.20907c0.17231,-1.02189 0.49289,-1.87687 0.56294,-2.61839c0.16661,-1.76381 2.10569,-7.69474 2.10569,-7.69474l2.15,0.05c0,0 -0.23642,1.73933 -0.92536,3.77526c-0.7778,2.29851 -2.03629,5.00251 -2.37917,6.52372c-0.36152,1.60391 -0.24547,5.45102 -0.24547,5.45102z" fill="#1d1c17" stroke="none" stroke-width="0"/><path d="M238.8,188.50888c0,0 -0.45,-0.30442 -0.45,-0.45c0,-0.13726 0.45,-0.4 0.45,-0.4c0,0 1.10106,-0.3 1.65,-0.3c0.51564,0 1.55,0.3 1.55,0.3c0,0 0.35,0.21274 0.35,0.35c0,0.14558 -0.35,0.5 -0.35,0.5c0,0 -1.12526,0.2 -1.65,0.2c-0.5414,0 -1.55,-0.2 -1.55,-0.2z" fill="#1d1c17" stroke="none" stroke-width="0"/><path d="M244.45,172.93388c0,0.86985 -0.80589,1.575 -1.8,1.575c-0.99411,0 -1.8,-0.70515 -1.8,-1.575c0,-0.86985 0.80589,-1.575 1.8,-1.575c0.99411,0 1.8,0.70515 1.8,1.575z" fill="url(#color-20)" stroke="none" stroke-width="0"/></g></g></svg>