<svg version="1.1" xmlns="http://www.w3.org/2000/svg" xmlns:xlink="http://www.w3.org/1999/xlink" width="24.15811" height="19.18007" viewBox="0,0,24.15811,19.18007"><g transform="translate(-227.79594,-170.28987)"><g data-paper-data="{&quot;isPaintingLayer&quot;:true}" fill-rule="nonzero" stroke-linecap="butt" stroke-linejoin="miter" stroke-miterlimit="10" stroke-dasharray="" stroke-dashoffset="0" style="mix-blend-mode: normal"><path d="M247.52849,189.46993c0,0 -1.95005,-1.25273 -2.34359,-1.60717c-0.14648,-0.13193 -1.14356,-0.75343 -2.61836,-1.48403c-1.41267,-0.69981 -3.29861,-1.5047 -3.73759,-1.85277c-1.15838,-0.91849 -2.76371,-1.93689 -3.75981,-2.06195c-1.07519,-0.13499 -1.53054,0.6209 -2.49818,-0.58386c-0.85407,-1.06335 0.08414,-0.83679 0.62331,-1.058c0.75834,-0.31114 1.43803,-0.79732 1.43803,-0.79732c0,0 -0.94503,-0.60795 -1.57907,-1.69243c-0.57706,-0.98702 -0.80297,-2.41036 -1.64225,-3.32142c-0.56508,-0.61342 -1.81151,-0.2716 -2.41703,-0.4729c-0.36325,-0.12076 -0.22456,-0.74704 -0.3291,-1.02445c-0.42007,-1.11477 2.70463,-0.68421 3.22632,-0.86314c0.90498,-0.31038 1.57447,-1.48053 2.38131,-1.53044c2.24056,-0.13859 4.6629,1.2174 6.6669,2.3475c1.76451,0.99506 3.25911,1.77418 3.25911,1.77418c0,0 1.85952,2.50874 2.80224,4.18707c0.26778,0.47672 0.30306,1.6093 0.9143,2.42514c1.13493,1.51481 3.06998,2.97493 3.81042,4.42809c1.05737,2.07514 -1.89623,3.18791 -1.89623,3.18791z" fill-opacity="0.50252" fill="#000000" stroke="none" stroke-width="0"/><path d="M246.94831,188.88975c0,0 -1.95005,-1.25273 -2.34359,-1.60717c-0.14648,-0.13193 -1.14355,-0.75343 -2.61836,-1.48403c-1.41266,-0.69981 -3.29861,-1.5047 -3.73759,-1.85277c-1.15838,-0.91849 -2.76371,-1.93689 -3.75981,-2.06195c-1.07519,-0.13499 -1.53054,0.6209 -2.49818,-0.58386c-0.85407,-1.06335 0.08414,-0.83679 0.62331,-1.058c0.75834,-0.31114 1.43803,-0.79732 1.43803,-0.79732c0,0 -0.94503,-0.60794 -1.57907,-1.69243c-0.57706,-0.98702 -0.80297,-2.41035 -1.64225,-3.32142c-0.56508,-0.61342 -1.81151,-0.2716 -2.41703,-0.4729c-0.36325,-0.12076 -0.22456,-0.74704 -0.3291,-1.02445c-0.42007,-1.11477 2.70463,-0.68421 3.22632,-0.86314c0.90498,-0.31038 1.57447,-1.48053 2.38131,-1.53044c2.24056,-0.13859 4.6629,1.2174 6.6669,2.3475c1.76451,0.99506 3.25911,1.77418 3.25911,1.77418c0,0 1.85952,2.50874 2.80224,4.18707c0.26778,0.47672 0.30306,1.6093 0.9143,2.42514c1.13493,1.51481 3.06998,2.97493 3.81042,4.42809c1.05737,2.07514 -1.89623,3.18791 -1.89623,3.18791z" fill="#784a32" stroke="#ffffff" stroke-width="0.5"/><path d="M247.12994,188.76866c0,0 -2.67381,-1.65142 -2.69585,-2.3017c-0.01229,-0.36244 0.45566,-1.08885 0.45566,-1.08885c0,0 1.5088,-1.31834 2.50303,-1.54345c0.62322,-0.14111 2.16313,0.1325 2.98309,0.89339c0.66424,0.61639 0.87116,1.80042 0.87116,1.80042c0,0 -0.15064,0.69323 -0.34205,0.92566c-0.3122,0.3791 -1.53486,1.25398 -1.53486,1.25398z" fill="#21120f" stroke="none" stroke-width="0"/><path d="M228.42137,173.87446l-0.12109,-1.39255c0,0 1.80444,-0.17659 2.78649,-0.35565c1.00992,-0.18414 1.14183,-0.49199 1.4517,-0.49199c0.15996,0 0.60546,0.78709 0.60546,0.78709l-2.30073,1.63473z" fill="#21120f" stroke="none" stroke-width="0"/><path d="M233.02283,181.80592c0,0 -0.56225,-0.26004 -0.71303,-0.4463c-0.18519,-0.22876 -0.49788,-0.70407 -0.49788,-0.70407l2.90619,-1.27146c0,0 1.22732,0.59583 1.30717,0.94186c0.09803,0.42479 -0.76226,1.41942 -0.76226,1.41942z" fill="#21120f" stroke="none" stroke-width="0"/><path d="M239.31957,184.34883l1.45309,-0.54491c0,0 1.34201,-0.44295 1.81576,-0.45282c0.49412,-0.01029 1.09042,0.39227 1.09042,0.39227l0.12109,2.78509z" fill="#21120f" stroke="none" stroke-width="0"/><path d="M243.73939,186.58902c0,0 0.59311,-3.78037 0.49382,-5.74619c-0.10244,-2.02823 -1.09928,-6.24183 -1.09928,-6.24183l0.666,0.36327c0,0 1.40609,2.08856 2.53945,4.21181c0.41173,0.77134 0.26191,1.59981 0.73902,2.26005c1.2589,1.74211 3.00543,2.09026 2.6219,2.96628c-0.2908,0.66422 -2.22898,-0.60526 -3.05453,-0.17431c-1.55196,0.81014 -1.99819,2.84528 -1.99819,2.84528z" fill="#5e3523" stroke="none" stroke-width="0"/><path d="M239.56175,184.34883c0,0 -1.38077,-0.71903 -2.67148,-1.56275c-0.52245,-0.34152 -1.38452,-0.60222 -1.58481,-1.00092c-0.21781,-0.43359 0.76822,-0.74886 0.5462,-1.46904c-0.2195,-0.71199 -1.61786,-0.60494 -2.18565,-1.32735c-0.61173,-0.7783 -1.09554,-0.4211 -1.25351,-1.54145c-0.10319,-0.73182 -1.5007,-2.64901 -1.46471,-3.564c0.02769,-0.70392 1.47784,-0.92336 1.80982,-1.35846c0.43763,-0.57356 -0.27969,-0.8906 -0.27969,-0.8906l1.08982,-0.84764c0,0 1.15882,5.29584 2.42585,7.44473c1.2556,2.12949 5.14234,5.39093 5.14234,5.39093z" fill="#5e3523" stroke="none" stroke-width="0"/></g></g></svg>