<svg version="1.1" xmlns="http://www.w3.org/2000/svg" xmlns:xlink="http://www.w3.org/1999/xlink" width="30.34474" height="19.43299" viewBox="0,0,30.34474,19.43299"><defs><linearGradient x1="240" y1="180" x2="240" y2="180" gradientUnits="userSpaceOnUse" id="color-1"><stop offset="0" stop-color="#373c42"/><stop offset="1" stop-color="#6c4a4a"/></linearGradient><linearGradient x1="240" y1="180" x2="240" y2="180" gradientUnits="userSpaceOnUse" id="color-2"><stop offset="0" stop-color="#373c42"/><stop offset="1" stop-color="#6c4a4a"/></linearGradient><linearGradient x1="240" y1="180" x2="240" y2="180" gradientUnits="userSpaceOnUse" id="color-3"><stop offset="0" stop-color="#373c42"/><stop offset="1" stop-color="#6c4a4a"/></linearGradient><linearGradient x1="240" y1="180" x2="240" y2="180" gradientUnits="userSpaceOnUse" id="color-4"><stop offset="0" stop-color="#373c42"/><stop offset="1" stop-color="#6c4a4a"/></linearGradient><linearGradient x1="240.66145" y1="183.39448" x2="240.66145" y2="188.9216" gradientUnits="userSpaceOnUse" id="color-5"><stop offset="0" stop-color="#7e7b76" stop-opacity="0"/><stop offset="1" stop-color="#7e7b76"/></linearGradient><linearGradient x1="252.26796" y1="181.30712" x2="252.26796" y2="187.92449" gradientUnits="userSpaceOnUse" id="color-6"><stop offset="0" stop-color="#7e7b76" stop-opacity="0"/><stop offset="1" stop-color="#7e7b76"/></linearGradient><linearGradient x1="228.52981" y1="174.86739" x2="228.52981" y2="175.40033" gradientUnits="userSpaceOnUse" id="color-7"><stop offset="0" stop-color="#706b55"/><stop offset="1" stop-color="#7e7b76"/></linearGradient><linearGradient x1="231.54982" y1="173.84592" x2="231.54982" y2="174.9118" gradientUnits="userSpaceOnUse" id="color-8"><stop offset="0" stop-color="#706b55"/><stop offset="1" stop-color="#7e7b76"/></linearGradient><linearGradient x1="225.55421" y1="176.64387" x2="225.55421" y2="177.1324" gradientUnits="userSpaceOnUse" id="color-9"><stop offset="0" stop-color="#706b55"/><stop offset="1" stop-color="#7e7b76"/></linearGradient></defs><g transform="translate(-224.70263,-170.15853)"><g data-paper-data="{&quot;isPaintingLayer&quot;:true}" fill-rule="nonzero" stroke-linecap="butt" stroke-linejoin="miter" stroke-miterlimit="10" stroke-dasharray="" stroke-dashoffset="0" style="mix-blend-mode: normal"><path d="M234.88437,179.33445c0,0 -3.52873,1.32498 -6.11974,0.95733c-1.92794,-0.27357 -3.6817,-2.06391 -3.16005,-3.13914c0.16868,-0.34767 0.73711,-2.31335 2.58506,-3.55993c2.1388,-1.44277 5.98414,-1.80828 5.98414,-1.80828c0,0 4.48673,-0.94383 7.63853,-0.95033c3.8769,-0.00799 9.40985,0.84069 9.40172,0.99859c-0.01979,0.38456 2.40015,2.13643 2.96146,4.21085c0.35404,1.30843 0.50471,2.71705 0.18008,4.00623c-0.19898,0.7902 -0.90924,1.50778 -0.88205,2.21147c0.0625,1.61785 1.57385,2.97999 1.57385,2.97999c0,0 -1.08387,3.35876 -2.2395,3.08856c-0.5579,-0.13045 -0.68216,-0.04796 -0.96856,-0.10614c-0.12168,-0.02472 -0.34541,0.03435 -0.52562,-0.13681c-0.31993,-0.30387 0.82631,-2.58251 0.5227,-2.81445c-0.15665,-0.11967 -0.57755,-0.00441 -0.66362,-0.03211c-0.28469,-0.09161 0.00347,0.01868 -0.57826,-0.13154c-0.25784,-0.06658 -0.18399,1.40409 -0.69086,2.1807c-0.4496,0.68888 -1.48868,0.68965 -1.64259,0.7073c-0.25369,0.02909 -1.62329,-0.19886 -2.0416,-0.38857c-0.42796,-0.19408 0.41768,-1.43421 0.63912,-2.4689c0.15706,-0.73389 -0.24267,-1.36443 -0.55068,-1.44504c-0.75369,-0.19725 -0.94022,-0.04763 -1.69762,-0.05262c-0.36737,-0.00242 -0.31223,1.7188 -0.83096,3.15857c-0.54159,1.50321 -1.65673,2.7276 -2.01054,2.72054c-2.04305,-0.04075 -2.04514,0.22369 -3.5879,-0.06884c-0.10061,-0.01908 -0.21373,-0.54677 0.22598,-1.09054c0.33754,-0.41741 1.238,-0.84429 1.28005,-1.0578c0.24887,-1.26348 0.68152,-3.50116 -0.61671,-3.66197c-1.19425,-0.14793 -1.69273,2.06209 -2.77074,2.78975c-1.50891,1.01852 -3.47161,0.66638 -4.06689,0.37888c-1.02566,-0.49538 -2.15185,-1.48277 -1.4342,-1.89074c0.42281,-0.24036 2.36726,-0.26162 2.75286,-0.81154c1.12701,-1.6073 1.33314,-4.77346 1.33314,-4.77346z" fill-opacity="0.5" fill="#000000" stroke="none" stroke-width="0"/><path d="" fill-opacity="0.5" fill="#000000" stroke="none" stroke-width="0"/><path d="" fill="#5e6669" stroke="#ffffff" stroke-width="0.5"/><path d="" fill="#464d55" stroke="none" stroke-width="0"/><path d="" fill="#464d55" stroke="none" stroke-width="0"/><path d="" fill="#464d55" stroke="none" stroke-width="0"/><path d="" fill="#464d55" stroke="none" stroke-width="0"/><path d="" fill="url(#color-1)" stroke="none" stroke-width="0"/><path d="" fill="url(#color-2)" stroke="none" stroke-width="0"/><path d="" fill="#464d55" stroke="none" stroke-width="0"/><path d="" fill="url(#color-3)" stroke="none" stroke-width="0"/><path d="" fill="url(#color-4)" stroke="none" stroke-width="0"/><path d="" fill="#ffffff" stroke="none" stroke-width="0"/><path d="" fill="#373c42" stroke="none" stroke-width="0"/><path d="M234.32556,178.90888c0,0 -3.52873,1.32498 -6.11974,0.95733c-1.92794,-0.27357 -3.6817,-2.06391 -3.16005,-3.13914c0.16868,-0.34767 0.73711,-2.31335 2.58506,-3.55993c2.1388,-1.44277 5.98414,-1.80828 5.98414,-1.80828c0,0 4.48673,-0.94383 7.63853,-0.95033c3.8769,-0.00799 9.40985,0.84069 9.40172,0.99859c-0.01979,0.38456 2.40014,2.13642 2.96145,4.21085c0.35404,1.30843 0.50471,2.71705 0.18008,4.00623c-0.19898,0.7902 -0.90924,1.50778 -0.88205,2.21147c0.0625,1.61785 1.57385,2.97999 1.57385,2.97999c0,0 -1.08387,3.35876 -2.2395,3.08856c-0.5579,-0.13045 -0.68216,-0.04795 -0.96856,-0.10614c-0.12168,-0.02472 -0.34541,0.03434 -0.52562,-0.13681c-0.31993,-0.30387 0.82631,-2.58251 0.5227,-2.81445c-0.15665,-0.11967 -0.57755,-0.00441 -0.66362,-0.03211c-0.28469,-0.09161 0.00347,0.01868 -0.57826,-0.13154c-0.25785,-0.06658 -0.184,1.40408 -0.69087,2.1807c-0.4496,0.68888 -1.48867,0.68965 -1.64259,0.7073c-0.25369,0.02909 -1.62329,-0.19887 -2.0416,-0.38857c-0.42796,-0.19408 0.41768,-1.43421 0.63912,-2.4689c0.15706,-0.73389 -0.24267,-1.36443 -0.55068,-1.44504c-0.75369,-0.19725 -0.94022,-0.04763 -1.69762,-0.05262c-0.36737,-0.00242 -0.31223,1.7188 -0.83096,3.15857c-0.54159,1.50321 -1.65673,2.7276 -2.01054,2.72054c-2.04305,-0.04075 -2.04514,0.22369 -3.5879,-0.06884c-0.10061,-0.01908 -0.21373,-0.54678 0.22598,-1.09054c0.33754,-0.41741 1.238,-0.84429 1.28005,-1.0578c0.24887,-1.26348 0.68152,-3.50116 -0.61671,-3.66197c-1.19425,-0.14793 -1.69273,2.0621 -2.77074,2.78975c-1.50891,1.01852 -3.47161,0.66638 -4.06689,0.37888c-1.02566,-0.49537 -2.15185,-1.48277 -1.4342,-1.89074c0.42281,-0.24036 2.36726,-0.26162 2.75286,-0.81154c1.12701,-1.6073 1.33314,-4.77346 1.33314,-4.77346z" fill="#ebe3d6" stroke="#ffffff" stroke-width="0.5"/><path d="M232.28261,186.37007c0,0 -2.27011,-1.22501 -2.02462,-1.61524c0.19964,-0.31736 1.48211,-0.31532 2.21961,-0.66281c0.71808,-0.33834 1.11387,-1.02419 1.29045,-1.47931c0.35814,-0.92309 0.64633,-3.79266 0.64633,-3.79266c0,0 1.43994,0.25579 2.15167,0.52467c0.60224,0.22751 1.88981,1.87357 1.88981,1.87357c0,0 0.12338,1.19094 0.04707,1.42257c-0.14078,0.42732 -0.53421,0.31121 -0.62265,0.488c-0.40488,0.80938 -0.91693,1.03692 -1.4242,1.72753c-0.48349,0.65824 -1.68641,1.38043 -1.68641,1.38043c0,0 -0.87047,0.31072 -1.28439,0.3329c-0.4151,0.02224 -1.20268,-0.19966 -1.20268,-0.19966z" fill="#6e655e" stroke="none" stroke-width="0"/><path d="M245.78382,187.03625c0,0 0.04723,-0.3744 0.20382,-0.82136c0.2123,-0.60597 0.55118,-1.38254 0.55118,-1.88776c0,-0.47892 -0.62177,-1.42118 -0.62177,-1.42118l2.13177,0.08882c0,0 0.97561,0.41117 1.26814,1.16242c0.0779,0.20005 0.38963,0.4686 0.41136,0.69946c0.06774,0.71965 -0.35961,1.46024 -0.47315,1.78464c-0.19622,0.56064 -1.02869,0.70584 -1.02869,0.70584c0,0 -0.91136,-0.00389 -1.63815,-0.15733c-0.40238,-0.08495 -0.8045,-0.15355 -0.8045,-0.15355z" fill="#6e655e" stroke="none" stroke-width="0"/><path d="M237.8341,188.76832c0,0 -0.17685,-0.25326 0.01464,-0.57685c0.23046,-0.38943 1.01254,-0.67159 1.39339,-1.17603c0.41079,-0.54407 0.41286,-1.31046 0.41286,-1.71125c0,-0.99985 -0.13323,-1.77647 -0.13323,-1.77647l4.04148,-0.13324c0,0 -0.32579,2.37354 -0.72744,3.35011c-0.34456,0.83775 -1.53756,2.15697 -1.53756,2.15697c0,0 -0.74735,0.0399 -1.8211,0.00711c-0.6863,-0.02096 -1.64302,-0.14034 -1.64302,-0.14034z" fill="url(#color-5)" stroke="none" stroke-width="0"/><path d="M249.60325,184.63801c0,0 -0.29534,-0.56792 -0.47188,-0.8012c-0.22575,-0.29831 -1.17136,-0.84203 -1.17136,-0.84203c0,0 0.76414,-3.62041 1.53753,-3.80239c0.73463,-0.17285 2.99249,2.7365 2.99249,2.7365c0,0 0.55035,1.03736 0.82647,1.78291c0.07606,0.20537 0.3976,0.79824 0.63763,0.9447c0.22125,0.135 0.13783,-0.18275 0.25457,0.13593c0.08343,0.22777 -0.0868,0.53649 -0.21528,0.83872c-0.10498,0.24695 -0.15255,0.48957 -0.2561,0.68014c-0.43662,0.80352 -0.892,1.30233 -0.892,1.30233c0,0 -0.44166,0.07147 -1.02387,-0.07957c-0.22262,-0.05776 -0.63694,0.1683 -0.86587,-0.07866c-0.57127,-0.61625 0.97396,-2.58059 0.62324,-2.80627c-0.36365,-0.234 -1.97557,-0.0111 -1.97557,-0.0111z" fill="url(#color-6)" stroke="none" stroke-width="0"/><path d="M228.32995,175.40033v-0.53294h0.39971v0.53294z" fill="url(#color-7)" stroke="none" stroke-width="0"/><path d="M231.30555,174.9118v-1.06589h0.48853v1.06589z" fill="url(#color-8)" stroke="none" stroke-width="0"/><path d="M225.30995,177.1324v-0.48853h0.48853v0.48853z" fill="url(#color-9)" stroke="none" stroke-width="0"/><path d="M230.15084,179.53064c0,0 -3.04237,0.72744 -3.07398,-0.44626c-0.00766,-0.28452 2.04009,-1.83556 2.1742,-2.16048c0.10951,-0.26531 1.11703,-0.38921 1.8354,-0.79714c0.59575,-0.33831 0.9233,-0.96904 1.00293,-1.15843c0.26042,-0.6194 0.03927,-1.42821 0.28911,-1.5355c0.21904,-0.09406 0.76961,-0.22588 0.8918,0.03474c0.26499,0.56518 -0.0046,1.98922 0.39328,2.6913c0.59258,1.04565 1.75315,1.11905 2.06844,0.7821c0.63691,-0.68068 0.19236,-3.36153 0.19236,-3.36153l1.59883,-0.31088l-0.88824,5.10737c0,0 0.24459,0.81731 -0.26301,0.9077c-0.16222,0.02889 -0.68913,-0.02654 -1.13724,-0.16623c-0.39724,-0.12383 -0.81188,-0.15525 -0.90799,-0.14811c-0.81525,0.06058 -1.88819,0.39259 -2.67767,0.54467c-0.97462,0.18774 -1.49824,0.01668 -1.49824,0.01668z" fill="#aca090" stroke="none" stroke-width="0"/><path d="M243.78529,182.99477l-1.51,-7.41679c0,0 1.25055,3.13884 2.22214,4.26842c0.1802,0.2095 0.39369,-1.10817 0.54132,-0.94659c0.14283,0.15632 0.56934,-0.0199 0.64626,0.08296c0.20283,0.27123 0.40971,1.70257 0.40971,1.70257c0,0 1.8887,0.29335 2.16426,0.68064c0.27214,0.38246 -0.25455,1.62878 -0.25455,1.62878z" fill="#aca090" stroke="none" stroke-width="0"/><path d="M251.64619,179.79711c0,-1.26255 0,-3.95292 0,-4.79648c0,-0.49287 0.3091,-1.29627 0.57988,-1.26648c0.3396,0.03735 0.6698,0.35671 0.83333,0.60555c0.36959,0.56241 0.62974,2.70388 0.62974,2.70388c0,0 0.30339,1.19161 0.2576,1.77925c-0.04284,0.54974 -0.52408,1.64047 -0.52408,1.64047c0,0 -0.46213,0.57735 -0.755,0.57735c-0.18154,0 -1.02147,-0.8361 -1.02147,-1.24353z" fill="#aca090" stroke="none" stroke-width="0"/></g></g></svg>