<svg version="1.1" xmlns="http://www.w3.org/2000/svg" xmlns:xlink="http://www.w3.org/1999/xlink" width="24.52852" height="21.62104" viewBox="0,0,24.52852,21.62104"><defs><linearGradient x1="240" y1="180" x2="240" y2="180" gradientUnits="userSpaceOnUse" id="color-1"><stop offset="0" stop-color="#373c42"/><stop offset="1" stop-color="#6c4a4a"/></linearGradient><linearGradient x1="240" y1="180" x2="240" y2="180" gradientUnits="userSpaceOnUse" id="color-2"><stop offset="0" stop-color="#373c42"/><stop offset="1" stop-color="#6c4a4a"/></linearGradient><linearGradient x1="240" y1="180" x2="240" y2="180" gradientUnits="userSpaceOnUse" id="color-3"><stop offset="0" stop-color="#373c42"/><stop offset="1" stop-color="#6c4a4a"/></linearGradient><linearGradient x1="240" y1="180" x2="240" y2="180" gradientUnits="userSpaceOnUse" id="color-4"><stop offset="0" stop-color="#373c42"/><stop offset="1" stop-color="#6c4a4a"/></linearGradient><linearGradient x1="238.41208" y1="183.33412" x2="238.41208" y2="189.9746" gradientUnits="userSpaceOnUse" id="color-5"><stop offset="0" stop-color="#362617" stop-opacity="0"/><stop offset="1" stop-color="#362617"/></linearGradient><linearGradient x1="246.61796" y1="183.27529" x2="246.61796" y2="189.86353" gradientUnits="userSpaceOnUse" id="color-6"><stop offset="0" stop-color="#362617" stop-opacity="0"/><stop offset="1" stop-color="#362617"/></linearGradient><linearGradient x1="250.70325" y1="182.44" x2="250.70325" y2="188.37333" gradientUnits="userSpaceOnUse" id="color-7"><stop offset="0" stop-color="#362617" stop-opacity="0"/><stop offset="1" stop-color="#362617"/></linearGradient><linearGradient x1="229.61122" y1="173.85111" x2="229.61122" y2="176.33865" gradientUnits="userSpaceOnUse" id="color-8"><stop offset="0" stop-color="#715027" stop-opacity="0"/><stop offset="1" stop-color="#715027"/></linearGradient></defs><g transform="translate(-227.61074,-169.10366)"><g data-paper-data="{&quot;isPaintingLayer&quot;:true}" fill-rule="nonzero" stroke-linecap="butt" stroke-linejoin="miter" stroke-miterlimit="10" stroke-dasharray="" stroke-dashoffset="0" style="mix-blend-mode: normal"><path d="M231.72348,176.42064c0,0 -3.33334,2.43705 -3.33334,-1.33334c0,-1.05818 0.72305,-0.97734 1.25786,-1.35646c0.54171,-0.38401 0.89677,-1.22476 1.13773,-1.80486c0.34065,-0.82009 0.17159,-1.87783 0.5918,-1.95535c0.23566,-0.04348 1.04519,0.00241 1.41665,-0.02965c0.38236,-0.03299 2.63588,-0.0658 3.78468,0.78314c0.87682,0.64795 2.23701,1.89443 2.82536,2.82369c0.49988,0.78952 0.25718,1.32689 0.65315,1.31934c4.60962,-0.08792 7.8823,-0.28838 9.344,-0.17594c0.48094,0.03699 0.98877,0.47942 0.98877,0.47942c0,0 0.41433,0.77464 0.54154,1.50726c0.23686,1.36414 -0.21313,3.72454 0.0303,6.05112c0.20761,1.9842 1.12407,3.92108 1.17512,5.44172c0.05142,1.53153 -0.8303,0.48226 -0.8303,0.91656c0,0.50897 -0.5,-2.83333 -0.5,-2.83333c0,0 -0.18474,1.85631 -0.46578,1.47479c-0.49346,-0.6699 -0.11714,0.43387 -0.72545,-0.79598c-0.6902,-1.39542 -0.94716,-3.13718 -1.21953,-3.27392c-0.56375,-0.28303 1.18545,5.70405 0.65932,5.70964c-0.77637,0.00824 -0.80367,1.26312 -1.49894,1.25614c-0.98237,-0.00986 -0.96504,0.29138 -1.62375,-0.31017c-0.22332,-0.20395 1.88818,-1.93122 1.67166,-2.18448c-0.30659,-0.3586 -0.11472,-1.98889 -0.41742,-2.38892c-0.70091,-0.9263 -0.16943,-3.91368 -1.0669,-4.47248c-0.75664,-0.47111 -2.33927,1.23353 -3.47126,1.75413c-1.05534,0.48534 -1.66449,-0.22199 -2.30163,-0.31866c-0.65631,-0.09958 0.11866,8.09784 -0.49173,7.91742c-0.90185,-0.26657 -1.17906,0.4314 -1.95414,-0.1069c-0.26921,-0.18697 0.45422,-1.7483 0.37624,-3.50932c-0.10501,-2.37127 -1.48547,-5.02129 -1.78574,-5.24877c-0.33318,-0.25241 -0.65955,-0.92689 -1.4168,-2.0976c-0.68431,-1.05795 -1.06216,-3.1281 -1.21859,-3.23754c-0.80214,-0.56116 -2.13289,-0.00072 -2.13289,-0.00072z" fill-opacity="0.5" fill="#000000" stroke="none" stroke-width="0"/><path d="" fill-opacity="0.5" fill="#000000" stroke="none" stroke-width="0"/><path d="" fill="#5e6669" stroke="#ffffff" stroke-width="0.5"/><path d="" fill="#464d55" stroke="none" stroke-width="0"/><path d="" fill="#464d55" stroke="none" stroke-width="0"/><path d="" fill="#464d55" stroke="none" stroke-width="0"/><path d="" fill="#464d55" stroke="none" stroke-width="0"/><path d="" fill="url(#color-1)" stroke="none" stroke-width="0"/><path d="" fill="url(#color-2)" stroke="none" stroke-width="0"/><path d="" fill="#464d55" stroke="none" stroke-width="0"/><path d="" fill="url(#color-3)" stroke="none" stroke-width="0"/><path d="" fill="url(#color-4)" stroke="none" stroke-width="0"/><path d="" fill="#ffffff" stroke="none" stroke-width="0"/><path d="" fill="#373c42" stroke="none" stroke-width="0"/><path d="M231.19407,175.8324c0,0 -3.33333,2.43706 -3.33333,-1.33333c0,-1.05818 0.72306,-0.97735 1.25786,-1.35646c0.54171,-0.38401 0.89676,-1.22477 1.13772,-1.80486c0.34066,-0.82009 0.17159,-1.87783 0.5918,-1.95536c0.23566,-0.04348 1.04519,0.00241 1.41665,-0.02965c0.38236,-0.033 2.63588,-0.0658 3.78469,0.78314c0.87682,0.64795 2.23701,1.89443 2.82536,2.8237c0.49988,0.78953 0.25718,1.32689 0.65315,1.31934c4.60962,-0.08792 7.8823,-0.28838 9.344,-0.17594c0.48094,0.037 0.98876,0.47943 0.98876,0.47943c0,0 0.41433,0.77463 0.54154,1.50726c0.23687,1.36414 -0.21313,3.72454 0.0303,6.05112c0.20761,1.9842 1.12407,3.92108 1.17512,5.44172c0.05142,1.53153 -0.8303,0.48226 -0.8303,0.91656c0,0.50897 -0.53333,-2.83333 -0.53333,-2.83333c0,0 -0.15142,1.85631 -0.43245,1.47479c-0.49347,-0.6699 -0.11714,0.43387 -0.72545,-0.79598c-0.6902,-1.39541 -0.11383,-3.37052 -0.3862,-3.50726c-0.13166,-0.0661 -0.98262,0.18919 -0.99009,0.67053c-0.02452,1.57965 1.21933,5.26816 0.81607,5.27244c-0.77637,0.00824 -0.80367,1.26312 -1.49894,1.25614c-0.98237,-0.00986 -0.96504,0.29138 -1.62375,-0.31017c-0.22333,-0.20395 1.88819,-1.93122 1.67166,-2.18448c-0.30659,-0.3586 -0.11473,-1.98889 -0.41742,-2.38892c-0.70091,-0.9263 -0.16943,-3.91368 -1.0669,-4.47248c-0.75665,-0.47111 -2.33927,1.23353 -3.47126,1.75413c-1.05533,0.48534 -1.66449,-0.22198 -2.30163,-0.31866c-0.6563,-0.09958 0.11866,8.09784 -0.49173,7.91742c-0.90185,-0.26657 -1.17906,0.43141 -1.95414,-0.1069c-0.26921,-0.18697 0.45422,-1.7483 0.37624,-3.50932c-0.105,-2.37127 -1.48547,-5.02128 -1.78575,-5.24877c-0.33318,-0.25241 -0.65955,-0.92689 -1.4168,-2.0976c-0.68431,-1.05795 -1.06217,-3.1281 -1.21859,-3.23753c-0.80214,-0.56117 -2.1329,-0.00072 -2.1329,-0.00072z" fill="#b7a380" stroke="#ffffff" stroke-width="0.5"/><path d="M234.76502,171.04c0,0 -2.83625,-0.36653 -3.55926,-0.62111c-0.66414,-0.23385 -0.49956,-1.02594 -0.49956,-1.02594c0,0 0.64915,-0.11765 1.05882,-0.11765c0.67011,0 2.42392,0.13454 3.74369,0.61923c1.05225,0.38644 1.60925,1.38077 1.60925,1.38077c0,0 1.04818,0.9622 1.28129,1.36045c0.23739,0.40555 0.65988,1.58073 0.65988,1.58073z" fill="#3c270c" stroke="none" stroke-width="0"/><path d="M241.52972,182.45177c0,0 -1.56581,-0.3236 -1.80648,-0.59636c-0.32299,-0.36606 -0.25235,-1.58011 -0.25235,-1.58011c0,0 0.34025,-0.35979 0.68572,-0.41664c0.62587,-0.10299 1.27115,-0.49623 2.12698,-0.55767c0.14545,-0.01044 0.69427,-0.16468 1.06614,-0.27304c0.20515,-0.05978 0.59175,-0.10559 0.59175,-0.10559c0,0 0.62186,0.71658 0.6448,1.05499c0.03958,0.58387 -0.29186,0.76854 -0.29186,0.76854c0,0 -1.35318,1.05895 -1.87059,1.31765c-0.50172,0.25086 -0.89412,0.38824 -0.89412,0.38824z" fill="#f1f1e7" stroke="none" stroke-width="0"/><path d="M236.29443,181.21647c0,0 -0.67311,-0.83319 -1.01357,-1.34389c-0.45137,-0.67706 -1.10407,-1.8914 -1.10407,-1.8914c0,0 0.5573,-0.57833 0.87376,-0.59943c0.26102,-0.0174 1.12624,0.30531 1.12624,0.30531c0,0 0.84527,1.26344 0.98962,1.84083c0.12826,0.51302 -0.28374,2.62976 -0.28374,2.62976z" fill="#f1f1e7" stroke="none" stroke-width="0"/><path d="M237.52972,189.74588c0,0 0.52941,-2.11881 0.52941,-3.35294c0,-0.98251 -0.70588,-3.05882 -0.70588,-3.05882l1.92549,0.03333l0.04902,6.39412c0,0 -0.64413,0.19366 -0.91621,0.2118c-0.31095,0.02073 -0.88183,-0.22749 -0.88183,-0.22749z" fill="url(#color-5)" stroke="none" stroke-width="0"/><path d="M245.64737,189.80471c0,0 0.07762,-0.36492 0.55503,-0.86654c0.36184,-0.38019 1.04276,-0.77891 1.10525,-1.18512c0.04416,-0.28703 -0.12065,-0.73785 -0.19926,-1.19605c-0.04612,-0.26882 0.02452,-0.51832 -0.02091,-0.79703c-0.09616,-0.58995 -0.38882,-1.05164 -0.46395,-1.43275c-0.0562,-0.28513 -0.03499,-0.64016 -0.03499,-0.64016c0,0 -0.0277,-1.41483 0.12157,-1.45464c0.1447,-0.03859 0.76078,1.21935 0.76078,1.21935c0,0 0.06651,1.25999 0.20708,1.97938c0.18196,0.93121 0.79292,3.13827 0.79292,3.13827c0,0 -0.30341,0.0115 -0.57526,0.29523c-0.32968,0.34408 -0.66002,0.97871 -0.9503,1.06995c-0.75876,0.23847 -1.29796,-0.12988 -1.29796,-0.12988z" fill="url(#color-6)" stroke="none" stroke-width="0"/><path d="M250.86992,188.20667c0,0 -0.17814,-1.78957 -0.40999,-2.72237c-0.08956,-0.36034 -0.05025,-0.99698 -0.21814,-1.49073c-0.29172,-0.85789 -0.8052,-1.55356 -0.8052,-1.55356l0.73333,-0.23333c0,0 0.11421,0.79638 0.35997,1.74372c0.26709,1.02956 0.67143,2.2374 0.77854,2.79502c0.11264,0.58638 0.09482,1.42793 0.09482,1.42793z" fill="url(#color-7)" stroke="none" stroke-width="0"/><path d="M248.70619,184.86353c0,0 0.64706,-4.49489 0.64706,-6.88236c0,-1.63095 -2,-3.64705 -2,-3.64705c0,0 1.29733,-0.08638 1.77306,0.09582c0.14739,0.05645 0.5416,0.12288 0.68812,0.26498c0.29445,0.28558 0.30352,0.69803 0.30352,0.69803c0,0 0.18695,0.78433 0.19579,1.88219c0.01568,1.94822 -0.15031,4.88377 -0.21283,6.1758c-0.02307,0.47685 -0.06538,1.46378 -0.1101,2.0049c-0.07965,0.96372 -0.16698,1.40769 -0.16698,1.40769c0,0 -0.46786,-0.43784 -0.66075,-0.78301c-0.17855,-0.3195 -0.4569,-1.21699 -0.4569,-1.21699z" fill="#3c270c" stroke="none" stroke-width="0"/><path d="M231.13659,172.41778v-0.66667h1.03333v0.66667z" fill="#715027" stroke="none" stroke-width="0"/><path d="M228.33659,175.78445c0,0 -0.24497,-0.64175 -0.25063,-0.96982c-0.00545,-0.31591 0.2173,-0.96352 0.2173,-0.96352c0,0 2.35514,-0.68717 2.86067,-0.3898c0.4248,0.24988 -0.02734,2.05647 -0.02734,2.05647l-1.36667,0.76667c0,0 -0.74021,0.07162 -1.03456,0.05021c-0.11207,-0.00815 -0.39877,-0.55021 -0.39877,-0.55021z" fill="url(#color-8)" stroke="none" stroke-width="0"/></g></g></svg>