<svg version="1.1" xmlns="http://www.w3.org/2000/svg" xmlns:xlink="http://www.w3.org/1999/xlink" width="26.79242" height="19.02061" viewBox="0,0,26.79242,19.02061"><defs><linearGradient x1="239.73683" y1="170.53378" x2="239.73683" y2="188.78201" gradientUnits="userSpaceOnUse" id="color-1"><stop offset="0" stop-color="#e3b67d"/><stop offset="1" stop-color="#c19a77"/></linearGradient><linearGradient x1="228.59449" y1="173.95329" x2="228.59449" y2="177.53835" gradientUnits="userSpaceOnUse" id="color-2"><stop offset="0" stop-color="#69503e"/><stop offset="1" stop-color="#826752"/></linearGradient><linearGradient x1="227.93049" y1="172.25768" x2="227.93049" y2="172.5888" gradientUnits="userSpaceOnUse" id="color-3"><stop offset="0" stop-color="#947d67"/><stop offset="1" stop-color="#dac099"/></linearGradient><linearGradient x1="229.27009" y1="170.73166" x2="229.27009" y2="171.82443" gradientUnits="userSpaceOnUse" id="color-4"><stop offset="0" stop-color="#947d67"/><stop offset="1" stop-color="#dac099"/></linearGradient><linearGradient x1="239.30942" y1="179.10133" x2="239.30942" y2="181.36217" gradientUnits="userSpaceOnUse" id="color-5"><stop offset="0" stop-color="#e7c09b"/><stop offset="1" stop-color="#c9a889"/></linearGradient></defs><g transform="translate(-226.47879,-170.4456)"><g data-paper-data="{&quot;isPaintingLayer&quot;:true}" fill-rule="nonzero" stroke-linejoin="miter" stroke-miterlimit="10" stroke-dasharray="" stroke-dashoffset="0" style="mix-blend-mode: normal"><path d="M230.23741,178.32133c0,0 -1.81248,0.45809 -2.59904,-0.54111c-0.64421,-0.81836 -0.30568,-2.96081 -0.1976,-4.21773c0.08202,-0.9538 1.53348,-2.18268 1.53348,-2.18268c0,0 0.23034,-0.4064 1.78878,0.06891c0.55766,0.17008 1.05591,0.72841 2.09548,1.07349c0.45815,0.15208 1.31859,1.11714 2.30801,1.67289c0.57357,0.32218 1.3652,0.33207 1.69279,0.42043c0.49151,0.13256 2.06947,-0.71134 3.14702,-0.87829c1.98778,-0.30798 3.79033,-0.0829 4.63857,0.33c2.90001,1.41163 5.7142,8.41619 6.61727,8.39621c0.74768,-0.01654 2.13382,-1.73332 2.00001,0.62071c-0.05781,1.01699 -1.28207,1.65822 -1.28207,1.65822c0,0 -1.40876,0.43786 -3.48214,-3.02511c-0.95693,-1.59827 -1.72159,-3.54229 -2.52803,-3.65692c-0.08247,-0.01172 -0.2334,2.43103 0.23382,3.83742c0.32826,0.98811 1.25482,0.77172 1.45832,1.82616c0.26379,1.36682 -0.12785,2.68237 -0.19582,3.01298c-0.27404,1.33297 -0.90988,2.67433 -1.2089,2.59699c-0.31591,-0.0817 -0.61121,0.20821 -0.89982,0.11281c-0.22898,-0.07569 -0.45375,-0.53043 -0.68128,-0.63743c-0.32823,-0.15436 -0.22923,-1.17087 0.08725,-2.02912c0.20114,-0.54545 0.61561,-0.90147 0.66044,-1.33527c0.06111,-0.59138 -0.70355,-0.63316 -1.0115,-0.7028c-0.21395,-0.04838 -0.36468,1.10579 -0.79753,1.86006c-0.53235,0.92766 -1.35652,1.49322 -1.60949,1.42542c-0.53247,-0.14274 -1.22714,-0.00095 -1.7993,-0.10877c-0.31766,-0.05987 -0.56114,-0.34229 -0.80501,-0.4456c-0.31335,-0.13273 0.23269,-0.76959 0.98568,-1.32948c0.67822,-0.50429 1.574,-0.9362 1.29962,-1.05326c-1.20592,-0.51445 -1.40997,-3.04157 -2.54183,-3.16624c-0.35138,-0.0387 -0.26232,2.49081 -0.58521,4.21149c-0.33657,1.79363 -1.08429,2.7813 -1.4127,2.72981c-1.33119,-0.2087 -2.81522,-0.06741 -3.54973,-0.43971c-0.47981,-0.24321 -0.35621,-0.88212 0.09537,-1.54318c0.34072,-0.49877 1.04951,-0.89682 0.80427,-1.78605c-0.30255,-1.09699 -0.73633,-2.72499 -1.52383,-3.90117c-1.16805,-1.74456 -2.73534,-2.87408 -2.73534,-2.87408z" fill-opacity="0.49194" fill="#000000" stroke="none" stroke-width="0" stroke-linecap="butt"/><path d="M229.7111,177.63712c0,0 -1.81248,0.45809 -2.59904,-0.54111c-0.64421,-0.81836 -0.30568,-2.96081 -0.1976,-4.21773c0.08202,-0.9538 1.53348,-2.18268 1.53348,-2.18268c0,0 0.23034,-0.4064 1.78878,0.0689c0.55766,0.17008 1.05591,0.72841 2.09547,1.07349c0.45815,0.15208 1.3186,1.11714 2.30801,1.6729c0.57357,0.32217 1.3652,0.33207 1.69279,0.42043c0.49151,0.13257 2.06947,-0.71134 3.14701,-0.87829c1.98778,-0.30798 3.79033,-0.0829 4.63857,0.33c2.9,1.41162 5.7142,8.41619 6.61727,8.39622c0.74768,-0.01654 2.13382,-1.73332 2.00001,0.62071c-0.05781,1.01699 -1.28207,1.65822 -1.28207,1.65822c0,0 -1.40876,0.43786 -3.48214,-3.02511c-0.95693,-1.59827 -1.72159,-3.54229 -2.52803,-3.65692c-0.08247,-0.01172 -0.2334,2.43103 0.23382,3.83742c0.32826,0.98811 1.25482,0.77172 1.45832,1.82616c0.26379,1.36681 -0.12785,2.68237 -0.19582,3.01298c-0.27404,1.33297 -0.90988,2.67433 -1.20891,2.59699c-0.31591,-0.08171 -0.61121,0.20821 -0.89982,0.11281c-0.22898,-0.07569 -0.45375,-0.53044 -0.68128,-0.63744c-0.32823,-0.15436 -0.22923,-1.17087 0.08725,-2.02912c0.20114,-0.54545 0.61561,-0.90147 0.66044,-1.33527c0.06111,-0.59138 -0.70355,-0.63316 -1.0115,-0.7028c-0.21395,-0.04838 -0.36468,1.10579 -0.79753,1.86006c-0.53235,0.92766 -1.35652,1.49322 -1.60949,1.42542c-0.53247,-0.14274 -1.22714,-0.00095 -1.7993,-0.10877c-0.31766,-0.05987 -0.56114,-0.34229 -0.80501,-0.4456c-0.31335,-0.13273 0.23269,-0.76959 0.98568,-1.32948c0.67822,-0.50429 1.574,-0.9362 1.29962,-1.05326c-1.20592,-0.51445 -1.40997,-3.04157 -2.54183,-3.16624c-0.35138,-0.0387 -0.26232,2.49081 -0.58521,4.21149c-0.33657,1.79363 -1.08429,2.7813 -1.4127,2.72981c-1.33119,-0.2087 -2.81522,-0.06741 -3.54973,-0.43971c-0.47981,-0.24321 -0.35621,-0.88212 0.09537,-1.54318c0.34072,-0.49877 1.04951,-0.89682 0.80427,-1.78605c-0.30255,-1.09699 -0.73633,-2.72499 -1.52383,-3.90117c-1.16805,-1.74456 -2.73534,-2.87408 -2.73534,-2.87408z" fill="url(#color-1)" stroke="#ffffff" stroke-width="0.5" stroke-linecap="butt"/><path d="M227.59024,177.46428l-0.33333,-0.62963c0,0 0.03991,-0.38315 0.40149,-0.74684c0.28206,-0.2837 0.86136,-0.54106 1.10698,-0.69018c0.45391,-0.27559 1.34338,-0.30372 1.34338,-0.30372c0,0 0.76083,0.49217 0.81531,0.86267c0.02781,0.18906 -0.18755,0.6315 -0.44772,0.91007c-0.36251,0.38814 -0.81204,0.59763 -0.81204,0.59763c0,0 -0.71695,0.14815 -1.07407,0.14815c-0.33247,0 -1,-0.14815 -1,-0.14815z" fill="#efdab2" stroke="none" stroke-width="0" stroke-linecap="butt"/><path d="M227.21987,176.79761c0,0 0.05516,-0.28094 0.23273,-0.47169c0.13401,-0.14396 0.49666,-0.45312 0.57692,-0.70496c0.04886,-0.15331 0.12564,-0.36186 0.1127,-0.5324c-0.01701,-0.22415 -0.13512,-0.40961 -0.13696,-0.58693c-0.00162,-0.15677 0.14053,-0.33364 0.14053,-0.33364c0,0 0.02166,-0.218 0.18579,-0.21465c0.07873,0.0016 0.49388,0.20286 0.51657,0.33839c0.03746,0.22368 -0.23749,0.5768 -0.36492,0.82444c-0.11293,0.21945 -0.07819,0.34811 -0.07819,0.34811c0,0 1.1143,0.81906 1.39556,1.19407c0.22422,0.29896 0.16,0.88 0.16,0.88c0,0 -0.63072,-0.55119 -1.0908,-0.91729c-0.23714,-0.18869 -0.3022,-0.40014 -0.45769,-0.44216c-0.1183,-0.03198 -0.67156,0.50498 -0.96777,0.68707c-0.22569,0.13874 -0.22448,-0.06836 -0.22448,-0.06836z" fill="url(#color-2)" stroke="none" stroke-width="0" stroke-linecap="butt"/><path d="M227.88654,176.6865c0,0.18409 -0.16583,0.33333 -0.37038,0.33333c-0.20455,0 -0.37037,-0.14923 -0.37037,-0.33333c0,-0.18409 0.16582,-0.33334 0.37037,-0.33334c0.20455,0 0.37038,0.14924 0.37038,0.33334z" fill="#d49c8f" stroke="none" stroke-width="0" stroke-linecap="butt"/><path d="M227.26803,173.16022c0,0 0.14059,-0.85968 0.3435,-0.89672c0.23917,-0.04364 0.81756,0.19286 0.9576,0.28933" fill="none" stroke="url(#color-3)" stroke-width="0.25" stroke-linecap="round"/><path d="M228.6728,171.75547c0,0 -0.11381,-0.62499 0.08035,-0.86697c0.13518,-0.16848 0.56688,-0.00408 0.67313,0.06911c0.1062,0.07316 0.46007,0.06899 0.75595,0.1509c0.42402,0.11738 0.70895,0.76355 0.70895,0.76355" fill="none" stroke="url(#color-4)" stroke-width="0.25" stroke-linecap="round"/><path d="M244.13914,187.78122c0,0 0.02195,-0.83838 0.29501,-1.65403c0.21102,-0.63031 0.6986,-1.13195 0.64986,-1.94266c-0.05798,-0.96421 -1.25058,-1.06673 -1.46934,-2.08067c-0.42468,-1.96835 0.05206,-4.76103 0.22376,-5.66834c0.16005,-0.84575 1.95785,-1.39716 1.95785,-1.39716c0,0 1.40771,1.76851 2.42822,3.50273c0.14431,0.24524 0.37338,0.49037 0.51589,0.73044c0.8587,1.44652 1.45851,2.68111 2.28445,2.68111c0.3265,0 0.90981,-0.56404 1.22377,-0.60673c0.28603,-0.03889 0.52525,0.70146 0.23627,1.36701c-0.22355,0.51486 -0.90672,1.05919 -1.07556,1.1498c-0.36161,0.19405 -1.55592,-0.76723 -1.55592,-0.76723c0,0 -0.60675,-0.58667 -1.3425,-1.70475c-0.91486,-1.39027 -2.05772,-3.35778 -2.45293,-3.90654c-0.26584,-0.36913 -0.63315,-0.16013 -0.63315,-0.16013c0,0 -0.1322,0.22636 -0.22059,0.90415c-0.07969,0.61113 -0.15768,1.4945 0.05125,2.20952c0.13637,0.4667 0.52608,1.18946 0.84688,1.55409c0.38268,0.43494 0.67939,0.46903 0.49731,0.44689c-0.1089,-0.01323 0.20988,0.06241 0.3476,0.43573c0.13792,0.37385 0.09485,1.04571 0.06119,1.53812c-0.12095,1.76948 -0.91671,4.00936 -1.21303,3.97568c-0.47121,-0.05355 -0.5892,0.15596 -0.81538,0.11838c-0.46578,-0.0774 -0.84096,-0.72542 -0.84096,-0.72542z" fill="#a5795e" stroke="none" stroke-width="0" stroke-linecap="butt"/><path d="M238.93913,186.66693c0,0 0.3104,-0.5024 0.93525,-0.94795c0.41413,-0.2953 0.87577,-0.57837 1.22286,-0.86196c0.12896,-0.10537 0.35341,-0.18619 0.35586,-0.30318c0.00541,-0.25852 -0.34727,-0.26772 -0.60982,-0.68045c-0.66374,-1.04345 -1.58986,-2.66359 -1.58986,-2.66359c0,0 1.05631,-0.6335 1.60483,-0.6126c0.41165,0.01568 1.39517,0.72689 1.39517,0.72689c0,0 1.13746,3.47833 0.72307,4.52985c-0.22574,0.57282 -1.38021,1.27015 -1.38021,1.27015c0,0 -1.24075,-0.05822 -1.71301,-0.12353c-0.41577,-0.0575 -0.94414,-0.33361 -0.94414,-0.33361z" fill="#a5795e" stroke="none" stroke-width="0" stroke-linecap="butt"/><path d="M235.59628,187.8955c0,0 -0.48773,0.05959 -0.2864,-0.20755c0.10533,-0.13976 0.50309,-0.47505 0.69868,-0.69585c0.25652,-0.28958 0.55939,0.20716 0.76555,-0.08979c0.20962,-0.30194 0.32118,-1.39735 0.41869,-1.66522c0.42172,-1.15851 0.23205,-3.88445 0.23205,-3.88445c0,0 0.29968,-0.21617 0.43262,-0.22503c0.15057,-0.01004 0.42453,0.16789 0.42453,0.16789c0,0 -0.26907,3.57204 -0.55112,4.70512c-0.14188,0.56997 -0.29758,1.16604 -0.54877,1.52185c-0.22644,0.32074 -0.55725,0.43018 -0.55725,0.43018z" fill="#a5795e" stroke="none" stroke-width="0" stroke-linecap="butt"/><path d="M233.39627,187.63836c0,0 -0.24048,-0.27929 -0.14013,-0.48438c0.07159,-0.14632 0.47098,-0.2128 0.55242,-0.30474c0.25652,-0.28959 0.55939,0.20715 0.76555,-0.08979c0.20962,-0.30194 0.32117,-1.39735 0.41868,-1.66522c0.42172,-1.15851 0.23206,-3.88444 0.23206,-3.88444c0,0 0.29968,-0.21617 0.43262,-0.22503c0.15057,-0.01004 0.42453,0.16788 0.42453,0.16788c0,0 -0.26906,3.57205 -0.55112,4.70512c-0.14188,0.56997 -0.29758,1.16604 -0.54877,1.52184c-0.22644,0.32075 -0.55725,0.43018 -0.55725,0.43018z" fill="#a5795e" stroke="none" stroke-width="0" stroke-linecap="butt"/><path d="M234.25342,179.46693c0,0 -1.25693,-0.86379 -1.80539,-1.48791c-0.55619,-0.63291 -1.5089,-2.28352 -1.5089,-2.28352c0,0 0.91016,-0.3678 1.37128,-0.37817c0.3626,-0.00815 1.17158,0.32102 1.17158,0.32102c0,0 0.66518,0.88125 0.84571,1.42286c0.05009,0.15027 0.44688,2.11443 0.73253,2.21806c0.27479,0.0997 0.29321,0.0598 0.47346,-0.12249c0.53112,-0.53715 0.71973,-3.77557 0.71973,-3.77557c0,0 0.03845,2.70783 -0.07959,4.06017c-0.06232,0.71392 -1.72047,0.25711 -1.7527,0.25033c-0.08728,-0.01837 -0.16772,-0.22478 -0.16772,-0.22478z" fill="#a5795e" stroke="none" stroke-width="0" stroke-linecap="butt"/><path d="M237.45342,181.36217l0.02857,-1.37143c0,0 1.20174,-0.58808 1.7904,-0.83416c0.57281,-0.23945 1.83816,0.37702 1.83816,0.37702c0,0 0.09924,0.45325 0.03077,0.61758c-0.07396,0.1775 -0.45934,0.41099 -0.45934,0.41099c0,0 -0.48889,0.69121 -1.34273,0.68745c-0.12209,-0.00054 -0.60963,-0.28347 -0.71557,-0.27642c-0.17264,0.01149 -0.26347,0.33556 -0.36957,0.34246c-0.31663,0.02059 -0.80069,0.0465 -0.80069,0.0465z" fill="url(#color-5)" stroke="none" stroke-width="0" stroke-linecap="butt"/></g></g></svg>