<svg version="1.1" xmlns="http://www.w3.org/2000/svg" xmlns:xlink="http://www.w3.org/1999/xlink" width="19.50357" height="28.33684" viewBox="0,0,19.50357,28.33684"><defs><linearGradient x1="240" y1="180.00007" x2="240" y2="180.00007" gradientUnits="userSpaceOnUse" id="color-1"><stop offset="0" stop-color="#373c42"/><stop offset="1" stop-color="#6c4a4a"/></linearGradient><linearGradient x1="240" y1="180.00007" x2="240" y2="180.00007" gradientUnits="userSpaceOnUse" id="color-2"><stop offset="0" stop-color="#373c42"/><stop offset="1" stop-color="#6c4a4a"/></linearGradient><linearGradient x1="240" y1="180.00007" x2="240" y2="180.00007" gradientUnits="userSpaceOnUse" id="color-3"><stop offset="0" stop-color="#373c42"/><stop offset="1" stop-color="#6c4a4a"/></linearGradient><linearGradient x1="240" y1="180.00007" x2="240" y2="180.00007" gradientUnits="userSpaceOnUse" id="color-4"><stop offset="0" stop-color="#373c42"/><stop offset="1" stop-color="#6c4a4a"/></linearGradient><linearGradient x1="240" y1="180.00007" x2="240" y2="180.00007" gradientUnits="userSpaceOnUse" id="color-5"><stop offset="0" stop-color="#26272b"/><stop offset="1" stop-color="#464e39"/></linearGradient><linearGradient x1="240" y1="180.00007" x2="240" y2="180.00007" gradientUnits="userSpaceOnUse" id="color-6"><stop offset="0" stop-color="#26272b" stop-opacity="0"/><stop offset="1" stop-color="#26272b"/></linearGradient><linearGradient x1="240" y1="180.00007" x2="240" y2="180.00007" gradientUnits="userSpaceOnUse" id="color-7"><stop offset="0" stop-color="#2c3822"/><stop offset="1" stop-color="#464e39"/></linearGradient><linearGradient x1="240" y1="180.00007" x2="240" y2="180.00007" gradientUnits="userSpaceOnUse" id="color-8"><stop offset="0" stop-color="#483225" stop-opacity="0"/><stop offset="1" stop-color="#483225"/></linearGradient><linearGradient x1="240" y1="180.00007" x2="240" y2="180.00007" gradientUnits="userSpaceOnUse" id="color-9"><stop offset="0" stop-color="#483225" stop-opacity="0"/><stop offset="1" stop-color="#483225"/></linearGradient><linearGradient x1="240" y1="180.00007" x2="240" y2="180.00007" gradientUnits="userSpaceOnUse" id="color-10"><stop offset="0" stop-color="#483225" stop-opacity="0"/><stop offset="1" stop-color="#483225"/></linearGradient><linearGradient x1="240" y1="180.00007" x2="240" y2="180.00007" gradientUnits="userSpaceOnUse" id="color-11"><stop offset="0" stop-color="#4d322b"/><stop offset="1" stop-color="#4d322b" stop-opacity="0"/></linearGradient><linearGradient x1="240" y1="180.00007" x2="240" y2="180.00007" gradientUnits="userSpaceOnUse" id="color-12"><stop offset="0" stop-color="#2d1f12" stop-opacity="0"/><stop offset="1" stop-color="#2d1f12"/></linearGradient><linearGradient x1="240" y1="180.00007" x2="240" y2="180.00007" gradientUnits="userSpaceOnUse" id="color-13"><stop offset="0" stop-color="#654a37"/><stop offset="1" stop-color="#654a37" stop-opacity="0"/></linearGradient><linearGradient x1="240" y1="180.00007" x2="240" y2="180.00007" gradientUnits="userSpaceOnUse" id="color-14"><stop offset="0" stop-color="#614832" stop-opacity="0"/><stop offset="1" stop-color="#614832"/></linearGradient><linearGradient x1="240" y1="180.00007" x2="240" y2="180.00007" gradientUnits="userSpaceOnUse" id="color-15"><stop offset="0" stop-color="#4a3516" stop-opacity="0"/><stop offset="1" stop-color="#4a3516"/></linearGradient><linearGradient x1="240" y1="180.00007" x2="240" y2="180.00007" gradientUnits="userSpaceOnUse" id="color-16"><stop offset="0" stop-color="#4a3516" stop-opacity="0"/><stop offset="1" stop-color="#4a3516"/></linearGradient><linearGradient x1="240" y1="180.00007" x2="240" y2="180.00007" gradientUnits="userSpaceOnUse" id="color-17"><stop offset="0" stop-color="#8e6c51" stop-opacity="0"/><stop offset="1" stop-color="#8e6c51"/></linearGradient><linearGradient x1="238.11119" y1="170.64444" x2="238.11119" y2="184.81242" gradientUnits="userSpaceOnUse" id="color-18"><stop offset="0" stop-color="#402923" stop-opacity="0"/><stop offset="1" stop-color="#402923"/></linearGradient></defs><g transform="translate(-230.12322,-165.71236)"><g data-paper-data="{&quot;isPaintingLayer&quot;:true}" fill-rule="nonzero" stroke-linecap="butt" stroke-linejoin="miter" stroke-miterlimit="10" stroke-dasharray="" stroke-dashoffset="0" style="mix-blend-mode: normal"><path d="M231.3197,193.52474c0,0 -0.66992,-2.75341 1.23197,-5.12001c1.88492,-2.3455 12.56596,-3.28136 12.58381,-3.47667c0.01806,-0.19759 1.29049,-1.22414 1.11764,-2.54555c-0.13604,-1.04005 -1.65889,-2.44146 -2.04209,-2.54645c-0.3962,-0.10856 -0.75023,1.76065 -1.26799,1.81892c-0.43819,0.04931 -1.26431,-0.71494 -1.75557,-0.65609c-0.62633,0.07502 -0.44219,2.06986 -1.0609,2.19504c-0.16983,0.03436 -1.01484,-2.03146 -1.57734,-1.3714c-0.44762,0.52526 -0.27794,3.92763 -0.41927,3.92798c-1.99644,0.00504 -3.05377,-3.53178 -3.33411,-4.21128c-0.88338,-2.1411 -1.87919,-5.40289 -1.83499,-6.69229c0.03867,-1.12813 -0.98427,-2.06262 -0.95827,-2.69818c0.06673,-1.63128 0.3739,-4.45624 0.3739,-4.45624c0,0 1.10528,0.62062 2.59247,0.55168c1.18723,-0.05503 -0.08525,-1.20739 2.53432,-1.44981c1.63575,-0.15137 -0.22806,1.23422 1.91509,1.26261c0.74293,0.00984 3.84244,1.58947 4.89789,4.04636c1.10761,2.5783 0.50666,6.03947 0.50666,6.03947c0,0 3.18812,1.78051 4.01545,4.03843c0.46143,1.25932 1.24955,2.99765 0.4363,4.64557c-0.97278,1.97119 -3.62982,3.76244 -3.62982,3.76244c0,0 -1.5308,1.02109 -3.06785,1.33606c-0.80758,0.16548 -1.94813,-0.32407 -3.46576,-0.10573c-0.6763,0.0973 -1.69081,-0.14448 -2.4755,0.24372c-1.02914,0.50914 -1.83209,1.67913 -2.65666,1.87302c-1.72394,0.40536 -2.65937,-0.41159 -2.65937,-0.41159z" fill-opacity="0.5" fill="#000000" stroke="none" stroke-width="0"/><path d="" fill="#000000" stroke="none" stroke-width="0"/><path d="" fill-opacity="0.5" fill="#000000" stroke="none" stroke-width="0"/><path d="" fill-opacity="0.5" fill="#000000" stroke="none" stroke-width="0"/><path d="" fill-opacity="0.5" fill="#000000" stroke="none" stroke-width="0"/><path d="" fill-opacity="0.5" fill="#000000" stroke="none" stroke-width="0"/><path d="" fill="#5e6669" stroke="#ffffff" stroke-width="0.5"/><path d="" fill="#464d55" stroke="none" stroke-width="0"/><path d="" fill="#464d55" stroke="none" stroke-width="0"/><path d="" fill="#464d55" stroke="none" stroke-width="0"/><path d="" fill="#464d55" stroke="none" stroke-width="0"/><path d="" fill="url(#color-1)" stroke="none" stroke-width="0"/><path d="" fill="url(#color-2)" stroke="none" stroke-width="0"/><path d="" fill="#464d55" stroke="none" stroke-width="0"/><path d="" fill="url(#color-3)" stroke="none" stroke-width="0"/><path d="" fill="url(#color-4)" stroke="none" stroke-width="0"/><path d="" fill="#ffffff" stroke="none" stroke-width="0"/><path d="" fill="#373c42" stroke="none" stroke-width="0"/><path d="" fill="#464e39" stroke="#ffffff" stroke-width="0.5"/><path d="" fill="#343321" stroke="none" stroke-width="0"/><path d="" fill="url(#color-5)" stroke="none" stroke-width="0"/><path d="" fill="url(#color-6)" stroke="none" stroke-width="0"/><path d="" fill="url(#color-7)" stroke="none" stroke-width="0"/><path d="" fill="#30351d" stroke="none" stroke-width="0"/><path d="" fill="#30351d" stroke="none" stroke-width="0"/><path d="" fill="#968780" stroke="#ffffff" stroke-width="0.5"/><path d="" fill="#695b5a" stroke="none" stroke-width="0"/><path d="" fill="url(#color-8)" stroke="none" stroke-width="0"/><path d="" fill="url(#color-9)" stroke="none" stroke-width="0"/><path d="" fill="url(#color-10)" stroke="none" stroke-width="0"/><path d="" fill="#5f5353" stroke="none" stroke-width="0"/><path d="" fill="#443a38" stroke="none" stroke-width="0"/><path d="" fill="#725f59" stroke="none" stroke-width="0"/><path d="" data-paper-data="{&quot;index&quot;:null}" fill="#725f59" stroke="none" stroke-width="0"/><path d="" fill="#725f59" stroke="none" stroke-width="0"/><path d="" fill="#7c6a66" stroke="none" stroke-width="0"/><path d="" fill="#61493b" stroke="#ffffff" stroke-width="0.5"/><path d="" fill="#4d322b" stroke="none" stroke-width="0"/><path d="" fill="url(#color-11)" stroke="none" stroke-width="0"/><path d="" fill="url(#color-12)" stroke="none" stroke-width="0"/><path d="" fill="#32251d" stroke="none" stroke-width="0"/><path d="" fill="#b7956f" stroke="#ffffff" stroke-width="0.5"/><path d="" fill="url(#color-13)" stroke="none" stroke-width="0"/><path d="" fill="#614832" stroke="none" stroke-width="0"/><path d="" fill="#765834" stroke="none" stroke-width="0"/><path d="" fill="url(#color-14)" stroke="none" stroke-width="0"/><path d="" fill="url(#color-15)" stroke="none" stroke-width="0"/><path d="" fill="url(#color-16)" stroke="none" stroke-width="0"/><path d="" fill="url(#color-17)" stroke="none" stroke-width="0"/><path d="M230.48765,192.69271c0,0 -0.66992,-2.75341 1.23197,-5.12001c1.88492,-2.3455 12.56596,-3.28136 12.58381,-3.47667c0.01805,-0.19759 1.29049,-1.22414 1.11765,-2.54555c-0.13604,-1.04004 -1.65889,-2.44146 -2.0421,-2.54645c-0.3962,-0.10855 -0.75023,1.76065 -1.26799,1.81892c-0.43819,0.04932 -1.26431,-0.71494 -1.75556,-0.6561c-0.62633,0.07502 -0.44219,2.06986 -1.0609,2.19505c-0.16983,0.03436 -1.01484,-2.03147 -1.57733,-1.3714c-0.44761,0.52525 -0.27794,3.92763 -0.41927,3.92798c-1.99645,0.00504 -3.05377,-3.53178 -3.33411,-4.21128c-0.88338,-2.1411 -1.87919,-5.40289 -1.83499,-6.69229c0.03867,-1.12813 -0.98427,-2.06262 -0.95827,-2.69818c0.06673,-1.63128 0.3739,-4.45624 0.3739,-4.45624c0,0 1.10528,0.62062 2.59247,0.55168c1.18723,-0.05503 -0.08525,-1.20739 2.53432,-1.44981c1.63575,-0.15137 -0.22806,1.23422 1.91509,1.26261c0.74293,0.00984 3.84244,1.58947 4.89789,4.04636c1.10761,2.5783 0.50666,6.03947 0.50666,6.03947c0,0 3.18812,1.78051 4.01545,4.03843c0.46143,1.25932 1.24955,2.99765 0.4363,4.64557c-0.97278,1.97119 -3.62982,3.76244 -3.62982,3.76244c0,0 -1.5308,1.02109 -3.06785,1.33606c-0.80758,0.16548 -1.94813,-0.32407 -3.46576,-0.10573c-0.6763,0.0973 -1.69081,-0.14448 -2.4755,0.24372c-1.02914,0.50914 -1.83209,1.67913 -2.65666,1.87302c-1.72394,0.40536 -2.65937,-0.41159 -2.65937,-0.41159z" fill="#9a4d2f" stroke="#ffffff" stroke-width="0.5"/><path d="M232.32367,173.79892c0,0 2.57462,0.40312 3.8177,0.21724c1.00417,-0.15015 2.33632,-1.50279 2.33632,-1.50279c0,0 0.24439,0.87428 2.21369,0.44977c1.13519,-0.24471 2.11593,-2.31874 2.11593,-2.31874c0,0 0.35139,0.2382 0.49326,0.56338c0.39895,0.91447 0.71658,2.91326 0.6654,4.03175c-0.02634,0.57572 -0.00992,1.49236 -0.21931,2.26672c-0.13634,0.50417 -0.54091,1.10361 -0.78044,1.53684c-0.27065,0.48951 -0.51023,1.05633 -0.67415,1.30811c-0.14152,0.21738 -0.33566,0.26269 -0.33566,0.26269c0,0 -0.06828,-0.08508 -0.49871,-0.32963c-0.28788,-0.16357 -0.94975,-0.39767 -1.23792,-0.28196c-0.75447,0.30294 -0.52828,1.65612 -0.82787,1.92018c-0.26658,0.23497 -0.31425,-0.2888 -0.63884,-0.77193c-0.3155,-0.46961 -1.09039,-0.68476 -1.30116,-0.20801c-0.19692,0.44543 -0.22374,1.01729 -0.24766,1.61957c-0.05264,1.3256 0.23019,2.65887 -0.45,2.12872c-0.34413,-0.26822 -1.11606,-0.78003 -1.75851,-1.93398c-0.3452,-0.62003 -0.59304,-1.74048 -0.85187,-2.39995c-0.44705,-1.13904 -0.89461,-2.19004 -1.1897,-3.24631c-0.50457,-1.80611 -0.63052,-3.31166 -0.63052,-3.31166z" fill="url(#color-18)" stroke="none" stroke-width="0"/><path d="M232.33555,173.94484c0,0 -0.07611,-0.52847 -0.19589,-0.85359c-0.13319,-0.36151 -0.56729,-1.21789 -0.56729,-1.21789c0,0 2.43203,0.50879 3.52516,0.50879c1.07496,0 2.6893,-1.45367 2.6893,-1.45367c0,0 0.77641,0.43906 0.83731,0.77605c0.10031,0.55507 -1.38244,2.02227 -1.38244,2.02227c0,0 -1.23179,0.44644 -1.95794,0.47568c-0.99359,0.04001 -2.94821,-0.25763 -2.94821,-0.25763z" fill="#ffefe4" stroke="none" stroke-width="0"/><path d="M231.62432,168.47336v-1.23014l1.47617,0.33829l-0.89186,1.01487z" fill="#ffefe4" stroke="none" stroke-width="0"/><path d="M237.12922,168.28887c0,0 -2.33728,-0.61535 -2.33728,-0.95336c0,-0.38395 0.43055,-1.10713 0.43055,-1.10713c0,0 1.4245,-0.15377 1.87597,-0.15377c0.3149,0 0.17139,0.76552 0.62497,1.18633c0.16677,0.15472 0.40343,0.11341 0.57095,0.12494c0.1769,0.01217 0.28025,0.07264 0.28025,0.07264l-0.58432,0.83035z" fill="#ffefe4" stroke="none" stroke-width="0"/><path d="M233.71556,171.5795v-0.49206h0.61507v0.49206z" fill="#46210e" stroke="none" stroke-width="0"/><path d="M235.92983,171.51799v-0.43055h0.49206v0.43055z" fill="#46210e" stroke="none" stroke-width="0"/><path d="M234.54591,173.36321c0,0 -0.89186,-0.60353 -0.89186,-0.70733c0,-0.08852 0.83035,0.18452 0.83035,0.18452l1.47617,-0.06151c0,0 0.61507,-0.16132 0.61507,-0.06151c0,0.09469 -0.70733,0.64583 -0.70733,0.64583z" fill="#46210e" stroke="none" stroke-width="0"/><path d="M233.00823,173.20943v-1.47617h0.36904v1.47617z" fill="#46210e" stroke="none" stroke-width="0"/><path d="M236.79093,173.05565v-1.93748h0.52281v1.93748z" fill="#46210e" stroke="none" stroke-width="0"/><path d="M245.60644,182.37099c0,0 0.09658,-0.39195 0.03063,-0.52105c-0.07116,-0.13929 0.02234,-0.38328 -0.12552,-0.74761c-0.23856,-0.58785 -0.72832,-1.24408 -0.72832,-1.24408l1.9916,-0.04704c0,0 0.67483,0.65436 0.87514,1.03368c0.24525,0.46443 0.48903,1.54962 0.48903,1.54962z" fill="#402923" stroke="none" stroke-width="0"/><path d="M245.74376,188.71559c0,0 -2.29359,-0.7378 -2.9787,-1.39641c-0.73098,-0.7027 -1.32551,-2.48444 -1.32551,-2.48444l2.86947,-0.54097c0,0 1.97683,1.96257 2.6488,2.75946c0.41504,0.49219 0.26771,0.32171 0.26771,0.32171c0,0 -0.41098,0.44514 -0.6201,0.63335c-0.25291,0.22762 -0.86167,0.7073 -0.86167,0.7073z" fill="#402923" stroke="none" stroke-width="0"/><path d="M238.82879,190.68345c0,0 -1.5751,-1.28574 -2.00295,-2.10255c-0.43446,-0.82941 -0.58428,-2.8367 -0.58428,-2.8367l2.94003,-0.58801c0,0 0.43958,1.97061 0.90135,2.91235c0.52562,1.07194 1.5918,2.80309 1.5918,2.80309c0,0 -0.50194,-0.00344 -0.80127,-0.02323c-0.52056,-0.03442 -2.04469,-0.16493 -2.04469,-0.16493z" fill="#402923" stroke="none" stroke-width="0"/><path d="M232.11026,192.98844c0,0 -1.3244,0.09749 -1.48772,-0.47892c-0.14082,-0.49702 -0.07263,-1.78733 0.20562,-2.79372c0.29756,-1.07623 0.9293,-1.90183 0.9293,-1.90183l0.79969,-0.65856c0,0 0.37736,1.64514 0.8326,2.582c0.5909,1.21607 1.70759,1.67516 1.70759,1.67516c0,0 -1.24173,1.19815 -1.72105,1.42823c-0.09011,0.04325 -1.26603,0.14764 -1.26603,0.14764z" fill="#402923" stroke="none" stroke-width="0"/></g></g></svg>