<svg version="1.1" xmlns="http://www.w3.org/2000/svg" xmlns:xlink="http://www.w3.org/1999/xlink" width="31.3632" height="19.56204" viewBox="0,0,31.3632,19.56204"><defs><linearGradient x1="240" y1="170.46896" x2="240" y2="189.53104" gradientUnits="userSpaceOnUse" id="color-1"><stop offset="0" stop-color="#c4c6d2"/><stop offset="1" stop-color="#a1a3ac"/></linearGradient><linearGradient x1="235.96653" y1="169.98946" x2="235.96653" y2="176.60328" gradientUnits="userSpaceOnUse" id="color-2"><stop offset="0" stop-color="#daddee"/><stop offset="1" stop-color="#daddee" stop-opacity="0"/></linearGradient><linearGradient x1="229.05717" y1="184.47958" x2="229.05717" y2="189.92556" gradientUnits="userSpaceOnUse" id="color-3"><stop offset="0" stop-color="#44484e" stop-opacity="0"/><stop offset="1" stop-color="#44484e"/></linearGradient><linearGradient x1="234.06717" y1="184.73206" x2="234.06717" y2="188.56469" gradientUnits="userSpaceOnUse" id="color-4"><stop offset="0" stop-color="#44484e" stop-opacity="0"/><stop offset="1" stop-color="#44484e"/></linearGradient><linearGradient x1="240.64708" y1="185.10515" x2="240.64708" y2="188.32727" gradientUnits="userSpaceOnUse" id="color-5"><stop offset="0" stop-color="#44484e" stop-opacity="0"/><stop offset="1" stop-color="#44484e"/></linearGradient><linearGradient x1="245.26727" y1="185.16799" x2="245.26727" y2="187.33279" gradientUnits="userSpaceOnUse" id="color-6"><stop offset="0" stop-color="#44484e" stop-opacity="0"/><stop offset="1" stop-color="#44484e"/></linearGradient></defs><g transform="translate(-224.28809,-170.219)"><g data-paper-data="{&quot;isPaintingLayer&quot;:true}" fill-rule="nonzero" stroke-linecap="butt" stroke-linejoin="miter" stroke-miterlimit="10" stroke-dasharray="" stroke-dashoffset="0" style="mix-blend-mode: normal"><path d="" fill="#b1afbd" stroke="none" stroke-width="0"/><path d="" fill="#b1afbd" stroke="#ffffff" stroke-width="0.5"/><path d="" fill="#b1afbd" stroke="none" stroke-width="0"/><path d="" fill="#b1afbd" stroke="none" stroke-width="0"/><path d="" fill="#b1afbd" stroke="none" stroke-width="0"/><path d="" fill="#b1afbd" stroke="none" stroke-width="0"/><path d="" fill="#b1afbd" stroke="none" stroke-width="0"/><path d="" fill="#b1afbd" stroke="none" stroke-width="0"/><path d="" fill="#b1afbd" stroke="none" stroke-width="0"/><path d="" fill="#b1afbd" stroke="none" stroke-width="0"/><path d="" fill="#b1afbd" stroke="none" stroke-width="0"/><path d="" fill="#b1afbd" stroke="none" stroke-width="0"/><path d="" fill="#b1afbd" stroke="none" stroke-width="0"/><path d="M227.00909,189.2274c0,0 -2.91958,-12.64432 -2.41165,-15.86376c0.13485,-0.85475 1.11785,-1.68769 2.06871,-2.25633c0.5592,-0.33441 1.32042,-0.63831 1.32042,-0.63831c0,0 0.69547,-0.00547 1.19225,0.11852c1.17025,0.29208 3.14368,0.87905 6.02211,0.9047c2.98497,0.0266 6.15846,-0.85211 8.85655,-0.10756c0.55685,0.15366 4.36888,3.88414 4.81359,4.02079c0.33582,0.10318 2.21283,0.2472 2.4596,0.33788c0.26342,0.0968 -0.91869,2.04086 -0.76045,2.1063c0.5844,0.24167 2.1793,2.85968 2.1793,2.85968c0,0 0.2578,0.55696 0.83656,0.93557c0.53748,0.3516 1.39018,0.51097 1.60275,0.89508c0.44293,0.80038 0.21386,2.96369 0.21386,2.96369c0,0 -2.93465,2.29075 -6.45228,0.57325c-1.60303,-0.78269 -2.62713,-1.75875 -4.10901,-2.12876c-0.27664,-0.06908 1.01622,1.36386 1.61053,2.13534c0.2299,0.29844 0.02944,0.87027 -0.08102,0.8455c-0.12118,-0.02717 0.0989,-0.21123 -0.03124,-0.00295c-0.11352,0.18169 -0.24558,0.37857 -0.42262,0.46087c-0.5236,0.24342 -1.27322,-0.01343 -1.58564,-0.08808c-1.02909,-0.2459 -2.13835,-2.5344 -3.1048,-2.65021c-0.35429,-0.04245 2.13737,2.86248 2.06751,3.2528c-0.19691,1.10021 -2.3188,0.64818 -3.32376,0.46484c-0.84924,-0.15494 -2.0128,-3.8244 -2.82657,-3.92644c-0.58551,-0.07342 -1.1586,0.19284 -1.71464,0.14942c-0.17553,-0.01371 -0.27521,1.51892 0.02828,2.45946c0.08757,0.27137 0.32166,0.53796 0.53089,0.74151c0.22858,0.22237 0.14821,0.46259 0.09399,0.45849c-0.36794,-0.02782 -0.45013,0.07072 -0.85624,0.2859c-0.50802,0.26917 -1.19923,0.20279 -1.61905,0.16205c-0.31549,-0.03062 -0.76284,-0.29436 -1.06177,-0.32577c-0.89088,-0.09359 -0.27753,-4.01279 -1.0229,-4.02178c-0.14095,-0.0017 -0.55849,1.09442 -0.50208,2.17576c0.02736,0.52445 0.15382,1.04667 0.27009,1.45921c0.1383,0.4907 -0.01708,0.82623 -0.09148,0.82577c-0.27989,-0.00173 -0.25774,0.10475 -0.49437,0.22169c-0.18402,0.09094 -0.35564,0.18822 -0.51593,0.24585c-0.59031,0.21224 -1.02683,0.25815 -1.3625,0.25334c-0.89708,-0.01283 -1.81698,-0.30328 -1.81698,-0.30328z" fill="url(#color-1)" stroke="#ffffff" stroke-width="0.5"/><path d="M229.10371,185.17779c0,0 -1.93106,-0.28548 -2.61449,-1.12837c-0.71183,-0.87792 -1.05875,-3.85215 -1.05875,-3.85215c0,0 7.63636,-0.05918 11.49314,-0.08961c1.393,-0.01099 3.21151,1.39005 6.11942,0.39003c1.16014,-0.39897 0.75874,-2.73629 2.00179,-3.50517c1.98531,-1.228 5.54096,-1.28189 6.15778,-1.19038c0.229,0.03397 -0.1119,0.79502 -0.58564,1.40233c-1.20505,1.54479 -3.77889,3.8772 -3.77889,3.8772c0,0 0.02348,1.23243 0.16959,2.1831c0.08844,0.57542 0.57573,0.90015 0.119,1.20708c-0.97726,0.65676 -2.10453,-1.15132 -2.36313,-0.5779c-0.17603,0.39033 0.46055,0.82215 1.08712,1.67589c0.15206,0.20719 0.58831,0.44534 0.60534,0.67227c0.03522,0.46934 -0.50232,0.89065 -0.50232,0.89065c0,0 -0.70982,0.06893 -1.35117,-0.13554c-0.5241,-0.16709 -0.92517,-0.56315 -1.49795,-0.9433c-0.63191,-0.4194 -1.19453,-1.67758 -2.7171,-2.13584c-0.45682,-0.13749 -1.51675,1.26369 -1.96469,1.13332c-0.76739,-0.22334 -0.94761,-0.57038 -1.67048,-0.74233c-0.26067,-0.06201 -1.05694,0.13267 -1.32567,0.10599c-0.29442,-0.02923 -0.40881,1.4145 -0.10511,2.45764c0.19583,0.6726 0.70562,0.51499 0.54899,0.92518c-0.22379,0.58608 -1.23274,0.70795 -2.02556,0.66206c-0.50502,-0.02923 -0.90218,-0.16685 -1.01806,-0.16551c-0.10748,0.00125 -0.49329,-0.16504 -0.61865,-0.42018c-0.0463,-0.09424 0.11867,-0.14201 0.09454,-0.28187c-0.10942,-0.6343 -0.01494,-1.67491 -0.15122,-2.3357c-0.14496,-0.70283 -0.46276,-1.03357 -0.5814,-1.05311c-0.42137,-0.06941 -0.64228,0.61005 -1.04418,0.78782c-0.66574,0.29447 -1.42227,0.1864 -1.42227,0.1864z" fill="#9ba2b1" stroke="none" stroke-width="0"/><path d="M225.33354,179.21489c0,0 -0.48233,-2.54084 -0.54359,-4.51199c-0.02852,-0.91781 0.08737,-1.81837 0.28951,-2.08893c0.08948,-0.11976 1.11661,-1.01628 1.73264,-1.40556c0.74804,-0.47269 1.54005,-0.50669 1.54005,-0.50669c0,0 0.65714,0.04225 1.5394,0.24928c1.22764,0.28809 3.01818,0.76823 5.21009,0.76823c2.20505,0 4.73517,-0.39177 6.51272,-0.40953c1.60911,-0.01608 2.57704,0.3417 2.57704,0.3417c0,0 2.97704,2.75654 4.14131,3.67669c0.74369,0.58775 2.50643,0.52902 2.50643,0.52902c0,0 -11.16964,3.69405 -15.05943,3.65958c-3.75973,-0.03332 -10.44618,-0.30179 -10.44618,-0.30179z" fill="url(#color-2)" stroke="none" stroke-width="0"/><path d="M233.80494,181.79538c0,0 -0.8798,-1.69621 -2.11326,-3.44503c-0.73445,-1.04131 -1.86469,-2.10128 -2.26489,-2.83292c-0.87187,-1.5939 -1.57984,-4.75366 -1.57984,-4.75366c0,0 1.09091,-0.13171 1.29145,0.2026c0.30849,0.51425 0.39052,2.73876 0.92502,3.76317c0.41069,0.78711 1.26499,1.15682 1.77616,1.89553c1.50346,2.17271 2.88741,4.33247 3.82726,4.33247c1.39549,0 1.66153,-5.61061 2.24849,-8.44934c0.03866,-0.18694 0.10574,-0.79564 0.18874,-0.9051c0.09957,-0.13132 0.31513,-0.09751 0.43889,-0.11547c0.30358,-0.04407 0.5218,0.06744 0.5218,0.06744c0,0 -0.13522,4.65937 -0.51915,6.68137c-0.28305,1.49076 -1.34273,3.69859 -1.34273,3.69859c0,0 -1.0549,0.42594 -1.582,0.40428c-0.59685,-0.02453 -1.81593,-0.54392 -1.81593,-0.54392z" fill="#a0a8b1" stroke="none" stroke-width="0"/><path d="M245.39513,176.93898l-4.4685,-5.67872l1.11713,-0.04655l4.51505,5.2598z" fill="#a0a8b1" stroke="none" stroke-width="0"/><path d="M250.7325,182.66425c0,0 -0.31031,-0.52961 -0.31031,-0.74992c0,-0.17357 0.43961,-0.49133 0.43961,-0.49133c0,0 -0.16472,0.02586 0,0.02586c0.2114,0 0.31031,0 0.31031,0c0,0 0.41375,0.19769 0.41375,0.33617c0,0.10881 -0.01864,0.37114 -0.14418,0.55896c-0.13285,0.19876 -0.37301,0.32026 -0.37301,0.32026c0,0 -0.04437,0 -0.25859,0c-0.15148,0 -0.07758,0 -0.07758,0z" fill="#656c75" stroke="none" stroke-width="0"/><path d="M249.21197,185.96907l-1.02403,-0.55856c0,0 2.21056,-0.55752 3.16736,-0.61627c0.77203,-0.04741 3.3492,0.75591 3.3492,0.75591c0,0 -0.34183,0.44937 -0.7106,0.58842c-0.52281,0.19713 -2.12876,0.48216 -2.12876,0.48216c0,0 -1.03126,-0.15214 -1.47567,-0.26129c-0.43994,-0.10806 -1.1775,-0.39037 -1.1775,-0.39037z" fill="#656c75" stroke="none" stroke-width="0"/><path d="M227.28838,189.22736c0,0 -0.26344,-1.18766 -0.39294,-1.84811c-0.16977,-0.86584 -0.57191,-2.86575 -0.57191,-2.86575l4.68861,-0.03392c0,0 -0.14574,0.73276 -0.23805,1.25583c-0.12834,0.72725 0.38634,2.70066 0.38634,2.70066c0,0 -0.30234,0.19499 -0.5948,0.3698c-0.30079,0.17978 -0.6968,0.34017 -0.92818,0.38873c-0.69613,0.1461 -2.34907,0.03277 -2.34907,0.03277z" fill="url(#color-3)" stroke="none" stroke-width="0"/><path d="M232.25261,187.92026c0,0 -0.02046,-1.68399 -0.05714,-2.27099c-0.01944,-0.31102 -0.14636,-0.98505 -0.14636,-0.98505l3.15428,0.16959c0,0 -0.04732,1.44165 0.07515,1.94905c0.06946,0.28777 0.34841,0.51508 0.53018,0.70253c0.11758,0.12125 0.17476,0.26528 0.17476,0.26528c0,0 -0.25793,0.37256 -0.4936,0.49869c-0.38947,0.20844 -0.89429,0.21356 -1.37184,0.21356c-0.38785,0 -0.93785,-0.03983 -1.34015,-0.19122c-0.30513,-0.11482 -0.52529,-0.35145 -0.52529,-0.35145z" fill="url(#color-4)" stroke="none" stroke-width="0"/><path d="M239.85003,188.15768l-1.69585,-3.01862l2.84903,-0.30525l2.10286,3.01862c0,0 -0.33772,0.57221 -0.76719,0.61248c-0.59865,0.05612 -2.48885,-0.30722 -2.48885,-0.30722z" fill="url(#color-5)" stroke="none" stroke-width="0"/><path d="M245.33636,187.24067c0,0 -0.22146,0.0802 -0.46454,-0.06677c-0.1018,-0.06155 -0.3981,-0.08276 -0.53174,-0.1349c-0.35586,-0.13884 -0.55735,-0.35824 -0.67203,-0.51951c-0.07532,-0.10592 -1.43786,-1.13654 -1.51348,-1.7695c-0.0526,-0.44027 1.16522,-0.56559 1.16522,-0.56559c0,0 0.59277,-0.22957 1.00441,-0.08836c0.38578,0.13233 0.5877,0.63571 0.71078,0.64391c0.17974,0.01198 0.41277,0.45233 0.41277,0.45233c0,0 0.1784,0.20573 0.48802,0.50919c0.10599,0.10388 0.47882,0.35091 0.56031,0.46269c0.08189,0.11232 -0.0827,0.24784 -0.02894,0.32588c0.17766,0.25789 -0.71121,0.81972 -0.71121,0.81972z" fill="url(#color-6)" stroke="none" stroke-width="0"/></g></g></svg>