<svg version="1.1" xmlns="http://www.w3.org/2000/svg" xmlns:xlink="http://www.w3.org/1999/xlink" width="21.8139" height="22.83856" viewBox="0,0,21.8139,22.83856"><defs><linearGradient x1="240.76491" y1="172.95872" x2="240.76491" y2="191.62539" gradientUnits="userSpaceOnUse" id="color-1"><stop offset="0" stop-color="#94b5e0"/><stop offset="1" stop-color="#839dbe"/></linearGradient><linearGradient x1="240.00001" y1="180.00001" x2="240.00001" y2="180.00001" gradientUnits="userSpaceOnUse" id="color-2"><stop offset="0" stop-color="#373c42"/><stop offset="1" stop-color="#6c4a4a"/></linearGradient><linearGradient x1="240.00001" y1="180.00001" x2="240.00001" y2="180.00001" gradientUnits="userSpaceOnUse" id="color-3"><stop offset="0" stop-color="#373c42"/><stop offset="1" stop-color="#6c4a4a"/></linearGradient><linearGradient x1="240.00001" y1="180.00001" x2="240.00001" y2="180.00001" gradientUnits="userSpaceOnUse" id="color-4"><stop offset="0" stop-color="#373c42"/><stop offset="1" stop-color="#6c4a4a"/></linearGradient><linearGradient x1="240.00001" y1="180.00001" x2="240.00001" y2="180.00001" gradientUnits="userSpaceOnUse" id="color-5"><stop offset="0" stop-color="#373c42"/><stop offset="1" stop-color="#6c4a4a"/></linearGradient><linearGradient x1="240.00001" y1="180.00001" x2="240.00001" y2="180.00001" gradientUnits="userSpaceOnUse" id="color-6"><stop offset="0" stop-color="#26272b"/><stop offset="1" stop-color="#464e39"/></linearGradient><linearGradient x1="240.00001" y1="180.00001" x2="240.00001" y2="180.00001" gradientUnits="userSpaceOnUse" id="color-7"><stop offset="0" stop-color="#26272b" stop-opacity="0"/><stop offset="1" stop-color="#26272b"/></linearGradient><linearGradient x1="240.00001" y1="180.00001" x2="240.00001" y2="180.00001" gradientUnits="userSpaceOnUse" id="color-8"><stop offset="0" stop-color="#2c3822"/><stop offset="1" stop-color="#464e39"/></linearGradient><linearGradient x1="240.00001" y1="180.00001" x2="240.00001" y2="180.00001" gradientUnits="userSpaceOnUse" id="color-9"><stop offset="0" stop-color="#483225" stop-opacity="0"/><stop offset="1" stop-color="#483225"/></linearGradient><linearGradient x1="240.00001" y1="180.00001" x2="240.00001" y2="180.00001" gradientUnits="userSpaceOnUse" id="color-10"><stop offset="0" stop-color="#483225" stop-opacity="0"/><stop offset="1" stop-color="#483225"/></linearGradient><linearGradient x1="240.00001" y1="180.00001" x2="240.00001" y2="180.00001" gradientUnits="userSpaceOnUse" id="color-11"><stop offset="0" stop-color="#483225" stop-opacity="0"/><stop offset="1" stop-color="#483225"/></linearGradient><linearGradient x1="240.00001" y1="180.00001" x2="240.00001" y2="180.00001" gradientUnits="userSpaceOnUse" id="color-12"><stop offset="0" stop-color="#4d322b"/><stop offset="1" stop-color="#4d322b" stop-opacity="0"/></linearGradient><linearGradient x1="240.00001" y1="180.00001" x2="240.00001" y2="180.00001" gradientUnits="userSpaceOnUse" id="color-13"><stop offset="0" stop-color="#2d1f12" stop-opacity="0"/><stop offset="1" stop-color="#2d1f12"/></linearGradient><linearGradient x1="240.00001" y1="180.00001" x2="240.00001" y2="180.00001" gradientUnits="userSpaceOnUse" id="color-14"><stop offset="0" stop-color="#654a37"/><stop offset="1" stop-color="#654a37" stop-opacity="0"/></linearGradient><linearGradient x1="240.00001" y1="180.00001" x2="240.00001" y2="180.00001" gradientUnits="userSpaceOnUse" id="color-15"><stop offset="0" stop-color="#614832" stop-opacity="0"/><stop offset="1" stop-color="#614832"/></linearGradient><linearGradient x1="240.00001" y1="180.00001" x2="240.00001" y2="180.00001" gradientUnits="userSpaceOnUse" id="color-16"><stop offset="0" stop-color="#4a3516" stop-opacity="0"/><stop offset="1" stop-color="#4a3516"/></linearGradient><linearGradient x1="240.00001" y1="180.00001" x2="240.00001" y2="180.00001" gradientUnits="userSpaceOnUse" id="color-17"><stop offset="0" stop-color="#4a3516" stop-opacity="0"/><stop offset="1" stop-color="#4a3516"/></linearGradient><linearGradient x1="240.00001" y1="180.00001" x2="240.00001" y2="180.00001" gradientUnits="userSpaceOnUse" id="color-18"><stop offset="0" stop-color="#8e6c51" stop-opacity="0"/><stop offset="1" stop-color="#8e6c51"/></linearGradient><linearGradient x1="235.12205" y1="169.33967" x2="235.12205" y2="172.29206" gradientUnits="userSpaceOnUse" id="color-19"><stop offset="0" stop-color="#211d1c"/><stop offset="1" stop-color="#211d1c" stop-opacity="0"/></linearGradient><linearGradient x1="239.90777" y1="180.10158" x2="239.90777" y2="183.53015" gradientUnits="userSpaceOnUse" id="color-20"><stop offset="0" stop-color="#211d1c" stop-opacity="0"/><stop offset="1" stop-color="#211d1c"/></linearGradient></defs><g transform="translate(-228.71805,-168.832)"><g data-paper-data="{&quot;isPaintingLayer&quot;:true}" fill-rule="nonzero" stroke-linecap="butt" stroke-linejoin="miter" stroke-miterlimit="10" stroke-dasharray="" stroke-dashoffset="0" style="mix-blend-mode: normal"><path d="M230.02681,190.86348c0,0 -0.8397,-0.91689 -0.46034,-2.31613c1.05739,-3.90011 3.07673,-11.54764 3.20563,-13.53282c0.0564,-0.86861 0.82614,-1.72248 0.82614,-1.72248c0,0 0.22693,-0.01851 1.14401,-0.03654c1.89845,-0.03733 7.44477,2.18454 10.33812,3.40338c1.09007,0.4592 1.13691,0.63316 1.13691,0.63316c0,0 0.64726,0.70132 0.60801,1.56443c-0.1093,2.40357 -0.37248,7.16961 -0.79888,8.81642c-0.17131,0.66163 -0.28532,0.71439 -0.28532,0.71439c0,0 -0.70352,0.68148 -1.74781,0.84951c-3.48121,0.56014 -11.27847,1.76457 -13.48197,1.68426c-0.819,-0.02985 -0.48451,-0.05758 -0.48451,-0.05758z" fill="url(#color-1)" stroke="#516a91" stroke-width="1.5"/><path d="M247.18157,182.69682c0,0 -2.45212,-0.2985 -4.29529,-0.08121c-0.59939,0.07066 -0.20737,0.88962 -0.51257,1.12377c-0.45836,0.35165 -1.50284,0.10169 -1.95898,-0.25145c-0.92578,-0.71674 -0.02258,0.8654 -1.27406,-0.62538c-1.69088,-2.0142 -2.78383,-6.92246 -4.23781,-9.70347c-0.48666,-0.93084 -1.43229,-0.16818 -2.34173,-0.75143c-0.54651,-0.35049 -0.2367,-1.21082 -0.2367,-1.21082c0,0 2.7087,-1.61829 3.69475,-1.73559c0.28145,-0.03348 1.61061,0.09344 1.99462,0.47496c0.82645,0.8211 1.76413,3.15976 3.17005,3.10694c1.34369,-0.05049 2.95413,1.02435 4.11462,1.65177c1.27005,0.68666 2.0718,0.97869 3.11639,2.11571c1.33398,1.45202 1.981,2.81479 1.981,2.81479c0,0 0.47718,4.09678 -0.35552,5.75106c-0.45761,0.90912 -1.89203,2.66384 -3.24375,3.63891c-1.42489,1.02785 -2.75787,1.25289 -2.75787,1.25289c0,0 3.77887,-4.5909 2.93011,-4.54374c-0.60511,0.03361 -1.86067,1.76434 -3.65073,2.38252c-2.42438,0.83723 -0.8874,-0.89668 1.02385,-2.46056c1.60868,-1.31629 2.83963,-2.94965 2.83963,-2.94965z" fill-opacity="0.5" fill="#000000" stroke="none" stroke-width="0"/><path d="" fill="#000000" stroke="none" stroke-width="0"/><path d="" fill-opacity="0.5" fill="#000000" stroke="none" stroke-width="0"/><path d="" fill-opacity="0.5" fill="#000000" stroke="none" stroke-width="0"/><path d="" fill-opacity="0.5" fill="#000000" stroke="none" stroke-width="0"/><path d="" fill-opacity="0.5" fill="#000000" stroke="none" stroke-width="0"/><path d="" fill="#5e6669" stroke="#ffffff" stroke-width="0.5"/><path d="" fill="#464d55" stroke="none" stroke-width="0"/><path d="" fill="#464d55" stroke="none" stroke-width="0"/><path d="" fill="#464d55" stroke="none" stroke-width="0"/><path d="" fill="#464d55" stroke="none" stroke-width="0"/><path d="" fill="url(#color-2)" stroke="none" stroke-width="0"/><path d="" fill="url(#color-3)" stroke="none" stroke-width="0"/><path d="" fill="#464d55" stroke="none" stroke-width="0"/><path d="" fill="url(#color-4)" stroke="none" stroke-width="0"/><path d="" fill="url(#color-5)" stroke="none" stroke-width="0"/><path d="" fill="#ffffff" stroke="none" stroke-width="0"/><path d="" fill="#373c42" stroke="none" stroke-width="0"/><path d="" fill="#464e39" stroke="#ffffff" stroke-width="0.5"/><path d="" fill="#343321" stroke="none" stroke-width="0"/><path d="" fill="url(#color-6)" stroke="none" stroke-width="0"/><path d="" fill="url(#color-7)" stroke="none" stroke-width="0"/><path d="" fill="url(#color-8)" stroke="none" stroke-width="0"/><path d="" fill="#30351d" stroke="none" stroke-width="0"/><path d="" fill="#30351d" stroke="none" stroke-width="0"/><path d="" fill="#968780" stroke="#ffffff" stroke-width="0.5"/><path d="" fill="#695b5a" stroke="none" stroke-width="0"/><path d="" fill="url(#color-9)" stroke="none" stroke-width="0"/><path d="" fill="url(#color-10)" stroke="none" stroke-width="0"/><path d="" fill="url(#color-11)" stroke="none" stroke-width="0"/><path d="" fill="#5f5353" stroke="none" stroke-width="0"/><path d="" fill="#443a38" stroke="none" stroke-width="0"/><path d="" fill="#725f59" stroke="none" stroke-width="0"/><path d="" data-paper-data="{&quot;index&quot;:null}" fill="#725f59" stroke="none" stroke-width="0"/><path d="" fill="#725f59" stroke="none" stroke-width="0"/><path d="" fill="#7c6a66" stroke="none" stroke-width="0"/><path d="" fill="#61493b" stroke="#ffffff" stroke-width="0.5"/><path d="" fill="#4d322b" stroke="none" stroke-width="0"/><path d="" fill="url(#color-12)" stroke="none" stroke-width="0"/><path d="" fill="url(#color-13)" stroke="none" stroke-width="0"/><path d="" fill="#32251d" stroke="none" stroke-width="0"/><path d="" fill="#b7956f" stroke="#ffffff" stroke-width="0.5"/><path d="" fill="url(#color-14)" stroke="none" stroke-width="0"/><path d="" fill="#614832" stroke="none" stroke-width="0"/><path d="" fill="#765834" stroke="none" stroke-width="0"/><path d="" fill="url(#color-15)" stroke="none" stroke-width="0"/><path d="" fill="url(#color-16)" stroke="none" stroke-width="0"/><path d="" fill="url(#color-17)" stroke="none" stroke-width="0"/><path d="" fill="url(#color-18)" stroke="none" stroke-width="0"/><path d="M246.65777,182.31586c0,0 -2.45212,-0.2985 -4.29529,-0.08121c-0.59939,0.07066 -0.20737,0.88962 -0.51257,1.12377c-0.45836,0.35165 -1.50284,0.10169 -1.95898,-0.25146c-0.92579,-0.71674 -0.02258,0.86541 -1.27406,-0.62537c-1.69088,-2.0142 -2.78383,-6.92246 -4.2378,-9.70348c-0.48666,-0.93084 -1.43229,-0.16818 -2.34173,-0.75144c-0.54651,-0.35049 -0.2367,-1.21082 -0.2367,-1.21082c0,0 2.70871,-1.6183 3.69476,-1.7356c0.28145,-0.03348 1.6106,0.09344 1.99461,0.47496c0.82645,0.82109 1.76413,3.15977 3.17005,3.10694c1.34369,-0.05049 2.95413,1.02434 4.11462,1.65177c1.27005,0.68666 2.07181,0.97868 3.11639,2.11571c1.33398,1.45203 1.98099,2.81479 1.98099,2.81479c0,0 0.47718,4.09677 -0.35552,5.75106c-0.45761,0.90911 -1.89204,2.66384 -3.24376,3.63891c-1.42489,1.02785 -2.75787,1.25289 -2.75787,1.25289c0,0 3.77886,-4.59089 2.93011,-4.54374c-0.60511,0.03362 -1.86067,1.76434 -3.65074,2.38252c-2.42438,0.83723 -0.88739,-0.89669 1.02385,-2.46056c1.60867,-1.3163 2.83963,-2.94965 2.83963,-2.94965z" fill="#6e6e6c" stroke="#ffffff" stroke-width="0.5"/><path d="M235.21729,173.76825c0,0 -0.49124,-1.08348 -1.17423,-1.55136c-0.61793,-0.4233 -1.42736,-0.23035 -1.54342,-0.31785c-0.11451,-0.08632 -0.37539,-0.0826 -0.47399,-0.27075c-0.1373,-0.262 -0.09408,-0.71719 -0.09408,-0.71719c0,0 2.35758,-1.28877 3.14738,-1.50748c1.14132,-0.31606 2.18596,-0.15919 2.18596,-0.15919c0,0 0.07481,0.46001 0.39294,0.96876c0.42688,0.68265 1.1394,1.4912 1.24338,1.75738c0.03312,0.08479 0.56196,3.34909 -0.42231,3.80128c-0.86776,0.39866 -3.26163,-2.00361 -3.26163,-2.00361z" fill="url(#color-19)" stroke="none" stroke-width="0"/><path d="M242.83634,178.24444c0,0 -1.44405,-0.96122 -1.75072,-1.85983c-0.3655,-1.07099 -0.58261,-3.4735 -0.58261,-3.4735c0,0 0.60585,-0.05192 1.14304,0.09457c1.08986,0.2972 2.63901,0.96594 3.46743,1.42506c1.38201,0.76594 3.10382,2.62323 3.10382,2.62323c0,0 1.17425,0.79563 1.57138,2.57144c0.32646,1.4598 0.06991,4.0658 -0.21349,4.72484c-0.19552,0.45468 -0.31315,0.75059 -0.68433,1.29693c-0.75508,1.1114 -2.10453,2.32143 -2.96489,2.97079c-0.70685,0.5335 -1.54667,0.66615 -1.81214,0.91121c-0.19139,0.17668 0.61731,-0.98273 1.3819,-1.89553c0.7276,-0.86864 1.65783,-1.95866 1.23735,-2.19494c-0.29634,-0.16652 -1.93,1.01837 -3.10962,1.66151c-1.10285,0.60127 -1.81448,0.8119 -1.78727,0.52976c0.08599,-0.89167 2.86746,-2.43946 3.33315,-3.29525c0.74106,-1.36185 2.86198,-1.21954 3.41618,-2.4049c0.48162,-1.03011 0.15559,-2.39966 0.15559,-2.39966c0,0 -1.28396,-1.07873 -2.06598,-1.249c-1.08515,-0.23628 -3.83878,-0.03671 -3.83878,-0.03671z" fill="#211d1c" stroke="none" stroke-width="0"/><path d="M239.31253,182.86348c0,0 -1.05699,-1.16706 -1.34753,-1.70664c-0.26207,-0.48671 -0.60485,-1.3886 -0.60485,-1.3886c0,0 2.69975,-1.80959 3.83033,-1.50608c0.74729,0.20061 4.60385,-0.59647 6.75958,0.42473c1.38284,0.65507 1.50533,3.31944 1.50533,3.31944c0,0 -2.74452,1.76404 -3.52417,1.76714c-0.43831,0.00174 0.24488,-0.54644 0.74395,-1.01559c0.25773,-0.24228 0.60603,-0.4984 0.4317,-0.5734c-0.78937,-0.3396 -3.60703,-0.15367 -3.88974,-0.15153c-0.55592,0.0042 -1.4009,-0.08188 -1.42563,0.11048c-0.07898,0.6143 -0.00278,1.19624 -0.00278,1.19624c0,0 -0.90696,-0.05196 -1.30733,-0.14804c-0.39316,-0.09436 -1.16886,-0.32815 -1.16886,-0.32815z" fill="url(#color-20)" stroke="none" stroke-width="0"/></g></g></svg>