<svg version="1.1" xmlns="http://www.w3.org/2000/svg" xmlns:xlink="http://www.w3.org/1999/xlink" width="31.11461" height="17.6269" viewBox="0,0,31.11461,17.6269"><defs><linearGradient x1="245.63755" y1="172.35122" x2="245.63755" y2="188.57134" gradientUnits="userSpaceOnUse" id="color-1"><stop offset="0" stop-color="#94b5e0"/><stop offset="1" stop-color="#839dbe"/></linearGradient><linearGradient x1="240.00001" y1="180.00001" x2="240.00001" y2="180.00001" gradientUnits="userSpaceOnUse" id="color-2"><stop offset="0" stop-color="#373c42"/><stop offset="1" stop-color="#6c4a4a"/></linearGradient><linearGradient x1="240.00001" y1="180.00001" x2="240.00001" y2="180.00001" gradientUnits="userSpaceOnUse" id="color-3"><stop offset="0" stop-color="#373c42"/><stop offset="1" stop-color="#6c4a4a"/></linearGradient><linearGradient x1="240.00001" y1="180.00001" x2="240.00001" y2="180.00001" gradientUnits="userSpaceOnUse" id="color-4"><stop offset="0" stop-color="#373c42"/><stop offset="1" stop-color="#6c4a4a"/></linearGradient><linearGradient x1="240.00001" y1="180.00001" x2="240.00001" y2="180.00001" gradientUnits="userSpaceOnUse" id="color-5"><stop offset="0" stop-color="#373c42"/><stop offset="1" stop-color="#6c4a4a"/></linearGradient><linearGradient x1="240.00001" y1="180.00001" x2="240.00001" y2="180.00001" gradientUnits="userSpaceOnUse" id="color-6"><stop offset="0" stop-color="#26272b"/><stop offset="1" stop-color="#464e39"/></linearGradient><linearGradient x1="240.00001" y1="180.00001" x2="240.00001" y2="180.00001" gradientUnits="userSpaceOnUse" id="color-7"><stop offset="0" stop-color="#26272b" stop-opacity="0"/><stop offset="1" stop-color="#26272b"/></linearGradient><linearGradient x1="240.00001" y1="180.00001" x2="240.00001" y2="180.00001" gradientUnits="userSpaceOnUse" id="color-8"><stop offset="0" stop-color="#2c3822"/><stop offset="1" stop-color="#464e39"/></linearGradient><linearGradient x1="240.00001" y1="180.00001" x2="240.00001" y2="180.00001" gradientUnits="userSpaceOnUse" id="color-9"><stop offset="0" stop-color="#483225" stop-opacity="0"/><stop offset="1" stop-color="#483225"/></linearGradient><linearGradient x1="240.00001" y1="180.00001" x2="240.00001" y2="180.00001" gradientUnits="userSpaceOnUse" id="color-10"><stop offset="0" stop-color="#483225" stop-opacity="0"/><stop offset="1" stop-color="#483225"/></linearGradient><linearGradient x1="240.00001" y1="180.00001" x2="240.00001" y2="180.00001" gradientUnits="userSpaceOnUse" id="color-11"><stop offset="0" stop-color="#483225" stop-opacity="0"/><stop offset="1" stop-color="#483225"/></linearGradient><linearGradient x1="240.00001" y1="180.00001" x2="240.00001" y2="180.00001" gradientUnits="userSpaceOnUse" id="color-12"><stop offset="0" stop-color="#4d322b"/><stop offset="1" stop-color="#4d322b" stop-opacity="0"/></linearGradient><linearGradient x1="240.00001" y1="180.00001" x2="240.00001" y2="180.00001" gradientUnits="userSpaceOnUse" id="color-13"><stop offset="0" stop-color="#2d1f12" stop-opacity="0"/><stop offset="1" stop-color="#2d1f12"/></linearGradient><linearGradient x1="240.00001" y1="180.00001" x2="240.00001" y2="180.00001" gradientUnits="userSpaceOnUse" id="color-14"><stop offset="0" stop-color="#654a37"/><stop offset="1" stop-color="#654a37" stop-opacity="0"/></linearGradient><linearGradient x1="240.00001" y1="180.00001" x2="240.00001" y2="180.00001" gradientUnits="userSpaceOnUse" id="color-15"><stop offset="0" stop-color="#614832" stop-opacity="0"/><stop offset="1" stop-color="#614832"/></linearGradient><linearGradient x1="240.00001" y1="180.00001" x2="240.00001" y2="180.00001" gradientUnits="userSpaceOnUse" id="color-16"><stop offset="0" stop-color="#4a3516" stop-opacity="0"/><stop offset="1" stop-color="#4a3516"/></linearGradient><linearGradient x1="240.00001" y1="180.00001" x2="240.00001" y2="180.00001" gradientUnits="userSpaceOnUse" id="color-17"><stop offset="0" stop-color="#4a3516" stop-opacity="0"/><stop offset="1" stop-color="#4a3516"/></linearGradient><linearGradient x1="240.00001" y1="180.00001" x2="240.00001" y2="180.00001" gradientUnits="userSpaceOnUse" id="color-18"><stop offset="0" stop-color="#8e6c51" stop-opacity="0"/><stop offset="1" stop-color="#8e6c51"/></linearGradient></defs><g transform="translate(-224.3177,-171.3217)"><g data-paper-data="{&quot;isPaintingLayer&quot;:true}" fill-rule="nonzero" stroke-linecap="butt" stroke-linejoin="miter" stroke-miterlimit="10" stroke-dasharray="" stroke-dashoffset="0" style="mix-blend-mode: normal"><path d="M238.92177,186.5264c0,0 -0.03835,-0.36364 -0.26979,-1.34993c-0.38131,-1.62498 -1.56472,-6.66813 -2.16374,-9.22084c-0.21524,-0.91727 0.38858,-1.60593 0.38858,-1.60593c0,0 -0.23493,-0.12569 0.54265,-0.43132c1.60536,-0.631 4.35686,-1.63277 6.14425,-1.84668c1.62676,-0.19469 4.57149,-0.74818 6.20855,0.09543c1.48412,0.7648 1.74448,2.9262 1.74448,2.9262c0,0 0.61396,6.23102 -0.50779,8.5068c-1.02241,2.07425 -5.95237,4.59942 -5.95237,4.59942c0,0 -0.95115,0.04786 -1.67591,0.08432c-0.82158,0.04134 -2.22743,-0.3327 -3.19046,-0.62767c-0.60559,-0.18548 -1.26846,-1.12979 -1.26846,-1.12979z" fill="url(#color-1)" stroke="#516a91" stroke-width="1.5"/><path d="M235.83737,185.60404c0,0 -12.73037,-1.87323 -10.35722,-4.23492c1.28596,-1.27975 6.14967,-2.27235 9.0806,-3.33592c1.66118,-0.6028 2.30778,-1.7096 2.30778,-1.7096c0,0 0.44404,-0.57542 0.96594,-0.57c0.25826,0.00268 0.82942,0.34178 0.81558,0.95616c-0.01847,0.82012 -0.57545,1.97961 0.54819,2.02662c2.89597,0.12115 6.44154,3.3181 10.16811,3.18408c1.07762,-0.03876 1.97681,-1.59609 3.1587,-2.57295c0.86483,-0.71481 2.12054,-0.93916 2.51262,-0.92703c0.61532,0.01905 0.3273,0.86769 0.3273,0.86769c0,0 -0.40523,0.65625 -1.25485,1.9129c-0.4164,0.61589 -1.42923,1.18014 -1.6024,2.26243c-0.26233,1.63952 1.50561,3.67282 1.21233,4.1541c-0.42101,0.69088 -3.25309,-2.85139 -3.25309,-2.85139c0,0 -7.26226,0.92558 -11.5299,0.51543c-1.33955,-0.12874 2.34576,1.61433 3.43583,2.50958c0.72429,0.59484 -0.95701,0.49143 -1.44449,0.39233c-1.92406,-0.39112 -5.09103,-2.57953 -5.09103,-2.57953z" fill-opacity="0.5" fill="#000000" stroke="none" stroke-width="0"/><path d="" fill="#000000" stroke="none" stroke-width="0"/><path d="" fill-opacity="0.5" fill="#000000" stroke="none" stroke-width="0"/><path d="" fill-opacity="0.5" fill="#000000" stroke="none" stroke-width="0"/><path d="" fill-opacity="0.5" fill="#000000" stroke="none" stroke-width="0"/><path d="" fill-opacity="0.5" fill="#000000" stroke="none" stroke-width="0"/><path d="" fill="#5e6669" stroke="#ffffff" stroke-width="0.5"/><path d="" fill="#464d55" stroke="none" stroke-width="0"/><path d="" fill="#464d55" stroke="none" stroke-width="0"/><path d="" fill="#464d55" stroke="none" stroke-width="0"/><path d="" fill="#464d55" stroke="none" stroke-width="0"/><path d="" fill="url(#color-2)" stroke="none" stroke-width="0"/><path d="" fill="url(#color-3)" stroke="none" stroke-width="0"/><path d="" fill="#464d55" stroke="none" stroke-width="0"/><path d="" fill="url(#color-4)" stroke="none" stroke-width="0"/><path d="" fill="url(#color-5)" stroke="none" stroke-width="0"/><path d="" fill="#ffffff" stroke="none" stroke-width="0"/><path d="" fill="#373c42" stroke="none" stroke-width="0"/><path d="" fill="#464e39" stroke="#ffffff" stroke-width="0.5"/><path d="" fill="#343321" stroke="none" stroke-width="0"/><path d="" fill="url(#color-6)" stroke="none" stroke-width="0"/><path d="" fill="url(#color-7)" stroke="none" stroke-width="0"/><path d="" fill="url(#color-8)" stroke="none" stroke-width="0"/><path d="" fill="#30351d" stroke="none" stroke-width="0"/><path d="" fill="#30351d" stroke="none" stroke-width="0"/><path d="" fill="#968780" stroke="#ffffff" stroke-width="0.5"/><path d="" fill="#695b5a" stroke="none" stroke-width="0"/><path d="" fill="url(#color-9)" stroke="none" stroke-width="0"/><path d="" fill="url(#color-10)" stroke="none" stroke-width="0"/><path d="" fill="url(#color-11)" stroke="none" stroke-width="0"/><path d="" fill="#5f5353" stroke="none" stroke-width="0"/><path d="" fill="#443a38" stroke="none" stroke-width="0"/><path d="" fill="#725f59" stroke="none" stroke-width="0"/><path d="" data-paper-data="{&quot;index&quot;:null}" fill="#725f59" stroke="none" stroke-width="0"/><path d="" fill="#725f59" stroke="none" stroke-width="0"/><path d="" fill="#7c6a66" stroke="none" stroke-width="0"/><path d="" fill="#61493b" stroke="#ffffff" stroke-width="0.5"/><path d="" fill="#4d322b" stroke="none" stroke-width="0"/><path d="" fill="url(#color-12)" stroke="none" stroke-width="0"/><path d="" fill="url(#color-13)" stroke="none" stroke-width="0"/><path d="" fill="#32251d" stroke="none" stroke-width="0"/><path d="" fill="#b7956f" stroke="#ffffff" stroke-width="0.5"/><path d="" fill="url(#color-14)" stroke="none" stroke-width="0"/><path d="" fill="#614832" stroke="none" stroke-width="0"/><path d="" fill="#765834" stroke="none" stroke-width="0"/><path d="" fill="url(#color-15)" stroke="none" stroke-width="0"/><path d="" fill="url(#color-16)" stroke="none" stroke-width="0"/><path d="" fill="url(#color-17)" stroke="none" stroke-width="0"/><path d="" fill="url(#color-18)" stroke="none" stroke-width="0"/><path d="M235.2198,184.92203c0,0 -12.73037,-1.87324 -10.35722,-4.23492c1.28596,-1.27975 6.14966,-2.27235 9.08059,-3.33592c1.66118,-0.60281 2.30779,-1.7096 2.30779,-1.7096c0,0 0.44404,-0.57542 0.96594,-0.57c0.25826,0.00268 0.82942,0.34178 0.81558,0.95617c-0.01848,0.82013 -0.57545,1.97961 0.5482,2.02662c2.89597,0.12115 6.44154,3.3181 10.16811,3.18408c1.07762,-0.03875 1.97682,-1.59609 3.1587,-2.57295c0.86483,-0.71481 2.12054,-0.93916 2.51262,-0.92702c0.61532,0.01905 0.3273,0.86769 0.3273,0.86769c0,0 -0.40522,0.65625 -1.25485,1.91291c-0.41641,0.61589 -1.42923,1.18013 -1.6024,2.26242c-0.26232,1.63952 1.50561,3.67282 1.21233,4.1541c-0.42101,0.69088 -3.25309,-2.85139 -3.25309,-2.85139c0,0 -7.26226,0.92558 -11.5299,0.51543c-1.33955,-0.12874 2.34576,1.61433 3.43583,2.50958c0.72428,0.59484 -0.95702,0.49142 -1.4445,0.39233c-1.92405,-0.39112 -5.09103,-2.57953 -5.09103,-2.57953z" fill="#546291" stroke="#ffffff" stroke-width="0.5"/><path d="M227.98051,181.16617c0,0 -1.47515,0.30737 -1.87181,0.16457c-0.37693,-0.13569 -0.45199,-1.00114 -0.45199,-1.00114c0,0 1.00516,-0.50097 1.80583,-0.7641c0.97385,-0.32004 3.56069,-0.99407 5.46341,-1.6406c1.46218,-0.49684 2.44424,-1.03452 2.44424,-1.03452c0,0 3.15023,2.03025 2.89134,2.88449c-0.12129,0.40021 -3.31811,-0.03357 -3.57313,0.14986c-0.45515,0.32739 -1.51406,0.00529 -2.48781,0.16144c-1.04353,0.16734 -2.12867,0.61524 -2.12867,0.61524z" fill="#b2bdea" stroke="none" stroke-width="0"/><path d="M227.6087,183.21111c0,0 -0.29037,-0.11964 -0.52577,-0.25324c-0.21939,-0.12452 -0.37881,-0.26118 -0.53509,-0.32444c-0.32667,-0.13222 -0.79817,-0.44479 -0.79817,-0.44479l4.78703,0.65066l4.18284,1.71961c0,0 -2.07011,-0.25468 -3.25458,-0.50525c-1.23052,-0.2603 -3.85624,-0.84256 -3.85624,-0.84256z" fill="#b2bdea" stroke="none" stroke-width="0"/><path d="M238.94884,184.46596l4.04341,-1.76609l4.46169,0.09295l1.90551,1.1619c0,0 -3.20308,0.48085 -4.87232,0.58612c-1.76467,0.11129 -5.53829,-0.07488 -5.53829,-0.07488z" fill="#b2bdea" stroke="none" stroke-width="0"/></g></g></svg>