<svg version="1.1" xmlns="http://www.w3.org/2000/svg" xmlns:xlink="http://www.w3.org/1999/xlink" width="42.38939" height="18.18397" viewBox="0,0,42.38939,18.18397"><defs><linearGradient x1="239.39524" y1="171.27843" x2="239.39524" y2="188.13757" gradientUnits="userSpaceOnUse" id="color-1"><stop offset="0" stop-color="#ddd9d8"/><stop offset="1" stop-color="#a19796"/></linearGradient></defs><g transform="translate(-218.68031,-170.78301)"><g data-paper-data="{&quot;isPaintingLayer&quot;:true}" fill-rule="nonzero" stroke-linejoin="miter" stroke-miterlimit="10" stroke-dasharray="" stroke-dashoffset="0" style="mix-blend-mode: normal"><path d="M223.48726,178.66973c0,0 -2.31947,0.51011 -3.47096,-0.39402c-0.47472,-0.37274 -0.58809,-1.10268 -0.33646,-1.92104c0.37187,-1.20938 4.11716,-3.57015 4.11716,-3.57015c0,0 2.9327,-0.24348 4.1199,0.46325c1.07336,0.63896 0.33212,1.74564 1.70628,1.7898c0.6488,0.02086 0.89262,-1.05702 2.075,-1.85743c0.95326,-0.64532 2.88828,-1.04833 3.27208,-1.02735c1.28715,0.07036 2.61194,0.65136 3.66699,0.97387c0.88659,0.27102 5.51801,5.38294 7.39703,7.45521c1.71675,1.89332 3.10503,2.84596 4.1587,2.97242c0.27188,0.03263 1.65349,-0.41075 2.74704,-1.94416c0.70097,-0.98293 0.85709,-2.52454 1.87676,-3.75769c0.97467,-1.17874 2.82237,-2.07183 3.12574,-2.08777c0.87732,-0.04612 1.56399,0.51556 1.56399,0.51556c0,0 1.59822,0.62432 1.5594,1.63838c-0.00278,0.07256 0.05667,1.01984 -0.21128,1.5008c-0.72732,1.30551 -2.76775,3.07584 -4.00188,4.5975c-0.59134,0.72912 -0.71323,1.53209 -1.28396,2.1319c-1.45247,1.52649 -2.63443,1.68601 -2.74993,1.67865c-0.40355,-0.02572 -4.88511,-0.00713 -5.30233,-0.03267c-0.30775,-0.01883 -2.12147,-1.40738 -2.43185,-1.422c-0.17621,-0.0083 -0.33083,1.01577 -0.49478,1.61712c-0.06873,0.25209 -0.18335,0.34141 -0.25763,0.33772c-0.10953,-0.00544 -0.24798,0.07755 -0.46689,0.07197c-0.47027,-0.01199 -1.32889,-0.02429 -1.7668,-0.03693c-0.16621,-0.0048 0.40431,-0.00964 0.31561,-0.01454c-0.10847,-0.00598 -0.61919,-0.13092 -0.60844,-0.30464c0.02574,-0.41592 0.25049,-1.11148 -0.00886,-1.12378c-0.39753,-0.01886 -0.61775,-0.08014 -1.01394,-0.09516c-0.47103,-0.01786 -0.58473,1.42368 -0.91579,2.01713c-0.11471,0.20562 -0.81601,0.09678 -0.86793,0.09452c-0.91169,-0.03963 -1.94027,-0.11068 -2.82785,-0.16744c-0.12936,-0.00827 0.14252,0.02707 0.01995,0.01739c-0.12278,-0.0097 -0.32391,-0.21141 -0.00633,-0.46182c0.29231,-0.23048 0.68669,-0.5397 1.0276,-0.88492c0.76467,-0.77431 1.30175,-1.70902 1.0471,-1.7264c-0.22995,-0.0157 -1.06177,-0.36837 -1.59669,-1.0431c-0.35832,-0.45197 -0.46144,-1.31679 -0.61474,-1.3239c-0.2811,-0.01302 -3.17089,4.97383 -3.44767,4.96012c-1.19731,-0.05929 -2.13277,-0.03735 -3.22926,-0.11207c-1.19036,-0.08111 2.99373,-3.10848 1.85907,-3.14826c-0.72757,-0.02551 -1.19907,0.69961 -1.9231,1.39039c-0.72926,0.69578 -1.71742,1.11894 -2.47384,1.61294c-0.50774,0.3316 -0.81382,0.88961 -1.2309,0.85578c-1.33979,-0.10865 -2.64397,0.15241 -3.69356,-0.01816c-1.6787,-0.27281 -1.18533,-0.63396 0.24303,-1.33774c0.34681,-0.17088 1.49828,-0.02883 1.82091,-0.29563c1.4606,-1.20782 2.03664,-3.87687 1.41312,-4.0446c-0.26797,-0.07209 0.11685,-1.05752 -0.28108,-2.14258c-0.42093,-1.14778 -1.61771,-2.39648 -1.61771,-2.39648z" fill-opacity="0.5" fill="#000000" stroke="none" stroke-width="0" stroke-linecap="butt"/><path d="" fill="#ddd9d8" stroke="none" stroke-width="0" stroke-linecap="butt"/><path d="" fill="#ddd9d8" stroke="#ffffff" stroke-width="0.5" stroke-linecap="butt"/><path d="" fill="#ddd9d8" stroke="none" stroke-width="0" stroke-linecap="butt"/><path d="" fill="#ddd9d8" stroke="none" stroke-width="0" stroke-linecap="butt"/><path d="" fill="#ddd9d8" stroke="none" stroke-width="0" stroke-linecap="butt"/><path d="" fill="#ddd9d8" stroke="none" stroke-width="0" stroke-linecap="butt"/><path d="" fill="#ddd9d8" stroke="none" stroke-width="0" stroke-linecap="butt"/><path d="" fill="#ddd9d8" stroke="none" stroke-width="0" stroke-linecap="butt"/><path d="" fill="#ddd9d8" stroke="none" stroke-width="0" stroke-linecap="butt"/><path d="" fill="#ddd9d8" stroke="none" stroke-width="0" stroke-linecap="butt"/><path d="" fill="#ddd9d8" stroke="none" stroke-width="0" stroke-linecap="butt"/><path d="" fill="#ddd9d8" stroke="none" stroke-width="0" stroke-linecap="butt"/><path d="" fill="#ddd9d8" stroke="none" stroke-width="0" stroke-linecap="butt"/><path d="M222.86798,177.96013c0,0 -2.31947,0.51011 -3.47096,-0.39402c-0.47472,-0.37274 -0.58809,-1.10267 -0.33646,-1.92103c0.37187,-1.20938 4.11717,-3.57015 4.11717,-3.57015c0,0 1.64902,-1.24314 2.97456,-1.01365c0.44218,0.07655 0.84837,1.30013 1.14534,1.47691c1.07336,0.63896 0.33212,1.74564 1.70628,1.7898c0.6488,0.02086 0.89262,-1.05702 2.075,-1.85743c0.95326,-0.64532 2.88828,-1.04833 3.27208,-1.02735c1.28715,0.07036 2.61194,0.65136 3.66699,0.97387c0.88659,0.27102 5.51801,5.38294 7.39702,7.45521c1.71675,1.89332 3.10503,2.84596 4.1587,2.97241c0.27188,0.03263 1.65349,-0.41075 2.74704,-1.94416c0.70097,-0.98293 0.85709,-2.52453 1.87676,-3.75768c0.97467,-1.17874 2.82237,-2.07183 3.12574,-2.08778c0.87732,-0.04612 1.56399,0.51556 1.56399,0.51556c0,0 1.59822,0.62432 1.5594,1.63838c-0.00278,0.07256 0.05667,1.01984 -0.21128,1.5008c-0.72732,1.30551 -2.76775,3.07584 -4.00188,4.5975c-0.59134,0.72912 -0.71323,1.53209 -1.28396,2.1319c-1.45247,1.52649 -2.63443,1.686 -2.74993,1.67864c-0.40355,-0.02572 -4.88511,-0.00713 -5.30233,-0.03267c-0.30775,-0.01883 -2.12147,-1.40738 -2.43185,-1.422c-0.17621,-0.0083 -0.33083,1.01577 -0.49478,1.61712c-0.06873,0.25209 -0.18335,0.34141 -0.25763,0.33772c-0.10953,-0.00544 -0.24798,0.07755 -0.46689,0.07197c-0.47027,-0.01199 -1.32889,-0.02429 -1.7668,-0.03693c-0.16621,-0.0048 0.40431,-0.00964 0.31561,-0.01453c-0.10847,-0.00598 -0.61919,-0.13092 -0.60844,-0.30465c0.02574,-0.41592 0.25049,-1.11148 -0.00886,-1.12378c-0.39753,-0.01886 -0.61774,-0.08014 -1.01394,-0.09516c-0.47103,-0.01786 -0.58473,1.42368 -0.91579,2.01713c-0.11471,0.20562 -0.81601,0.09678 -0.86793,0.09452c-0.91169,-0.03963 -1.94027,-0.11068 -2.82785,-0.16744c-0.12936,-0.00827 0.14252,0.02707 0.01995,0.01739c-0.12278,-0.0097 -0.32391,-0.21141 -0.00633,-0.46182c0.29231,-0.23048 0.68668,-0.5397 1.0276,-0.88492c0.76467,-0.77431 1.30175,-1.70902 1.0471,-1.7264c-0.22995,-0.0157 -1.06177,-0.36837 -1.59669,-1.0431c-0.35832,-0.45197 -0.46144,-1.31679 -0.61474,-1.3239c-0.2811,-0.01302 -3.1709,4.97383 -3.44768,4.96012c-1.19731,-0.05929 -2.13277,-0.03735 -3.22926,-0.11207c-1.19036,-0.08111 2.99373,-3.10848 1.85907,-3.14826c-0.72757,-0.02551 -1.19907,0.69961 -1.9231,1.39039c-0.72926,0.69578 -1.71742,1.11894 -2.47384,1.61294c-0.50774,0.3316 -0.81382,0.88961 -1.2309,0.85579c-1.33979,-0.10865 -2.64397,0.15241 -3.69356,-0.01816c-1.6787,-0.27281 -1.18533,-0.63396 0.24303,-1.33774c0.34681,-0.17088 1.49828,-0.02883 1.82091,-0.29563c1.4606,-1.20782 2.03664,-3.87687 1.41312,-4.0446c-0.26797,-0.07209 0.11685,-1.05752 -0.28108,-2.14257c-0.42093,-1.14778 -1.61771,-2.39649 -1.61771,-2.39649z" fill="url(#color-1)" stroke="#ffffff" stroke-width="0.5" stroke-linecap="butt"/><path d="M225.72582,173.09448c0,0 -0.32828,-0.3799 -0.34,-0.62018c-0.01627,-0.33341 0.517,-1.19406 0.517,-1.19406h0.2655c0,0 0.4425,0.90426 0.4425,1.23899c0,0.22809 -0.354,0.6195 -0.354,0.6195c0,0 0.14982,0 -0.0885,0c-0.13822,0 -0.31727,-0.04425 -0.39825,-0.04425c-0.14312,0 -0.04425,0 -0.04425,0z" fill="#443f38" stroke="none" stroke-width="0" stroke-linecap="butt"/><g fill="none" stroke="#443f38" stroke-width="0.5" stroke-linecap="round"><path d="M237.9269,175.27736c0,0 -0.07683,-0.30675 0.00296,-0.59367c0.06227,-0.22396 0.26811,-0.43509 0.36494,-0.48377c0.09122,-0.04586 0.3767,-0.0291 0.49552,0.06656c0.19053,0.15339 0.45274,0.3784 0.45274,0.3784"/><path d="M239.58938,175.28294c0,0 0.07683,0.30675 -0.00295,0.59368c-0.06227,0.22396 -0.26811,0.43509 -0.36494,0.48377c-0.09122,0.04586 -0.3767,0.0291 -0.49551,-0.06656c-0.19053,-0.15339 -0.45275,-0.37839 -0.45275,-0.37839" data-paper-data="{&quot;index&quot;:null}"/></g><g fill="none" stroke="#443f38" stroke-width="0.5" stroke-linecap="round"><path d="M245.00685,182.68402c0,0 -0.13484,-0.22713 -0.13959,-0.47584c-0.00371,-0.19414 0.11054,-0.41232 0.1764,-0.47443c0.06204,-0.05851 0.29452,-0.11335 0.41249,-0.06521c0.18915,0.0772 0.45281,0.19458 0.45281,0.19458"/><path d="M246.33869,182.29098c0,0 0.13483,0.22713 0.13958,0.47584c0.00371,0.19414 -0.11054,0.41232 -0.17639,0.47443c-0.06204,0.05851 -0.29452,0.11336 -0.41249,0.06522c-0.18915,-0.0772 -0.45281,-0.19459 -0.45281,-0.19459" data-paper-data="{&quot;index&quot;:null}"/></g><g fill="none" stroke="#443f38" stroke-width="0.5" stroke-linecap="round"><path d="M246.33062,185.55045c0,0 -0.19089,-0.32155 -0.19761,-0.67365c-0.00525,-0.27484 0.15649,-0.58373 0.24972,-0.67166c0.08783,-0.08284 0.41697,-0.16048 0.58396,-0.09232c0.26779,0.1093 0.64105,0.27547 0.64105,0.27547"/><path d="M248.21612,184.99403c0,0 0.19089,0.32154 0.19761,0.67364c0.00525,0.27484 -0.15649,0.58373 -0.24972,0.67166c-0.08783,0.08284 -0.41697,0.16049 -0.58396,0.09233c-0.26779,-0.1093 -0.64105,-0.27548 -0.64105,-0.27548" data-paper-data="{&quot;index&quot;:null}"/></g><g fill="none" stroke="#443f38" stroke-width="0.5" stroke-linecap="round"><path d="M249.31104,184.64619c0,0 0.02404,-0.41113 0.23498,-0.7366c0.16466,-0.25406 0.5027,-0.43623 0.64199,-0.45899c0.13123,-0.02145 0.47946,0.11062 0.58984,0.27578c0.177,0.26484 0.41518,0.64661 0.41518,0.64661"/><path d="M251.37479,185.30085c0,0 -0.02404,0.41112 -0.23498,0.7366c-0.16466,0.25406 -0.5027,0.43623 -0.64199,0.45899c-0.13123,0.02145 -0.47946,-0.1106 -0.58984,-0.27576c-0.177,-0.26484 -0.41519,-0.64663 -0.41519,-0.64663" data-paper-data="{&quot;index&quot;:null}"/></g><g fill="none" stroke="#443f38" stroke-width="0.5" stroke-linecap="round"><path d="M251.97662,183.78482c0,0 -0.13967,-0.44737 -0.04592,-0.87868c0.07318,-0.33666 0.35985,-0.66651 0.499,-0.74673c0.13109,-0.07558 0.55492,-0.07496 0.73882,0.05651c0.2949,0.21081 0.70194,0.52153 0.70194,0.52153"/><path d="M254.43693,183.65225c0,0 0.13968,0.44737 0.04593,0.87868c-0.07318,0.33666 -0.35984,0.6665 -0.49899,0.74672c-0.13109,0.07558 -0.55492,0.07497 -0.73882,-0.0565c-0.2949,-0.21081 -0.70196,-0.52155 -0.70196,-0.52155" data-paper-data="{&quot;index&quot;:null}"/></g><g fill="none" stroke="#443f38" stroke-width="0.5" stroke-linecap="round"><path d="M240.21913,177.33397c0,0 0.05185,-0.21058 0.19227,-0.35889c0.10961,-0.11577 0.30211,-0.1777 0.37642,-0.17614c0.07001,0.00147 0.23766,0.10323 0.27899,0.19933c0.06627,0.1541 0.15302,0.37461 0.15302,0.37461"/><path d="M241.22501,177.87075c0,0 -0.05184,0.21058 -0.19226,0.3589c-0.10961,0.11577 -0.30211,0.1777 -0.37642,0.17614c-0.07001,-0.00147 -0.23767,-0.10323 -0.279,-0.19933c-0.06627,-0.1541 -0.15301,-0.37462 -0.15301,-0.37462" data-paper-data="{&quot;index&quot;:null}"/></g><g fill="none" stroke="#443f38" stroke-width="0.5" stroke-linecap="round"><path d="M241.82444,179.08206c0,0 0.17268,-0.1825 0.39897,-0.25162c0.17664,-0.05395 0.40601,-0.00626 0.47998,0.03781c0.06969,0.04152 0.18041,0.23993 0.16708,0.36039c-0.02137,0.19315 -0.06008,0.46493 -0.06008,0.46493"/><path d="M242.53086,180.19815c0,0 -0.17267,0.1825 -0.39897,0.25162c-0.17664,0.05395 -0.406,0.00625 -0.47997,-0.03782c-0.06969,-0.04152 -0.18042,-0.23992 -0.16709,-0.36038c0.02137,-0.19315 0.06009,-0.46493 0.06009,-0.46493" data-paper-data="{&quot;index&quot;:null}"/></g><g fill="none" stroke="#443f38" stroke-width="0.5" stroke-linecap="round"><path d="M243.68728,181.44397c0,0 -0.18241,0.00544 -0.33432,-0.07496c-0.11857,-0.06276 -0.21219,-0.20486 -0.22768,-0.26545c-0.01459,-0.05709 0.0301,-0.21596 0.09869,-0.27113c0.10999,-0.08848 0.26921,-0.20852 0.26921,-0.20852"/><path d="M243.89565,180.50744c0,0 0.18241,-0.00544 0.33432,0.07496c0.11857,0.06276 0.21219,0.20486 0.22768,0.26545c0.01459,0.05709 -0.0301,0.21597 -0.09869,0.27114c-0.10999,0.08848 -0.26922,0.20852 -0.26922,0.20852" data-paper-data="{&quot;index&quot;:null}"/></g><g fill="none" stroke="#443f38" stroke-width="0.5" stroke-linecap="round"><path d="M228.92369,175.64906c0,0 -0.11257,-0.07453 -0.17008,-0.18793c-0.04489,-0.08852 -0.04085,-0.21434 -0.02436,-0.25758c0.01554,-0.04073 0.11033,-0.11769 0.17532,-0.12177c0.10422,-0.00655 0.25167,-0.01118 0.25167,-0.01118"/><path d="M229.44918,175.17191c0,0 0.11258,0.07453 0.17009,0.18793c0.04489,0.08852 0.04085,0.21434 0.02436,0.25757c-0.01554,0.04073 -0.11032,0.11769 -0.17532,0.12177c-0.10422,0.00655 -0.25167,0.01118 -0.25167,0.01118" data-paper-data="{&quot;index&quot;:null}"/></g><g fill="none" stroke="#443f38" stroke-width="0.5" stroke-linecap="round"><path d="M222.13825,187.6564c0,0 -0.0536,-0.03549 -0.08099,-0.08949c-0.02138,-0.04215 -0.01945,-0.10206 -0.0116,-0.12265c0.0074,-0.01939 0.05253,-0.05604 0.08348,-0.05798c0.04963,-0.00312 0.11984,-0.00532 0.11984,-0.00532"/><path d="M222.38847,187.42919c0,0 0.0536,0.03549 0.08099,0.08949c0.02138,0.04215 0.01945,0.10206 0.0116,0.12265c-0.0074,0.01939 -0.05253,0.05604 -0.08348,0.05799c-0.04963,0.00312 -0.11984,0.00532 -0.11984,0.00532" data-paper-data="{&quot;index&quot;:null}"/></g><g data-paper-data="{&quot;index&quot;:null}" fill="none" stroke="#443f38" stroke-width="0.5" stroke-linecap="round"><path d="M224.87299,186.47175c0,0 0.10129,0.00415 0.1729,0.01003c0.04465,0.00366 0.10978,0.07267 0.12045,0.1092c0.01133,0.03877 0.0141,0.15159 -0.01674,0.23097c-0.03951,0.10169 -0.11684,0.16852 -0.11684,0.16852"/><path d="M224.8315,187.08132c0,0 -0.1013,-0.00415 -0.1729,-0.01003c-0.04465,-0.00366 -0.10977,-0.07267 -0.12044,-0.1092c-0.01133,-0.03877 -0.0141,-0.15159 0.01674,-0.23097c0.03951,-0.10169 0.11685,-0.16852 0.11685,-0.16852" data-paper-data="{&quot;index&quot;:null}"/></g><g fill="none" stroke="#443f38" stroke-width="0.5" stroke-linecap="round"><path d="M226.04114,185.86158c0,0 -0.11294,-0.09761 -0.17063,-0.2461c-0.04504,-0.11592 -0.04099,-0.28069 -0.02445,-0.3373c0.01558,-0.05334 0.11069,-0.15412 0.17591,-0.15947c0.10457,-0.00858 0.25249,-0.01465 0.25249,-0.01465"/><path d="M226.56835,185.23674c0,0 0.11294,0.0976 0.17064,0.2461c0.04504,0.11592 0.04098,0.28069 0.02444,0.3373c-0.01558,0.05334 -0.11068,0.15412 -0.17589,0.15947c-0.10457,0.00858 -0.25249,0.01464 -0.25249,0.01464" data-paper-data="{&quot;index&quot;:null}"/></g><g fill="none" stroke="#443f38" stroke-width="0.5" stroke-linecap="round"><path d="M227.04721,184.08495c0,0 -0.02501,-0.19103 0.04689,-0.38367c0.05614,-0.15037 0.20151,-0.30567 0.26606,-0.34602c0.06081,-0.03802 0.23901,-0.05347 0.30644,-0.00263c0.10813,0.08152 0.25588,0.20269 0.25588,0.20269"/><path d="M228.09176,183.93552c0,0 0.02503,0.19104 -0.04688,0.38368c-0.05614,0.15037 -0.20153,0.30567 -0.26608,0.34602c-0.06081,0.03802 -0.23899,0.05348 -0.30642,0.00264c-0.10813,-0.08152 -0.25588,-0.2027 -0.25588,-0.2027" data-paper-data="{&quot;index&quot;:null}"/></g><g fill="none" stroke="#443f38" stroke-width="0.5" stroke-linecap="round"><path d="M229.24553,183.48625c0,0 -0.21133,-0.12801 -0.34662,-0.35435c-0.1056,-0.17669 -0.14463,-0.44669 -0.13332,-0.54365c0.01065,-0.09136 0.13795,-0.28217 0.24288,-0.30896c0.16827,-0.04296 0.40797,-0.09383 0.40797,-0.09383"/><path d="M229.93279,182.32056c0,0 0.21134,0.128 0.34663,0.35434c0.1056,0.17669 0.14461,0.4467 0.1333,0.54366c-0.01065,0.09136 -0.13793,0.28216 -0.24286,0.30895c-0.16827,0.04296 -0.40798,0.09383 -0.40798,0.09383" data-paper-data="{&quot;index&quot;:null}"/></g><g data-paper-data="{&quot;index&quot;:null}" fill="none" stroke="#443f38" stroke-width="0.5" stroke-linecap="round"><path d="M230.92625,185.78925c0,0 0.09028,-0.0461 0.15555,-0.07614c0.0407,-0.01873 0.13132,0.00942 0.15855,0.036c0.0289,0.02821 0.0867,0.12515 0.0988,0.20944c0.0155,0.10798 -0.01907,0.20418 -0.01907,0.20418"/><path d="M231.18935,186.34068c0,0 -0.09029,0.04611 -0.15555,0.07615c-0.0407,0.01873 -0.13131,-0.00943 -0.15854,-0.03601c-0.0289,-0.02821 -0.08671,-0.12515 -0.09881,-0.20944c-0.0155,-0.10798 0.01907,-0.20418 0.01907,-0.20418" data-paper-data="{&quot;index&quot;:null}"/></g><g data-paper-data="{&quot;index&quot;:null}" fill="none" stroke="#443f38" stroke-width="0.5" stroke-linecap="round"><path d="M232.14832,183.96712c0,0 0.13036,-0.06657 0.2246,-0.10994c0.05876,-0.02705 0.18962,0.0136 0.22894,0.05198c0.04173,0.04073 0.12518,0.18071 0.14265,0.30242c0.02238,0.15592 -0.02754,0.29482 -0.02754,0.29482"/><path d="M232.52822,184.76333c0,0 -0.13037,0.06658 -0.2246,0.10996c-0.05876,0.02705 -0.1896,-0.01362 -0.22892,-0.052c-0.04173,-0.04073 -0.1252,-0.1807 -0.14267,-0.30241c-0.02238,-0.15592 0.02754,-0.29482 0.02754,-0.29482" data-paper-data="{&quot;index&quot;:null}"/></g><g data-paper-data="{&quot;index&quot;:null}" fill="none" stroke="#443f38" stroke-width="0.5" stroke-linecap="round"><path d="M233.28943,182.44831c0,0 0.03538,-0.09652 0.06323,-0.16385c0.01737,-0.04198 0.10418,-0.08351 0.14275,-0.0825c0.04094,0.00106 0.15075,0.03334 0.21785,0.0877c0.08596,0.06964 0.12655,0.16503 0.12655,0.16503"/><path d="M233.86522,182.67716c0,0 -0.03539,0.09654 -0.06323,0.16386c-0.01737,0.04198 -0.10418,0.08349 -0.14275,0.08249c-0.04094,-0.00106 -0.15076,-0.03333 -0.21786,-0.08769c-0.08596,-0.06964 -0.12654,-0.16502 -0.12654,-0.16502" data-paper-data="{&quot;index&quot;:null}"/></g><g data-paper-data="{&quot;index&quot;:null}" fill="none" stroke="#443f38" stroke-width="0.5" stroke-linecap="round"><path d="M236.76938,181.24388c0,0 0.11321,-0.30886 0.20234,-0.52433c0.05557,-0.13435 0.33337,-0.26721 0.45681,-0.264c0.13102,0.00341 0.48239,0.10667 0.69711,0.28063c0.27505,0.22284 0.40493,0.52809 0.40493,0.52809"/><path d="M238.61188,181.97619c0,0 -0.11323,0.30891 -0.20231,0.52434c-0.05557,0.13435 -0.33337,0.26718 -0.45681,0.26397c-0.13102,-0.00341 -0.48242,-0.10666 -0.69714,-0.28062c-0.27505,-0.22284 -0.40494,-0.52807 -0.40494,-0.52807" data-paper-data="{&quot;index&quot;:null}"/></g><g data-paper-data="{&quot;index&quot;:null}" fill="none" stroke="#443f38" stroke-width="0.5" stroke-linecap="round"><path d="M239.65051,183.91914c0,0 0.0651,-0.1776 0.11634,-0.30149c0.03195,-0.07725 0.19169,-0.15364 0.26266,-0.15179c0.07533,0.00196 0.27738,0.06134 0.40084,0.16137c0.15815,0.12814 0.23284,0.30365 0.23284,0.30365"/><path d="M240.70995,184.34022c0,0 -0.06511,0.17762 -0.11633,0.3015c-0.03195,0.07725 -0.19169,0.15363 -0.26266,0.15178c-0.07533,-0.00196 -0.2774,-0.06133 -0.40086,-0.16136c-0.15815,-0.12814 -0.23284,-0.30365 -0.23284,-0.30365" data-paper-data="{&quot;index&quot;:null}"/></g><g data-paper-data="{&quot;index&quot;:null}" fill="none" stroke="#443f38" stroke-width="0.5" stroke-linecap="round"><path d="M242.43952,185.39258c0,0 0.04816,-0.13139 0.08607,-0.22304c0.02364,-0.05715 0.14181,-0.11367 0.19432,-0.1123c0.05573,0.00145 0.20521,0.04538 0.29654,0.11938c0.11701,0.09479 0.17226,0.22464 0.17226,0.22464"/><path d="M243.22329,185.7041c0,0 -0.04816,0.13141 -0.08606,0.22305c-0.02364,0.05715 -0.14181,0.11366 -0.19432,0.11228c-0.05573,-0.00145 -0.20522,-0.04537 -0.29656,-0.11937c-0.11701,-0.09479 -0.17226,-0.22463 -0.17226,-0.22463" data-paper-data="{&quot;index&quot;:null}"/></g><g data-paper-data="{&quot;index&quot;:null}" fill="none" stroke="#443f38" stroke-width="0.5" stroke-linecap="round"><path d="M238.26187,179.07274c0,0 -0.08077,-0.09346 -0.13528,-0.16199c-0.03399,-0.04272 -0.02698,-0.15816 -0.00342,-0.1981c0.02499,-0.04239 0.12293,-0.13894 0.21918,-0.17773c0.12329,-0.0497 0.24718,-0.03672 0.24718,-0.03672"/><path d="M238.83808,178.60125c0,0 0.08079,0.09347 0.13529,0.16199c0.03399,0.04272 0.02697,0.15814 0.00342,0.19808c-0.02499,0.04239 -0.12293,0.13896 -0.21918,0.17775c-0.12329,0.0497 -0.24718,0.03672 -0.24718,0.03672" data-paper-data="{&quot;index&quot;:null}"/></g><g data-paper-data="{&quot;index&quot;:null}" fill="none" stroke="#443f38" stroke-width="0.5" stroke-linecap="round"><path d="M241.76962,182.52425c0,0 0.12175,-0.02087 0.20858,-0.03214c0.05414,-0.00702 0.14936,0.0586 0.17139,0.0994c0.02339,0.0433 0.05546,0.17704 0.03895,0.27949c-0.02113,0.13124 -0.09625,0.23061 -0.09625,0.23061"/><path d="M241.87566,183.2612c0,0 -0.12177,0.02089 -0.20858,0.03216c-0.05414,0.00702 -0.14934,-0.05861 -0.17137,-0.0994c-0.02339,-0.0433 -0.05548,-0.17705 -0.03898,-0.2795c0.02113,-0.13124 0.09625,-0.23062 0.09625,-0.23062" data-paper-data="{&quot;index&quot;:null}"/></g><g data-paper-data="{&quot;index&quot;:null}" fill="none" stroke="#443f38" stroke-width="0.5" stroke-linecap="round"><path d="M235.62345,174.54044c0,0 -0.26165,-0.03245 -0.44602,-0.06299c-0.11495,-0.01904 -0.26901,-0.21186 -0.28885,-0.30882c-0.02107,-0.1029 -0.0041,-0.39592 0.09282,-0.59507c0.12414,-0.25511 0.33891,-0.41181 0.33891,-0.41181"/><path d="M235.86139,172.96931c0,0 0.26168,0.03244 0.44602,0.06296c0.11495,0.01904 0.26899,0.21185 0.28883,0.30881c0.02107,0.1029 0.00413,0.39596 -0.09278,0.59511c-0.12414,0.25511 -0.33892,0.41181 -0.33892,0.41181" data-paper-data="{&quot;index&quot;:null}"/></g><g data-paper-data="{&quot;index&quot;:null}" fill="none" stroke="#443f38" stroke-width="0.5" stroke-linecap="round"><path d="M231.70485,174.18718c0,0 -0.0421,-0.23674 -0.06508,-0.40564c-0.01433,-0.1053 0.11228,-0.29143 0.19144,-0.33479c0.084,-0.04604 0.34393,-0.11007 0.54355,-0.07918c0.25572,0.03957 0.45005,0.18459 0.45005,0.18459"/><path d="M233.13807,173.97193c0,0 0.04211,0.23678 0.0651,0.40564c0.01433,0.1053 -0.11228,0.2914 -0.19143,0.33477c-0.084,0.04604 -0.34396,0.11011 -0.54358,0.07922c-0.25572,-0.03957 -0.45005,-0.18459 -0.45005,-0.18459" data-paper-data="{&quot;index&quot;:null}"/></g><g data-paper-data="{&quot;index&quot;:null}" fill="none" stroke="#443f38" stroke-width="0.5" stroke-linecap="round"><path d="M233.61552,177.12564c0,0 -0.22362,-0.0251 -0.38127,-0.04933c-0.0983,-0.01512 -0.23168,-0.17816 -0.24958,-0.26071c-0.019,-0.08761 -0.00742,-0.33786 0.07332,-0.50878c0.10342,-0.21895 0.28517,-0.35482 0.28517,-0.35482"/><path d="M233.80302,175.7824c0,0 0.22366,0.0251 0.38128,0.04932c0.0983,0.01512 0.23166,0.17815 0.24956,0.26069c0.019,0.08761 0.00744,0.33789 -0.0733,0.50881c-0.10342,0.21895 -0.28517,0.35482 -0.28517,0.35482" data-paper-data="{&quot;index&quot;:null}"/></g><g data-paper-data="{&quot;index&quot;:null}" fill="none" stroke="#443f38" stroke-width="0.5" stroke-linecap="round"><path d="M236.34724,176.50663c0,0 0.15801,-0.04121 0.27111,-0.06582c0.07052,-0.01535 0.20331,0.06038 0.23692,0.11163c0.03567,0.0544 0.09297,0.22693 0.08276,0.36372c-0.01307,0.17523 -0.10081,0.31457 -0.10081,0.31457"/><path d="M236.56985,177.46532c0,0 -0.15804,0.04121 -0.27111,0.06583c-0.07052,0.01535 -0.20329,-0.06037 -0.2369,-0.11163c-0.03567,-0.0544 -0.09299,-0.22694 -0.08279,-0.36373c0.01307,-0.17523 0.10081,-0.31457 0.10081,-0.31457" data-paper-data="{&quot;index&quot;:null}"/></g><g data-paper-data="{&quot;index&quot;:null}" fill="none" stroke="#443f38" stroke-width="0.5" stroke-linecap="round"><path d="M234.00779,178.38492c0,0 0.38636,0.05451 0.65842,0.1043c0.16962,0.03104 0.39279,0.3202 0.41974,0.46416c0.02862,0.15279 -0.00377,0.58597 -0.15214,0.87824c-0.19005,0.3744 -0.51174,0.60094 -0.51174,0.60094"/><path d="M233.61663,180.70388c0,0 -0.38642,-0.05453 -0.65843,-0.10428c-0.16962,-0.03104 -0.39277,-0.32018 -0.41972,-0.46414c-0.02862,-0.15279 0.00374,-0.58601 0.15211,-0.87829c0.19005,-0.3744 0.51174,-0.60095 0.51174,-0.60095" data-paper-data="{&quot;index&quot;:null}"/></g><g data-paper-data="{&quot;index&quot;:null}" fill="none" stroke="#443f38" stroke-width="0.5" stroke-linecap="round"><path d="M229.30466,176.84107c0,0 0.27151,-0.13043 0.46758,-0.21496c0.12224,-0.0527 0.38941,0.03747 0.46837,0.1184c0.08381,0.08588 0.2485,0.378 0.27836,0.62927c0.03825,0.32187 -0.07137,0.60514 -0.07137,0.60514"/><path d="M230.04644,178.4981c0,0 -0.27156,0.13044 -0.46758,0.21497c-0.12224,0.0527 -0.38939,-0.03746 -0.46835,-0.11839c-0.08381,-0.08588 -0.24854,-0.37801 -0.2784,-0.62928c-0.03825,-0.32187 0.07136,-0.60514 0.07136,-0.60514" data-paper-data="{&quot;index&quot;:null}"/></g><g data-paper-data="{&quot;index&quot;:null}" fill="none" stroke="#443f38" stroke-width="0.5" stroke-linecap="round"><path d="M230.67378,180.267c0,0 0.09023,0.20969 0.14808,0.36081c0.03606,0.09422 -0.04061,0.29368 -0.10437,0.35093c-0.06767,0.06076 -0.29403,0.17629 -0.48523,0.19101c-0.24492,0.01885 -0.45597,-0.07305 -0.45597,-0.07305"/><path d="M229.39577,180.77661c0,0 -0.09024,-0.20972 -0.14808,-0.36081c-0.03606,-0.09422 0.0406,-0.29367 0.10436,-0.35092c0.06767,-0.06076 0.29404,-0.17632 0.48524,-0.19103c0.24492,-0.01885 0.45597,0.07305 0.45597,0.07305" data-paper-data="{&quot;index&quot;:null}"/></g><g data-paper-data="{&quot;index&quot;:null}" fill="none" stroke="#443f38" stroke-width="0.5" stroke-linecap="round"><path d="M227.08348,181.90766c0,0 -0.10417,0.12779 -0.18164,0.21529c-0.0483,0.05455 -0.20165,0.07204 -0.2596,0.05031c-0.0615,-0.02305 -0.21107,-0.12946 -0.28432,-0.247c-0.09384,-0.15057 -0.10544,-0.31641 -0.10544,-0.31641"/><path d="M226.33044,181.25929c0,0 0.10419,-0.12781 0.18164,-0.2153c0.0483,-0.05455 0.20163,-0.07203 0.25959,-0.05031c0.0615,0.02305 0.21109,0.12945 0.28435,0.247c0.09384,0.15057 0.10544,0.31641 0.10544,0.31641" data-paper-data="{&quot;index&quot;:null}"/></g><g data-paper-data="{&quot;index&quot;:null}" fill="none" stroke="#443f38" stroke-width="0.5" stroke-linecap="round"><path d="M226.69911,179.63452c0,0 -0.13142,-0.1448 -0.22031,-0.25114c-0.05542,-0.06631 -0.04876,-0.24923 -0.01303,-0.31334c0.03792,-0.06805 0.18919,-0.2246 0.34001,-0.28969c0.1932,-0.08339 0.38974,-0.06762 0.38974,-0.06762"/><path d="M227.59283,178.86624c0,0 0.13143,0.14482 0.22031,0.25114c0.05542,0.06631 0.04877,0.24922 0.01304,0.31333c-0.03792,0.06805 -0.1892,0.22462 -0.34002,0.28972c-0.1932,0.08339 -0.38973,0.06762 -0.38973,0.06762" data-paper-data="{&quot;index&quot;:null}"/></g><path d="M219.22343,176.96641c0,0 -0.04384,-0.2705 -0.05487,-0.41388c-0.01193,-0.1551 0.0779,-0.50736 0.0779,-0.50736c0,0 1.09091,0.40975 1.75391,0.45685c0.73456,0.05218 2.48382,-0.13441 2.48382,-0.13441c0,0 0.23031,0.1471 0.23031,0.23031c0,0.09846 -0.23031,0.32244 -0.23031,0.32244c0,0 -1.86111,0.11516 -2.62555,0.11516c-0.6538,0 -1.63521,-0.06909 -1.63521,-0.06909z" fill="#443f38" stroke="none" stroke-width="0" stroke-linecap="butt"/><path d="M219.61496,175.28514c0,0 0.06875,-0.30583 0.23607,-0.47806c0.28698,-0.29542 1.35308,-0.99593 1.35308,-0.99593c0,0 0.63442,-0.08072 0.69485,-0.10122c0.27651,-0.0938 0.45088,-0.44252 0.73323,-0.6447c0.23652,-0.16936 0.52957,-0.54383 0.52957,-0.54383c0,0 0.31969,0.26199 0.38823,0.42952c0.06963,0.17022 0.21058,0.60688 0.21058,0.60688c0,0 -0.80654,-0.24356 -1.07906,-0.13001c-0.20779,0.08658 -0.57435,0.5927 -0.98342,0.83816c-0.10031,0.06019 -0.57167,-0.01895 -0.67537,0.0385c-0.85923,0.47599 -1.40776,0.98069 -1.40776,0.98069z" fill="#443f38" stroke="none" stroke-width="0" stroke-linecap="butt"/><g data-paper-data="{&quot;index&quot;:null}" fill="none" stroke="#443f38" stroke-width="0.5" stroke-linecap="round"><path d="M225.38537,175.6836c0,0 -0.13129,0.01719 -0.22477,0.02557c-0.05829,0.00522 -0.15746,-0.06912 -0.17933,-0.11375c-0.02321,-0.04737 -0.05188,-0.19197 -0.02985,-0.30099c0.02822,-0.13967 0.11289,-0.2429 0.11289,-0.2429"/><path d="M225.23403,174.8898c0,0 0.13131,-0.01719 0.22477,-0.02557c0.05829,-0.00522 0.15746,0.06911 0.17932,0.11374c0.02321,0.04737 0.05189,0.19198 0.02986,0.30101c-0.02822,0.13967 -0.11288,0.2429 -0.11288,0.2429" data-paper-data="{&quot;index&quot;:null}"/></g><g data-paper-data="{&quot;index&quot;:null}" fill="none" stroke="#443f38" stroke-width="0.5" stroke-linecap="round"><path d="M225.68929,177.52366c0,0 0.03726,0.11462 0.06033,0.19687c0.01439,0.05128 -0.03561,0.15242 -0.0719,0.17943c-0.03852,0.02866 -0.16314,0.07841 -0.26437,0.07687c-0.12968,-0.00197 -0.23617,-0.06054 -0.23617,-0.06054"/><path d="M224.99267,177.72954c0,0 -0.03726,-0.11464 -0.06034,-0.19687c-0.01439,-0.05128 0.0356,-0.15242 0.0719,-0.17942c0.03852,-0.02866 0.16315,-0.07842 0.26438,-0.07688c0.12968,0.00197 0.23617,0.06053 0.23617,0.06053" data-paper-data="{&quot;index&quot;:null}"/></g><g data-paper-data="{&quot;index&quot;:null}" fill="none" stroke="#443f38" stroke-width="0.5" stroke-linecap="round"><path d="M227.4637,177.16089c0,0 -0.20937,0.00618 -0.35785,0.0045c-0.09257,-0.00104 -0.23686,-0.13383 -0.26418,-0.20756c-0.02899,-0.07825 -0.05112,-0.31041 0.00089,-0.47851c0.06662,-0.21534 0.21631,-0.36437 0.21631,-0.36437"/><path d="M227.46047,175.89838c0,0 0.20941,-0.00617 0.35785,-0.00451c0.09257,0.00104 0.23685,0.13381 0.26417,0.20754c0.02899,0.07825 0.05113,0.31043 -0.00088,0.47853c-0.06662,0.21534 -0.2163,0.36437 -0.2163,0.36437" data-paper-data="{&quot;index&quot;:null}"/></g><path d="M255.47824,184.09839c0,0 -0.74411,-1.52721 -1.18512,-2.14774c-0.42598,-0.59939 -1.44043,-1.62937 -1.44043,-1.62937l0.32244,-0.50669c0,0 1.20544,0.46061 1.74026,0.95114c0.64845,0.59476 1.5532,1.90472 1.5532,1.90472z" fill="#443f38" stroke="none" stroke-width="0" stroke-linecap="butt"/><path d="M256.90617,182.20983c0,0 -0.6905,-1.27016 -1.16748,-1.8289c-0.57821,-0.67733 -2.05688,-1.94821 -2.05688,-1.94821l0.39153,-0.6679c0,0 1.7445,1.07457 2.33031,1.78887c0.60361,0.73601 0.98618,2.12642 0.98618,2.12642z" fill="#443f38" stroke="none" stroke-width="0" stroke-linecap="butt"/><path d="M257.73529,181.35768c0,0 -0.48066,-1.56485 -0.83511,-2.46197c-0.47644,-1.20586 -2.5735,-1.52242 -2.5735,-1.52242c0,0 1.32617,-1.50777 2.23484,-1.87449c0.30561,-0.12334 0.68562,-0.29025 1.01239,-0.26531c0.92721,0.07077 1.75053,0.71187 1.75053,0.71187c0,0 0.81716,0.41393 0.95204,0.93633c0.07133,0.27626 0.0112,1.17887 -0.214,1.675c-0.59654,1.31419 -2.32719,2.80099 -2.32719,2.80099z" fill="#443f38" stroke="none" stroke-width="0" stroke-linecap="butt"/><path d="M223.91116,172.26512c0,0 0.32805,0.08413 0.38854,0.10201c0.03772,0.01115 0.1392,0.18832 0.14183,0.22162c0.00278,0.03535 0.05121,0.17572 0.01047,0.23842c-0.05219,0.08032 -0.11056,0.1152 -0.11056,0.1152" data-paper-data="{&quot;index&quot;:null}" fill="none" stroke="#443f38" stroke-width="0.5" stroke-linecap="round"/><path d="M224.0482,174.05293c0,0 0.35529,0.4759 0.4182,0.56689c0.03923,0.05675 -0.01721,0.41031 -0.05029,0.45868c-0.0351,0.05133 -0.12347,0.29628 -0.24811,0.33703c-0.15965,0.05221 -0.27774,0.0356 -0.27774,0.0356" data-paper-data="{&quot;index&quot;:null}" fill="none" stroke="#443f38" stroke-width="0.5" stroke-linecap="round"/></g></g></svg>