<svg version="1.1" xmlns="http://www.w3.org/2000/svg" xmlns:xlink="http://www.w3.org/1999/xlink" width="28.86061" height="17.28897" viewBox="0,0,28.86061,17.28897"><defs><linearGradient x1="240.00001" y1="180" x2="240.00001" y2="180" gradientUnits="userSpaceOnUse" id="color-1"><stop offset="0" stop-color="#373c42"/><stop offset="1" stop-color="#6c4a4a"/></linearGradient><linearGradient x1="240.00001" y1="180" x2="240.00001" y2="180" gradientUnits="userSpaceOnUse" id="color-2"><stop offset="0" stop-color="#373c42"/><stop offset="1" stop-color="#6c4a4a"/></linearGradient><linearGradient x1="240.00001" y1="180" x2="240.00001" y2="180" gradientUnits="userSpaceOnUse" id="color-3"><stop offset="0" stop-color="#373c42"/><stop offset="1" stop-color="#6c4a4a"/></linearGradient><linearGradient x1="240.00001" y1="180" x2="240.00001" y2="180" gradientUnits="userSpaceOnUse" id="color-4"><stop offset="0" stop-color="#373c42"/><stop offset="1" stop-color="#6c4a4a"/></linearGradient><linearGradient x1="240.00001" y1="180" x2="240.00001" y2="180" gradientUnits="userSpaceOnUse" id="color-5"><stop offset="0" stop-color="#26272b"/><stop offset="1" stop-color="#464e39"/></linearGradient><linearGradient x1="240.00001" y1="180" x2="240.00001" y2="180" gradientUnits="userSpaceOnUse" id="color-6"><stop offset="0" stop-color="#26272b" stop-opacity="0"/><stop offset="1" stop-color="#26272b"/></linearGradient><linearGradient x1="240.00001" y1="180" x2="240.00001" y2="180" gradientUnits="userSpaceOnUse" id="color-7"><stop offset="0" stop-color="#2c3822"/><stop offset="1" stop-color="#464e39"/></linearGradient><linearGradient x1="240.00001" y1="180" x2="240.00001" y2="180" gradientUnits="userSpaceOnUse" id="color-8"><stop offset="0" stop-color="#483225" stop-opacity="0"/><stop offset="1" stop-color="#483225"/></linearGradient><linearGradient x1="240.00001" y1="180" x2="240.00001" y2="180" gradientUnits="userSpaceOnUse" id="color-9"><stop offset="0" stop-color="#483225" stop-opacity="0"/><stop offset="1" stop-color="#483225"/></linearGradient><linearGradient x1="240.00001" y1="180" x2="240.00001" y2="180" gradientUnits="userSpaceOnUse" id="color-10"><stop offset="0" stop-color="#483225" stop-opacity="0"/><stop offset="1" stop-color="#483225"/></linearGradient><linearGradient x1="240.00001" y1="180" x2="240.00001" y2="180" gradientUnits="userSpaceOnUse" id="color-11"><stop offset="0" stop-color="#4d322b"/><stop offset="1" stop-color="#4d322b" stop-opacity="0"/></linearGradient><linearGradient x1="240.00001" y1="180" x2="240.00001" y2="180" gradientUnits="userSpaceOnUse" id="color-12"><stop offset="0" stop-color="#2d1f12" stop-opacity="0"/><stop offset="1" stop-color="#2d1f12"/></linearGradient><linearGradient x1="240.00001" y1="180" x2="240.00001" y2="180" gradientUnits="userSpaceOnUse" id="color-13"><stop offset="0" stop-color="#654a37"/><stop offset="1" stop-color="#654a37" stop-opacity="0"/></linearGradient><linearGradient x1="240.00001" y1="180" x2="240.00001" y2="180" gradientUnits="userSpaceOnUse" id="color-14"><stop offset="0" stop-color="#614832" stop-opacity="0"/><stop offset="1" stop-color="#614832"/></linearGradient><linearGradient x1="240.00001" y1="180" x2="240.00001" y2="180" gradientUnits="userSpaceOnUse" id="color-15"><stop offset="0" stop-color="#4a3516" stop-opacity="0"/><stop offset="1" stop-color="#4a3516"/></linearGradient><linearGradient x1="240.00001" y1="180" x2="240.00001" y2="180" gradientUnits="userSpaceOnUse" id="color-16"><stop offset="0" stop-color="#4a3516" stop-opacity="0"/><stop offset="1" stop-color="#4a3516"/></linearGradient><linearGradient x1="240.00001" y1="180" x2="240.00001" y2="180" gradientUnits="userSpaceOnUse" id="color-17"><stop offset="0" stop-color="#8e6c51" stop-opacity="0"/><stop offset="1" stop-color="#8e6c51"/></linearGradient></defs><g transform="translate(-225.44469,-171.22798)"><g data-paper-data="{&quot;isPaintingLayer&quot;:true}" fill-rule="nonzero" stroke-linecap="butt" stroke-linejoin="miter" stroke-miterlimit="10" stroke-dasharray="" stroke-dashoffset="0" style="mix-blend-mode: normal"><path d="M235.31871,181.67634c0,0 -0.35602,-0.36613 -1.05966,-0.78793c-1.04734,-0.62784 -2.74985,-1.43652 -4.26673,-1.80877c-2.1749,-0.53373 -4.34206,0.27294 -3.83424,-1.21425c0.34096,-0.99852 1.69857,-1.82627 3.00957,-3.04975c1.39939,-1.30597 2.74566,-2.97714 2.74566,-2.97714c0,0 1.79829,0.07538 3.08275,0.39145c1.94871,0.47954 3.64801,1.7398 5.57029,1.71245c1.83485,-0.02611 6.1073,-0.60757 8.65236,0.19221c3.35776,1.05517 5.06622,3.09578 5.06622,3.09578c0,0 0.13908,1.73117 -0.3094,2.91135c-0.42929,1.1297 -1.87409,2.54254 -1.81205,3.37515c0.04841,0.64974 1.24959,2.24805 1.05873,3.10496c-0.16645,0.74732 -1.28305,-0.06781 -1.48362,0.18176c-0.34551,0.42992 -0.62258,-0.87051 -0.62258,-0.87051c0,0 -0.87317,0.84059 -1.43376,1.61581c-0.45639,0.63113 -0.48231,1.29867 -1.47685,0.78558c-0.28475,-0.1469 1.18504,-1.57952 0.91525,-1.74359c-0.74566,-0.45348 -0.27684,-0.72092 -0.72602,-1.30525c-0.12568,-0.1635 0.10985,-0.48915 -0.18732,-0.58059c-1.52773,-0.47009 -5.05223,0.2933 -6.5732,0.00721c-0.83614,-0.15728 -2.7211,2.46597 -3.4537,2.2888c-1.02801,-0.24861 0.64672,-3.27636 -0.22682,-3.38123c-0.62458,-0.07499 -2.72883,2.63949 -3.9811,3.57666c-1.29908,0.97221 -1.73893,0.16865 -1.91967,0.09858c-0.31255,-0.12118 1.62289,-3.13143 2.56898,-4.56953c0.25157,-0.3824 0.69691,-1.04921 0.69691,-1.04921z" fill-opacity="0.5" fill="#000000" stroke="none" stroke-width="0"/><path d="" fill="#000000" stroke="none" stroke-width="0"/><path d="" fill-opacity="0.5" fill="#000000" stroke="none" stroke-width="0"/><path d="" fill-opacity="0.5" fill="#000000" stroke="none" stroke-width="0"/><path d="" fill-opacity="0.5" fill="#000000" stroke="none" stroke-width="0"/><path d="" fill-opacity="0.5" fill="#000000" stroke="none" stroke-width="0"/><path d="" fill="#5e6669" stroke="#ffffff" stroke-width="0.5"/><path d="" fill="#464d55" stroke="none" stroke-width="0"/><path d="" fill="#464d55" stroke="none" stroke-width="0"/><path d="" fill="#464d55" stroke="none" stroke-width="0"/><path d="" fill="#464d55" stroke="none" stroke-width="0"/><path d="" fill="url(#color-1)" stroke="none" stroke-width="0"/><path d="" fill="url(#color-2)" stroke="none" stroke-width="0"/><path d="" fill="#464d55" stroke="none" stroke-width="0"/><path d="" fill="url(#color-3)" stroke="none" stroke-width="0"/><path d="" fill="url(#color-4)" stroke="none" stroke-width="0"/><path d="" fill="#ffffff" stroke="none" stroke-width="0"/><path d="" fill="#373c42" stroke="none" stroke-width="0"/><path d="" fill="#464e39" stroke="#ffffff" stroke-width="0.5"/><path d="" fill="#343321" stroke="none" stroke-width="0"/><path d="" fill="url(#color-5)" stroke="none" stroke-width="0"/><path d="" fill="url(#color-6)" stroke="none" stroke-width="0"/><path d="" fill="url(#color-7)" stroke="none" stroke-width="0"/><path d="" fill="#30351d" stroke="none" stroke-width="0"/><path d="" fill="#30351d" stroke="none" stroke-width="0"/><path d="" fill="#968780" stroke="#ffffff" stroke-width="0.5"/><path d="" fill="#695b5a" stroke="none" stroke-width="0"/><path d="" fill="url(#color-8)" stroke="none" stroke-width="0"/><path d="" fill="url(#color-9)" stroke="none" stroke-width="0"/><path d="" fill="url(#color-10)" stroke="none" stroke-width="0"/><path d="" fill="#5f5353" stroke="none" stroke-width="0"/><path d="" fill="#443a38" stroke="none" stroke-width="0"/><path d="" fill="#725f59" stroke="none" stroke-width="0"/><path d="" data-paper-data="{&quot;index&quot;:null}" fill="#725f59" stroke="none" stroke-width="0"/><path d="" fill="#725f59" stroke="none" stroke-width="0"/><path d="" fill="#7c6a66" stroke="none" stroke-width="0"/><path d="" fill="#61493b" stroke="#ffffff" stroke-width="0.5"/><path d="" fill="#4d322b" stroke="none" stroke-width="0"/><path d="" fill="url(#color-11)" stroke="none" stroke-width="0"/><path d="" fill="url(#color-12)" stroke="none" stroke-width="0"/><path d="" fill="#32251d" stroke="none" stroke-width="0"/><path d="" fill="#b7956f" stroke="#ffffff" stroke-width="0.5"/><path d="" fill="url(#color-13)" stroke="none" stroke-width="0"/><path d="" fill="#614832" stroke="none" stroke-width="0"/><path d="" fill="#765834" stroke="none" stroke-width="0"/><path d="" fill="url(#color-14)" stroke="none" stroke-width="0"/><path d="" fill="url(#color-15)" stroke="none" stroke-width="0"/><path d="" fill="url(#color-16)" stroke="none" stroke-width="0"/><path d="" fill="url(#color-17)" stroke="none" stroke-width="0"/><path d="M234.93009,181.32089c0,0 -0.35602,-0.36613 -1.05966,-0.78793c-1.04734,-0.62784 -2.74985,-1.43652 -4.26673,-1.80877c-2.1749,-0.53373 -4.34206,0.27294 -3.83424,-1.21425c0.34096,-0.99852 1.69857,-1.82627 3.00957,-3.04975c1.39939,-1.30597 2.74566,-2.97714 2.74566,-2.97714c0,0 1.79829,0.07538 3.08275,0.39145c1.94871,0.47954 3.64801,1.7398 5.57029,1.71245c1.83485,-0.02611 6.1073,-0.60757 8.65236,0.19221c3.35776,1.05517 5.06622,3.09578 5.06622,3.09578c0,0 0.13908,1.73117 -0.3094,2.91135c-0.42929,1.1297 -1.87409,2.54254 -1.81205,3.37515c0.04841,0.64974 1.24959,2.24805 1.05873,3.10496c-0.16645,0.74732 -1.28305,-0.06781 -1.48362,0.18176c-0.34551,0.42992 -0.62258,-0.87051 -0.62258,-0.87051c0,0 -0.87317,0.84059 -1.43376,1.61581c-0.45639,0.63113 -0.48231,1.29867 -1.47685,0.78558c-0.28475,-0.1469 1.18504,-1.57952 0.91525,-1.74359c-0.74566,-0.45348 -0.27684,-0.72092 -0.72602,-1.30525c-0.12568,-0.1635 0.10985,-0.48915 -0.18732,-0.58059c-1.52773,-0.47009 -5.05223,0.2933 -6.5732,0.00721c-0.83614,-0.15728 -2.7211,2.46597 -3.4537,2.2888c-1.02801,-0.24861 0.64672,-3.27636 -0.22682,-3.38123c-0.62458,-0.07499 -2.72883,2.63949 -3.9811,3.57666c-1.29908,0.97221 -1.73893,0.16865 -1.91967,0.09858c-0.31255,-0.12118 1.62289,-3.13143 2.56898,-4.56953c0.25157,-0.3824 0.69691,-1.04921 0.69691,-1.04921z" fill="#282220" stroke="#ffffff" stroke-width="0.5"/><path d="M242.40307,184.19026c0,0 -1.71663,-1.10764 -2.7139,-3.04357c-0.61161,-1.18727 -0.7461,-2.76205 -0.65648,-3.53218c0.15652,-1.34493 1.47849,-3.82965 1.47849,-3.82965c0,0 3.24634,-0.22854 4.7788,-0.20355c0.45803,0.00747 1.26002,-0.02811 1.86881,0.04645c1.17691,0.14413 2.14969,0.44089 2.14969,0.44089c0,0 1.68689,0.74703 2.97194,1.59682c0.81547,0.53927 1.64846,0.92153 1.41971,1.50346c-0.18283,0.4651 -0.82633,0.13257 -1.23644,0.47803c-0.47699,0.40179 -0.69105,1.32858 -1.10533,1.73443c-0.74499,0.72985 -2.09743,0.19925 -3.06043,0.32661c-0.86196,0.114 -1.36489,0.89621 -1.60603,1.28589c-0.81954,1.32432 0.96119,3.05449 0.96119,3.05449z" fill="#dbd6da" stroke="none" stroke-width="0"/><path d="M251.05847,186.17675c0,0 -0.67149,-1.98372 -0.74658,-2.49434c-0.02793,-0.1899 0.27361,-0.72187 0.27361,-0.72187l0.94595,0.0473c0,0 0.81755,1.83697 1.03554,2.50838c0.151,0.46507 0.0996,0.99162 0.0996,0.99162z" fill="#0e0a07" stroke="none" stroke-width="0"/><path d="M229.20712,178.3727c0,0 -3.80665,0.47129 -3.33696,-0.90649c0.21549,-0.6321 1.67478,-1.54646 1.88599,-1.90304c0.42038,-0.70974 1.82935,-1.54183 1.82935,-1.54183c0,0 0.72526,-0.61306 1.21049,-1.25585c0.39493,-0.52316 0.50314,-1.09794 0.96896,-1.11865c0.40615,-0.01805 0.89487,0.19882 0.89487,0.19882c0,0 -0.39648,2.66288 0.66721,4.84737c0.60899,1.25069 2.84119,2.18561 3.00051,2.77695c0.21951,0.81474 -1.20826,1.50405 -1.20826,1.50405c0,0 -1.76211,-1.11398 -2.81856,-1.57882c-0.88298,-0.38851 -3.0936,-1.02253 -3.0936,-1.02253z" fill="#211b1b" stroke="none" stroke-width="0"/><path d="M227.8355,178.46729l0.09459,-0.70946c0,0 2.63397,0.53286 3.73998,0.88777c0.9948,0.31923 2.59786,1.14602 2.59786,1.14602l0.23649,0.85135c0,0 -1.38057,-0.87289 -2.47554,-1.30598c-1.01092,-0.39984 -4.19338,-0.8697 -4.19338,-0.8697z" fill="#dbd6da" stroke="none" stroke-width="0"/><path d="M242.40307,184.19026c0,0 -0.98016,-0.59894 -1.34122,-0.98304c-0.37906,-0.40326 -1.02365,-1.38183 -1.02365,-1.38183c0,0 2.33485,0.56757 3.59459,0.56757c1.32277,0 2.88514,-0.28378 2.88514,-0.28378c0,0 0.34127,0.74401 0.59435,1.13206c0.21292,0.32648 0.63538,0.80713 0.63538,0.80713z" fill="#888190" stroke="none" stroke-width="0"/><path d="M240.13279,182.10918c0,0 -0.50655,-0.7943 -0.64097,-1.18964c-0.1336,-0.39293 -0.25768,-1.17522 -0.25768,-1.17522l8.46621,0.1419c0,0 -1.13513,1.24274 -1.13513,1.65541c0,0.15926 0,0.70946 0,0.70946c0,0 -2.20971,0.21474 -3.50272,0.16404c-1.08097,-0.04239 -2.9297,-0.30593 -2.9297,-0.30593z" fill="#c7c2c8" stroke="none" stroke-width="0"/></g></g></svg>