<svg version="1.1" xmlns="http://www.w3.org/2000/svg" xmlns:xlink="http://www.w3.org/1999/xlink" width="26.08054" height="13.90574" viewBox="0,0,26.08054,13.90574"><g transform="translate(-226.88528,-172.91765)"><g data-paper-data="{&quot;isPaintingLayer&quot;:true}" fill-rule="nonzero" stroke-linecap="butt" stroke-linejoin="miter" stroke-miterlimit="10" stroke-dasharray="" stroke-dashoffset="0" style="mix-blend-mode: normal"><path d="M235.54407,183.37282c0,0 -2.63463,-0.01071 -4.83683,0.0894c-1.8343,0.08339 -3.32778,0.43406 -3.1285,-0.8399c0.10147,-0.64864 1.86067,-2.70502 1.99243,-3.28584c0.46979,-2.07104 1.26261,-2.49614 1.8588,-3.92517c0.04328,-0.10373 0.39161,0.27205 0.82121,0.42905c0.37936,0.13864 0.83187,0.05776 1.05344,0.02647c0.25296,-0.03573 0.28044,-0.47824 0.3391,-0.57889c0.16394,-0.28131 0.29397,-0.40776 0.77811,-0.67687c0.79198,-0.44023 2.0105,-0.96447 2.0105,-0.96447c0,0 1.78032,0.30631 2.73868,0.70216c0.78783,0.32541 0.68901,0.75453 1.43576,0.75243c1.1655,-0.00328 3.44111,-0.00786 4.94511,0.78161c0.9837,0.51636 1.47145,1.29804 2.05553,1.95843c0.73199,0.82763 1.43789,1.49009 1.43789,1.49009c0,0 2.06473,1.03108 2.76035,1.5712c0.48556,0.37702 1.05907,1.18233 1.05907,1.18233c0,0 -3.2261,-0.34973 -4.8126,-1.41877c-0.18064,-0.12172 -1.40673,0.45849 -1.43437,1.29048c-0.02552,0.76779 0.79874,1.35029 1.05429,2.19311c0.31072,1.02477 0.05689,2.24319 -0.0809,2.21988c-0.27924,-0.04725 -1.03137,0.07412 -1.56447,0.05983c-0.59589,-0.01596 -0.97349,-0.16816 -1.23087,-0.24289c-0.26135,-0.07587 1.69718,-0.37807 1.43684,-0.46257c-0.27246,-0.08844 -0.10289,-1.32601 -0.37749,-1.40144c-0.59813,-0.16431 -1.11079,-0.29341 -1.6957,-0.36819c-0.22208,-0.02839 0.35475,1.76534 0.13241,1.73966c-0.26952,-0.03112 -0.77372,0.56669 -1.34233,0.78503c-0.69856,0.26824 -1.47173,0.16735 -1.75033,0.10925c-0.38652,-0.0806 2.73438,-1.18364 2.34936,-1.26552c-0.34187,-0.07271 -0.59344,-0.93971 -0.92982,-1.00086c-1.13553,-0.20641 -2.05927,0.24173 -3.03479,0.13114c-0.16408,-0.0186 -0.14143,1.41361 -0.53284,2.1034c-0.19953,0.35163 -1.70052,0.25891 -1.77666,0.24779c-0.17131,-0.02503 0.22241,-0.36482 0.14605,-0.8572c-0.1059,-0.68288 0.13455,-1.62166 -0.05532,-1.64333c-0.34819,-0.03974 -0.60016,2.49084 -0.83306,2.43929c-0.24564,-0.05437 -1.67825,0.11137 -1.8232,-0.0899c-0.34252,-0.47559 0.70012,-0.77205 1.01059,-1.49827c0.28388,-0.66402 -0.17542,-1.78199 -0.17542,-1.78199z" fill="#000000" stroke="none" stroke-width="0"/><path d="" fill="#2a1812" stroke="none" stroke-width="0"/><path d="" fill="#2a1812" stroke="#ffffff" stroke-width="0.5"/><path d="" fill="#2a1812" stroke="none" stroke-width="0"/><path d="" fill="#2a1812" stroke="none" stroke-width="0"/><path d="" fill="#2a1812" stroke="none" stroke-width="0"/><path d="" fill="#2a1812" stroke="none" stroke-width="0"/><path d="" fill="#2a1812" stroke="none" stroke-width="0"/><path d="" fill="#2a1812" stroke="none" stroke-width="0"/><path d="" fill="#2a1812" stroke="none" stroke-width="0"/><path d="" fill="#2a1812" stroke="none" stroke-width="0"/><path d="" fill="#2a1812" stroke="none" stroke-width="0"/><path d="" fill="#2a1812" stroke="none" stroke-width="0"/><path d="" fill="#2a1812" stroke="none" stroke-width="0"/><path d="M235.11849,182.90283c0,0 -2.63463,-0.01071 -4.83683,0.0894c-1.8343,0.08339 -3.32778,0.43406 -3.1285,-0.8399c0.10147,-0.64864 1.86067,-2.70502 1.99243,-3.28584c0.46979,-2.07104 1.26261,-2.49614 1.8588,-3.92517c0.04328,-0.10373 0.39161,0.27205 0.82121,0.42905c0.37936,0.13864 0.83187,0.05776 1.05344,0.02647c0.25296,-0.03573 0.28044,-0.47824 0.3391,-0.57889c0.16394,-0.28131 0.29397,-0.40776 0.77811,-0.67687c0.79198,-0.44023 2.0105,-0.96447 2.0105,-0.96447c0,0 1.78032,0.30631 2.73868,0.70216c0.78783,0.32541 0.68901,0.75453 1.43576,0.75243c1.1655,-0.00328 3.44112,-0.00786 4.94511,0.78161c0.9837,0.51636 1.47146,1.29804 2.05554,1.95843c0.73199,0.82762 1.43789,1.49009 1.43789,1.49009c0,0 2.06473,1.03107 2.76035,1.5712c0.48555,0.37702 1.05907,1.18233 1.05907,1.18233c0,0 -3.22609,-0.34974 -4.81259,-1.41878c-0.18064,-0.12172 -1.40673,0.45849 -1.43438,1.29048c-0.02551,0.76779 0.79874,1.35029 1.05429,2.19311c0.31072,1.02477 0.05689,2.24319 -0.0809,2.21988c-0.27924,-0.04724 -1.03137,0.07412 -1.56447,0.05984c-0.59589,-0.01596 -0.9735,-0.16816 -1.23087,-0.24288c-0.26135,-0.07587 1.69718,-0.37807 1.43684,-0.46257c-0.27246,-0.08843 -0.10289,-1.326 -0.37748,-1.40144c-0.59813,-0.16432 -1.1108,-0.29342 -1.6957,-0.36819c-0.22208,-0.02839 0.35475,1.76534 0.13241,1.73966c-0.26953,-0.03112 -0.77372,0.56668 -1.34233,0.78503c-0.69856,0.26825 -1.47173,0.16735 -1.75033,0.10925c-0.38651,-0.0806 2.73438,-1.18364 2.34936,-1.26552c-0.34187,-0.07271 -0.59344,-0.93971 -0.92982,-1.00086c-1.13553,-0.20641 -2.05927,0.24173 -3.03479,0.13114c-0.16408,-0.0186 -0.14143,1.41362 -0.53284,2.10341c-0.19953,0.35163 -1.70053,0.25891 -1.77666,0.24778c-0.17131,-0.02503 0.22242,-0.36482 0.14606,-0.8572c-0.1059,-0.68288 0.13455,-1.62166 -0.05532,-1.64333c-0.34819,-0.03974 -0.60016,2.49084 -0.83306,2.43929c-0.24564,-0.05437 -1.67825,0.11137 -1.8232,-0.08989c-0.34252,-0.47559 0.70011,-0.77205 1.01059,-1.49826c0.28388,-0.66402 -0.17542,-1.78199 -0.17542,-1.78199z" fill="#2a1812" stroke="#ffffff" stroke-width="0.5"/><path d="M242.93499,181.21518c0,0 -2.18207,-1.59222 -1.94122,-3.67957c0.12927,-1.12035 1.18622,-2.5825 1.18622,-2.5825c0,0 2.31118,0.18885 3.17921,0.6869c0.93331,0.53551 2.23904,2.42193 2.23904,2.42193l-2.30942,1.90971z" fill="#3a2218" stroke="none" stroke-width="0"/><path d="M239.02674,184.01313c0,0 -0.33887,2.33806 -0.79478,2.2993c-0.21588,-0.01835 -0.91123,0.00205 -1.18393,-0.10479c-0.18871,-0.07394 0.19511,-2.38796 0.00015,-2.49678c-0.20795,-0.11607 -0.73863,2.54319 -0.96344,2.46522c-0.31283,-0.10849 -1.37619,0.22197 -1.66772,-0.03566c-0.27398,-0.24212 1.42579,-1.63355 1.26505,-1.99253c-0.09743,-0.2176 -0.08154,-1.02327 -0.27668,-1.18144c-0.74435,-0.60332 -2.32984,0.0115 -2.32984,-0.28568c0,-0.91963 3.02001,-1.19912 3.02001,-1.19912c0,0 5.13581,-0.03766 7.15507,-0.65051c1.74526,-0.52969 4.25879,-2.81361 4.25879,-2.81361c0,0 0.5811,0.54312 1.3654,1.02368c1.02957,0.63084 2.55481,1.3589 3.07579,2.17397c0.16852,0.26366 0.27464,0.24336 0.04554,0.25204c-1.01871,0.0386 -4.3979,-1.49557 -4.3979,-1.49557c0,0 -0.54259,0.1544 -0.94082,0.46567c-0.30036,0.23478 -0.42287,0.61623 -0.70743,0.76461c-0.14697,0.07663 0.6183,1.14041 1.08887,2.29871c0.42604,1.0487 0.30401,1.97684 0.04485,2.10184c-0.18352,0.08852 -2.02548,0.26466 -2.17605,0.02954c-0.08521,-0.13305 0.37622,-0.09668 0.64578,-0.26975c0.1341,-0.0861 0.15388,-0.35771 0.16794,-0.46245c0.08352,-0.6221 -0.10971,-1.36728 -0.60039,-1.30167c-0.36954,0.04941 -1.20468,-0.33222 -1.61015,-0.25947c-0.27498,0.04934 0.46696,1.7043 0.18477,1.76607c-0.20687,0.04528 -0.65548,0.6173 -1.16153,0.85374c-0.40873,0.19097 -0.88581,0.05495 -1.06288,0.08695c-0.30794,0.05566 1.78189,-1.27377 1.47525,-1.23374c-0.22091,0.02884 -0.31614,-1.13908 -0.55022,-1.10593c-3.31952,0.47 -3.36951,0.30737 -3.36951,0.30737z" fill="#20120d" stroke="none" stroke-width="0"/><path d="M227.96818,182.99166c0,0 -0.43101,-0.18865 -0.55555,-0.45202c-0.14611,-0.309 0.01258,-0.70412 0.04118,-0.76913c0.15076,-0.34264 0.78084,-0.95503 0.78084,-0.95503c0,0 0.63485,0.01224 0.94323,0.05282c0.23237,0.03057 0.52236,0.12483 0.52236,0.12483c0,0 0.28936,0.54091 0.35099,0.81482c0.07043,0.31301 0.27078,1.00607 0.27078,1.00607z" fill="#674a4f" stroke="none" stroke-width="0"/><path d="M230.94378,179.70518c0,0 -0.39971,-0.52934 -0.39971,-0.79941c0,-0.27747 0.62177,-0.84383 0.62177,-0.84383c0,0 -0.26413,0 -0.04441,0c0.29225,0 0.62177,0 0.62177,0c0,0 0.39971,0.38892 0.39971,0.62177c0,0.29845 -0.26647,1.02147 -0.26647,1.02147c0,0 -0.22987,0 -0.48853,0c-0.27346,0 -0.44412,0 -0.44412,0z" fill="#20120d" stroke="none" stroke-width="0"/><path d="M234.36349,179.66077c0,0 -0.07311,-0.83823 -0.48816,-1.53811c-0.13719,-0.23134 -1.2623,-0.00173 -1.62944,-0.46267c-0.45346,-0.56932 -0.14741,-1.81864 -0.14741,-1.81864c0,0 0.53932,-0.31088 0.93265,-0.31088c0.5378,0 1.46559,0.26647 1.46559,0.26647c0,0 0.54505,0.85654 0.61164,1.33377c0.09835,0.70486 -0.07869,2.48566 -0.07869,2.48566c0,0 -0.15351,0.54614 -0.2592,0.55318c-0.1155,0.0077 -0.40698,-0.50877 -0.40698,-0.50877z" fill="#7b6454" stroke="none" stroke-width="0"/><path d="M233.16437,175.48605c0,0 0.08967,-0.45831 0.31157,-0.71619c0.30122,-0.35007 1.73137,-1.14911 1.73137,-1.14911c0,0 0.5971,-0.33981 0.93517,-0.36313c0.28665,-0.01977 0.98774,0.0453 1.55105,0.23088c0.78201,0.25764 1.42202,0.66519 1.42202,0.66519l0.84383,0.71059z" fill="#20120d" stroke="none" stroke-width="0"/></g></g></svg>