<svg version="1.1" xmlns="http://www.w3.org/2000/svg" xmlns:xlink="http://www.w3.org/1999/xlink" width="32.40837" height="20.0147" viewBox="0,0,32.40837,20.0147"><g transform="translate(-223.67082,-169.88071)"><g data-paper-data="{&quot;isPaintingLayer&quot;:true}" fill-rule="nonzero" stroke-linecap="butt" stroke-linejoin="miter" stroke-miterlimit="10" stroke-dasharray="" stroke-dashoffset="0" style="mix-blend-mode: normal"><path d="M227.95417,181.56821c0,0 -2.3304,0.34436 -2.9129,-0.82436c-0.80342,-1.61198 0.13917,-5.03083 0.84519,-6.52355c0.3571,-0.75502 7.19271,-3.15209 7.19271,-3.15209c0,0 1.38046,-0.11456 2.94573,0.13612c1.20849,0.19355 2.47666,0.75628 3.61929,0.81386c1.03442,0.05212 2.77062,-0.45452 4.37744,-0.48305c1.14202,-0.02027 2.09748,0.03569 2.81604,0.17748c0.95496,0.18844 1.4915,0.48059 1.4915,0.48059c0,0 1.72861,0.54752 2.34262,1.32494c0.27602,0.34947 0.88872,1.70533 1.1824,3.19569c0.31201,1.58336 0.37471,3.38104 0.92618,4.22253c0.34018,0.51909 0.39971,0.96531 0.93293,0.84078c0.39923,-0.09323 1.03373,-0.97613 1.30038,-0.93796c0.89736,0.12845 1.0655,1.16653 1.0655,1.16653c0,0 -0.0668,2.39443 -1.5861,2.14214c-0.19785,-0.03285 -0.40124,4.80998 -0.60829,4.77925c-0.82882,-0.12302 -1.96208,0.26889 -2.59102,-0.14961c-0.2081,-0.13847 -0.68838,-0.66951 -0.31826,-0.84528c0.2818,-0.13383 1.26311,-0.15411 1.11176,-0.31177c-0.51102,-0.53238 0.19505,-4.11104 -0.37042,-4.57624c-1.27963,-1.05273 -2.97896,-1.38048 -4.16148,-1.78807c-0.16219,-0.0559 0.67216,1.51693 0.51844,3.00548c-0.19377,1.87638 -1.36859,3.76607 -1.49364,3.73945c-0.86334,-0.18381 -1.54417,0.34187 -2.23821,0.06826c-0.27677,-0.10911 -0.66279,-1.36573 -0.15032,-1.50579c0.53618,-0.14654 1.66058,0.51017 1.39798,0.36126c-1.14639,-0.65008 1.15999,-4.25643 -0.02788,-4.7523c-2.33142,-0.97323 -3.70036,-0.52833 -6.10572,-0.69359c-0.27734,-0.01906 -0.50337,2.43932 -0.97804,4.28293c-0.48029,1.8654 -1.8042,3.73583 -2.17598,3.98423c-0.38984,0.26047 -1.19196,0.09967 -1.47347,0.10604c-0.42419,0.00959 -0.47058,-0.18725 -0.97788,-0.2784c-0.31488,-0.05658 -0.39421,-0.53489 0.11668,-0.89948c0.17408,-0.12423 1.13718,-0.1437 1.40093,-0.88224c0.55755,-1.56124 0.37461,-4.38465 -0.24497,-4.50003c-0.18761,-0.03494 -1.4808,0.84491 -1.93347,1.79615c-0.62249,1.30808 -0.43519,2.80686 -0.67826,2.75333c-0.41306,-0.09095 -1.08615,0.61563 -1.55854,0.633c-0.50927,0.01872 -0.8157,-0.65205 -1.18685,-0.77737c-0.34787,-0.11746 -0.32372,-2.93535 0.83897,-4.81512c0.78045,-1.26179 2.72635,-1.86052 2.97621,-1.83534c0.69155,0.06968 -0.00628,-2.69267 -0.58262,-2.8503c-1.48702,-0.4067 -5.04456,3.37189 -5.04456,3.37189z" fill-opacity="0.5" fill="#000000" stroke="none" stroke-width="0"/><path d="M227.14167,180.63071c0,0 -2.3304,0.34436 -2.9129,-0.82436c-0.80342,-1.61198 0.13917,-5.03083 0.84519,-6.52355c0.3571,-0.75502 7.19271,-3.15209 7.19271,-3.15209c0,0 1.38046,-0.11456 2.94573,0.13612c1.20849,0.19355 2.47666,0.75628 3.61929,0.81386c1.03442,0.05212 2.77062,-0.45452 4.37744,-0.48305c1.14202,-0.02027 2.09748,0.03569 2.81604,0.17748c0.95496,0.18844 1.4915,0.48059 1.4915,0.48059c0,0 1.72861,0.54752 2.34262,1.32494c0.27602,0.34947 0.88872,1.70533 1.1824,3.19569c0.31201,1.58336 0.37471,3.38104 0.92618,4.22253c0.34018,0.51909 0.39971,0.96531 0.93293,0.84078c0.39923,-0.09323 1.03373,-0.97613 1.30038,-0.93796c0.89736,0.12845 1.0655,1.16653 1.0655,1.16653c0,0 -0.0668,2.39443 -1.5861,2.14214c-0.19785,-0.03285 -0.40124,4.80998 -0.60829,4.77925c-0.82882,-0.12302 -1.96208,0.26889 -2.59102,-0.14961c-0.2081,-0.13847 -0.68838,-0.66951 -0.31826,-0.84529c0.2818,-0.13384 1.26311,-0.15411 1.11176,-0.31177c-0.51102,-0.53238 0.19505,-4.11104 -0.37042,-4.57624c-1.27963,-1.05273 -2.97896,-1.38048 -4.16148,-1.78807c-0.16219,-0.0559 0.67216,1.51693 0.51844,3.00548c-0.19377,1.87638 -1.36859,3.76607 -1.49363,3.73945c-0.86334,-0.18381 -1.54417,0.34187 -2.23821,0.06826c-0.27677,-0.10911 -0.66279,-1.36573 -0.15032,-1.50579c0.53618,-0.14654 1.66058,0.51018 1.39798,0.36126c-1.14639,-0.65008 1.15999,-4.25643 -0.02788,-4.7523c-2.33142,-0.97323 -3.70036,-0.52833 -6.10572,-0.69359c-0.27734,-0.01906 -0.50337,2.43932 -0.97804,4.28293c-0.48029,1.8654 -1.8042,3.73583 -2.17598,3.98423c-0.38984,0.26047 -1.19196,0.09967 -1.47347,0.10604c-0.42419,0.00959 -0.47058,-0.18725 -0.97788,-0.2784c-0.31488,-0.05658 -0.39421,-0.53488 0.11668,-0.89948c0.17408,-0.12423 1.13718,-0.14371 1.40093,-0.88224c0.55755,-1.56124 0.37461,-4.38465 -0.24497,-4.50003c-0.18761,-0.03494 -1.4808,0.84491 -1.93347,1.79615c-0.62249,1.30808 -0.43519,2.80686 -0.67826,2.75334c-0.41306,-0.09096 -1.08615,0.61563 -1.55854,0.633c-0.50927,0.01872 -0.8157,-0.65205 -1.18685,-0.77737c-0.34787,-0.11746 -0.32372,-2.93535 0.83897,-4.81511c0.78045,-1.26179 2.72635,-1.86052 2.97621,-1.83534c0.69155,0.06968 -0.00628,-2.69267 -0.58262,-2.8503c-1.48702,-0.4067 -5.04456,3.37189 -5.04456,3.37189z" fill="#c08855" stroke="#ffffff" stroke-width="0.5"/><path d="M238.64166,180.38071c0,0 -0.6875,-0.70439 -0.6875,-1.25c0,-0.42263 0.5625,-1.375 0.5625,-1.375c0,0 2.46167,-0.5625 3.5625,-0.5625c1.01762,0 2.8125,0.5625 2.8125,0.5625c0,0 0.625,0.79837 0.625,1.25c0,0.53438 -0.875,1.9375 -0.875,1.9375c0,0 -1.93619,-0.40992 -2.86581,-0.4657c-1.11856,-0.06711 -3.13419,-0.0968 -3.13419,-0.0968z" fill="#f5e5e5" stroke="none" stroke-width="0"/><path d="M229.01666,186.75571c0,0 -0.06694,-1.21004 0.03506,-2.12805c0.08021,-0.72192 0.90244,-2.62195 0.90244,-2.62195c0,0 1.07174,-1.23624 1.89164,-1.54126c0.45152,-0.16797 0.82103,-0.02535 1.0751,-0.14829c0.46715,-0.22604 0.09575,-2.12294 0.09575,-2.12294c0,0 1.21308,1.49927 1.4135,2.40787c0.0556,0.25205 0.00594,1.13029 -0.18723,1.41166c-0.19887,0.28967 -0.48513,0.41877 -0.77953,0.61255c-0.15739,0.1036 -0.33496,0.17213 -0.46296,0.41292c-0.83721,1.57496 -1.42128,3.59251 -1.42128,3.59251c0,0 -0.08282,0.31227 -0.36208,0.51968c-0.23459,0.17423 -0.61516,0.2524 -1.12942,0.22616c-0.67932,-0.03466 -1.071,-0.62084 -1.071,-0.62084z" fill="#f5e5e5" stroke="none" stroke-width="0"/><path d="M227.01666,180.44321c0,0 0.60134,-3.16921 1.20849,-4.39498c0.44764,-0.90372 -0.58349,-3.04252 -0.58349,-3.04252v0l4.0875,4.0625c0,0 -1.53135,0.77927 -2.14835,1.17453c-0.23022,0.14748 -0.56587,0.50932 -0.93032,0.84554c-0.75106,0.69289 -1.63383,1.35493 -1.63383,1.35493z" fill="#f5e5e5" stroke="none" stroke-width="0"/><path d="M243.82916,187.19321c0,0 -0.35545,-0.33591 -0.45,-0.525c-0.1111,-0.22221 -0.175,-0.725 -0.175,-0.725c0,0 0.39143,-0.33389 0.67241,-0.30249c0.51171,0.05718 0.59145,0.51966 0.84783,0.20551c0.07734,-0.09477 -0.11094,-0.25071 -0.13762,-0.44978c-0.03859,-0.28788 0.05614,-0.66594 0.06706,-1.07956c0.02183,-0.82681 0.80929,-1.85822 0.63561,-2.53302c-0.15269,-0.59325 -0.6136,-0.18594 -0.67444,-0.69762c-0.05595,-0.47051 0.58914,-1.95553 0.58914,-1.95553c0,0 1.26135,0.30766 1.53465,1.23266c0.245,0.82922 0.56415,2.65889 0.17924,4.14916c-0.31998,1.23887 -1.15139,2.43068 -1.15139,2.43068z" fill="#f5e5e5" stroke="none" stroke-width="0"/><path d="M225.25416,180.26821v-0.3875h0.8525v0.3875z" fill="#43190b" stroke="none" stroke-width="0"/><path d="M226.18541,179.92446v-0.575h0.45v0.575z" fill="#43190b" stroke="none" stroke-width="0"/><path d="M226.66041,179.08696v-1.725h0.8v1.725z" fill="#43190b" stroke="none" stroke-width="0"/><path d="M228.26041,177.54946v-0.35h0.725v0.35z" fill="#43190b" stroke="none" stroke-width="0"/><path d="M234.16041,173.94946v-0.575h0.525v0.575z" fill="#43190b" stroke="none" stroke-width="0"/><path d="M231.16041,175.02446v-0.55h0.475v0.55z" fill="#43190b" stroke="none" stroke-width="0"/><path d="M229.58541,174.27446v-0.325h0.525v0.325z" fill="#43190b" stroke="none" stroke-width="0"/><path d="M227.23541,174.47446v-1.075h0.425v1.075z" fill="#43190b" stroke="none" stroke-width="0"/><path d="M227.13541,175.47446v-0.35h0.55v0.35z" fill="#43190b" stroke="none" stroke-width="0"/><path d="M226.63541,175.02446v-0.675h0.425v0.675z" fill="#43190b" stroke="none" stroke-width="0"/><path d="M227.66041,176.17446v-0.575h0.5v0.575z" fill="#43190b" stroke="none" stroke-width="0"/><path d="M228.33541,175.77446v-0.625h0.625v0.625z" fill="#43190b" stroke="none" stroke-width="0"/><path d="M226.88437,176.26717v-0.91042h1.67708v0.91042z" fill="#43190b" stroke="none" stroke-width="0"/><path d="M224.66041,178.24946v-0.575h0.55v0.575z" fill="#43190b" stroke="none" stroke-width="0"/><path d="M224.63541,177.49946v-0.825h0.45v0.825z" fill="#43190b" stroke="none" stroke-width="0"/><path d="M225.33541,177.27446v-0.6h0.375v0.6z" fill="#43190b" stroke="none" stroke-width="0"/><path d="M225.31041,176.34946v-0.75h0.525v0.75z" fill="#43190b" stroke="none" stroke-width="0"/><path d="M225.28541,174.59946v-0.675h0.625v0.675z" fill="#43190b" stroke="none" stroke-width="0"/><path d="M225.76041,173.62446v-0.45h0.925v0.45z" fill="#43190b" stroke="none" stroke-width="0"/><path d="M227.06041,173.02446v-0.375h1.45v0.375z" fill="#43190b" stroke="none" stroke-width="0"/><path d="M230.11041,171.82446v-0.525h0.375v0.525z" fill="#43190b" stroke="none" stroke-width="0"/><path d="M233.23541,171.69946v-0.55h0.45v0.55z" fill="#43190b" stroke="none" stroke-width="0"/><path d="M233.61041,172.82446v-0.925h0.525v0.925z" fill="#43190b" stroke="none" stroke-width="0"/><path d="M234.66041,172.82446v-0.525h0.3v0.525z" fill="#43190b" stroke="none" stroke-width="0"/><path d="M235.71041,173.44946v-1.125h0.475v1.125z" fill="#43190b" stroke="none" stroke-width="0"/><path d="M235.26041,175.17446v-1.7h0.375v1.7z" fill="#43190b" stroke="none" stroke-width="0"/><path d="M234.58541,178.42446v-3.125h0.45v3.125z" fill="#43190b" stroke="none" stroke-width="0"/><path d="M233.56041,179.89946v-1.075h0.675v1.075z" fill="#43190b" stroke="none" stroke-width="0"/><path d="M234.26041,180.37446v-0.425h0.325v0.425z" fill="#43190b" stroke="none" stroke-width="0"/><path d="M233.13541,178.72446v-1.1h0.5v1.1z" fill="#43190b" stroke="none" stroke-width="0"/><path d="M232.51041,177.17446v-1.125h0.575v1.125z" fill="#43190b" stroke="none" stroke-width="0"/><path d="M231.68541,176.79946v-1.45h0.55v1.45z" fill="#43190b" stroke="none" stroke-width="0"/><path d="M231.16041,174.09946v-0.55h0.525v0.55z" fill="#43190b" stroke="none" stroke-width="0"/><path d="M230.26041,174.27446v-0.825h0.275v0.825z" fill="#43190b" stroke="none" stroke-width="0"/><path d="M231.06041,172.17446v-0.9h1.45v0.9z" fill="#43190b" stroke="none" stroke-width="0"/><path d="M229.61041,177.62446v-1.3h0.45v1.3z" fill="#43190b" stroke="none" stroke-width="0"/><path d="M230.13541,176.24946v-0.675h0.275v0.675z" fill="#43190b" stroke="none" stroke-width="0"/><path d="M229.31041,175.42446v-0.325h0.275v0.325z" fill="#43190b" stroke="none" stroke-width="0"/><path d="M229.63541,174.94946v-0.45h0.4v0.45z" fill="#43190b" stroke="none" stroke-width="0"/><path d="M228.61041,173.59946v-0.625h1.025v0.625z" fill="#43190b" stroke="none" stroke-width="0"/><path d="M224.48541,178.79946v-0.375h1.2v0.375z" fill="#43190b" stroke="none" stroke-width="0"/><path d="M236.63541,180.74113v-0.35h0.55v0.35z" fill="#43190b" stroke="none" stroke-width="0"/><path d="M237.16041,181.46613v-0.5h0.525v0.5z" fill="#43190b" stroke="none" stroke-width="0"/><path d="M237.56041,180.86613v-0.35h0.5v0.35z" fill="#43190b" stroke="none" stroke-width="0"/><path d="M237.13541,180.29113v-0.4h0.45v0.4z" fill="#43190b" stroke="none" stroke-width="0"/><path d="M231.73541,180.94113v-0.325h1.375v0.325z" fill="#43190b" stroke="none" stroke-width="0"/><path d="M233.13541,181.44113v-0.4h0.225v0.4z" fill="#43190b" stroke="none" stroke-width="0"/><path d="M233.63541,181.99113v-0.375h0.65v0.375z" fill="#43190b" stroke="none" stroke-width="0"/><path d="M231.71041,182.44113v-0.45h0.7v0.45z" fill="#43190b" stroke="none" stroke-width="0"/><path d="M232.16041,183.61613v-0.475h0.4v0.475z" fill="#43190b" stroke="none" stroke-width="0"/><path d="M231.76041,184.61613v-0.875h0.4v0.875z" fill="#43190b" stroke="none" stroke-width="0"/><path d="M231.23541,185.04113v-0.75h0.375v0.75z" fill="#43190b" stroke="none" stroke-width="0"/><path d="M230.63541,185.29113v-0.6h0.45v0.6z" fill="#43190b" stroke="none" stroke-width="0"/><path d="M230.21041,184.76613v-0.5h0.2v0.5z" fill="#43190b" stroke="none" stroke-width="0"/><path d="M230.46041,183.19113v-0.825h0.625v0.825z" fill="#43190b" stroke="none" stroke-width="0"/><path d="M229.78541,182.76613v-0.3h0.225v0.3z" fill="#43190b" stroke="none" stroke-width="0"/><path d="M230.11041,182.19113v-0.325h0.4v0.325z" fill="#43190b" stroke="none" stroke-width="0"/><path d="M230.81041,181.61613v-0.525h0.625v0.525z" fill="#43190b" stroke="none" stroke-width="0"/><path d="M230.08541,186.24113v-0.5h1.1v0.5z" fill="#43190b" stroke="none" stroke-width="0"/><path d="M236.63541,183.69113v-0.55h1v0.55z" fill="#43190b" stroke="none" stroke-width="0"/><path d="M235.31041,185.26613v-1h0.3v1z" fill="#43190b" stroke="none" stroke-width="0"/><path d="M236.66041,179.24113v-0.45h0.475v0.45z" fill="#43190b" stroke="none" stroke-width="0"/><path d="M237.58541,179.06613v-0.425h0.45v0.425z" fill="#43190b" stroke="none" stroke-width="0"/><path d="M239.11041,179.84113v-1.475h0.575v1.475z" fill="#43190b" stroke="none" stroke-width="0"/><path d="M240.76041,179.36613v-0.6h0.8v0.6z" fill="#43190b" stroke="none" stroke-width="0"/><path d="M241.21041,178.86613v-1.175h0.35v1.175z" fill="#43190b" stroke="none" stroke-width="0"/><path d="M239.63541,176.96613v-0.85h0.375v0.85z" fill="#43190b" stroke="none" stroke-width="0"/><path d="M237.03541,178.29113v-2.225h0.45v2.225z" fill="#43190b" stroke="none" stroke-width="0"/><path d="M237.66041,176.46613v-2.025h0.35v2.025z" fill="#43190b" stroke="none" stroke-width="0"/><path d="M238.11041,177.61613v-0.975h0.375v0.975z" fill="#43190b" stroke="none" stroke-width="0"/><path d="M242.51041,179.86613v-0.525h1.25v0.525z" fill="#43190b" stroke="none" stroke-width="0"/><path d="M244.13541,179.19113v-0.45h0.85v0.45z" fill="#43190b" stroke="none" stroke-width="0"/><path d="M244.68541,179.96613v-0.525h1.5v0.525z" fill="#43190b" stroke="none" stroke-width="0"/><path d="M245.66041,180.59113v-0.4h0.85v0.4z" fill="#43190b" stroke="none" stroke-width="0"/><path d="M245.13541,181.41613v-0.375h1.55v0.375z" fill="#43190b" stroke="none" stroke-width="0"/><path d="M246.61041,182.51613v-0.525h0.5v0.525z" fill="#43190b" stroke="none" stroke-width="0"/><path d="M245.11041,184.66613v-1.45h0.35v1.45z" fill="#43190b" stroke="none" stroke-width="0"/><path d="M245.76041,184.14113v-1.1h0.4v1.1z" fill="#43190b" stroke="none" stroke-width="0"/><path d="M246.41041,184.69113v-0.4h0.15v0.4z" fill="#43190b" stroke="none" stroke-width="0"/><path d="M254.11041,181.51613v-1.125h0.975v1.125z" fill="#43190b" stroke="none" stroke-width="0"/><path d="M253.76041,182.56613v-0.75h0.675v0.75z" fill="#43190b" stroke="none" stroke-width="0"/><path d="M250.73541,180.29113v-0.425h1.1v0.425z" fill="#43190b" stroke="none" stroke-width="0"/><path d="M250.66041,180.89113v-0.35h0.525v0.35z" fill="#43190b" stroke="none" stroke-width="0"/><path d="M251.68541,180.86613v-0.275h0.7v0.275z" fill="#43190b" stroke="none" stroke-width="0"/><path d="M251.11041,181.91613v-0.325h0.475v0.325z" fill="#43190b" stroke="none" stroke-width="0"/><path d="M252.21041,182.04113v-0.425h0.45v0.425z" fill="#43190b" stroke="none" stroke-width="0"/><path d="M251.31041,181.44113v-0.45h0.875v0.45z" fill="#43190b" stroke="none" stroke-width="0"/><path d="M249.61041,180.94113v-2.075h0.525v2.075z" fill="#43190b" stroke="none" stroke-width="0"/><path d="M248.61041,180.16613v-1.725h0.725v1.725z" fill="#43190b" stroke="none" stroke-width="0"/><path d="M247.38541,180.26613v-3.575h0.675v3.575z" fill="#43190b" stroke="none" stroke-width="0"/><path d="M246.23541,179.36613v-1.55h0.425v1.55z" fill="#43190b" stroke="none" stroke-width="0"/><path d="M246.78541,179.79113v-3.075h0.375v3.075z" fill="#43190b" stroke="none" stroke-width="0"/><path d="M245.56041,177.64113v-0.95h0.675v0.95z" fill="#43190b" stroke="none" stroke-width="0"/><path d="M245.21041,176.44113v-0.25h0.35v0.25z" fill="#43190b" stroke="none" stroke-width="0"/><path d="M244.63541,176.21613v-1.125h0.7v1.125z" fill="#43190b" stroke="none" stroke-width="0"/><path d="M242.18541,179.31613v-2.725h0.35v2.725z" fill="#43190b" stroke="none" stroke-width="0"/><path d="M240.73541,180.29113v-0.475h1.8v0.475z" fill="#43190b" stroke="none" stroke-width="0"/><path d="M240.21041,175.82446v-1.925h0.5v1.925z" fill="#43190b" stroke="none" stroke-width="0"/><path d="M241.16041,175.42446v-2.15h0.475v2.15z" fill="#43190b" stroke="none" stroke-width="0"/><path d="M240.13541,172.59946v-0.375h0.85v0.375z" fill="#43190b" stroke="none" stroke-width="0"/><path d="M242.33541,173.19211v-0.79265h1.225v0.79265z" fill="#43190b" stroke="none" stroke-width="0"/><path d="M242.63541,173.97446v-0.475h0.45v0.475z" fill="#43190b" stroke="none" stroke-width="0"/><path d="M242.06041,175.04946v-1.1h0.425v1.1z" fill="#43190b" stroke="none" stroke-width="0"/><path d="M242.63541,177.17446v-2.025h0.5v2.025z" fill="#43190b" stroke="none" stroke-width="0"/><path d="M243.76041,174.12446v-0.7h0.25v0.7z" fill="#43190b" stroke="none" stroke-width="0"/><path d="M244.18541,174.92446v-0.425h0.35v0.425z" fill="#43190b" stroke="none" stroke-width="0"/><path d="M244.33541,173.19946v-0.4h0.75v0.4z" fill="#43190b" stroke="none" stroke-width="0"/><path d="M244.63541,173.94946v-0.575h0.55v0.575z" fill="#43190b" stroke="none" stroke-width="0"/><path d="M244.68541,172.52446v-0.5h0.775v0.5z" fill="#43190b" stroke="none" stroke-width="0"/><path d="M245.13541,171.62446v-0.5h0.2v0.5z" fill="#43190b" stroke="none" stroke-width="0"/><path d="M243.61041,172.19946v-0.325h0.325v0.325z" fill="#43190b" stroke="none" stroke-width="0"/><path d="M239.56041,172.07446v-0.275h0.625v0.275z" fill="#43190b" stroke="none" stroke-width="0"/><path d="M240.08541,171.64946v-0.425h0.575v0.425z" fill="#43190b" stroke="none" stroke-width="0"/><path d="M241.16041,171.87446v-0.5h0.45v0.5z" fill="#43190b" stroke="none" stroke-width="0"/><path d="M241.56041,172.24946v-0.35h0.525v0.35z" fill="#43190b" stroke="none" stroke-width="0"/><path d="M243.31041,171.62446v-0.8h0.35v0.8z" fill="#43190b" stroke="none" stroke-width="0"/><path d="M248.63541,176.12446v-0.7h0.4v0.7z" fill="#43190b" stroke="none" stroke-width="0"/><path d="M249.11041,174.37446v-0.525h0.45v0.525z" fill="#43190b" stroke="none" stroke-width="0"/><path d="M249.76041,174.97446v-0.425h0.25v0.425z" fill="#43190b" stroke="none" stroke-width="0"/><path d="M250.23541,175.42446v-0.3h0.2v0.3z" fill="#43190b" stroke="none" stroke-width="0"/><path d="M249.71041,173.39946v-0.45h0.375v0.45z" fill="#43190b" stroke="none" stroke-width="0"/><path d="M250.03541,177.59946v-1.05h0.525v1.05z" fill="#43190b" stroke="none" stroke-width="0"/><path d="M250.71041,177.17446v-0.55h0.4v0.55z" fill="#43190b" stroke="none" stroke-width="0"/><path d="M250.26041,178.67446v-0.325h0.6v0.325z" fill="#43190b" stroke="none" stroke-width="0"/><path d="M248.76041,178.22446v-0.45h0.975v0.45z" fill="#43190b" stroke="none" stroke-width="0"/><path d="M249.26041,177.39946v-1.175h0.225v1.175z" fill="#43190b" stroke="none" stroke-width="0"/><path d="M246.96041,176.47446v-0.925h0.475v0.925z" fill="#43190b" stroke="none" stroke-width="0"/><path d="M246.76041,175.29946v-0.775h0.475v0.775z" fill="#43190b" stroke="none" stroke-width="0"/><path d="M247.73541,174.94946v-0.375h0.4v0.375z" fill="#43190b" stroke="none" stroke-width="0"/><path d="M248.23541,175.57446v-0.375h0.225v0.375z" fill="#43190b" stroke="none" stroke-width="0"/><path d="M246.13541,174.07446v-2.75h0.375v2.75z" fill="#43190b" stroke="none" stroke-width="0"/><path d="M247.03541,173.47446v-1.725h0.35v1.725z" fill="#43190b" stroke="none" stroke-width="0"/><path d="M246.83541,174.37446v-0.35h1.1v0.35z" fill="#43190b" stroke="none" stroke-width="0"/><path d="M245.26041,174.79946v-0.675h0.3v0.675z" fill="#43190b" stroke="none" stroke-width="0"/><path d="M245.76041,175.52446v-0.25h0.325v0.25z" fill="#43190b" stroke="none" stroke-width="0"/><path d="M246.13541,176.07446v-0.45h0.25v0.45z" fill="#43190b" stroke="none" stroke-width="0"/><path d="M251.56041,183.76613v-0.65h0.975v0.65z" fill="#43190b" stroke="none" stroke-width="0"/><path d="M251.76041,187.44113v-0.575h0.425v0.575z" fill="#43190b" stroke="none" stroke-width="0"/><path d="M252.41041,185.81613v-0.575h0.55v0.575z" fill="#43190b" stroke="none" stroke-width="0"/><path d="M251.81041,184.59113v-0.325h0.15v0.325z" fill="#43190b" stroke="none" stroke-width="0"/><path d="M251.96041,186.64113v-0.275h0.55v0.275z" fill="#43190b" stroke="none" stroke-width="0"/><path d="M252.33541,184.69113v-0.4h0.375v0.4z" fill="#43190b" stroke="none" stroke-width="0"/><path d="M233.73541,188.56613v-0.5h0.5v0.5z" fill="#43190b" stroke="none" stroke-width="0"/><path d="M234.28541,187.99113v-0.4h0.7v0.4z" fill="#43190b" stroke="none" stroke-width="0"/><path d="M235.71041,187.31613v-0.325h0.225v0.325z" fill="#43190b" stroke="none" stroke-width="0"/><path d="M235.93541,186.41613v-1.35h0.55v1.35z" fill="#43190b" stroke="none" stroke-width="0"/><path d="M235.08541,171.50779v-0.875h0.525v0.875z" fill="#43190b" stroke="none" stroke-width="0"/><path d="M238.78541,172.98279v-1.075h0.275v1.075z" fill="#43190b" stroke="none" stroke-width="0"/><path d="M237.61041,174.15779v-2.225h0.625v2.225z" fill="#43190b" stroke="none" stroke-width="0"/><path d="M249.08541,173.63279v-0.275h0.45v0.275z" fill="#43190b" stroke="none" stroke-width="0"/><path d="M228.53541,172.40779v-0.325h1.15v0.325z" fill="#43190b" stroke="none" stroke-width="0"/><path d="M244.21041,186.82446v-0.375h0.525v0.375z" fill="#43190b" stroke="none" stroke-width="0"/><path d="M245.48541,186.12446v-0.75h0.325v0.75z" fill="#43190b" stroke="none" stroke-width="0"/><path d="M229.26041,186.20779v-0.675h0.45v0.675z" fill="#43190b" stroke="none" stroke-width="0"/></g></g></svg>