<svg version="1.1" xmlns="http://www.w3.org/2000/svg" xmlns:xlink="http://www.w3.org/1999/xlink" width="24.44112" height="24.53124" viewBox="0,0,24.44112,24.53124"><defs><radialGradient cx="239.73809" cy="179.78571" r="11.92634" gradientUnits="userSpaceOnUse" id="color-1"><stop offset="0" stop-color="#b7a8a3"/><stop offset="1" stop-color="#776b68"/></radialGradient><linearGradient x1="242.55654" y1="189.6852" x2="249.67821" y2="189.6852" gradientUnits="userSpaceOnUse" id="color-2"><stop offset="0" stop-color="#3a281c"/><stop offset="1" stop-color="#3a281c" stop-opacity="0"/></linearGradient></defs><g transform="translate(-227.70589,-167.60939)"><g data-paper-data="{&quot;isPaintingLayer&quot;:true}" fill-rule="nonzero" stroke-linecap="butt" stroke-linejoin="miter" stroke-miterlimit="10" stroke-dasharray="" stroke-dashoffset="0" style="mix-blend-mode: normal"><path d="M238.76605,190.43446c0,0 -5.03183,-0.16616 -5.25586,-0.54933c-0.09729,-0.1664 -0.09412,-1.21089 0.70803,-1.47393c0.78563,-0.25762 2.37067,0.26735 2.27129,-0.00609c-0.28073,-0.77246 -1.73241,-1.39725 -2.20537,-2.4654c-0.44066,-0.99518 -0.83125,-3.19348 -1.60482,-4.14935c-0.26904,-0.33243 -0.65661,-0.02666 -1.00533,-0.04298c-0.31916,-0.01494 -0.60577,-0.34607 -0.73915,-0.7201c-0.20758,-0.58216 -0.4745,-1.89457 -0.07127,-2.35901c0.36844,-0.42436 1.40646,0.00076 1.32008,-0.54269c-0.09385,-0.59045 -0.2921,-2.07272 -0.77758,-2.27308c-0.8344,-0.34436 -2.52605,1.91469 -2.92637,1.05845c-0.4035,-0.86305 1.23873,-5.04935 1.23873,-5.47649c0,-0.73796 -0.7336,-1.22632 -1.20602,-1.79665c-0.43037,-0.51956 0.30126,-1.01288 0.30126,-1.01288c0,0 0.47759,-0.3348 0.95236,-0.33698c0.32074,-0.00147 0.54081,0.18635 0.9994,0.42342c0.46381,0.23977 12.19939,10.23698 12.619,10.56399c2.00091,1.55936 0.76258,9.1591 0.76258,9.1591c0,0 2.91583,0.77441 4.33047,0.73991c0.83315,-0.02032 1.83774,-0.85454 2.587,-1.44838c0.2563,-0.20313 1.08253,-0.33914 1.08253,-0.33914c0,0 0.00059,1.43955 -0.52355,2.0076c-0.65847,0.71363 -2.23808,1.17397 -3.22048,1.33738c-0.75473,0.12554 -6.07489,-0.31503 -7.4925,-0.18511c-0.28681,0.02629 -0.38424,1.29183 -0.67253,1.32029c-3.06793,0.30284 -5.20241,0.38992 -6.04371,0.07785c-0.80026,-0.29685 4.57182,-1.51039 4.57182,-1.51039z" fill-opacity="0.5" fill="#000000" stroke="none" stroke-width="0"/><path d="M238.24224,190.00589c0,0 -5.03183,-0.16616 -5.25586,-0.54933c-0.09729,-0.1664 -0.09412,-1.21089 0.70803,-1.47393c0.78563,-0.25762 2.37067,0.26735 2.27129,-0.00609c-0.28073,-0.77246 -1.73241,-1.39725 -2.20537,-2.4654c-0.44066,-0.99518 -0.83125,-3.19348 -1.60482,-4.14935c-0.26904,-0.33243 -0.65661,-0.02666 -1.00533,-0.04298c-0.31916,-0.01494 -0.60577,-0.34607 -0.73915,-0.7201c-0.20758,-0.58216 -0.4745,-1.89457 -0.07127,-2.35901c0.36844,-0.42436 1.40646,0.00076 1.32008,-0.54269c-0.09385,-0.59045 -0.2921,-2.07272 -0.77758,-2.27308c-0.8344,-0.34436 -2.52605,1.91469 -2.92637,1.05845c-0.4035,-0.86305 1.23873,-5.04935 1.23873,-5.47649c0,-0.73796 -0.7336,-1.22632 -1.20602,-1.79665c-0.43037,-0.51956 0.30126,-1.01288 0.30126,-1.01288c0,0 0.47759,-0.3348 0.95236,-0.33698c0.32074,-0.00147 0.54081,0.18635 0.9994,0.42342c0.46381,0.23977 12.19939,10.23698 12.619,10.56399c2.00091,1.55936 0.76258,9.1591 0.76258,9.1591c0,0 2.91583,0.77441 4.33047,0.73991c0.83315,-0.02032 1.83774,-0.85454 2.587,-1.44838c0.2563,-0.20313 1.08253,-0.33914 1.08253,-0.33914c0,0 0.00059,1.43955 -0.52355,2.0076c-0.65847,0.71363 -2.23808,1.17397 -3.22048,1.33738c-0.75473,0.12554 -6.07489,-0.31503 -7.4925,-0.18511c-0.28681,0.02629 -0.38424,1.29183 -0.67253,1.32029c-3.06793,0.30284 -5.20241,0.38992 -6.04371,0.07785c-0.80026,-0.29685 4.57182,-1.51039 4.57182,-1.51039z" fill="url(#color-1)" stroke="#ffffff" stroke-width="0.5"/><path d="M233.92713,185.13695l-1.67417,-4.09846c0,0 2.4188,-1.02652 3.02423,-0.61136c0.33311,0.22842 0.77457,2.24542 0.77457,2.24542c0,0 2.244,0.41444 2.69508,0.87419c0.25246,0.25732 -0.21889,1.64962 -0.21889,1.64962z" fill="#564c4d" stroke="none" stroke-width="0"/><path d="M240.1361,189.87139l3.30483,-1.72224c0,0 2.91356,0.79645 4.04871,0.77951c0.23736,-0.00355 0.97268,0.1217 1.44361,-0.09149c0.70858,-0.32078 1.13733,-1.10133 1.74697,-1.37888c0.48062,-0.21881 0.81332,-0.14698 0.81332,-0.14698c0,0 -0.26692,1.36916 -0.77034,1.74995c-0.66254,0.50115 -2.86032,0.99632 -2.86032,0.99632z" fill="url(#color-2)" stroke="none" stroke-width="0"/><path d="M242.37035,188.70772c0,0 0.3891,-4.99795 -1.22823,-8.6239c-1.02659,-2.30156 -4.28807,-3.16933 -4.29436,-4.26915c-0.00461,-0.80644 -1.1937,-1.39611 -1.75227,-2.05518c-0.35179,-0.41508 -0.17264,-1.29664 -0.17264,-1.29664l7.63369,6.33038c0,0 0.66263,0.34737 1.02118,1.56432c0.25009,0.84884 0.23275,2.35976 0.24332,3.46312c0.01596,1.66592 -0.33356,4.32849 -0.33356,4.32849z" fill="#5f5a56" stroke="none" stroke-width="0"/><path d="M230.29337,178.50247c0.16627,-0.61002 1.65705,-0.0354 1.5265,-0.64464c-0.15813,-0.73798 -0.10291,-1.26895 -0.64861,-2.59436c-0.24359,-0.59165 -2.50642,1.78288 -2.7668,1.19801c-0.59085,-1.32722 0.87236,-3.77244 1.01098,-5.56326c0.03481,-0.4497 -0.25998,-0.67956 -0.51353,-0.96061c-0.37675,-0.41762 -0.77492,-0.7796 -0.77492,-0.7796c0,0 0.00224,-0.29683 0.13732,-0.52538c0.16668,-0.28201 0.48697,-0.5087 0.67023,-0.53011c0.1661,-0.0194 0.73292,0.0957 1.09543,0.2998c1.7545,0.98782 4.98595,4.06052 4.98595,4.06052l0.13964,1.16367c0,0 -0.25683,2.85699 -0.91471,4.00112c-0.7559,1.31462 -3.27452,3.49294 -3.27452,3.49294c0,0 -0.94116,-1.63415 -0.67297,-2.6181z" fill="#8c7c6f" stroke="none" stroke-width="0"/><path d="M230.3851,170.49795c0,0 -0.53953,-0.39205 -0.77511,-0.65043c-0.25495,-0.27963 -0.70108,-0.96862 -0.70108,-0.96862c0,0 0.12161,-0.40713 0.28664,-0.39845c0.12576,0.00662 0.61813,0.44607 0.61813,0.44607c0,0 0.62678,0.21831 0.80235,0.4344c0.22482,0.27671 0.43574,1.08941 0.43574,1.08941c0,0 -0.20192,0.30354 -0.31786,0.31182c-0.10525,0.00752 -0.3488,-0.2642 -0.3488,-0.2642z" fill="#61574b" stroke="none" stroke-width="0"/><path d="M228.28771,176.49795c0,0 -0.2068,-0.2916 -0.15426,-0.7157c0.10377,-0.83771 0.52848,-2.19239 0.72042,-2.83799c0.20597,-0.69282 0.62754,-1.77964 0.62754,-1.77964c0,0 1.93894,0.14789 2.4308,0.31477c0.30952,0.10502 0.37551,0.58999 0.37551,0.58999c0,0 -0.63816,0.59926 -0.74191,0.79732c-0.25844,0.49339 -0.87607,2.34232 -0.87607,2.34232c0,0 -1.31766,1.00235 -1.75116,1.25735c-0.3637,0.21394 -0.63087,0.03158 -0.63087,0.03158z" fill="#6f5449" stroke="none" stroke-width="0"/><path d="M228.8755,174.01757v-0.45757h0.74355v0.45757z" fill="#3a281c" stroke="none" stroke-width="NaN"/><path d="M228.47513,175.84785c0,0.12636 -0.10243,0.22879 -0.22879,0.22879c-0.12635,0 -0.22878,-0.10243 -0.22878,-0.22879c0,-0.12636 0.10243,-0.22879 0.22878,-0.22879c0.12635,0 0.22879,0.10243 0.22879,0.22879z" fill="#3a281c" stroke="none" stroke-width="0"/><path d="M234.03844,191.42295c0,0 0.40642,-0.38047 1.05522,-0.54157c1.27673,-0.31701 3.64355,-0.40053 3.40752,-0.86686c-0.23482,-0.46394 -5.22693,-0.07717 -5.23662,-0.60551c-0.00234,-0.12772 -0.19619,-0.74975 -0.06148,-0.94711c0.12298,-0.18018 0.48097,-0.21592 0.50836,-0.32476c0.06779,-0.26937 2.42991,0.27794 2.41728,-0.03247c-0.03199,-0.78599 -2.63046,-2.35804 -2.28647,-2.87879c0.34194,-0.51764 4.26581,-0.06688 4.45617,-0.20965c0.36132,-0.27099 1.3722,2.68296 1.3722,2.68296c0,0 2.12418,-1.62451 2.64032,-1.46375c0.2853,0.08887 0.10595,2.48778 0.10595,2.48778c0,0 -1.63204,0.78353 -2.0015,1.14651c-0.48375,0.47526 -0.55858,1.32048 -0.55858,1.32048c0,0 -2.49088,0.37706 -3.53694,0.4189c-0.8543,0.03417 -2.28143,-0.18616 -2.28143,-0.18616z" fill="#795f57" stroke="none" stroke-width="0"/></g></g></svg>