<svg version="1.1" xmlns="http://www.w3.org/2000/svg" xmlns:xlink="http://www.w3.org/1999/xlink" width="27.45256" height="20.3939" viewBox="0,0,27.45256,20.3939"><defs><linearGradient x1="240" y1="180" x2="240" y2="180" gradientUnits="userSpaceOnUse" id="color-1"><stop offset="0" stop-color="#373c42"/><stop offset="1" stop-color="#6c4a4a"/></linearGradient><linearGradient x1="240" y1="180" x2="240" y2="180" gradientUnits="userSpaceOnUse" id="color-2"><stop offset="0" stop-color="#373c42"/><stop offset="1" stop-color="#6c4a4a"/></linearGradient><linearGradient x1="240" y1="180" x2="240" y2="180" gradientUnits="userSpaceOnUse" id="color-3"><stop offset="0" stop-color="#373c42"/><stop offset="1" stop-color="#6c4a4a"/></linearGradient><linearGradient x1="240" y1="180" x2="240" y2="180" gradientUnits="userSpaceOnUse" id="color-4"><stop offset="0" stop-color="#373c42"/><stop offset="1" stop-color="#6c4a4a"/></linearGradient><linearGradient x1="226.62079" y1="180.03275" x2="233.25715" y2="180.03275" gradientUnits="userSpaceOnUse" id="color-5"><stop offset="0" stop-color="#643e3b"/><stop offset="1" stop-color="#643e3b" stop-opacity="0"/></linearGradient></defs><g transform="translate(-226.2238,-169.67805)"><g data-paper-data="{&quot;isPaintingLayer&quot;:true}" fill-rule="nonzero" stroke-linecap="butt" stroke-linejoin="miter" stroke-miterlimit="10" stroke-dasharray="" stroke-dashoffset="0" style="mix-blend-mode: normal"><path d="M232.57127,187.48161c0,0 -2.50392,-0.5499 -3.5824,-2.14513c-0.73775,-1.09126 -0.20042,-2.8617 -0.14756,-4.52699c0.07103,-2.23743 0.16802,-4.18965 0.07736,-5.98304c-0.04279,-0.84643 -1.12455,-0.35166 -1.65917,-0.85338c-0.46943,-0.44054 0.31177,-1.62536 0.31177,-1.87539c0,-0.5498 1.28571,-0.8125 1.28571,-0.8125c0,0 2.3669,-0.57142 4.34821,-0.57142c0.92586,0 2.30577,0.42446 3.15994,1.29443c1.5043,1.53211 2.42883,4.14578 3.88415,6.10976c1.53706,2.07428 3.73269,3.3101 3.73269,3.3101c0,0 1.47589,0.78801 3.25113,1.26139c2.12775,0.56737 4.68552,0.86985 5.64751,1.34187c1.22172,0.59946 0.67278,2.09318 0.67278,2.09318c0,0 -1.60661,0.81442 -4.09455,0.36492c-2.49058,-0.44996 -6.29217,0.83621 -8.3892,0.92466c-0.62282,0.02627 1.48978,1.91424 0.92925,1.95042c-0.94487,0.06099 -1.31686,0.33078 -1.71807,0.46053c-0.5835,0.1887 -1.0695,0.24048 -2.14553,0.24685c-1.17746,0.00697 -1.44353,-0.438 -2.07752,-0.48868c-0.76874,-0.06144 -0.85513,-1.1581 -1.56671,-1.7c-0.61913,-0.47151 -1.91981,-0.40156 -1.91981,-0.40156z" fill-opacity="0.5" fill="#000000" stroke="none" stroke-width="0"/><path d="" fill-opacity="0.5" fill="#000000" stroke="none" stroke-width="0"/><path d="" fill="#5e6669" stroke="#ffffff" stroke-width="0.5"/><path d="" fill="#464d55" stroke="none" stroke-width="0"/><path d="" fill="#464d55" stroke="none" stroke-width="0"/><path d="" fill="#464d55" stroke="none" stroke-width="0"/><path d="" fill="#464d55" stroke="none" stroke-width="0"/><path d="" fill="url(#color-1)" stroke="none" stroke-width="0"/><path d="" fill="url(#color-2)" stroke="none" stroke-width="0"/><path d="" fill="#464d55" stroke="none" stroke-width="0"/><path d="" fill="url(#color-3)" stroke="none" stroke-width="0"/><path d="" fill="url(#color-4)" stroke="none" stroke-width="0"/><path d="" fill="#ffffff" stroke="none" stroke-width="0"/><path d="" fill="#373c42" stroke="none" stroke-width="0"/><path d="M231.78556,186.6959c0,0 -2.50391,-0.54989 -3.58239,-2.14513c-0.73776,-1.09126 -0.20042,-2.8617 -0.14756,-4.52699c0.07103,-2.23743 0.16802,-4.18964 0.07736,-5.98303c-0.04279,-0.84643 -1.12455,-0.35166 -1.65917,-0.85338c-0.46943,-0.44053 0.31177,-1.62536 0.31177,-1.87539c0,-0.54979 1.28571,-0.8125 1.28571,-0.8125c0,0 2.36691,-0.57143 4.34821,-0.57143c0.92586,0 2.30576,0.42445 3.15994,1.29443c1.5043,1.53211 2.42883,4.14578 3.88415,6.10976c1.53706,2.07428 3.7327,3.3101 3.7327,3.3101c0,0 1.47589,0.78801 3.25113,1.26138c2.12774,0.56737 4.68552,0.86985 5.64751,1.34187c1.22172,0.59946 0.67278,2.09317 0.67278,2.09317c0,0 -1.60661,0.81441 -4.09455,0.36492c-2.49058,-0.44996 -6.29217,0.83622 -8.3892,0.92466c-0.62282,0.02627 1.48978,1.91425 0.92925,1.95042c-0.94487,0.06098 -1.31686,0.33078 -1.71807,0.46053c-0.5835,0.1887 -1.0695,0.24049 -2.14553,0.24685c-1.17746,0.00696 -1.44353,-0.438 -2.07752,-0.48868c-0.76874,-0.06145 -0.85513,-1.1581 -1.56671,-1.7c-0.61914,-0.47151 -1.91981,-0.40156 -1.91981,-0.40156z" fill="#987f68" stroke="#ffffff" stroke-width="0.5"/><path d="M228.16624,183.5782c0,0 -0.06498,-0.10777 -0.06979,-0.4997c-0.00174,-0.1414 0.0439,-0.47793 0.0476,-0.63718c0.00943,-0.40546 -0.03782,-0.71601 0.01825,-1.23697c0.12046,-1.11916 0.20729,-2.41568 0.226,-3.22036c0.01269,-0.54588 -0.00397,-2.88846 -0.16915,-4.0813c-0.1224,-0.88388 -1.4963,-0.26786 -1.67573,-1.00678c-0.23663,-0.97444 0.44101,-1.86317 0.44101,-1.86317c0,0 1.89079,-0.44866 2.89513,-0.61473c0.91073,-0.15059 2.83215,-0.24891 2.83215,-0.24891c0,0 3.91882,7.85926 3.90277,10.22693c-0.01396,2.05869 -3.44823,6.13671 -3.44823,6.13671c0,0 -0.84955,0.10375 -1.65825,-0.09091c-0.92902,-0.22362 -1.86225,-0.76841 -2.36471,-1.10039c-0.37477,-0.24761 -0.74149,-0.7837 -0.90276,-1.21152c-0.10854,-0.28795 -0.07428,-0.55172 -0.07428,-0.55172z" fill="url(#color-5)" stroke="none" stroke-width="0"/><path d="M228.16624,179.93548c0,0 0.23004,-2.48763 0.23004,-3.58134c0,-0.94367 -0.15132,-2.67617 -0.15132,-2.67617c0,0 0.32966,-0.23613 0.51162,-0.23613c0.20808,0 0.66904,0.23613 0.66904,0.23613c0,0 -0.45562,1.72113 -0.55693,2.64479c-0.11889,1.08395 -0.11211,3.45529 -0.11211,3.45529c0,0 -0.24452,0.38005 -0.35028,0.40825c-0.08756,0.02335 -0.24005,-0.25083 -0.24005,-0.25083z" fill="#efd7cd" stroke="none" stroke-width="0"/><path d="M229.57533,181.03275c0,0 0.31818,-2.87315 0.31818,-4.13636c0,-1.08991 -0.22727,-3.09091 -0.22727,-3.09091c0,0 0.38075,-0.27273 0.59091,-0.27273c0.24033,0 0.77273,0.27273 0.77273,0.27273c0,0 -0.52624,1.98787 -0.64324,3.05467c-0.13731,1.25193 -0.12949,3.99078 -0.12949,3.99078c0,0 -0.28241,0.43895 -0.40456,0.47152c-0.10112,0.02697 -0.27725,-0.2897 -0.27725,-0.2897z" fill="#efd7cd" stroke="none" stroke-width="0"/><path d="M237.39351,186.13881l0.13636,-2c0,0 4.82102,-2.40909 7.31818,-2.40909c0.96492,0 2.1076,0.4641 3.16596,0.70579c1.81351,0.41414 3.37949,0.7033 3.37949,0.7033c0,0 0.9722,0.23487 1.24767,0.5972c0.42269,0.55597 0.19003,1.35049 -0.01796,1.57617c-0.36704,0.39828 -1.86607,0.50845 -1.86607,0.50845c0,0 -1.05495,-0.47523 -4.95261,-0.27968c-1.17077,0.05874 -3.2737,0.62469 -4.2806,0.69687c-1.7267,0.12379 -2.42416,0.53417 -3.03678,0.55034c-0.6339,0.01673 -1.09365,-0.64935 -1.09365,-0.64935z" fill="#705648" stroke="none" stroke-width="0"/><path d="M230.73061,171.70298c0.20925,0.11441 0.51573,0.14636 0.39786,0.36195c-0.11787,0.21559 -0.28149,0.30135 -0.49075,0.18694c-0.20925,-0.11441 -0.24718,-0.25855 -0.1293,-0.47414c0.11787,-0.21559 0.01293,-0.18916 0.22219,-0.07475z" fill="#643e3b" stroke="none" stroke-width="0"/></g></g></svg>