<svg version="1.1" xmlns="http://www.w3.org/2000/svg" xmlns:xlink="http://www.w3.org/1999/xlink" width="23.51848" height="17.12747" viewBox="0,0,23.51848,17.12747"><defs><linearGradient x1="341.773" y1="338.20618" x2="341.773" y2="343.53361" gradientUnits="userSpaceOnUse" id="color-1"><stop offset="0" stop-color="#373c42"/><stop offset="1" stop-color="#6c4a4a"/></linearGradient><linearGradient x1="348.95884" y1="338.82565" x2="348.95884" y2="344.77255" gradientUnits="userSpaceOnUse" id="color-2"><stop offset="0" stop-color="#373c42"/><stop offset="1" stop-color="#6c4a4a"/></linearGradient><linearGradient x1="324.21105" y1="339.87874" x2="324.21105" y2="344.8345" gradientUnits="userSpaceOnUse" id="color-3"><stop offset="0" stop-color="#373c42"/><stop offset="1" stop-color="#6c4a4a"/></linearGradient><linearGradient x1="330.87034" y1="338.26812" x2="330.87034" y2="346.01148" gradientUnits="userSpaceOnUse" id="color-4"><stop offset="0" stop-color="#373c42"/><stop offset="1" stop-color="#6c4a4a"/></linearGradient><linearGradient x1="239.75673" y1="171.52112" x2="239.75673" y2="187.94809" gradientUnits="userSpaceOnUse" id="color-5"><stop offset="0" stop-color="#a9a1ae"/><stop offset="1" stop-color="#8c8490"/></linearGradient><linearGradient x1="235.18252" y1="179.69385" x2="235.18252" y2="184.03032" gradientUnits="userSpaceOnUse" id="color-6"><stop offset="0" stop-color="#474255" stop-opacity="0"/><stop offset="1" stop-color="#474255"/></linearGradient><linearGradient x1="247.38839" y1="183.49933" x2="247.38839" y2="185.82189" gradientUnits="userSpaceOnUse" id="color-7"><stop offset="0" stop-color="#2e2f47" stop-opacity="0"/><stop offset="1" stop-color="#2e2f47"/></linearGradient><linearGradient x1="248.83958" y1="183.16745" x2="250.77349" y2="183.16745" gradientUnits="userSpaceOnUse" id="color-8"><stop offset="0" stop-color="#d7d7ee" stop-opacity="0"/><stop offset="1" stop-color="#d7d7ee"/></linearGradient><linearGradient x1="233.57042" y1="173.63165" x2="233.57042" y2="179.03011" gradientUnits="userSpaceOnUse" id="color-9"><stop offset="0" stop-color="#c7b5ae"/><stop offset="1" stop-color="#c7b5ae" stop-opacity="0"/></linearGradient><linearGradient x1="229.37876" y1="182.43734" x2="229.37876" y2="185.53482" gradientUnits="userSpaceOnUse" id="color-10"><stop offset="0" stop-color="#473d4b" stop-opacity="0"/><stop offset="1" stop-color="#473d4b"/></linearGradient><linearGradient x1="231.64771" y1="182.57848" x2="231.64771" y2="186.61218" gradientUnits="userSpaceOnUse" id="color-11"><stop offset="0" stop-color="#473d4b" stop-opacity="0"/><stop offset="1" stop-color="#473d4b"/></linearGradient><linearGradient x1="240.19592" y1="183.35581" x2="240.19592" y2="186.31806" gradientUnits="userSpaceOnUse" id="color-12"><stop offset="0" stop-color="#473d4b" stop-opacity="0"/><stop offset="1" stop-color="#473d4b"/></linearGradient><linearGradient x1="242.59093" y1="183.25077" x2="242.59093" y2="187.74666" gradientUnits="userSpaceOnUse" id="color-13"><stop offset="0" stop-color="#473d4b" stop-opacity="0"/><stop offset="1" stop-color="#473d4b"/></linearGradient></defs><g transform="translate(-228.13978,-171.35141)"><g data-paper-data="{&quot;isPaintingLayer&quot;:true}" fill-rule="nonzero" stroke-linecap="butt" stroke-linejoin="miter" stroke-miterlimit="10" stroke-dasharray="" stroke-dashoffset="0" style="mix-blend-mode: normal"><path d="M229.66617,174.92942c0,0 1.9689,-1.04589 3.89043,-0.98822c1.75747,0.05274 3.38852,1.20947 5.22501,1.20947c1.50256,0 0.22002,-2.32121 2.24288,-2.90337c1.29056,-0.37141 2.23712,1.28582 3.90957,1.23446c1.08031,-0.03318 0.48203,-1.04981 1.51001,-1.36025c0.73556,-0.22213 2.75254,0.09145 3.04423,0.88257c0.34715,0.94154 -1.10451,2.41209 -1.10451,2.41209c0,0 0.10312,4.11134 0.48408,5.59771c0.4907,1.91455 2.79039,0.68575 2.79039,0.68575c0,0 -0.62467,4.00973 -1.99111,4.24867c-0.38643,0.06757 -2.23349,1.04704 -3.25657,0.4549c-1.2399,-0.71764 -1.7259,-3.03835 -2.80399,-3.0178c-0.34732,0.00662 0.31599,4.88677 -0.04392,4.90489c-0.04258,0.00214 -0.54167,0.41002 -0.67296,0.01944c-0.41797,-1.24342 -1.05607,-4.6044 -1.19427,-4.60069c-0.14379,0.00386 -0.15537,3.32735 -0.30013,3.33296c-0.17611,0.00682 -0.60224,0.01248 -0.9764,0.01701c-0.18852,0.00229 0.00138,0.00429 -0.08835,0.00602c-0.04227,0.00081 -0.40266,-0.27702 -0.39602,-0.71646c0.01422,-0.94105 0.08821,-2.46456 -0.00226,-2.46362c-0.44196,0.00458 -1.90281,0.85983 -2.34464,0.88281c-0.09534,0.00496 -1.44615,0.07718 -1.84605,-0.09063c-1.48201,-0.6219 -3.42772,-2.28652 -3.76789,-2.26305c-0.24671,0.01702 0.93566,4.50993 0.71445,4.5396c-0.1662,0.02229 -0.98071,0.51954 -1.2801,-0.25028c-0.4211,-1.08278 -0.3426,-3.54666 -0.54414,-3.53515c-0.22742,0.01299 -0.39582,3.00144 -0.59466,3.03441c-0.11205,0.01858 -1.11924,0.38565 -1.18172,-0.39812c-0.06089,-0.76382 0.77841,-2.45463 0.68372,-4.18949c-0.12145,-2.22494 -1.15143,-4.55086 -0.90506,-5.39041c0.12814,-0.43664 0.79997,-1.29521 0.79997,-1.29521z" fill-opacity="0.5" fill="#000000" stroke="none" stroke-width="0"/><path d="" fill-opacity="0.5" fill="#000000" stroke="none" stroke-width="0"/><path d="" fill="#5e6669" stroke="#ffffff" stroke-width="0.5"/><path d="" fill="#464d55" stroke="none" stroke-width="0"/><path d="" fill="#464d55" stroke="none" stroke-width="0"/><path d="" fill="#464d55" stroke="none" stroke-width="0"/><path d="" fill="#464d55" stroke="none" stroke-width="0"/><path d="" fill="url(#color-1)" stroke="none" stroke-width="0"/><path d="" fill="url(#color-2)" stroke="none" stroke-width="0"/><path d="" fill="#464d55" stroke="none" stroke-width="0"/><path d="" fill="url(#color-3)" stroke="none" stroke-width="0"/><path d="" fill="url(#color-4)" stroke="none" stroke-width="0"/><path d="" fill="#ffffff" stroke="none" stroke-width="0"/><path d="" fill="#373c42" stroke="none" stroke-width="0"/><path d="M229.17964,174.39864c0,0 1.9689,-1.04589 3.89043,-0.98822c1.75747,0.05274 3.38852,1.20947 5.22501,1.20947c1.50256,0 0.22002,-2.32121 2.24288,-2.90337c1.29056,-0.37141 2.23712,1.28582 3.90957,1.23446c1.08031,-0.03318 0.48203,-1.04981 1.51001,-1.36025c0.73556,-0.22213 2.75254,0.09145 3.04423,0.88257c0.34715,0.94154 -1.10451,2.41209 -1.10451,2.41209c0,0 0.10312,4.11134 0.48408,5.59771c0.4907,1.91455 2.79039,0.68575 2.79039,0.68575c0,0 -0.62467,4.00973 -1.99111,4.24867c-0.38643,0.06757 -2.23349,1.04704 -3.25657,0.4549c-1.2399,-0.71764 -1.7259,-3.03835 -2.80399,-3.0178c-0.34732,0.00662 0.31599,4.88677 -0.04392,4.90489c-0.04258,0.00214 -0.54167,0.41002 -0.67296,0.01944c-0.41797,-1.24342 -1.05607,-4.6044 -1.19427,-4.60069c-0.14379,0.00386 -0.15537,3.32735 -0.30013,3.33296c-0.17611,0.00682 -0.60224,0.01248 -0.9764,0.01701c-0.18852,0.00229 0.00138,0.00429 -0.08835,0.00602c-0.04227,0.00081 -0.40266,-0.27702 -0.39602,-0.71646c0.01422,-0.94105 0.08821,-2.46456 -0.00226,-2.46362c-0.44196,0.00458 -1.90281,0.85983 -2.34464,0.88281c-0.09534,0.00496 -1.44615,0.07718 -1.84605,-0.09063c-1.48201,-0.6219 -3.42772,-2.28652 -3.76789,-2.26305c-0.24671,0.01702 0.93566,4.50993 0.71445,4.5396c-0.1662,0.02229 -0.98071,0.51954 -1.2801,-0.25028c-0.4211,-1.08278 -0.3426,-3.54666 -0.54414,-3.53515c-0.22742,0.01299 -0.39582,3.00144 -0.59466,3.03441c-0.11205,0.01858 -1.11924,0.38565 -1.18172,-0.39812c-0.06089,-0.76382 0.77841,-2.45463 0.68372,-4.18949c-0.12145,-2.22494 -1.15143,-4.55086 -0.90506,-5.39041c0.12814,-0.43664 0.79997,-1.29521 0.79997,-1.29521z" fill="url(#color-5)" stroke="#ffffff" stroke-width="0.5"/><path d="M235.3746,183.94182c0,0 -2.86834,-1.25301 -3.60234,-2.30158c-0.56145,-0.80207 0.19511,-1.94639 0.19511,-1.94639c0,0 1.09284,-1.20395 1.62765,-1.16173c0.58217,0.04596 1.73533,1.42723 1.73533,1.42723c0,0 2.466,1.18176 3.13621,1.90783c0.16089,0.17429 0.45129,1.14433 0.28255,1.42648c-0.39847,0.66626 -1.73727,0.73667 -1.73727,0.73667z" fill="url(#color-6)" stroke="none" stroke-width="0"/><path d="M241.79081,174.56089c0,0 -0.72544,-0.25049 -0.98543,-0.51714c-0.30731,-0.31519 -0.74031,-1.25284 -0.74031,-1.25284c0,0 0.77363,0.16485 1.20157,0.18907c0.24204,0.0137 1.14366,-0.05632 1.14366,-0.05632c0,0 0.29503,0.46597 0.38035,0.75748c0.09128,0.31186 0.15064,1.05676 0.15064,1.05676c0,0 -0.33695,0.05708 -0.47524,0.03581c-0.21241,-0.03268 -0.67526,-0.21281 -0.67526,-0.21281z" fill="#3a3749" stroke="none" stroke-width="0"/><path d="M245.77328,174.11839c0,0 -0.04314,-0.72107 0.03554,-1.02004c0.06691,-0.25425 0.40696,-0.66145 0.40696,-0.66145c0,0 0.55868,0.2655 0.84074,0.2655c0.21682,0 0.79649,-0.2655 0.79649,-0.2655c0,0 0.14921,0.5279 0.13483,0.80126c-0.01508,0.28652 -0.22333,0.88023 -0.22333,0.88023c0,0 -0.51068,0.30975 -0.79649,0.30975c-0.1935,0 -1.19474,-0.30975 -1.19474,-0.30975z" fill="#3a3749" stroke="none" stroke-width="0"/><path d="M245.95028,185.66756c0,0 -0.50888,-0.53221 -0.73719,-0.82838c-0.29843,-0.38716 -0.72305,-1.2956 -0.72305,-1.2956c0,0 1.89268,-1.25661 2.78673,-1.21658c1.05551,0.04726 3.05423,1.12808 3.05423,1.12808c0,0 -0.39047,1.04497 -0.70363,1.37379c-0.27059,0.28412 -0.93361,0.52894 -0.93361,0.52894c0,0 -1.19859,0.4051 -1.64082,0.45503c-0.47051,0.05312 -1.10266,-0.14529 -1.10266,-0.14529z" fill="url(#color-7)" stroke="none" stroke-width="0"/><path d="M243.60504,178.85311c0,0 -0.3209,-0.04127 -0.52736,-0.10106c-0.16498,-0.04778 -0.04789,-0.62241 -0.04789,-0.78393c0,-0.20685 0.22125,-0.4425 0.22125,-0.4425c0,0 0.37664,0.13275 0.57525,0.13275c0.21334,0 0.6195,-0.30975 0.6195,-0.30975c0,0 -0.03235,1.08377 -0.13638,1.54793c-0.05597,0.24971 -0.43886,1.01856 -0.43886,1.01856c0,0 -0.07889,-0.62531 -0.12754,-0.81992c-0.03593,-0.14373 -0.13795,-0.24207 -0.13795,-0.24207z" fill="#585369" stroke="none" stroke-width="0"/><path d="M247.10077,180.1806c0,0 -0.03423,-0.64781 -0.09865,-1.2126c-0.06101,-0.53497 -0.15364,-0.98182 -0.11075,-1.21061c0.03622,-0.19317 0.20939,-0.40877 0.20939,-0.40877c0,0 -0.1475,-0.13275 0.04425,-0.13275c0.19175,0 0.22125,0.04425 0.22125,0.04425c0,0 0.21202,0.28889 0.24107,0.52859c0.06181,0.50991 0.11293,2.34764 0.11293,2.34764c0,0 -0.19625,0.42278 -0.30498,0.43637c-0.12499,0.01562 -0.31451,-0.39212 -0.31451,-0.39212z" fill="#585369" stroke="none" stroke-width="0"/><path d="M244.00329,176.19813c0,0.3177 -0.25755,0.57525 -0.57525,0.57525c-0.3177,0 -0.57525,-0.25755 -0.57525,-0.57525c0,-0.3177 0.25755,-0.57525 0.57525,-0.57525c0.3177,0 0.57525,0.25755 0.57525,0.57525z" fill="#4c495c" stroke="none" stroke-width="0"/><path d="M247.4988,176.19791c0,0.3177 -0.25754,0.57524 -0.57524,0.57524c-0.3177,0 -0.57524,-0.25754 -0.57524,-0.57524c0,-0.3177 0.25754,-0.57525 0.57524,-0.57525c0.3177,0 0.57524,0.25755 0.57524,0.57525z" fill="#4c495c" stroke="none" stroke-width="0"/><path d="M249.7115,184.73832c0,0 -0.65417,-1.00159 -0.79801,-1.52395c-0.13597,-0.49377 -0.00072,-1.59231 -0.00072,-1.59231c0,0 0.21489,0.083 0.44867,0.12972c0.15589,0.03116 0.32019,0.03451 0.43478,0.02918c0.16612,-0.00772 0.42566,-0.01065 0.66858,-0.09732c0.25271,-0.09017 0.48569,-0.26406 0.48569,-0.26406l-0.64051,2.19147c0,0 -0.31181,0.62434 -0.42551,0.82739c-0.08289,0.14802 -0.17297,0.29987 -0.17297,0.29987z" fill="url(#color-8)" stroke="none" stroke-width="0"/><path d="M245.46353,181.24259l-1.10624,-8.00919c0,0 0.2616,-0.13606 0.40887,-0.16284c0.17305,-0.03146 0.60888,-0.23541 0.60888,-0.23541l0.75224,8.36319c0,0 -0.17825,0.24244 -0.31074,0.25506c-0.16851,0.01605 -0.353,-0.21081 -0.353,-0.21081z" fill="#9a9bb2" stroke="none" stroke-width="0"/><path d="M230.02039,178.80886c0,0 -1.06553,-0.97273 -1.20442,-1.5464c-0.07901,-0.32635 -0.26716,-1.12747 -0.15188,-1.63608c0.15647,-0.69037 0.69256,-1.10974 0.69256,-1.10974c0,0 1.74436,-0.88499 3.45148,-0.88499c0.43373,0 1.33913,0.19076 1.87558,0.33444c0.71986,0.19281 1.09422,0.37173 1.81298,0.56676c0.99934,0.27118 1.9754,0.33779 1.9754,0.33779c0,0 0.23467,2.06741 -0.41751,2.76405c-0.64575,0.68978 -3.47647,1.39542 -3.47647,1.39542z" fill="url(#color-9)" stroke="none" stroke-width="0"/><path d="M228.69289,185.53482l0.79834,-3.01344l0.65744,-0.02101c0,0 -0.16945,0.34933 -0.22062,0.62685c-0.05796,0.31435 -0.12129,1.07277 -0.20068,1.66312c-0.05917,0.43992 -0.14593,0.78651 -0.14593,0.78651c0,0 -0.20758,0.02101 -0.44427,0.02101c-0.21921,0 -0.44427,-0.06303 -0.44427,-0.06303z" fill="url(#color-10)" stroke="none" stroke-width="0"/><path d="M231.30107,186.29705c0,0 -0.24,-0.37441 -0.29935,-0.68339c-0.12508,-0.65116 -0.2889,-3.01417 -0.2889,-3.01417l0.54623,-0.06303l0.73531,3.65553c0,0 -0.22645,0.18137 -0.34105,0.19874c-0.11647,0.01764 -0.35224,-0.09369 -0.35224,-0.09369z" fill="url(#color-11)" stroke="none" stroke-width="0"/><path d="M239.88079,186.33907c0,0 -0.15309,-0.19212 -0.15891,-0.35748c-0.01633,-0.46377 0.05387,-2.62578 0.05387,-2.62578l1.09246,0.02101c0,0 -0.05271,1.14313 -0.06795,1.99538c-0.00678,0.37894 0.02757,0.71723 0.01953,0.84309c-0.00755,0.11831 -0.14066,0.12378 -0.14066,0.12378z" fill="url(#color-12)" stroke="none" stroke-width="0"/><path d="M242.61194,187.78868l-1.09246,-4.64296l1.26053,-0.14706l0.18908,4.55891c0,0 -0.08976,0.12111 -0.14199,0.1549c-0.06429,0.0416 -0.21516,0.0762 -0.21516,0.0762z" fill="url(#color-13)" stroke="none" stroke-width="0"/></g></g></svg>