<svg version="1.1" xmlns="http://www.w3.org/2000/svg" xmlns:xlink="http://www.w3.org/1999/xlink" width="28.34009" height="23.45399" viewBox="0,0,28.34009,23.45399"><defs><linearGradient x1="240" y1="180" x2="240" y2="180" gradientUnits="userSpaceOnUse" id="color-1"><stop offset="0" stop-color="#373c42"/><stop offset="1" stop-color="#6c4a4a"/></linearGradient><linearGradient x1="240" y1="180" x2="240" y2="180" gradientUnits="userSpaceOnUse" id="color-2"><stop offset="0" stop-color="#373c42"/><stop offset="1" stop-color="#6c4a4a"/></linearGradient><linearGradient x1="240" y1="180" x2="240" y2="180" gradientUnits="userSpaceOnUse" id="color-3"><stop offset="0" stop-color="#373c42"/><stop offset="1" stop-color="#6c4a4a"/></linearGradient><linearGradient x1="240" y1="180" x2="240" y2="180" gradientUnits="userSpaceOnUse" id="color-4"><stop offset="0" stop-color="#373c42"/><stop offset="1" stop-color="#6c4a4a"/></linearGradient><linearGradient x1="229.53439" y1="181.43442" x2="229.53439" y2="190.26139" gradientUnits="userSpaceOnUse" id="color-5"><stop offset="0" stop-color="#5d5968" stop-opacity="0"/><stop offset="1" stop-color="#5d5968"/></linearGradient></defs><g transform="translate(-225.70495,-168.19847)"><g data-paper-data="{&quot;isPaintingLayer&quot;:true}" fill-rule="nonzero" stroke-linecap="butt" stroke-linejoin="miter" stroke-miterlimit="10" stroke-dasharray="" stroke-dashoffset="0" style="mix-blend-mode: normal"><path d="M228.70803,190.31216c0,0 0.44944,-0.71886 0.07977,-1.86419c-0.21548,-0.66762 -0.87158,-0.66376 -1.17586,-1.56328c-0.44802,-1.32443 -0.49089,-3.65382 -0.16578,-5.17059c0.17251,-0.80484 1.196,2.02569 1.50866,1.50091c0.47519,-0.79757 0.44823,-4.51049 0.47208,-5.55527c0.02126,-0.93106 -1.22586,-0.01941 -1.86144,-0.59124c-0.75653,-0.68066 -0.9231,-2.78259 -0.89317,-3.14275c0.05144,-0.61891 1.21936,-1.06343 1.21936,-1.06343c0,0 0.7901,0.36491 1.17948,0.93323c0.33454,0.48827 0.22631,1.19351 0.75452,1.17946c0.69036,-0.01836 1.7684,-1.86672 2.14117,-2.51121c0.63029,-1.08974 1.03859,-2.93958 2.35684,-3.40331c0.58677,-0.20641 1.42011,-0.0433 2.08896,0.0249c2.7767,0.28315 4.27714,1.53193 6.17365,1.53193c2.56457,0 5.961,-0.07806 7.87705,0.31236c1.10334,0.22482 1.51117,1.3714 1.51117,1.3714c0,0 0.381,4.7337 0.96603,9.05491c0.33898,2.50376 0.94981,4.86905 1.06671,6.09482c0.1616,1.69451 -0.24694,3.57569 -0.24694,3.57569c0,0 -3.2783,1.23729 -4.79923,-0.25401c-0.08985,-0.0881 -0.23444,-0.43353 -0.08497,-0.81195c0.05637,-0.14271 0.17379,-0.91696 0.6173,-1.14463c0.58254,-0.29904 1.50563,-0.06214 1.37021,-0.28582c-0.62604,-1.03409 -0.8819,-5.30128 -1.66406,-5.6773c-0.20171,-0.09697 -0.62722,1.20736 -0.70944,2.35603c-0.07455,1.04145 -0.05845,1.93678 -0.2655,1.88184c-0.10231,-0.02715 -0.01315,0.15618 -0.21632,0.3815c-0.77672,0.86143 -2.35235,3.03155 -2.73849,2.90139c-0.40036,-0.13495 -0.89677,-0.13016 -1.28016,-0.29307c-0.15965,-0.06784 -0.3657,-0.28253 -0.37504,-0.63454c-0.00421,-0.15871 -0.14904,-0.58771 0.11344,-1.08668c0.25765,-0.48978 0.92076,-1.04699 1.11766,-1.48217c0.36547,-0.80777 0.14635,-1.73507 -0.03939,-1.80239c-0.90596,-0.32836 -2.52738,0.0909 -3.40603,-0.02724c-0.30021,-0.04037 1.0311,4.36068 0.7292,4.32551c-0.71002,-0.08272 -2.22784,0.05122 -2.90891,-0.00229c-0.10293,-0.00808 -0.19094,0.59328 -0.41377,0.92046c-0.22577,0.33148 -0.5677,0.3828 -0.83224,0.61051c-0.21169,0.18222 -0.35547,0.56914 -0.4865,0.62304c-0.82806,0.34063 -1.77169,-0.08435 -2.76996,-0.29466c-0.1584,-0.03337 -0.35094,-0.80564 -0.04034,-1.55135c0.39138,-0.93964 1.31172,-1.89711 1.0801,-1.95335c-0.85651,-0.20797 0.2131,-2.66466 -0.54435,-2.76314c-0.69523,-0.0904 -1.33924,2.59875 -1.91462,2.56279c-1.07765,-0.06736 0.26431,3.09065 -0.37244,3.05086c-0.70734,-0.04421 -1.50972,0.57213 -2.1793,0.53028c-1.16987,-0.07312 -2.03913,-0.79394 -2.03913,-0.79394z" fill-opacity="0.5" fill="#000000" stroke="none" stroke-width="0"/><path d="" fill-opacity="0.5" fill="#000000" stroke="none" stroke-width="0"/><path d="" fill="#5e6669" stroke="#ffffff" stroke-width="0.5"/><path d="" fill="#464d55" stroke="none" stroke-width="0"/><path d="" fill="#464d55" stroke="none" stroke-width="0"/><path d="" fill="#464d55" stroke="none" stroke-width="0"/><path d="" fill="#464d55" stroke="none" stroke-width="0"/><path d="" fill="url(#color-1)" stroke="none" stroke-width="0"/><path d="" fill="url(#color-2)" stroke="none" stroke-width="0"/><path d="" fill="#464d55" stroke="none" stroke-width="0"/><path d="" fill="url(#color-3)" stroke="none" stroke-width="0"/><path d="" fill="url(#color-4)" stroke="none" stroke-width="0"/><path d="" fill="#ffffff" stroke="none" stroke-width="0"/><path d="" fill="#373c42" stroke="none" stroke-width="0"/><path d="M227.99396,189.70014c0,0 0.44944,-0.71886 0.07977,-1.86419c-0.21548,-0.66762 -0.87158,-0.66376 -1.17586,-1.56328c-0.44802,-1.32443 -0.49089,-3.65382 -0.16578,-5.17059c0.17251,-0.80484 1.196,2.02569 1.50866,1.50091c0.47519,-0.79757 0.44823,-4.51049 0.47208,-5.55527c0.02126,-0.93106 -1.22586,-0.01941 -1.86144,-0.59124c-0.75653,-0.68066 -0.9231,-2.78259 -0.89317,-3.14275c0.05144,-0.61891 1.21936,-1.06343 1.21936,-1.06343c0,0 0.7901,0.36491 1.17948,0.93323c0.33454,0.48827 0.22631,1.19351 0.75452,1.17946c0.69036,-0.01836 1.7684,-1.86672 2.14117,-2.51121c0.63029,-1.08974 1.03859,-2.93958 2.35684,-3.40331c0.58677,-0.20641 1.42012,-0.04331 2.08897,0.0249c2.7767,0.28315 4.27714,1.53193 6.17365,1.53193c2.56456,0 5.961,-0.07806 7.87706,0.31236c1.10334,0.22482 1.51117,1.3714 1.51117,1.3714c0,0 0.381,4.7337 0.96603,9.05491c0.33898,2.50377 0.94981,4.86905 1.06671,6.09481c0.1616,1.69451 -0.24694,3.57569 -0.24694,3.57569c0,0 -3.27831,1.23729 -4.79923,-0.25401c-0.08985,-0.0881 -0.23444,-0.43353 -0.08497,-0.81194c0.05637,-0.14271 0.17379,-0.91696 0.61731,-1.14463c0.58253,-0.29904 1.50563,-0.06214 1.37021,-0.28582c-0.62603,-1.03408 -0.8819,-5.30128 -1.66406,-5.6773c-0.2017,-0.09697 -0.62722,1.20736 -0.70944,2.35603c-0.07455,1.04145 -0.05844,1.93678 -0.26549,1.88184c-0.1023,-0.02715 -0.01315,0.15617 -0.21632,0.3815c-0.77673,0.86144 -2.35235,3.03155 -2.73849,2.90138c-0.40036,-0.13496 -0.89677,-0.13016 -1.28016,-0.29307c-0.15964,-0.06783 -0.3657,-0.28253 -0.37503,-0.63454c-0.00421,-0.15872 -0.14904,-0.58771 0.11343,-1.08667c0.25764,-0.48978 0.92076,-1.04699 1.11766,-1.48218c0.36547,-0.80776 0.14635,-1.73507 -0.03939,-1.8024c-0.90597,-0.32836 -2.52739,0.0909 -3.40603,-0.02724c-0.30021,-0.04037 1.03111,4.36068 0.72921,4.32551c-0.71002,-0.08272 -2.22784,0.05122 -2.90892,-0.00229c-0.10292,-0.00809 -0.19093,0.59329 -0.41377,0.92046c-0.22577,0.33148 -0.5677,0.38279 -0.83224,0.6105c-0.21169,0.18222 -0.35547,0.56914 -0.4865,0.62305c-0.82806,0.34063 -1.77169,-0.08435 -2.76996,-0.29466c-0.1584,-0.03337 -0.35094,-0.80564 -0.04034,-1.55135c0.39138,-0.93965 1.31173,-1.89711 1.0801,-1.95334c-0.85651,-0.20797 0.2131,-2.66466 -0.54435,-2.76314c-0.69523,-0.0904 -1.33924,2.59875 -1.91462,2.56279c-1.07765,-0.06736 0.26431,3.09065 -0.37244,3.05086c-0.70735,-0.04421 -1.50971,0.57213 -2.1793,0.53028c-1.16987,-0.07312 -2.03913,-0.79394 -2.03913,-0.79394z" fill="#b2b0bd" stroke="#ffffff" stroke-width="0.5"/><path d="M233.04523,182.96511c0,0.18592 -0.11191,0.30423 -0.21168,0.43132c-0.11194,0.14258 -0.2218,0.283 -0.40059,0.283c-0.2171,0 -0.25474,-0.13182 -0.36346,-0.3306c-0.06062,-0.11084 -0.24882,-0.24249 -0.24882,-0.38372c0,-0.17072 0.2044,-0.32745 0.29004,-0.45033c0.11226,-0.16108 0.13041,-0.26399 0.32223,-0.26399c0.19548,0 0.26752,0.20893 0.37962,0.37533c0.08181,0.12144 0.23265,0.17255 0.23265,0.33899z" fill="#464352" stroke="none" stroke-width="0"/><path d="M228.24907,189.75116c0,0 0.26416,-0.82219 0.13933,-1.4463c-0.04861,-0.24307 0.05762,-0.53445 -0.1784,-0.82842c-0.31628,-0.39393 -1.00354,-0.83309 -1.17239,-1.55506c-0.24584,-1.05114 -0.34289,-2.19994 -0.28851,-3.11358c0.04458,-0.74896 0.2244,-1.37337 0.2244,-1.37337l2.65319,4.49002c0,0 1.59259,0.87684 2.10119,1.58322c0.32737,0.45467 0.50098,2.2435 0.50098,2.2435c0,0 -1.36751,0.51023 -1.98989,0.51023c-0.68178,0 -1.98989,-0.51023 -1.98989,-0.51023z" fill="url(#color-5)" stroke="none" stroke-width="0"/><path d="M234.48667,180.40199c-0.03894,-0.37379 0.70152,-0.29417 0.70152,-0.29417c0,0 -0.45647,-0.1706 0.06322,0.0433c2.32459,0.95677 8.86732,3.48138 10.85431,2.45722c2.9705,-1.53109 4.79753,-11.17442 4.79753,-11.17442c0,0 0.67174,3.60629 0.61185,6.17496c-0.04506,1.93264 -3.64849,3.869 -3.90659,6.87565c-0.0604,0.70363 -0.00256,1.3818 -0.33402,1.99787c-0.90887,1.68927 -2.69809,3.1157 -2.69809,3.1157c0,0 -0.0051,-0.07131 -0.41771,-0.11595c-0.21571,-0.02334 -0.38496,-0.22953 -0.71103,-0.18181c-0.08112,0.01187 -0.57566,-0.46013 -0.33085,-1.15694c0.20925,-0.59559 0.80271,-1.22568 1.15571,-1.86054c0.46163,-0.83024 0.29982,-1.59617 0.15291,-1.5708c-0.12153,0.02099 -0.22471,-0.19097 -0.44991,-0.37071c-0.16287,-0.13 -0.37965,-0.0149 -0.6749,-0.00793c-0.25761,0.00608 -0.59932,-0.10669 -0.70176,-0.06344c-0.2163,0.09131 -2.02333,-0.05226 -2.25541,0.0763c-0.26765,0.14827 -1.82444,-1.24679 -2.07021,-1.16058c-0.84868,0.2977 -2.62889,1.67663 -3.49756,0.90681c-0.52054,-0.4613 -0.23368,-3.15925 -0.28902,-3.6905z" fill="#534e5c" stroke="none" stroke-width="0"/><path d="M235.08615,180.10783c0,0 -0.43133,0.18689 -0.54639,0.64184c-0.1887,0.74611 0.12486,1.97041 -0.13714,1.61821c-0.87624,-1.17786 -2.27395,-6.34501 -2.26407,-7.20857c0.00092,-0.08022 0.71879,-0.83833 1.23529,-0.55138c0.86987,0.48329 1.73078,2.15056 1.73301,2.03168c0.02626,-1.40062 -0.02071,-7.9099 -0.02071,-7.9099c0,0 0.36634,-0.20937 0.55087,-0.03973c0.08283,0.07614 0.0068,0.1879 0.05616,0.49976c0.15481,0.97809 -0.03362,3.29837 0.23114,3.81692c0.21234,0.41588 0.4855,0.99452 0.83441,1.79963c0.11909,0.27479 -0.0486,2.03215 -0.00924,3.258c0.02222,0.69234 0.21474,1.11088 0.30521,1.2541c0.43242,0.68453 2.46802,1.10684 2.93088,1.61353c0.07232,0.07917 0.48246,0.01711 0.66136,-0.41621c0.32669,-0.79131 0.47784,-2.22508 0.6053,-2.08464c0.17777,0.19587 -0.10518,2.82617 0.06855,2.98978c0.70704,0.66586 1.56258,0.42176 2.08212,0.42176c0.69583,0 2.01548,0.48708 2.87076,-0.24779c1.89378,-1.62718 3.30302,-5.26268 3.30302,-5.26268l-0.40819,2.14297c0,0 -1.22978,2.6215 -2.60873,3.91857c-0.63348,0.59586 -1.25818,0.4694 -1.88128,0.4694c-1.14529,0 -3.26566,-0.42062 -5.12165,-1.01066c-2.40533,-0.76468 -4.47066,-1.74458 -4.47066,-1.74458z" fill="#888393" stroke="none" stroke-width="0"/><path d="M248.30109,189.95525c0,0 0.0259,-1.25249 0.60245,-1.61894c0.39718,-0.25244 1.4284,0.09463 1.53833,-0.25348c0.09404,-0.29779 -0.28139,-0.37581 -0.39892,-0.97625c-0.17789,-0.90875 -0.31322,-1.9985 -0.31322,-1.9985c0,0 0.88773,0.44956 1.50069,0.28019c0.67384,-0.18619 1.50966,-0.5353 1.50966,-0.5353c0,0 0.1445,1.15343 0.27017,1.96037c0.17853,1.14636 0.03596,3.55011 0.03596,3.55011c0,0 -2.49778,0.3217 -3.36681,0.24695c-0.6447,-0.05546 -1.37832,-0.65513 -1.37832,-0.65513z" fill="#827a89" stroke="none" stroke-width="0"/><path d="M239.06594,188.57763l-0.56125,-5.51048l1.88785,1.3266l0.86739,4.18388z" fill="#827a89" stroke="none" stroke-width="0"/><path d="M237.94343,189.44502l-0.20409,-6.17378c0,0 0.21709,-0.45921 0.35716,-0.45921c0.14856,0 0.51023,0.45921 0.51023,0.45921l0.51023,5.35741c0,0 -0.55781,0.06194 -0.7643,0.20559c-0.18143,0.12621 -0.40922,0.61078 -0.40922,0.61078z" fill="#37333d" stroke="none" stroke-width="0"/><path d="M237.33116,188.47559c0,0 -0.72573,-0.36798 -0.93348,-0.78331c-0.17049,-0.34083 -0.3014,-0.71354 -0.21297,-0.94094c0.14577,-0.37483 0.78928,-1.28611 0.78928,-1.28611c0,0 -0.16577,0.03003 0.10118,-0.21063c0.2062,-0.18589 0.42704,-0.35063 0.56212,-0.35063c0.41002,0 0.20409,0.96944 0.20409,0.96944l0.15307,2.65319c0,0 -0.52452,-0.01585 -0.66488,-0.0241c-0.14833,-0.00873 0.00158,-0.02692 0.00158,-0.02692z" fill="#726f7e" stroke="none" stroke-width="0"/><path d="M227.53475,176.48519c0,0 -0.68001,-0.04487 -0.89794,-0.46824c-0.41717,-0.81046 -0.50053,-2.32818 -0.41724,-2.80416c0.06307,-0.36039 0.7029,-0.75841 0.7029,-0.75841c0,0 0.25033,-0.19651 0.91193,0.34175c0.36717,0.29871 0.65938,1.07088 0.90958,1.45406c0.2377,0.36403 0.43748,0.34716 0.6276,0.34716c0.2071,0 0.35551,-0.23158 0.52227,-0.39054c0.26476,-0.25237 0.49819,-0.47685 0.49819,-0.47685c0,0 0.52175,1.08633 0.50381,1.57962c-0.01581,0.4347 -0.60586,1.22664 -0.60586,1.22664c0,0 -0.73652,1.00871 -1.12121,1.00159c-0.25505,-0.00472 -0.21342,-0.83751 -0.56259,-1.10358c-0.33821,-0.25771 -1.07144,0.05097 -1.07144,0.05097z" fill="#604d55" stroke="none" stroke-width="0"/><path d="M232.89216,178.67918l-0.76534,-3.52058c0,0 0.49249,-0.66613 0.78749,-0.70682c0.5373,-0.07411 2.32491,1.72728 2.32491,1.72728c0,0 0.61285,0.79037 0.58745,1.18823c-0.01451,0.22725 -0.24986,0.58488 -0.4514,0.85248c-0.1545,0.20515 -0.13606,0.25533 -0.13606,0.25533c0,0 -0.28523,0.18242 -0.47152,0.28344c-0.30664,0.16628 -0.75995,0.38849 -1.01195,0.40021c-0.26557,0.01235 -0.86359,-0.47956 -0.86359,-0.47956z" fill="#604d55" stroke="none" stroke-width="0"/></g></g></svg>