<svg version="1.1" xmlns="http://www.w3.org/2000/svg" xmlns:xlink="http://www.w3.org/1999/xlink" width="31.30403" height="26.40353" viewBox="0,0,31.30403,26.40353"><defs><linearGradient x1="240" y1="180.00001" x2="240" y2="180.00001" gradientUnits="userSpaceOnUse" id="color-1"><stop offset="0" stop-color="#373c42"/><stop offset="1" stop-color="#6c4a4a"/></linearGradient><linearGradient x1="240" y1="180.00001" x2="240" y2="180.00001" gradientUnits="userSpaceOnUse" id="color-2"><stop offset="0" stop-color="#373c42"/><stop offset="1" stop-color="#6c4a4a"/></linearGradient><linearGradient x1="240" y1="180.00001" x2="240" y2="180.00001" gradientUnits="userSpaceOnUse" id="color-3"><stop offset="0" stop-color="#373c42"/><stop offset="1" stop-color="#6c4a4a"/></linearGradient><linearGradient x1="240" y1="180.00001" x2="240" y2="180.00001" gradientUnits="userSpaceOnUse" id="color-4"><stop offset="0" stop-color="#373c42"/><stop offset="1" stop-color="#6c4a4a"/></linearGradient></defs><g transform="translate(-224.23479,-166.67375)"><g data-paper-data="{&quot;isPaintingLayer&quot;:true}" fill-rule="nonzero" stroke-linejoin="miter" stroke-miterlimit="10" stroke-dasharray="" stroke-dashoffset="0" style="mix-blend-mode: normal"><path d="M225.14832,174.62493c0.11195,-1.15701 1.32193,-1.47303 1.93375,-2.28458c0.53959,-0.71575 0.49595,-1.97423 0.49595,-2.30494c0,-0.65718 0.30975,-2.22724 0.30975,-2.22724c0,0 0.67778,-0.42155 1.58993,-0.39797c0.26458,0.00684 1.42143,0.17767 2.43603,0.62095c1.10341,0.48208 2.09517,1.27024 3.06091,2.09929c1.6167,1.38787 1.71104,2.78934 3.22587,2.85065c4.65684,0.18845 8.25342,-0.66185 10.79526,0.01568c1.72716,0.46037 3.22933,2.55511 3.22933,2.55511c0,0 0.3097,3.1102 0.67011,5.16134c0.06742,0.38366 2.36539,0.85039 2.46359,1.37436c0.04224,0.22538 0.45106,0.82023 -0.12518,0.92518c-0.69207,0.12605 -2.39393,-0.23917 -2.36916,0.07556c0.14695,1.86681 0.85869,4.25709 0.73301,5.90075c-0.13246,1.73237 -1.10687,2.66968 -1.10687,2.66968c0,0 -0.43449,0.20508 -0.98244,0.0667c-0.10118,-0.02555 -0.7558,-0.21963 -0.75334,-0.70054c0.0036,-0.70635 0.70775,-1.87787 0.78316,-2.78271c0.13555,-1.6265 -0.40181,-3.35269 -0.58844,-3.34358c-1.04378,0.05091 -2.01723,5.16502 -3.97224,5.66996c-0.24601,0.06354 -1.67826,0.21299 -1.60963,-0.39467c0.10574,-0.93621 1.88974,-2.94014 2.40233,-4.14895c0.46995,-1.10825 0.17332,-2.24315 -0.00846,-2.53122c-0.66993,-1.06171 -2.22398,-2.33858 -2.35408,-2.3121c-0.81439,0.16579 -1.49199,0.76845 -2.37046,1.08165c-0.6155,0.21944 -2.26153,0.42414 -2.89686,0.69663c-0.29014,0.12444 1.49952,7.24531 1.20994,7.37913c-0.11294,0.05219 -2.08481,0.72281 -2.19859,0.7729c-0.06074,0.02674 -0.48084,-0.23946 -0.50586,-0.52257c-0.02122,-0.2401 0.35353,-0.50478 0.3021,-0.48316c-0.05635,0.02368 0.1092,-0.25576 0.33805,-0.47015c0.19447,-0.18217 0.45924,-0.30508 0.41142,-0.28562c-0.08656,0.03521 -1.19097,-3.69117 -1.27774,-3.65667c-0.11198,0.04451 -0.84334,0.31071 -0.95506,0.35606c-0.09912,0.04023 0.20026,4.99243 0.10165,5.03317c-0.18831,0.0778 -2.10172,1.70118 -2.28866,1.77278c-0.03268,0.01252 -0.53157,0.33723 -0.79796,0.17731c-0.15819,-0.09497 -0.11981,-0.58999 -0.16668,-0.79568c-0.09658,-0.42381 0.68727,-1.34649 1.13697,-1.8454c0.18732,-0.20783 0.31667,-0.34211 0.30024,-0.33619c-0.15668,0.05658 -0.43888,-1.46118 -0.50187,-3.09775c-0.05886,-1.52921 0.10175,-3.18462 -0.04044,-3.13593c-0.07042,0.02411 -0.52893,-1.71227 -1.78796,-3.52775c-1.49258,-2.15227 -2.42892,-5.23341 -2.50678,-5.20284c-1.3707,0.53828 -2.44239,1.87804 -3.08025,2.12486c-1.88631,0.7299 -2.87658,-0.60473 -2.68435,-2.5915z" fill-opacity="0.5" fill="#000000" stroke="none" stroke-width="0" stroke-linecap="butt"/><path d="" fill-opacity="0.5" fill="#000000" stroke="none" stroke-width="0" stroke-linecap="butt"/><path d="" fill="#5e6669" stroke="#ffffff" stroke-width="0.5" stroke-linecap="butt"/><path d="" fill="#464d55" stroke="none" stroke-width="0" stroke-linecap="butt"/><path d="" fill="#464d55" stroke="none" stroke-width="0" stroke-linecap="butt"/><path d="" fill="#464d55" stroke="none" stroke-width="0" stroke-linecap="butt"/><path d="" fill="#464d55" stroke="none" stroke-width="0" stroke-linecap="butt"/><path d="" fill="url(#color-1)" stroke="none" stroke-width="0" stroke-linecap="butt"/><path d="" fill="url(#color-2)" stroke="none" stroke-width="0" stroke-linecap="butt"/><path d="" fill="#464d55" stroke="none" stroke-width="0" stroke-linecap="butt"/><path d="" fill="url(#color-3)" stroke="none" stroke-width="0" stroke-linecap="butt"/><path d="" fill="url(#color-4)" stroke="none" stroke-width="0" stroke-linecap="butt"/><path d="" fill="#ffffff" stroke="none" stroke-width="0" stroke-linecap="butt"/><path d="" fill="#373c42" stroke="none" stroke-width="0" stroke-linecap="butt"/><path d="M224.48479,174.1384c0.11195,-1.15701 1.32193,-1.47303 1.93375,-2.28458c0.53959,-0.71575 0.49595,-1.97423 0.49595,-2.30494c0,-0.65718 0.30975,-2.22724 0.30975,-2.22724c0,0 0.67778,-0.42155 1.58993,-0.39797c0.26458,0.00684 1.42143,0.17767 2.43603,0.62095c1.10341,0.48208 2.09517,1.27024 3.06091,2.09929c1.6167,1.38787 1.71104,2.78934 3.22587,2.85065c4.65684,0.18845 8.25342,-0.66185 10.79526,0.01568c1.72716,0.46037 3.22933,2.55511 3.22933,2.55511c0,0 0.3097,3.1102 0.67011,5.16134c0.06742,0.38366 2.36539,0.85039 2.46359,1.37436c0.04224,0.22538 0.45106,0.82023 -0.12518,0.92518c-0.69207,0.12605 -2.39393,-0.23917 -2.36916,0.07556c0.14695,1.86681 0.85869,4.25709 0.73301,5.90075c-0.13246,1.73237 -1.10687,2.66968 -1.10687,2.66968c0,0 -0.43449,0.20508 -0.98244,0.0667c-0.10118,-0.02555 -0.7558,-0.21963 -0.75334,-0.70054c0.0036,-0.70635 0.70775,-1.87787 0.78316,-2.78271c0.13555,-1.6265 -0.40181,-3.35269 -0.58844,-3.34358c-1.04378,0.05091 -2.01723,5.16502 -3.97224,5.66996c-0.24601,0.06354 -1.67826,0.21299 -1.60963,-0.39467c0.10574,-0.93621 1.88974,-2.94014 2.40233,-4.14895c0.46995,-1.10825 0.17332,-2.24315 -0.00846,-2.53122c-0.66993,-1.06171 -2.22398,-2.33858 -2.35408,-2.3121c-0.81439,0.16579 -1.49199,0.76845 -2.37046,1.08165c-0.6155,0.21944 -2.26153,0.42414 -2.89686,0.69663c-0.29014,0.12444 1.49952,7.24531 1.20994,7.37913c-0.11294,0.05219 -2.08481,0.72281 -2.19859,0.7729c-0.06074,0.02674 -0.48084,-0.23946 -0.50586,-0.52257c-0.02122,-0.2401 0.35353,-0.50478 0.3021,-0.48316c-0.05635,0.02368 0.1092,-0.25576 0.33805,-0.47015c0.19447,-0.18217 0.45924,-0.30508 0.41142,-0.28562c-0.08656,0.03521 -1.19097,-3.69117 -1.27774,-3.65667c-0.11198,0.04451 -0.84334,0.31071 -0.95506,0.35606c-0.09912,0.04023 0.20026,4.99243 0.10165,5.03317c-0.18831,0.0778 -2.10172,1.70118 -2.28866,1.77278c-0.03268,0.01252 -0.53157,0.33723 -0.79796,0.17731c-0.15819,-0.09497 -0.11981,-0.58999 -0.16668,-0.79568c-0.09658,-0.42381 0.68727,-1.34649 1.13697,-1.8454c0.18732,-0.20783 0.31667,-0.34211 0.30024,-0.33619c-0.15668,0.05658 -0.43888,-1.46118 -0.50187,-3.09775c-0.05886,-1.52921 0.10175,-3.18462 -0.04044,-3.13593c-0.07042,0.02411 -0.52893,-1.71227 -1.78796,-3.52775c-1.49258,-2.15227 -2.42892,-5.23341 -2.50678,-5.20284c-1.3707,0.53828 -2.44239,1.87804 -3.08025,2.12486c-1.88631,0.7299 -2.87658,-0.60473 -2.68435,-2.5915z" fill="#fcf6f8" stroke="#ffffff" stroke-width="0.5" stroke-linecap="butt"/><path d="M240.67614,173.23635l-0.13275,6.7702" fill="none" stroke="#000000" stroke-width="0.5" stroke-linecap="round"/><path d="M241.64963,173.19211l0.2655,3.40723" fill="none" stroke="#000000" stroke-width="0.5" stroke-linecap="round"/><path d="M242.18063,179.69681l0.708,-6.32771" fill="none" stroke="#000000" stroke-width="0.5" stroke-linecap="round"/><path d="M243.55237,173.32485l-0.177,3.27448" fill="none" stroke="#000000" stroke-width="0.5" stroke-linecap="round"/><path d="M243.81787,179.12156l0.75224,-5.75246" fill="none" stroke="#000000" stroke-width="0.5" stroke-linecap="round"/><path d="M245.63211,173.19211l-1.06199,2.96473" fill="none" stroke="#000000" stroke-width="0.5" stroke-linecap="round"/><path d="M245.7206,175.31609l0.92924,-2.07974" fill="none" stroke="#000000" stroke-width="0.5" stroke-linecap="round"/><path d="M239.3044,179.07731l-0.66375,-5.88521" fill="none" stroke="#000000" stroke-width="0.5" stroke-linecap="round"/><path d="M239.7469,173.05936l0.177,4.55772" fill="none" stroke="#000000" stroke-width="0.5" stroke-linecap="round"/><path d="M237.09191,180.40481l-0.48675,-7.7437" fill="none" stroke="#000000" stroke-width="0.5" stroke-linecap="round"/><path d="M237.97691,172.97086l-0.30975,3.80547" fill="none" stroke="#000000" stroke-width="0.5" stroke-linecap="round"/><path d="M236.07417,174.91784l-3.00898,2.69923" fill="none" stroke="#000000" stroke-width="0.5" stroke-linecap="round"/><path d="M235.80867,176.06834l-1.23899,1.19474" fill="none" stroke="#000000" stroke-width="0.5" stroke-linecap="round"/><path d="M233.33069,175.36034l2.21248,-3.80547" fill="none" stroke="#000000" stroke-width="0.5" stroke-linecap="round"/><path d="M232.0917,176.06834l0.22125,-0.708" fill="none" stroke="#000000" stroke-width="0.5" stroke-linecap="round"/><path d="M231.42795,174.69659l1.46024,-2.34523" fill="none" stroke="#000000" stroke-width="0.5" stroke-linecap="round"/><path d="M232.6227,174.29835l1.59299,-2.47798" fill="none" stroke="#000000" stroke-width="0.5" stroke-linecap="round"/><path d="M233.37494,170.13888l0.66375,0.75224" fill="none" stroke="#000000" stroke-width="0.5" stroke-linecap="round"/><path d="M231.78195,171.64337l-0.6195,-1.81424" fill="none" stroke="#000000" stroke-width="0.5" stroke-linecap="round"/><path d="M230.85271,173.76735l0.75224,-0.708" fill="none" stroke="#000000" stroke-width="0.5" stroke-linecap="round"/><path d="M227.04723,175.71434l-1.94699,-0.177" fill="none" stroke="#000000" stroke-width="0.5" stroke-linecap="round"/><path d="M227.00299,175.09484l-1.85849,-0.22125" fill="none" stroke="#000000" stroke-width="0.5" stroke-linecap="round"/><path d="M225.80824,174.4311l-0.22125,-1.10624" fill="none" stroke="#000000" stroke-width="0.5" stroke-linecap="round"/><path d="M226.25074,172.92661v1.01774" fill="none" stroke="#000000" stroke-width="0.5" stroke-linecap="round"/><path d="M227.26848,171.33362l0.57525,-0.0885" fill="none" stroke="#000000" stroke-width="0.5" stroke-linecap="round"/><path d="M228.15348,171.99736v0.2655" fill="none" stroke="#000000" stroke-width="0.5" stroke-linecap="round"/><path d="M228.72872,172.52836l0.30975,0.30975" fill="none" stroke="#000000" stroke-width="0.5" stroke-linecap="round"/><path d="M230.41021,171.77611l-0.75224,0.531" fill="none" stroke="#000000" stroke-width="0.5" stroke-linecap="round"/><path d="M231.11821,172.13011l-0.66375,0.84074" fill="none" stroke="#000000" stroke-width="0.5" stroke-linecap="round"/><path d="M235.45468,183.05978l-0.22125,0.6195" fill="none" stroke="#000000" stroke-width="0.5" stroke-linecap="round"/><path d="M235.14492,185.31653l0.48675,-0.6195" fill="none" stroke="#000000" stroke-width="0.5" stroke-linecap="round"/><path d="M237.09191,184.82977l0.531,-0.531" fill="none" stroke="#000000" stroke-width="0.5" stroke-linecap="round"/><path d="M238.9504,185.49352l-0.66375,-0.88499" fill="none" stroke="#000000" stroke-width="0.5" stroke-linecap="round"/><path d="M239.0389,189.96273l0.531,-0.75224" fill="none" stroke="#000000" stroke-width="0.5" stroke-linecap="round"/><path d="M238.9504,187.83875l0.75224,0.354" fill="none" stroke="#000000" stroke-width="0.5" stroke-linecap="round"/><path d="M229.21547,170.77312l0.66375,-0.13275" fill="none" stroke="#000000" stroke-width="0.5" stroke-linecap="round"/><path d="M230.94121,168.20664l-1.81424,-0.0885" fill="none" stroke="#000000" stroke-width="0.5" stroke-linecap="round"/><path d="M228.50747,167.41015l1.06199,0.04425" fill="none" stroke="#000000" stroke-width="0.5" stroke-linecap="round"/><path d="M227.57823,167.80839l-0.0885,1.63724" fill="none" stroke="#000000" stroke-width="0.5" stroke-linecap="round"/><path d="M232.1802,168.69339l0.30975,1.01774" fill="none" stroke="#000000" stroke-width="0.5" stroke-linecap="round"/><path d="M248.64108,176.30433l-0.708,1.28324" fill="none" stroke="#000000" stroke-width="0.5" stroke-linecap="round"/><path d="M249.39333,176.21583l-0.57525,-0.88499" fill="none" stroke="#000000" stroke-width="0.5" stroke-linecap="round"/><path d="M249.57033,175.10959l0.22125,1.15049" fill="none" stroke="#000000" stroke-width="0.5" stroke-linecap="round"/><path d="M250.27832,175.55209l-0.177,-1.06199" fill="none" stroke="#000000" stroke-width="0.5" stroke-linecap="round"/><path d="M248.46409,174.4901l1.01774,-0.531" fill="none" stroke="#000000" stroke-width="0.5" stroke-linecap="round"/><path d="M247.13659,176.48133l0.04425,-1.59299" fill="none" stroke="#000000" stroke-width="0.5" stroke-linecap="round"/><path d="M247.71184,176.21583l0.22125,-1.10624" fill="none" stroke="#000000" stroke-width="0.5" stroke-linecap="round"/><path d="M247.57909,173.6936l-0.30975,0.48675" fill="none" stroke="#000000" stroke-width="0.5" stroke-linecap="round"/><path d="M247.3136,178.78232l-0.6195,0.75224" fill="none" stroke="#000000" stroke-width="0.5" stroke-linecap="round"/><path d="M248.81808,178.64957l-0.66375,0.354" fill="none" stroke="#000000" stroke-width="0.5" stroke-linecap="round"/><path d="M249.34908,178.51682l0.4425,-1.15049" fill="none" stroke="#000000" stroke-width="0.5" stroke-linecap="round"/><path d="M250.27832,177.63182l0.2655,-0.84074" fill="none" stroke="#000000" stroke-width="0.5" stroke-linecap="round"/><path d="M250.94207,175.95034l0.2655,1.01774" fill="none" stroke="#000000" stroke-width="0.5" stroke-linecap="round"/><path d="M252.09256,181.7913l1.37174,0.177" fill="none" stroke="#000000" stroke-width="0.5" stroke-linecap="round"/><path d="M253.77404,181.6143l0.57525,0.2655" fill="none" stroke="#000000" stroke-width="0.5" stroke-linecap="round"/><path d="M250.58807,181.0833l-1.06199,-0.13275" fill="none" stroke="#000000" stroke-width="0.5" stroke-linecap="round"/><path d="M249.17208,180.19831l2.07974,-1.19474" fill="none" stroke="#000000" stroke-width="0.5" stroke-linecap="round"/><path d="M247.26935,180.9063l0.92924,-0.354" fill="none" stroke="#000000" stroke-width="0.5" stroke-linecap="round"/><path d="M246.6941,181.65855l-0.66375,-1.41599" fill="none" stroke="#000000" stroke-width="0.5" stroke-linecap="round"/><path d="M247.57909,182.27804l1.59299,0.57525" fill="none" stroke="#000000" stroke-width="0.5" stroke-linecap="round"/><path d="M248.33134,183.64978h1.10624" fill="none" stroke="#000000" stroke-width="0.5" stroke-linecap="round"/><path d="M250.36682,183.11879l1.23899,1.10624" fill="none" stroke="#000000" stroke-width="0.5" stroke-linecap="round"/><path d="M250.76507,182.05679h-0.66375" fill="none" stroke="#000000" stroke-width="0.5" stroke-linecap="round"/><path d="M248.15434,181.6143l1.15049,0.13275" fill="none" stroke="#000000" stroke-width="0.5" stroke-linecap="round"/><path d="M234.87943,182.05679l0.88499,0.04425" fill="none" stroke="#000000" stroke-width="0.5" stroke-linecap="round"/><path d="M236.64942,182.63204l-0.57525,0.2655" fill="none" stroke="#000000" stroke-width="0.5" stroke-linecap="round"/><path d="M238.37515,182.18954l-1.01774,-0.177" fill="none" stroke="#000000" stroke-width="0.5" stroke-linecap="round"/><path d="M236.02992,180.68505l-1.41599,-0.0885" fill="none" stroke="#000000" stroke-width="0.5" stroke-linecap="round"/><path d="M233.59619,180.59655l-0.13275,-0.57525" fill="none" stroke="#000000" stroke-width="0.5" stroke-linecap="round"/><path d="M233.77319,179.00357l0.39825,0.84074" fill="none" stroke="#000000" stroke-width="0.5" stroke-linecap="round"/><path d="M233.02094,178.56107l-0.88499,-0.79649" fill="none" stroke="#000000" stroke-width="0.5" stroke-linecap="round"/><path d="M228.37472,173.5166l1.06199,0.2655" fill="none" stroke="#000000" stroke-width="0.5" stroke-linecap="round"/><path d="M226.87024,172.41036h0.48675" fill="none" stroke="#000000" stroke-width="0.5" stroke-linecap="round"/><path d="M227.40123,173.7821l0.04425,-0.354" fill="none" stroke="#000000" stroke-width="0.5" stroke-linecap="round"/><path d="M229.25972,169.44563l0.6195,0.13275" fill="none" stroke="#000000" stroke-width="0.5" stroke-linecap="round"/><path d="M234.65818,178.69382l1.01774,0.13275" fill="none" stroke="#000000" stroke-width="0.5" stroke-linecap="round"/><path d="M236.25117,179.00356l0.0885,0.6195" fill="none" stroke="#000000" stroke-width="0.5" stroke-linecap="round"/><path d="M235.98567,177.67607l-0.57525,0.04425" fill="none" stroke="#000000" stroke-width="0.5" stroke-linecap="round"/><path d="M236.25117,177.10083l-0.13275,-0.30975" fill="none" stroke="#000000" stroke-width="0.5" stroke-linecap="round"/><path d="M245.76485,189.21049l0.30975,-0.39825" fill="none" stroke="#000000" stroke-width="0.5" stroke-linecap="round"/><path d="M247.00385,188.01575l-0.30975,0.2655" fill="none" stroke="#000000" stroke-width="0.5" stroke-linecap="round"/><path d="M247.44634,186.95376l0.0885,-0.531" fill="none" stroke="#000000" stroke-width="0.5" stroke-linecap="round"/><path d="M248.19859,185.00678l0.30975,-0.57525" fill="none" stroke="#000000" stroke-width="0.5" stroke-linecap="round"/><path d="M251.91556,186.24576l-0.0885,-1.32749" fill="none" stroke="#000000" stroke-width="0.5" stroke-linecap="round"/><path d="M251.69431,187.7945l0.88499,0.2655" fill="none" stroke="#000000" stroke-width="0.5" stroke-linecap="round"/><path d="M251.20757,189.47599l-0.04425,0.6195" fill="none" stroke="#000000" stroke-width="0.5" stroke-linecap="round"/><path d="M235.32192,190.75923l-0.88499,0.48675" fill="none" stroke="#000000" stroke-width="0.5" stroke-linecap="round"/><path d="M236.07417,189.91849l-0.04425,-1.10624" fill="none" stroke="#000000" stroke-width="0.5" stroke-linecap="round"/><path d="M235.80867,186.24576l0.0885,1.46024" fill="none" stroke="#000000" stroke-width="0.5" stroke-linecap="round"/><path d="M238.5079,179.96231l-0.30975,-1.72574" fill="none" stroke="#000000" stroke-width="0.5" stroke-linecap="round"/><path d="M228.41897,169.79963l-0.177,0.92924" fill="none" stroke="#4e4e4e" stroke-width="0.5" stroke-linecap="round"/><path d="M228.41897,168.11814l0.13275,0.84074" fill="none" stroke="#4e4e4e" stroke-width="0.5" stroke-linecap="round"/><path d="M232.97669,171.48112l-0.48675,-1.23899" fill="none" stroke="#4e4e4e" stroke-width="0.5" stroke-linecap="round"/><path d="M230.63146,168.78189l0.84074,0.0885" fill="none" stroke="#4e4e4e" stroke-width="0.5" stroke-linecap="round"/><path d="M228.02072,174.97685l0.531,-0.708" fill="none" stroke="#4e4e4e" stroke-width="0.5" stroke-linecap="round"/><path d="M235.49892,173.38385l-1.15049,1.90274" fill="none" stroke="#4e4e4e" stroke-width="0.5" stroke-linecap="round"/><path d="M238.5079,176.56983l-0.13275,0.531" fill="none" stroke="#4e4e4e" stroke-width="0.5" stroke-linecap="round"/><path d="M237.62291,178.42832v-0.66375" fill="none" stroke="#4e4e4e" stroke-width="0.5" stroke-linecap="round"/><path d="M241.42838,178.91507l0.04425,-1.01774" fill="none" stroke="#4e4e4e" stroke-width="0.5" stroke-linecap="round"/><path d="M243.41962,177.80882l-0.39825,0.88499" fill="none" stroke="#4e4e4e" stroke-width="0.5" stroke-linecap="round"/><path d="M244.48161,178.47257l0.75224,-1.68149" fill="none" stroke="#4e4e4e" stroke-width="0.5" stroke-linecap="round"/><path d="M246.03035,176.87958l0.0885,0.88499" fill="none" stroke="#4e4e4e" stroke-width="0.5" stroke-linecap="round"/><path d="M247.18084,177.49908l0.13275,-0.2655" fill="none" stroke="#4e4e4e" stroke-width="0.5" stroke-linecap="round"/><path d="M251.29607,178.38407l-0.66375,0.2655" fill="none" stroke="#4e4e4e" stroke-width="0.5" stroke-linecap="round"/><path d="M248.46408,177.80883l0.2655,-0.531" fill="none" stroke="#4e4e4e" stroke-width="0.5" stroke-linecap="round"/><path d="M238.19816,183.29579l-0.75224,0.0885" fill="none" stroke="#4e4e4e" stroke-width="0.5" stroke-linecap="round"/><path d="M235.94142,184.04803l0.57525,-0.22125" fill="none" stroke="#4e4e4e" stroke-width="0.5" stroke-linecap="round"/><path d="M236.42817,181.3488l1.41599,-0.30975" fill="none" stroke="#4e4e4e" stroke-width="0.5" stroke-linecap="round"/><path d="M235.01218,179.62306l0.79649,-0.0885" fill="none" stroke="#4e4e4e" stroke-width="0.5" stroke-linecap="round"/><path d="M233.77319,177.94157l0.708,-0.04425" fill="none" stroke="#4e4e4e" stroke-width="0.5" stroke-linecap="round"/><path d="M251.73856,180.89155l-0.57525,-0.708" fill="none" stroke="#4e4e4e" stroke-width="0.5" stroke-linecap="round"/><path d="M251.60582,187.04226l0.84074,0.2655" fill="none" stroke="#4e4e4e" stroke-width="0.5" stroke-linecap="round"/><path d="M251.95981,189.56449l-0.2655,-0.4425" fill="none" stroke="#4e4e4e" stroke-width="0.5" stroke-linecap="round"/><path d="M248.15434,186.95376l0.30975,-1.01774" fill="none" stroke="#4e4e4e" stroke-width="0.5" stroke-linecap="round"/><path d="M246.73835,187.48476l-0.4425,0.30975" fill="none" stroke="#4e4e4e" stroke-width="0.5" stroke-linecap="round"/><path d="M238.99465,186.29002l0.57525,0.75224" fill="none" stroke="#4e4e4e" stroke-width="0.5" stroke-linecap="round"/><path d="M235.54318,188.3255l0.75224,-0.0885" fill="none" stroke="#4e4e4e" stroke-width="0.5" stroke-linecap="round"/><path d="M241.25139,176.20108l-0.13275,0.6195" fill="none" stroke="#4e4e4e" stroke-width="0.5" stroke-linecap="round"/><path d="M246.8711,175.09484l-0.4425,0.66375" fill="none" stroke="#4e4e4e" stroke-width="0.5" stroke-linecap="round"/><path d="M249.26058,174.56384l-0.39825,0.13275" fill="none" stroke="#4e4e4e" stroke-width="0.5" stroke-linecap="round"/><path d="M251.03057,175.36034l-0.354,-0.57525" fill="none" stroke="#4e4e4e" stroke-width="0.5" stroke-linecap="round"/><path d="M248.02159,179.87381l1.32749,-0.4425" fill="none" stroke="#4e4e4e" stroke-width="0.5" stroke-linecap="round"/><path d="M239.34865,181.42255l0.75224,-0.0885" fill="none" stroke="#979797" stroke-width="0.5" stroke-linecap="round"/><path d="M240.76464,181.0243h1.37174" fill="none" stroke="#979797" stroke-width="0.5" stroke-linecap="round"/><path d="M243.19837,180.31631l0.6195,-0.2655" fill="none" stroke="#979797" stroke-width="0.5" stroke-linecap="round"/><path d="M244.96836,179.87381v-0.66375" fill="none" stroke="#979797" stroke-width="0.5" stroke-linecap="round"/><path d="M246.03035,179.34281l0.48675,-0.48675" fill="none" stroke="#979797" stroke-width="0.5" stroke-linecap="round"/><path d="M249.12783,184.74128l-0.13275,0.30975" fill="none" stroke="#979797" stroke-width="0.5" stroke-linecap="round"/><path d="M251.11907,182.52879l0.177,0.30975" fill="none" stroke="#979797" stroke-width="0.5" stroke-linecap="round"/><path d="M238.8619,184.03328l-0.04425,-0.66375" fill="none" stroke="#979797" stroke-width="0.5" stroke-linecap="round"/><path d="M236.25117,184.96253l-0.13275,0.75224" fill="none" stroke="#979797" stroke-width="0.5" stroke-linecap="round"/><path d="M235.89717,174.1656l0.2655,-0.4425" fill="none" stroke="#979797" stroke-width="0.5" stroke-linecap="round"/><path d="M230.71996,170.31587v0.6195" fill="none" stroke="#979797" stroke-width="0.5" stroke-linecap="round"/><path d="M229.70222,171.24512l-0.66375,0.22125" fill="none" stroke="#979797" stroke-width="0.5" stroke-linecap="round"/><path d="M239.61414,180.44906l-0.84074,-0.13275" fill="none" stroke="#979797" stroke-width="0.5" stroke-linecap="round"/><path d="M237.22466,174.91784l0.0885,-1.15049" fill="none" stroke="#979797" stroke-width="0.5" stroke-linecap="round"/><path d="M238.37516,175.67009l-0.0885,-0.75224" fill="none" stroke="#979797" stroke-width="0.5" stroke-linecap="round"/><path d="M238.99465,174.82934l0.22125,-0.79649" fill="none" stroke="#979797" stroke-width="0.5" stroke-linecap="round"/><path d="M240.36639,174.74085l0.04425,-0.39825" fill="none" stroke="#979797" stroke-width="0.5" stroke-linecap="round"/><path d="M241.03014,174.56385l0.04425,0.30975" fill="none" stroke="#979797" stroke-width="0.5" stroke-linecap="round"/><path d="M242.09213,174.1656l0.30975,0.2655" fill="none" stroke="#979797" stroke-width="0.5" stroke-linecap="round"/><path d="M242.84437,176.24533l0.354,0.79649" fill="none" stroke="#979797" stroke-width="0.5" stroke-linecap="round"/><path d="M243.72937,174.12135v0.92924" fill="none" stroke="#979797" stroke-width="0.5" stroke-linecap="round"/><path d="M245.14536,173.05936l-0.04425,0.57525" fill="none" stroke="#979797" stroke-width="0.5" stroke-linecap="round"/><path d="M246.0746,173.59035l0.0885,-0.354" fill="none" stroke="#979797" stroke-width="0.5" stroke-linecap="round"/><path d="M248.68533,173.59036l-1.10624,-0.48675" fill="none" stroke="#979797" stroke-width="0.5" stroke-linecap="round"/><path d="M234.92368,171.55487l-0.48675,-0.84074" fill="none" stroke="#979797" stroke-width="0.5" stroke-linecap="round"/><path d="M231.51645,175.75859l0.4425,-0.84074" fill="none" stroke="#979797" stroke-width="0.5" stroke-linecap="round"/><path d="M233.64044,176.02409l0.75224,-0.13275" fill="none" stroke="#979797" stroke-width="0.5" stroke-linecap="round"/><path d="M233.02094,174.56385l0.84074,-0.97349" fill="none" stroke="#979797" stroke-width="0.5" stroke-linecap="round"/><path d="M232.40145,171.86461l-0.48675,0.48675" fill="none" stroke="#979797" stroke-width="0.5" stroke-linecap="round"/><path d="M229.83496,173.9886l0.354,-0.22125" fill="none" stroke="#979797" stroke-width="0.5" stroke-linecap="round"/><path d="M233.19794,176.51083l-1.01774,0.13275l-0.39825,-0.4425" fill="none" stroke="#979797" stroke-width="0.5" stroke-linecap="round"/><path d="M234.48118,181.42255l-0.39825,-0.6195" fill="none" stroke="#979797" stroke-width="0.5" stroke-linecap="round"/><path d="M235.36618,186.29001v0.75224" fill="none" stroke="#979797" stroke-width="0.5" stroke-linecap="round"/><path d="M236.11842,190.40524l-0.4425,0.0885" fill="none" stroke="#979797" stroke-width="0.5" stroke-linecap="round"/><path d="M239.96814,188.63524v0.531" fill="none" stroke="#979797" stroke-width="0.5" stroke-linecap="round"/><path d="M238.37515,185.40502l0.22125,0.92924" fill="none" stroke="#979797" stroke-width="0.5" stroke-linecap="round"/><path d="M247.66759,182.70579l0.13275,1.01774" fill="none" stroke="#979797" stroke-width="0.5" stroke-linecap="round"/><path d="M247.75609,178.63482l-0.6195,-0.30975" fill="none" stroke="#979797" stroke-width="0.5" stroke-linecap="round"/><path d="M225.056,176.33383c0,0 -0.48675,-0.79649 -0.48675,-1.23899c0,-0.4425 0.2655,-1.37174 0.2655,-1.37174c0,0 0.02198,-0.39825 0.4425,-0.39825c0.33497,0 0.55084,1.28798 1.41247,1.96365c0.5734,0.44964 1.7735,0.24883 1.7735,0.24883l-0.75224,0.75224c0,0 -1.16504,0.531 -1.72574,0.531c-0.3331,0 -0.92924,-0.48675 -0.92924,-0.48675z" fill="#000000" stroke="none" stroke-width="0" stroke-linecap="butt"/></g></g></svg>